<?xml version="1.0" encoding="UTF-8" standalone="no"?>
<!-- Created with Inkscape (http://www.inkscape.org/) -->

<svg
   xmlns:ns0="http://www.iki.fi/pav/software/textext/"
   xmlns:dc="http://purl.org/dc/elements/1.1/"
   xmlns:cc="http://creativecommons.org/ns#"
   xmlns:rdf="http://www.w3.org/1999/02/22-rdf-syntax-ns#"
   xmlns:svg="http://www.w3.org/2000/svg"
   xmlns="http://www.w3.org/2000/svg"
   xmlns:sodipodi="http://sodipodi.sourceforge.net/DTD/sodipodi-0.dtd"
   xmlns:inkscape="http://www.inkscape.org/namespaces/inkscape"
   width="1052.3622"
   height="744.09448"
   id="svg3056"
   version="1.1"
   inkscape:version="0.48.4 r9939"
   sodipodi:docname="def_spacelike_hyp.svg">
  <sodipodi:namedview
     id="base"
     pagecolor="#ffffff"
     bordercolor="#666666"
     borderopacity="1.0"
     inkscape:pageopacity="0.0"
     inkscape:pageshadow="2"
     inkscape:zoom="1.9381351"
     inkscape:cx="509.04593"
     inkscape:cy="397.7076"
     inkscape:document-units="px"
     inkscape:current-layer="g3817"
     showgrid="false"
     inkscape:window-width="1535"
     inkscape:window-height="876"
     inkscape:window-x="65"
     inkscape:window-y="24"
     inkscape:window-maximized="1" />
  <defs
     id="defs3058">
    <marker
       style="overflow:visible;"
       id="Arrow2Mend"
       refX="0.0"
       refY="0.0"
       orient="auto"
       inkscape:stockid="Arrow2Mend">
      <path
         transform="scale(0.6) rotate(180) translate(0,0)"
         d="M 8.7185878,4.0337352 L -2.2072895,0.016013256 L 8.7185884,-4.0017078 C 6.9730900,-1.6296469 6.9831476,1.6157441 8.7185878,4.0337352 z "
         style="fill-rule:evenodd;stroke-width:0.62500000;stroke-linejoin:round;"
         id="path3897" />
    </marker>
  </defs>
  <metadata
     id="metadata3061">
    <rdf:RDF>
      <cc:Work
         rdf:about="">
        <dc:format>image/svg+xml</dc:format>
        <dc:type
           rdf:resource="http://purl.org/dc/dcmitype/StillImage" />
        <dc:title />
      </cc:Work>
    </rdf:RDF>
  </metadata>
  <g
     transform="translate(0,-308.2677)"
     id="layer1"
     inkscape:groupmode="layer"
     inkscape:label="Calque 1">
    <path
       sodipodi:nodetypes="ccccc"
       inkscape:connector-curvature="0"
       id="path2993"
       d="m 349.35068,606.48151 c -54.4975,43.86931 -69.41247,81.34602 -93.15839,139.47628 108.32573,0.29651 256.16505,-37.93404 436.91275,48.6607 15.68444,-75.30545 23.03834,-124.78652 68.79454,-162.33545 -107.33545,-54.49451 -412.5489,-25.80153 -412.5489,-25.80153 z"
       style="fill:#d7f4ee;stroke:#000000;stroke-width:0.9653368;stroke-linecap:butt;stroke-linejoin:miter;stroke-miterlimit:4;stroke-opacity:1;stroke-dasharray:none" />
    <g
       transform="translate(-144.14336,-96.839345)"
       id="g3817">
      <path
         sodipodi:nodetypes="cccc"
         inkscape:connector-curvature="0"
         id="path4173-7-2"
         d="m 648.01703,762.2902 58.94385,-60.3863 -118.00349,-0.14748 z"
         style="fill:#e6e6e6;fill-opacity:1;stroke:#008000;stroke-width:1.5;stroke-linecap:butt;stroke-linejoin:miter;stroke-miterlimit:4;stroke-opacity:1;stroke-dasharray:none" />
      <path
         transform="matrix(0.37895888,0,0,0.37895888,453.99008,626.09002)"
         d="m 672,184.09448 c 0,35.34623 -71.63444,64 -160,64 -88.36556,0 -160,-28.65377 -160,-64 0,-35.34622 71.63444,-64 160,-64 88.36556,0 160,28.65378 160,64 z"
         sodipodi:ry="64"
         sodipodi:rx="160"
         sodipodi:cy="184.09448"
         sodipodi:cx="512"
         id="path3367-8-2"
         style="fill:#f9f9f9;fill-opacity:1;stroke:#008000;stroke-width:3.95821309;stroke-miterlimit:4;stroke-opacity:1;stroke-dasharray:none;stroke-dashoffset:0"
         sodipodi:type="arc" />
      <path
         sodipodi:nodetypes="ccc"
         inkscape:connector-curvature="0"
         id="path4173-2-1-2"
         d="m 589.9586,819.2208 58.05843,-57.20635 59.24469,59.24044"
         style="fill:none;stroke:#008000;stroke-width:1.5;stroke-linecap:butt;stroke-linejoin:miter;stroke-miterlimit:4;stroke-opacity:1;stroke-dasharray:9, 9;stroke-dashoffset:0" />
      <path
         d="m 672,184.09448 c 0,35.34623 -71.63444,64 -160,64 -88.36556,0 -160,-28.65377 -160,-64 0,-35.34622 71.63444,-64 160,-64 88.36556,0 160,28.65378 160,64 z"
         sodipodi:ry="64"
         sodipodi:rx="160"
         sodipodi:cy="184.09448"
         sodipodi:cx="512"
         id="path3367-4-0-5"
         style="fill:none;stroke:none"
         sodipodi:type="arc"
         transform="matrix(0.37895888,0,0,-0.37895888,453.99008,898.21463)" />
      <path
         sodipodi:end="9.7509227"
         sodipodi:start="5.7912227"
         d="m 653.0252,153.86366 c 41.74006,31.15442 12.43793,69.94488 -65.44814,86.6409 -77.88606,16.69603 -174.8622,4.97518 -216.60226,-26.17925 -20.90232,-15.60132 -24.71811,-33.96863 -10.54033,-50.736"
         sodipodi:ry="64"
         sodipodi:rx="160"
         sodipodi:cy="184.09448"
         sodipodi:cx="512"
         id="path3367-7-8-0-0"
         style="fill:none;stroke:#008000;stroke-width:3.95821309;stroke-miterlimit:4;stroke-opacity:1;stroke-dasharray:23.74927855, 23.74927855;stroke-dashoffset:0"
         sodipodi:type="arc"
         transform="matrix(0.37380737,0,0,-0.36223607,456.9834,893.16935)"
         sodipodi:open="true" />
      <path
         sodipodi:open="true"
         sodipodi:end="12.336388"
         sodipodi:start="6.0600102"
         transform="matrix(0.11214915,0,0,0.11214915,600.01946,725.67665)"
         d="m 439.782,321.78783 c 1.51208,6.66245 -2.66312,13.28922 -9.32557,14.8013 -6.66245,1.51208 -13.28922,-2.66312 -14.8013,-9.32557 -1.51208,-6.66245 2.66312,-13.28922 9.32557,-14.8013 6.6304,-1.50481 13.23248,2.62351 14.78238,9.24351"
         sodipodi:ry="12.370221"
         sodipodi:rx="12.370221"
         sodipodi:cy="324.5257"
         sodipodi:cx="427.71857"
         id="path4966-9-1"
         style="fill:#008000;fill-opacity:1;stroke:none"
         sodipodi:type="arc" />
      <path
         sodipodi:open="true"
         sodipodi:end="2.8549663"
         sodipodi:start="0.65085011"
         d="m 639.29105,222.86971 c -53.53742,28.12036 -153.92822,33.55616 -224.22912,12.14119 -27.0988,-8.2548 -46.90445,-19.75346 -56.53443,-32.82248"
         sodipodi:ry="64"
         sodipodi:rx="160"
         sodipodi:cy="184.09448"
         sodipodi:cx="512"
         id="path3367-7-8-0-0-4"
         style="fill:none;stroke:#008000;stroke-width:3.95821309;stroke-miterlimit:4;stroke-opacity:1;stroke-dasharray:none;stroke-dashoffset:0"
         sodipodi:type="arc"
         transform="matrix(0.35779741,0,0,0.36283919,465.05254,761.36746)" />
      <path
         sodipodi:nodetypes="cscc"
         inkscape:connector-curvature="0"
         id="path3844"
         d="m 594.81964,835.85543 c 0,0 12.09981,9.56936 35.28899,13.20511 16.90701,2.65079 34.75916,1.67569 56.93,-5.26021 -24.96054,-3.92458 -92.21899,-7.9449 -92.21899,-7.9449 z"
         style="fill:#f2f2f2;stroke:none" />
    </g>
    <text
       sodipodi:linespacing="125%"
       id="text3036-5-1"
       y="732.56415"
       x="716.37946"
       style="font-size:12.12668419px;font-style:normal;font-weight:normal;line-height:125%;letter-spacing:0px;word-spacing:0px;fill:#000000;fill-opacity:1;stroke:none;font-family:Sans"
       xml:space="preserve"><tspan
         y="732.56415"
         x="716.37946"
         id="tspan3038-6-4"
         sodipodi:role="line" /></text>
    <path
       transform="matrix(0.59610707,0,0,0.59610707,405.97284,403.80718)"
       d="m 170.41851,438.59769 c 0,3.46984 -2.81286,6.28271 -6.28271,6.28271 -3.46984,0 -6.28271,-2.81287 -6.28271,-6.28271 0,-3.46985 2.81287,-6.28271 6.28271,-6.28271 3.46985,0 6.28271,2.81286 6.28271,6.28271 z"
       sodipodi:ry="6.2827106"
       sodipodi:rx="6.2827106"
       sodipodi:cy="438.59769"
       sodipodi:cx="164.1358"
       id="path3061-5"
       style="fill:#000000;fill-opacity:1;stroke:#000000;stroke-width:1;stroke-miterlimit:4;stroke-opacity:1;stroke-dasharray:none;stroke-dashoffset:0"
       sodipodi:type="arc" />
    <path
       inkscape:connector-curvature="0"
       id="path4312"
       d="m 503.67421,624.0212 0,-105.84007"
       style="fill:none;stroke:#000000;stroke-width:3;stroke-linecap:butt;stroke-linejoin:miter;stroke-miterlimit:4;stroke-opacity:1;stroke-dasharray:none;marker-end:url(#Arrow2Mend)" />
    <path
       sodipodi:nodetypes="cc"
       inkscape:connector-curvature="0"
       id="path4496"
       d="m 503.67421,627.75673 0.62259,36.11014"
       style="fill:none;stroke:#000000;stroke-width:3;stroke-linecap:butt;stroke-linejoin:miter;stroke-miterlimit:4;stroke-opacity:1;stroke-dasharray:9, 9;stroke-dashoffset:0" />
    <g
       ns0:preamble="/home/eric/BHLectures/Notes/latex_inkscape.ini"
       ns0:text="$\\bm{n}$"
       word-spacing="normal"
       letter-spacing="normal"
       font-size-adjust="none"
       font-stretch="normal"
       font-weight="normal"
       font-variant="normal"
       font-style="normal"
       stroke-miterlimit="10.433"
       xml:space="preserve"
       transform="matrix(4,0,0,-4,-374.96757,3362.5535)"
       id="content"
       style="font-style:normal;font-variant:normal;font-weight:normal;font-stretch:normal;letter-spacing:normal;word-spacing:normal;text-anchor:start;fill:none;stroke:#000000;stroke-linecap:butt;stroke-linejoin:miter;stroke-miterlimit:10.43299961;stroke-opacity:1;stroke-dasharray:none;stroke-dashoffset:0"><path
         id="path4521"
         d="m 226.22,710.86 -0.02,0.05 -0.01,0.04 -0.02,0.04 -0.02,0.05 -0.03,0.04 -0.02,0.03 -0.03,0.04 -0.03,0.04 -0.03,0.03 -0.03,0.04 -0.03,0.03 -0.04,0.03 -0.04,0.03 -0.03,0.02 -0.04,0.03 -0.05,0.02 -0.04,0.03 -0.04,0.02 -0.04,0.02 -0.05,0.02 -0.05,0.01 -0.04,0.02 -0.05,0.01 -0.05,0.02 -0.05,0.01 -0.05,0.01 -0.05,0.01 -0.04,0 -0.06,0.01 -0.05,0 -0.05,0 -0.05,0 c -0.36,0 -0.64,-0.2 -0.86,-0.56 -0.25,-0.4 -0.38,-0.94 -0.38,-0.98 0,-0.14 0.15,-0.14 0.24,-0.14 0.11,0 0.15,0 0.2,0.05 0.02,0.02 0.02,0.04 0.08,0.28 0.2,0.78 0.42,1 0.67,1 0.15,0 0.23,-0.1 0.23,-0.37 0,-0.17 -0.04,-0.33 -0.14,-0.73 -0.07,-0.27 -0.16,-0.67 -0.21,-0.89 l -0.36,-1.39 c -0.03,-0.14 -0.08,-0.33 -0.08,-0.4 0,-0.21 0.16,-0.43 0.47,-0.43 0.51,0 0.63,0.45 0.7,0.75 0.1,0.37 0.18,0.69 0.28,1.11 0.04,0.13 0.29,1.16 0.31,1.18 0.01,0.07 0.29,0.51 0.62,0.78 0.27,0.22 0.6,0.39 1.02,0.39 0.26,0 0.5,-0.1 0.5,-0.59 0,-0.57 -0.44,-1.73 -0.63,-2.22 -0.11,-0.27 -0.14,-0.34 -0.14,-0.51 0,-0.58 0.58,-0.89 1.12,-0.89 1.06,0 1.56,1.35 1.56,1.54 0,0.14 -0.15,0.14 -0.24,0.14 -0.12,0 -0.19,0 -0.23,-0.13 -0.33,-1.1 -0.87,-1.2 -1.02,-1.2 -0.07,0 -0.17,0 -0.17,0.21 0,0.23 0.1,0.48 0.2,0.73 0.15,0.4 0.61,1.57 0.61,2.12 0,0.92 -0.76,1.15 -1.48,1.15 -0.21,0 -0.94,0 -1.64,-0.75 z"
         inkscape:connector-curvature="0"
         style="fill:#000000;stroke-width:0" /></g>    <g
       ns0:preamble="/home/eric/BHLectures/Notes/latex_inkscape.ini"
       ns0:text="$\\Sigma$"
       word-spacing="normal"
       letter-spacing="normal"
       font-size-adjust="none"
       font-stretch="normal"
       font-weight="normal"
       font-variant="normal"
       font-style="normal"
       stroke-miterlimit="10.433"
       xml:space="preserve"
       transform="matrix(4,0,0,-4,-234.29126,3581.6842)"
       id="g4636"
       style="font-style:normal;font-variant:normal;font-weight:normal;font-stretch:normal;letter-spacing:normal;word-spacing:normal;text-anchor:start;fill:#008080;stroke:#000000;stroke-linecap:butt;stroke-linejoin:miter;stroke-miterlimit:10.43299961;stroke-opacity:1;stroke-dasharray:none;stroke-dashoffset:0"><path
         id="path4638"
         d="m 227.13,710.36 0.01,0.01 0,0 0.01,0.01 0,0 0,0.01 0.01,0 0,0 0,0.01 0.01,0 0,0.01 0,0 0.01,0.01 0.01,0.01 0,0 0,0.01 0.01,0.01 0,0 0,0.01 0.01,0 0,0.01 0,0 0,0.01 0.01,0 0,0.01 0,0 0,0 0,0.01 0,0 0,0 0,0.01 0,0 0,0 0,0 0,0.01 0,0 0,0 c 0,0.05 -0.04,0.1 -0.07,0.14 l -2.04,2.94 h 2.3 c 1.68,0 2.18,-0.36 2.39,-1.93 h 0.25 l -0.28,2.24 h -5.52 c -0.24,0 -0.26,0 -0.26,-0.23 l 2.48,-3.59 -2.37,-2.7 c -0.1,-0.11 -0.1,-0.13 -0.1,-0.16 0,-0.11 0.1,-0.11 0.25,-0.11 h 5.52 l 0.28,2.35 h -0.25 c -0.18,-1.66 -0.86,-1.93 -2.42,-1.93 h -2.74 z"
         inkscape:connector-curvature="0"
         style="fill:#008080;stroke-width:0" /></g>  </g>
</svg>
