<?xml version="1.0" encoding="UTF-8" standalone="no"?>
<!-- Created with Inkscape (http://www.inkscape.org/) -->

<svg
   xmlns:ns0="http://www.iki.fi/pav/software/textext/"
   xmlns:dc="http://purl.org/dc/elements/1.1/"
   xmlns:cc="http://creativecommons.org/ns#"
   xmlns:rdf="http://www.w3.org/1999/02/22-rdf-syntax-ns#"
   xmlns:svg="http://www.w3.org/2000/svg"
   xmlns="http://www.w3.org/2000/svg"
   xmlns:sodipodi="http://sodipodi.sourceforge.net/DTD/sodipodi-0.dtd"
   xmlns:inkscape="http://www.inkscape.org/namespaces/inkscape"
   width="1052.3622"
   height="744.09448"
   id="svg2"
   version="1.1"
   inkscape:version="0.91 r13725"
   sodipodi:docname="def_area_invariance.svg">
  <sodipodi:namedview
     id="base"
     pagecolor="#ffffff"
     bordercolor="#666666"
     borderopacity="1.0"
     inkscape:pageopacity="0.0"
     inkscape:pageshadow="2"
     inkscape:zoom="1.0140928"
     inkscape:cx="570.57072"
     inkscape:cy="421.61933"
     inkscape:document-units="px"
     inkscape:current-layer="layer1"
     showgrid="false"
     inkscape:window-width="1535"
     inkscape:window-height="876"
     inkscape:window-x="65"
     inkscape:window-y="24"
     inkscape:window-maximized="1" />
  <defs
     id="defs4">
    <marker
       inkscape:isstock="true"
       style="overflow:visible;"
       id="Arrow2Mend"
       refX="0.0"
       refY="0.0"
       orient="auto"
       inkscape:stockid="Arrow2Mend">
      <path
         transform="scale(0.6) rotate(180) translate(0,0)"
         d="M 8.7185878,4.0337352 L -2.2072895,0.016013256 L 8.7185884,-4.0017078 C 6.9730900,-1.6296469 6.9831476,1.6157441 8.7185878,4.0337352 z "
         style="fill-rule:evenodd;stroke-width:0.625;stroke-linejoin:round;stroke:#000000;stroke-opacity:1;fill:#000000;fill-opacity:1"
         id="path4547" />
    </marker>
    <marker
       inkscape:stockid="Arrow2MendN"
       orient="auto"
       refY="0"
       refX="0"
       id="Arrow2MendN"
       style="overflow:visible">
      <path
         inkscape:connector-curvature="0"
         id="path8264"
         style="fill:#338000;fill-rule:evenodd;stroke:#338000;stroke-width:0.625;stroke-linejoin:round"
         d="M 8.7185878,4.0337352 -2.2072895,0.01601326 8.7185884,-4.0017078 c -1.7454984,2.3720609 -1.7354408,5.6174519 -6e-7,8.035443 z"
         transform="scale(-0.6,-0.6)" />
    </marker>
    <marker
       inkscape:stockid="Arrow2MendN"
       orient="auto"
       refY="0"
       refX="0"
       id="Arrow2MendN-0"
       style="overflow:visible">
      <path
         inkscape:connector-curvature="0"
         id="path8264-2"
         style="fill:#338000;fill-rule:evenodd;stroke:#338000;stroke-width:0.625;stroke-linejoin:round"
         d="M 8.7185878,4.0337352 -2.2072895,0.01601326 8.7185884,-4.0017078 c -1.7454984,2.3720609 -1.7354408,5.6174519 -6e-7,8.035443 z"
         transform="scale(-0.6,-0.6)" />
    </marker>
    <marker
       inkscape:stockid="Arrow2MendN"
       orient="auto"
       refY="0"
       refX="0"
       id="Arrow2MendN-06"
       style="overflow:visible">
      <path
         inkscape:connector-curvature="0"
         id="path8264-9"
         style="fill:#338000;fill-rule:evenodd;stroke:#338000;stroke-width:0.625;stroke-linejoin:round"
         d="M 8.7185878,4.0337352 -2.2072895,0.01601326 8.7185884,-4.0017078 c -1.7454984,2.3720609 -1.7354408,5.6174519 -6e-7,8.035443 z"
         transform="scale(-0.6,-0.6)" />
    </marker>
    <marker
       inkscape:isstock="true"
       style="overflow:visible"
       id="Arrow2Mend-7"
       refX="0"
       refY="0"
       orient="auto"
       inkscape:stockid="Arrow2Mend">
      <path
         transform="scale(-0.6,-0.6)"
         d="M 8.7185878,4.0337352 -2.2072895,0.01601326 8.7185884,-4.0017078 c -1.7454984,2.3720609 -1.7354408,5.6174519 -6e-7,8.035443 z"
         style="fill:#000000;fill-opacity:1;fill-rule:evenodd;stroke:#000000;stroke-width:0.625;stroke-linejoin:round;stroke-opacity:1"
         id="path4547-0"
         inkscape:connector-curvature="0" />
    </marker>
  </defs>
  <metadata
     id="metadata7">
    <rdf:RDF>
      <cc:Work
         rdf:about="">
        <dc:format>image/svg+xml</dc:format>
        <dc:type
           rdf:resource="http://purl.org/dc/dcmitype/StillImage" />
        <dc:title />
      </cc:Work>
    </rdf:RDF>
  </metadata>
  <g
     inkscape:label="Calque 1"
     inkscape:groupmode="layer"
     id="layer1"
     transform="translate(0,-308.2677)">
    <path
       style="fill:#e5ffd5;stroke:none"
       d="M 193.88855,45.93176 C 301.53444,148.96438 755.32225,138.81598 856.37212,35.724707 865.55847,221.49315 845.14435,456.25546 807.37824,604.2578 779.81919,707.34908 422.57218,713.47331 328.66725,596.09215 297.02537,453.19335 195.68957,228.39323 193.88855,45.93176 z"
       id="path3819"
       inkscape:connector-curvature="0"
       sodipodi:nodetypes="ccccc"
       transform="translate(0,308.2677)" />
    <path
       style="fill:none;stroke:#000000;stroke-width:2;stroke-linecap:butt;stroke-linejoin:miter;stroke-miterlimit:4;stroke-opacity:1;stroke-dasharray:8,8;stroke-dashoffset:0"
       d="M 806.29704,908.6607 C 795.53567,844.5444 551.61182,823.42997 451.15193,831.88974"
       id="path3875" />
    <path
       style="fill:none;stroke:#000000;stroke-width:2;stroke-linecap:butt;stroke-linejoin:miter;stroke-miterlimit:4;stroke-opacity:1;stroke-dasharray:8,8;stroke-dashoffset:0"
       d="m 451.15193,831.88974 c -63.64298,5.35941 -121.02591,26.10715 -123.00545,56.76211"
       id="path3873" />
    <path
       style="fill:none;stroke:#000000;stroke-width:3;stroke-linecap:butt;stroke-linejoin:miter;stroke-miterlimit:4;stroke-opacity:1;stroke-dasharray:none"
       d="m 328.14648,888.65185 c -1.0365,16.05123 13.11676,34.81869 49.51464,55.51552 154.44443,87.82133 407.26159,44.91105 427.6757,-22.45552 1.3741,-4.53452 1.65969,-8.88367 0.96022,-13.05115"
       id="path2985" />
    <path
       style="fill:none;stroke:#000000;stroke-width:2.05071187;stroke-linecap:butt;stroke-linejoin:miter;stroke-miterlimit:4;stroke-opacity:1;stroke-dasharray:8.20284748, 8.20284748;stroke-dashoffset:0"
       d="M 833.8365,757.77457 C 817.1896,686.26416 541.96817,625.96667 423.76182,619.33585"
       id="path3861"
       inkscape:connector-curvature="0" />
    <path
       style="fill:none;stroke:#000000;stroke-width:2;stroke-linecap:butt;stroke-linejoin:miter;stroke-miterlimit:4;stroke-opacity:1;stroke-dasharray:8,8;stroke-dashoffset:0"
       d="m 423.76182,619.33585 c -85.04481,-4.77061 -169.45844,20.24799 -161.76928,61.50612"
       id="path3859"
       inkscape:connector-curvature="0" />
    <path
       style="fill:none;stroke:#000000;stroke-width:3;stroke-linecap:butt;stroke-linejoin:miter;stroke-miterlimit:4;stroke-opacity:1;stroke-dasharray:none"
       d="m 261.99254,680.84197 c 2.92498,15.69472 19.17782,33.73939 53.79373,53.38817 183.89949,104.38551 478.87689,117.16577 515.35003,44.36753 3.51667,-7.01906 4.29494,-13.97253 2.7002,-20.8231"
       id="path2985-7"
       inkscape:connector-curvature="0" />
    <path
       style="fill:#f9f9f9;stroke:#000000;stroke-width:3;stroke-linecap:butt;stroke-linejoin:miter;stroke-miterlimit:4;stroke-opacity:1;stroke-dasharray:none"
       d="M 262.848,391.23007 C 479.92365,469.02971 826.75571,410.30603 851.84835,341.8651 879.52271,266.38255 506.31129,258.9413 359.11841,274.67201 225.71431,288.92909 113.98695,337.87846 262.848,391.23007 z"
       id="path2985-0"
       inkscape:connector-curvature="0"
       sodipodi:nodetypes="ssss" />
    <path
       style="fill:none;stroke:#000000;stroke-width:2;stroke-linecap:butt;stroke-linejoin:miter;stroke-miterlimit:4;stroke-opacity:1;stroke-dasharray:none"
       d="M 327.64654,891.09068 C 274.56984,696.13589 206.18256,581.81684 191.89268,341.951"
       id="path3780"
       inkscape:connector-curvature="0"
       sodipodi:nodetypes="cc" />
    <path
       style="fill:none;stroke:#000000;stroke-width:2;stroke-linecap:butt;stroke-linejoin:miter;stroke-miterlimit:4;stroke-opacity:1;stroke-dasharray:none"
       d="M 806.47095,916.09793 C 859.54765,721.14318 865.67188,440.4491 853.42341,335.31641"
       id="path3780-7"
       inkscape:connector-curvature="0"
       sodipodi:nodetypes="cc" />
    <path
       style="fill:none;stroke:#338000;stroke-width:3;stroke-linecap:butt;stroke-linejoin:miter;stroke-miterlimit:4;stroke-opacity:1;stroke-dasharray:none"
       d="m 721.54122,972.97906 c 46.07936,-200.95247 68.53715,-419.88003 58.28565,-579.9295"
       id="path3780-7-2"
       inkscape:connector-curvature="0"
       sodipodi:nodetypes="cc" />
    <g
       id="g3373"
       transform="translate(34.986698,171.93463)">
      <path
         id="path3865"
         d="M 817.04097,422.15778 C 809.11533,302.7323 213.66534,468.63436 254.81073,597.0108"
         style="fill:none;stroke:#000000;stroke-width:2;stroke-linecap:butt;stroke-linejoin:miter;stroke-miterlimit:4;stroke-dasharray:8,8;stroke-dashoffset:0;stroke-opacity:1"
         inkscape:connector-curvature="0"
         sodipodi:nodetypes="cc" />
      <path
         id="path2985-7-0"
         d="m 255.81035,603.00852 c 16.40788,19.06135 51.52257,26.73781 111.56886,32.63053 291.36683,28.59368 462.14546,-128.03524 451.08424,-209.68518"
         style="fill:none;stroke:#000000;stroke-width:3;stroke-linecap:butt;stroke-linejoin:miter;stroke-miterlimit:4;stroke-dasharray:none;stroke-opacity:1"
         inkscape:connector-curvature="0"
         sodipodi:nodetypes="csc" />
    </g>
    <path
       style="fill:none;stroke:#338000;stroke-width:3;stroke-linecap:butt;stroke-linejoin:miter;stroke-miterlimit:4;stroke-opacity:1;stroke-dasharray:none"
       d="m 622.52714,990.75102 c 9.49162,-221.46303 10.69832,-362.4946 -2.45026,-564.66689"
       id="path3780-7-2-1"
       inkscape:connector-curvature="0"
       sodipodi:nodetypes="cc" />
    <path
       style="fill:none;stroke:#338000;stroke-width:3;stroke-linecap:butt;stroke-linejoin:miter;stroke-miterlimit:4;stroke-opacity:1;stroke-dasharray:none"
       d="M 395.52153,953.2966 C 336.73366,731.10227 323.89016,591.99592 309.73271,407.8908"
       id="path3780-7-2-7"
       inkscape:connector-curvature="0"
       sodipodi:nodetypes="cc" />
    <path
       style="fill:none;stroke:#338000;stroke-width:3;stroke-linecap:butt;stroke-linejoin:miter;stroke-miterlimit:4;stroke-dasharray:none;stroke-opacity:1"
       d="M 544.70364,992.69144 C 526.90019,794.48799 515.05631,625.39304 509.89544,430.2921"
       id="path3780-7-2-7-5"
       inkscape:connector-curvature="0"
       sodipodi:nodetypes="cc" />
    <g
       style="font-style:normal;font-variant:normal;font-weight:normal;font-stretch:normal;letter-spacing:normal;word-spacing:normal;text-anchor:start;fill:#338000;stroke:#000000;stroke-linecap:butt;stroke-linejoin:miter;stroke-miterlimit:10.43299961;stroke-dasharray:none;stroke-dashoffset:0;stroke-opacity:1"
       ns0:preamble="/home/eric/BHLectures/Notes/latex_inkscape.ini"
       ns0:text="$\\mathscr{H}$"
       word-spacing="normal"
       letter-spacing="normal"
       font-size-adjust="none"
       font-stretch="normal"
       font-weight="normal"
       font-variant="normal"
       font-style="normal"
       stroke-miterlimit="10.433"
       xml:space="preserve"
       transform="matrix(6.4969691,0,0,-6.4969691,-581.15004,5107.1946)"
       id="g3213"
       inkscape:transform-center-y="43.983278"><path
         id="path3215"
         d="m 232.59,708.52 -0.01,0 0,0 0,0.01 0,0 0,0.01 0,0 0,0.01 0,0 0,0 -0.01,0.01 0,0 0,0 0,0.01 0,0 -0.01,0 0,0 0,0.01 -0.01,0 0,0 0,0 -0.01,0 0,0.01 0,0 -0.01,0 0,0 0,0 -0.01,0 0,0 0,0 -0.01,0 0,0 0,0 -0.11,0 c -0.03,0 -0.06,0 -0.07,-0.02 -0.47,-0.66 -1.1,-1.31 -1.59,-1.31 -0.4,0 -0.57,0.19 -0.57,0.51 0,0.48 0.4,1.25 0.98,2.09 0.24,0.34 0.48,0.67 0.73,1.01 1.33,0.08 2.66,0.37 3.4,1.42 0.31,0.44 0.49,0.88 0.49,1.23 0,0.38 -0.21,0.64 -0.71,0.64 l -0.04,-0.22 c 0.33,0 0.49,-0.17 0.49,-0.45 0,-0.28 -0.17,-0.66 -0.48,-1.1 -0.64,-0.9 -1.77,-1.19 -2.98,-1.29 1.1,1.5 2.23,2.84 2.97,2.84 l 0,0 0.04,0.22 c -1.41,0 -2.77,-1.5 -3.96,-3.1 l -1.27,0 c 0.74,0.99 1.49,1.99 2.27,2.97 0.02,0.03 0.02,0.05 0.02,0.08 l -0.03,0.08 c -0.01,0.03 -0.04,0.06 -0.08,0.06 -0.02,0 -0.04,-0.01 -0.06,-0.03 -0.5,-0.48 -0.99,-0.96 -1.52,-1.48 -0.37,-0.52 -1.13,-0.88 -1.69,-0.88 -0.11,0 -0.19,0.06 -0.19,0.16 0,0.07 0.04,0.16 0.11,0.27 0.14,0.21 0.21,0.4 0.21,0.56 0,0.32 -0.26,0.53 -0.7,0.53 -0.52,0 -1.06,-0.64 -1.43,-1.17 0,-0.01 0,-0.03 0,-0.04 0,-0.05 0.02,-0.09 0.08,-0.09 l 0.1,0 c 0.03,0 0.05,0.02 0.07,0.04 0.38,0.54 0.76,1.04 1.14,1.04 0.16,0 0.25,-0.08 0.25,-0.22 0,-0.14 -0.08,-0.32 -0.24,-0.55 -0.09,-0.13 -0.13,-0.24 -0.13,-0.34 0,-0.28 0.34,-0.4 0.7,-0.4 0.29,0 0.64,0.07 0.97,0.22 -0.25,-0.28 -0.5,-0.57 -0.74,-0.86 -1.14,-0.11 -2.26,-0.44 -2.94,-1.4 l -0.01,-0.05 c 0,-0.04 0.03,-0.08 0.08,-0.08 l 0.11,0 c 0.03,0 0.06,0.01 0.07,0.03 0.57,0.81 1.5,1.13 2.49,1.25 -0.39,-0.5 -0.78,-0.99 -1.14,-1.5 -0.74,-1.05 -1.65,-2.14 -2.49,-2.14 -0.66,0 -1.14,0.2 -1.14,0.61 0,0.1 0.03,0.21 0.09,0.34 0.07,-0.1 0.18,-0.15 0.3,-0.15 0.26,0 0.55,0.2 0.55,0.39 0,0.24 -0.15,0.34 -0.32,0.34 -0.21,0 -0.45,-0.12 -0.57,-0.29 -0.18,-0.26 -0.26,-0.48 -0.26,-0.67 0,-0.52 0.59,-0.78 1.31,-0.78 1.11,0 2.57,1.1 3.39,2.25 0.39,0.56 0.79,1.11 1.2,1.67 0.23,0.01 0.46,0.01 0.69,0.01 l 0.59,0 c -0.21,-0.3 -0.43,-0.6 -0.63,-0.88 -0.49,-0.69 -0.76,-1.37 -0.76,-1.9 0,-0.61 0.35,-1.01 1.15,-1.01 0.63,0 1.39,0.74 1.87,1.42 0.02,0.02 0.02,0.03 0.02,0.05 z"
         inkscape:connector-curvature="0"
         style="fill:#338000;stroke-width:0" /></g>    <path
       style="fill:#338000;stroke:#338000;stroke-width:5.4274869;stroke-linecap:butt;stroke-linejoin:miter;stroke-miterlimit:4;stroke-dasharray:none;stroke-opacity:1;marker-end:url(#Arrow2MendN)"
       d="m 628.1641,822.86655 2.97726,-149.1743"
       id="path6363-8"
       inkscape:connector-curvature="0"
       sodipodi:nodetypes="cc" />
    <g
       id="g9423-6-8"
       transform="matrix(6.3968321,0,0,-6.3968321,-844.88121,5222.0089)"
       xml:space="preserve"
       stroke-miterlimit="10.433"
       font-style="normal"
       font-variant="normal"
       font-weight="normal"
       font-stretch="normal"
       font-size-adjust="none"
       letter-spacing="normal"
       word-spacing="normal"
       ns0:text="$\\bm{\\ell}$"
       ns0:preamble="/home/eric/BHLectures/Notes/latex_inkscape.ini"
       style="font-style:normal;font-variant:normal;font-weight:normal;font-stretch:normal;letter-spacing:normal;word-spacing:normal;text-anchor:start;fill:#338000;fill-opacity:1;fill-rule:evenodd;stroke:#000000;stroke-linecap:butt;stroke-linejoin:miter;stroke-miterlimit:10.43299961;stroke-dasharray:none;stroke-dashoffset:0;stroke-opacity:1"><path
         inkscape:connector-curvature="0"
         style="fill:#338000;stroke-width:0"
         d="m 224.45,708.38 0.02,-0.09 0.02,-0.09 0.02,-0.08 0.03,-0.08 0.02,-0.07 0.04,-0.08 0.03,-0.07 0.03,-0.06 0.04,-0.07 0.04,-0.06 0.04,-0.06 0.04,-0.05 0.04,-0.05 0.05,-0.05 0.04,-0.05 0.05,-0.04 0.05,-0.04 0.05,-0.04 0.05,-0.03 0.05,-0.03 0.06,-0.03 0.05,-0.03 0.06,-0.02 0.06,-0.03 0.05,-0.01 0.06,-0.02 0.06,-0.01 0.06,-0.01 0.06,-0.01 0.06,-0.01 0.07,0 0.06,0 c 0.37,0 0.95,0.13 1.65,0.64 0.23,0.19 0.24,0.2 0.24,0.27 0,0.06 -0.12,0.27 -0.24,0.27 -0.04,0 -0.06,0 -0.16,-0.1 -0.38,-0.31 -0.94,-0.73 -1.47,-0.73 -0.58,0 -0.6,0.81 -0.6,1.05 0,0.32 0.04,0.55 0.09,0.85 0.07,0.08 0.28,0.26 0.35,0.34 0.53,0.51 2.11,2.1 2.11,3.54 0,0.75 -0.41,0.96 -0.77,0.96 l -0.01,-0.36 c 0.25,0 0.33,-0.2 0.33,-0.52 0,-0.36 -0.11,-1.04 -0.81,-1.99 -0.39,-0.54 -0.91,-1.07 -1.03,-1.18 l 0,0 c 0.42,1.66 0.47,1.84 0.64,2.36 0.07,0.21 0.43,1.33 0.87,1.33 l 0.01,0.36 c -1.53,0 -2.72,-3.24 -2.72,-5.19 -0.17,-0.15 -0.62,-0.51 -0.79,-0.67 -0.13,-0.12 -0.14,-0.13 -0.14,-0.19 0,-0.05 0.12,-0.27 0.23,-0.27 0.05,0 0.07,0 0.21,0.13 z"
         id="path9425-5-3" /></g>    <g
       id="content"
       transform="matrix(6.4969691,0,0,-6.4969691,-1053.9429,5356.0974)"
       xml:space="preserve"
       stroke-miterlimit="10.433"
       font-style="normal"
       font-variant="normal"
       font-weight="normal"
       font-stretch="normal"
       font-size-adjust="none"
       letter-spacing="normal"
       word-spacing="normal"
       ns0:text="$\\mathscr{S}$"
       ns0:preamble="/home/eric/BHLectures/Notes/latex_inkscape.ini"
       style="font-style:normal;font-variant:normal;font-weight:normal;font-stretch:normal;letter-spacing:normal;word-spacing:normal;text-anchor:start;fill:#338000;fill-opacity:1;fill-rule:evenodd;stroke:#000000;stroke-linecap:butt;stroke-linejoin:miter;stroke-miterlimit:10.43299961;stroke-dasharray:none;stroke-dashoffset:0;stroke-opacity:1"><path
         style="fill:#000000;stroke-width:0"
         inkscape:connector-curvature="0"
         d="m 230.15,713.73 -0.11,0 -0.12,0 -0.12,-0.01 -0.12,-0.01 -0.12,-0.01 -0.12,-0.02 -0.12,-0.02 -0.13,-0.02 -0.13,-0.02 -0.12,-0.03 -0.13,-0.04 -0.14,-0.03 -0.13,-0.04 -0.13,-0.05 -0.14,-0.04 -0.13,-0.06 c -0.53,-0.19 -1.13,-0.5 -1.43,-0.94 -0.2,-0.28 -0.27,-0.52 -0.27,-0.73 0,-0.33 0.18,-0.59 0.41,-0.79 0.49,-0.44 1.27,-0.61 2.13,-0.62 -0.25,-0.32 -0.5,-0.66 -0.74,-0.99 -0.79,-1.11 -2.14,-2.14 -3.13,-2.14 -0.67,0 -1.14,0.21 -1.14,0.61 0,0.1 0.03,0.21 0.09,0.34 0.06,-0.1 0.17,-0.15 0.29,-0.15 0.26,0 0.56,0.2 0.56,0.39 0,0.24 -0.15,0.34 -0.32,0.34 -0.21,0 -0.46,-0.12 -0.58,-0.29 -0.18,-0.26 -0.26,-0.48 -0.26,-0.67 0,-0.52 0.6,-0.78 1.32,-0.78 1.32,0 3.12,0.98 4.02,2.25 0.29,0.41 0.6,0.82 0.92,1.21 0.4,0.1 0.81,0.27 1.23,0.49 l -0.12,0.18 c -0.3,-0.16 -0.59,-0.29 -0.88,-0.38 0.28,0.36 0.55,0.72 0.81,1.07 1,1.43 1.18,2.21 2.04,2.21 l 0,0 c 0.16,0 0.22,-0.1 0.22,-0.26 0,-0.04 0,-0.09 -0.01,-0.14 -0.06,-0.33 -0.27,-0.74 -0.57,-1.15 -0.36,-0.53 -0.96,-1.01 -1.61,-1.35 l 0.12,-0.18 c 0.69,0.36 1.35,0.86 1.74,1.43 0.31,0.44 0.53,0.87 0.57,1.26 0.01,0.05 0.01,0.09 0.01,0.14 0,0.24 -0.1,0.47 -0.43,0.47 -1.01,0 -2.16,-1.22 -2.93,-2.33 -0.32,-0.45 -0.68,-0.9 -1.06,-1.36 -0.85,0 -1.58,0.16 -2.02,0.55 -0.17,0.16 -0.28,0.36 -0.28,0.6 0,0.19 0.06,0.42 0.24,0.67 0.27,0.37 0.77,0.67 1.25,0.86 0.64,0.26 1.25,0.36 1.78,0.36 0.03,0 0.06,0.01 0.07,0.03 l 0.04,0.06 c 0.01,0.01 0.02,0.03 0.02,0.05 0,0.04 -0.04,0.08 -0.09,0.08 z"
         id="path4529" /></g>    <g
       style="font-style:normal;font-variant:normal;font-weight:normal;font-stretch:normal;letter-spacing:normal;word-spacing:normal;text-anchor:start;fill:#338000;fill-opacity:1;fill-rule:evenodd;stroke:#000000;stroke-linecap:butt;stroke-linejoin:miter;stroke-miterlimit:10.43299961;stroke-dasharray:none;stroke-dashoffset:0;stroke-opacity:1"
       ns0:preamble="/home/eric/BHLectures/Notes/latex_inkscape.ini"
       ns0:text="$\\mathscr{S}\'$"
       word-spacing="normal"
       letter-spacing="normal"
       font-size-adjust="none"
       font-stretch="normal"
       font-weight="normal"
       font-variant="normal"
       font-style="normal"
       stroke-miterlimit="10.433"
       xml:space="preserve"
       transform="matrix(6.4969691,0,0,-6.4969691,-1068.7229,5456.7667)"
       id="g4634"><path
         id="path4636"
         d="m 230.15,713.73 -0.11,0 -0.12,0 -0.12,-0.01 -0.12,-0.01 -0.12,-0.01 -0.12,-0.02 -0.12,-0.02 -0.13,-0.02 -0.13,-0.02 -0.12,-0.03 -0.13,-0.04 -0.14,-0.03 -0.13,-0.04 -0.13,-0.05 -0.14,-0.04 -0.13,-0.06 c -0.53,-0.19 -1.13,-0.5 -1.43,-0.94 -0.2,-0.28 -0.27,-0.52 -0.27,-0.73 0,-0.33 0.18,-0.59 0.41,-0.79 0.49,-0.44 1.27,-0.61 2.13,-0.62 -0.25,-0.32 -0.5,-0.66 -0.74,-0.99 -0.79,-1.11 -2.14,-2.14 -3.13,-2.14 -0.67,0 -1.14,0.21 -1.14,0.61 0,0.1 0.03,0.21 0.09,0.34 0.06,-0.1 0.17,-0.15 0.29,-0.15 0.26,0 0.56,0.2 0.56,0.39 0,0.24 -0.15,0.34 -0.32,0.34 -0.21,0 -0.46,-0.12 -0.58,-0.29 -0.18,-0.26 -0.26,-0.48 -0.26,-0.67 0,-0.52 0.6,-0.78 1.32,-0.78 1.32,0 3.12,0.98 4.02,2.25 0.29,0.41 0.6,0.82 0.92,1.21 0.4,0.1 0.81,0.27 1.23,0.49 l -0.12,0.18 c -0.3,-0.16 -0.59,-0.29 -0.88,-0.38 0.28,0.36 0.55,0.72 0.81,1.07 1,1.43 1.18,2.21 2.04,2.21 l 0,0 c 0.16,0 0.22,-0.1 0.22,-0.26 0,-0.04 0,-0.09 -0.01,-0.14 -0.06,-0.33 -0.27,-0.74 -0.57,-1.15 -0.36,-0.53 -0.96,-1.01 -1.61,-1.35 l 0.12,-0.18 c 0.69,0.36 1.35,0.86 1.74,1.43 0.31,0.44 0.53,0.87 0.57,1.26 0.01,0.05 0.01,0.09 0.01,0.14 0,0.24 -0.1,0.47 -0.43,0.47 -1.01,0 -2.16,-1.22 -2.93,-2.33 -0.32,-0.45 -0.68,-0.9 -1.06,-1.36 -0.85,0 -1.58,0.16 -2.02,0.55 -0.17,0.16 -0.28,0.36 -0.28,0.6 0,0.19 0.06,0.42 0.24,0.67 0.27,0.37 0.77,0.67 1.25,0.86 0.64,0.26 1.25,0.36 1.78,0.36 0.03,0 0.06,0.01 0.07,0.03 l 0.04,0.06 c 0.01,0.01 0.02,0.03 0.02,0.05 0,0.04 -0.04,0.08 -0.09,0.08 z"
         inkscape:connector-curvature="0"
         style="fill:#000000;stroke-width:0" /><path
         id="path4638"
         d="m 236.01,714.02 0,0.01 0.01,0.01 0,0.01 0.01,0.01 0,0.01 0,0.01 0.01,0.01 0,0.01 0,0.01 0.01,0.01 0,0 0,0.01 0,0.01 0.01,0.01 0,0 0,0.01 0,0.01 0,0 0,0.01 0,0 0.01,0.01 0,0.01 0,0 0,0.01 0,0.01 0,0.01 0,0.01 0,0 c 0,0.22 -0.19,0.39 -0.41,0.39 -0.26,0 -0.35,-0.22 -0.38,-0.33 l -0.92,-3.01 c -0.01,-0.01 -0.04,-0.11 -0.04,-0.11 0,-0.09 0.22,-0.15 0.27,-0.15 0.05,0 0.06,0.01 0.11,0.11 z"
         inkscape:connector-curvature="0"
         style="fill:#000000;stroke-width:0" /></g>    <g
       id="g4253"
       transform="matrix(5.463613,0,0,-5.463613,-726.53344,4709.8045)"
       xml:space="preserve"
       stroke-miterlimit="10.433"
       font-style="normal"
       font-variant="normal"
       font-weight="normal"
       font-stretch="normal"
       font-size-adjust="none"
       letter-spacing="normal"
       word-spacing="normal"
       ns0:text="$p$"
       ns0:preamble="/home/eric/BHLectures/Notes/latex_inkscape.ini"
       style="font-style:normal;font-variant:normal;font-weight:normal;font-stretch:normal;letter-spacing:normal;word-spacing:normal;text-anchor:start;fill:#338000;fill-opacity:1;fill-rule:evenodd;stroke:#000000;stroke-linecap:butt;stroke-linejoin:miter;stroke-miterlimit:10.43299961;stroke-dasharray:none;stroke-dashoffset:0;stroke-opacity:1"><path
         style="fill:#000000;stroke-width:0"
         inkscape:connector-curvature="0"
         d="m 223.88,705.91 -0.01,-0.03 0,-0.03 -0.01,-0.03 -0.01,-0.03 0,-0.02 -0.01,-0.03 -0.01,-0.02 -0.01,-0.02 0,-0.02 -0.01,-0.02 -0.01,-0.02 -0.01,-0.01 -0.01,-0.02 -0.01,-0.01 -0.01,-0.01 -0.01,-0.01 -0.02,-0.01 -0.01,-0.01 -0.02,-0.01 -0.02,-0.01 -0.01,-0.01 -0.02,0 -0.03,-0.01 -0.02,0 -0.02,-0.01 -0.03,0 -0.02,0 -0.01,-0.01 -0.02,0 -0.01,0 -0.02,0 -0.01,0 -0.02,0 -0.02,0 -0.02,0 -0.02,0 -0.02,0 -0.02,0 c -0.12,0 -0.23,0 -0.23,-0.19 0,-0.08 0.05,-0.12 0.13,-0.12 0.27,0 0.56,0.03 0.84,0.03 0.33,0 0.67,-0.03 0.99,-0.03 0.05,0 0.18,0 0.18,0.2 0,0.11 -0.1,0.11 -0.24,0.11 -0.5,0 -0.5,0.07 -0.5,0.16 0,0.12 0.42,1.74 0.49,1.99 0.13,-0.29 0.4,-0.64 0.91,-0.64 l -0.01,0.22 c -0.65,0 -0.78,0.83 -0.78,0.89 0,0.02 0,0.04 0.03,0.16 l 0.48,1.95 c 0.07,0.27 0.34,0.55 0.52,0.7 0.35,0.31 0.64,0.38 0.81,0.38 0.4,0 0.64,-0.35 0.64,-0.94 0,-0.59 -0.33,-1.73 -0.51,-2.11 -0.34,-0.7 -0.82,-1.03 -1.19,-1.03 l 0.01,-0.22 c 1.16,0 2.4,1.46 2.4,2.92 0,0.94 -0.56,1.6 -1.32,1.6 -0.5,0 -0.98,-0.36 -1.31,-0.75 -0.1,0.54 -0.52,0.75 -0.89,0.75 -0.46,0 -0.65,-0.39 -0.74,-0.57 -0.18,-0.34 -0.31,-0.94 -0.31,-0.97 0,-0.1 0.1,-0.1 0.12,-0.1 0.1,0 0.11,0.01 0.17,0.23 0.17,0.71 0.37,1.19 0.73,1.19 0.17,0 0.31,-0.08 0.31,-0.46 0,-0.23 -0.03,-0.34 -0.07,-0.51 z"
         id="path4255" /></g>    <g
       style="font-style:normal;font-variant:normal;font-weight:normal;font-stretch:normal;letter-spacing:normal;word-spacing:normal;text-anchor:start;fill:#338000;fill-opacity:1;fill-rule:evenodd;stroke:#000000;stroke-linecap:butt;stroke-linejoin:miter;stroke-miterlimit:10.43299961;stroke-dasharray:none;stroke-dashoffset:0;stroke-opacity:1"
       ns0:preamble="/home/eric/BHLectures/Notes/latex_inkscape.ini"
       ns0:text="$q$"
       word-spacing="normal"
       letter-spacing="normal"
       font-size-adjust="none"
       font-stretch="normal"
       font-weight="normal"
       font-variant="normal"
       font-style="normal"
       stroke-miterlimit="10.433"
       xml:space="preserve"
       transform="matrix(5.9169779,0,0,-5.9169779,-689.53964,5041.1104)"
       id="g4353"><path
         id="path4355"
         d="m 227.94,711.42 0,0 0,0 0,0.01 -0.01,0 0,0.01 0,0 0,0 0,0.01 0,0 0,0.01 -0.01,0 0,0.01 0,0 0,0 0,0.01 -0.01,0 0,0 0,0.01 -0.01,0 0,0 -0.01,0.01 0,0 0,0 -0.01,0.01 0,0 -0.01,0 0,0 -0.01,0 -0.01,0 0,0.01 -0.01,0 0,0 c -0.11,0 -0.51,-0.4 -0.68,-0.69 -0.22,0.54 -0.61,0.7 -0.93,0.7 l 0,-0.22 c 0.65,0 0.79,-0.81 0.79,-0.88 0,-0.06 -0.55,-2.24 -0.58,-2.28 -0.15,-0.28 -0.71,-0.92 -1.26,-0.92 l 0,0 c -0.6,0 -0.64,0.77 -0.64,0.94 0,0.48 0.29,1.56 0.46,1.98 0.3,0.74 0.82,1.16 1.23,1.16 l 0,0.22 c -1.17,0 -2.4,-1.48 -2.4,-2.92 0,-0.98 0.59,-1.6 1.32,-1.6 0.42,0 0.81,0.24 1.17,0.6 -0.09,-0.35 -0.42,-1.69 -0.45,-1.78 -0.08,-0.28 -0.16,-0.32 -0.71,-0.33 -0.13,0 -0.23,0 -0.23,-0.2 0,-0.01 0,-0.11 0.13,-0.11 0.32,0 0.66,0.03 0.99,0.03 0.34,0 0.7,-0.03 1.03,-0.03 0.05,0 0.18,0 0.18,0.2 0,0.11 -0.1,0.11 -0.26,0.11 -0.48,0 -0.48,0.07 -0.48,0.16 0,0.07 0.02,0.13 0.04,0.22 z"
         inkscape:connector-curvature="0"
         style="fill:#000000;stroke-width:0" /></g>    <g
       id="g4457"
       transform="matrix(5.5620368,0,0,-5.5620368,-610.22652,4708.963)"
       xml:space="preserve"
       stroke-miterlimit="10.433"
       font-style="normal"
       font-variant="normal"
       font-weight="normal"
       font-stretch="normal"
       font-size-adjust="none"
       letter-spacing="normal"
       word-spacing="normal"
       ns0:text="$q\'$"
       ns0:preamble="/home/eric/BHLectures/Notes/latex_inkscape.ini"
       style="font-style:normal;font-variant:normal;font-weight:normal;font-stretch:normal;letter-spacing:normal;word-spacing:normal;text-anchor:start;fill:#000000;fill-opacity:1;fill-rule:evenodd;stroke:#000000;stroke-linecap:butt;stroke-linejoin:miter;stroke-miterlimit:10.43299961;stroke-dasharray:none;stroke-dashoffset:0;stroke-opacity:1"><path
         style="fill:#000000;fill-opacity:1;stroke-width:0"
         inkscape:connector-curvature="0"
         d="m 227.94,711.42 0,0 0,0 0,0.01 -0.01,0 0,0.01 0,0 0,0 0,0.01 0,0 0,0.01 -0.01,0 0,0.01 0,0 0,0 0,0.01 -0.01,0 0,0 0,0.01 -0.01,0 0,0 -0.01,0.01 0,0 0,0 -0.01,0.01 0,0 -0.01,0 0,0 -0.01,0 -0.01,0 0,0.01 -0.01,0 0,0 c -0.11,0 -0.51,-0.4 -0.68,-0.69 -0.22,0.54 -0.61,0.7 -0.93,0.7 l 0,-0.22 c 0.65,0 0.79,-0.81 0.79,-0.88 0,-0.06 -0.55,-2.24 -0.58,-2.28 -0.15,-0.28 -0.71,-0.92 -1.26,-0.92 l 0,0 c -0.6,0 -0.64,0.77 -0.64,0.94 0,0.48 0.29,1.56 0.46,1.98 0.3,0.74 0.82,1.16 1.23,1.16 l 0,0.22 c -1.17,0 -2.4,-1.48 -2.4,-2.92 0,-0.98 0.59,-1.6 1.32,-1.6 0.42,0 0.81,0.24 1.17,0.6 -0.09,-0.35 -0.42,-1.69 -0.45,-1.78 -0.08,-0.28 -0.16,-0.32 -0.71,-0.33 -0.13,0 -0.23,0 -0.23,-0.2 0,-0.01 0,-0.11 0.13,-0.11 0.32,0 0.66,0.03 0.99,0.03 0.34,0 0.7,-0.03 1.03,-0.03 0.05,0 0.18,0 0.18,0.2 0,0.11 -0.1,0.11 -0.26,0.11 -0.48,0 -0.48,0.07 -0.48,0.16 0,0.07 0.02,0.13 0.04,0.22 z"
         id="path4459" /><path
         style="fill:#000000;fill-opacity:1;stroke-width:0"
         inkscape:connector-curvature="0"
         d="m 230.26,714.03 0.01,0.01 0,0.01 0.01,0.01 0,0.01 0,0.01 0.01,0.01 0,0.01 0.01,0.01 0,0.01 0,0 0,0.01 0.01,0.01 0,0.01 0,0 0,0.01 0,0.01 0.01,0 0,0.01 0,0.01 0,0 0,0.01 0,0 0,0.01 0,0 0,0.01 0,0.01 0,0.01 0,0.01 c 0,0.22 -0.19,0.39 -0.41,0.39 -0.26,0 -0.34,-0.22 -0.38,-0.33 l -0.92,-3.02 c -0.01,-0.01 -0.04,-0.11 -0.04,-0.11 0,-0.09 0.22,-0.16 0.28,-0.16 0.05,0 0.05,0.02 0.1,0.12 z"
         id="path4461" /></g>    <path
       sodipodi:nodetypes="cc"
       inkscape:connector-curvature="0"
       id="path4514"
       d="m 529.53599,809.35651 91.99314,12.25756"
       style="fill:none;fill-rule:evenodd;stroke:#000000;stroke-width:3;stroke-linecap:butt;stroke-linejoin:miter;stroke-miterlimit:4;stroke-dasharray:none;stroke-opacity:1;marker-end:url(#Arrow2Mend)" />
    <g
       style="font-style:normal;font-variant:normal;font-weight:normal;font-stretch:normal;letter-spacing:normal;word-spacing:normal;text-anchor:start;fill:#338000;fill-opacity:1;fill-rule:evenodd;stroke:#000000;stroke-linecap:butt;stroke-linejoin:miter;stroke-miterlimit:10.43299961;stroke-dasharray:none;stroke-dashoffset:0;stroke-opacity:1"
       ns0:preamble="/home/eric/BHLectures/Notes/latex_inkscape.ini"
       ns0:text="$\\mathrm{d}\\bm{x}$"
       word-spacing="normal"
       letter-spacing="normal"
       font-size-adjust="none"
       font-stretch="normal"
       font-weight="normal"
       font-variant="normal"
       font-style="normal"
       stroke-miterlimit="10.433"
       xml:space="preserve"
       transform="matrix(4.7583896,0,0,-4.5733157,-510.31881,4093.2129)"
       id="g4856"><path
         id="path4858"
         d="m 227.22,707.67 0,-0.66 1.46,0.11 0,0.31 c -0.69,0 -0.77,0.07 -0.77,0.56 l 0,6.05 -1.44,-0.11 0,-0.31 c 0.7,0 0.78,-0.07 0.78,-0.56 l 0,-2.15 c -0.29,0.36 -0.72,0.62 -1.26,0.62 l 0.04,-0.22 c 0.35,0 0.77,-0.15 1.08,-0.6 0.11,-0.17 0.11,-0.19 0.11,-0.37 l 0,0 0,-2.04 c 0,-0.18 0,-0.2 -0.11,-0.37 -0.3,-0.48 -0.75,-0.7 -1.18,-0.7 -0.44,0 -0.8,0.26 -1.04,0.64 -0.26,0.41 -0.29,0.98 -0.29,1.39 0,0.36 0.02,0.96 0.31,1.41 0.21,0.31 0.58,0.64 1.12,0.64 l -0.04,0.22 c -1.17,0 -2.22,-0.98 -2.22,-2.27 0,-1.26 0.98,-2.25 2.11,-2.25 0.64,0 1.09,0.34 1.34,0.66 z"
         inkscape:connector-curvature="0"
         style="fill:#000000;stroke-width:0" /><path
         id="path4860"
         d="m 234.31,711.12 -0.04,-0.01 -0.03,-0.01 -0.03,-0.02 -0.03,-0.01 -0.03,-0.02 -0.03,-0.01 -0.02,-0.02 -0.03,-0.02 -0.02,-0.02 -0.03,-0.02 -0.02,-0.02 -0.02,-0.02 -0.02,-0.02 -0.02,-0.02 -0.02,-0.03 -0.02,-0.02 -0.01,-0.02 -0.02,-0.03 -0.01,-0.02 -0.02,-0.03 -0.01,-0.02 -0.01,-0.03 -0.01,-0.03 -0.01,-0.02 -0.01,-0.03 0,-0.02 -0.01,-0.03 0,-0.02 -0.01,-0.03 0,-0.02 0,-0.03 0,-0.02 c 0,-0.22 0.17,-0.46 0.5,-0.46 0.35,0 0.72,0.29 0.72,0.78 0,0.53 -0.53,0.88 -1.14,0.88 -0.57,0 -0.94,-0.43 -1.07,-0.61 -0.25,0.42 -0.8,0.61 -1.37,0.61 -1.26,0 -1.93,-1.23 -1.93,-1.56 0,-0.14 0.14,-0.14 0.23,-0.14 0.12,0 0.19,0 0.23,0.13 0.29,0.91 1.01,1.21 1.42,1.21 0.38,0 0.56,-0.18 0.56,-0.5 0,-0.19 -0.14,-0.74 -0.23,-1.1 l -0.34,-1.36 c -0.15,-0.61 -0.51,-0.91 -0.85,-0.91 -0.05,0 -0.28,0 -0.48,0.15 0.36,0.1 0.54,0.44 0.54,0.69 0,0.22 -0.17,0.46 -0.5,0.46 -0.35,0 -0.71,-0.29 -0.71,-0.78 0,-0.53 0.52,-0.88 1.13,-0.88 0.57,0 0.94,0.43 1.07,0.61 0.25,-0.42 0.8,-0.61 1.37,-0.61 1.26,0 1.93,1.23 1.93,1.56 0,0.14 -0.14,0.14 -0.23,0.14 -0.12,0 -0.19,0 -0.23,-0.13 -0.29,-0.91 -1.01,-1.21 -1.42,-1.21 -0.38,0 -0.56,0.18 -0.56,0.5 0,0.21 0.13,0.74 0.22,1.11 0.07,0.25 0.3,1.19 0.35,1.35 0.15,0.6 0.5,0.91 0.85,0.91 0.05,0 0.28,0 0.48,-0.15 z"
         inkscape:connector-curvature="0"
         style="fill:#000000;stroke-width:0" /></g>    <g
       id="g4983"
       transform="matrix(4.8050008,0,0,-4.618114,-524.36997,4052.4508)"
       xml:space="preserve"
       stroke-miterlimit="10.433"
       font-style="normal"
       font-variant="normal"
       font-weight="normal"
       font-stretch="normal"
       font-size-adjust="none"
       letter-spacing="normal"
       word-spacing="normal"
       ns0:text="$\\mathrm{d}\\bm{x\'}$"
       ns0:preamble="/home/eric/BHLectures/Notes/latex_inkscape.ini"
       style="font-style:normal;font-variant:normal;font-weight:normal;font-stretch:normal;letter-spacing:normal;word-spacing:normal;text-anchor:start;fill:#338000;fill-opacity:1;fill-rule:evenodd;stroke:#000000;stroke-linecap:butt;stroke-linejoin:miter;stroke-miterlimit:10.43299961;stroke-dasharray:none;stroke-dashoffset:0;stroke-opacity:1"><path
         style="fill:#000000;stroke-width:0"
         inkscape:connector-curvature="0"
         d="m 227.22,707.67 0,-0.66 1.46,0.11 0,0.31 c -0.69,0 -0.77,0.07 -0.77,0.56 l 0,6.05 -1.44,-0.11 0,-0.31 c 0.7,0 0.78,-0.07 0.78,-0.56 l 0,-2.15 c -0.29,0.36 -0.72,0.62 -1.26,0.62 l 0.04,-0.22 c 0.35,0 0.77,-0.15 1.08,-0.6 0.11,-0.17 0.11,-0.19 0.11,-0.37 l 0,0 0,-2.04 c 0,-0.18 0,-0.2 -0.11,-0.37 -0.3,-0.48 -0.75,-0.7 -1.18,-0.7 -0.44,0 -0.8,0.26 -1.04,0.64 -0.26,0.41 -0.29,0.98 -0.29,1.39 0,0.36 0.02,0.96 0.31,1.41 0.21,0.31 0.58,0.64 1.12,0.64 l -0.04,0.22 c -1.17,0 -2.22,-0.98 -2.22,-2.27 0,-1.26 0.98,-2.25 2.11,-2.25 0.64,0 1.09,0.34 1.34,0.66 z"
         id="path4985" /><path
         style="fill:#000000;stroke-width:0"
         inkscape:connector-curvature="0"
         d="m 234.31,711.12 -0.04,-0.01 -0.03,-0.01 -0.03,-0.02 -0.03,-0.01 -0.03,-0.02 -0.03,-0.01 -0.02,-0.02 -0.03,-0.02 -0.02,-0.02 -0.03,-0.02 -0.02,-0.02 -0.02,-0.02 -0.02,-0.02 -0.02,-0.02 -0.02,-0.03 -0.02,-0.02 -0.01,-0.02 -0.02,-0.03 -0.01,-0.02 -0.02,-0.03 -0.01,-0.02 -0.01,-0.03 -0.01,-0.03 -0.01,-0.02 -0.01,-0.03 0,-0.02 -0.01,-0.03 0,-0.02 -0.01,-0.03 0,-0.02 0,-0.03 0,-0.02 c 0,-0.22 0.17,-0.46 0.5,-0.46 0.35,0 0.72,0.29 0.72,0.78 0,0.53 -0.53,0.88 -1.14,0.88 -0.57,0 -0.94,-0.43 -1.07,-0.61 -0.25,0.42 -0.8,0.61 -1.37,0.61 -1.26,0 -1.93,-1.23 -1.93,-1.56 0,-0.14 0.14,-0.14 0.23,-0.14 0.12,0 0.19,0 0.23,0.13 0.29,0.91 1.01,1.21 1.42,1.21 0.38,0 0.56,-0.18 0.56,-0.5 0,-0.19 -0.14,-0.74 -0.23,-1.1 l -0.34,-1.36 c -0.15,-0.61 -0.51,-0.91 -0.85,-0.91 -0.05,0 -0.28,0 -0.48,0.15 0.36,0.1 0.54,0.44 0.54,0.69 0,0.22 -0.17,0.46 -0.5,0.46 -0.35,0 -0.71,-0.29 -0.71,-0.78 0,-0.53 0.52,-0.88 1.13,-0.88 0.57,0 0.94,0.43 1.07,0.61 0.25,-0.42 0.8,-0.61 1.37,-0.61 1.26,0 1.93,1.23 1.93,1.56 0,0.14 -0.14,0.14 -0.23,0.14 -0.12,0 -0.19,0 -0.23,-0.13 -0.29,-0.91 -1.01,-1.21 -1.42,-1.21 -0.38,0 -0.56,0.18 -0.56,0.5 0,0.21 0.13,0.74 0.22,1.11 0.07,0.25 0.3,1.19 0.35,1.35 0.15,0.6 0.5,0.91 0.85,0.91 0.05,0 0.28,0 0.48,-0.15 z"
         id="path4987" /><path
         style="fill:#000000;stroke-width:0"
         inkscape:connector-curvature="0"
         d="m 237.99,713.8 0,0.02 0.01,0.01 0.01,0.02 0.01,0.01 0.01,0.02 0,0.02 0.01,0.01 0,0.02 0.01,0.01 0,0.01 0,0 0,0.01 0.01,0.01 0,0.01 0,0.01 0,0.01 0,0.01 0,0.01 0.01,0.02 0,0.01 0,0.01 0,0.01 0,0.02 0,0.01 c 0,0.36 -0.34,0.55 -0.58,0.55 -0.21,0 -0.41,-0.11 -0.52,-0.39 l -1.08,-2.9 c -0.04,-0.1 -0.04,-0.11 -0.04,-0.13 0,-0.02 0,-0.08 0.08,-0.12 0.06,-0.04 0.36,-0.18 0.4,-0.18 0.08,0 0.09,0.04 0.15,0.14 z"
         id="path4989" /></g>    <path
       sodipodi:nodetypes="cc"
       inkscape:connector-curvature="0"
       id="path4514-9"
       d="m 530.01155,809.61377 91.99314,-17.30552"
       style="fill:none;fill-rule:evenodd;stroke:#000000;stroke-width:3;stroke-linecap:butt;stroke-linejoin:miter;stroke-miterlimit:4;stroke-dasharray:none;stroke-opacity:1;marker-end:url(#Arrow2Mend-7)" />
    <circle
       r="7.888824"
       cy="809.09192"
       cx="529.79401"
       id="path5681"
       style="fill:#000000;fill-opacity:1;stroke:none;stroke-width:3;stroke-miterlimit:4;stroke-dasharray:none;stroke-dashoffset:0;stroke-opacity:1" />
    <circle
       r="7.888824"
       cy="790.82874"
       cx="629.06622"
       id="path5681-3"
       style="fill:#000000;fill-opacity:1;stroke:none;stroke-width:3;stroke-miterlimit:4;stroke-dasharray:none;stroke-dashoffset:0;stroke-opacity:1" />
    <circle
       r="7.888824"
       cy="823.68085"
       cx="628.80951"
       id="path5681-6"
       style="fill:#000000;fill-opacity:1;stroke:none;stroke-width:3;stroke-miterlimit:4;stroke-dasharray:none;stroke-dashoffset:0;stroke-opacity:1" />
    <g
       style="font-style:normal;font-variant:normal;font-weight:normal;font-stretch:normal;letter-spacing:normal;word-spacing:normal;text-anchor:start;fill:#338000;fill-opacity:1;fill-rule:evenodd;stroke:#000000;stroke-linecap:butt;stroke-linejoin:miter;stroke-miterlimit:10.43299961;stroke-dasharray:none;stroke-dashoffset:0;stroke-opacity:1"
       ns0:preamble="/home/eric/BHLectures/Notes/latex_inkscape.ini"
       ns0:text="$\\varepsilon$"
       word-spacing="normal"
       letter-spacing="normal"
       font-size-adjust="none"
       font-stretch="normal"
       font-weight="normal"
       font-variant="normal"
       font-style="normal"
       stroke-miterlimit="10.433"
       xml:space="preserve"
       transform="matrix(4.4234221,0,0,-4.4234221,-346.72549,3941.7166)"
       id="g5783"><path
         id="path5785"
         d="m 224.84,709.38 0.03,-0.01 0.03,-0.01 0.03,-0.01 0.03,-0.01 0.03,-0.01 0.03,-0.01 0.03,-0.01 0.03,-0.01 0.02,0 0.03,-0.01 0.06,-0.01 0.06,-0.01 0.05,-0.01 0.05,0 0.05,-0.01 0.06,0 0.05,0 0.04,0 0.05,0 0.05,0 0.04,-0.01 0,0.22 c -0.21,0 -0.34,0 -0.52,0.05 l 0,0 c 0.23,0.08 0.43,0.09 0.6,0.09 0.25,0 0.29,-0.01 0.47,-0.06 -0.15,-0.07 -0.17,-0.08 -0.55,-0.08 l 0,-0.22 c 0.26,0 0.81,0 0.81,0.31 0,0.24 -0.35,0.27 -0.73,0.27 -0.21,0 -0.55,-0.02 -0.92,-0.19 -0.23,0.12 -0.4,0.31 -0.4,0.58 0,0.61 0.98,0.97 1.87,0.97 0.16,0 0.52,0 0.92,-0.28 0.11,-0.08 0.13,-0.1 0.2,-0.1 0.13,0 0.27,0.13 0.27,0.27 0,0.19 -0.61,0.57 -1.29,0.57 -1.14,0 -2.22,-0.67 -2.22,-1.43 0,-0.43 0.36,-0.68 0.4,-0.71 -0.59,-0.33 -0.91,-0.88 -0.91,-1.34 0,-0.65 0.57,-1.26 1.63,-1.26 1.31,0 1.87,0.88 1.87,1.03 0,0.06 -0.05,0.1 -0.11,0.1 -0.05,0 -0.08,-0.04 -0.1,-0.07 -0.14,-0.23 -0.38,-0.6 -1.58,-0.6 -0.6,0 -1.45,0.15 -1.45,0.86 0,0.34 0.28,0.87 0.89,1.16 z"
         inkscape:connector-curvature="0"
         style="fill:#000000;stroke-width:0" /></g>  </g>
</svg>
