<?xml version="1.0" encoding="UTF-8" standalone="no"?>
<!-- Created with Inkscape (http://www.inkscape.org/) -->

<svg
   width="1052.3622"
   height="744.09448"
   id="svg3056"
   version="1.1"
   inkscape:version="1.2.2 (1:1.2.2+202212051552+b0a8486541)"
   sodipodi:docname="def_spacelike_1way.svg"
   xmlns:inkscape="http://www.inkscape.org/namespaces/inkscape"
   xmlns:sodipodi="http://sodipodi.sourceforge.net/DTD/sodipodi-0.dtd"
   xmlns="http://www.w3.org/2000/svg"
   xmlns:svg="http://www.w3.org/2000/svg"
   xmlns:rdf="http://www.w3.org/1999/02/22-rdf-syntax-ns#"
   xmlns:cc="http://creativecommons.org/ns#"
   xmlns:dc="http://purl.org/dc/elements/1.1/"
   xmlns:ns0="http://www.iki.fi/pav/software/textext/">
  <sodipodi:namedview
     id="base"
     pagecolor="#ffffff"
     bordercolor="#666666"
     borderopacity="1.0"
     inkscape:pageopacity="0.0"
     inkscape:pageshadow="2"
     inkscape:zoom="2.3652142"
     inkscape:cx="509.04481"
     inkscape:cy="342.2523"
     inkscape:document-units="px"
     inkscape:current-layer="layer1"
     showgrid="false"
     inkscape:window-width="1846"
     inkscape:window-height="1016"
     inkscape:window-x="0"
     inkscape:window-y="0"
     inkscape:window-maximized="1"
     inkscape:showpageshadow="2"
     inkscape:pagecheckerboard="0"
     inkscape:deskcolor="#d1d1d1"
     showguides="true">
    <sodipodi:guide
       position="257.90476,537.77067"
       orientation="0.70710678,-0.70710678"
       id="guide1680"
       inkscape:locked="false" />
    <sodipodi:guide
       position="225.77237,574.97661"
       orientation="0.70710678,-0.70710678"
       id="guide1682"
       inkscape:locked="false" />
    <sodipodi:guide
       position="348.38283,556.37364"
       orientation="0,-1"
       id="guide1684"
       inkscape:locked="false" />
    <sodipodi:guide
       position="399.96378,447.29261"
       orientation="1,0"
       id="guide1686"
       inkscape:locked="false" />
  </sodipodi:namedview>
  <defs
     id="defs3058">
    <marker
       style="overflow:visible;"
       id="Arrow1Lend"
       refX="0.0"
       refY="0.0"
       orient="auto"
       inkscape:stockid="Arrow1Lend">
      <path
         transform="scale(0.8) rotate(180) translate(12.5,0)"
         style="fill-rule:evenodd;stroke:#000000;stroke-width:1.0pt;"
         d="M 0.0,0.0 L 5.0,-5.0 L -12.5,0.0 L 5.0,5.0 L 0.0,0.0 z "
         id="path3797" />
    </marker>
    <marker
       inkscape:stockid="Arrow2Mend"
       orient="auto"
       refY="0.0"
       refX="0.0"
       id="Arrow2Mend"
       style="overflow:visible;">
      <path
         id="path3897"
         style="fill-rule:evenodd;stroke-width:0.62500000;stroke-linejoin:round;"
         d="M 8.7185878,4.0337352 L -2.2072895,0.016013256 L 8.7185884,-4.0017078 C 6.9730900,-1.6296469 6.9831476,1.6157441 8.7185878,4.0337352 z "
         transform="scale(0.6) rotate(180) translate(0,0)" />
    </marker>
    <marker
       style="overflow:visible;"
       id="Arrow1LendJ"
       refX="0.0"
       refY="0.0"
       orient="auto"
       inkscape:stockid="Arrow1LendJ">
      <path
         transform="scale(0.8) rotate(180) translate(12.5,0)"
         style="stroke:#ff0000;stroke-width:1.0pt;fill:#ff0000;fill-rule:evenodd"
         d="M 0.0,0.0 L 5.0,-5.0 L -12.5,0.0 L 5.0,5.0 L 0.0,0.0 z "
         id="path4244" />
    </marker>
  </defs>
  <metadata
     id="metadata3061">
    <rdf:RDF>
      <cc:Work
         rdf:about="">
        <dc:format>image/svg+xml</dc:format>
        <dc:type
           rdf:resource="http://purl.org/dc/dcmitype/StillImage" />
        <dc:title />
      </cc:Work>
    </rdf:RDF>
  </metadata>
  <g
     inkscape:label="Calque 1"
     inkscape:groupmode="layer"
     id="layer1"
     transform="translate(0,-308.2677)">
    <path
       style="fill:#d7f4ee;stroke:#000000;stroke-width:0.9653368;stroke-linecap:butt;stroke-linejoin:miter;stroke-miterlimit:4;stroke-opacity:1;stroke-dasharray:none"
       d="m 349.35068,606.48151 c -54.4975,43.86931 -69.41247,81.34602 -93.15839,139.47628 108.32573,0.29651 256.16505,-37.93404 436.91275,48.6607 15.68444,-75.30545 23.03834,-124.78652 68.79454,-162.33545 -107.33545,-54.49451 -412.5489,-25.80153 -412.5489,-25.80153 z"
       id="path2993"
       inkscape:connector-curvature="0"
       sodipodi:nodetypes="ccccc" />
    <path
       sodipodi:nodetypes="cccc"
       inkscape:connector-curvature="0"
       id="path4173-7-2"
       d="m 503.87367,665.45086 58.94385,-60.3863 -118.00349,-0.14748 z"
       style="fill:#e6e6e6;fill-opacity:1;stroke:#008000;stroke-width:1.5;stroke-linecap:butt;stroke-linejoin:miter;stroke-miterlimit:4;stroke-opacity:1;stroke-dasharray:none" />
    <path
       transform="matrix(0.37895888,0,0,0.37895888,309.84672,529.25067)"
       d="m 672,184.09448 a 160,64 0 1 1 -320,0 160,64 0 1 1 320,0 z"
       sodipodi:ry="64"
       sodipodi:rx="160"
       sodipodi:cy="184.09448"
       sodipodi:cx="512"
       id="path3367-8-2"
       style="fill:#f9f9f9;fill-opacity:1;stroke:#008000;stroke-width:3.95821309;stroke-miterlimit:4;stroke-opacity:1;stroke-dasharray:none;stroke-dashoffset:0"
       sodipodi:type="arc" />
    <path
       sodipodi:nodetypes="ccc"
       inkscape:connector-curvature="0"
       id="path4173-2-1-2"
       d="m 445.81524,722.38146 58.05843,-57.20635 59.24469,59.24044"
       style="fill:none;stroke:#008000;stroke-width:1.5;stroke-linecap:butt;stroke-linejoin:miter;stroke-miterlimit:4;stroke-opacity:1;stroke-dasharray:9, 9;stroke-dashoffset:0" />
    <path
       d="m 672,184.09448 a 160,64 0 1 1 -320,0 160,64 0 1 1 320,0 z"
       sodipodi:ry="64"
       sodipodi:rx="160"
       sodipodi:cy="184.09448"
       sodipodi:cx="512"
       id="path3367-4-0-5"
       style="fill:none;stroke:none"
       sodipodi:type="arc"
       transform="matrix(0.37895888,0,0,-0.37895888,309.84672,801.37529)" />
    <path
       sodipodi:end="9.7509227"
       sodipodi:start="5.7912227"
       d="m 653.0252,153.86366 a 160,64 0 1 1 -292.59073,9.72565"
       sodipodi:ry="64"
       sodipodi:rx="160"
       sodipodi:cy="184.09448"
       sodipodi:cx="512"
       id="path3367-7-8-0-0"
       style="fill:none;stroke:#008000;stroke-width:3.95821309;stroke-miterlimit:4;stroke-opacity:1;stroke-dasharray:23.74927855, 23.74927855;stroke-dashoffset:0"
       sodipodi:type="arc"
       transform="matrix(0.37380737,0,0,-0.36223607,312.84004,796.33001)"
       sodipodi:open="true" />
    <path
       sodipodi:open="true"
       sodipodi:end="12.336388"
       sodipodi:start="6.0600102"
       transform="matrix(0.11214915,0,0,0.11214915,455.8761,628.83731)"
       d="m 439.782,321.78783 a 12.370221,12.370221 0 1 1 -0.0189,-0.0821"
       sodipodi:ry="12.370221"
       sodipodi:rx="12.370221"
       sodipodi:cy="324.5257"
       sodipodi:cx="427.71857"
       id="path4966-9-1"
       style="fill:#008000;fill-opacity:1;stroke:none"
       sodipodi:type="arc" />
    <path
       sodipodi:open="true"
       sodipodi:end="2.8549663"
       sodipodi:start="0.65085011"
       d="M 639.29105,222.86971 A 160,64 0 0 1 358.5275,202.18842"
       sodipodi:ry="64"
       sodipodi:rx="160"
       sodipodi:cy="184.09448"
       sodipodi:cx="512"
       id="path3367-7-8-0-0-4"
       style="fill:none;stroke:#008000;stroke-width:3.95821309;stroke-miterlimit:4;stroke-opacity:1;stroke-dasharray:none;stroke-dashoffset:0"
       sodipodi:type="arc"
       transform="matrix(0.35779741,0,0,0.36283919,320.90918,664.52812)" />
    <path
       sodipodi:nodetypes="cscc"
       inkscape:connector-curvature="0"
       id="path3844"
       d="m 450.67628,739.01608 c 0,0 12.09981,9.56936 35.28899,13.20511 16.90701,2.65079 34.75916,1.67569 56.93,-5.26021 -24.96054,-3.92458 -92.21899,-7.9449 -92.21899,-7.9449 z"
       style="fill:#f2f2f2;stroke:none" />
    <path
       style="fill:none;stroke:#ff0000;stroke-width:2;stroke-linecap:butt;stroke-linejoin:miter;stroke-miterlimit:4;stroke-opacity:1;stroke-dasharray:none"
       d="m 469.52351,821.21214 c 2.12482,-22.97952 5.70204,-46.03107 10.34718,-68.72256"
       id="path3783"
       inkscape:connector-curvature="0" />
    <path
       style="fill:none;stroke:#ff0000;stroke-width:2;stroke-linecap:butt;stroke-linejoin:miter;stroke-miterlimit:4;stroke-opacity:1;stroke-dasharray:2, 6;stroke-dashoffset:0"
       d="m 479.87069,752.48959 c 9.40365,-45.93671 23.18389,-90.39787 38.151,-129.79882"
       id="path3781"
       inkscape:connector-curvature="0" />
    <path
       style="fill:none;stroke:#ff0000;stroke-width:2;stroke-linecap:butt;stroke-linejoin:miter;stroke-miterlimit:4;stroke-opacity:1;stroke-dasharray:none;marker-end:url(#Arrow1LendJ)"
       d="m 518.02169,622.69077 c 26.11243,-68.74103 50.16192,-107.1169 72.23644,-140.98024"
       id="path3003"
       inkscape:connector-curvature="0"
       sodipodi:nodetypes="cc" />
    <g
       id="g5336"
       transform="translate(48.818537,137.48275)">
      <text
         xml:space="preserve"
         style="font-style:normal;font-variant:normal;font-weight:normal;font-stretch:normal;line-height:0%;font-family:'Nimbus Roman No9 L';-inkscape-font-specification:'Nimbus Roman No9 L';letter-spacing:0px;word-spacing:0px;fill:#000000;fill-opacity:1;stroke:none"
         x="340.65222"
         y="667.27704"
         id="text5286"><tspan
           sodipodi:role="line"
           id="tspan5288"
           x="340.65222"
           y="667.27704"
           style="font-size:36px;line-height:1.25">1</tspan></text>
      <circle
         style="fill:none;stroke:#000000;stroke-width:2;stroke-miterlimit:4;stroke-dasharray:none;stroke-dashoffset:0;stroke-opacity:1"
         id="path5290"
         transform="matrix(0.85375168,0,0,0.85375168,57.810713,323.11911)"
         cx="341.16293"
         cy="389.65274"
         r="32.175549" />
    </g>
    <g
       id="g4612"
       transform="translate(-0.71926182,4.215566)">
      <text
         xml:space="preserve"
         style="font-style:normal;font-variant:normal;font-weight:normal;font-stretch:normal;line-height:0%;font-family:'Nimbus Roman No9 L';-inkscape-font-specification:'Nimbus Roman No9 L';letter-spacing:0px;word-spacing:0px;fill:#000000;fill-opacity:1;stroke:none"
         x="391.95798"
         y="528.80298"
         id="text5286-9"><tspan
           sodipodi:role="line"
           id="tspan5288-3"
           x="391.95798"
           y="528.80298"
           style="font-size:36px;line-height:1.25">2</tspan></text>
      <circle
         style="fill:none;stroke:#000000;stroke-width:2;stroke-miterlimit:4;stroke-dasharray:none;stroke-dashoffset:0;stroke-opacity:1"
         id="path5290-4"
         transform="matrix(0.85375168,0,0,0.85375168,109.63242,185.677)"
         cx="341.16293"
         cy="389.65274"
         r="32.175549" />
    </g>
    <text
       xml:space="preserve"
       style="font-style:normal;font-weight:normal;line-height:0%;font-family:sans-serif;letter-spacing:0px;word-spacing:0px;fill:#000000;fill-opacity:1;stroke:none"
       x="716.37946"
       y="732.56415"
       id="text3036-5-1"><tspan
         sodipodi:role="line"
         id="tspan3038-6-4"
         x="716.37946"
         y="732.56415"
         style="font-size:12.1267px;line-height:1.25;font-family:sans-serif"> </tspan></text>
    <path
       sodipodi:type="arc"
       style="fill:#000000;fill-opacity:1;stroke:#000000;stroke-width:1;stroke-miterlimit:4;stroke-opacity:1;stroke-dasharray:none;stroke-dashoffset:0"
       id="path3061-5"
       sodipodi:cx="164.1358"
       sodipodi:cy="438.59769"
       sodipodi:rx="6.2827106"
       sodipodi:ry="6.2827106"
       d="m 170.41851,438.59769 c 0,3.46984 -2.81286,6.28271 -6.28271,6.28271 -3.46984,0 -6.28271,-2.81287 -6.28271,-6.28271 0,-3.46985 2.81287,-6.28271 6.28271,-6.28271 3.46985,0 6.28271,2.81286 6.28271,6.28271 z"
       transform="matrix(0.59610707,0,0,0.59610707,405.97284,403.80718)" />
    <path
       style="fill:none;stroke:#000000;stroke-width:3;stroke-linecap:butt;stroke-linejoin:miter;stroke-miterlimit:4;stroke-opacity:1;stroke-dasharray:none;marker-end:url(#Arrow2Mend)"
       d="m 503.67421,624.0212 0,-105.84007"
       id="path4312"
       inkscape:connector-curvature="0" />
    <path
       style="fill:none;stroke:#000000;stroke-width:3;stroke-linecap:butt;stroke-linejoin:miter;stroke-miterlimit:4;stroke-opacity:1;stroke-dasharray:9, 9;stroke-dashoffset:0"
       d="m 503.67421,627.75673 0.62259,36.11014"
       id="path4496"
       inkscape:connector-curvature="0"
       sodipodi:nodetypes="cc" />
    <g
       style="font-style:normal;font-variant:normal;font-weight:normal;font-stretch:normal;letter-spacing:normal;word-spacing:normal;text-anchor:start;fill:none;stroke:#000000;stroke-linecap:butt;stroke-linejoin:miter;stroke-miterlimit:10.43299961;stroke-opacity:1;stroke-dasharray:none;stroke-dashoffset:0"
       id="content"
       transform="matrix(4,0,0,-4,-374.96757,3362.5535)"
       xml:space="preserve"
       stroke-miterlimit="10.433"
       font-style="normal"
       font-variant="normal"
       font-weight="normal"
       font-stretch="normal"
       font-size-adjust="none"
       letter-spacing="normal"
       word-spacing="normal"
       ns0:text="$\\bm{n}$"
       ns0:preamble="/home/eric/BHLectures/Notes/latex_inkscape.ini"><path
         style="fill:#000000;stroke-width:0"
         inkscape:connector-curvature="0"
         d="m 226.22,710.86 -0.02,0.05 -0.01,0.04 -0.02,0.04 -0.02,0.05 -0.03,0.04 -0.02,0.03 -0.03,0.04 -0.03,0.04 -0.03,0.03 -0.03,0.04 -0.03,0.03 -0.04,0.03 -0.04,0.03 -0.03,0.02 -0.04,0.03 -0.05,0.02 -0.04,0.03 -0.04,0.02 -0.04,0.02 -0.05,0.02 -0.05,0.01 -0.04,0.02 -0.05,0.01 -0.05,0.02 -0.05,0.01 -0.05,0.01 -0.05,0.01 -0.04,0 -0.06,0.01 -0.05,0 -0.05,0 -0.05,0 c -0.36,0 -0.64,-0.2 -0.86,-0.56 -0.25,-0.4 -0.38,-0.94 -0.38,-0.98 0,-0.14 0.15,-0.14 0.24,-0.14 0.11,0 0.15,0 0.2,0.05 0.02,0.02 0.02,0.04 0.08,0.28 0.2,0.78 0.42,1 0.67,1 0.15,0 0.23,-0.1 0.23,-0.37 0,-0.17 -0.04,-0.33 -0.14,-0.73 -0.07,-0.27 -0.16,-0.67 -0.21,-0.89 l -0.36,-1.39 c -0.03,-0.14 -0.08,-0.33 -0.08,-0.4 0,-0.21 0.16,-0.43 0.47,-0.43 0.51,0 0.63,0.45 0.7,0.75 0.1,0.37 0.18,0.69 0.28,1.11 0.04,0.13 0.29,1.16 0.31,1.18 0.01,0.07 0.29,0.51 0.62,0.78 0.27,0.22 0.6,0.39 1.02,0.39 0.26,0 0.5,-0.1 0.5,-0.59 0,-0.57 -0.44,-1.73 -0.63,-2.22 -0.11,-0.27 -0.14,-0.34 -0.14,-0.51 0,-0.58 0.58,-0.89 1.12,-0.89 1.06,0 1.56,1.35 1.56,1.54 0,0.14 -0.15,0.14 -0.24,0.14 -0.12,0 -0.19,0 -0.23,-0.13 -0.33,-1.1 -0.87,-1.2 -1.02,-1.2 -0.07,0 -0.17,0 -0.17,0.21 0,0.23 0.1,0.48 0.2,0.73 0.15,0.4 0.61,1.57 0.61,2.12 0,0.92 -0.76,1.15 -1.48,1.15 -0.21,0 -0.94,0 -1.64,-0.75 z"
         id="path4521" /></g>
    <g
       style="font-style:normal;font-variant:normal;font-weight:normal;font-stretch:normal;letter-spacing:normal;word-spacing:normal;text-anchor:start;fill:#008080;stroke:#000000;stroke-linecap:butt;stroke-linejoin:miter;stroke-miterlimit:10.43299961;stroke-opacity:1;stroke-dasharray:none;stroke-dashoffset:0"
       id="g4636"
       transform="matrix(4,0,0,-4,-234.29126,3581.6842)"
       xml:space="preserve"
       stroke-miterlimit="10.433"
       font-style="normal"
       font-variant="normal"
       font-weight="normal"
       font-stretch="normal"
       font-size-adjust="none"
       letter-spacing="normal"
       word-spacing="normal"
       ns0:text="$\\Sigma$"
       ns0:preamble="/home/eric/BHLectures/Notes/latex_inkscape.ini"><path
         style="fill:#008080;stroke-width:0"
         inkscape:connector-curvature="0"
         d="m 227.13,710.36 0.01,0.01 0,0 0.01,0.01 0,0 0,0.01 0.01,0 0,0 0,0.01 0.01,0 0,0.01 0,0 0.01,0.01 0.01,0.01 0,0 0,0.01 0.01,0.01 0,0 0,0.01 0.01,0 0,0.01 0,0 0,0.01 0.01,0 0,0.01 0,0 0,0 0,0.01 0,0 0,0 0,0.01 0,0 0,0 0,0 0,0.01 0,0 0,0 c 0,0.05 -0.04,0.1 -0.07,0.14 l -2.04,2.94 h 2.3 c 1.68,0 2.18,-0.36 2.39,-1.93 h 0.25 l -0.28,2.24 h -5.52 c -0.24,0 -0.26,0 -0.26,-0.23 l 2.48,-3.59 -2.37,-2.7 c -0.1,-0.11 -0.1,-0.13 -0.1,-0.16 0,-0.11 0.1,-0.11 0.25,-0.11 h 5.52 l 0.28,2.35 h -0.25 c -0.18,-1.66 -0.86,-1.93 -2.42,-1.93 h -2.74 z"
         id="path4638" /></g>
    <g
       transform="matrix(4 0 0 4 592.287 491.084)"
       ns0:version="1.8.2"
       ns0:texconverter="pdflatex"
       ns0:pdfconverter="inkscape"
       ns0:text="$\\mathscr{L}_{1\\rightarrow 2}$"
       ns0:preamble="/home/eric/BHLectures/Notes/latex_inkscape.ini"
       ns0:scale="0.75"
       ns0:alignment="middle center"
       ns0:stroke-to-path="0"
       ns0:inkscapeversion="0.48.4"
       ns0:jacobian_sqrt="4.0"
       style="fill:#ff0000;fill-opacity:1;stroke:#ff0000;stroke-opacity:1;stroke-width:0"
       id="g5593">
      <defs
         id="id-3965ff39-2ad2-4e1b-a577-dc9f7d9eff2c"
         style="fill:#ff0000;fill-opacity:1;stroke:#ff0000;stroke-opacity:1;stroke-width:0">
        <g
           id="id-729a76f9-5da3-436b-b2db-d14a4102848d"
           style="fill:#ff0000;fill-opacity:1;stroke:#ff0000;stroke-opacity:1;stroke-width:0">
          <symbol
             overflow="visible"
             id="id-69928317-e28d-4bcc-85de-38bd09443556"
             style="fill:#ff0000;fill-opacity:1;stroke:#ff0000;stroke-opacity:1;stroke-width:0">
            <path
               style="stroke:#ff0000;fill:#ff0000;fill-opacity:1;stroke-opacity:1;stroke-width:0"
               d=""
               id="id-1048f9f3-ccb2-406b-968b-6a3d2cad6724" />
          </symbol>
          <symbol
             overflow="visible"
             id="id-68672906-0496-45e6-989d-514350b56a1c"
             style="fill:#ff0000;fill-opacity:1;stroke:#ff0000;stroke-opacity:1;stroke-width:0">
            <path
               style="stroke:#ff0000;fill:#ff0000;fill-opacity:1;stroke-opacity:1;stroke-width:0"
               d="m 7.96875,-1.390625 c 0,-0.0625 -0.03125,-0.078125 -0.078125,-0.078125 H 7.78125 c -0.03125,0 -0.0625,0 -0.0625,0.015625 C 7.25,-0.8125 6.34375,-0.3125 5.6875,-0.3125 5.03125,-0.3125 4.453125,-0.453125 3.890625,-0.59375 4.53125,-0.984375 5.09375,-1.484375 5.5,-2.046875 L 6.484375,-3.4375 C 7.78125,-3.625 9.09375,-4.125 9.84375,-5.1875 c 0.296875,-0.421875 0.453125,-0.859375 0.453125,-1.1875 0,-0.46875 -0.28125,-0.765625 -0.890625,-0.765625 -0.96875,0 -2.421875,1.765625 -3.734375,3.546875 C 5.515625,-3.578125 5.375,-3.5625 5.21875,-3.5625 c -1.015625,0 -1.734375,-0.375 -1.734375,-1.03125 0,-0.265625 0.109375,-0.578125 0.359375,-0.9375 0.484375,-0.6875 1.4375,-1.234375 2.09375,-1.234375 0.03125,0 0.046875,0 0.0625,-0.015625 l 0.046875,-0.0625 c 0,-0.015625 0.015625,-0.03125 0.015625,-0.046875 0,-0.03125 -0.015625,-0.0625 -0.046875,-0.0625 0,-0.015625 0,-0.015625 -0.015625,-0.03125 -0.09375,-0.03125 -0.203125,-0.03125 -0.3125,-0.03125 -0.765625,0 -1.8125,0.609375 -2.375,1.390625 -0.265625,0.390625 -0.390625,0.734375 -0.390625,1.03125 0,0.84375 1.03125,1.25 2.265625,1.25 0.109375,0 0.21875,0 0.3125,-0.015625 C 5.203125,-2.9375 4.921875,-2.53125 4.640625,-2.140625 4.28125,-1.625 3.78125,-1.125 3.265625,-0.75 2.796875,-0.859375 2.296875,-0.953125 1.71875,-0.953125 h -0.0625 c -0.484375,0 -1.09375,0.015625 -1.421875,0.484375 C 0.15625,-0.375 0.125,-0.28125 0.125,-0.203125 c 0,0.359375 0.796875,0.375 1.3125,0.375 h 0.15625 c 0.5625,0 1.203125,-0.1875 1.828125,-0.5 l 0.125,0.046875 c 0.5625,0.234375 1.140625,0.453125 1.921875,0.453125 0.8125,0 1.921875,-0.703125 2.484375,-1.515625 C 7.96875,-1.359375 7.96875,-1.375 7.96875,-1.390625 Z M 1.640625,-0.0625 c -0.578125,0 -0.9375,-0.015625 -0.9375,-0.171875 0,-0.046875 0,-0.078125 0.046875,-0.140625 0.1875,-0.265625 0.578125,-0.359375 0.921875,-0.359375 0.484375,0 0.875,0.09375 1.265625,0.21875 C 2.484375,-0.234375 2.03125,-0.0625 1.640625,-0.0625 Z M 9.375,-6.921875 c 0.375,0 0.546875,0.203125 0.546875,0.515625 0,0.28125 -0.15625,0.6875 -0.46875,1.125 C 8.84375,-4.421875 7.78125,-3.921875 6.6875,-3.71875 7.921875,-5.421875 9.078125,-6.921875 9.375,-6.921875 Z m 0,0"
               id="id-213a2245-47d3-4c41-9ada-8f717c5f2930" />
          </symbol>
          <symbol
             overflow="visible"
             id="id-657ca299-8fbd-49ab-9ea4-e84969fc3eed"
             style="fill:#ff0000;fill-opacity:1;stroke:#ff0000;stroke-opacity:1;stroke-width:0">
            <path
               style="stroke:#ff0000;fill:#ff0000;fill-opacity:1;stroke-opacity:1;stroke-width:0"
               d=""
               id="id-46be142b-1e17-44b7-af83-01178b06046a" />
          </symbol>
          <symbol
             overflow="visible"
             id="id-ae345fa6-4d58-4e14-8816-a6e815680be2"
             style="fill:#ff0000;fill-opacity:1;stroke:#ff0000;stroke-opacity:1;stroke-width:0">
            <path
               style="stroke:#ff0000;fill:#ff0000;fill-opacity:1;stroke-opacity:1;stroke-width:0"
               d="m 2.328125,-4.4375 c 0,-0.1875 0,-0.1875 -0.203125,-0.1875 -0.453125,0.4375 -1.078125,0.4375 -1.359375,0.4375 v 0.25 c 0.15625,0 0.625,0 1,-0.1875 v 3.546875 c 0,0.234375 0,0.328125 -0.6875,0.328125 H 0.8125 V 0 c 0.125,0 0.984375,-0.03125 1.234375,-0.03125 0.21875,0 1.09375,0.03125 1.25,0.03125 V -0.25 H 3.03125 c -0.703125,0 -0.703125,-0.09375 -0.703125,-0.328125 z m 0,0"
               id="id-453531cd-3058-46fc-b2df-df68dfc140d7" />
          </symbol>
          <symbol
             overflow="visible"
             id="id-39dc63f4-2a1b-4611-a7f1-2660d51d0bda"
             style="fill:#ff0000;fill-opacity:1;stroke:#ff0000;stroke-opacity:1;stroke-width:0">
            <path
               style="stroke:#ff0000;fill:#ff0000;fill-opacity:1;stroke-opacity:1;stroke-width:0"
               d="M 3.515625,-1.265625 H 3.28125 c -0.015625,0.15625 -0.09375,0.5625 -0.1875,0.625 C 3.046875,-0.59375 2.515625,-0.59375 2.40625,-0.59375 H 1.125 c 0.734375,-0.640625 0.984375,-0.84375 1.390625,-1.171875 0.515625,-0.40625 1,-0.84375 1,-1.5 0,-0.84375 -0.734375,-1.359375 -1.625,-1.359375 -0.859375,0 -1.453125,0.609375 -1.453125,1.25 0,0.34375 0.296875,0.390625 0.375,0.390625 0.15625,0 0.359375,-0.125 0.359375,-0.375 0,-0.125 -0.046875,-0.375 -0.40625,-0.375 C 0.984375,-4.21875 1.453125,-4.375 1.78125,-4.375 c 0.703125,0 1.0625,0.546875 1.0625,1.109375 0,0.609375 -0.4375,1.078125 -0.65625,1.328125 L 0.515625,-0.265625 C 0.4375,-0.203125 0.4375,-0.1875 0.4375,0 h 2.875 z m 0,0"
               id="id-22b66ec5-29ac-4fb5-a1c7-85d30cb89011" />
          </symbol>
          <symbol
             overflow="visible"
             id="id-66db8f2b-422e-442f-9ade-92d6cf15a0df"
             style="fill:#ff0000;fill-opacity:1;stroke:#ff0000;stroke-opacity:1;stroke-width:0">
            <path
               style="stroke:#ff0000;fill:#ff0000;fill-opacity:1;stroke-opacity:1;stroke-width:0"
               d=""
               id="id-73a05ba9-a00a-4cf7-bcb2-a8f8d4988556" />
          </symbol>
          <symbol
             overflow="visible"
             id="id-e9d6f373-c4bd-43db-9015-19e90945d037"
             style="fill:#ff0000;fill-opacity:1;stroke:#ff0000;stroke-opacity:1;stroke-width:0">
            <path
               style="stroke:#ff0000;fill:#ff0000;fill-opacity:1;stroke-opacity:1;stroke-width:0"
               d="m 6.40625,-1.578125 c -0.875,0.640625 -0.984375,1.5625 -0.984375,1.5625 0,0.109375 0.0625,0.109375 0.15625,0.109375 0.125,0 0.15625,0 0.1875,-0.125 0.046875,-0.171875 0.15625,-0.609375 0.515625,-1 0.40625,-0.421875 0.75,-0.53125 1.046875,-0.625 0.03125,-0.015625 0.0625,-0.046875 0.0625,-0.078125 0,-0.078125 -0.03125,-0.09375 -0.125,-0.125 C 6.265625,-2.171875 5.90625,-2.890625 5.75,-3.5 5.734375,-3.578125 5.671875,-3.578125 5.578125,-3.578125 c -0.09375,0 -0.15625,0 -0.15625,0.09375 0,0.015625 0.0625,0.484375 0.40625,0.96875 0.15625,0.234375 0.359375,0.4375 0.578125,0.59375 H 0.8125 c -0.109375,0 -0.28125,0 -0.28125,0.171875 0,0.171875 0.171875,0.171875 0.28125,0.171875 z m 0,0"
               id="id-a3af2029-5ff5-4fef-9ff3-a0375d7cf14f" />
          </symbol>
        </g>
      </defs>
      <g
         id="id-e2e7d395-b07c-488c-a327-6f36129f16ee"
         transform="translate(-148.837, -127.624)"
         style="fill:#ff0000;fill-opacity:1;stroke:#ff0000;stroke-opacity:1;stroke-width:0">
        <g
           style="fill:#ff0000;fill-opacity:1;stroke:#ff0000;stroke-opacity:1;stroke-width:0"
           id="id-2352f8de-717f-44ec-8004-f3f7af84c3be">
          <g
             transform="translate(148.712, 134.765)"
             style="fill:#ff0000;fill-opacity:1;stroke:#ff0000;stroke-opacity:1;stroke-width:0"
             id="g1796">
            <path
               style="stroke:#ff0000;fill:#ff0000;fill-opacity:1;stroke-opacity:1;stroke-width:0"
               d="m 7.96875,-1.390625 c 0,-0.0625 -0.03125,-0.078125 -0.078125,-0.078125 H 7.78125 c -0.03125,0 -0.0625,0 -0.0625,0.015625 C 7.25,-0.8125 6.34375,-0.3125 5.6875,-0.3125 5.03125,-0.3125 4.453125,-0.453125 3.890625,-0.59375 4.53125,-0.984375 5.09375,-1.484375 5.5,-2.046875 L 6.484375,-3.4375 C 7.78125,-3.625 9.09375,-4.125 9.84375,-5.1875 c 0.296875,-0.421875 0.453125,-0.859375 0.453125,-1.1875 0,-0.46875 -0.28125,-0.765625 -0.890625,-0.765625 -0.96875,0 -2.421875,1.765625 -3.734375,3.546875 C 5.515625,-3.578125 5.375,-3.5625 5.21875,-3.5625 c -1.015625,0 -1.734375,-0.375 -1.734375,-1.03125 0,-0.265625 0.109375,-0.578125 0.359375,-0.9375 0.484375,-0.6875 1.4375,-1.234375 2.09375,-1.234375 0.03125,0 0.046875,0 0.0625,-0.015625 l 0.046875,-0.0625 c 0,-0.015625 0.015625,-0.03125 0.015625,-0.046875 0,-0.03125 -0.015625,-0.0625 -0.046875,-0.0625 0,-0.015625 0,-0.015625 -0.015625,-0.03125 -0.09375,-0.03125 -0.203125,-0.03125 -0.3125,-0.03125 -0.765625,0 -1.8125,0.609375 -2.375,1.390625 -0.265625,0.390625 -0.390625,0.734375 -0.390625,1.03125 0,0.84375 1.03125,1.25 2.265625,1.25 0.109375,0 0.21875,0 0.3125,-0.015625 C 5.203125,-2.9375 4.921875,-2.53125 4.640625,-2.140625 4.28125,-1.625 3.78125,-1.125 3.265625,-0.75 2.796875,-0.859375 2.296875,-0.953125 1.71875,-0.953125 h -0.0625 c -0.484375,0 -1.09375,0.015625 -1.421875,0.484375 C 0.15625,-0.375 0.125,-0.28125 0.125,-0.203125 c 0,0.359375 0.796875,0.375 1.3125,0.375 h 0.15625 c 0.5625,0 1.203125,-0.1875 1.828125,-0.5 l 0.125,0.046875 c 0.5625,0.234375 1.140625,0.453125 1.921875,0.453125 0.8125,0 1.921875,-0.703125 2.484375,-1.515625 C 7.96875,-1.359375 7.96875,-1.375 7.96875,-1.390625 Z M 1.640625,-0.0625 c -0.578125,0 -0.9375,-0.015625 -0.9375,-0.171875 0,-0.046875 0,-0.078125 0.046875,-0.140625 0.1875,-0.265625 0.578125,-0.359375 0.921875,-0.359375 0.484375,0 0.875,0.09375 1.265625,0.21875 C 2.484375,-0.234375 2.03125,-0.0625 1.640625,-0.0625 Z M 9.375,-6.921875 c 0.375,0 0.546875,0.203125 0.546875,0.515625 0,0.28125 -0.15625,0.6875 -0.46875,1.125 C 8.84375,-4.421875 7.78125,-3.921875 6.6875,-3.71875 7.921875,-5.421875 9.078125,-6.921875 9.375,-6.921875 Z m 0,0"
               id="id-bd117c61-ef97-40bd-b606-c09694d56a1c" />
          </g>
        </g>
        <g
           style="fill:#ff0000;fill-opacity:1;stroke:#ff0000;stroke-opacity:1;stroke-width:0"
           id="id-5d675e99-d076-412c-bbd6-c980847b06ce">
          <g
             transform="translate(157.417, 136.259)"
             style="fill:#ff0000;fill-opacity:1;stroke:#ff0000;stroke-opacity:1;stroke-width:0"
             id="g1800">
            <path
               style="stroke:#ff0000;fill:#ff0000;fill-opacity:1;stroke-opacity:1;stroke-width:0"
               d="m 2.328125,-4.4375 c 0,-0.1875 0,-0.1875 -0.203125,-0.1875 -0.453125,0.4375 -1.078125,0.4375 -1.359375,0.4375 v 0.25 c 0.15625,0 0.625,0 1,-0.1875 v 3.546875 c 0,0.234375 0,0.328125 -0.6875,0.328125 H 0.8125 V 0 c 0.125,0 0.984375,-0.03125 1.234375,-0.03125 0.21875,0 1.09375,0.03125 1.25,0.03125 V -0.25 H 3.03125 c -0.703125,0 -0.703125,-0.09375 -0.703125,-0.328125 z m 0,0"
               id="id-4578c2d2-31ba-4bfe-83b8-282ba5cc9c9e" />
          </g>
        </g>
        <g
           style="fill:#ff0000;fill-opacity:1;stroke:#ff0000;stroke-opacity:1;stroke-width:0"
           id="id-c3972bd4-5358-4982-a919-5c87fc2892a8">
          <g
             transform="translate(161.388, 136.259)"
             style="fill:#ff0000;fill-opacity:1;stroke:#ff0000;stroke-opacity:1;stroke-width:0"
             id="g1804">
            <path
               style="stroke:#ff0000;fill:#ff0000;fill-opacity:1;stroke-opacity:1;stroke-width:0"
               d="m 6.40625,-1.578125 c -0.875,0.640625 -0.984375,1.5625 -0.984375,1.5625 0,0.109375 0.0625,0.109375 0.15625,0.109375 0.125,0 0.15625,0 0.1875,-0.125 0.046875,-0.171875 0.15625,-0.609375 0.515625,-1 0.40625,-0.421875 0.75,-0.53125 1.046875,-0.625 0.03125,-0.015625 0.0625,-0.046875 0.0625,-0.078125 0,-0.078125 -0.03125,-0.09375 -0.125,-0.125 C 6.265625,-2.171875 5.90625,-2.890625 5.75,-3.5 5.734375,-3.578125 5.671875,-3.578125 5.578125,-3.578125 c -0.09375,0 -0.15625,0 -0.15625,0.09375 0,0.015625 0.0625,0.484375 0.40625,0.96875 0.15625,0.234375 0.359375,0.4375 0.578125,0.59375 H 0.8125 c -0.109375,0 -0.28125,0 -0.28125,0.171875 0,0.171875 0.171875,0.171875 0.28125,0.171875 z m 0,0"
               id="id-d2afc1b0-3f30-4e25-9a90-9b13bcbb78a4" />
          </g>
        </g>
        <g
           style="fill:#ff0000;fill-opacity:1;stroke:#ff0000;stroke-opacity:1;stroke-width:0"
           id="id-0b827bae-5b1f-4c89-9837-e2b642217499">
          <g
             transform="translate(169.331, 136.259)"
             style="fill:#ff0000;fill-opacity:1;stroke:#ff0000;stroke-opacity:1;stroke-width:0"
             id="g1808">
            <path
               style="stroke:#ff0000;fill:#ff0000;fill-opacity:1;stroke-opacity:1;stroke-width:0"
               d="M 3.515625,-1.265625 H 3.28125 c -0.015625,0.15625 -0.09375,0.5625 -0.1875,0.625 C 3.046875,-0.59375 2.515625,-0.59375 2.40625,-0.59375 H 1.125 c 0.734375,-0.640625 0.984375,-0.84375 1.390625,-1.171875 0.515625,-0.40625 1,-0.84375 1,-1.5 0,-0.84375 -0.734375,-1.359375 -1.625,-1.359375 -0.859375,0 -1.453125,0.609375 -1.453125,1.25 0,0.34375 0.296875,0.390625 0.375,0.390625 0.15625,0 0.359375,-0.125 0.359375,-0.375 0,-0.125 -0.046875,-0.375 -0.40625,-0.375 C 0.984375,-4.21875 1.453125,-4.375 1.78125,-4.375 c 0.703125,0 1.0625,0.546875 1.0625,1.109375 0,0.609375 -0.4375,1.078125 -0.65625,1.328125 L 0.515625,-0.265625 C 0.4375,-0.203125 0.4375,-0.1875 0.4375,0 h 2.875 z m 0,0"
               id="id-f1ed567d-1f81-46d6-9e1e-55c7a3f02d2d" />
          </g>
        </g>
      </g>
    </g>
  </g>
</svg>
