<?xml version="1.0" encoding="UTF-8" standalone="no"?>
<!-- Created with Inkscape (http://www.inkscape.org/) -->

<svg
   xmlns:ns0="http://www.iki.fi/pav/software/textext/"
   xmlns:dc="http://purl.org/dc/elements/1.1/"
   xmlns:cc="http://creativecommons.org/ns#"
   xmlns:rdf="http://www.w3.org/1999/02/22-rdf-syntax-ns#"
   xmlns:svg="http://www.w3.org/2000/svg"
   xmlns="http://www.w3.org/2000/svg"
   xmlns:sodipodi="http://sodipodi.sourceforge.net/DTD/sodipodi-0.dtd"
   xmlns:inkscape="http://www.inkscape.org/namespaces/inkscape"
   width="1052.3622"
   height="744.09448"
   id="svg3056"
   version="1.1"
   inkscape:version="0.48.4 r9939"
   sodipodi:docname="def_null_1way.svg">
  <sodipodi:namedview
     id="base"
     pagecolor="#ffffff"
     bordercolor="#666666"
     borderopacity="1.0"
     inkscape:pageopacity="0.0"
     inkscape:pageshadow="2"
     inkscape:zoom="2.4478512"
     inkscape:cx="515.34073"
     inkscape:cy="389.02178"
     inkscape:document-units="px"
     inkscape:current-layer="g4533"
     showgrid="false"
     inkscape:window-width="1535"
     inkscape:window-height="876"
     inkscape:window-x="65"
     inkscape:window-y="24"
     inkscape:window-maximized="1"
     showguides="true"
     inkscape:guide-bbox="true" />
  <defs
     id="defs3058">
    <marker
       style="overflow:visible;"
       id="Arrow1Lend"
       refX="0.0"
       refY="0.0"
       orient="auto"
       inkscape:stockid="Arrow1Lend">
      <path
         transform="scale(0.8) rotate(180) translate(12.5,0)"
         style="fill-rule:evenodd;stroke:#000000;stroke-width:1.0pt;"
         d="M 0.0,0.0 L 5.0,-5.0 L -12.5,0.0 L 5.0,5.0 L 0.0,0.0 z "
         id="path3800" />
    </marker>
    <marker
       inkscape:stockid="Arrow2Mend"
       orient="auto"
       refY="0.0"
       refX="0.0"
       id="Arrow2Mend"
       style="overflow:visible;">
      <path
         id="path3897"
         style="fill-rule:evenodd;stroke-width:0.62500000;stroke-linejoin:round;"
         d="M 8.7185878,4.0337352 L -2.2072895,0.016013256 L 8.7185884,-4.0017078 C 6.9730900,-1.6296469 6.9831476,1.6157441 8.7185878,4.0337352 z "
         transform="scale(0.6) rotate(180) translate(0,0)" />
    </marker>
    <marker
       style="overflow:visible;"
       id="Arrow1Lende"
       refX="0.0"
       refY="0.0"
       orient="auto"
       inkscape:stockid="Arrow1Lende">
      <path
         transform="scale(0.8) rotate(180) translate(12.5,0)"
         style="stroke:#ff0000;stroke-width:1.0pt;fill:#ff0000;fill-rule:evenodd"
         d="M 0.0,0.0 L 5.0,-5.0 L -12.5,0.0 L 5.0,5.0 L 0.0,0.0 z "
         id="path4247" />
    </marker>
  </defs>
  <metadata
     id="metadata3061">
    <rdf:RDF>
      <cc:Work
         rdf:about="">
        <dc:format>image/svg+xml</dc:format>
        <dc:type
           rdf:resource="http://purl.org/dc/dcmitype/StillImage" />
        <dc:title />
      </cc:Work>
    </rdf:RDF>
  </metadata>
  <g
     inkscape:label="Calque 1"
     inkscape:groupmode="layer"
     id="layer1"
     transform="translate(0,-308.2677)">
    <path
       style="fill:#d7f4ee;stroke:#000000;stroke-width:1.14365602;stroke-linecap:butt;stroke-linejoin:miter;stroke-miterlimit:4;stroke-opacity:1;stroke-dasharray:none"
       d="m 671.66766,523.63849 c -86.77569,15.43316 -129.20019,6.7956 -211.4188,-0.0595 -50.16201,109.70762 -44.71691,120.20725 -139.79568,265.54317 87.41301,8.38161 147.60267,8.06631 216.47602,5.02274 79.68487,-132.33276 134.73846,-270.50642 134.73846,-270.50642 z"
       id="path2993"
       inkscape:connector-curvature="0"
       sodipodi:nodetypes="ccccc" />
    <path
       sodipodi:nodetypes="cccc"
       inkscape:connector-curvature="0"
       id="path3909-6"
       d="m 504.01657,666.31785 c -13.50766,15.37971 -41.22097,42.24945 -58.5578,62.11702 4.72637,39.57966 128.08345,28.97543 117.13542,-1.88642 -10.00295,-15.34557 -42.41544,-38.77994 -58.57762,-60.2306 z"
       style="fill:#e6e6e6;stroke:none" />
    <g
       id="g3817"
       transform="translate(-144.14336,-96.839345)">
      <path
         style="fill:none;stroke:#008000;stroke-width:1.5;stroke-linecap:butt;stroke-linejoin:miter;stroke-miterlimit:4;stroke-opacity:1;stroke-dasharray:none;stroke-dashoffset:0"
         d="m 590.662,820.20556 57.35503,-58.19111"
         id="path4173-2-1-2"
         inkscape:connector-curvature="0"
         sodipodi:nodetypes="cc" />
      <path
         transform="matrix(0.37895888,0,0,-0.37895888,453.99008,898.21463)"
         sodipodi:type="arc"
         style="fill:none;stroke:none"
         id="path3367-4-0-5"
         sodipodi:cx="512"
         sodipodi:cy="184.09448"
         sodipodi:rx="160"
         sodipodi:ry="64"
         d="m 672,184.09448 c 0,35.34623 -71.63444,64 -160,64 -88.36556,0 -160,-28.65377 -160,-64 0,-35.34622 71.63444,-64 160,-64 88.36556,0 160,28.65378 160,64 z" />
      <path
         sodipodi:open="true"
         transform="matrix(0.37380737,0,0,-0.36223607,456.9834,893.16935)"
         sodipodi:type="arc"
         style="fill:none;stroke:#008000;stroke-width:3.95821309;stroke-miterlimit:4;stroke-opacity:1;stroke-dasharray:23.74927855, 23.74927855;stroke-dashoffset:0"
         id="path3367-7-8-0-0"
         sodipodi:cx="512"
         sodipodi:cy="184.09448"
         sodipodi:rx="160"
         sodipodi:ry="64"
         d="M 671.97506,185.22448 C 670.41485,220.5652 597.52679,248.70859 509.175,248.08451 434.4087,247.55639 370.52829,226.38396 355.33662,197.09654"
         sodipodi:start="0.017657164"
         sodipodi:end="2.9370114" />
      <path
         sodipodi:type="arc"
         style="fill:#008000;fill-opacity:1;stroke:none"
         id="path4966-9-1"
         sodipodi:cx="427.71857"
         sodipodi:cy="324.5257"
         sodipodi:rx="12.370221"
         sodipodi:ry="12.370221"
         d="m 439.782,321.78783 c 1.51208,6.66245 -2.66312,13.28922 -9.32557,14.8013 -6.66245,1.51208 -13.28922,-2.66312 -14.8013,-9.32557 -1.51208,-6.66245 2.66312,-13.28922 9.32557,-14.8013 6.6304,-1.50481 13.23248,2.62351 14.78238,9.24351"
         transform="matrix(0.11214915,0,0,0.11214915,600.01946,725.67665)"
         sodipodi:start="6.0600102"
         sodipodi:end="12.336388"
         sodipodi:open="true" />
      <path
         transform="matrix(0.37497075,0,0,0.36241223,456.32049,761.45691)"
         sodipodi:type="arc"
         style="fill:none;stroke:#008000;stroke-width:3.95821309;stroke-miterlimit:4;stroke-opacity:1;stroke-dasharray:none;stroke-dashoffset:0"
         id="path3367-7-8-0-0-4"
         sodipodi:cx="512"
         sodipodi:cy="184.09448"
         sodipodi:rx="160"
         sodipodi:ry="64"
         d="m 668.56045,170.89554 c 18.22394,34.58638 -37.09715,68.53355 -123.5631,75.82312 -86.46594,7.28958 -171.33386,-14.83886 -189.5578,-49.42524 -6.061,-11.50289 -4.08441,-23.4513 5.71293,-34.53445"
         sodipodi:start="6.0754612"
         sodipodi:end="9.764651"
         sodipodi:open="true" />
      <path
         sodipodi:open="true"
         sodipodi:end="11.843734"
         sodipodi:start="5.7136544"
         sodipodi:type="arc"
         style="fill:none;stroke:#008000;stroke-width:3.95821309;stroke-miterlimit:4;stroke-opacity:1;stroke-dasharray:23.74927855, 23.74927855;stroke-dashoffset:0"
         id="path3367-8-2-9"
         sodipodi:cx="512"
         sodipodi:cy="184.09448"
         sodipodi:rx="160"
         sodipodi:ry="64"
         d="m 646.74464,149.58331 c 47.64999,29.76697 25.9507,69.34904 -48.46671,88.40903 -74.41741,19.05999 -173.37259,10.38028 -221.02257,-19.38669 -47.64999,-29.76696 -25.9507,-69.34903 48.46671,-88.40902 66.48275,-17.02775 154.07769,-12.11463 206.28826,11.57052"
         transform="matrix(0.37895888,0,0,0.37895888,454.38416,626.31616)" />
    </g>
    <text
       xml:space="preserve"
       style="font-size:12.12668419px;font-style:normal;font-weight:normal;line-height:125%;letter-spacing:0px;word-spacing:0px;fill:#000000;fill-opacity:1;stroke:none;font-family:Sans"
       x="716.37946"
       y="732.56415"
       id="text3036-5-1"
       sodipodi:linespacing="125%"><tspan
         sodipodi:role="line"
         id="tspan3038-6-4"
         x="716.37946"
         y="732.56415" /></text>
    <g
       style="font-style:normal;font-variant:normal;font-weight:normal;font-stretch:normal;letter-spacing:normal;word-spacing:normal;text-anchor:start;fill:none;stroke:#000000;stroke-linecap:butt;stroke-linejoin:miter;stroke-miterlimit:10.43299961;stroke-opacity:1;stroke-dasharray:none;stroke-dashoffset:0"
       id="content"
       transform="matrix(4,0,0,-4,-336.87534,3394.3369)"
       xml:space="preserve"
       stroke-miterlimit="10.433"
       font-style="normal"
       font-variant="normal"
       font-weight="normal"
       font-stretch="normal"
       font-size-adjust="none"
       letter-spacing="normal"
       word-spacing="normal"
       ns0:text="$\\bm{n}$"
       ns0:preamble="/home/eric/BHLectures/Notes/latex_inkscape.ini"><path
         style="fill:#000000;stroke-width:0"
         inkscape:connector-curvature="0"
         d="m 226.22,710.86 -0.02,0.05 -0.01,0.04 -0.02,0.04 -0.02,0.05 -0.03,0.04 -0.02,0.03 -0.03,0.04 -0.03,0.04 -0.03,0.03 -0.03,0.04 -0.03,0.03 -0.04,0.03 -0.04,0.03 -0.03,0.02 -0.04,0.03 -0.05,0.02 -0.04,0.03 -0.04,0.02 -0.04,0.02 -0.05,0.02 -0.05,0.01 -0.04,0.02 -0.05,0.01 -0.05,0.02 -0.05,0.01 -0.05,0.01 -0.05,0.01 -0.04,0 -0.06,0.01 -0.05,0 -0.05,0 -0.05,0 c -0.36,0 -0.64,-0.2 -0.86,-0.56 -0.25,-0.4 -0.38,-0.94 -0.38,-0.98 0,-0.14 0.15,-0.14 0.24,-0.14 0.11,0 0.15,0 0.2,0.05 0.02,0.02 0.02,0.04 0.08,0.28 0.2,0.78 0.42,1 0.67,1 0.15,0 0.23,-0.1 0.23,-0.37 0,-0.17 -0.04,-0.33 -0.14,-0.73 -0.07,-0.27 -0.16,-0.67 -0.21,-0.89 l -0.36,-1.39 c -0.03,-0.14 -0.08,-0.33 -0.08,-0.4 0,-0.21 0.16,-0.43 0.47,-0.43 0.51,0 0.63,0.45 0.7,0.75 0.1,0.37 0.18,0.69 0.28,1.11 0.04,0.13 0.29,1.16 0.31,1.18 0.01,0.07 0.29,0.51 0.62,0.78 0.27,0.22 0.6,0.39 1.02,0.39 0.26,0 0.5,-0.1 0.5,-0.59 0,-0.57 -0.44,-1.73 -0.63,-2.22 -0.11,-0.27 -0.14,-0.34 -0.14,-0.51 0,-0.58 0.58,-0.89 1.12,-0.89 1.06,0 1.56,1.35 1.56,1.54 0,0.14 -0.15,0.14 -0.24,0.14 -0.12,0 -0.19,0 -0.23,-0.13 -0.33,-1.1 -0.87,-1.2 -1.02,-1.2 -0.07,0 -0.17,0 -0.17,0.21 0,0.23 0.1,0.48 0.2,0.73 0.15,0.4 0.61,1.57 0.61,2.12 0,0.92 -0.76,1.15 -1.48,1.15 -0.21,0 -0.94,0 -1.64,-0.75 z"
         id="path4521" /></g>    <g
       style="font-style:normal;font-variant:normal;font-weight:normal;font-stretch:normal;letter-spacing:normal;word-spacing:normal;text-anchor:start;fill:#008080;stroke:#000000;stroke-linecap:butt;stroke-linejoin:miter;stroke-miterlimit:10.43299961;stroke-opacity:1;stroke-dasharray:none;stroke-dashoffset:0"
       id="g4636"
       transform="matrix(4,0,0,-4,-540.28811,3609.0898)"
       xml:space="preserve"
       stroke-miterlimit="10.433"
       font-style="normal"
       font-variant="normal"
       font-weight="normal"
       font-stretch="normal"
       font-size-adjust="none"
       letter-spacing="normal"
       word-spacing="normal"
       ns0:text="$\\Sigma$"
       ns0:preamble="/home/eric/BHLectures/Notes/latex_inkscape.ini"><path
         style="fill:#008080;stroke-width:0"
         inkscape:connector-curvature="0"
         d="m 227.13,710.36 0.01,0.01 0,0 0.01,0.01 0,0 0,0.01 0.01,0 0,0 0,0.01 0.01,0 0,0.01 0,0 0.01,0.01 0.01,0.01 0,0 0,0.01 0.01,0.01 0,0 0,0.01 0.01,0 0,0.01 0,0 0,0.01 0.01,0 0,0.01 0,0 0,0 0,0.01 0,0 0,0 0,0.01 0,0 0,0 0,0 0,0.01 0,0 0,0 c 0,0.05 -0.04,0.1 -0.07,0.14 l -2.04,2.94 h 2.3 c 1.68,0 2.18,-0.36 2.39,-1.93 h 0.25 l -0.28,2.24 h -5.52 c -0.24,0 -0.26,0 -0.26,-0.23 l 2.48,-3.59 -2.37,-2.7 c -0.1,-0.11 -0.1,-0.13 -0.1,-0.16 0,-0.11 0.1,-0.11 0.25,-0.11 h 5.52 l 0.28,2.35 h -0.25 c -0.18,-1.66 -0.86,-1.93 -2.42,-1.93 h -2.74 z"
         id="path4638" /></g>    <path
       sodipodi:nodetypes="cc"
       inkscape:connector-curvature="0"
       id="path3003-3"
       d="M 562.03234,723.43081 505.99393,667.8633"
       style="fill:#008000;stroke:#008000;stroke-width:1.5;stroke-linecap:butt;stroke-linejoin:miter;stroke-miterlimit:4;stroke-opacity:1;stroke-dasharray:none" />
    <path
       sodipodi:nodetypes="cc"
       inkscape:connector-curvature="0"
       id="path3003-0"
       d="m 502.9235,665.05433 -55.7798,-57.4544"
       style="fill:#008000;stroke:#008000;stroke-width:1.5;stroke-linecap:butt;stroke-linejoin:miter;stroke-miterlimit:4;stroke-opacity:1;stroke-dasharray:9, 9;stroke-dashoffset:0" />
    <path
       sodipodi:nodetypes="cc"
       inkscape:connector-curvature="0"
       id="path3003-35"
       d="m 504.06185,665.24232 58.67521,-60.06099"
       style="fill:#008000;stroke:#008000;stroke-width:1.5;stroke-linecap:butt;stroke-linejoin:miter;stroke-miterlimit:4;stroke-opacity:1;stroke-dasharray:9,9;stroke-dashoffset:0" />
    <path
       sodipodi:nodetypes="cc"
       inkscape:connector-curvature="0"
       id="path3889-6"
       d="m 528.84716,648.29994 c -352.56477,269.37483 -176.28239,134.68741 0,0 z"
       style="fill:#ffffff;stroke:none" />
    <path
       sodipodi:nodetypes="cc"
       style="fill:none;stroke:#000000;stroke-width:3;stroke-linecap:butt;stroke-linejoin:miter;stroke-miterlimit:4;stroke-opacity:1;stroke-dasharray:none;marker-end:url(#Arrow2Mend)"
       d="M 504.31382,662.53171 547.22225,562.30724"
       id="path4312"
       inkscape:connector-curvature="0" />
    <path
       sodipodi:nodetypes="cc"
       inkscape:connector-curvature="0"
       id="path3003-0-4"
       d="m 487.54627,706.1316 16.07125,-41.27602"
       style="fill:#008000;stroke:#008000;stroke-width:1.5;stroke-linecap:butt;stroke-linejoin:miter;stroke-miterlimit:4;stroke-opacity:1;stroke-dasharray:9, 9;stroke-dashoffset:0" />
    <g
       id="g3788">
      <path
         style="fill:none;stroke:#ff0000;stroke-width:2;stroke-linecap:butt;stroke-linejoin:miter;stroke-miterlimit:4;stroke-opacity:1;stroke-dasharray:none"
         d="m 550.07658,793.34744 c -3.42899,-13.79859 -7.27891,-29.71311 -11.45281,-42.63628"
         id="path3786"
         inkscape:connector-curvature="0"
         sodipodi:nodetypes="cc" />
      <path
         style="fill:none;stroke:#ff0000;stroke-width:2;stroke-linecap:butt;stroke-linejoin:miter;stroke-miterlimit:4;stroke-opacity:1;stroke-dasharray:2,6;stroke-dashoffset:0"
         d="M 538.62377,750.71116 C 511.63254,667.14135 471.09299,602.39233 443.21989,563.14628"
         id="path3784" />
      <path
         sodipodi:nodetypes="cc"
         inkscape:connector-curvature="0"
         style="stroke-linejoin:miter;marker-end:url(#Arrow1Lende);stroke-opacity:1;stroke:#ff0000;stroke-linecap:butt;stroke-miterlimit:4;stroke-dasharray:none;stroke-width:2;fill:none"
         d="m 443.21989,563.14628 c -8.00603,-11.2727 -24.98245,-32.38279 -30.27725,-39.28905"
         id="path3006" />
      <g
         id="g5593"
         transform="matrix(4,0,0,-4,-576.40814,3383.1965)"
         xml:space="preserve"
         stroke-miterlimit="10.433"
         font-style="normal"
         font-variant="normal"
         font-weight="normal"
         font-stretch="normal"
         font-size-adjust="none"
         letter-spacing="normal"
         word-spacing="normal"
         ns0:text="$\\mathscr{L}_{2\\rightarrow 1}$"
         ns0:preamble="/home/eric/BHLectures/Notes/latex_inkscape.ini"
         style="font-style:normal;font-variant:normal;font-weight:normal;font-stretch:normal;letter-spacing:normal;word-spacing:normal;text-anchor:start;fill:#ff0000;fill-opacity:1;fill-rule:evenodd;stroke:#ff0000;stroke-linecap:butt;stroke-linejoin:miter;stroke-miterlimit:10.43299961;stroke-opacity:1;stroke-dasharray:none;stroke-dashoffset:0"><path
           inkscape:connector-curvature="0"
           style="fill:#ff0000;stroke:#ff0000;stroke-width:0"
           d="m 231.39,708.52 0,0 0,0 0,0.01 0,0 0,0.01 0,0 0,0.01 -0.01,0 0,0 0,0.01 0,0 0,0 -0.01,0.01 0,0 0,0 0,0 -0.01,0.01 0,0 0,0 -0.01,0 0,0 0,0.01 -0.01,0 0,0 0,0 -0.01,0 0,0 0,0 -0.01,0 0,0 0,0 -0.01,0 h -0.12 c -0.02,0 -0.05,0 -0.06,-0.02 -0.45,-0.64 -1.37,-1.13 -2.02,-1.13 -0.66,0 -1.23,0.13 -1.8,0.27 0.64,0.39 1.21,0.89 1.6,1.45 l 1,1.39 c 1.28,0.19 2.61,0.69 3.34,1.74 0.3,0.43 0.46,0.86 0.46,1.19 0,0.46 -0.28,0.77 -0.89,0.77 l -0.04,-0.23 c 0.38,0 0.56,-0.2 0.56,-0.51 0,-0.29 -0.16,-0.68 -0.47,-1.12 -0.61,-0.86 -1.68,-1.35 -2.76,-1.56 1.22,1.7 2.38,3.19 2.67,3.19 h 0 l 0.04,0.23 c -0.97,0 -2.42,-1.77 -3.73,-3.55 -0.15,-0.01 -0.3,-0.02 -0.44,-0.02 -1.03,0 -1.75,0.37 -1.75,1.03 0,0.26 0.11,0.57 0.37,0.93 0.48,0.68 1.43,1.22 2.09,1.22 0.02,0 0.05,0.01 0.06,0.03 l 0.04,0.06 c 0.01,0.01 0.02,0.03 0.02,0.05 0,0.03 -0.02,0.05 -0.04,0.06 0,0.01 -0.01,0.01 -0.02,0.02 -0.1,0.03 -0.2,0.04 -0.31,0.04 -0.76,0 -1.82,-0.61 -2.37,-1.38 -0.27,-0.4 -0.39,-0.75 -0.39,-1.03 0,-0.85 1.02,-1.25 2.26,-1.25 0.1,0 0.21,0 0.31,0.01 -0.29,-0.42 -0.58,-0.82 -0.85,-1.21 -0.37,-0.52 -0.86,-1.01 -1.37,-1.39 -0.48,0.11 -0.98,0.2 -1.56,0.2 h -0.06 l 0.02,-0.22 c 0.48,0 0.88,-0.09 1.26,-0.22 -0.45,-0.28 -0.91,-0.45 -1.3,-0.45 h 0 c -0.57,0 -0.93,0.02 -0.93,0.18 0,0.04 0.01,0.08 0.05,0.13 0.19,0.27 0.58,0.36 0.92,0.36 l -0.02,0.22 c -0.48,0 -1.09,-0.01 -1.42,-0.48 -0.07,-0.1 -0.11,-0.19 -0.11,-0.26 0,-0.35 0.8,-0.37 1.32,-0.37 h 0.15 c 0.56,0 1.21,0.19 1.83,0.49 l 0.12,-0.05 c 0.57,-0.23 1.14,-0.44 1.91,-0.44 0.82,0 1.92,0.7 2.49,1.51 0.01,0.02 0.02,0.03 0.02,0.05 z"
           id="path5595" /><path
           inkscape:connector-curvature="0"
           style="fill:#ff0000;stroke:#ff0000;stroke-width:0"
           d="m 235.65,706.9 h -0.23 c -0.02,-0.16 -0.09,-0.57 -0.18,-0.64 -0.06,-0.04 -0.6,-0.04 -0.69,-0.04 h -1.29 c 0.74,0.65 0.98,0.84 1.4,1.17 0.51,0.41 0.99,0.84 0.99,1.5 0,0.84 -0.73,1.36 -1.63,1.36 -0.86,0 -1.44,-0.61 -1.44,-1.25 0,-0.35 0.3,-0.39 0.37,-0.39 0.16,0 0.36,0.12 0.36,0.37 0,0.13 -0.05,0.37 -0.41,0.37 0.22,0.49 0.69,0.65 1.02,0.65 0.7,0 1.06,-0.54 1.06,-1.11 0,-0.6 -0.43,-1.08 -0.66,-1.33 l -1.67,-1.66 c -0.07,-0.06 -0.07,-0.07 -0.07,-0.27 h 2.87 z"
           id="path5597" /><path
           inkscape:connector-curvature="0"
           style="fill:#ff0000;stroke:#ff0000;stroke-width:0"
           d="m 242.51,707.2 -0.08,-0.06 -0.07,-0.06 -0.07,-0.06 -0.07,-0.07 -0.06,-0.06 -0.06,-0.07 -0.06,-0.06 -0.05,-0.07 -0.05,-0.07 -0.04,-0.06 -0.05,-0.07 -0.04,-0.06 -0.03,-0.06 -0.03,-0.06 -0.03,-0.06 -0.03,-0.06 -0.03,-0.06 -0.02,-0.06 -0.02,-0.05 -0.02,-0.05 -0.01,-0.05 -0.02,-0.04 -0.01,-0.04 -0.01,-0.04 -0.01,-0.03 0,-0.03 -0.01,-0.03 0,-0.02 -0.01,-0.02 0,-0.01 0,-0.01 0,0 c 0,-0.11 0.07,-0.11 0.17,-0.11 0.12,0 0.14,0 0.18,0.12 0.04,0.17 0.15,0.62 0.51,1 0.41,0.42 0.75,0.53 1.05,0.62 0.04,0.01 0.07,0.06 0.07,0.09 0,0.07 -0.04,0.08 -0.13,0.11 -1.01,0.32 -1.36,1.03 -1.51,1.64 -0.03,0.09 -0.08,0.09 -0.17,0.09 -0.1,0 -0.17,0 -0.17,-0.11 0,-0.01 0.07,-0.48 0.41,-0.96 0.16,-0.23 0.36,-0.43 0.58,-0.6 h -5.59 c -0.11,0 -0.28,0 -0.28,-0.16 0,-0.18 0.16,-0.18 0.28,-0.18 z"
           id="path5599" /><path
           inkscape:connector-curvature="0"
           style="fill:#ff0000;stroke:#ff0000;stroke-width:0"
           d="m 246.38,710.05 0,0.01 0,0.01 0,0.01 0,0.01 0,0 0,0.01 0,0.01 0,0.01 0,0 0,0.01 0,0.01 0,0 0,0.01 0,0 0,0.01 0,0 0,0.01 0,0 -0.01,0.01 0,0.01 0,0.01 -0.01,0 0,0.01 0,0.01 -0.01,0 0,0.01 -0.01,0 -0.01,0 0,0.01 -0.01,0 -0.01,0 -0.01,0 -0.01,0 0,0 -0.01,0 0,0.01 -0.01,0 0,0 -0.01,0 -0.01,0 0,0 -0.01,0 -0.01,0 -0.01,0 0,0 -0.01,0 -0.01,0 -0.01,0 -0.01,0 -0.01,0 c -0.44,-0.44 -1.07,-0.45 -1.36,-0.45 v -0.25 c 0.17,0 0.63,0 1.01,0.2 v -3.55 c 0,-0.23 0,-0.32 -0.7,-0.32 h -0.26 v -0.25 c 0.12,0.01 0.98,0.03 1.24,0.03 0.21,0 1.09,-0.02 1.24,-0.03 v 0.25 h -0.26 c -0.7,0 -0.7,0.09 -0.7,0.32 z"
           id="path5601" /></g>      <g
         id="g5336"
         transform="translate(-5.9988134,2.0295067)">
        <text
           xml:space="preserve"
           style="font-size:36px;font-style:normal;font-variant:normal;font-weight:normal;font-stretch:normal;line-height:125%;letter-spacing:0px;word-spacing:0px;fill:#000000;fill-opacity:1;stroke:none;font-family:Nimbus Roman No9 L;-inkscape-font-specification:Nimbus Roman No9 L"
           x="340.65222"
           y="667.27704"
           id="text5286"
           sodipodi:linespacing="125%"><tspan
             sodipodi:role="line"
             id="tspan5288"
             x="340.65222"
             y="667.27704">1</tspan></text>
        <path
           sodipodi:type="arc"
           style="fill:none;stroke:#000000;stroke-width:2;stroke-miterlimit:4;stroke-opacity:1;stroke-dasharray:none;stroke-dashoffset:0"
           id="path5290"
           sodipodi:cx="341.16293"
           sodipodi:cy="389.65274"
           sodipodi:rx="32.175549"
           sodipodi:ry="32.175549"
           d="m 373.33848,389.65274 c 0,17.77007 -14.40548,32.17555 -32.17555,32.17555 -17.77006,0 -32.17555,-14.40548 -32.17555,-32.17555 0,-17.77006 14.40549,-32.17555 32.17555,-32.17555 17.77007,0 32.17555,14.40549 32.17555,32.17555 z"
           transform="matrix(0.85375168,0,0,0.85375168,57.810713,323.11911)" />
      </g>
      <g
         id="g4612"
         transform="translate(286.7003,139.39597)">
        <text
           xml:space="preserve"
           style="font-size:36px;font-style:normal;font-variant:normal;font-weight:normal;font-stretch:normal;line-height:125%;letter-spacing:0px;word-spacing:0px;fill:#000000;fill-opacity:1;stroke:none;font-family:Nimbus Roman No9 L;-inkscape-font-specification:Nimbus Roman No9 L"
           x="391.95798"
           y="528.80298"
           id="text5286-9"
           sodipodi:linespacing="125%"><tspan
             sodipodi:role="line"
             id="tspan5288-3"
             x="391.95798"
             y="528.80298">2</tspan></text>
        <path
           sodipodi:type="arc"
           style="fill:none;stroke:#000000;stroke-width:2;stroke-miterlimit:4;stroke-opacity:1;stroke-dasharray:none;stroke-dashoffset:0"
           id="path5290-4"
           sodipodi:cx="341.16293"
           sodipodi:cy="389.65274"
           sodipodi:rx="32.175549"
           sodipodi:ry="32.175549"
           d="m 373.33848,389.65274 c 0,17.77007 -14.40548,32.17555 -32.17555,32.17555 -17.77006,0 -32.17555,-14.40548 -32.17555,-32.17555 0,-17.77006 14.40549,-32.17555 32.17555,-32.17555 17.77007,0 32.17555,14.40549 32.17555,32.17555 z"
           transform="matrix(0.85375168,0,0,0.85375168,109.63242,185.677)" />
      </g>
    </g>
    <path
       sodipodi:type="arc"
       style="fill:#000000;fill-opacity:1;stroke:#000000;stroke-width:1;stroke-miterlimit:4;stroke-opacity:1;stroke-dasharray:none;stroke-dashoffset:0"
       id="path3061-5"
       sodipodi:cx="164.1358"
       sodipodi:cy="438.59769"
       sodipodi:rx="6.2827106"
       sodipodi:ry="6.2827106"
       d="m 170.41851,438.59769 c 0,3.46984 -2.81286,6.28271 -6.28271,6.28271 -3.46984,0 -6.28271,-2.81287 -6.28271,-6.28271 0,-3.46985 2.81287,-6.28271 6.28271,-6.28271 3.46985,0 6.28271,2.81286 6.28271,6.28271 z"
       transform="matrix(0.59610707,0,0,0.59610707,405.97284,403.80718)" />
    <g
       id="g4533"
       transform="translate(-0.81704314,-0.40852157)">
      <path
         id="path4531"
         d="m 441.20329,797.0362 c 8.59933,-16.13247 16.82846,-32.23874 24.66863,-48.12265"
         style="fill:none;stroke:#000000;stroke-width:1;stroke-linecap:butt;stroke-linejoin:miter;stroke-miterlimit:4;stroke-opacity:1;stroke-dasharray:none;stroke-dashoffset:0"
         inkscape:connector-curvature="0" />
      <path
         id="path4529"
         d="m 465.87192,748.91355 c 14.23587,-28.84139 27.18935,-56.94968 38.74822,-83.15065"
         style="fill:none;stroke:#000000;stroke-width:1;stroke-linecap:butt;stroke-linejoin:miter;stroke-miterlimit:4;stroke-opacity:1;stroke-dasharray:1, 4;stroke-dashoffset:0"
         inkscape:connector-curvature="0" />
      <path
         id="path4525"
         d="m 504.62014,665.7629 c 25.92579,-58.76709 44.83558,-107.93887 55.46293,-134.26572"
         style="fill:none;stroke:#000000;stroke-width:1;stroke-linecap:butt;stroke-linejoin:miter;stroke-miterlimit:4;stroke-opacity:1;stroke-dasharray:none;stroke-dashoffset:0"
         inkscape:connector-curvature="0" />
    </g>
  </g>
</svg>
