<?xml version="1.0" encoding="UTF-8" standalone="no"?>
<!-- Created with Inkscape (http://www.inkscape.org/) -->

<svg
   xmlns:ns0="http://www.iki.fi/pav/software/textext/"
   xmlns:dc="http://purl.org/dc/elements/1.1/"
   xmlns:cc="http://creativecommons.org/ns#"
   xmlns:rdf="http://www.w3.org/1999/02/22-rdf-syntax-ns#"
   xmlns:svg="http://www.w3.org/2000/svg"
   xmlns="http://www.w3.org/2000/svg"
   xmlns:sodipodi="http://sodipodi.sourceforge.net/DTD/sodipodi-0.dtd"
   xmlns:inkscape="http://www.inkscape.org/namespaces/inkscape"
   width="1052.3622"
   height="744.09448"
   id="svg3056"
   version="1.1"
   inkscape:version="0.48.4 r9939"
   sodipodi:docname="def_timelike_hyp.svg">
  <sodipodi:namedview
     id="base"
     pagecolor="#ffffff"
     bordercolor="#666666"
     borderopacity="1.0"
     inkscape:pageopacity="0.0"
     inkscape:pageshadow="2"
     inkscape:zoom="2.1451847"
     inkscape:cx="530.48901"
     inkscape:cy="397.27608"
     inkscape:document-units="px"
     inkscape:current-layer="g3817"
     showgrid="false"
     inkscape:window-width="1535"
     inkscape:window-height="876"
     inkscape:window-x="65"
     inkscape:window-y="24"
     inkscape:window-maximized="1"
     showguides="true"
     inkscape:guide-bbox="true" />
  <defs
     id="defs3058">
    <marker
       style="overflow:visible;"
       id="Arrow2Mend"
       refX="0.0"
       refY="0.0"
       orient="auto"
       inkscape:stockid="Arrow2Mend">
      <path
         transform="scale(0.6) rotate(180) translate(0,0)"
         d="M 8.7185878,4.0337352 L -2.2072895,0.016013256 L 8.7185884,-4.0017078 C 6.9730900,-1.6296469 6.9831476,1.6157441 8.7185878,4.0337352 z "
         style="fill-rule:evenodd;stroke-width:0.62500000;stroke-linejoin:round;"
         id="path3897" />
    </marker>
  </defs>
  <metadata
     id="metadata3061">
    <rdf:RDF>
      <cc:Work
         rdf:about="">
        <dc:format>image/svg+xml</dc:format>
        <dc:type
           rdf:resource="http://purl.org/dc/dcmitype/StillImage" />
        <dc:title />
      </cc:Work>
    </rdf:RDF>
  </metadata>
  <g
     transform="translate(0,-308.2677)"
     id="layer1"
     inkscape:groupmode="layer"
     inkscape:label="Calque 1">
    <path
       sodipodi:nodetypes="ccccc"
       inkscape:connector-curvature="0"
       id="path2993"
       d="m 583.11282,485.67066 c -57.60444,36.29278 -91.06624,38.73662 -152.67849,52.81783 -0.29646,116.2655 7.07342,124.83035 -13.9895,286.01305 65.86282,-13.93707 109.22067,-29.28809 157.95539,-49.39021 14.20535,-145.0393 8.7126,-289.44067 8.7126,-289.44067 z"
       style="fill:#d7f4ee;stroke:#000000;stroke-width:1;stroke-linecap:butt;stroke-linejoin:miter;stroke-miterlimit:4;stroke-opacity:1;stroke-dasharray:none" />
    <g
       transform="translate(-144.14336,-96.839345)"
       id="g3817">
      <path
         transform="matrix(0.37895888,0,0,0.37895888,453.99008,626.09002)"
         d="m 635.37815,143.34583 c 56.26216,27.25595 46.63336,67.59505 -21.50651,90.09991 -50.91611,16.8163 -122.42807,19.39443 -180.04077,6.49079"
         sodipodi:ry="64"
         sodipodi:rx="160"
         sodipodi:cy="184.09448"
         sodipodi:cx="512"
         id="path3367-8-2"
         style="fill:none;stroke:#008000;stroke-width:3.95821309;stroke-miterlimit:4;stroke-opacity:1;stroke-dasharray:none;stroke-dashoffset:0"
         sodipodi:type="arc"
         sodipodi:start="5.5929771"
         sodipodi:end="8.3644169"
         sodipodi:open="true" />
      <path
         sodipodi:nodetypes="cc"
         inkscape:connector-curvature="0"
         id="path4173-2-1-2"
         d="m 590.662,820.20556 57.35503,-58.19111"
         style="fill:none;stroke:#008000;stroke-width:1.5;stroke-linecap:butt;stroke-linejoin:miter;stroke-miterlimit:4;stroke-opacity:1;stroke-dasharray:9, 9;stroke-dashoffset:0" />
      <path
         d="m 672,184.09448 c 0,35.34623 -71.63444,64 -160,64 -88.36556,0 -160,-28.65377 -160,-64 0,-35.34622 71.63444,-64 160,-64 88.36556,0 160,28.65378 160,64 z"
         sodipodi:ry="64"
         sodipodi:rx="160"
         sodipodi:cy="184.09448"
         sodipodi:cx="512"
         id="path3367-4-0-5"
         style="fill:none;stroke:none"
         sodipodi:type="arc"
         transform="matrix(0.37895888,0,0,-0.37895888,453.99008,898.21463)" />
      <path
         sodipodi:end="4.1686747"
         sodipodi:start="0.017657164"
         d="m 671.97506,185.22448 c -1.56021,35.34072 -74.44827,63.48411 -162.80006,62.86003 -88.35178,-0.62409 -158.71026,-29.77931 -157.15006,-65.12003 0.97125,-22.00005 30.12808,-42.25796 77.20415,-53.64076"
         sodipodi:ry="64"
         sodipodi:rx="160"
         sodipodi:cy="184.09448"
         sodipodi:cx="512"
         id="path3367-7-8-0-0"
         style="fill:none;stroke:#008000;stroke-width:3.95821309;stroke-miterlimit:4;stroke-opacity:1;stroke-dasharray:23.74927855, 23.74927855;stroke-dashoffset:0"
         sodipodi:type="arc"
         transform="matrix(0.37380737,0,0,-0.36223607,456.9834,893.16935)"
         sodipodi:open="true" />
      <path
         sodipodi:open="true"
         sodipodi:end="12.336388"
         sodipodi:start="6.0600102"
         transform="matrix(0.11214915,0,0,0.11214915,600.01946,725.67665)"
         d="m 439.782,321.78783 c 1.51208,6.66245 -2.66312,13.28922 -9.32557,14.8013 -6.66245,1.51208 -13.28922,-2.66312 -14.8013,-9.32557 -1.51208,-6.66245 2.66312,-13.28922 9.32557,-14.8013 6.6304,-1.50481 13.23248,2.62351 14.78238,9.24351"
         sodipodi:ry="12.370221"
         sodipodi:rx="12.370221"
         sodipodi:cy="324.5257"
         sodipodi:cx="427.71857"
         id="path4966-9-1"
         style="fill:#008000;fill-opacity:1;stroke:none"
         sodipodi:type="arc" />
      <path
         sodipodi:open="true"
         sodipodi:end="8.5223753"
         sodipodi:start="6.0754612"
         d="m 668.56045,170.89554 a 160,64 0 0 1 -255.71663,63.4273"
         sodipodi:ry="64"
         sodipodi:rx="160"
         sodipodi:cy="184.09448"
         sodipodi:cx="512"
         id="path3367-7-8-0-0-4"
         style="fill:none;stroke:#008000;stroke-width:3.95821309;stroke-miterlimit:4;stroke-opacity:1;stroke-dasharray:none;stroke-dashoffset:0"
         sodipodi:type="arc"
         transform="matrix(0.36675475,0,0,0.36261518,461.84974,761.41439)" />
      <path
         transform="matrix(0.37895888,0,0,0.37895888,454.38416,626.31616)"
         d="m 416.17976,235.34833 a 160,64 0 1 1 215.83053,-93.5812"
         sodipodi:ry="64"
         sodipodi:rx="160"
         sodipodi:cy="184.09448"
         sodipodi:cx="512"
         id="path3367-8-2-9"
         style="fill:none;stroke:#008000;stroke-width:3.95821309;stroke-miterlimit:4;stroke-opacity:1;stroke-dasharray:23.74927855, 23.74927855;stroke-dashoffset:0"
         sodipodi:type="arc"
         sodipodi:start="2.2128938"
         sodipodi:end="5.5605483"
         sodipodi:open="true" />
    </g>
    <text
       sodipodi:linespacing="125%"
       id="text3036-5-1"
       y="732.56415"
       x="716.37946"
       style="font-size:12.12668419px;font-style:normal;font-weight:normal;line-height:125%;letter-spacing:0px;word-spacing:0px;fill:#000000;fill-opacity:1;stroke:none;font-family:Sans"
       xml:space="preserve"><tspan
         y="732.56415"
         x="716.37946"
         id="tspan3038-6-4"
         sodipodi:role="line" /></text>
    <path
       inkscape:connector-curvature="0"
       id="path4312"
       d="m 506.17846,665.32867 105.84007,0"
       style="fill:none;stroke:#000000;stroke-width:3;stroke-linecap:butt;stroke-linejoin:miter;stroke-miterlimit:4;stroke-opacity:1;stroke-dasharray:none;marker-end:url(#Arrow2Mend)" />
    <g
       ns0:preamble="/home/eric/BHLectures/Notes/latex_inkscape.ini"
       ns0:text="$\\bm{n}$"
       word-spacing="normal"
       letter-spacing="normal"
       font-size-adjust="none"
       font-stretch="normal"
       font-weight="normal"
       font-variant="normal"
       font-style="normal"
       stroke-miterlimit="10.433"
       xml:space="preserve"
       transform="matrix(4,0,0,-4,-297.85689,3482.3664)"
       id="content"
       style="font-style:normal;font-variant:normal;font-weight:normal;font-stretch:normal;letter-spacing:normal;word-spacing:normal;text-anchor:start;fill:none;stroke:#000000;stroke-linecap:butt;stroke-linejoin:miter;stroke-miterlimit:10.43299961;stroke-opacity:1;stroke-dasharray:none;stroke-dashoffset:0"><path
         id="path4521"
         d="m 226.22,710.86 -0.02,0.05 -0.01,0.04 -0.02,0.04 -0.02,0.05 -0.03,0.04 -0.02,0.03 -0.03,0.04 -0.03,0.04 -0.03,0.03 -0.03,0.04 -0.03,0.03 -0.04,0.03 -0.04,0.03 -0.03,0.02 -0.04,0.03 -0.05,0.02 -0.04,0.03 -0.04,0.02 -0.04,0.02 -0.05,0.02 -0.05,0.01 -0.04,0.02 -0.05,0.01 -0.05,0.02 -0.05,0.01 -0.05,0.01 -0.05,0.01 -0.04,0 -0.06,0.01 -0.05,0 -0.05,0 -0.05,0 c -0.36,0 -0.64,-0.2 -0.86,-0.56 -0.25,-0.4 -0.38,-0.94 -0.38,-0.98 0,-0.14 0.15,-0.14 0.24,-0.14 0.11,0 0.15,0 0.2,0.05 0.02,0.02 0.02,0.04 0.08,0.28 0.2,0.78 0.42,1 0.67,1 0.15,0 0.23,-0.1 0.23,-0.37 0,-0.17 -0.04,-0.33 -0.14,-0.73 -0.07,-0.27 -0.16,-0.67 -0.21,-0.89 l -0.36,-1.39 c -0.03,-0.14 -0.08,-0.33 -0.08,-0.4 0,-0.21 0.16,-0.43 0.47,-0.43 0.51,0 0.63,0.45 0.7,0.75 0.1,0.37 0.18,0.69 0.28,1.11 0.04,0.13 0.29,1.16 0.31,1.18 0.01,0.07 0.29,0.51 0.62,0.78 0.27,0.22 0.6,0.39 1.02,0.39 0.26,0 0.5,-0.1 0.5,-0.59 0,-0.57 -0.44,-1.73 -0.63,-2.22 -0.11,-0.27 -0.14,-0.34 -0.14,-0.51 0,-0.58 0.58,-0.89 1.12,-0.89 1.06,0 1.56,1.35 1.56,1.54 0,0.14 -0.15,0.14 -0.24,0.14 -0.12,0 -0.19,0 -0.23,-0.13 -0.33,-1.1 -0.87,-1.2 -1.02,-1.2 -0.07,0 -0.17,0 -0.17,0.21 0,0.23 0.1,0.48 0.2,0.73 0.15,0.4 0.61,1.57 0.61,2.12 0,0.92 -0.76,1.15 -1.48,1.15 -0.21,0 -0.94,0 -1.64,-0.75 z"
         inkscape:connector-curvature="0"
         style="fill:#000000;stroke-width:0" /></g>    <g
       ns0:preamble="/home/eric/BHLectures/Notes/latex_inkscape.ini"
       ns0:text="$\\Sigma$"
       word-spacing="normal"
       letter-spacing="normal"
       font-size-adjust="none"
       font-stretch="normal"
       font-weight="normal"
       font-variant="normal"
       font-style="normal"
       stroke-miterlimit="10.433"
       xml:space="preserve"
       transform="matrix(4,0,0,-4,-460.34246,3633.0349)"
       id="g4636"
       style="font-style:normal;font-variant:normal;font-weight:normal;font-stretch:normal;letter-spacing:normal;word-spacing:normal;text-anchor:start;fill:#008080;stroke:#000000;stroke-linecap:butt;stroke-linejoin:miter;stroke-miterlimit:10.43299961;stroke-opacity:1;stroke-dasharray:none;stroke-dashoffset:0"><path
         id="path4638"
         d="m 227.13,710.36 0.01,0.01 0,0 0.01,0.01 0,0 0,0.01 0.01,0 0,0 0,0.01 0.01,0 0,0.01 0,0 0.01,0.01 0.01,0.01 0,0 0,0.01 0.01,0.01 0,0 0,0.01 0.01,0 0,0.01 0,0 0,0.01 0.01,0 0,0.01 0,0 0,0 0,0.01 0,0 0,0 0,0.01 0,0 0,0 0,0 0,0.01 0,0 0,0 c 0,0.05 -0.04,0.1 -0.07,0.14 l -2.04,2.94 h 2.3 c 1.68,0 2.18,-0.36 2.39,-1.93 h 0.25 l -0.28,2.24 h -5.52 c -0.24,0 -0.26,0 -0.26,-0.23 l 2.48,-3.59 -2.37,-2.7 c -0.1,-0.11 -0.1,-0.13 -0.1,-0.16 0,-0.11 0.1,-0.11 0.25,-0.11 h 5.52 l 0.28,2.35 h -0.25 c -0.18,-1.66 -0.86,-1.93 -2.42,-1.93 h -2.74 z"
         inkscape:connector-curvature="0"
         style="fill:#008080;stroke-width:0" /></g>    <path
       style="fill:#008000;stroke:#008000;stroke-width:1.5;stroke-linecap:butt;stroke-linejoin:miter;stroke-miterlimit:4;stroke-opacity:1;stroke-dasharray:none"
       d="M 504.25459,357.87905 474.20743,312.26904"
       id="path3003"
       inkscape:connector-curvature="0"
       transform="translate(0,308.2677)"
       sodipodi:nodetypes="cc" />
    <path
       style="fill:none;stroke:#008000;stroke-width:1.5;stroke-linecap:butt;stroke-linejoin:miter;stroke-miterlimit:4;stroke-opacity:1;stroke-dasharray:none"
       d="m 503.40392,359.36015 -35.17011,81.84693"
       id="path3005"
       inkscape:connector-curvature="0"
       transform="translate(0,308.2677)"
       sodipodi:nodetypes="cc" />
    <path
       style="fill:#008000;stroke:#008000;stroke-width:1.5;stroke-linecap:butt;stroke-linejoin:miter;stroke-miterlimit:4;stroke-opacity:1;stroke-dasharray:none"
       d="M 562.03234,723.43081 505.99393,667.8633"
       id="path3003-3"
       inkscape:connector-curvature="0"
       sodipodi:nodetypes="cc" />
    <path
       style="fill:#008000;stroke:#008000;stroke-width:1.5;stroke-linecap:butt;stroke-linejoin:miter;stroke-miterlimit:4;stroke-opacity:1;stroke-dasharray:none"
       d="M 534.95044,619.3992 550.6016,583.80955"
       id="path3003-1"
       inkscape:connector-curvature="0"
       sodipodi:nodetypes="cc" />
    <path
       style="fill:#008000;stroke:#008000;stroke-width:1.5;stroke-linecap:butt;stroke-linejoin:miter;stroke-miterlimit:4;stroke-opacity:1;stroke-dasharray:9, 9;stroke-dashoffset:0"
       d="m 502.9235,665.05433 -55.7798,-57.4544"
       id="path3003-0"
       inkscape:connector-curvature="0"
       sodipodi:nodetypes="cc" />
    <path
       style="fill:#008000;stroke:#008000;stroke-width:1.5;stroke-linecap:butt;stroke-linejoin:miter;stroke-miterlimit:4;stroke-opacity:1;stroke-dasharray:none"
       d="m 504.06185,665.24232 58.67521,-60.06099"
       id="path3003-35"
       inkscape:connector-curvature="0"
       sodipodi:nodetypes="cc" />
    <path
       style="fill:#ffffff;stroke:none"
       d="m 536.70914,309.98243 c 7.08236,-16.01466 9.32696,-22.15927 14.70441,-33.36231 6.06102,3.53948 15.73375,9.60449 10.53086,19.57688 -5.9808,8.34311 -25.23527,13.78543 -25.23527,13.78543 z"
       id="path3889"
       inkscape:connector-curvature="0"
       transform="translate(0,308.2677)"
       sodipodi:nodetypes="cccc" />
    <path
       style="fill:#ffffff;stroke:none"
       d="m 528.84716,648.29994 c -352.56477,269.37483 -176.28239,134.68741 0,0 z"
       id="path3889-6"
       inkscape:connector-curvature="0"
       sodipodi:nodetypes="cc" />
    <path
       style="fill:#e6e6e6;stroke:none"
       d="m 504.12522,356.61038 c -11.58686,-17.47685 -18.0562,-27.80848 -28.19471,-43.35419 25.29799,3.57262 49.34074,5.11753 76.28021,-6.75901 -11.87654,11.9731 -30.60865,31.47765 -48.0855,50.1132 z"
       id="path3909"
       inkscape:connector-curvature="0"
       transform="translate(0,308.2677)"
       sodipodi:nodetypes="cccc" />
    <path
       style="fill:#e6e6e6;stroke:none"
       d="m 504.39443,666.69572 c -7.83968,19.72516 -26.86209,63.03204 -34.75229,81.38814 22.67496,9.91725 99.36569,7.24819 93.32991,-21.15754 -10.00295,-15.34557 -42.03757,-39.34674 -58.57762,-60.2306 z"
       id="path3909-6"
       inkscape:connector-curvature="0"
       sodipodi:nodetypes="cccc" />
    <path
       transform="matrix(0.59610707,0,0,0.59610707,405.97284,403.80718)"
       d="m 170.41851,438.59769 c 0,3.46984 -2.81286,6.28271 -6.28271,6.28271 -3.46984,0 -6.28271,-2.81287 -6.28271,-6.28271 0,-3.46985 2.81287,-6.28271 6.28271,-6.28271 3.46985,0 6.28271,2.81286 6.28271,6.28271 z"
       sodipodi:ry="6.2827106"
       sodipodi:rx="6.2827106"
       sodipodi:cy="438.59769"
       sodipodi:cx="164.1358"
       id="path3061-5"
       style="fill:#000000;fill-opacity:1;stroke:#000000;stroke-width:1;stroke-miterlimit:4;stroke-opacity:1;stroke-dasharray:none;stroke-dashoffset:0"
       sodipodi:type="arc" />
  </g>
</svg>
