<?xml version="1.0" encoding="UTF-8" standalone="no"?>
<!-- Created with Inkscape (http://www.inkscape.org/) -->

<svg
   width="1052.3622"
   height="744.09448"
   id="svg3056"
   version="1.1"
   inkscape:version="1.2.2 (1:1.2.2+202212051552+b0a8486541)"
   sodipodi:docname="def_null_1way.svg"
   xmlns:inkscape="http://www.inkscape.org/namespaces/inkscape"
   xmlns:sodipodi="http://sodipodi.sourceforge.net/DTD/sodipodi-0.dtd"
   xmlns="http://www.w3.org/2000/svg"
   xmlns:svg="http://www.w3.org/2000/svg"
   xmlns:rdf="http://www.w3.org/1999/02/22-rdf-syntax-ns#"
   xmlns:cc="http://creativecommons.org/ns#"
   xmlns:dc="http://purl.org/dc/elements/1.1/"
   xmlns:ns0="http://www.iki.fi/pav/software/textext/">
  <sodipodi:namedview
     id="base"
     pagecolor="#ffffff"
     bordercolor="#666666"
     borderopacity="1.0"
     inkscape:pageopacity="0.0"
     inkscape:pageshadow="2"
     inkscape:zoom="2.8723074"
     inkscape:cx="515.61333"
     inkscape:cy="353.89666"
     inkscape:document-units="px"
     inkscape:current-layer="g3788"
     showgrid="false"
     inkscape:window-width="1846"
     inkscape:window-height="1016"
     inkscape:window-x="0"
     inkscape:window-y="0"
     inkscape:window-maximized="1"
     showguides="true"
     inkscape:guide-bbox="true"
     inkscape:showpageshadow="2"
     inkscape:pagecheckerboard="0"
     inkscape:deskcolor="#d1d1d1">
    <sodipodi:guide
       position="337.70758,416.83147"
       orientation="1,0"
       id="guide1326"
       inkscape:locked="false" />
    <sodipodi:guide
       position="330.74454,394.54973"
       orientation="0,-1"
       id="guide1328"
       inkscape:locked="false" />
  </sodipodi:namedview>
  <defs
     id="defs3058">
    <marker
       style="overflow:visible;"
       id="Arrow1Lend"
       refX="0.0"
       refY="0.0"
       orient="auto"
       inkscape:stockid="Arrow1Lend">
      <path
         transform="scale(0.8) rotate(180) translate(12.5,0)"
         style="fill-rule:evenodd;stroke:#000000;stroke-width:1.0pt;"
         d="M 0.0,0.0 L 5.0,-5.0 L -12.5,0.0 L 5.0,5.0 L 0.0,0.0 z "
         id="path3800" />
    </marker>
    <marker
       inkscape:stockid="Arrow2Mend"
       orient="auto"
       refY="0.0"
       refX="0.0"
       id="Arrow2Mend"
       style="overflow:visible;">
      <path
         id="path3897"
         style="fill-rule:evenodd;stroke-width:0.62500000;stroke-linejoin:round;"
         d="M 8.7185878,4.0337352 L -2.2072895,0.016013256 L 8.7185884,-4.0017078 C 6.9730900,-1.6296469 6.9831476,1.6157441 8.7185878,4.0337352 z "
         transform="scale(0.6) rotate(180) translate(0,0)" />
    </marker>
    <marker
       style="overflow:visible"
       id="Arrow1Lende"
       refX="0"
       refY="0"
       orient="auto"
       inkscape:stockid="Arrow1Lende">
      <path
         transform="matrix(-0.8,0,0,-0.8,-10,0)"
         style="fill:#ff0000;fill-rule:evenodd;stroke:#ff0000;stroke-width:1pt"
         d="M 0,0 5,-5 -12.5,0 5,5 Z"
         id="path4247" />
    </marker>
  </defs>
  <metadata
     id="metadata3061">
    <rdf:RDF>
      <cc:Work
         rdf:about="">
        <dc:format>image/svg+xml</dc:format>
        <dc:type
           rdf:resource="http://purl.org/dc/dcmitype/StillImage" />
        <dc:title />
      </cc:Work>
    </rdf:RDF>
  </metadata>
  <g
     inkscape:label="Calque 1"
     inkscape:groupmode="layer"
     id="layer1"
     transform="translate(0,-308.2677)">
    <path
       style="fill:#d7f4ee;stroke:#000000;stroke-width:1.14365602;stroke-linecap:butt;stroke-linejoin:miter;stroke-miterlimit:4;stroke-opacity:1;stroke-dasharray:none"
       d="m 671.66766,523.63849 c -86.77569,15.43316 -129.20019,6.7956 -211.4188,-0.0595 -50.16201,109.70762 -44.71691,120.20725 -139.79568,265.54317 87.41301,8.38161 147.60267,8.06631 216.47602,5.02274 79.68487,-132.33276 134.73846,-270.50642 134.73846,-270.50642 z"
       id="path2993"
       inkscape:connector-curvature="0"
       sodipodi:nodetypes="ccccc" />
    <path
       sodipodi:nodetypes="cccc"
       inkscape:connector-curvature="0"
       id="path3909-6"
       d="m 504.01657,666.31785 c -13.50766,15.37971 -41.22097,42.24945 -58.5578,62.11702 4.72637,39.57966 128.08345,28.97543 117.13542,-1.88642 -10.00295,-15.34557 -42.41544,-38.77994 -58.57762,-60.2306 z"
       style="fill:#e6e6e6;stroke:none" />
    <g
       id="g3817"
       transform="translate(-144.14336,-96.839345)">
      <path
         style="fill:none;stroke:#008000;stroke-width:1.5;stroke-linecap:butt;stroke-linejoin:miter;stroke-miterlimit:4;stroke-opacity:1;stroke-dasharray:none;stroke-dashoffset:0"
         d="m 590.662,820.20556 57.35503,-58.19111"
         id="path4173-2-1-2"
         inkscape:connector-curvature="0"
         sodipodi:nodetypes="cc" />
      <path
         transform="matrix(0.37895888,0,0,-0.37895888,453.99008,898.21463)"
         sodipodi:type="arc"
         style="fill:none;stroke:none"
         id="path3367-4-0-5"
         sodipodi:cx="512"
         sodipodi:cy="184.09448"
         sodipodi:rx="160"
         sodipodi:ry="64"
         d="m 672,184.09448 c 0,35.34623 -71.63444,64 -160,64 -88.36556,0 -160,-28.65377 -160,-64 0,-35.34622 71.63444,-64 160,-64 88.36556,0 160,28.65378 160,64 z" />
      <path
         sodipodi:open="true"
         transform="matrix(0.37380737,0,0,-0.36223607,456.9834,893.16935)"
         sodipodi:type="arc"
         style="fill:none;stroke:#008000;stroke-width:3.95821309;stroke-miterlimit:4;stroke-opacity:1;stroke-dasharray:23.74927855, 23.74927855;stroke-dashoffset:0"
         id="path3367-7-8-0-0"
         sodipodi:cx="512"
         sodipodi:cy="184.09448"
         sodipodi:rx="160"
         sodipodi:ry="64"
         d="M 671.97506,185.22448 C 670.41485,220.5652 597.52679,248.70859 509.175,248.08451 434.4087,247.55639 370.52829,226.38396 355.33662,197.09654"
         sodipodi:start="0.017657164"
         sodipodi:end="2.9370114" />
      <path
         sodipodi:type="arc"
         style="fill:#008000;fill-opacity:1;stroke:none"
         id="path4966-9-1"
         sodipodi:cx="427.71857"
         sodipodi:cy="324.5257"
         sodipodi:rx="12.370221"
         sodipodi:ry="12.370221"
         d="m 439.782,321.78783 c 1.51208,6.66245 -2.66312,13.28922 -9.32557,14.8013 -6.66245,1.51208 -13.28922,-2.66312 -14.8013,-9.32557 -1.51208,-6.66245 2.66312,-13.28922 9.32557,-14.8013 6.6304,-1.50481 13.23248,2.62351 14.78238,9.24351"
         transform="matrix(0.11214915,0,0,0.11214915,600.01946,725.67665)"
         sodipodi:start="6.0600102"
         sodipodi:end="12.336388"
         sodipodi:open="true" />
      <path
         transform="matrix(0.37497075,0,0,0.36241223,456.32049,761.45691)"
         sodipodi:type="arc"
         style="fill:none;stroke:#008000;stroke-width:3.95821309;stroke-miterlimit:4;stroke-opacity:1;stroke-dasharray:none;stroke-dashoffset:0"
         id="path3367-7-8-0-0-4"
         sodipodi:cx="512"
         sodipodi:cy="184.09448"
         sodipodi:rx="160"
         sodipodi:ry="64"
         d="m 668.56045,170.89554 c 18.22394,34.58638 -37.09715,68.53355 -123.5631,75.82312 -86.46594,7.28958 -171.33386,-14.83886 -189.5578,-49.42524 -6.061,-11.50289 -4.08441,-23.4513 5.71293,-34.53445"
         sodipodi:start="6.0754612"
         sodipodi:end="9.764651"
         sodipodi:open="true" />
      <path
         sodipodi:open="true"
         sodipodi:end="11.843734"
         sodipodi:start="5.7136544"
         sodipodi:type="arc"
         style="fill:none;stroke:#008000;stroke-width:3.95821309;stroke-miterlimit:4;stroke-opacity:1;stroke-dasharray:23.74927855, 23.74927855;stroke-dashoffset:0"
         id="path3367-8-2-9"
         sodipodi:cx="512"
         sodipodi:cy="184.09448"
         sodipodi:rx="160"
         sodipodi:ry="64"
         d="m 646.74464,149.58331 c 47.64999,29.76697 25.9507,69.34904 -48.46671,88.40903 -74.41741,19.05999 -173.37259,10.38028 -221.02257,-19.38669 -47.64999,-29.76696 -25.9507,-69.34903 48.46671,-88.40902 66.48275,-17.02775 154.07769,-12.11463 206.28826,11.57052"
         transform="matrix(0.37895888,0,0,0.37895888,454.38416,626.31616)" />
    </g>
    <text
       xml:space="preserve"
       style="font-style:normal;font-weight:normal;line-height:0%;font-family:sans-serif;letter-spacing:0px;word-spacing:0px;fill:#000000;fill-opacity:1;stroke:none"
       x="716.37946"
       y="732.56415"
       id="text3036-5-1"><tspan
         sodipodi:role="line"
         id="tspan3038-6-4"
         x="716.37946"
         y="732.56415"
         style="font-size:12.1267px;line-height:1.25;font-family:sans-serif"> </tspan></text>
    <g
       style="font-style:normal;font-variant:normal;font-weight:normal;font-stretch:normal;letter-spacing:normal;word-spacing:normal;text-anchor:start;fill:none;stroke:#000000;stroke-linecap:butt;stroke-linejoin:miter;stroke-miterlimit:10.43299961;stroke-opacity:1;stroke-dasharray:none;stroke-dashoffset:0"
       id="content"
       transform="matrix(4,0,0,-4,-336.87534,3394.3369)"
       xml:space="preserve"
       stroke-miterlimit="10.433"
       font-style="normal"
       font-variant="normal"
       font-weight="normal"
       font-stretch="normal"
       font-size-adjust="none"
       letter-spacing="normal"
       word-spacing="normal"
       ns0:text="$\\bm{n}$"
       ns0:preamble="/home/eric/BHLectures/Notes/latex_inkscape.ini"><path
         style="fill:#000000;stroke-width:0"
         inkscape:connector-curvature="0"
         d="m 226.22,710.86 -0.02,0.05 -0.01,0.04 -0.02,0.04 -0.02,0.05 -0.03,0.04 -0.02,0.03 -0.03,0.04 -0.03,0.04 -0.03,0.03 -0.03,0.04 -0.03,0.03 -0.04,0.03 -0.04,0.03 -0.03,0.02 -0.04,0.03 -0.05,0.02 -0.04,0.03 -0.04,0.02 -0.04,0.02 -0.05,0.02 -0.05,0.01 -0.04,0.02 -0.05,0.01 -0.05,0.02 -0.05,0.01 -0.05,0.01 -0.05,0.01 -0.04,0 -0.06,0.01 -0.05,0 -0.05,0 -0.05,0 c -0.36,0 -0.64,-0.2 -0.86,-0.56 -0.25,-0.4 -0.38,-0.94 -0.38,-0.98 0,-0.14 0.15,-0.14 0.24,-0.14 0.11,0 0.15,0 0.2,0.05 0.02,0.02 0.02,0.04 0.08,0.28 0.2,0.78 0.42,1 0.67,1 0.15,0 0.23,-0.1 0.23,-0.37 0,-0.17 -0.04,-0.33 -0.14,-0.73 -0.07,-0.27 -0.16,-0.67 -0.21,-0.89 l -0.36,-1.39 c -0.03,-0.14 -0.08,-0.33 -0.08,-0.4 0,-0.21 0.16,-0.43 0.47,-0.43 0.51,0 0.63,0.45 0.7,0.75 0.1,0.37 0.18,0.69 0.28,1.11 0.04,0.13 0.29,1.16 0.31,1.18 0.01,0.07 0.29,0.51 0.62,0.78 0.27,0.22 0.6,0.39 1.02,0.39 0.26,0 0.5,-0.1 0.5,-0.59 0,-0.57 -0.44,-1.73 -0.63,-2.22 -0.11,-0.27 -0.14,-0.34 -0.14,-0.51 0,-0.58 0.58,-0.89 1.12,-0.89 1.06,0 1.56,1.35 1.56,1.54 0,0.14 -0.15,0.14 -0.24,0.14 -0.12,0 -0.19,0 -0.23,-0.13 -0.33,-1.1 -0.87,-1.2 -1.02,-1.2 -0.07,0 -0.17,0 -0.17,0.21 0,0.23 0.1,0.48 0.2,0.73 0.15,0.4 0.61,1.57 0.61,2.12 0,0.92 -0.76,1.15 -1.48,1.15 -0.21,0 -0.94,0 -1.64,-0.75 z"
         id="path4521" /></g>
    <g
       style="font-style:normal;font-variant:normal;font-weight:normal;font-stretch:normal;letter-spacing:normal;word-spacing:normal;text-anchor:start;fill:#008080;stroke:#000000;stroke-linecap:butt;stroke-linejoin:miter;stroke-miterlimit:10.43299961;stroke-opacity:1;stroke-dasharray:none;stroke-dashoffset:0"
       id="g4636"
       transform="matrix(4,0,0,-4,-540.28811,3609.0898)"
       xml:space="preserve"
       stroke-miterlimit="10.433"
       font-style="normal"
       font-variant="normal"
       font-weight="normal"
       font-stretch="normal"
       font-size-adjust="none"
       letter-spacing="normal"
       word-spacing="normal"
       ns0:text="$\\Sigma$"
       ns0:preamble="/home/eric/BHLectures/Notes/latex_inkscape.ini"><path
         style="fill:#008080;stroke-width:0"
         inkscape:connector-curvature="0"
         d="m 227.13,710.36 0.01,0.01 0,0 0.01,0.01 0,0 0,0.01 0.01,0 0,0 0,0.01 0.01,0 0,0.01 0,0 0.01,0.01 0.01,0.01 0,0 0,0.01 0.01,0.01 0,0 0,0.01 0.01,0 0,0.01 0,0 0,0.01 0.01,0 0,0.01 0,0 0,0 0,0.01 0,0 0,0 0,0.01 0,0 0,0 0,0 0,0.01 0,0 0,0 c 0,0.05 -0.04,0.1 -0.07,0.14 l -2.04,2.94 h 2.3 c 1.68,0 2.18,-0.36 2.39,-1.93 h 0.25 l -0.28,2.24 h -5.52 c -0.24,0 -0.26,0 -0.26,-0.23 l 2.48,-3.59 -2.37,-2.7 c -0.1,-0.11 -0.1,-0.13 -0.1,-0.16 0,-0.11 0.1,-0.11 0.25,-0.11 h 5.52 l 0.28,2.35 h -0.25 c -0.18,-1.66 -0.86,-1.93 -2.42,-1.93 h -2.74 z"
         id="path4638" /></g>
    <path
       sodipodi:nodetypes="cc"
       inkscape:connector-curvature="0"
       id="path3003-3"
       d="M 562.03234,723.43081 505.99393,667.8633"
       style="fill:#008000;stroke:#008000;stroke-width:1.5;stroke-linecap:butt;stroke-linejoin:miter;stroke-miterlimit:4;stroke-opacity:1;stroke-dasharray:none" />
    <path
       sodipodi:nodetypes="cc"
       inkscape:connector-curvature="0"
       id="path3003-0"
       d="m 502.9235,665.05433 -55.7798,-57.4544"
       style="fill:#008000;stroke:#008000;stroke-width:1.5;stroke-linecap:butt;stroke-linejoin:miter;stroke-miterlimit:4;stroke-opacity:1;stroke-dasharray:9, 9;stroke-dashoffset:0" />
    <path
       sodipodi:nodetypes="cc"
       inkscape:connector-curvature="0"
       id="path3003-35"
       d="m 504.06185,665.24232 58.67521,-60.06099"
       style="fill:#008000;stroke:#008000;stroke-width:1.5;stroke-linecap:butt;stroke-linejoin:miter;stroke-miterlimit:4;stroke-opacity:1;stroke-dasharray:9,9;stroke-dashoffset:0" />
    <path
       sodipodi:nodetypes="cc"
       inkscape:connector-curvature="0"
       id="path3889-6"
       d="m 528.84716,648.29994 c -352.56477,269.37483 -176.28239,134.68741 0,0 z"
       style="fill:#ffffff;stroke:none" />
    <path
       sodipodi:nodetypes="cc"
       style="fill:none;stroke:#000000;stroke-width:3;stroke-linecap:butt;stroke-linejoin:miter;stroke-miterlimit:4;stroke-opacity:1;stroke-dasharray:none;marker-end:url(#Arrow2Mend)"
       d="M 504.31382,662.53171 547.22225,562.30724"
       id="path4312"
       inkscape:connector-curvature="0" />
    <path
       sodipodi:nodetypes="cc"
       inkscape:connector-curvature="0"
       id="path3003-0-4"
       d="m 487.54627,706.1316 16.07125,-41.27602"
       style="fill:#008000;stroke:#008000;stroke-width:1.5;stroke-linecap:butt;stroke-linejoin:miter;stroke-miterlimit:4;stroke-opacity:1;stroke-dasharray:9, 9;stroke-dashoffset:0" />
    <g
       id="g3788">
      <path
         style="fill:none;stroke:#ff0000;stroke-width:2;stroke-linecap:butt;stroke-linejoin:miter;stroke-miterlimit:4;stroke-opacity:1;stroke-dasharray:none"
         d="m 550.07658,793.34744 c -3.42899,-13.79859 -7.27891,-29.71311 -11.45281,-42.63628"
         id="path3786"
         inkscape:connector-curvature="0"
         sodipodi:nodetypes="cc" />
      <path
         style="fill:none;stroke:#ff0000;stroke-width:2;stroke-linecap:butt;stroke-linejoin:miter;stroke-miterlimit:4;stroke-opacity:1;stroke-dasharray:2,6;stroke-dashoffset:0"
         d="M 538.62377,750.71116 C 511.63254,667.14135 471.09299,602.39233 443.21989,563.14628"
         id="path3784" />
      <path
         sodipodi:nodetypes="cc"
         inkscape:connector-curvature="0"
         style="stroke-linejoin:miter;marker-end:url(#Arrow1Lende);stroke-opacity:1;stroke:#ff0000;stroke-linecap:butt;stroke-miterlimit:4;stroke-dasharray:none;stroke-width:2;fill:none"
         d="m 443.21989,563.14628 c -8.00603,-11.2727 -24.98245,-32.38279 -30.27725,-39.28905"
         id="path3006" />
      <g
         id="g5336"
         transform="translate(330.65479,1.809192)">
        <text
           xml:space="preserve"
           style="font-style:normal;font-variant:normal;font-weight:normal;font-stretch:normal;line-height:0%;font-family:'Nimbus Roman No9 L';-inkscape-font-specification:'Nimbus Roman No9 L';letter-spacing:0px;word-spacing:0px;fill:#000000;fill-opacity:1;stroke:none"
           x="340.65222"
           y="667.27704"
           id="text5286"><tspan
             sodipodi:role="line"
             id="tspan5288"
             x="340.65222"
             y="667.27704"
             style="font-size:36px;line-height:1.25">1</tspan></text>
        <circle
           style="fill:none;stroke:#000000;stroke-width:2;stroke-miterlimit:4;stroke-dasharray:none;stroke-dashoffset:0;stroke-opacity:1"
           id="path5290"
           transform="matrix(0.85375168,0,0,0.85375168,57.810713,323.11911)"
           cx="341.16293"
           cy="389.65274"
           r="32.175549" />
      </g>
      <g
         id="g4612"
         transform="translate(-62.354866,139.08046)">
        <text
           xml:space="preserve"
           style="font-style:normal;font-variant:normal;font-weight:normal;font-stretch:normal;line-height:0%;font-family:'Nimbus Roman No9 L';-inkscape-font-specification:'Nimbus Roman No9 L';letter-spacing:0px;word-spacing:0px;fill:#000000;fill-opacity:1;stroke:none"
           x="391.95798"
           y="528.80298"
           id="text5286-9"><tspan
             sodipodi:role="line"
             id="tspan5288-3"
             x="391.95798"
             y="528.80298"
             style="font-size:36px;line-height:1.25">2</tspan></text>
        <circle
           style="fill:none;stroke:#000000;stroke-width:2;stroke-miterlimit:4;stroke-dasharray:none;stroke-dashoffset:0;stroke-opacity:1"
           id="path5290-4"
           transform="matrix(0.85375168,0,0,0.85375168,109.63242,185.677)"
           cx="341.16293"
           cy="389.65274"
           r="32.175549" />
      </g>
      <g
         transform="matrix(4 0 0 4 317.353 526.16)"
         ns0:version="1.8.2"
         ns0:texconverter="pdflatex"
         ns0:pdfconverter="inkscape"
         ns0:text="$\\mathscr{L}_{1\\rightarrow 2}$"
         ns0:preamble="/home/eric/BHLectures/Notes/latex_inkscape.ini"
         ns0:scale="0.75"
         ns0:alignment="middle center"
         ns0:stroke-to-path="0"
         ns0:inkscapeversion="0.48.4"
         ns0:jacobian_sqrt="4.0"
         style="fill:#ff0000;fill-opacity:1;stroke:#ff0000;stroke-opacity:1;stroke-width:0"
         id="g5593">
        <defs
           id="id-e9680a5c-2adb-4e10-b320-3280306f99c5"
           style="fill:#ff0000;fill-opacity:1;stroke:#ff0000;stroke-opacity:1;stroke-width:0">
          <g
             id="id-7752d67c-40e6-4192-94db-dfe386bba5c3"
             style="fill:#ff0000;fill-opacity:1;stroke:#ff0000;stroke-opacity:1;stroke-width:0">
            <symbol
               overflow="visible"
               id="id-59921b5c-37d6-470b-9307-c83513985ec6"
               style="fill:#ff0000;fill-opacity:1;stroke:#ff0000;stroke-opacity:1;stroke-width:0">
              <path
                 style="stroke:#ff0000;fill:#ff0000;fill-opacity:1;stroke-opacity:1;stroke-width:0"
                 d=""
                 id="id-ef28e7c2-d908-4c1c-9866-540391ff291b" />
            </symbol>
            <symbol
               overflow="visible"
               id="id-6f67dbef-464b-46e0-9230-31fde2f6077d"
               style="fill:#ff0000;fill-opacity:1;stroke:#ff0000;stroke-opacity:1;stroke-width:0">
              <path
                 style="stroke:#ff0000;fill:#ff0000;fill-opacity:1;stroke-opacity:1;stroke-width:0"
                 d="m 7.96875,-1.390625 c 0,-0.0625 -0.03125,-0.078125 -0.078125,-0.078125 H 7.78125 c -0.03125,0 -0.0625,0 -0.0625,0.015625 C 7.25,-0.8125 6.34375,-0.3125 5.6875,-0.3125 5.03125,-0.3125 4.453125,-0.453125 3.890625,-0.59375 4.53125,-0.984375 5.09375,-1.484375 5.5,-2.046875 L 6.484375,-3.4375 C 7.78125,-3.625 9.09375,-4.125 9.84375,-5.1875 c 0.296875,-0.421875 0.453125,-0.859375 0.453125,-1.1875 0,-0.46875 -0.28125,-0.765625 -0.890625,-0.765625 -0.96875,0 -2.421875,1.765625 -3.734375,3.546875 C 5.515625,-3.578125 5.375,-3.5625 5.21875,-3.5625 c -1.015625,0 -1.734375,-0.375 -1.734375,-1.03125 0,-0.265625 0.109375,-0.578125 0.359375,-0.9375 0.484375,-0.6875 1.4375,-1.234375 2.09375,-1.234375 0.03125,0 0.046875,0 0.0625,-0.015625 l 0.046875,-0.0625 c 0,-0.015625 0.015625,-0.03125 0.015625,-0.046875 0,-0.03125 -0.015625,-0.0625 -0.046875,-0.0625 0,-0.015625 0,-0.015625 -0.015625,-0.03125 -0.09375,-0.03125 -0.203125,-0.03125 -0.3125,-0.03125 -0.765625,0 -1.8125,0.609375 -2.375,1.390625 -0.265625,0.390625 -0.390625,0.734375 -0.390625,1.03125 0,0.84375 1.03125,1.25 2.265625,1.25 0.109375,0 0.21875,0 0.3125,-0.015625 C 5.203125,-2.9375 4.921875,-2.53125 4.640625,-2.140625 4.28125,-1.625 3.78125,-1.125 3.265625,-0.75 2.796875,-0.859375 2.296875,-0.953125 1.71875,-0.953125 h -0.0625 c -0.484375,0 -1.09375,0.015625 -1.421875,0.484375 C 0.15625,-0.375 0.125,-0.28125 0.125,-0.203125 c 0,0.359375 0.796875,0.375 1.3125,0.375 h 0.15625 c 0.5625,0 1.203125,-0.1875 1.828125,-0.5 l 0.125,0.046875 c 0.5625,0.234375 1.140625,0.453125 1.921875,0.453125 0.8125,0 1.921875,-0.703125 2.484375,-1.515625 C 7.96875,-1.359375 7.96875,-1.375 7.96875,-1.390625 Z M 1.640625,-0.0625 c -0.578125,0 -0.9375,-0.015625 -0.9375,-0.171875 0,-0.046875 0,-0.078125 0.046875,-0.140625 0.1875,-0.265625 0.578125,-0.359375 0.921875,-0.359375 0.484375,0 0.875,0.09375 1.265625,0.21875 C 2.484375,-0.234375 2.03125,-0.0625 1.640625,-0.0625 Z M 9.375,-6.921875 c 0.375,0 0.546875,0.203125 0.546875,0.515625 0,0.28125 -0.15625,0.6875 -0.46875,1.125 C 8.84375,-4.421875 7.78125,-3.921875 6.6875,-3.71875 7.921875,-5.421875 9.078125,-6.921875 9.375,-6.921875 Z m 0,0"
                 id="id-a43015aa-4bc0-4ac9-9253-56129d4dc441" />
            </symbol>
            <symbol
               overflow="visible"
               id="id-6017368c-8bc5-447c-84b7-7acf28d8bcad"
               style="fill:#ff0000;fill-opacity:1;stroke:#ff0000;stroke-opacity:1;stroke-width:0">
              <path
                 style="stroke:#ff0000;fill:#ff0000;fill-opacity:1;stroke-opacity:1;stroke-width:0"
                 d=""
                 id="id-c8871903-4ddb-43c8-adbe-8fbd20139ffa" />
            </symbol>
            <symbol
               overflow="visible"
               id="id-5147254d-9b1f-4813-81ae-2575073bfb4c"
               style="fill:#ff0000;fill-opacity:1;stroke:#ff0000;stroke-opacity:1;stroke-width:0">
              <path
                 style="stroke:#ff0000;fill:#ff0000;fill-opacity:1;stroke-opacity:1;stroke-width:0"
                 d="m 2.328125,-4.4375 c 0,-0.1875 0,-0.1875 -0.203125,-0.1875 -0.453125,0.4375 -1.078125,0.4375 -1.359375,0.4375 v 0.25 c 0.15625,0 0.625,0 1,-0.1875 v 3.546875 c 0,0.234375 0,0.328125 -0.6875,0.328125 H 0.8125 V 0 c 0.125,0 0.984375,-0.03125 1.234375,-0.03125 0.21875,0 1.09375,0.03125 1.25,0.03125 V -0.25 H 3.03125 c -0.703125,0 -0.703125,-0.09375 -0.703125,-0.328125 z m 0,0"
                 id="id-656e90b9-025d-437f-a487-6c7cda09aba2" />
            </symbol>
            <symbol
               overflow="visible"
               id="id-c0b0fac5-3348-42ad-bf96-abe9ed93c178"
               style="fill:#ff0000;fill-opacity:1;stroke:#ff0000;stroke-opacity:1;stroke-width:0">
              <path
                 style="stroke:#ff0000;fill:#ff0000;fill-opacity:1;stroke-opacity:1;stroke-width:0"
                 d="M 3.515625,-1.265625 H 3.28125 c -0.015625,0.15625 -0.09375,0.5625 -0.1875,0.625 C 3.046875,-0.59375 2.515625,-0.59375 2.40625,-0.59375 H 1.125 c 0.734375,-0.640625 0.984375,-0.84375 1.390625,-1.171875 0.515625,-0.40625 1,-0.84375 1,-1.5 0,-0.84375 -0.734375,-1.359375 -1.625,-1.359375 -0.859375,0 -1.453125,0.609375 -1.453125,1.25 0,0.34375 0.296875,0.390625 0.375,0.390625 0.15625,0 0.359375,-0.125 0.359375,-0.375 0,-0.125 -0.046875,-0.375 -0.40625,-0.375 C 0.984375,-4.21875 1.453125,-4.375 1.78125,-4.375 c 0.703125,0 1.0625,0.546875 1.0625,1.109375 0,0.609375 -0.4375,1.078125 -0.65625,1.328125 L 0.515625,-0.265625 C 0.4375,-0.203125 0.4375,-0.1875 0.4375,0 h 2.875 z m 0,0"
                 id="id-c5f1c1cd-840d-45a0-b1bd-698b7487b77b" />
            </symbol>
            <symbol
               overflow="visible"
               id="id-dbb89804-f3af-4ba1-a881-73618b012cb4"
               style="fill:#ff0000;fill-opacity:1;stroke:#ff0000;stroke-opacity:1;stroke-width:0">
              <path
                 style="stroke:#ff0000;fill:#ff0000;fill-opacity:1;stroke-opacity:1;stroke-width:0"
                 d=""
                 id="id-004965ec-a18a-4070-9760-bf3bea174ca7" />
            </symbol>
            <symbol
               overflow="visible"
               id="id-025241e2-3484-4462-b997-eafea7783adf"
               style="fill:#ff0000;fill-opacity:1;stroke:#ff0000;stroke-opacity:1;stroke-width:0">
              <path
                 style="stroke:#ff0000;fill:#ff0000;fill-opacity:1;stroke-opacity:1;stroke-width:0"
                 d="m 6.40625,-1.578125 c -0.875,0.640625 -0.984375,1.5625 -0.984375,1.5625 0,0.109375 0.0625,0.109375 0.15625,0.109375 0.125,0 0.15625,0 0.1875,-0.125 0.046875,-0.171875 0.15625,-0.609375 0.515625,-1 0.40625,-0.421875 0.75,-0.53125 1.046875,-0.625 0.03125,-0.015625 0.0625,-0.046875 0.0625,-0.078125 0,-0.078125 -0.03125,-0.09375 -0.125,-0.125 C 6.265625,-2.171875 5.90625,-2.890625 5.75,-3.5 5.734375,-3.578125 5.671875,-3.578125 5.578125,-3.578125 c -0.09375,0 -0.15625,0 -0.15625,0.09375 0,0.015625 0.0625,0.484375 0.40625,0.96875 0.15625,0.234375 0.359375,0.4375 0.578125,0.59375 H 0.8125 c -0.109375,0 -0.28125,0 -0.28125,0.171875 0,0.171875 0.171875,0.171875 0.28125,0.171875 z m 0,0"
                 id="id-53d3dcc1-a95b-4b24-903e-df7aeb207295" />
            </symbol>
          </g>
        </defs>
        <g
           id="id-c8933ea9-f189-4a76-9126-9ff2d46ee5ac"
           transform="translate(-148.837, -127.624)"
           style="fill:#ff0000;fill-opacity:1;stroke:#ff0000;stroke-opacity:1;stroke-width:0">
          <g
             style="fill:#ff0000;fill-opacity:1;stroke:#ff0000;stroke-opacity:1;stroke-width:0"
             id="id-44205c61-50c3-42d6-b7b3-8cce26b90d14">
            <g
               transform="translate(148.712, 134.765)"
               style="fill:#ff0000;fill-opacity:1;stroke:#ff0000;stroke-opacity:1;stroke-width:0"
               id="g1446">
              <path
                 style="stroke:#ff0000;fill:#ff0000;fill-opacity:1;stroke-opacity:1;stroke-width:0"
                 d="m 7.96875,-1.390625 c 0,-0.0625 -0.03125,-0.078125 -0.078125,-0.078125 H 7.78125 c -0.03125,0 -0.0625,0 -0.0625,0.015625 C 7.25,-0.8125 6.34375,-0.3125 5.6875,-0.3125 5.03125,-0.3125 4.453125,-0.453125 3.890625,-0.59375 4.53125,-0.984375 5.09375,-1.484375 5.5,-2.046875 L 6.484375,-3.4375 C 7.78125,-3.625 9.09375,-4.125 9.84375,-5.1875 c 0.296875,-0.421875 0.453125,-0.859375 0.453125,-1.1875 0,-0.46875 -0.28125,-0.765625 -0.890625,-0.765625 -0.96875,0 -2.421875,1.765625 -3.734375,3.546875 C 5.515625,-3.578125 5.375,-3.5625 5.21875,-3.5625 c -1.015625,0 -1.734375,-0.375 -1.734375,-1.03125 0,-0.265625 0.109375,-0.578125 0.359375,-0.9375 0.484375,-0.6875 1.4375,-1.234375 2.09375,-1.234375 0.03125,0 0.046875,0 0.0625,-0.015625 l 0.046875,-0.0625 c 0,-0.015625 0.015625,-0.03125 0.015625,-0.046875 0,-0.03125 -0.015625,-0.0625 -0.046875,-0.0625 0,-0.015625 0,-0.015625 -0.015625,-0.03125 -0.09375,-0.03125 -0.203125,-0.03125 -0.3125,-0.03125 -0.765625,0 -1.8125,0.609375 -2.375,1.390625 -0.265625,0.390625 -0.390625,0.734375 -0.390625,1.03125 0,0.84375 1.03125,1.25 2.265625,1.25 0.109375,0 0.21875,0 0.3125,-0.015625 C 5.203125,-2.9375 4.921875,-2.53125 4.640625,-2.140625 4.28125,-1.625 3.78125,-1.125 3.265625,-0.75 2.796875,-0.859375 2.296875,-0.953125 1.71875,-0.953125 h -0.0625 c -0.484375,0 -1.09375,0.015625 -1.421875,0.484375 C 0.15625,-0.375 0.125,-0.28125 0.125,-0.203125 c 0,0.359375 0.796875,0.375 1.3125,0.375 h 0.15625 c 0.5625,0 1.203125,-0.1875 1.828125,-0.5 l 0.125,0.046875 c 0.5625,0.234375 1.140625,0.453125 1.921875,0.453125 0.8125,0 1.921875,-0.703125 2.484375,-1.515625 C 7.96875,-1.359375 7.96875,-1.375 7.96875,-1.390625 Z M 1.640625,-0.0625 c -0.578125,0 -0.9375,-0.015625 -0.9375,-0.171875 0,-0.046875 0,-0.078125 0.046875,-0.140625 0.1875,-0.265625 0.578125,-0.359375 0.921875,-0.359375 0.484375,0 0.875,0.09375 1.265625,0.21875 C 2.484375,-0.234375 2.03125,-0.0625 1.640625,-0.0625 Z M 9.375,-6.921875 c 0.375,0 0.546875,0.203125 0.546875,0.515625 0,0.28125 -0.15625,0.6875 -0.46875,1.125 C 8.84375,-4.421875 7.78125,-3.921875 6.6875,-3.71875 7.921875,-5.421875 9.078125,-6.921875 9.375,-6.921875 Z m 0,0"
                 id="id-ab7aa4a5-f4a8-4d58-9358-d638a2d2d1cd" />
            </g>
          </g>
          <g
             style="fill:#ff0000;fill-opacity:1;stroke:#ff0000;stroke-opacity:1;stroke-width:0"
             id="id-9b7fcaa2-1dd6-45ed-ace8-343b0c1d4249">
            <g
               transform="translate(157.417, 136.259)"
               style="fill:#ff0000;fill-opacity:1;stroke:#ff0000;stroke-opacity:1;stroke-width:0"
               id="g1450">
              <path
                 style="stroke:#ff0000;fill:#ff0000;fill-opacity:1;stroke-opacity:1;stroke-width:0"
                 d="m 2.328125,-4.4375 c 0,-0.1875 0,-0.1875 -0.203125,-0.1875 -0.453125,0.4375 -1.078125,0.4375 -1.359375,0.4375 v 0.25 c 0.15625,0 0.625,0 1,-0.1875 v 3.546875 c 0,0.234375 0,0.328125 -0.6875,0.328125 H 0.8125 V 0 c 0.125,0 0.984375,-0.03125 1.234375,-0.03125 0.21875,0 1.09375,0.03125 1.25,0.03125 V -0.25 H 3.03125 c -0.703125,0 -0.703125,-0.09375 -0.703125,-0.328125 z m 0,0"
                 id="id-af285c34-9ce6-41cb-8bce-c226bd69044b" />
            </g>
          </g>
          <g
             style="fill:#ff0000;fill-opacity:1;stroke:#ff0000;stroke-opacity:1;stroke-width:0"
             id="id-e8c91b8e-b96e-49f0-8d49-06c883a2e853">
            <g
               transform="translate(161.388, 136.259)"
               style="fill:#ff0000;fill-opacity:1;stroke:#ff0000;stroke-opacity:1;stroke-width:0"
               id="g1454">
              <path
                 style="stroke:#ff0000;fill:#ff0000;fill-opacity:1;stroke-opacity:1;stroke-width:0"
                 d="m 6.40625,-1.578125 c -0.875,0.640625 -0.984375,1.5625 -0.984375,1.5625 0,0.109375 0.0625,0.109375 0.15625,0.109375 0.125,0 0.15625,0 0.1875,-0.125 0.046875,-0.171875 0.15625,-0.609375 0.515625,-1 0.40625,-0.421875 0.75,-0.53125 1.046875,-0.625 0.03125,-0.015625 0.0625,-0.046875 0.0625,-0.078125 0,-0.078125 -0.03125,-0.09375 -0.125,-0.125 C 6.265625,-2.171875 5.90625,-2.890625 5.75,-3.5 5.734375,-3.578125 5.671875,-3.578125 5.578125,-3.578125 c -0.09375,0 -0.15625,0 -0.15625,0.09375 0,0.015625 0.0625,0.484375 0.40625,0.96875 0.15625,0.234375 0.359375,0.4375 0.578125,0.59375 H 0.8125 c -0.109375,0 -0.28125,0 -0.28125,0.171875 0,0.171875 0.171875,0.171875 0.28125,0.171875 z m 0,0"
                 id="id-d61150e4-b3fd-4df9-ba40-670be1268fd8" />
            </g>
          </g>
          <g
             style="fill:#ff0000;fill-opacity:1;stroke:#ff0000;stroke-opacity:1;stroke-width:0"
             id="id-8bc5d979-fcf8-4763-b45e-a198e397c123">
            <g
               transform="translate(169.331, 136.259)"
               style="fill:#ff0000;fill-opacity:1;stroke:#ff0000;stroke-opacity:1;stroke-width:0"
               id="g1458">
              <path
                 style="stroke:#ff0000;fill:#ff0000;fill-opacity:1;stroke-opacity:1;stroke-width:0"
                 d="M 3.515625,-1.265625 H 3.28125 c -0.015625,0.15625 -0.09375,0.5625 -0.1875,0.625 C 3.046875,-0.59375 2.515625,-0.59375 2.40625,-0.59375 H 1.125 c 0.734375,-0.640625 0.984375,-0.84375 1.390625,-1.171875 0.515625,-0.40625 1,-0.84375 1,-1.5 0,-0.84375 -0.734375,-1.359375 -1.625,-1.359375 -0.859375,0 -1.453125,0.609375 -1.453125,1.25 0,0.34375 0.296875,0.390625 0.375,0.390625 0.15625,0 0.359375,-0.125 0.359375,-0.375 0,-0.125 -0.046875,-0.375 -0.40625,-0.375 C 0.984375,-4.21875 1.453125,-4.375 1.78125,-4.375 c 0.703125,0 1.0625,0.546875 1.0625,1.109375 0,0.609375 -0.4375,1.078125 -0.65625,1.328125 L 0.515625,-0.265625 C 0.4375,-0.203125 0.4375,-0.1875 0.4375,0 h 2.875 z m 0,0"
                 id="id-4c8eff38-f185-4325-b42f-5714e8f62ffc" />
            </g>
          </g>
        </g>
      </g>
    </g>
    <path
       sodipodi:type="arc"
       style="fill:#000000;fill-opacity:1;stroke:#000000;stroke-width:1;stroke-miterlimit:4;stroke-opacity:1;stroke-dasharray:none;stroke-dashoffset:0"
       id="path3061-5"
       sodipodi:cx="164.1358"
       sodipodi:cy="438.59769"
       sodipodi:rx="6.2827106"
       sodipodi:ry="6.2827106"
       d="m 170.41851,438.59769 c 0,3.46984 -2.81286,6.28271 -6.28271,6.28271 -3.46984,0 -6.28271,-2.81287 -6.28271,-6.28271 0,-3.46985 2.81287,-6.28271 6.28271,-6.28271 3.46985,0 6.28271,2.81286 6.28271,6.28271 z"
       transform="matrix(0.59610707,0,0,0.59610707,405.97284,403.80718)" />
    <g
       id="g4533"
       transform="translate(-0.81704314,-0.40852157)">
      <path
         id="path4531"
         d="m 441.20329,797.0362 c 8.59933,-16.13247 16.82846,-32.23874 24.66863,-48.12265"
         style="fill:none;stroke:#000000;stroke-width:1;stroke-linecap:butt;stroke-linejoin:miter;stroke-miterlimit:4;stroke-opacity:1;stroke-dasharray:none;stroke-dashoffset:0"
         inkscape:connector-curvature="0" />
      <path
         id="path4529"
         d="m 465.87192,748.91355 c 14.23587,-28.84139 27.18935,-56.94968 38.74822,-83.15065"
         style="fill:none;stroke:#000000;stroke-width:1;stroke-linecap:butt;stroke-linejoin:miter;stroke-miterlimit:4;stroke-opacity:1;stroke-dasharray:1, 4;stroke-dashoffset:0"
         inkscape:connector-curvature="0" />
      <path
         id="path4525"
         d="m 504.62014,665.7629 c 25.92579,-58.76709 44.83558,-107.93887 55.46293,-134.26572"
         style="fill:none;stroke:#000000;stroke-width:1;stroke-linecap:butt;stroke-linejoin:miter;stroke-miterlimit:4;stroke-opacity:1;stroke-dasharray:none;stroke-dashoffset:0"
         inkscape:connector-curvature="0" />
    </g>
  </g>
</svg>
