<?xml version="1.0" encoding="UTF-8" standalone="no"?>
<!-- Created with Inkscape (http://www.inkscape.org/) -->

<svg
   xmlns:ns0="http://www.iki.fi/pav/software/textext/"
   xmlns:dc="http://purl.org/dc/elements/1.1/"
   xmlns:cc="http://creativecommons.org/ns#"
   xmlns:rdf="http://www.w3.org/1999/02/22-rdf-syntax-ns#"
   xmlns:svg="http://www.w3.org/2000/svg"
   xmlns="http://www.w3.org/2000/svg"
   xmlns:sodipodi="http://sodipodi.sourceforge.net/DTD/sodipodi-0.dtd"
   xmlns:inkscape="http://www.inkscape.org/namespaces/inkscape"
   width="1052.3622"
   height="744.09448"
   id="svg3056"
   version="1.1"
   inkscape:version="0.48.4 r9939"
   sodipodi:docname="def_spacelike_1way.svg">
  <sodipodi:namedview
     id="base"
     pagecolor="#ffffff"
     bordercolor="#666666"
     borderopacity="1.0"
     inkscape:pageopacity="0.0"
     inkscape:pageshadow="2"
     inkscape:zoom="1.9381351"
     inkscape:cx="509.04593"
     inkscape:cy="400.90085"
     inkscape:document-units="px"
     inkscape:current-layer="layer1"
     showgrid="false"
     inkscape:window-width="1535"
     inkscape:window-height="876"
     inkscape:window-x="65"
     inkscape:window-y="24"
     inkscape:window-maximized="1" />
  <defs
     id="defs3058">
    <marker
       style="overflow:visible;"
       id="Arrow1Lend"
       refX="0.0"
       refY="0.0"
       orient="auto"
       inkscape:stockid="Arrow1Lend">
      <path
         transform="scale(0.8) rotate(180) translate(12.5,0)"
         style="fill-rule:evenodd;stroke:#000000;stroke-width:1.0pt;"
         d="M 0.0,0.0 L 5.0,-5.0 L -12.5,0.0 L 5.0,5.0 L 0.0,0.0 z "
         id="path3797" />
    </marker>
    <marker
       inkscape:stockid="Arrow2Mend"
       orient="auto"
       refY="0.0"
       refX="0.0"
       id="Arrow2Mend"
       style="overflow:visible;">
      <path
         id="path3897"
         style="fill-rule:evenodd;stroke-width:0.62500000;stroke-linejoin:round;"
         d="M 8.7185878,4.0337352 L -2.2072895,0.016013256 L 8.7185884,-4.0017078 C 6.9730900,-1.6296469 6.9831476,1.6157441 8.7185878,4.0337352 z "
         transform="scale(0.6) rotate(180) translate(0,0)" />
    </marker>
    <marker
       style="overflow:visible;"
       id="Arrow1LendJ"
       refX="0.0"
       refY="0.0"
       orient="auto"
       inkscape:stockid="Arrow1LendJ">
      <path
         transform="scale(0.8) rotate(180) translate(12.5,0)"
         style="stroke:#ff0000;stroke-width:1.0pt;fill:#ff0000;fill-rule:evenodd"
         d="M 0.0,0.0 L 5.0,-5.0 L -12.5,0.0 L 5.0,5.0 L 0.0,0.0 z "
         id="path4244" />
    </marker>
  </defs>
  <metadata
     id="metadata3061">
    <rdf:RDF>
      <cc:Work
         rdf:about="">
        <dc:format>image/svg+xml</dc:format>
        <dc:type
           rdf:resource="http://purl.org/dc/dcmitype/StillImage" />
        <dc:title />
      </cc:Work>
    </rdf:RDF>
  </metadata>
  <g
     inkscape:label="Calque 1"
     inkscape:groupmode="layer"
     id="layer1"
     transform="translate(0,-308.2677)">
    <path
       style="fill:#d7f4ee;stroke:#000000;stroke-width:0.9653368;stroke-linecap:butt;stroke-linejoin:miter;stroke-miterlimit:4;stroke-opacity:1;stroke-dasharray:none"
       d="m 349.35068,606.48151 c -54.4975,43.86931 -69.41247,81.34602 -93.15839,139.47628 108.32573,0.29651 256.16505,-37.93404 436.91275,48.6607 15.68444,-75.30545 23.03834,-124.78652 68.79454,-162.33545 -107.33545,-54.49451 -412.5489,-25.80153 -412.5489,-25.80153 z"
       id="path2993"
       inkscape:connector-curvature="0"
       sodipodi:nodetypes="ccccc" />
    <path
       sodipodi:nodetypes="cccc"
       inkscape:connector-curvature="0"
       id="path4173-7-2"
       d="m 503.87367,665.45086 58.94385,-60.3863 -118.00349,-0.14748 z"
       style="fill:#e6e6e6;fill-opacity:1;stroke:#008000;stroke-width:1.5;stroke-linecap:butt;stroke-linejoin:miter;stroke-miterlimit:4;stroke-opacity:1;stroke-dasharray:none" />
    <path
       transform="matrix(0.37895888,0,0,0.37895888,309.84672,529.25067)"
       d="m 672,184.09448 a 160,64 0 1 1 -320,0 160,64 0 1 1 320,0 z"
       sodipodi:ry="64"
       sodipodi:rx="160"
       sodipodi:cy="184.09448"
       sodipodi:cx="512"
       id="path3367-8-2"
       style="fill:#f9f9f9;fill-opacity:1;stroke:#008000;stroke-width:3.95821309;stroke-miterlimit:4;stroke-opacity:1;stroke-dasharray:none;stroke-dashoffset:0"
       sodipodi:type="arc" />
    <path
       sodipodi:nodetypes="ccc"
       inkscape:connector-curvature="0"
       id="path4173-2-1-2"
       d="m 445.81524,722.38146 58.05843,-57.20635 59.24469,59.24044"
       style="fill:none;stroke:#008000;stroke-width:1.5;stroke-linecap:butt;stroke-linejoin:miter;stroke-miterlimit:4;stroke-opacity:1;stroke-dasharray:9, 9;stroke-dashoffset:0" />
    <path
       d="m 672,184.09448 a 160,64 0 1 1 -320,0 160,64 0 1 1 320,0 z"
       sodipodi:ry="64"
       sodipodi:rx="160"
       sodipodi:cy="184.09448"
       sodipodi:cx="512"
       id="path3367-4-0-5"
       style="fill:none;stroke:none"
       sodipodi:type="arc"
       transform="matrix(0.37895888,0,0,-0.37895888,309.84672,801.37529)" />
    <path
       sodipodi:end="9.7509227"
       sodipodi:start="5.7912227"
       d="m 653.0252,153.86366 a 160,64 0 1 1 -292.59073,9.72565"
       sodipodi:ry="64"
       sodipodi:rx="160"
       sodipodi:cy="184.09448"
       sodipodi:cx="512"
       id="path3367-7-8-0-0"
       style="fill:none;stroke:#008000;stroke-width:3.95821309;stroke-miterlimit:4;stroke-opacity:1;stroke-dasharray:23.74927855, 23.74927855;stroke-dashoffset:0"
       sodipodi:type="arc"
       transform="matrix(0.37380737,0,0,-0.36223607,312.84004,796.33001)"
       sodipodi:open="true" />
    <path
       sodipodi:open="true"
       sodipodi:end="12.336388"
       sodipodi:start="6.0600102"
       transform="matrix(0.11214915,0,0,0.11214915,455.8761,628.83731)"
       d="m 439.782,321.78783 a 12.370221,12.370221 0 1 1 -0.0189,-0.0821"
       sodipodi:ry="12.370221"
       sodipodi:rx="12.370221"
       sodipodi:cy="324.5257"
       sodipodi:cx="427.71857"
       id="path4966-9-1"
       style="fill:#008000;fill-opacity:1;stroke:none"
       sodipodi:type="arc" />
    <path
       sodipodi:open="true"
       sodipodi:end="2.8549663"
       sodipodi:start="0.65085011"
       d="M 639.29105,222.86971 A 160,64 0 0 1 358.5275,202.18842"
       sodipodi:ry="64"
       sodipodi:rx="160"
       sodipodi:cy="184.09448"
       sodipodi:cx="512"
       id="path3367-7-8-0-0-4"
       style="fill:none;stroke:#008000;stroke-width:3.95821309;stroke-miterlimit:4;stroke-opacity:1;stroke-dasharray:none;stroke-dashoffset:0"
       sodipodi:type="arc"
       transform="matrix(0.35779741,0,0,0.36283919,320.90918,664.52812)" />
    <path
       sodipodi:nodetypes="cscc"
       inkscape:connector-curvature="0"
       id="path3844"
       d="m 450.67628,739.01608 c 0,0 12.09981,9.56936 35.28899,13.20511 16.90701,2.65079 34.75916,1.67569 56.93,-5.26021 -24.96054,-3.92458 -92.21899,-7.9449 -92.21899,-7.9449 z"
       style="fill:#f2f2f2;stroke:none" />
    <path
       style="fill:none;stroke:#ff0000;stroke-width:2;stroke-linecap:butt;stroke-linejoin:miter;stroke-miterlimit:4;stroke-opacity:1;stroke-dasharray:none"
       d="m 469.52351,821.21214 c 2.12482,-22.97952 5.70204,-46.03107 10.34718,-68.72256"
       id="path3783"
       inkscape:connector-curvature="0" />
    <path
       style="fill:none;stroke:#ff0000;stroke-width:2;stroke-linecap:butt;stroke-linejoin:miter;stroke-miterlimit:4;stroke-opacity:1;stroke-dasharray:2, 6;stroke-dashoffset:0"
       d="m 479.87069,752.48959 c 9.40365,-45.93671 23.18389,-90.39787 38.151,-129.79882"
       id="path3781"
       inkscape:connector-curvature="0" />
    <path
       style="fill:none;stroke:#ff0000;stroke-width:2;stroke-linecap:butt;stroke-linejoin:miter;stroke-miterlimit:4;stroke-opacity:1;stroke-dasharray:none;marker-end:url(#Arrow1LendJ)"
       d="m 518.02169,622.69077 c 26.11243,-68.74103 50.16192,-107.1169 72.23644,-140.98024"
       id="path3003"
       inkscape:connector-curvature="0"
       sodipodi:nodetypes="cc" />
    <g
       id="g5336"
       transform="translate(42.534421,-129.18675)">
      <text
         xml:space="preserve"
         style="font-size:36px;font-style:normal;font-variant:normal;font-weight:normal;font-stretch:normal;line-height:125%;letter-spacing:0px;word-spacing:0px;fill:#000000;fill-opacity:1;stroke:none;font-family:Nimbus Roman No9 L;-inkscape-font-specification:Nimbus Roman No9 L"
         x="340.65222"
         y="667.27704"
         id="text5286"
         sodipodi:linespacing="125%"><tspan
           sodipodi:role="line"
           id="tspan5288"
           x="340.65222"
           y="667.27704">1</tspan></text>
      <path
         sodipodi:type="arc"
         style="fill:none;stroke:#000000;stroke-width:2;stroke-miterlimit:4;stroke-opacity:1;stroke-dasharray:none;stroke-dashoffset:0"
         id="path5290"
         sodipodi:cx="341.16293"
         sodipodi:cy="389.65274"
         sodipodi:rx="32.175549"
         sodipodi:ry="32.175549"
         d="m 373.33848,389.65274 c 0,17.77007 -14.40548,32.17555 -32.17555,32.17555 -17.77006,0 -32.17555,-14.40548 -32.17555,-32.17555 0,-17.77006 14.40549,-32.17555 32.17555,-32.17555 17.77007,0 32.17555,14.40549 32.17555,32.17555 z"
         transform="matrix(0.85375168,0,0,0.85375168,57.810713,323.11911)" />
    </g>
    <g
       id="g4612"
       transform="translate(-14.446877,275.52259)">
      <text
         xml:space="preserve"
         style="font-size:36px;font-style:normal;font-variant:normal;font-weight:normal;font-stretch:normal;line-height:125%;letter-spacing:0px;word-spacing:0px;fill:#000000;fill-opacity:1;stroke:none;font-family:Nimbus Roman No9 L;-inkscape-font-specification:Nimbus Roman No9 L"
         x="391.95798"
         y="528.80298"
         id="text5286-9"
         sodipodi:linespacing="125%"><tspan
           sodipodi:role="line"
           id="tspan5288-3"
           x="391.95798"
           y="528.80298">2</tspan></text>
      <path
         sodipodi:type="arc"
         style="fill:none;stroke:#000000;stroke-width:2;stroke-miterlimit:4;stroke-opacity:1;stroke-dasharray:none;stroke-dashoffset:0"
         id="path5290-4"
         sodipodi:cx="341.16293"
         sodipodi:cy="389.65274"
         sodipodi:rx="32.175549"
         sodipodi:ry="32.175549"
         d="m 373.33848,389.65274 c 0,17.77007 -14.40548,32.17555 -32.17555,32.17555 -17.77006,0 -32.17555,-14.40548 -32.17555,-32.17555 0,-17.77006 14.40549,-32.17555 32.17555,-32.17555 17.77007,0 32.17555,14.40549 32.17555,32.17555 z"
         transform="matrix(0.85375168,0,0,0.85375168,109.63242,185.677)" />
    </g>
    <g
       id="g5593"
       transform="matrix(4,0,0,-4,-301.47376,3348.1205)"
       xml:space="preserve"
       stroke-miterlimit="10.433"
       font-style="normal"
       font-variant="normal"
       font-weight="normal"
       font-stretch="normal"
       font-size-adjust="none"
       letter-spacing="normal"
       word-spacing="normal"
       ns0:text="$\\mathscr{L}_{2\\rightarrow 1}$"
       ns0:preamble="/home/eric/BHLectures/Notes/latex_inkscape.ini"
       style="font-style:normal;font-variant:normal;font-weight:normal;font-stretch:normal;letter-spacing:normal;word-spacing:normal;text-anchor:start;fill:#ff0000;fill-opacity:1;fill-rule:evenodd;stroke:#ff0000;stroke-linecap:butt;stroke-linejoin:miter;stroke-miterlimit:10.43299961;stroke-opacity:1;stroke-dasharray:none;stroke-dashoffset:0"><path
         inkscape:connector-curvature="0"
         style="fill:#ff0000;stroke:#ff0000;stroke-width:0"
         d="m 231.39,708.52 0,0 0,0 0,0.01 0,0 0,0.01 0,0 0,0.01 -0.01,0 0,0 0,0.01 0,0 0,0 -0.01,0.01 0,0 0,0 0,0 -0.01,0.01 0,0 0,0 -0.01,0 0,0 0,0.01 -0.01,0 0,0 0,0 -0.01,0 0,0 0,0 -0.01,0 0,0 0,0 -0.01,0 h -0.12 c -0.02,0 -0.05,0 -0.06,-0.02 -0.45,-0.64 -1.37,-1.13 -2.02,-1.13 -0.66,0 -1.23,0.13 -1.8,0.27 0.64,0.39 1.21,0.89 1.6,1.45 l 1,1.39 c 1.28,0.19 2.61,0.69 3.34,1.74 0.3,0.43 0.46,0.86 0.46,1.19 0,0.46 -0.28,0.77 -0.89,0.77 l -0.04,-0.23 c 0.38,0 0.56,-0.2 0.56,-0.51 0,-0.29 -0.16,-0.68 -0.47,-1.12 -0.61,-0.86 -1.68,-1.35 -2.76,-1.56 1.22,1.7 2.38,3.19 2.67,3.19 h 0 l 0.04,0.23 c -0.97,0 -2.42,-1.77 -3.73,-3.55 -0.15,-0.01 -0.3,-0.02 -0.44,-0.02 -1.03,0 -1.75,0.37 -1.75,1.03 0,0.26 0.11,0.57 0.37,0.93 0.48,0.68 1.43,1.22 2.09,1.22 0.02,0 0.05,0.01 0.06,0.03 l 0.04,0.06 c 0.01,0.01 0.02,0.03 0.02,0.05 0,0.03 -0.02,0.05 -0.04,0.06 0,0.01 -0.01,0.01 -0.02,0.02 -0.1,0.03 -0.2,0.04 -0.31,0.04 -0.76,0 -1.82,-0.61 -2.37,-1.38 -0.27,-0.4 -0.39,-0.75 -0.39,-1.03 0,-0.85 1.02,-1.25 2.26,-1.25 0.1,0 0.21,0 0.31,0.01 -0.29,-0.42 -0.58,-0.82 -0.85,-1.21 -0.37,-0.52 -0.86,-1.01 -1.37,-1.39 -0.48,0.11 -0.98,0.2 -1.56,0.2 h -0.06 l 0.02,-0.22 c 0.48,0 0.88,-0.09 1.26,-0.22 -0.45,-0.28 -0.91,-0.45 -1.3,-0.45 h 0 c -0.57,0 -0.93,0.02 -0.93,0.18 0,0.04 0.01,0.08 0.05,0.13 0.19,0.27 0.58,0.36 0.92,0.36 l -0.02,0.22 c -0.48,0 -1.09,-0.01 -1.42,-0.48 -0.07,-0.1 -0.11,-0.19 -0.11,-0.26 0,-0.35 0.8,-0.37 1.32,-0.37 h 0.15 c 0.56,0 1.21,0.19 1.83,0.49 l 0.12,-0.05 c 0.57,-0.23 1.14,-0.44 1.91,-0.44 0.82,0 1.92,0.7 2.49,1.51 0.01,0.02 0.02,0.03 0.02,0.05 z"
         id="path5595" /><path
         inkscape:connector-curvature="0"
         style="fill:#ff0000;stroke:#ff0000;stroke-width:0"
         d="m 235.65,706.9 h -0.23 c -0.02,-0.16 -0.09,-0.57 -0.18,-0.64 -0.06,-0.04 -0.6,-0.04 -0.69,-0.04 h -1.29 c 0.74,0.65 0.98,0.84 1.4,1.17 0.51,0.41 0.99,0.84 0.99,1.5 0,0.84 -0.73,1.36 -1.63,1.36 -0.86,0 -1.44,-0.61 -1.44,-1.25 0,-0.35 0.3,-0.39 0.37,-0.39 0.16,0 0.36,0.12 0.36,0.37 0,0.13 -0.05,0.37 -0.41,0.37 0.22,0.49 0.69,0.65 1.02,0.65 0.7,0 1.06,-0.54 1.06,-1.11 0,-0.6 -0.43,-1.08 -0.66,-1.33 l -1.67,-1.66 c -0.07,-0.06 -0.07,-0.07 -0.07,-0.27 h 2.87 z"
         id="path5597" /><path
         inkscape:connector-curvature="0"
         style="fill:#ff0000;stroke:#ff0000;stroke-width:0"
         d="m 242.51,707.2 -0.08,-0.06 -0.07,-0.06 -0.07,-0.06 -0.07,-0.07 -0.06,-0.06 -0.06,-0.07 -0.06,-0.06 -0.05,-0.07 -0.05,-0.07 -0.04,-0.06 -0.05,-0.07 -0.04,-0.06 -0.03,-0.06 -0.03,-0.06 -0.03,-0.06 -0.03,-0.06 -0.03,-0.06 -0.02,-0.06 -0.02,-0.05 -0.02,-0.05 -0.01,-0.05 -0.02,-0.04 -0.01,-0.04 -0.01,-0.04 -0.01,-0.03 0,-0.03 -0.01,-0.03 0,-0.02 -0.01,-0.02 0,-0.01 0,-0.01 0,0 c 0,-0.11 0.07,-0.11 0.17,-0.11 0.12,0 0.14,0 0.18,0.12 0.04,0.17 0.15,0.62 0.51,1 0.41,0.42 0.75,0.53 1.05,0.62 0.04,0.01 0.07,0.06 0.07,0.09 0,0.07 -0.04,0.08 -0.13,0.11 -1.01,0.32 -1.36,1.03 -1.51,1.64 -0.03,0.09 -0.08,0.09 -0.17,0.09 -0.1,0 -0.17,0 -0.17,-0.11 0,-0.01 0.07,-0.48 0.41,-0.96 0.16,-0.23 0.36,-0.43 0.58,-0.6 h -5.59 c -0.11,0 -0.28,0 -0.28,-0.16 0,-0.18 0.16,-0.18 0.28,-0.18 z"
         id="path5599" /><path
         inkscape:connector-curvature="0"
         style="fill:#ff0000;stroke:#ff0000;stroke-width:0"
         d="m 246.38,710.05 0,0.01 0,0.01 0,0.01 0,0.01 0,0 0,0.01 0,0.01 0,0.01 0,0 0,0.01 0,0.01 0,0 0,0.01 0,0 0,0.01 0,0 0,0.01 0,0 -0.01,0.01 0,0.01 0,0.01 -0.01,0 0,0.01 0,0.01 -0.01,0 0,0.01 -0.01,0 -0.01,0 0,0.01 -0.01,0 -0.01,0 -0.01,0 -0.01,0 0,0 -0.01,0 0,0.01 -0.01,0 0,0 -0.01,0 -0.01,0 0,0 -0.01,0 -0.01,0 -0.01,0 0,0 -0.01,0 -0.01,0 -0.01,0 -0.01,0 -0.01,0 c -0.44,-0.44 -1.07,-0.45 -1.36,-0.45 v -0.25 c 0.17,0 0.63,0 1.01,0.2 v -3.55 c 0,-0.23 0,-0.32 -0.7,-0.32 h -0.26 v -0.25 c 0.12,0.01 0.98,0.03 1.24,0.03 0.21,0 1.09,-0.02 1.24,-0.03 v 0.25 h -0.26 c -0.7,0 -0.7,0.09 -0.7,0.32 z"
         id="path5601" /></g>    <text
       xml:space="preserve"
       style="font-size:12.12668419px;font-style:normal;font-weight:normal;line-height:125%;letter-spacing:0px;word-spacing:0px;fill:#000000;fill-opacity:1;stroke:none;font-family:Sans"
       x="716.37946"
       y="732.56415"
       id="text3036-5-1"
       sodipodi:linespacing="125%"><tspan
         sodipodi:role="line"
         id="tspan3038-6-4"
         x="716.37946"
         y="732.56415" /></text>
    <path
       sodipodi:type="arc"
       style="fill:#000000;fill-opacity:1;stroke:#000000;stroke-width:1;stroke-miterlimit:4;stroke-opacity:1;stroke-dasharray:none;stroke-dashoffset:0"
       id="path3061-5"
       sodipodi:cx="164.1358"
       sodipodi:cy="438.59769"
       sodipodi:rx="6.2827106"
       sodipodi:ry="6.2827106"
       d="m 170.41851,438.59769 c 0,3.46984 -2.81286,6.28271 -6.28271,6.28271 -3.46984,0 -6.28271,-2.81287 -6.28271,-6.28271 0,-3.46985 2.81287,-6.28271 6.28271,-6.28271 3.46985,0 6.28271,2.81286 6.28271,6.28271 z"
       transform="matrix(0.59610707,0,0,0.59610707,405.97284,403.80718)" />
    <path
       style="fill:none;stroke:#000000;stroke-width:3;stroke-linecap:butt;stroke-linejoin:miter;stroke-miterlimit:4;stroke-opacity:1;stroke-dasharray:none;marker-end:url(#Arrow2Mend)"
       d="m 503.67421,624.0212 0,-105.84007"
       id="path4312"
       inkscape:connector-curvature="0" />
    <path
       style="fill:none;stroke:#000000;stroke-width:3;stroke-linecap:butt;stroke-linejoin:miter;stroke-miterlimit:4;stroke-opacity:1;stroke-dasharray:9, 9;stroke-dashoffset:0"
       d="m 503.67421,627.75673 0.62259,36.11014"
       id="path4496"
       inkscape:connector-curvature="0"
       sodipodi:nodetypes="cc" />
    <g
       style="font-style:normal;font-variant:normal;font-weight:normal;font-stretch:normal;letter-spacing:normal;word-spacing:normal;text-anchor:start;fill:none;stroke:#000000;stroke-linecap:butt;stroke-linejoin:miter;stroke-miterlimit:10.43299961;stroke-opacity:1;stroke-dasharray:none;stroke-dashoffset:0"
       id="content"
       transform="matrix(4,0,0,-4,-374.96757,3362.5535)"
       xml:space="preserve"
       stroke-miterlimit="10.433"
       font-style="normal"
       font-variant="normal"
       font-weight="normal"
       font-stretch="normal"
       font-size-adjust="none"
       letter-spacing="normal"
       word-spacing="normal"
       ns0:text="$\\bm{n}$"
       ns0:preamble="/home/eric/BHLectures/Notes/latex_inkscape.ini"><path
         style="fill:#000000;stroke-width:0"
         inkscape:connector-curvature="0"
         d="m 226.22,710.86 -0.02,0.05 -0.01,0.04 -0.02,0.04 -0.02,0.05 -0.03,0.04 -0.02,0.03 -0.03,0.04 -0.03,0.04 -0.03,0.03 -0.03,0.04 -0.03,0.03 -0.04,0.03 -0.04,0.03 -0.03,0.02 -0.04,0.03 -0.05,0.02 -0.04,0.03 -0.04,0.02 -0.04,0.02 -0.05,0.02 -0.05,0.01 -0.04,0.02 -0.05,0.01 -0.05,0.02 -0.05,0.01 -0.05,0.01 -0.05,0.01 -0.04,0 -0.06,0.01 -0.05,0 -0.05,0 -0.05,0 c -0.36,0 -0.64,-0.2 -0.86,-0.56 -0.25,-0.4 -0.38,-0.94 -0.38,-0.98 0,-0.14 0.15,-0.14 0.24,-0.14 0.11,0 0.15,0 0.2,0.05 0.02,0.02 0.02,0.04 0.08,0.28 0.2,0.78 0.42,1 0.67,1 0.15,0 0.23,-0.1 0.23,-0.37 0,-0.17 -0.04,-0.33 -0.14,-0.73 -0.07,-0.27 -0.16,-0.67 -0.21,-0.89 l -0.36,-1.39 c -0.03,-0.14 -0.08,-0.33 -0.08,-0.4 0,-0.21 0.16,-0.43 0.47,-0.43 0.51,0 0.63,0.45 0.7,0.75 0.1,0.37 0.18,0.69 0.28,1.11 0.04,0.13 0.29,1.16 0.31,1.18 0.01,0.07 0.29,0.51 0.62,0.78 0.27,0.22 0.6,0.39 1.02,0.39 0.26,0 0.5,-0.1 0.5,-0.59 0,-0.57 -0.44,-1.73 -0.63,-2.22 -0.11,-0.27 -0.14,-0.34 -0.14,-0.51 0,-0.58 0.58,-0.89 1.12,-0.89 1.06,0 1.56,1.35 1.56,1.54 0,0.14 -0.15,0.14 -0.24,0.14 -0.12,0 -0.19,0 -0.23,-0.13 -0.33,-1.1 -0.87,-1.2 -1.02,-1.2 -0.07,0 -0.17,0 -0.17,0.21 0,0.23 0.1,0.48 0.2,0.73 0.15,0.4 0.61,1.57 0.61,2.12 0,0.92 -0.76,1.15 -1.48,1.15 -0.21,0 -0.94,0 -1.64,-0.75 z"
         id="path4521" /></g>    <g
       style="font-style:normal;font-variant:normal;font-weight:normal;font-stretch:normal;letter-spacing:normal;word-spacing:normal;text-anchor:start;fill:#008080;stroke:#000000;stroke-linecap:butt;stroke-linejoin:miter;stroke-miterlimit:10.43299961;stroke-opacity:1;stroke-dasharray:none;stroke-dashoffset:0"
       id="g4636"
       transform="matrix(4,0,0,-4,-234.29126,3581.6842)"
       xml:space="preserve"
       stroke-miterlimit="10.433"
       font-style="normal"
       font-variant="normal"
       font-weight="normal"
       font-stretch="normal"
       font-size-adjust="none"
       letter-spacing="normal"
       word-spacing="normal"
       ns0:text="$\\Sigma$"
       ns0:preamble="/home/eric/BHLectures/Notes/latex_inkscape.ini"><path
         style="fill:#008080;stroke-width:0"
         inkscape:connector-curvature="0"
         d="m 227.13,710.36 0.01,0.01 0,0 0.01,0.01 0,0 0,0.01 0.01,0 0,0 0,0.01 0.01,0 0,0.01 0,0 0.01,0.01 0.01,0.01 0,0 0,0.01 0.01,0.01 0,0 0,0.01 0.01,0 0,0.01 0,0 0,0.01 0.01,0 0,0.01 0,0 0,0 0,0.01 0,0 0,0 0,0.01 0,0 0,0 0,0 0,0.01 0,0 0,0 c 0,0.05 -0.04,0.1 -0.07,0.14 l -2.04,2.94 h 2.3 c 1.68,0 2.18,-0.36 2.39,-1.93 h 0.25 l -0.28,2.24 h -5.52 c -0.24,0 -0.26,0 -0.26,-0.23 l 2.48,-3.59 -2.37,-2.7 c -0.1,-0.11 -0.1,-0.13 -0.1,-0.16 0,-0.11 0.1,-0.11 0.25,-0.11 h 5.52 l 0.28,2.35 h -0.25 c -0.18,-1.66 -0.86,-1.93 -2.42,-1.93 h -2.74 z"
         id="path4638" /></g>  </g>
</svg>
