<?xml version="1.0" encoding="UTF-8" standalone="no"?>
<!-- Created with Inkscape (http://www.inkscape.org/) -->

<svg
   xmlns:dc="http://purl.org/dc/elements/1.1/"
   xmlns:cc="http://creativecommons.org/ns#"
   xmlns:rdf="http://www.w3.org/1999/02/22-rdf-syntax-ns#"
   xmlns:svg="http://www.w3.org/2000/svg"
   xmlns="http://www.w3.org/2000/svg"
   xmlns:sodipodi="http://sodipodi.sourceforge.net/DTD/sodipodi-0.dtd"
   xmlns:inkscape="http://www.inkscape.org/namespaces/inkscape"
   width="297mm"
   height="210mm"
   viewBox="0 0 297 210"
   version="1.1"
   id="svg8"
   inkscape:version="0.92.5 (2060ec1f9f, 2020-04-08)"
   sodipodi:docname="evo_area_theorem.svg">
  <defs
     id="defs2" />
  <sodipodi:namedview
     id="base"
     pagecolor="#ffffff"
     bordercolor="#666666"
     borderopacity="1.0"
     inkscape:pageopacity="0.0"
     inkscape:pageshadow="2"
     inkscape:zoom="1.1292065"
     inkscape:cx="534.83011"
     inkscape:cy="427.56011"
     inkscape:document-units="mm"
     inkscape:current-layer="layer1"
     showgrid="false"
     inkscape:snap-grids="false"
     inkscape:snap-to-guides="false"
     inkscape:snap-text-baseline="false"
     inkscape:snap-others="false"
     inkscape:object-nodes="false"
     inkscape:snap-nodes="false"
     showguides="false"
     inkscape:window-width="1848"
     inkscape:window-height="1016"
     inkscape:window-x="72"
     inkscape:window-y="27"
     inkscape:window-maximized="1" />
  <metadata
     id="metadata5">
    <rdf:RDF>
      <cc:Work
         rdf:about="">
        <dc:format>image/svg+xml</dc:format>
        <dc:type
           rdf:resource="http://purl.org/dc/dcmitype/StillImage" />
        <dc:title></dc:title>
      </cc:Work>
    </rdf:RDF>
  </metadata>
  <g
     inkscape:label="Calque 1"
     inkscape:groupmode="layer"
     id="layer1"
     transform="translate(0,-87)">
    <path
       style="fill:#eeffaa;fill-opacity:1;stroke:#f6ffd5;stroke-width:0.26458332px;stroke-linecap:butt;stroke-linejoin:miter;stroke-opacity:1"
       d="m 133.1157,112.38701 c 11.77805,0.56212 4.92736,0.16471 23.75451,0.0891 -2.55614,66.44238 7.3568,111.07942 12.97398,159.76167 -11.23437,-97.36451 -48.17538,-96.8596 -85.857321,-2.30367 C 101.6307,203.90799 131.73369,159.77012 132.87244,111.77885 Z"
       id="path1193-2"
       inkscape:connector-curvature="0"
       sodipodi:nodetypes="cccccc" />
    <path
       style="fill:#d7f4d7;fill-opacity:1;stroke:none;stroke-width:0.26458332px;stroke-linecap:butt;stroke-linejoin:miter;stroke-opacity:1"
       d="m 156.37255,112.84101 c 19.79097,-2.71458 29.69665,-1.75077 41.63316,-11.58084 -12.40462,68.34239 24.10707,123.57804 29.25616,171.55814 -7.02148,11.00031 -47.9801,13.8089 -58.74638,-0.70215 -5.85123,-75.12982 -14.94959,-92.50665 -12.14294,-159.27515 z"
       id="path1193-9"
       inkscape:connector-curvature="0"
       sodipodi:nodetypes="ccccc" />
    <path
       style="fill:#d7f4d7;fill-opacity:1;stroke:none;stroke-width:0.26458332px;stroke-linecap:butt;stroke-linejoin:miter;stroke-opacity:1"
       d="m 95.492114,101.33479 c 15.915346,11.46842 18.593116,6.05766 37.317056,10.9727 -1.82637,68.51005 -39.127717,123.9842 -48.723738,158.15539 -0.683823,7.5927 -25.935384,7.80639 -28.14765,-0.37855 11.467636,-77.70774 46.110308,-114.91482 39.554332,-168.74954 z"
       id="path1193"
       inkscape:connector-curvature="0"
       sodipodi:nodetypes="ccccc" />
    <path
       style="fill:none;stroke:#000000;stroke-width:0.79374999;stroke-linecap:butt;stroke-linejoin:miter;stroke-miterlimit:4;stroke-dasharray:none;stroke-opacity:1"
       d="M 56.384247,269.68497 C 66.658711,216.30788 73.689884,196.1375 81.909627,179.56007 88.743904,165.77683 96.79136,135.74636 95.442064,99.595445"
       id="path819"
       inkscape:connector-curvature="0"
       sodipodi:nodetypes="csc" />
    <path
       style="fill:none;stroke:#000000;stroke-width:0.79374999;stroke-linecap:butt;stroke-linejoin:miter;stroke-miterlimit:4;stroke-dasharray:none;stroke-opacity:1"
       d="M 226.80459,270.92551 C 214.16037,209.51735 188.01555,168.06416 197.66577,100.03326"
       id="path819-3"
       inkscape:connector-curvature="0"
       sodipodi:nodetypes="cc" />
    <path
       style="fill:none;stroke:#000000;stroke-width:0.79374999;stroke-linecap:butt;stroke-linejoin:miter;stroke-miterlimit:4;stroke-dasharray:none;stroke-opacity:1"
       d="m 84.451073,269.93556 c 12.02864,-34.08114 35.445647,-70.75187 50.218937,-69.97518 27.0126,1.42016 32.72122,49.68419 34.4754,71.98729"
       id="path836"
       inkscape:connector-curvature="0"
       sodipodi:nodetypes="csc" />
    <path
       style="fill:none;stroke:#000000;stroke-width:0.5291667;stroke-linecap:butt;stroke-linejoin:miter;stroke-miterlimit:4;stroke-dasharray:0.52916667, 3.175;stroke-dashoffset:0;stroke-opacity:1"
       d="M 170.40573,272.19093 C 162.02165,200.5083 153.03752,167.79918 156.92401,112.5487"
       id="path819-3-6"
       inkscape:connector-curvature="0"
       sodipodi:nodetypes="cc" />
    <path
       style="fill:none;stroke:#000000;stroke-width:0.5291667;stroke-linecap:butt;stroke-linejoin:miter;stroke-miterlimit:4;stroke-dasharray:0.52916667, 3.175;stroke-dashoffset:0;stroke-opacity:1"
       d="M 83.423513,269.68904 C 113.39966,193.5808 125.44193,187.9054 133.02358,111.63313"
       id="path819-3-6-5"
       inkscape:connector-curvature="0"
       sodipodi:nodetypes="cc" />
    <path
       style="opacity:1;fill:none;fill-opacity:1;stroke:#000000;stroke-width:0.8032738;stroke-miterlimit:4;stroke-dasharray:none;stroke-dashoffset:0"
       id="path883"
       sodipodi:type="arc"
       sodipodi:cx="70.017303"
       sodipodi:cy="270.81598"
       sodipodi:rx="13.877869"
       sodipodi:ry="5.1302099"
       sodipodi:start="0"
       sodipodi:end="3.2486974"
       sodipodi:open="true"
       d="m 83.895172,270.81598 a 13.877869,5.1302099 0 0 1 -7.372347,4.53162 13.877869,5.1302099 0 0 1 -14.284211,-0.28305 13.877869,5.1302099 0 0 1 -6.019656,-4.79699" />
    <path
       style="opacity:1;fill:none;fill-opacity:1;stroke:#000000;stroke-width:0.8068186;stroke-miterlimit:4;stroke-dasharray:3.22727452, 3.22727452;stroke-dashoffset:0"
       id="path883-3"
       sodipodi:type="arc"
       sodipodi:cx="70.127289"
       sodipodi:cy="-270.01984"
       sodipodi:rx="13.997569"
       sodipodi:ry="5.1313295"
       sodipodi:start="0"
       sodipodi:end="3.2486974"
       sodipodi:open="true"
       d="m 84.124858,-270.01984 a 13.997569,5.1313295 0 0 1 -7.435936,4.53261 13.997569,5.1313295 0 0 1 -14.407416,-0.28311 13.997569,5.1313295 0 0 1 -6.071577,-4.79804"
       transform="scale(1,-1)" />
    <path
       style="opacity:1;fill:none;fill-opacity:1;stroke:#000000;stroke-width:0.70115542;stroke-miterlimit:4;stroke-dasharray:none;stroke-dashoffset:0"
       id="path883-5"
       sodipodi:type="arc"
       sodipodi:cx="197.97084"
       sodipodi:cy="271.89249"
       sodipodi:rx="28.684078"
       sodipodi:ry="9.7349033"
       sodipodi:start="0"
       sodipodi:end="3.2486974"
       sodipodi:open="true"
       d="m 226.65492,271.89249 a 28.684078,9.7349033 0 0 1 -15.23786,8.59904 28.684078,9.7349033 0 0 1 -29.52394,-0.53711 28.684078,9.7349033 0 0 1 -12.44199,-9.1026" />
    <path
       style="opacity:1;fill:#f9f9f9;fill-opacity:1;stroke:#000000;stroke-width:0.80192447;stroke-miterlimit:4;stroke-dasharray:none;stroke-dashoffset:0"
       id="path932"
       sodipodi:type="arc"
       sodipodi:cx="146.67374"
       sodipodi:cy="99.279137"
       sodipodi:rx="50.941814"
       sodipodi:ry="13.175655"
       sodipodi:start="3.386874"
       sodipodi:end="3.3866272"
       sodipodi:open="true"
       d="m 97.256659,96.079702 a 50.941814,13.175655 0 0 1 61.784191,-9.582058 50.941814,13.175655 0 0 1 37.05149,15.979346 50.941814,13.175655 0 0 1 -61.77962,9.58403 50.941814,13.175655 0 0 1 -37.059112,-15.978163" />
    <path
       style="fill:none;stroke:#88aa00;stroke-width:0.5291667;stroke-linecap:butt;stroke-linejoin:miter;stroke-miterlimit:4;stroke-dasharray:none;stroke-opacity:1"
       d="m 110.36017,218.46849 c 8.22978,-21.18766 28.00307,-69.86622 28.12357,-105.87937"
       id="path819-3-6-5-2"
       inkscape:connector-curvature="0"
       sodipodi:nodetypes="cc" />
    <path
       style="fill:none;stroke:#008000;stroke-width:0.52916676;stroke-linecap:butt;stroke-linejoin:miter;stroke-miterlimit:4;stroke-dasharray:4.23333384, 4.23333384;stroke-dashoffset:0;stroke-opacity:1"
       d="m 142.67317,279.83554 c 2.39158,-25.82344 1.36826,-41.61823 9.51491,-69.05247"
       id="path819-3-6-5-2-9"
       inkscape:connector-curvature="0"
       sodipodi:nodetypes="cc" />
    <path
       style="fill:none;stroke:#88aa00;stroke-width:0.52916676;stroke-linecap:butt;stroke-linejoin:miter;stroke-miterlimit:4;stroke-dasharray:none;stroke-opacity:1"
       d="m 152.14394,209.51724 c -2.99838,-34.30101 -2.26471,-51.58693 -0.0505,-96.49188"
       id="path819-3-6-5-2-1"
       inkscape:connector-curvature="0"
       sodipodi:nodetypes="cc" />
    <path
       style="fill:none;stroke:#88aa00;stroke-width:0.52916676;stroke-linecap:butt;stroke-linejoin:miter;stroke-miterlimit:4;stroke-dasharray:none;stroke-opacity:1"
       d="m 131.91826,199.55833 c 3.64456,-28.57999 12.63325,-65.92555 13.76319,-87.34547"
       id="path819-3-6-5-2-7"
       inkscape:connector-curvature="0"
       sodipodi:nodetypes="cc" />
    <path
       style="fill:none;stroke:#008000;stroke-width:0.52916682;stroke-linecap:butt;stroke-linejoin:miter;stroke-miterlimit:4;stroke-dasharray:none;stroke-opacity:1"
       d="M 199.59575,280.45899 C 185.93476,199.50429 173.60328,189.85004 176.74094,110.04108"
       id="path819-3-6-5-2-1-0"
       inkscape:connector-curvature="0"
       sodipodi:nodetypes="cc" />
    <path
       style="fill:none;stroke:#008000;stroke-width:0.52916682;stroke-linecap:butt;stroke-linejoin:miter;stroke-miterlimit:4;stroke-dasharray:none;stroke-opacity:1"
       d="M 216.63631,279.206 C 200.21877,199.50429 183.12595,191.10301 190.52375,105.53033"
       id="path819-3-6-5-2-1-0-9"
       inkscape:connector-curvature="0"
       sodipodi:nodetypes="cc" />
    <path
       style="fill:none;stroke:#008000;stroke-width:0.52916682;stroke-linecap:butt;stroke-linejoin:miter;stroke-miterlimit:4;stroke-dasharray:none;stroke-opacity:1"
       d="m 179.04682,278.20361 c -7.89726,-80.4535 -16.4698,-98.12685 -13.33214,-165.90717"
       id="path819-3-6-5-2-1-0-3"
       inkscape:connector-curvature="0"
       sodipodi:nodetypes="cc" />
    <path
       style="fill:none;stroke:#008000;stroke-width:0.52916682;stroke-linecap:butt;stroke-linejoin:miter;stroke-miterlimit:4;stroke-dasharray:none;stroke-opacity:1"
       d="M 75.447616,275.94917 C 87.855614,213.28803 123.24199,178.57411 120.10433,110.79379"
       id="path819-3-6-5-2-1-0-3-6"
       inkscape:connector-curvature="0"
       sodipodi:nodetypes="cc" />
    <path
       style="fill:none;stroke:#008000;stroke-width:0.52916682;stroke-linecap:butt;stroke-linejoin:miter;stroke-miterlimit:4;stroke-dasharray:4.23333389, 4.23333389;stroke-dashoffset:0;stroke-opacity:1"
       d="m 113.36777,282.04152 c 0.4855,-23.15771 1.43429,-38.02155 -2.36226,-63.60283"
       id="path819-3-6-5-2-9-0"
       inkscape:connector-curvature="0"
       sodipodi:nodetypes="cc" />
    <path
       style="fill:none;stroke:#88aa00;stroke-width:0.52916682;stroke-linecap:butt;stroke-linejoin:miter;stroke-miterlimit:4;stroke-dasharray:4.23333394, 4.23333394;stroke-dashoffset:0;stroke-opacity:1"
       d="m 122.32014,254.8084 c 3.03705,-24.3356 5.42371,-31.29297 10.25439,-60.23898"
       id="path819-3-6-5-2-9-0-6"
       inkscape:connector-curvature="0"
       sodipodi:nodetypes="cc" />
    <path
       style="fill:none;stroke:#88aa00;stroke-width:0.52916682;stroke-linecap:butt;stroke-linejoin:miter;stroke-miterlimit:4;stroke-dasharray:4.23333399, 4.23333399000000021;stroke-dashoffset:0;stroke-opacity:1"
       d="m 161.62497,266.36115 c -5.58448,-25.06277 -3.09325,-10.28707 -9.78044,-60.07767"
       id="path819-3-6-5-2-9-0-6-2"
       inkscape:connector-curvature="0"
       sodipodi:nodetypes="cc" />
    <path
       style="fill:none;stroke:#88aa00;stroke-width:0.52916682;stroke-linecap:butt;stroke-linejoin:miter;stroke-miterlimit:4;stroke-dasharray:4.23333404, 4.23333404;stroke-dashoffset:0;stroke-opacity:1"
       d="M 97.480603,264.09577 C 103.06508,239.033 102.44718,241.7173 111.68888,214.57678"
       id="path819-3-6-5-2-9-0-6-2-6"
       inkscape:connector-curvature="0"
       sodipodi:nodetypes="cc" />
    <path
       style="fill:none;stroke:#008000;stroke-width:0.52916682;stroke-linecap:butt;stroke-linejoin:miter;stroke-miterlimit:4;stroke-dasharray:4.23333394, 4.23333394;stroke-dashoffset:0;stroke-opacity:1"
       d="m 133.97967,280.87066 c -2.40962,-29.96976 0.41248,-54.88137 -1.85136,-81.14386"
       id="path819-3-6-5-2-9-0-1"
       inkscape:connector-curvature="0"
       sodipodi:nodetypes="cc" />
    <path
       style="fill:none;stroke:#008000;stroke-width:0.52916682;stroke-linecap:butt;stroke-linejoin:miter;stroke-miterlimit:4;stroke-dasharray:none;stroke-opacity:1"
       d="M 62.531047,272.12948 C 74.939045,209.46834 110.32542,174.75442 107.18776,106.9741"
       id="path819-3-6-5-2-1-0-3-6-8"
       inkscape:connector-curvature="0"
       sodipodi:nodetypes="cc" />
    <path
       style="opacity:1;fill:none;fill-opacity:1;stroke:#000000;stroke-width:0.70114589;stroke-miterlimit:4;stroke-dasharray:2.80458343, 5.60916687;stroke-dashoffset:0"
       id="path883-5-7"
       sodipodi:type="arc"
       sodipodi:cx="198.23892"
       sodipodi:cy="-271.5119"
       sodipodi:rx="28.684078"
       sodipodi:ry="9.7349033"
       sodipodi:start="0"
       sodipodi:end="3.2486974"
       sodipodi:open="true"
       d="m 226.923,-271.5119 a 28.684078,9.7349033 0 0 1 -15.23786,8.59904 28.684078,9.7349033 0 0 1 -29.52394,-0.53711 28.684078,9.7349033 0 0 1 -12.44199,-9.10259"
       transform="scale(1,-1)" />
  </g>
</svg>
