<?xml version="1.0" encoding="UTF-8" standalone="no"?>
<!-- Created with Inkscape (http://www.inkscape.org/) -->

<svg
   xmlns:ns0="http://www.iki.fi/pav/software/textext/"
   xmlns:dc="http://purl.org/dc/elements/1.1/"
   xmlns:cc="http://creativecommons.org/ns#"
   xmlns:rdf="http://www.w3.org/1999/02/22-rdf-syntax-ns#"
   xmlns:svg="http://www.w3.org/2000/svg"
   xmlns="http://www.w3.org/2000/svg"
   xmlns:sodipodi="http://sodipodi.sourceforge.net/DTD/sodipodi-0.dtd"
   xmlns:inkscape="http://www.inkscape.org/namespaces/inkscape"
   width="297mm"
   height="210mm"
   viewBox="0 0 297 210"
   version="1.1"
   id="svg8"
   inkscape:version="0.92.5 (2060ec1f9f, 2020-04-08)"
   sodipodi:docname="evo_area_thm_smooth.svg">
  <defs
     id="defs2">
    <marker
       inkscape:stockid="Arrow1Lend"
       orient="auto"
       refY="0.0"
       refX="0.0"
       id="marker7154"
       style="overflow:visible;"
       inkscape:isstock="true">
      <path
         id="path7152"
         d="M 0.0,0.0 L 5.0,-5.0 L -12.5,0.0 L 5.0,5.0 L 0.0,0.0 z "
         style="fill-rule:evenodd;stroke:#88aa00;stroke-width:1pt;stroke-opacity:1;fill:#88aa00;fill-opacity:1"
         transform="scale(0.8) rotate(180) translate(12.5,0)" />
    </marker>
    <marker
       inkscape:stockid="Arrow1Lend"
       orient="auto"
       refY="0.0"
       refX="0.0"
       id="marker6936"
       style="overflow:visible;"
       inkscape:isstock="true"
       inkscape:collect="always">
      <path
         id="path6934"
         d="M 0.0,0.0 L 5.0,-5.0 L -12.5,0.0 L 5.0,5.0 L 0.0,0.0 z "
         style="fill-rule:evenodd;stroke:#008000;stroke-width:1pt;stroke-opacity:1;fill:#008000;fill-opacity:1"
         transform="scale(0.8) rotate(180) translate(12.5,0)" />
    </marker>
    <marker
       inkscape:stockid="Arrow2Lend"
       orient="auto"
       refY="0.0"
       refX="0.0"
       id="marker6554"
       style="overflow:visible;"
       inkscape:isstock="true">
      <path
         id="path6552"
         style="fill-rule:evenodd;stroke-width:0.625;stroke-linejoin:round;stroke:#88aa00;stroke-opacity:1;fill:#88aa00;fill-opacity:1"
         d="M 8.7185878,4.0337352 L -2.2072895,0.016013256 L 8.7185884,-4.0017078 C 6.9730900,-1.6296469 6.9831476,1.6157441 8.7185878,4.0337352 z "
         transform="scale(1.1) rotate(180) translate(1,0)" />
    </marker>
    <marker
       inkscape:stockid="Arrow2Lend"
       orient="auto"
       refY="0.0"
       refX="0.0"
       id="Arrow2Lend"
       style="overflow:visible;"
       inkscape:isstock="true">
      <path
         id="path1030"
         style="fill-rule:evenodd;stroke-width:0.625;stroke-linejoin:round;stroke:#88aa00;stroke-opacity:1;fill:#88aa00;fill-opacity:1"
         d="M 8.7185878,4.0337352 L -2.2072895,0.016013256 L 8.7185884,-4.0017078 C 6.9730900,-1.6296469 6.9831476,1.6157441 8.7185878,4.0337352 z "
         transform="scale(1.1) rotate(180) translate(1,0)" />
    </marker>
    <marker
       inkscape:stockid="Arrow1Mend"
       orient="auto"
       refY="0.0"
       refX="0.0"
       id="Arrow1Mend"
       style="overflow:visible;"
       inkscape:isstock="true">
      <path
         id="path1018"
         d="M 0.0,0.0 L 5.0,-5.0 L -12.5,0.0 L 5.0,5.0 L 0.0,0.0 z "
         style="fill-rule:evenodd;stroke:#88aa00;stroke-width:1pt;stroke-opacity:1;fill:#88aa00;fill-opacity:1"
         transform="scale(0.4) rotate(180) translate(10,0)" />
    </marker>
    <marker
       inkscape:stockid="Arrow1Lend"
       orient="auto"
       refY="0.0"
       refX="0.0"
       id="marker6114"
       style="overflow:visible;"
       inkscape:isstock="true">
      <path
         id="path6112"
         d="M 0.0,0.0 L 5.0,-5.0 L -12.5,0.0 L 5.0,5.0 L 0.0,0.0 z "
         style="fill-rule:evenodd;stroke:#88aa00;stroke-width:1pt;stroke-opacity:1;fill:#88aa00;fill-opacity:1"
         transform="scale(0.8) rotate(180) translate(12.5,0)" />
    </marker>
    <marker
       inkscape:stockid="Arrow2Lstart"
       orient="auto"
       refY="0.0"
       refX="0.0"
       id="Arrow2Lstart"
       style="overflow:visible"
       inkscape:isstock="true">
      <path
         id="path1027"
         style="fill-rule:evenodd;stroke-width:0.625;stroke-linejoin:round;stroke:#008000;stroke-opacity:1;fill:#008000;fill-opacity:1"
         d="M 8.7185878,4.0337352 L -2.2072895,0.016013256 L 8.7185884,-4.0017078 C 6.9730900,-1.6296469 6.9831476,1.6157441 8.7185878,4.0337352 z "
         transform="scale(1.1) translate(1,0)" />
    </marker>
    <marker
       inkscape:stockid="Arrow1Lstart"
       orient="auto"
       refY="0.0"
       refX="0.0"
       id="Arrow1Lstart"
       style="overflow:visible"
       inkscape:isstock="true">
      <path
         id="path1009"
         d="M 0.0,0.0 L 5.0,-5.0 L -12.5,0.0 L 5.0,5.0 L 0.0,0.0 z "
         style="fill-rule:evenodd;stroke:#0000ff;stroke-width:1pt;stroke-opacity:1;fill:#0000ff;fill-opacity:1"
         transform="scale(0.8) translate(12.5,0)" />
    </marker>
    <marker
       inkscape:stockid="Arrow1Mstart"
       orient="auto"
       refY="0.0"
       refX="0.0"
       id="Arrow1Mstart"
       style="overflow:visible"
       inkscape:isstock="true">
      <path
         id="path1015"
         d="M 0.0,0.0 L 5.0,-5.0 L -12.5,0.0 L 5.0,5.0 L 0.0,0.0 z "
         style="fill-rule:evenodd;stroke:#000000;stroke-width:1pt;stroke-opacity:1;fill:#000000;fill-opacity:1"
         transform="scale(0.4) translate(10,0)" />
    </marker>
    <marker
       inkscape:stockid="Arrow1Lstart"
       orient="auto"
       refY="0"
       refX="0"
       id="Arrow1Lstart-2"
       style="overflow:visible"
       inkscape:isstock="true">
      <path
         inkscape:connector-curvature="0"
         id="path1009-7"
         d="M 0,0 5,-5 -12.5,0 5,5 Z"
         style="fill:#0000ff;fill-opacity:1;fill-rule:evenodd;stroke:#0000ff;stroke-width:1.00000003pt;stroke-opacity:1"
         transform="matrix(0.8,0,0,0.8,10,0)" />
    </marker>
    <marker
       inkscape:stockid="Arrow1Lstart"
       orient="auto"
       refY="0"
       refX="0"
       id="Arrow1Lstart-0"
       style="overflow:visible"
       inkscape:isstock="true">
      <path
         inkscape:connector-curvature="0"
         id="path1009-6"
         d="M 0,0 5,-5 -12.5,0 5,5 Z"
         style="fill:#0000ff;fill-opacity:1;fill-rule:evenodd;stroke:#0000ff;stroke-width:1.00000003pt;stroke-opacity:1"
         transform="matrix(0.8,0,0,0.8,10,0)" />
    </marker>
    <marker
       inkscape:stockid="Arrow1Lend"
       orient="auto"
       refY="0"
       refX="0"
       id="marker6936-7"
       style="overflow:visible"
       inkscape:isstock="true"
       inkscape:collect="always">
      <path
         inkscape:connector-curvature="0"
         id="path6934-5"
         d="M 0,0 5,-5 -12.5,0 5,5 Z"
         style="fill:#008000;fill-opacity:1;fill-rule:evenodd;stroke:#008000;stroke-width:1.00000003pt;stroke-opacity:1"
         transform="matrix(-0.8,0,0,-0.8,-10,0)" />
    </marker>
    <marker
       inkscape:stockid="Arrow1Lend"
       orient="auto"
       refY="0"
       refX="0"
       id="marker6936-7-5"
       style="overflow:visible"
       inkscape:isstock="true"
       inkscape:collect="always">
      <path
         inkscape:connector-curvature="0"
         id="path6934-5-6"
         d="M 0,0 5,-5 -12.5,0 5,5 Z"
         style="fill:#008000;fill-opacity:1;fill-rule:evenodd;stroke:#008000;stroke-width:1.00000003pt;stroke-opacity:1"
         transform="matrix(-0.8,0,0,-0.8,-10,0)" />
    </marker>
    <marker
       inkscape:stockid="Arrow1Lend"
       orient="auto"
       refY="0"
       refX="0"
       id="marker6936-7-5-9"
       style="overflow:visible"
       inkscape:isstock="true"
       inkscape:collect="always">
      <path
         inkscape:connector-curvature="0"
         id="path6934-5-6-1"
         d="M 0,0 5,-5 -12.5,0 5,5 Z"
         style="fill:#008000;fill-opacity:1;fill-rule:evenodd;stroke:#008000;stroke-width:1.00000003pt;stroke-opacity:1"
         transform="matrix(-0.8,0,0,-0.8,-10,0)" />
    </marker>
    <marker
       inkscape:stockid="Arrow1Lend"
       orient="auto"
       refY="0"
       refX="0"
       id="marker6936-7-5-9-7"
       style="overflow:visible"
       inkscape:isstock="true"
       inkscape:collect="always">
      <path
         inkscape:connector-curvature="0"
         id="path6934-5-6-1-0"
         d="M 0,0 5,-5 -12.5,0 5,5 Z"
         style="fill:#008000;fill-opacity:1;fill-rule:evenodd;stroke:#008000;stroke-width:1.00000003pt;stroke-opacity:1"
         transform="matrix(-0.8,0,0,-0.8,-10,0)" />
    </marker>
  </defs>
  <sodipodi:namedview
     id="base"
     pagecolor="#ffffff"
     bordercolor="#666666"
     borderopacity="1.0"
     inkscape:pageopacity="0.0"
     inkscape:pageshadow="2"
     inkscape:zoom="1.2281179"
     inkscape:cx="567.10079"
     inkscape:cy="465.63393"
     inkscape:document-units="mm"
     inkscape:current-layer="layer1"
     showgrid="false"
     inkscape:snap-grids="false"
     inkscape:snap-to-guides="false"
     inkscape:snap-text-baseline="false"
     inkscape:snap-others="false"
     inkscape:object-nodes="false"
     inkscape:snap-nodes="false"
     showguides="true"
     inkscape:window-width="1848"
     inkscape:window-height="1016"
     inkscape:window-x="72"
     inkscape:window-y="27"
     inkscape:window-maximized="1" />
  <metadata
     id="metadata5">
    <rdf:RDF>
      <cc:Work
         rdf:about="">
        <dc:format>image/svg+xml</dc:format>
        <dc:type
           rdf:resource="http://purl.org/dc/dcmitype/StillImage" />
        <dc:title />
      </cc:Work>
    </rdf:RDF>
  </metadata>
  <g
     inkscape:label="Calque 1"
     inkscape:groupmode="layer"
     id="layer1"
     transform="translate(0,-87)">
    <path
       style="fill:#d7f4d7;fill-opacity:1;stroke:none;stroke-width:0.26458332px;stroke-linecap:butt;stroke-linejoin:miter;stroke-opacity:1"
       d="m 84.225762,100.79519 c 19.790968,16.01693 105.925948,11.25564 117.862458,1.42553 -4.7199,67.8621 -3.26975,95.96107 -23.5763,145.86235 -14.46605,21.32666 -74.08152,18.6503 -76.99759,-1.66274 C 89.89956,176.5738 84.049039,168.71428 84.225762,100.79519 Z"
       id="path1193-9"
       inkscape:connector-curvature="0"
       sodipodi:nodetypes="ccccc" />
    <path
       style="fill:none;stroke:#000000;stroke-width:0.79374999;stroke-linecap:butt;stroke-linejoin:miter;stroke-miterlimit:4;stroke-dasharray:none;stroke-opacity:1"
       d="M 101.6059,247.4256 C 88.044436,179.43039 85.540659,157.66934 84.157041,99.570933"
       id="path819"
       inkscape:connector-curvature="0"
       sodipodi:nodetypes="cc" />
    <path
       style="fill:none;stroke:#000000;stroke-width:0.79374999;stroke-linecap:butt;stroke-linejoin:miter;stroke-miterlimit:4;stroke-dasharray:none;stroke-opacity:1"
       d="m 178.02511,248.08853 c 23.90068,-59.06751 19.99456,-99.18333 24.32684,-147.58665"
       id="path819-3"
       inkscape:connector-curvature="0"
       sodipodi:nodetypes="cc" />
    <path
       style="opacity:1;fill:none;fill-opacity:1;stroke:#000000;stroke-width:0.82951075;stroke-miterlimit:4;stroke-dasharray:none;stroke-dashoffset:0"
       id="path883-5"
       sodipodi:type="arc"
       sodipodi:cx="139.95776"
       sodipodi:cy="246.53308"
       sodipodi:rx="38.171638"
       sodipodi:ry="15.899751"
       sodipodi:start="0"
       sodipodi:end="3.176595"
       sodipodi:open="true"
       d="m 178.1294,246.53308 a 38.171638,15.899751 0 0 1 -19.47281,13.8614 38.171638,15.899751 0 0 1 -38.55078,-0.28105 38.171638,15.899751 0 0 1 -18.2963,-14.13676" />
    <path
       style="opacity:1;fill:#f9f9f9;fill-opacity:1;stroke:#000000;stroke-width:0.81770033;stroke-miterlimit:4;stroke-dasharray:none;stroke-dashoffset:0"
       id="path932"
       sodipodi:type="arc"
       sodipodi:cx="143.11034"
       sodipodi:cy="100.32402"
       sodipodi:rx="58.839031"
       sodipodi:ry="15.218202"
       sodipodi:start="3.386874"
       sodipodi:end="3.3866272"
       sodipodi:open="true"
       d="M 86.032414,96.628596 A 58.839031,15.218202 0 0 1 157.39465,85.561086 58.839031,15.218202 0 0 1 200.19002,104.01762 58.839031,15.218202 0 0 1 128.83306,115.08741 58.839031,15.218202 0 0 1 86.028889,96.632239" />
    <path
       style="fill:none;stroke:#008000;stroke-width:0.52916682;stroke-linecap:butt;stroke-linejoin:miter;stroke-miterlimit:4;stroke-dasharray:none;stroke-opacity:1;marker-mid:url(#marker6936)"
       d="m 108.45387,255.28076 c -6.3513,-32.08536 -9.671324,-55.22334 -11.697236,-77.10233 -2.025912,-21.879 -2.757713,-42.499 -3.932571,-69.54839"
       id="path819-3-6-5-2-1-0-3-6-8"
       inkscape:connector-curvature="0"
       sodipodi:nodetypes="csc" />
    <path
       style="opacity:1;fill:none;fill-opacity:1;stroke:#000000;stroke-width:0.79374999;stroke-miterlimit:4;stroke-dasharray:3.175, 6.35;stroke-dashoffset:0"
       id="path883-5-7"
       sodipodi:type="arc"
       sodipodi:cx="139.73349"
       sodipodi:cy="-244.07805"
       sodipodi:rx="38.418262"
       sodipodi:ry="13.038526"
       sodipodi:start="0"
       sodipodi:end="3.2486974"
       sodipodi:open="true"
       d="m 178.15175,-244.07805 a 38.418262,13.038526 0 0 1 -20.40895,11.5172 38.418262,13.038526 0 0 1 -39.54314,-0.71938 38.418262,13.038526 0 0 1 -16.66429,-12.19164"
       transform="scale(1,-1)" />
    <path
       style="opacity:1;fill:none;fill-opacity:1;stroke:#0000ff;stroke-width:0.87234443;stroke-miterlimit:4;stroke-dasharray:5.23406646, 5.23406646;stroke-dashoffset:0"
       id="path932-9"
       sodipodi:type="arc"
       sodipodi:cx="143.30981"
       sodipodi:cy="142.6937"
       sodipodi:rx="56.883583"
       sodipodi:ry="14.476736"
       sodipodi:start="3.1353183"
       sodipodi:end="0.010800728"
       sodipodi:open="true"
       d="m 86.427351,142.78453 a 56.883583,14.476736 0 0 1 28.411969,-12.62384 56.883583,14.476736 0 0 1 57.1636,0.0329 56.883583,14.476736 0 0 1 28.18716,12.65643" />
    <path
       style="opacity:1;fill:none;fill-opacity:1;stroke:#0000ff;stroke-width:0.86634123;stroke-miterlimit:4;stroke-dasharray:none;stroke-dashoffset:0"
       id="path932-9-1"
       sodipodi:type="arc"
       sodipodi:cx="142.79527"
       sodipodi:cy="-144.5009"
       sodipodi:rx="56.49213"
       sodipodi:ry="14.377112"
       sodipodi:start="3.1353183"
       sodipodi:end="0.010800728"
       sodipodi:open="true"
       d="m 86.304255,-144.41069 a 56.49213,14.377112 0 0 1 28.216455,-12.53696 56.49213,14.377112 0 0 1 56.77021,0.0327 56.49213,14.377112 0 0 1 27.99319,12.56934"
       transform="scale(1,-1)" />
    <g
       ns0:preamble="/home/eric/BHLectures/Notes/latex_inkscape.ini"
       ns0:text="$\\mathscr{S}_1$\n"
       word-spacing="normal"
       letter-spacing="normal"
       font-size-adjust="none"
       font-stretch="normal"
       font-weight="normal"
       font-variant="normal"
       font-style="normal"
       stroke-miterlimit="10.433"
       xml:space="preserve"
       transform="matrix(1.2710036,0,0,-1.2710036,18.493361,1107.8118)"
       id="content"
       style="font-style:normal;font-variant:normal;font-weight:normal;font-stretch:normal;letter-spacing:normal;word-spacing:normal;text-anchor:start;fill:#0000ff;fill-opacity:1;fill-rule:evenodd;stroke:#000000;stroke-linecap:butt;stroke-linejoin:miter;stroke-miterlimit:10.43299961;stroke-dasharray:none;stroke-dashoffset:0;stroke-opacity:1">
<path
   id="path997"
   d="m 155.44,713.73 h -0.11 -0.12 l -0.11,-0.01 -0.12,-0.01 -0.12,-0.01 -0.13,-0.02 -0.12,-0.02 -0.13,-0.02 -0.12,-0.02 -0.13,-0.03 -0.13,-0.04 -0.13,-0.03 -0.14,-0.04 -0.13,-0.05 -0.13,-0.04 -0.14,-0.06 c -0.53,-0.19 -1.13,-0.5 -1.44,-0.94 -0.2,-0.28 -0.27,-0.52 -0.27,-0.73 0,-0.33 0.18,-0.59 0.41,-0.79 0.5,-0.44 1.28,-0.61 2.15,-0.62 -0.26,-0.32 -0.51,-0.66 -0.75,-0.99 -0.79,-1.11 -2.15,-2.14 -3.13,-2.14 -0.68,0 -1.15,0.21 -1.15,0.61 0,0.1 0.03,0.21 0.09,0.34 0.06,-0.1 0.17,-0.15 0.29,-0.15 0.26,0 0.57,0.2 0.57,0.39 0,0.24 -0.15,0.34 -0.33,0.34 -0.21,0 -0.46,-0.12 -0.58,-0.29 -0.18,-0.26 -0.26,-0.48 -0.26,-0.67 0,-0.52 0.6,-0.78 1.33,-0.78 1.31,0 3.12,0.98 4.03,2.25 0.29,0.41 0.59,0.82 0.91,1.21 0.4,0.1 0.82,0.27 1.24,0.49 l -0.12,0.18 c -0.3,-0.16 -0.6,-0.29 -0.89,-0.38 0.28,0.36 0.56,0.72 0.82,1.07 1,1.43 1.18,2.21 2.05,2.21 v 0 c 0.15,0 0.21,-0.1 0.21,-0.26 0,-0.04 0,-0.09 -0.01,-0.14 -0.06,-0.33 -0.26,-0.74 -0.56,-1.15 -0.37,-0.53 -0.97,-1.01 -1.62,-1.35 l 0.12,-0.18 c 0.69,0.36 1.35,0.86 1.75,1.43 0.3,0.44 0.52,0.87 0.56,1.26 0.01,0.05 0.01,0.09 0.01,0.14 0,0.24 -0.1,0.47 -0.43,0.47 -1.01,0 -2.16,-1.22 -2.94,-2.33 -0.32,-0.45 -0.67,-0.9 -1.05,-1.36 -0.86,0 -1.59,0.16 -2.03,0.55 -0.17,0.16 -0.29,0.36 -0.29,0.6 0,0.19 0.07,0.42 0.25,0.67 0.27,0.37 0.77,0.67 1.25,0.86 0.65,0.26 1.26,0.36 1.78,0.36 0.03,0 0.06,0.01 0.07,0.03 l 0.04,0.06 c 0.01,0.01 0.02,0.03 0.02,0.05 0,0.04 -0.04,0.08 -0.09,0.08 z"
   inkscape:connector-curvature="0"
   style="fill:#0000ff;stroke-width:0" />
<path
   id="path999"
   d="m 159.7,710.05 v 0.01 0.01 0.01 0.01 0 0.01 0.01 0.01 0 0.01 0.01 0 0.01 0 l -0.01,0.01 v 0 0.01 0 0.01 0.01 l -0.01,0.01 v 0 0.01 l -0.01,0.01 v 0 l -0.01,0.01 v 0 h -0.01 l -0.01,0.01 h -0.01 -0.01 v 0 h -0.01 -0.01 v 0 l -0.01,0.01 v 0 h -0.01 v 0 h -0.01 -0.01 -0.01 v 0 h -0.01 -0.01 -0.01 v 0 h -0.01 -0.01 -0.01 c -0.45,-0.44 -1.08,-0.45 -1.37,-0.45 v -0.25 c 0.17,0 0.63,0 1.01,0.2 v -3.55 c 0,-0.23 0,-0.32 -0.7,-0.32 h -0.26 v -0.25 c 0.12,0.01 0.98,0.03 1.24,0.03 0.22,0 1.1,-0.02 1.25,-0.03 v 0.25 h -0.26 c -0.7,0 -0.7,0.09 -0.7,0.32 z"
   inkscape:connector-curvature="0"
   style="fill:#0000ff;stroke-width:0" />
</g>    <path
       style="fill:none;stroke:#0000ff;stroke-width:0.39687499;stroke-linecap:butt;stroke-linejoin:miter;stroke-miterlimit:4;stroke-dasharray:none;stroke-opacity:1;marker-start:url(#Arrow1Lstart)"
       d="m 175.39689,222.79797 c 18.51041,6.56065 31.86603,2.5774 40.30116,-11.48115"
       id="path1007"
       inkscape:connector-curvature="0"
       sodipodi:nodetypes="cc" />
    <path
       style="fill:none;stroke:#0000ff;stroke-width:0.39687499;stroke-linecap:butt;stroke-linejoin:miter;stroke-miterlimit:4;stroke-dasharray:none;stroke-opacity:1;marker-start:url(#Arrow1Lstart-0)"
       d="m 191.52532,152.30919 c 15.46439,3.51463 34.91205,-0.93724 38.66099,-11.01253"
       id="path1007-2"
       inkscape:connector-curvature="0"
       sodipodi:nodetypes="cc" />
    <g
       style="font-style:normal;font-variant:normal;font-weight:normal;font-stretch:normal;letter-spacing:normal;word-spacing:normal;text-anchor:start;fill:#0000ff;fill-opacity:1;fill-rule:evenodd;stroke:#000000;stroke-linecap:butt;stroke-linejoin:miter;stroke-miterlimit:10.43299961;stroke-dasharray:none;stroke-dashoffset:0;stroke-opacity:1"
       ns0:preamble="/home/eric/BHLectures/Notes/latex_inkscape.ini"
       ns0:text="$\\mathscr{S}_2$\n\n"
       word-spacing="normal"
       letter-spacing="normal"
       font-size-adjust="none"
       font-stretch="normal"
       font-weight="normal"
       font-variant="normal"
       font-style="normal"
       stroke-miterlimit="10.433"
       xml:space="preserve"
       transform="matrix(1.3296259,0,0,-1.3296259,25.085444,1078.9303)"
       id="g5517">
<path
   id="path5513"
   style="font-style:normal;font-variant:normal;font-weight:normal;font-stretch:normal;letter-spacing:normal;word-spacing:normal;text-anchor:start;fill:#0000ff;fill-opacity:1;fill-rule:evenodd;stroke:#000000;stroke-width:0;stroke-linecap:butt;stroke-linejoin:miter;stroke-miterlimit:10.43299961;stroke-dasharray:none;stroke-dashoffset:0;stroke-opacity:1"
   word-spacing="normal"
   stroke-miterlimit="10.433"
   letter-spacing="normal"
   font-weight="normal"
   font-variant="normal"
   font-style="normal"
   font-stretch="normal"
   font-size-adjust="none"
   d="m 155.44,713.73 h -0.11 -0.12 l -0.11,-0.01 -0.12,-0.01 -0.12,-0.01 -0.13,-0.02 -0.12,-0.02 -0.13,-0.02 -0.12,-0.02 -0.13,-0.03 -0.13,-0.04 -0.13,-0.03 -0.14,-0.04 -0.13,-0.05 -0.13,-0.04 -0.14,-0.06 c -0.53,-0.19 -1.13,-0.5 -1.44,-0.94 -0.2,-0.28 -0.27,-0.52 -0.27,-0.73 0,-0.33 0.18,-0.59 0.41,-0.79 0.5,-0.44 1.28,-0.61 2.15,-0.62 -0.26,-0.32 -0.51,-0.66 -0.75,-0.99 -0.79,-1.11 -2.15,-2.14 -3.13,-2.14 -0.68,0 -1.15,0.21 -1.15,0.61 0,0.1 0.03,0.21 0.09,0.34 0.06,-0.1 0.17,-0.15 0.29,-0.15 0.26,0 0.57,0.2 0.57,0.39 0,0.24 -0.15,0.34 -0.33,0.34 -0.21,0 -0.46,-0.12 -0.58,-0.29 -0.18,-0.26 -0.26,-0.48 -0.26,-0.67 0,-0.52 0.6,-0.78 1.33,-0.78 1.31,0 3.12,0.98 4.03,2.25 0.29,0.41 0.59,0.82 0.91,1.21 0.4,0.1 0.82,0.27 1.24,0.49 l -0.12,0.18 c -0.3,-0.16 -0.6,-0.29 -0.89,-0.38 0.28,0.36 0.56,0.72 0.82,1.07 1,1.43 1.18,2.21 2.05,2.21 v 0 c 0.15,0 0.21,-0.1 0.21,-0.26 0,-0.04 0,-0.09 -0.01,-0.14 -0.06,-0.33 -0.26,-0.74 -0.56,-1.15 -0.37,-0.53 -0.97,-1.01 -1.62,-1.35 l 0.12,-0.18 c 0.69,0.36 1.35,0.86 1.75,1.43 0.3,0.44 0.52,0.87 0.56,1.26 0.01,0.05 0.01,0.09 0.01,0.14 0,0.24 -0.1,0.47 -0.43,0.47 -1.01,0 -2.16,-1.22 -2.94,-2.33 -0.32,-0.45 -0.67,-0.9 -1.05,-1.36 -0.86,0 -1.59,0.16 -2.03,0.55 -0.17,0.16 -0.29,0.36 -0.29,0.6 0,0.19 0.07,0.42 0.25,0.67 0.27,0.37 0.77,0.67 1.25,0.86 0.65,0.26 1.26,0.36 1.78,0.36 0.03,0 0.06,0.01 0.07,0.03 l 0.04,0.06 c 0.01,0.01 0.02,0.03 0.02,0.05 0,0.04 -0.04,0.08 -0.09,0.08 z"
   inkscape:connector-curvature="0" />
<path
   id="path5515"
   style="font-style:normal;font-variant:normal;font-weight:normal;font-stretch:normal;letter-spacing:normal;word-spacing:normal;text-anchor:start;fill:#0000ff;fill-opacity:1;fill-rule:evenodd;stroke:#000000;stroke-width:0;stroke-linecap:butt;stroke-linejoin:miter;stroke-miterlimit:10.43299961;stroke-dasharray:none;stroke-dashoffset:0;stroke-opacity:1"
   word-spacing="normal"
   stroke-miterlimit="10.433"
   letter-spacing="normal"
   font-weight="normal"
   font-variant="normal"
   font-style="normal"
   font-stretch="normal"
   font-size-adjust="none"
   d="m 160.89,706.9 h -0.24 c -0.02,-0.16 -0.09,-0.57 -0.18,-0.64 -0.06,-0.04 -0.6,-0.04 -0.69,-0.04 h -1.29 c 0.73,0.65 0.98,0.84 1.4,1.17 0.52,0.41 1,0.84 1,1.5 0,0.84 -0.74,1.36 -1.64,1.36 -0.87,0 -1.45,-0.61 -1.45,-1.25 0,-0.35 0.3,-0.39 0.37,-0.39 0.17,0 0.37,0.12 0.37,0.37 0,0.13 -0.05,0.37 -0.41,0.37 0.21,0.49 0.69,0.65 1.02,0.65 0.7,0 1.06,-0.54 1.06,-1.11 0,-0.6 -0.43,-1.08 -0.66,-1.33 l -1.68,-1.66 c -0.07,-0.06 -0.07,-0.07 -0.07,-0.27 h 2.88 z"
   inkscape:connector-curvature="0" />
</g>    <g
       style="font-style:normal;font-variant:normal;font-weight:normal;font-stretch:normal;letter-spacing:normal;word-spacing:normal;text-anchor:start;fill:#000000;fill-opacity:1;fill-rule:evenodd;stroke:#000000;stroke-linecap:butt;stroke-linejoin:miter;stroke-miterlimit:10.43299961;stroke-dasharray:none;stroke-dashoffset:0;stroke-opacity:1"
       ns0:preamble="/home/eric/BHLectures/Notes/latex_inkscape.ini"
       ns0:text="$\\mathscr{H}$\n\n\n"
       word-spacing="normal"
       letter-spacing="normal"
       font-size-adjust="none"
       font-stretch="normal"
       font-weight="normal"
       font-variant="normal"
       font-style="normal"
       stroke-miterlimit="10.433"
       xml:space="preserve"
       transform="matrix(1.5,0,0,-1.5,-18.566366,1170.8387)"
       id="g5685">
<path
   id="path5683"
   style="font-style:normal;font-variant:normal;font-weight:normal;font-stretch:normal;letter-spacing:normal;word-spacing:normal;text-anchor:start;fill:#000000;fill-opacity:1;fill-rule:evenodd;stroke:#000000;stroke-width:0;stroke-linecap:butt;stroke-linejoin:miter;stroke-miterlimit:10.43299961;stroke-dasharray:none;stroke-dashoffset:0;stroke-opacity:1"
   word-spacing="normal"
   stroke-miterlimit="10.433"
   letter-spacing="normal"
   font-weight="normal"
   font-variant="normal"
   font-style="normal"
   font-stretch="normal"
   font-size-adjust="none"
   d="m 157.89,708.52 v 0 0 l -0.01,0.01 v 0 0.01 0 0.01 0 0 0.01 h -0.01 v 0 0.01 0 h -0.01 v 0 0.01 0 h -0.01 v 0 0 l -0.01,0.01 v 0 0 h -0.01 v 0 0 h -0.01 v 0 h -0.01 v 0 0 h -0.11 c -0.03,0 -0.06,0 -0.07,-0.02 -0.47,-0.66 -1.1,-1.31 -1.6,-1.31 -0.4,0 -0.57,0.19 -0.57,0.51 0,0.48 0.4,1.25 0.99,2.09 0.24,0.34 0.48,0.67 0.73,1.01 1.33,0.08 2.66,0.37 3.41,1.42 0.31,0.44 0.49,0.88 0.49,1.23 0,0.38 -0.21,0.64 -0.71,0.64 l -0.04,-0.22 c 0.33,0 0.49,-0.17 0.49,-0.45 0,-0.28 -0.17,-0.66 -0.48,-1.1 -0.65,-0.9 -1.78,-1.19 -2.99,-1.29 1.11,1.5 2.23,2.84 2.98,2.84 v 0 l 0.04,0.22 c -1.42,0 -2.78,-1.5 -3.97,-3.1 h -1.28 c 0.74,0.99 1.5,1.99 2.28,2.97 0.02,0.03 0.02,0.05 0.02,0.08 l -0.03,0.08 c -0.01,0.03 -0.04,0.06 -0.08,0.06 -0.02,0 -0.04,-0.01 -0.06,-0.03 -0.5,-0.48 -0.99,-0.96 -1.53,-1.48 -0.37,-0.52 -1.12,-0.88 -1.68,-0.88 -0.12,0 -0.2,0.06 -0.2,0.16 0,0.07 0.04,0.16 0.12,0.27 0.14,0.21 0.21,0.4 0.21,0.56 0,0.32 -0.27,0.53 -0.71,0.53 -0.52,0 -1.06,-0.64 -1.43,-1.17 -0.01,-0.01 -0.01,-0.03 -0.01,-0.04 0,-0.05 0.03,-0.09 0.08,-0.09 h 0.11 c 0.03,0 0.05,0.02 0.07,0.04 0.38,0.54 0.76,1.04 1.14,1.04 0.16,0 0.25,-0.08 0.25,-0.22 0,-0.14 -0.08,-0.32 -0.24,-0.55 -0.09,-0.13 -0.13,-0.24 -0.13,-0.34 0,-0.28 0.34,-0.4 0.71,-0.4 0.29,0 0.64,0.07 0.97,0.22 -0.25,-0.28 -0.5,-0.57 -0.74,-0.86 -1.15,-0.11 -2.27,-0.44 -2.95,-1.4 l -0.02,-0.05 c 0,-0.04 0.03,-0.08 0.08,-0.08 h 0.11 c 0.03,0 0.06,0.01 0.07,0.03 0.58,0.81 1.51,1.13 2.51,1.25 -0.4,-0.5 -0.79,-0.99 -1.15,-1.5 -0.74,-1.05 -1.65,-2.14 -2.49,-2.14 -0.67,0 -1.15,0.2 -1.15,0.61 0,0.1 0.03,0.21 0.09,0.34 0.07,-0.1 0.18,-0.15 0.3,-0.15 0.26,0 0.56,0.2 0.56,0.39 0,0.24 -0.15,0.34 -0.33,0.34 -0.21,0 -0.45,-0.12 -0.57,-0.29 -0.18,-0.26 -0.26,-0.48 -0.26,-0.67 0,-0.52 0.59,-0.78 1.32,-0.78 1.1,0 2.57,1.1 3.39,2.25 0.4,0.56 0.8,1.11 1.2,1.67 0.23,0.01 0.46,0.01 0.69,0.01 h 0.6 c -0.22,-0.3 -0.44,-0.6 -0.64,-0.88 -0.49,-0.69 -0.75,-1.37 -0.75,-1.9 0,-0.61 0.34,-1.01 1.14,-1.01 0.64,0 1.4,0.74 1.89,1.42 0.01,0.02 0.01,0.03 0.01,0.05 z"
   inkscape:connector-curvature="0" />
</g>    <path
       style="fill:none;stroke:#0000ff;stroke-width:0.5291667;stroke-linecap:butt;stroke-linejoin:miter;stroke-miterlimit:4;stroke-dasharray:none;stroke-opacity:1"
       d="m 84.535274,117.7347 c -10.373296,-0.68406 -15.305167,-1.09638 -25.560346,-1.57314 -18.426771,16.91735 -6.64852,22.34723 -31.016664,45.42667 58.108649,-12.65269 190.727586,22.49366 225.171016,10.07529 12.4184,-29.28863 16.16732,-26.24262 27.17985,-49.90783 -41.00408,-3.51464 -79.70598,-0.27205 -79.70598,-0.27205"
       id="path5827"
       inkscape:connector-curvature="0"
       sodipodi:nodetypes="cccccc" />
    <path
       style="fill:none;stroke:#0000ff;stroke-width:0.52916676;stroke-linecap:butt;stroke-linejoin:miter;stroke-miterlimit:4;stroke-dasharray:none;stroke-opacity:1"
       d="m 89.40664,187.36624 c -17.797247,-0.99385 -29.69862,-3.96469 -39.632994,-5.10664 -12.569045,14.33995 -15.317954,16.02088 -31.250973,46.12959 60.243317,1.66848 200.577847,26.47612 235.714927,11.24684 12.4184,-29.28864 6.79495,-28.11709 21.79073,-50.37645 -41.00408,-3.51464 -81.34136,2.13551 -81.34136,2.13551"
       id="path5827-7"
       inkscape:connector-curvature="0"
       sodipodi:nodetypes="cccccc" />
    <g
       style="font-style:normal;font-variant:normal;font-weight:normal;font-stretch:normal;letter-spacing:normal;word-spacing:normal;text-anchor:start;fill:#0000ff;fill-opacity:1;fill-rule:evenodd;stroke:#000000;stroke-linecap:butt;stroke-linejoin:miter;stroke-miterlimit:10.43299961;stroke-dasharray:none;stroke-dashoffset:0;stroke-opacity:1"
       ns0:preamble="/home/eric/BHLectures/Notes/latex_inkscape.ini"
       ns0:text="$\\Sigma_1$\n\n\n\n\n"
       word-spacing="normal"
       letter-spacing="normal"
       font-size-adjust="none"
       font-stretch="normal"
       font-weight="normal"
       font-variant="normal"
       font-style="normal"
       stroke-miterlimit="10.433"
       xml:space="preserve"
       transform="matrix(1.5,0,0,-1.5,25.39522,1313.8167)"
       id="g6029">
<path
   id="path6025"
   style="font-style:normal;font-variant:normal;font-weight:normal;font-stretch:normal;letter-spacing:normal;word-spacing:normal;text-anchor:start;fill:#0000ff;fill-opacity:1;fill-rule:evenodd;stroke:#000000;stroke-width:0;stroke-linecap:butt;stroke-linejoin:miter;stroke-miterlimit:10.43299961;stroke-dasharray:none;stroke-dashoffset:0;stroke-opacity:1"
   word-spacing="normal"
   stroke-miterlimit="10.433"
   letter-spacing="normal"
   font-weight="normal"
   font-variant="normal"
   font-style="normal"
   font-stretch="normal"
   font-size-adjust="none"
   d="m 152.42,710.36 0.01,0.01 v 0 0.01 h 0.01 v 0.01 0 h 0.01 v 0.01 0 l 0.01,0.01 v 0 l 0.01,0.01 v 0.01 h 0.01 v 0.01 l 0.01,0.01 v 0 0.01 h 0.01 v 0.01 0 0.01 0 l 0.01,0.01 v 0 0 0.01 0 0 0.01 0 0 0 0.01 0 0 c 0,0.05 -0.04,0.1 -0.07,0.14 l -2.04,2.94 h 2.3 c 1.69,0 2.18,-0.36 2.39,-1.93 h 0.25 l -0.28,2.24 h -5.53 c -0.24,0 -0.26,0 -0.26,-0.23 l 2.48,-3.59 -2.37,-2.7 c -0.1,-0.11 -0.1,-0.13 -0.1,-0.16 0,-0.11 0.1,-0.11 0.25,-0.11 h 5.53 l 0.28,2.35 h -0.25 c -0.18,-1.66 -0.85,-1.93 -2.42,-1.93 h -2.75 z"
   inkscape:connector-curvature="0" />
<path
   id="path6027"
   style="font-style:normal;font-variant:normal;font-weight:normal;font-stretch:normal;letter-spacing:normal;word-spacing:normal;text-anchor:start;fill:#0000ff;fill-opacity:1;fill-rule:evenodd;stroke:#000000;stroke-width:0;stroke-linecap:butt;stroke-linejoin:miter;stroke-miterlimit:10.43299961;stroke-dasharray:none;stroke-dashoffset:0;stroke-opacity:1"
   word-spacing="normal"
   stroke-miterlimit="10.433"
   letter-spacing="normal"
   font-weight="normal"
   font-variant="normal"
   font-style="normal"
   font-stretch="normal"
   font-size-adjust="none"
   d="m 158.25,710.05 v 0.01 0.01 0.01 0.01 0 0.01 0.01 0.01 0 0.01 0.01 0 0.01 0 0.01 h -0.01 v 0.01 0 0.01 0.01 0.01 h -0.01 v 0.01 l -0.01,0.01 v 0 l -0.01,0.01 v 0 h -0.01 l -0.01,0.01 h -0.01 v 0 h -0.01 -0.01 v 0 h -0.01 l -0.01,0.01 v 0 h -0.01 v 0 h -0.01 -0.01 v 0 h -0.01 -0.01 -0.01 v 0 h -0.01 -0.01 -0.01 -0.01 c -0.45,-0.44 -1.08,-0.45 -1.37,-0.45 v -0.25 c 0.17,0 0.63,0 1.01,0.2 v -3.55 c 0,-0.23 0,-0.32 -0.69,-0.32 h -0.27 v -0.25 c 0.13,0.01 0.99,0.03 1.24,0.03 0.22,0 1.1,-0.02 1.25,-0.03 v 0.25 h -0.26 c -0.7,0 -0.7,0.09 -0.7,0.32 z"
   inkscape:connector-curvature="0" />
</g>    <g
       style="font-style:normal;font-variant:normal;font-weight:normal;font-stretch:normal;letter-spacing:normal;word-spacing:normal;text-anchor:start;fill:#0000ff;fill-opacity:1;fill-rule:evenodd;stroke:#000000;stroke-linecap:butt;stroke-linejoin:miter;stroke-miterlimit:10.43299961;stroke-dasharray:none;stroke-dashoffset:0;stroke-opacity:1"
       ns0:preamble="/home/eric/BHLectures/Notes/latex_inkscape.ini"
       ns0:text="$\\Sigma_2$\n\n\n\n\n"
       word-spacing="normal"
       letter-spacing="normal"
       font-size-adjust="none"
       font-stretch="normal"
       font-weight="normal"
       font-variant="normal"
       font-style="normal"
       stroke-miterlimit="10.433"
       xml:space="preserve"
       transform="matrix(1.5,0,0,-1.5,36.036551,1235.0092)"
       id="g6105">
<path
   id="path6101"
   style="font-style:normal;font-variant:normal;font-weight:normal;font-stretch:normal;letter-spacing:normal;word-spacing:normal;text-anchor:start;fill:#0000ff;fill-opacity:1;fill-rule:evenodd;stroke:#000000;stroke-width:0;stroke-linecap:butt;stroke-linejoin:miter;stroke-miterlimit:10.43299961;stroke-dasharray:none;stroke-dashoffset:0;stroke-opacity:1"
   word-spacing="normal"
   stroke-miterlimit="10.433"
   letter-spacing="normal"
   font-weight="normal"
   font-variant="normal"
   font-style="normal"
   font-stretch="normal"
   font-size-adjust="none"
   d="m 152.42,710.36 0.01,0.01 v 0 0.01 h 0.01 v 0.01 0 h 0.01 v 0.01 0 l 0.01,0.01 v 0 l 0.01,0.01 v 0.01 h 0.01 v 0.01 l 0.01,0.01 v 0 0.01 h 0.01 v 0.01 0 0.01 0 l 0.01,0.01 v 0 0 0.01 0 0 0.01 0 0 0 0.01 0 0 c 0,0.05 -0.04,0.1 -0.07,0.14 l -2.04,2.94 h 2.3 c 1.69,0 2.18,-0.36 2.39,-1.93 h 0.25 l -0.28,2.24 h -5.53 c -0.24,0 -0.26,0 -0.26,-0.23 l 2.48,-3.59 -2.37,-2.7 c -0.1,-0.11 -0.1,-0.13 -0.1,-0.16 0,-0.11 0.1,-0.11 0.25,-0.11 h 5.53 l 0.28,2.35 h -0.25 c -0.18,-1.66 -0.85,-1.93 -2.42,-1.93 h -2.75 z"
   inkscape:connector-curvature="0" />
<path
   id="path6103"
   style="font-style:normal;font-variant:normal;font-weight:normal;font-stretch:normal;letter-spacing:normal;word-spacing:normal;text-anchor:start;fill:#0000ff;fill-opacity:1;fill-rule:evenodd;stroke:#000000;stroke-width:0;stroke-linecap:butt;stroke-linejoin:miter;stroke-miterlimit:10.43299961;stroke-dasharray:none;stroke-dashoffset:0;stroke-opacity:1"
   word-spacing="normal"
   stroke-miterlimit="10.433"
   letter-spacing="normal"
   font-weight="normal"
   font-variant="normal"
   font-style="normal"
   font-stretch="normal"
   font-size-adjust="none"
   d="m 159.44,706.9 h -0.24 c -0.02,-0.16 -0.09,-0.57 -0.18,-0.64 -0.06,-0.04 -0.59,-0.04 -0.69,-0.04 h -1.29 c 0.73,0.65 0.98,0.84 1.4,1.17 0.52,0.41 1,0.84 1,1.5 0,0.84 -0.74,1.36 -1.64,1.36 -0.86,0 -1.45,-0.61 -1.45,-1.25 0,-0.35 0.3,-0.39 0.37,-0.39 0.17,0 0.37,0.12 0.37,0.37 0,0.13 -0.05,0.37 -0.41,0.37 0.21,0.49 0.69,0.65 1.02,0.65 0.7,0 1.06,-0.54 1.06,-1.11 0,-0.6 -0.43,-1.08 -0.66,-1.33 l -1.68,-1.66 c -0.07,-0.06 -0.07,-0.07 -0.07,-0.27 h 2.88 z"
   inkscape:connector-curvature="0" />
</g>    <path
       style="opacity:1;fill:none;fill-opacity:1;stroke:#0000ff;stroke-width:0.79375;stroke-miterlimit:4;stroke-dasharray:none;stroke-dashoffset:0"
       id="path932-9-1-3"
       sodipodi:type="arc"
       sodipodi:cx="142.22697"
       sodipodi:cy="-213.80496"
       sodipodi:rx="46.768421"
       sodipodi:ry="11.767924"
       sodipodi:start="3.1353183"
       sodipodi:end="0.010800728"
       sodipodi:open="true"
       d="m 95.459474,-213.73113 a 46.768421,11.767924 0 0 1 23.359696,-10.26172 46.768421,11.767924 0 0 1 46.99864,0.0268 46.768421,11.767924 0 0 1 23.17486,10.28823"
       transform="scale(1,-1)" />
    <path
       style="opacity:1;fill:none;fill-opacity:1;stroke:#0000ff;stroke-width:0.79374999;stroke-miterlimit:4;stroke-dasharray:4.7625, 4.7625;stroke-dashoffset:0"
       id="path932-9-6"
       sodipodi:type="arc"
       sodipodi:cx="142.22928"
       sodipodi:cy="212.31079"
       sodipodi:rx="46.705765"
       sodipodi:ry="14.661284"
       sodipodi:start="3.1353183"
       sodipodi:end="0.010800728"
       sodipodi:open="true"
       d="m 95.524433,212.40278 a 46.705765,14.661284 0 0 1 23.328397,-12.78476 46.705765,14.661284 0 0 1 46.93568,0.0333 46.705765,14.661284 0 0 1 23.14381,12.81778" />
    <path
       style="fill:none;stroke:#008000;stroke-width:0.52916682;stroke-linecap:butt;stroke-linejoin:miter;stroke-miterlimit:4;stroke-dasharray:none;stroke-opacity:1;marker-mid:url(#marker6936-7)"
       d="m 123.17177,260.14093 c -4.81759,-32.6331 -7.12324,-55.34195 -8.39493,-76.90826 -1.27169,-21.56632 -1.50942,-41.9901 -2.19117,-70.05308"
       id="path819-3-6-5-2-1-0-3-6-8-3"
       inkscape:connector-curvature="0"
       sodipodi:nodetypes="csc" />
    <path
       style="fill:none;stroke:#008000;stroke-width:0.52916682;stroke-linecap:butt;stroke-linejoin:miter;stroke-miterlimit:4;stroke-dasharray:none;stroke-opacity:1;marker-mid:url(#marker6936-7-5)"
       d="m 141.97469,262.12108 c -1.84066,-35.64335 -2.72297,-58.54996 -3.09605,-79.40782 -0.37307,-20.85785 -0.23691,-39.66696 -0.0406,-67.11532"
       id="path819-3-6-5-2-1-0-3-6-8-3-2"
       inkscape:connector-curvature="0"
       sodipodi:nodetypes="csc" />
    <path
       style="fill:none;stroke:#008000;stroke-width:0.52916682;stroke-linecap:butt;stroke-linejoin:miter;stroke-miterlimit:4;stroke-dasharray:none;stroke-opacity:1;marker-mid:url(#marker6936-7-5-9)"
       d="m 160.29481,260.04798 c 3.19866,-34.98605 4.836,-57.72833 5.72276,-78.58619 0.88676,-20.85786 1.02292,-39.83129 1.21921,-67.27965"
       id="path819-3-6-5-2-1-0-3-6-8-3-2-2"
       inkscape:connector-curvature="0"
       sodipodi:nodetypes="csc" />
    <path
       style="fill:none;stroke:#008000;stroke-width:0.52916682;stroke-linecap:butt;stroke-linejoin:miter;stroke-miterlimit:4;stroke-dasharray:none;stroke-opacity:1;marker-mid:url(#marker6936-7-5-9-7)"
       d="m 173.56193,253.81304 c 6.26606,-26.11247 9.9301,-48.36544 12.21362,-70.97977 2.28353,-22.61433 3.18654,-45.59002 3.93058,-73.14792"
       id="path819-3-6-5-2-1-0-3-6-8-3-2-2-9"
       inkscape:connector-curvature="0"
       sodipodi:nodetypes="csc" />
    <path
       style="fill:none;stroke:#0000ff;stroke-width:0.5291667;stroke-linecap:butt;stroke-linejoin:miter;stroke-miterlimit:4;stroke-dasharray:3.175, 3.175;stroke-dashoffset:0;stroke-opacity:1"
       d="m 93.715554,187.98834 c 45.026556,2.8007 54.074946,6.24771 99.532376,3.44702"
       id="path8281"
       inkscape:connector-curvature="0"
       sodipodi:nodetypes="cc" />
    <path
       style="fill:none;stroke:#0000ff;stroke-width:0.52916676;stroke-linecap:butt;stroke-linejoin:miter;stroke-miterlimit:4;stroke-dasharray:3.17500003, 3.17500003;stroke-dashoffset:0;stroke-opacity:1"
       d="m 87.791461,118.03997 c 45.026559,2.8007 64.631409,6.24771 110.088839,3.44702"
       id="path8281-3"
       inkscape:connector-curvature="0"
       sodipodi:nodetypes="cc" />
  </g>
</svg>
