<?xml version="1.0" encoding="UTF-8" standalone="no"?>
<!-- Created with Inkscape (http://www.inkscape.org/) -->

<svg
   sodipodi:docname="gek_penrose_proc.svg"
   inkscape:version="1.3.2 (1:1.3.2+202311252150+091e20ef0f)"
   version="1.1"
   id="svg2"
   viewBox="0 0 507.53294 347.26282"
   height="98.005287mm"
   width="143.23708mm"
   xmlns:inkscape="http://www.inkscape.org/namespaces/inkscape"
   xmlns:sodipodi="http://sodipodi.sourceforge.net/DTD/sodipodi-0.dtd"
   xmlns="http://www.w3.org/2000/svg"
   xmlns:svg="http://www.w3.org/2000/svg"
   xmlns:rdf="http://www.w3.org/1999/02/22-rdf-syntax-ns#"
   xmlns:cc="http://creativecommons.org/ns#"
   xmlns:dc="http://purl.org/dc/elements/1.1/"
   xmlns:ns0="http://www.iki.fi/pav/software/textext/">
  <sodipodi:namedview
     inkscape:window-maximized="1"
     inkscape:window-y="0"
     inkscape:window-x="0"
     inkscape:window-height="1016"
     inkscape:window-width="1850"
     showgrid="false"
     inkscape:current-layer="layer1"
     inkscape:document-units="px"
     inkscape:cy="185.32513"
     inkscape:cx="270.68424"
     inkscape:zoom="2.1907445"
     inkscape:pageshadow="2"
     inkscape:pageopacity="0.0"
     borderopacity="1.0"
     bordercolor="#666666"
     pagecolor="#ffffff"
     id="base"
     inkscape:snap-to-guides="false"
     inkscape:showpageshadow="2"
     inkscape:pagecheckerboard="0"
     inkscape:deskcolor="#d1d1d1" />
  <defs
     id="defs4">
    <marker
       inkscape:isstock="true"
       style="overflow:visible"
       id="Arrow1Mstart"
       refX="0"
       refY="0"
       orient="auto"
       inkscape:stockid="Arrow1Mstart">
      <path
         transform="matrix(0.4,0,0,0.4,4,0)"
         style="fill:#000000;fill-opacity:1;fill-rule:evenodd;stroke:#000000;stroke-width:1pt;stroke-opacity:1"
         d="M 0,0 5,-5 -12.5,0 5,5 Z"
         id="path4609" />
    </marker>
    <marker
       inkscape:isstock="true"
       style="overflow:visible"
       id="Arrow1Lstart"
       refX="0"
       refY="0"
       orient="auto"
       inkscape:stockid="Arrow1Lstart">
      <path
         transform="matrix(0.8,0,0,0.8,10,0)"
         style="fill:#000000;fill-opacity:1;fill-rule:evenodd;stroke:#000000;stroke-width:1pt;stroke-opacity:1"
         d="M 0,0 5,-5 -12.5,0 5,5 Z"
         id="path4603" />
    </marker>
    <marker
       inkscape:isstock="true"
       style="overflow:visible"
       id="Arrow2Mend"
       refX="0"
       refY="0"
       orient="auto"
       inkscape:stockid="Arrow2Mend">
      <path
         transform="scale(-0.6)"
         d="M 8.7185878,4.0337352 -2.2072895,0.01601326 8.7185884,-4.0017078 c -1.7454984,2.3720609 -1.7354408,5.6174519 -6e-7,8.035443 z"
         style="fill:#d35f5f;fill-opacity:1;fill-rule:evenodd;stroke:#d35f5f;stroke-width:0.625;stroke-linejoin:round;stroke-opacity:1"
         id="path4172" />
    </marker>
    <marker
       inkscape:isstock="true"
       style="overflow:visible"
       id="Arrow1Lend"
       refX="0"
       refY="0"
       orient="auto"
       inkscape:stockid="Arrow1Lend">
      <path
         transform="matrix(-0.8,0,0,-0.8,-10,0)"
         style="fill:#000000;fill-opacity:1;fill-rule:evenodd;stroke:#000000;stroke-width:1pt;stroke-opacity:1"
         d="M 0,0 5,-5 -12.5,0 5,5 Z"
         id="path4148" />
    </marker>
    <marker
       inkscape:isstock="true"
       style="overflow:visible"
       id="Arrow2Mend-3"
       refX="0"
       refY="0"
       orient="auto"
       inkscape:stockid="Arrow2Mend">
      <path
         transform="scale(-0.6)"
         d="M 8.7185878,4.0337352 -2.2072895,0.01601326 8.7185884,-4.0017078 c -1.7454984,2.3720609 -1.7354408,5.6174519 -6e-7,8.035443 z"
         style="fill:#ff6600;fill-opacity:1;fill-rule:evenodd;stroke:#ff6600;stroke-width:0.625;stroke-linejoin:round;stroke-opacity:1"
         id="path4172-6"
         inkscape:connector-curvature="0" />
    </marker>
    <marker
       inkscape:isstock="true"
       style="overflow:visible"
       id="Arrow2Mend-3-5"
       refX="0"
       refY="0"
       orient="auto"
       inkscape:stockid="Arrow2Mend">
      <path
         transform="scale(-0.6)"
         d="M 8.7185878,4.0337352 -2.2072895,0.01601326 8.7185884,-4.0017078 c -1.7454984,2.3720609 -1.7354408,5.6174519 -6e-7,8.035443 z"
         style="fill:#ff0000;fill-opacity:1;fill-rule:evenodd;stroke:#ff0000;stroke-width:0.625;stroke-linejoin:round;stroke-opacity:1"
         id="path4172-6-3"
         inkscape:connector-curvature="0" />
    </marker>
  </defs>
  <metadata
     id="metadata7">
    <rdf:RDF>
      <cc:Work
         rdf:about="">
        <dc:format>image/svg+xml</dc:format>
        <dc:type
           rdf:resource="http://purl.org/dc/dcmitype/StillImage" />
      </cc:Work>
    </rdf:RDF>
  </metadata>
  <g
     transform="translate(-145.73737,-496.3044)"
     id="layer1"
     inkscape:groupmode="layer"
     inkscape:label="Calque 1">
    <circle
       r="158.0309"
       cy="685.53632"
       cx="405.67151"
       id="path4167-3"
       style="fill:#e6e6e6;fill-opacity:1;stroke:none;stroke-width:1.72483;stroke-miterlimit:4;stroke-dasharray:1.72483, 6.89933;stroke-dashoffset:0;stroke-opacity:1" />
    <circle
       r="71.952614"
       cy="685.53632"
       cx="405.67151"
       id="path4167"
       style="fill:#000000;fill-opacity:1;stroke:none;stroke-width:1.72483;stroke-miterlimit:4;stroke-dasharray:1.72483, 6.89933;stroke-dashoffset:0;stroke-opacity:1" />
    <path
       sodipodi:nodetypes="cc"
       inkscape:connector-curvature="0"
       id="path4184"
       d="m 145.89032,586.33276 c 65.11819,-10.07815 117.90642,-13.7554 182.4825,-8.11221"
       style="fill:none;fill-rule:evenodd;stroke:#d35f5f;stroke-width:2;stroke-linecap:butt;stroke-linejoin:miter;stroke-miterlimit:4;stroke-dasharray:none;stroke-opacity:1" />
    <path
       sodipodi:nodetypes="cc"
       inkscape:connector-curvature="0"
       id="path4184-6"
       d="M 328.94901,577.79793 C 470.20568,568.77881 548.7797,559.25799 652.9565,524.82668"
       style="fill:none;fill-rule:evenodd;stroke:#ff6600;stroke-width:2;stroke-linecap:butt;stroke-linejoin:miter;stroke-miterlimit:4;stroke-dasharray:none;stroke-opacity:1" />
    <path
       sodipodi:nodetypes="cc"
       inkscape:connector-curvature="0"
       id="path4184-6-7"
       d="m 329.83186,578.68078 c 44.31492,4.56112 70.99813,17.38698 88.28542,37.37356"
       style="fill:none;fill-rule:evenodd;stroke:#ff0000;stroke-width:2;stroke-linecap:butt;stroke-linejoin:miter;stroke-miterlimit:4;stroke-dasharray:none;stroke-opacity:1" />
    <circle
       r="4.4776926"
       cy="578.36646"
       cx="330.28314"
       id="path4216"
       style="fill:#806600;fill-opacity:1;stroke:none;stroke-width:2;stroke-miterlimit:4;stroke-dasharray:none;stroke-dashoffset:0;stroke-opacity:1" />
    <path
       inkscape:connector-curvature="0"
       id="path4139"
       d="M 158.81694,584.00128 269.09465,571.2278"
       style="fill:#d35f5f;fill-rule:evenodd;stroke:#d35f5f;stroke-width:4;stroke-linecap:butt;stroke-linejoin:miter;stroke-miterlimit:4;stroke-dasharray:none;stroke-opacity:1;marker-end:url(#Arrow2Mend)" />
    <path
       sodipodi:nodetypes="cc"
       inkscape:connector-curvature="0"
       id="path4139-7"
       d="m 553.51594,551.76418 76.21509,-18.73444"
       style="fill:#ff6600;fill-rule:evenodd;stroke:#ff6600;stroke-width:4;stroke-linecap:butt;stroke-linejoin:miter;stroke-miterlimit:4;stroke-dasharray:none;stroke-opacity:1;marker-end:url(#Arrow2Mend-3)" />
    <path
       sodipodi:nodetypes="cc"
       inkscape:connector-curvature="0"
       id="path4139-7-5"
       d="m 358.14699,583.21544 54.50017,19.16022"
       style="fill:#ff0000;fill-rule:evenodd;stroke:#ff0000;stroke-width:4;stroke-linecap:butt;stroke-linejoin:miter;stroke-miterlimit:4;stroke-dasharray:none;stroke-opacity:1;marker-end:url(#Arrow2Mend-3-5)" />
    <g
       style="font-style:normal;font-variant:normal;font-weight:normal;font-stretch:normal;letter-spacing:normal;word-spacing:normal;text-anchor:start;fill:#d35f5f;fill-opacity:1;fill-rule:evenodd;stroke:#000000;stroke-linecap:butt;stroke-linejoin:miter;stroke-miterlimit:10.433;stroke-dasharray:none;stroke-dashoffset:0;stroke-opacity:1"
       id="g4297"
       transform="matrix(3,0,0,-3,-442.45524,2675.1773)"
       xml:space="preserve"
       stroke-miterlimit="10.433"
       font-style="normal"
       font-variant="normal"
       font-weight="normal"
       font-stretch="normal"
       font-size-adjust="none"
       letter-spacing="normal"
       word-spacing="normal"
       ns0:text="$\\bm{p}$"
       ns0:preamble="/home/eric/BHLectures/Notes/latex_inkscape.ini"><path
         style="fill:#d35f5f;stroke-width:0"
         inkscape:connector-curvature="0"
         d="m 223.95,705.84 v -0.01 -0.01 0 l -0.01,-0.01 v 0 -0.01 0 -0.01 0 l -0.01,-0.01 v 0 -0.01 0 -0.01 0 -0.01 h -0.01 v 0 -0.01 0 0 -0.01 0 -0.01 h -0.01 v -0.01 0 0 -0.01 0 h -0.01 v -0.01 0 0 0 0 -0.01 0 h -0.01 v 0 0 c -0.06,-0.02 -0.17,-0.02 -0.26,-0.02 -0.17,0 -0.35,0 -0.35,-0.28 0,-0.11 0.08,-0.19 0.19,-0.19 0.29,0 0.62,0.03 0.92,0.03 0.35,0 0.73,-0.03 1.07,-0.03 0.06,0 0.25,0 0.25,0.29 0,0.17 -0.16,0.18 -0.25,0.18 -0.14,0 -0.3,0 -0.43,0.01 l 0.43,1.73 c 0.14,-0.14 0.47,-0.36 1,-0.36 l -0.02,0.36 c -0.59,0 -0.83,0.47 -0.83,0.58 l 0.02,0.14 0.61,2.5 c 0.29,0.34 0.76,0.65 1.24,0.65 0.62,0 0.67,-0.54 0.67,-0.76 0,-0.52 -0.34,-1.74 -0.5,-2.13 -0.31,-0.73 -0.8,-0.98 -1.21,-0.98 l 0.02,-0.36 c 1.74,0 2.81,1.58 2.81,2.94 0,1.23 -0.92,1.65 -1.74,1.65 -0.71,0 -1.23,-0.39 -1.39,-0.54 -0.38,0.54 -1.03,0.54 -1.14,0.54 -0.37,0 -0.66,-0.21 -0.87,-0.57 -0.25,-0.4 -0.38,-0.94 -0.38,-0.99 0,-0.14 0.15,-0.14 0.24,-0.14 0.11,0 0.15,0 0.2,0.05 0.02,0.02 0.02,0.04 0.08,0.29 0.2,0.8 0.43,1 0.68,1 0.11,0 0.23,-0.04 0.23,-0.37 0,-0.15 -0.02,-0.29 -0.06,-0.43 z"
         id="path4299" /></g>
    <g
       style="font-style:normal;font-variant:normal;font-weight:normal;font-stretch:normal;letter-spacing:normal;word-spacing:normal;text-anchor:start;fill:#ff6600;fill-opacity:1;fill-rule:evenodd;stroke:#000000;stroke-linecap:butt;stroke-linejoin:miter;stroke-miterlimit:10.433;stroke-dasharray:none;stroke-dashoffset:0;stroke-opacity:1"
       ns0:preamble="/home/eric/BHLectures/Notes/latex_inkscape.ini"
       ns0:text="$\\bm{p\'}$"
       word-spacing="normal"
       letter-spacing="normal"
       font-size-adjust="none"
       font-stretch="normal"
       font-weight="normal"
       font-variant="normal"
       font-style="normal"
       stroke-miterlimit="10.433"
       xml:space="preserve"
       transform="matrix(3,0,0,-3,-56.756525,2640.2544)"
       id="content"><path
         id="path4456"
         d="m 223.95,705.84 v -0.01 -0.01 0 l -0.01,-0.01 v 0 -0.01 0 -0.01 0 l -0.01,-0.01 v 0 -0.01 0 -0.01 0 -0.01 h -0.01 v 0 -0.01 0 0 -0.01 0 -0.01 h -0.01 v -0.01 0 0 -0.01 0 h -0.01 v -0.01 0 0 0 0 -0.01 0 h -0.01 v 0 0 c -0.06,-0.02 -0.17,-0.02 -0.26,-0.02 -0.17,0 -0.35,0 -0.35,-0.28 0,-0.11 0.08,-0.19 0.19,-0.19 0.29,0 0.62,0.03 0.92,0.03 0.35,0 0.73,-0.03 1.07,-0.03 0.06,0 0.25,0 0.25,0.29 0,0.17 -0.16,0.18 -0.25,0.18 -0.14,0 -0.3,0 -0.43,0.01 l 0.43,1.73 c 0.14,-0.14 0.47,-0.36 1,-0.36 l -0.02,0.36 c -0.59,0 -0.83,0.47 -0.83,0.58 l 0.02,0.14 0.61,2.5 c 0.29,0.34 0.76,0.65 1.24,0.65 0.62,0 0.67,-0.54 0.67,-0.76 0,-0.52 -0.34,-1.74 -0.5,-2.13 -0.31,-0.73 -0.8,-0.98 -1.21,-0.98 l 0.02,-0.36 c 1.74,0 2.81,1.58 2.81,2.94 0,1.23 -0.92,1.65 -1.74,1.65 -0.71,0 -1.23,-0.39 -1.39,-0.54 -0.38,0.54 -1.03,0.54 -1.14,0.54 -0.37,0 -0.66,-0.21 -0.87,-0.57 -0.25,-0.4 -0.38,-0.94 -0.38,-0.99 0,-0.14 0.15,-0.14 0.24,-0.14 0.11,0 0.15,0 0.2,0.05 0.02,0.02 0.02,0.04 0.08,0.29 0.2,0.8 0.43,1 0.68,1 0.11,0 0.23,-0.04 0.23,-0.37 0,-0.15 -0.02,-0.29 -0.06,-0.43 z"
         style="fill:#ff6600;stroke-width:0"
         inkscape:connector-curvature="0" /><path
         id="path4458"
         d="m 231.87,713.8 0.01,0.02 0.01,0.01 0.01,0.02 0.01,0.01 v 0.02 l 0.01,0.02 0.01,0.01 v 0.02 l 0.01,0.01 v 0.01 0 0.01 0.01 l 0.01,0.01 v 0.01 0.01 0.01 0.01 0.02 0.01 l 0.01,0.01 v 0.01 0.02 0.01 c 0,0.36 -0.34,0.55 -0.58,0.55 -0.21,0 -0.41,-0.11 -0.52,-0.39 l -1.08,-2.9 c -0.04,-0.1 -0.04,-0.11 -0.04,-0.13 0,-0.02 0,-0.08 0.08,-0.12 0.06,-0.04 0.36,-0.18 0.4,-0.18 0.08,0 0.09,0.04 0.15,0.14 z"
         style="fill:#ff6600;stroke-width:0"
         inkscape:connector-curvature="0" /></g>
    <path
       d="m 478.58508,638.69775 a 85.723862,85.43528 0 0 1 -4.66957,98.96731"
       sodipodi:open="true"
       sodipodi:end="0.66551536"
       sodipodi:start="5.7116491"
       sodipodi:ry="85.43528"
       sodipodi:rx="85.723862"
       sodipodi:cy="684.9118"
       sodipodi:cx="406.48523"
       sodipodi:type="arc"
       id="path4573"
       style="fill:none;fill-opacity:1;stroke:#000000;stroke-width:2;stroke-miterlimit:4;stroke-dasharray:none;stroke-dashoffset:0;stroke-opacity:1;marker-start:url(#Arrow1Mstart)"
       sodipodi:arc-type="arc" />
    <g
       style="font-style:normal;font-variant:normal;font-weight:normal;font-stretch:normal;letter-spacing:normal;word-spacing:normal;text-anchor:start;fill:#806600;fill-opacity:1;fill-rule:evenodd;stroke:#000000;stroke-linecap:butt;stroke-linejoin:miter;stroke-miterlimit:10.433;stroke-dasharray:none;stroke-dashoffset:0;stroke-opacity:1"
       ns0:preamble="/home/eric/BHLectures/Notes/latex_inkscape.ini"
       ns0:text="$A$"
       word-spacing="normal"
       letter-spacing="normal"
       font-size-adjust="none"
       font-stretch="normal"
       font-weight="normal"
       font-variant="normal"
       font-style="normal"
       stroke-miterlimit="10.433"
       xml:space="preserve"
       transform="matrix(3,0,0,-3,-345.43718,2690.0711)"
       id="g4923"><path
         id="path4925"
         d="m 225.22,708.27 -0.04,-0.06 -0.04,-0.06 -0.04,-0.06 -0.03,-0.05 -0.04,-0.05 -0.04,-0.04 -0.03,-0.05 -0.04,-0.04 -0.04,-0.04 -0.04,-0.04 -0.03,-0.03 -0.04,-0.03 -0.04,-0.03 -0.04,-0.03 -0.03,-0.03 -0.04,-0.02 -0.04,-0.02 -0.04,-0.02 -0.04,-0.02 -0.03,-0.02 -0.04,-0.01 -0.04,-0.02 -0.04,-0.01 -0.04,-0.01 -0.04,-0.01 -0.04,-0.01 -0.04,-0.01 h -0.04 l -0.08,-0.01 -0.08,-0.01 c -0.12,-0.01 -0.21,-0.01 -0.21,-0.2 0,-0.06 0.05,-0.11 0.13,-0.11 0.27,0 0.58,0.03 0.86,0.03 0.33,0 0.68,-0.03 0.99,-0.03 0.06,0 0.19,0 0.19,0.19 0,0.11 -0.09,0.12 -0.16,0.12 -0.23,0.02 -0.47,0.1 -0.47,0.35 0,0.12 0.06,0.23 0.14,0.37 l 0.76,1.27 h 2.5 l -0.03,0.31 h -2.28 l 1.96,3.29 0.32,-3.29 0.03,-0.31 c 0.02,-0.2 0.16,-1.56 0.16,-1.66 0,-0.3 -0.52,-0.33 -0.72,-0.33 -0.14,0 -0.23,0 -0.23,-0.2 0,-0.11 0.11,-0.11 0.14,-0.11 0.4,0 0.83,0.03 1.24,0.03 0.25,0 0.88,-0.03 1.13,-0.03 0.06,0 0.18,0 0.18,0.2 0,0.11 -0.1,0.11 -0.23,0.11 -0.62,0 -0.62,0.07 -0.65,0.36 l -0.61,6.23 c -0.02,0.2 -0.02,0.24 -0.19,0.24 -0.16,0 -0.2,-0.07 -0.26,-0.17 z"
         inkscape:connector-curvature="0"
         style="fill:#806600;stroke-width:0" /></g>
    <g
       transform="matrix(3 0 0 3 424.583 580.034)"
       ns0:version="1.10.2"
       ns0:texconverter="pdflatex"
       ns0:pdfconverter="inkscape"
       ns0:text="$\\bm{p}_*$"
       ns0:preamble="/home/eric/BHLectures/Notes/latex_inkscape.ini"
       ns0:scale="0.75"
       ns0:alignment="middle center"
       ns0:stroke-to-path="0"
       ns0:inkscapeversion="0.91"
       id="g4368"
       ns0:jacobian_sqrt="3.0"
       style="fill:#ff0000;fill-opacity:1;stroke:#ff0000;stroke-opacity:1;stroke-width:0">
      <defs
         id="id-d6941977-243f-468a-b92f-dc000eac1b6e"
         style="fill:#ff0000;fill-opacity:1;stroke:#ff0000;stroke-opacity:1;stroke-width:0">
        <g
           id="id-76401e18-e26a-4f4d-88dd-22207c9c7fa2"
           style="fill:#ff0000;fill-opacity:1;stroke:#ff0000;stroke-opacity:1;stroke-width:0">
          <symbol
             overflow="visible"
             id="id-55e75aa5-e7cf-4e85-a454-4902854b8152"
             style="fill:#ff0000;fill-opacity:1;stroke:#ff0000;stroke-opacity:1;stroke-width:0">
            <path
               style="stroke:#ff0000;fill:#ff0000;fill-opacity:1;stroke-opacity:1;stroke-width:0"
               d=""
               id="id-e176aec6-773f-4305-a945-adc524ef8eee" />
          </symbol>
          <symbol
             overflow="visible"
             id="id-85f4ef29-0875-4d12-b107-d3855c220999"
             style="fill:#ff0000;fill-opacity:1;stroke:#ff0000;stroke-opacity:1;stroke-width:0">
            <path
               style="stroke:#ff0000;fill:#ff0000;fill-opacity:1;stroke-opacity:1;stroke-width:0"
               d="M 0.515625,1.28125 C 0.484375,1.421875 0.46875,1.4375 0.453125,1.453125 0.40625,1.46875 0.296875,1.46875 0.203125,1.46875 c -0.171875,0 -0.359375,0 -0.359375,0.28125 0,0.109375 0.09375,0.1875 0.203125,0.1875 0.28125,0 0.609375,-0.03125 0.90625,-0.03125 0.359375,0 0.734375,0.03125 1.078125,0.03125 0.0625,0 0.25,0 0.25,-0.296875 0,-0.171875 -0.15625,-0.171875 -0.25,-0.171875 -0.140625,0 -0.3125,0 -0.4375,-0.015625 l 0.4375,-1.734375 c 0.140625,0.140625 0.46875,0.359375 1,0.359375 1.734375,0 2.8125,-1.578125 2.8125,-2.9375 C 5.84375,-4.09375 4.921875,-4.5 4.09375,-4.5 3.390625,-4.5 2.875,-4.109375 2.71875,-3.96875 2.328125,-4.5 1.671875,-4.5 1.5625,-4.5 1.203125,-4.5 0.90625,-4.296875 0.703125,-3.9375 0.453125,-3.53125 0.3125,-3 0.3125,-2.953125 c 0,0.140625 0.15625,0.140625 0.25,0.140625 0.109375,0 0.140625,0 0.1875,-0.046875 C 0.78125,-2.875 0.78125,-2.90625 0.84375,-3.15625 c 0.1875,-0.796875 0.421875,-0.984375 0.671875,-0.984375 0.109375,0 0.234375,0.03125 0.234375,0.359375 0,0.15625 -0.03125,0.296875 -0.0625,0.4375 z M 2.8125,-3.5 c 0.28125,-0.34375 0.75,-0.640625 1.234375,-0.640625 0.625,0 0.671875,0.53125 0.671875,0.75 0,0.515625 -0.34375,1.75 -0.5,2.140625 -0.3125,0.71875 -0.796875,0.96875 -1.203125,0.96875 C 2.421875,-0.28125 2.1875,-0.75 2.1875,-0.859375 L 2.203125,-1 Z m 0,0"
               id="id-b0e5679b-837a-4f9b-9e45-2f702108ea2a" />
          </symbol>
          <symbol
             overflow="visible"
             id="id-c0634cb7-b257-4655-932c-8063dfa94c00"
             style="fill:#ff0000;fill-opacity:1;stroke:#ff0000;stroke-opacity:1;stroke-width:0">
            <path
               style="stroke:#ff0000;fill:#ff0000;fill-opacity:1;stroke-opacity:1;stroke-width:0"
               d=""
               id="id-7f52f050-fab1-4ab8-9ee2-f1b66dddb9bb" />
          </symbol>
          <symbol
             overflow="visible"
             id="id-ade8efc9-98ea-432b-87a7-21038684b102"
             style="fill:#ff0000;fill-opacity:1;stroke:#ff0000;stroke-opacity:1;stroke-width:0">
            <path
               style="stroke:#ff0000;fill:#ff0000;fill-opacity:1;stroke-opacity:1;stroke-width:0"
               d="m 2.25,-1.734375 c 0.578125,-0.25 0.828125,-0.34375 1,-0.4375 0.140625,-0.046875 0.203125,-0.078125 0.203125,-0.21875 0,-0.109375 -0.09375,-0.21875 -0.21875,-0.21875 -0.046875,0 -0.0625,0 -0.140625,0.0625 L 2.140625,-1.90625 2.25,-2.9375 c 0.015625,-0.125 0,-0.296875 -0.21875,-0.296875 -0.078125,0 -0.21875,0.046875 -0.21875,0.203125 0,0.0625 0.03125,0.265625 0.046875,0.34375 0.015625,0.109375 0.0625,0.625 0.078125,0.78125 L 0.984375,-2.546875 c -0.0625,-0.03125 -0.078125,-0.0625 -0.140625,-0.0625 -0.140625,0 -0.21875,0.109375 -0.21875,0.21875 0,0.140625 0.078125,0.1875 0.140625,0.203125 L 1.8125,-1.734375 c -0.5625,0.25 -0.828125,0.34375 -1,0.421875 -0.125,0.0625 -0.1875,0.09375 -0.1875,0.21875 0,0.125 0.078125,0.21875 0.21875,0.21875 0.046875,0 0.0625,0 0.140625,-0.0625 l 0.953125,-0.625 -0.125,1.109375 c 0,0.15625 0.140625,0.21875 0.21875,0.21875 0.09375,0 0.21875,-0.0625 0.21875,-0.21875 0,-0.0625 -0.03125,-0.265625 -0.03125,-0.328125 -0.015625,-0.125 -0.0625,-0.625 -0.078125,-0.78125 L 2.96875,-1.015625 C 3.15625,-0.875 3.171875,-0.875 3.234375,-0.875 c 0.125,0 0.21875,-0.09375 0.21875,-0.21875 0,-0.140625 -0.09375,-0.171875 -0.15625,-0.203125 z m 0,0"
               id="id-b012f3d3-f185-4898-8721-23e017dca933" />
          </symbol>
        </g>
      </defs>
      <g
         id="id-d76a4b14-a4b1-478c-a1e2-9d2d06da5573"
         transform="translate(-148.556, -130.265)"
         style="fill:#ff0000;fill-opacity:1;stroke:#ff0000;stroke-opacity:1;stroke-width:0">
        <g
           style="fill:#ff0000;fill-opacity:1;stroke:#ff0000;stroke-opacity:1;stroke-width:0"
           id="id-b3495b81-8d82-40dc-a87b-e69a0252bce1">
          <g
             transform="translate(148.712, 134.765)"
             id="g6595"
             style="fill:#ff0000;fill-opacity:1;stroke:#ff0000;stroke-opacity:1;stroke-width:0">
            <path
               style="stroke:#ff0000;fill:#ff0000;fill-opacity:1;stroke-opacity:1;stroke-width:0"
               d="M 0.515625,1.28125 C 0.484375,1.421875 0.46875,1.4375 0.453125,1.453125 0.40625,1.46875 0.296875,1.46875 0.203125,1.46875 c -0.171875,0 -0.359375,0 -0.359375,0.28125 0,0.109375 0.09375,0.1875 0.203125,0.1875 0.28125,0 0.609375,-0.03125 0.90625,-0.03125 0.359375,0 0.734375,0.03125 1.078125,0.03125 0.0625,0 0.25,0 0.25,-0.296875 0,-0.171875 -0.15625,-0.171875 -0.25,-0.171875 -0.140625,0 -0.3125,0 -0.4375,-0.015625 l 0.4375,-1.734375 c 0.140625,0.140625 0.46875,0.359375 1,0.359375 1.734375,0 2.8125,-1.578125 2.8125,-2.9375 C 5.84375,-4.09375 4.921875,-4.5 4.09375,-4.5 3.390625,-4.5 2.875,-4.109375 2.71875,-3.96875 2.328125,-4.5 1.671875,-4.5 1.5625,-4.5 1.203125,-4.5 0.90625,-4.296875 0.703125,-3.9375 0.453125,-3.53125 0.3125,-3 0.3125,-2.953125 c 0,0.140625 0.15625,0.140625 0.25,0.140625 0.109375,0 0.140625,0 0.1875,-0.046875 C 0.78125,-2.875 0.78125,-2.90625 0.84375,-3.15625 c 0.1875,-0.796875 0.421875,-0.984375 0.671875,-0.984375 0.109375,0 0.234375,0.03125 0.234375,0.359375 0,0.15625 -0.03125,0.296875 -0.0625,0.4375 z M 2.8125,-3.5 c 0.28125,-0.34375 0.75,-0.640625 1.234375,-0.640625 0.625,0 0.671875,0.53125 0.671875,0.75 0,0.515625 -0.34375,1.75 -0.5,2.140625 -0.3125,0.71875 -0.796875,0.96875 -1.203125,0.96875 C 2.421875,-0.28125 2.1875,-0.75 2.1875,-0.859375 L 2.203125,-1 Z m 0,0"
               id="id-c101f8ba-6701-4ba6-a6c5-97b97ee4cda8" />
          </g>
        </g>
        <g
           style="fill:#ff0000;fill-opacity:1;stroke:#ff0000;stroke-opacity:1;stroke-width:0"
           id="id-27dff3a6-62e9-4d39-92c7-646b253ff375">
          <g
             transform="translate(154.699, 136.259)"
             id="g1457"
             style="fill:#ff0000;fill-opacity:1;stroke:#ff0000;stroke-opacity:1;stroke-width:0">
            <path
               style="stroke:#ff0000;fill:#ff0000;fill-opacity:1;stroke-opacity:1;stroke-width:0"
               d="m 2.25,-1.734375 c 0.578125,-0.25 0.828125,-0.34375 1,-0.4375 0.140625,-0.046875 0.203125,-0.078125 0.203125,-0.21875 0,-0.109375 -0.09375,-0.21875 -0.21875,-0.21875 -0.046875,0 -0.0625,0 -0.140625,0.0625 L 2.140625,-1.90625 2.25,-2.9375 c 0.015625,-0.125 0,-0.296875 -0.21875,-0.296875 -0.078125,0 -0.21875,0.046875 -0.21875,0.203125 0,0.0625 0.03125,0.265625 0.046875,0.34375 0.015625,0.109375 0.0625,0.625 0.078125,0.78125 L 0.984375,-2.546875 c -0.0625,-0.03125 -0.078125,-0.0625 -0.140625,-0.0625 -0.140625,0 -0.21875,0.109375 -0.21875,0.21875 0,0.140625 0.078125,0.1875 0.140625,0.203125 L 1.8125,-1.734375 c -0.5625,0.25 -0.828125,0.34375 -1,0.421875 -0.125,0.0625 -0.1875,0.09375 -0.1875,0.21875 0,0.125 0.078125,0.21875 0.21875,0.21875 0.046875,0 0.0625,0 0.140625,-0.0625 l 0.953125,-0.625 -0.125,1.109375 c 0,0.15625 0.140625,0.21875 0.21875,0.21875 0.09375,0 0.21875,-0.0625 0.21875,-0.21875 0,-0.0625 -0.03125,-0.265625 -0.03125,-0.328125 -0.015625,-0.125 -0.0625,-0.625 -0.078125,-0.78125 L 2.96875,-1.015625 C 3.15625,-0.875 3.171875,-0.875 3.234375,-0.875 c 0.125,0 0.21875,-0.09375 0.21875,-0.21875 0,-0.140625 -0.09375,-0.171875 -0.15625,-0.203125 z m 0,0"
               id="id-aff1ed16-601a-4c70-834c-fc3524882b2f" />
          </g>
        </g>
      </g>
    </g>
  </g>
</svg>
