<?xml version="1.0" encoding="UTF-8" standalone="no"?>
<!-- Created with Inkscape (http://www.inkscape.org/) -->

<svg
   xmlns:ns0="http://www.iki.fi/pav/software/textext/"
   xmlns:dc="http://purl.org/dc/elements/1.1/"
   xmlns:cc="http://creativecommons.org/ns#"
   xmlns:rdf="http://www.w3.org/1999/02/22-rdf-syntax-ns#"
   xmlns:svg="http://www.w3.org/2000/svg"
   xmlns="http://www.w3.org/2000/svg"
   xmlns:sodipodi="http://sodipodi.sourceforge.net/DTD/sodipodi-0.dtd"
   xmlns:inkscape="http://www.inkscape.org/namespaces/inkscape"
   width="297mm"
   height="210mm"
   viewBox="0 0 297 210"
   version="1.1"
   id="svg8"
   sodipodi:docname="gek_torus.svg"
   inkscape:version="0.92.5 (2060ec1f9f, 2020-04-08)">
  <sodipodi:namedview
     id="base"
     pagecolor="#ffffff"
     bordercolor="#666666"
     borderopacity="1.0"
     inkscape:pageopacity="0.0"
     inkscape:pageshadow="2"
     inkscape:zoom="2.4383886"
     inkscape:cx="576.07971"
     inkscape:cy="418.52346"
     inkscape:document-units="mm"
     inkscape:current-layer="layer1"
     showgrid="false"
     showguides="true"
     inkscape:guide-bbox="true"
     inkscape:window-width="1848"
     inkscape:window-height="1016"
     inkscape:window-x="72"
     inkscape:window-y="27"
     inkscape:window-maximized="1">
    <inkscape:grid
       type="xygrid"
       id="grid815" />
    <sodipodi:guide
       position="200.12063,3.2931243"
       orientation="0,1"
       id="guide823"
       inkscape:locked="false" />
    <sodipodi:guide
       position="-7.8528348,142.36429"
       orientation="1,0"
       id="guide825"
       inkscape:locked="false" />
  </sodipodi:namedview>
  <defs
     id="defs2">
    <marker
       inkscape:stockid="Arrow1Mend"
       orient="auto"
       refY="0.0"
       refX="0.0"
       id="Arrow1Mend"
       style="overflow:visible;"
       inkscape:isstock="true">
      <path
         id="path4751"
         d="M 0.0,0.0 L 5.0,-5.0 L -12.5,0.0 L 5.0,5.0 L 0.0,0.0 z "
         style="fill-rule:evenodd;stroke:#000000;stroke-width:1pt;stroke-opacity:1;fill:#000000;fill-opacity:1"
         transform="scale(0.4) rotate(180) translate(10,0)" />
    </marker>
  </defs>
  <metadata
     id="metadata5">
    <rdf:RDF>
      <cc:Work
         rdf:about="">
        <dc:format>image/svg+xml</dc:format>
        <dc:type
           rdf:resource="http://purl.org/dc/dcmitype/StillImage" />
        <dc:title />
      </cc:Work>
    </rdf:RDF>
  </metadata>
  <g
     inkscape:label="Calque 1"
     inkscape:groupmode="layer"
     id="layer1"
     transform="translate(0,-87)">
    <path
       style="fill:#ffd5d5;fill-opacity:1;stroke:#ff0000;stroke-width:1;stroke-miterlimit:4;stroke-dasharray:none;stroke-dashoffset:0;stroke-opacity:1"
       id="path827"
       sodipodi:type="arc"
       sodipodi:cx="142.96835"
       sodipodi:cy="185.96835"
       sodipodi:rx="54.083443"
       sodipodi:ry="54.083443"
       sodipodi:start="5.8218336"
       sodipodi:end="0.45386138"
       d="m 191.39746,161.89263 a 54.083443,54.083443 0 0 1 0.17897,47.78803 l -48.60808,-23.71231 z" />
    <path
       style="fill:none;fill-rule:evenodd;stroke:#000000;stroke-width:0.5;stroke-linecap:butt;stroke-linejoin:miter;stroke-miterlimit:4;stroke-dasharray:none;stroke-opacity:1"
       d="m 95.25,181.90625 v 7.9375"
       id="path4539-3-6"
       inkscape:connector-curvature="0" />
    <path
       style="fill:none;fill-rule:evenodd;stroke:#000000;stroke-width:0.5;stroke-linecap:butt;stroke-linejoin:miter;stroke-miterlimit:4;stroke-dasharray:none;stroke-opacity:1"
       d="m 119.0625,181.90625 v 7.9375"
       id="path4539-3-6-7"
       inkscape:connector-curvature="0" />
    <path
       style="fill:#ffffff;fill-opacity:1;stroke:#ff0000;stroke-width:1;stroke-miterlimit:4;stroke-dasharray:none;stroke-dashoffset:0;stroke-opacity:1"
       id="path4664"
       sodipodi:type="arc"
       sodipodi:cx="143.35701"
       sodipodi:cy="185.5797"
       sodipodi:rx="17.192833"
       sodipodi:ry="17.130596"
       sodipodi:start="5.8244564"
       sodipodi:end="0.47233326"
       d="m 158.77238,177.99412 a 17.192833,17.130596 0 0 1 -0.10499,15.3794 l -15.31038,-7.79382 z" />
    <path
       style="fill:#ffd5d5;fill-opacity:1;stroke:#ff0000;stroke-width:1;stroke-miterlimit:4;stroke-dasharray:none;stroke-dashoffset:0;stroke-opacity:1"
       id="path827-2"
       sodipodi:type="arc"
       sodipodi:cx="-142.96835"
       sodipodi:cy="185.96835"
       sodipodi:rx="54.083443"
       sodipodi:ry="54.083443"
       sodipodi:start="5.8218336"
       sodipodi:end="0.45386138"
       d="m -94.539248,161.89263 a 54.083443,54.083443 0 0 1 0.178974,47.78803 l -48.608076,-23.71231 z"
       transform="scale(-1,1)" />
    <path
       style="fill:#ffffff;fill-opacity:1;stroke:#ff0000;stroke-width:1;stroke-miterlimit:4;stroke-dasharray:none;stroke-dashoffset:0;stroke-opacity:1"
       id="path4664-0"
       sodipodi:type="arc"
       sodipodi:cx="-142.25221"
       sodipodi:cy="185.91313"
       sodipodi:rx="17.192833"
       sodipodi:ry="17.130596"
       sodipodi:start="5.8244564"
       sodipodi:end="0.47233326"
       d="m -126.83684,178.32755 a 17.192833,17.130596 0 0 1 -0.105,15.37941 l -15.31037,-7.79383 z"
       transform="scale(-1,1)" />
    <ellipse
       style="fill:#ffffff;fill-opacity:1;stroke:none;stroke-width:0.19893824;stroke-miterlimit:4;stroke-dasharray:none;stroke-dashoffset:0;stroke-opacity:1"
       id="path4736"
       cx="142.90697"
       cy="185.7538"
       rx="17.119751"
       ry="17.52906" />
    <circle
       style="fill:#000000;fill-opacity:1;stroke:#000000;stroke-width:0.69963348;stroke-miterlimit:4;stroke-dasharray:none;stroke-dashoffset:0;stroke-opacity:1;opacity:1"
       id="path834"
       cx="142.875"
       cy="185.95781"
       r="8.3300114" />
    <path
       style="fill:none;fill-rule:evenodd;stroke:#000000;stroke-width:0.50000001;stroke-linecap:butt;stroke-linejoin:miter;stroke-miterlimit:4;stroke-dasharray:4.00000011,1.00000003,0.50000001,1.00000003;stroke-opacity:1;stroke-dashoffset:0"
       d="m 142.77189,155.36939 v 64.45376"
       id="path4700-7"
       inkscape:connector-curvature="0" />
    <path
       style="fill:none;fill-rule:evenodd;stroke:#000000;stroke-width:0.5;stroke-linecap:butt;stroke-linejoin:miter;stroke-miterlimit:4;stroke-dasharray:none;stroke-opacity:1"
       d="M 81.51147,186.04269 H 205.36115"
       id="path4700"
       inkscape:connector-curvature="0" />
    <path
       style="fill:none;fill-rule:evenodd;stroke:#000000;stroke-width:0.4;stroke-linecap:butt;stroke-linejoin:miter;stroke-opacity:1;stroke-miterlimit:4;stroke-dasharray:none;marker-end:url(#Arrow1Mend)"
       d="m 142.99401,159.14966 c 15.05383,0.07 22.01707,11.07369 23.76375,14.40228"
       id="path4740"
       inkscape:connector-curvature="0"
       sodipodi:nodetypes="cc" />
    <g
       style="font-style:normal;font-variant:normal;font-weight:normal;font-stretch:normal;letter-spacing:normal;word-spacing:normal;text-anchor:start;fill:none;fill-opacity:1;fill-rule:evenodd;stroke:#000000;stroke-linecap:butt;stroke-linejoin:miter;stroke-miterlimit:10.43299961;stroke-dasharray:none;stroke-dashoffset:0;stroke-opacity:1"
       ns0:preamble="/home/eric/BHLectures/Notes/latex_inkscape.ini"
       ns0:text="$r_{\\rm p}$"
       word-spacing="normal"
       letter-spacing="normal"
       font-size-adjust="none"
       font-stretch="normal"
       font-weight="normal"
       font-variant="normal"
       font-style="normal"
       stroke-miterlimit="10.433"
       xml:space="preserve"
       transform="matrix(0.77216249,0,0,-0.77216249,-19.454222,745.64125)"
       id="g5182">
<path
   id="path5178"
   d="m 224.31,707.71 v -0.01 l -0.01,-0.02 v -0.01 -0.02 l -0.01,-0.03 -0.01,-0.03 v -0.03 l -0.01,-0.04 -0.01,-0.03 -0.01,-0.03 v -0.01 -0.02 l -0.01,-0.01 v -0.02 -0.01 l -0.01,-0.01 v -0.02 -0.01 -0.01 -0.01 l -0.01,-0.01 v -0.01 -0.01 0 -0.01 -0.01 c 0,-0.18 0.14,-0.26 0.29,-0.26 0.12,0 0.3,0.07 0.37,0.27 0.02,0.04 0.36,1.39 0.4,1.57 0.08,0.33 0.26,1.03 0.32,1.3 0.04,0.12 0.31,0.59 0.55,0.81 0.08,0.07 0.37,0.33 0.8,0.33 0.26,0 0.41,-0.12 0.42,-0.12 -0.3,-0.05 -0.52,-0.29 -0.52,-0.55 0,-0.16 0.11,-0.35 0.38,-0.35 0.27,0 0.55,0.23 0.55,0.59 0,0.35 -0.32,0.65 -0.83,0.65 -0.65,0 -1.08,-0.49 -1.27,-0.77 -0.08,0.45 -0.44,0.77 -0.91,0.77 -0.46,0 -0.65,-0.39 -0.74,-0.57 -0.18,-0.34 -0.31,-0.93 -0.31,-0.96 0,-0.1 0.1,-0.1 0.12,-0.1 0.1,0 0.11,0.01 0.17,0.22 0.17,0.71 0.37,1.19 0.73,1.19 0.17,0 0.31,-0.08 0.31,-0.46 0,-0.21 -0.03,-0.32 -0.16,-0.83 z"
   inkscape:connector-curvature="0"
   style="fill:#000000;stroke-width:0" />
<path
   id="path5180"
   d="m 229.87,704.53 h -0.02 -0.02 -0.02 -0.02 -0.02 -0.02 -0.01 -0.02 -0.02 -0.02 -0.01 -0.02 -0.01 l -0.02,0.01 h -0.01 -0.01 -0.02 -0.01 -0.02 -0.02 l -0.03,0.01 h -0.01 l -0.02,0.01 h -0.02 l -0.01,0.01 -0.02,0.01 -0.01,0.01 h -0.01 l -0.01,0.01 -0.01,0.02 v 0.01 l -0.01,0.01 -0.01,0.02 v 0.01 0.02 l -0.01,0.02 v 0.02 0.02 0.03 0.02 0.03 1.14 c 0.03,-0.04 0.36,-0.41 0.95,-0.41 l -0.04,0.2 c -0.62,0 -0.89,0.53 -0.91,0.57 v 1.62 c 0.21,0.34 0.61,0.52 0.98,0.52 0.59,0 1.04,-0.61 1.04,-1.34 0,-0.79 -0.52,-1.37 -1.11,-1.37 l 0.04,-0.2 c 0.92,0 1.71,0.69 1.71,1.57 0,0.86 -0.71,1.57 -1.6,1.57 -0.4,0 -0.81,-0.15 -1.09,-0.43 v 0.43 l -1.05,-0.08 v -0.25 c 0.49,0 0.52,-0.03 0.52,-0.33 v -3.21 c 0,-0.3 -0.07,-0.3 -0.52,-0.3 v -0.25 c 0.01,0 0.5,0.03 0.8,0.03 0.25,0 0.74,-0.02 0.8,-0.03 z"
   inkscape:connector-curvature="0"
   style="fill:#000000;stroke-width:0" />
</g>    <g
       id="g5267"
       transform="matrix(0.77216249,0,0,-0.77216249,17.142537,762.03636)"
       xml:space="preserve"
       stroke-miterlimit="10.433"
       font-style="normal"
       font-variant="normal"
       font-weight="normal"
       font-stretch="normal"
       font-size-adjust="none"
       letter-spacing="normal"
       word-spacing="normal"
       ns0:text="$r_{\\rm a}$"
       ns0:preamble="/home/eric/BHLectures/Notes/latex_inkscape.ini"
       style="font-style:normal;font-variant:normal;font-weight:normal;font-stretch:normal;letter-spacing:normal;word-spacing:normal;text-anchor:start;fill:none;fill-opacity:1;fill-rule:evenodd;stroke:#000000;stroke-linecap:butt;stroke-linejoin:miter;stroke-miterlimit:10.43299961;stroke-dasharray:none;stroke-dashoffset:0;stroke-opacity:1">
<path
   style="fill:#000000;stroke-width:0"
   inkscape:connector-curvature="0"
   d="m 224.31,707.71 v -0.01 l -0.01,-0.02 v -0.01 -0.02 l -0.01,-0.03 -0.01,-0.03 v -0.03 l -0.01,-0.04 -0.01,-0.03 -0.01,-0.03 v -0.01 -0.02 l -0.01,-0.01 v -0.02 -0.01 l -0.01,-0.01 v -0.02 -0.01 -0.01 -0.01 l -0.01,-0.01 v -0.01 -0.01 0 -0.01 -0.01 c 0,-0.18 0.14,-0.26 0.29,-0.26 0.12,0 0.3,0.07 0.37,0.27 0.02,0.04 0.36,1.39 0.4,1.57 0.08,0.33 0.26,1.03 0.32,1.3 0.04,0.12 0.31,0.59 0.55,0.81 0.08,0.07 0.37,0.33 0.8,0.33 0.26,0 0.41,-0.12 0.42,-0.12 -0.3,-0.05 -0.52,-0.29 -0.52,-0.55 0,-0.16 0.11,-0.35 0.38,-0.35 0.27,0 0.55,0.23 0.55,0.59 0,0.35 -0.32,0.65 -0.83,0.65 -0.65,0 -1.08,-0.49 -1.27,-0.77 -0.08,0.45 -0.44,0.77 -0.91,0.77 -0.46,0 -0.65,-0.39 -0.74,-0.57 -0.18,-0.34 -0.31,-0.93 -0.31,-0.96 0,-0.1 0.1,-0.1 0.12,-0.1 0.1,0 0.11,0.01 0.17,0.22 0.17,0.71 0.37,1.19 0.73,1.19 0.17,0 0.31,-0.08 0.31,-0.46 0,-0.21 -0.03,-0.32 -0.16,-0.83 z"
   id="path5263" />
<path
   style="fill:#000000;stroke-width:0"
   inkscape:connector-curvature="0"
   d="m 231.04,707.49 v 0.07 0.07 0.06 0.06 0.03 0.03 l -0.01,0.03 v 0.03 l -0.01,0.03 v 0.03 l -0.01,0.02 -0.01,0.03 v 0.03 l -0.01,0.02 -0.01,0.03 -0.01,0.03 -0.02,0.02 -0.01,0.03 -0.01,0.02 -0.02,0.03 -0.02,0.02 -0.02,0.03 -0.02,0.02 -0.02,0.03 -0.02,0.02 -0.03,0.03 -0.03,0.02 -0.03,0.03 c -0.28,0.23 -0.62,0.34 -1.03,0.34 -0.67,0 -1.13,-0.25 -1.13,-0.67 0,-0.22 0.15,-0.34 0.33,-0.34 0.19,0 0.33,0.14 0.33,0.32 0,0.12 -0.06,0.27 -0.24,0.32 0.25,0.18 0.65,0.18 0.7,0.18 0.39,0 0.81,-0.26 0.81,-0.84 v -0.22 -0.18 -0.69 c 0,-0.67 -0.58,-0.85 -0.9,-0.85 -0.36,0 -0.69,0.23 -0.69,0.57 0,0.39 0.33,0.92 1.59,0.97 v 0.18 c -0.38,-0.01 -0.84,-0.03 -1.35,-0.22 -0.63,-0.23 -0.83,-0.61 -0.83,-0.93 0,-0.6 0.73,-0.77 1.23,-0.77 0.55,0 0.88,0.31 1.03,0.59 0.03,-0.29 0.22,-0.55 0.54,-0.55 0.01,0 0.69,0 0.69,0.66 v 0.38 h -0.24 v -0.38 c 0,-0.07 0,-0.4 -0.26,-0.4 -0.26,0 -0.26,0.33 -0.26,0.42 z"
   id="path5265" />
</g>    <g
       style="font-style:normal;font-variant:normal;font-weight:normal;font-stretch:normal;letter-spacing:normal;word-spacing:normal;text-anchor:start;fill:none;fill-opacity:1;fill-rule:evenodd;stroke:#000000;stroke-linecap:butt;stroke-linejoin:miter;stroke-miterlimit:10.43299961;stroke-dasharray:none;stroke-dashoffset:0;stroke-opacity:1"
       ns0:preamble="/home/eric/BHLectures/Notes/latex_inkscape.ini"
       ns0:text="$\\theta\\!=\\!\\frac{\\pi}{2}$"
       word-spacing="normal"
       letter-spacing="normal"
       font-size-adjust="none"
       font-stretch="normal"
       font-weight="normal"
       font-variant="normal"
       font-style="normal"
       stroke-miterlimit="10.433"
       xml:space="preserve"
       transform="matrix(0.77216249,0,0,-0.77216249,34.57559,734.60844)"
       id="g5375">
<path
   id="path5363"
   d="m 227.97,712.09 v 0.07 0.06 l -0.01,0.07 v 0.08 l -0.01,0.07 v 0.08 l -0.01,0.08 -0.01,0.09 -0.02,0.08 -0.01,0.08 -0.02,0.09 -0.02,0.08 -0.02,0.09 -0.03,0.08 -0.03,0.08 -0.03,0.09 -0.03,0.07 -0.04,0.08 -0.04,0.08 -0.04,0.07 -0.05,0.06 -0.05,0.07 -0.05,0.06 -0.06,0.05 -0.06,0.05 -0.04,0.02 -0.03,0.03 -0.03,0.02 -0.04,0.01 -0.04,0.02 -0.03,0.02 -0.04,0.01 -0.04,0.01 -0.04,0.01 -0.05,0.01 -0.04,0.01 h -0.04 l -0.05,0.01 h -0.05 l -0.01,-0.22 c 0.49,0 0.55,-0.64 0.55,-1.2 0,-0.49 -0.08,-1 -0.32,-1.98 h -2.08 c 0.17,0.64 0.37,1.43 0.77,2.14 0.27,0.48 0.63,1.04 1.08,1.04 l 0.01,0.22 c -1.38,0 -2.92,-2.8 -2.92,-5.08 0,-0.93 0.29,-2.03 1.2,-2.03 v 0.21 c -0.33,0 -0.54,0.29 -0.54,1.22 0,0.41 0.06,0.99 0.32,1.96 h 2.07 c -0.11,-0.45 -0.32,-1.3 -0.7,-2.01 -0.35,-0.68 -0.72,-1.17 -1.15,-1.17 v -0.21 c 1.4,0 2.92,2.85 2.92,5.07 z"
   inkscape:connector-curvature="0"
   style="fill:#000000;stroke-width:0" />
<path
   id="path5365"
   d="m 236.34,710.37 h 0.03 0.03 0.03 l 0.02,0.01 h 0.01 0.01 0.02 0.01 0.02 l 0.01,0.01 h 0.01 0.02 l 0.01,0.01 h 0.01 l 0.01,0.01 h 0.01 l 0.02,0.01 0.01,0.01 v 0.01 l 0.01,0.01 0.01,0.01 v 0 l 0.01,0.01 v 0 0.01 l 0.01,0.01 v 0 0.01 0.01 h 0.01 v 0.01 0.01 0.01 0.01 0 0.01 0.01 c 0,0.2 -0.19,0.2 -0.33,0.2 h -5.97 c -0.14,0 -0.33,0 -0.33,-0.2 0,-0.2 0.19,-0.2 0.34,-0.2 z"
   inkscape:connector-curvature="0"
   style="fill:#000000;stroke-width:0" />
<path
   id="path5367"
   d="m 236.35,708.45 h 0.02 0.01 0.03 0.03 0.01 0.01 0.02 0.01 0.02 l 0.01,0.01 h 0.01 0.02 l 0.01,0.01 h 0.01 l 0.01,0.01 h 0.01 l 0.02,0.01 h 0.01 l 0.01,0.01 v 0.01 l 0.01,0.01 h 0.01 v 0.01 0.01 h 0.01 v 0.01 0 l 0.01,0.01 v 0.01 0 0.01 l 0.01,0.01 v 0 0.01 0.01 0.01 0.01 0.01 0.01 c 0,0.19 -0.19,0.19 -0.34,0.19 h -5.95 c -0.15,0 -0.34,0 -0.34,-0.19 0,-0.2 0.19,-0.2 0.33,-0.2 z"
   inkscape:connector-curvature="0"
   style="fill:#000000;stroke-width:0" />
<path
   id="path5369"
   d="m 241.72,713.57 h 0.83 c -0.1,-0.41 -0.26,-1.05 -0.26,-1.6 0,-0.27 0.04,-0.46 0.08,-0.62 0.11,-0.34 0.2,-0.37 0.31,-0.37 0.16,0 0.33,0.14 0.33,0.31 0,0.06 -0.01,0.09 -0.05,0.15 -0.14,0.26 -0.26,0.66 -0.26,1.23 0,0.13 0,0.41 0.09,0.9 h 0.88 c 0.12,0 0.18,0 0.26,0.06 0.1,0.07 0.12,0.18 0.12,0.21 0,0.2 -0.18,0.2 -0.3,0.2 h -2.64 c -0.29,0 -0.48,-0.06 -0.8,-0.35 -0.18,-0.16 -0.45,-0.53 -0.45,-0.6 0,-0.08 0.09,-0.08 0.12,-0.08 0.07,0 0.08,0.01 0.12,0.08 0.36,0.48 0.79,0.48 0.95,0.48 h 0.42 c -0.21,-0.76 -0.59,-1.58 -0.8,-2 -0.04,-0.09 -0.11,-0.24 -0.13,-0.27 -0.01,-0.02 -0.02,-0.05 -0.02,-0.1 0,-0.11 0.08,-0.22 0.24,-0.22 0.28,0 0.36,0.31 0.53,0.94 z"
   inkscape:connector-curvature="0"
   style="fill:#000000;stroke-width:0" />
<line
   id="line5371"
   y2="709.62"
   x2="244.45"
   y1="709.62"
   x1="239.53999"
   style="stroke-width:0.398" />
<path
   id="path5373"
   d="m 243.54,704.96 h -0.23 c -0.02,-0.16 -0.1,-0.57 -0.19,-0.64 -0.05,-0.04 -0.59,-0.04 -0.69,-0.04 h -1.28 c 0.73,0.65 0.97,0.84 1.39,1.17 0.52,0.41 1,0.84 1,1.5 0,0.84 -0.74,1.36 -1.63,1.36 -0.87,0 -1.46,-0.61 -1.46,-1.25 0,-0.35 0.3,-0.39 0.37,-0.39 0.17,0 0.38,0.12 0.38,0.37 0,0.13 -0.05,0.37 -0.42,0.37 0.22,0.49 0.69,0.65 1.02,0.65 0.7,0 1.07,-0.54 1.07,-1.11 0,-0.6 -0.44,-1.08 -0.66,-1.33 l -1.69,-1.66 c -0.07,-0.06 -0.07,-0.07 -0.07,-0.27 h 2.88 z"
   inkscape:connector-curvature="0"
   style="fill:#000000;stroke-width:0" />
</g>    <g
       id="g5496"
       transform="matrix(0.77216249,0,0,-0.77216249,-37.169161,698.90504)"
       xml:space="preserve"
       stroke-miterlimit="10.433"
       font-style="normal"
       font-variant="normal"
       font-weight="normal"
       font-stretch="normal"
       font-size-adjust="none"
       letter-spacing="normal"
       word-spacing="normal"
       ns0:text="$\\theta\\!=\\!0$"
       ns0:preamble="/home/eric/BHLectures/Notes/latex_inkscape.ini"
       style="font-style:normal;font-variant:normal;font-weight:normal;font-stretch:normal;letter-spacing:normal;word-spacing:normal;text-anchor:start;fill:none;fill-opacity:1;fill-rule:evenodd;stroke:#000000;stroke-linecap:butt;stroke-linejoin:miter;stroke-miterlimit:10.43299961;stroke-dasharray:none;stroke-dashoffset:0;stroke-opacity:1">
<path
   style="fill:#000000;stroke-width:0"
   inkscape:connector-curvature="0"
   d="m 227.97,712.09 v 0.07 0.06 l -0.01,0.07 v 0.08 l -0.01,0.07 v 0.08 l -0.01,0.08 -0.01,0.09 -0.02,0.08 -0.01,0.08 -0.02,0.09 -0.02,0.08 -0.02,0.09 -0.03,0.08 -0.03,0.08 -0.03,0.09 -0.03,0.07 -0.04,0.08 -0.04,0.08 -0.04,0.07 -0.05,0.06 -0.05,0.07 -0.05,0.06 -0.06,0.05 -0.06,0.05 -0.04,0.02 -0.03,0.03 -0.03,0.02 -0.04,0.01 -0.04,0.02 -0.03,0.02 -0.04,0.01 -0.04,0.01 -0.04,0.01 -0.05,0.01 -0.04,0.01 h -0.04 l -0.05,0.01 h -0.05 l -0.01,-0.22 c 0.49,0 0.55,-0.64 0.55,-1.2 0,-0.49 -0.08,-1 -0.32,-1.98 h -2.08 c 0.17,0.64 0.37,1.43 0.77,2.14 0.27,0.48 0.63,1.04 1.08,1.04 l 0.01,0.22 c -1.38,0 -2.92,-2.8 -2.92,-5.08 0,-0.93 0.29,-2.03 1.2,-2.03 v 0.21 c -0.33,0 -0.54,0.29 -0.54,1.22 0,0.41 0.06,0.99 0.32,1.96 h 2.07 c -0.11,-0.45 -0.32,-1.3 -0.7,-2.01 -0.35,-0.68 -0.72,-1.17 -1.15,-1.17 v -0.21 c 1.4,0 2.92,2.85 2.92,5.07 z"
   id="path5488" />
<path
   style="fill:#000000;stroke-width:0"
   inkscape:connector-curvature="0"
   d="m 236.34,710.37 h 0.03 0.03 0.03 l 0.02,0.01 h 0.01 0.01 0.02 0.01 0.02 l 0.01,0.01 h 0.01 0.02 l 0.01,0.01 h 0.01 l 0.01,0.01 h 0.01 l 0.02,0.01 0.01,0.01 v 0.01 l 0.01,0.01 0.01,0.01 v 0 l 0.01,0.01 v 0 0.01 l 0.01,0.01 v 0 0.01 0.01 h 0.01 v 0.01 0.01 0.01 0.01 0 0.01 0.01 c 0,0.2 -0.19,0.2 -0.33,0.2 h -5.97 c -0.14,0 -0.33,0 -0.33,-0.2 0,-0.2 0.19,-0.2 0.34,-0.2 z"
   id="path5490" />
<path
   style="fill:#000000;stroke-width:0"
   inkscape:connector-curvature="0"
   d="m 236.35,708.45 h 0.02 0.01 0.03 0.03 0.01 0.01 0.02 0.01 0.02 l 0.01,0.01 h 0.01 0.02 l 0.01,0.01 h 0.01 l 0.01,0.01 h 0.01 l 0.02,0.01 h 0.01 l 0.01,0.01 v 0.01 l 0.01,0.01 h 0.01 v 0.01 0.01 h 0.01 v 0.01 0 l 0.01,0.01 v 0.01 0 0.01 l 0.01,0.01 v 0 0.01 0.01 0.01 0.01 0.01 0.01 c 0,0.19 -0.19,0.19 -0.34,0.19 h -5.95 c -0.15,0 -0.34,0 -0.34,-0.19 0,-0.2 0.19,-0.2 0.33,-0.2 z"
   id="path5492" />
<path
   style="fill:#000000;stroke-width:0"
   inkscape:connector-curvature="0"
   d="m 242.93,710.3 v 0.15 0.15 0.15 l -0.01,0.15 -0.01,0.15 -0.01,0.14 -0.01,0.15 -0.02,0.15 -0.03,0.14 -0.02,0.15 -0.04,0.14 -0.03,0.15 -0.05,0.14 -0.05,0.14 -0.05,0.14 -0.03,0.07 -0.03,0.07 c -0.46,0.95 -1.28,1.11 -1.7,1.11 -0.6,0 -1.33,-0.26 -1.73,-1.18 -0.32,-0.69 -0.37,-1.46 -0.37,-2.26 0,-0.74 0.04,-1.64 0.44,-2.39 0.43,-0.81 1.16,-1 1.65,-1 v 0.21 c -0.39,0 -0.98,0.25 -1.16,1.21 -0.11,0.59 -0.11,1.51 -0.11,2.09 0,0.64 0,1.29 0.08,1.83 0.19,1.18 0.94,1.27 1.19,1.27 0.33,0 0.99,-0.18 1.18,-1.16 0.1,-0.56 0.1,-1.31 0.1,-1.94 0,-0.74 0,-1.42 -0.11,-2.05 -0.15,-0.95 -0.72,-1.25 -1.17,-1.25 v 0 -0.21 c 0.54,0 1.3,0.2 1.74,1.15 0.31,0.68 0.36,1.46 0.36,2.24 z"
   id="path5494" />
</g>    <g
       style="font-style:normal;font-variant:normal;font-weight:normal;font-stretch:normal;letter-spacing:normal;word-spacing:normal;text-anchor:start;fill:none;fill-opacity:1;fill-rule:evenodd;stroke:#000000;stroke-linecap:butt;stroke-linejoin:miter;stroke-miterlimit:10.43299961;stroke-dasharray:none;stroke-dashoffset:0;stroke-opacity:1"
       ns0:preamble="/home/eric/BHLectures/Notes/latex_inkscape.ini"
       ns0:text="$\\theta\\!=\\!\\pi$"
       word-spacing="normal"
       letter-spacing="normal"
       font-size-adjust="none"
       font-stretch="normal"
       font-weight="normal"
       font-variant="normal"
       font-style="normal"
       stroke-miterlimit="10.433"
       xml:space="preserve"
       transform="matrix(0.77216249,0,0,-0.77216249,-37.407201,770.98502)"
       id="g5621">
<path
   id="path5613"
   d="m 227.97,712.09 v 0.07 0.06 l -0.01,0.07 v 0.08 l -0.01,0.07 v 0.08 l -0.01,0.08 -0.01,0.09 -0.02,0.08 -0.01,0.08 -0.02,0.09 -0.02,0.08 -0.02,0.09 -0.03,0.08 -0.03,0.08 -0.03,0.09 -0.03,0.07 -0.04,0.08 -0.04,0.08 -0.04,0.07 -0.05,0.06 -0.05,0.07 -0.05,0.06 -0.06,0.05 -0.06,0.05 -0.04,0.02 -0.03,0.03 -0.03,0.02 -0.04,0.01 -0.04,0.02 -0.03,0.02 -0.04,0.01 -0.04,0.01 -0.04,0.01 -0.05,0.01 -0.04,0.01 h -0.04 l -0.05,0.01 h -0.05 l -0.01,-0.22 c 0.49,0 0.55,-0.64 0.55,-1.2 0,-0.49 -0.08,-1 -0.32,-1.98 h -2.08 c 0.17,0.64 0.37,1.43 0.77,2.14 0.27,0.48 0.63,1.04 1.08,1.04 l 0.01,0.22 c -1.38,0 -2.92,-2.8 -2.92,-5.08 0,-0.93 0.29,-2.03 1.2,-2.03 v 0.21 c -0.33,0 -0.54,0.29 -0.54,1.22 0,0.41 0.06,0.99 0.32,1.96 h 2.07 c -0.11,-0.45 -0.32,-1.3 -0.7,-2.01 -0.35,-0.68 -0.72,-1.17 -1.15,-1.17 v -0.21 c 1.4,0 2.92,2.85 2.92,5.07 z"
   inkscape:connector-curvature="0"
   style="fill:#000000;stroke-width:0" />
<path
   id="path5615"
   d="m 236.34,710.37 h 0.03 0.03 0.03 l 0.02,0.01 h 0.01 0.01 0.02 0.01 0.02 l 0.01,0.01 h 0.01 0.02 l 0.01,0.01 h 0.01 l 0.01,0.01 h 0.01 l 0.02,0.01 0.01,0.01 v 0.01 l 0.01,0.01 0.01,0.01 v 0 l 0.01,0.01 v 0 0.01 l 0.01,0.01 v 0 0.01 0.01 h 0.01 v 0.01 0.01 0.01 0.01 0 0.01 0.01 c 0,0.2 -0.19,0.2 -0.33,0.2 h -5.97 c -0.14,0 -0.33,0 -0.33,-0.2 0,-0.2 0.19,-0.2 0.34,-0.2 z"
   inkscape:connector-curvature="0"
   style="fill:#000000;stroke-width:0" />
<path
   id="path5617"
   d="m 236.35,708.45 h 0.02 0.01 0.03 0.03 0.01 0.01 0.02 0.01 0.02 l 0.01,0.01 h 0.01 0.02 l 0.01,0.01 h 0.01 l 0.01,0.01 h 0.01 l 0.02,0.01 h 0.01 l 0.01,0.01 v 0.01 l 0.01,0.01 h 0.01 v 0.01 0.01 h 0.01 v 0.01 0 l 0.01,0.01 v 0.01 0 0.01 l 0.01,0.01 v 0 0.01 0.01 0.01 0.01 0.01 0.01 c 0,0.19 -0.19,0.19 -0.34,0.19 h -5.95 c -0.15,0 -0.34,0 -0.34,-0.19 0,-0.2 0.19,-0.2 0.33,-0.2 z"
   inkscape:connector-curvature="0"
   style="fill:#000000;stroke-width:0" />
<path
   id="path5619"
   d="m 240.99,710.83 h 1.13 c -0.33,-1.47 -0.42,-1.9 -0.42,-2.56 0,-0.15 0,-0.42 0.08,-0.76 0.1,-0.43 0.21,-0.49 0.36,-0.49 0.2,0 0.41,0.17 0.41,0.37 0,0.06 0,0.08 -0.06,0.22 -0.29,0.72 -0.29,1.36 -0.29,1.64 0,0.53 0.07,1.06 0.18,1.58 h 1.13 c 0.13,0 0.49,0 0.49,0.34 0,0.24 -0.21,0.24 -0.4,0.24 h -3.34 c -0.22,0 -0.6,0 -1.03,-0.47 -0.35,-0.39 -0.61,-0.85 -0.61,-0.89 0,-0.01 0,-0.1 0.12,-0.1 0.08,0 0.1,0.04 0.16,0.12 0.48,0.76 1.06,0.76 1.26,0.76 h 0.57 c -0.32,-1.2 -0.86,-2.4 -1.27,-3.31 -0.08,-0.15 -0.08,-0.17 -0.08,-0.24 0,-0.19 0.16,-0.26 0.28,-0.26 0.3,0 0.38,0.27 0.5,0.64 0.14,0.46 0.14,0.48 0.27,0.98 z"
   inkscape:connector-curvature="0"
   style="fill:#000000;stroke-width:0" />
</g>    <g
       style="font-style:normal;font-variant:normal;font-weight:normal;font-stretch:normal;letter-spacing:normal;word-spacing:normal;text-anchor:start;fill:none;fill-opacity:1;fill-rule:evenodd;stroke:#000000;stroke-linecap:butt;stroke-linejoin:miter;stroke-miterlimit:10.43299961;stroke-dasharray:none;stroke-dashoffset:0;stroke-opacity:1"
       ns0:preamble="/home/eric/BHLectures/Notes/latex_inkscape.ini"
       ns0:text="$\\theta_{\\rm m}$\n\n"
       text-anchor="start"
       word-spacing="normal"
       letter-spacing="normal"
       font-size-adjust="none"
       font-stretch="normal"
       font-weight="normal"
       font-variant="normal"
       font-style="normal"
       fill-opacity="1"
       fill-rule="evenodd"
       fill="none"
       stroke-opacity="1"
       stroke-dashoffset="0"
       stroke-dasharray="none"
       stroke-miterlimit="10.433"
       stroke-linejoin="miter"
       stroke-linecap="butt"
       stroke="black"
       xml:space="preserve"
       transform="matrix(0.77216249,0,0,-0.77216249,-15.090482,706.70049)"
       id="content">
<path
   id="path908"
   fill="black"
   stroke-width="0"
   d="M227.97,712.09 L227.97,712.16 L227.97,712.22 L227.96,712.29 L227.96,712.37 L227.95,712.44 L227.95,712.52 L227.94,712.6 L227.93,712.69 L227.91,712.77 L227.9,712.85 L227.88,712.94 L227.86,713.02 L227.84,713.11 L227.81,713.19 L227.78,713.27 L227.75,713.36 L227.72,713.43 L227.68,713.51 L227.64,713.59 L227.6,713.66 L227.55,713.72 L227.5,713.79 L227.45,713.85 L227.39,713.9 L227.33,713.95 L227.29,713.97 L227.26,714 L227.23,714.02 L227.19,714.03 L227.15,714.05 L227.12,714.07 L227.08,714.08 L227.04,714.09 L227,714.1 L226.95,714.11 L226.91,714.12 L226.87,714.12 L226.82,714.13 L226.77,714.13 L226.76,713.91 C227.25,713.91,227.31,713.27,227.31,712.71 C227.31,712.22,227.23,711.71,226.99,710.73 H224.91 C225.08,711.37,225.28,712.16,225.68,712.87 C225.95,713.35,226.31,713.91,226.76,713.91 L226.77,714.13 C225.39,714.13,223.85,711.33,223.85,709.05 C223.85,708.12,224.14,707.02,225.05,707.02 V707.23 C224.72,707.23,224.51,707.52,224.51,708.45 C224.51,708.86,224.57,709.44,224.83,710.41 H226.9 C226.79,709.96,226.58,709.11,226.2,708.4 C225.85,707.72,225.48,707.23,225.05,707.23 V707.02 C226.45,707.02,227.97,709.87,227.97,712.09 Z " />
<path
   id="path910"
   fill="black"
   stroke-width="0"
   d="M233.86,707.74 L233.86,707.79 L233.85,707.85 L233.85,707.9 L233.84,707.95 L233.83,708 L233.82,708.05 L233.81,708.1 L233.8,708.14 L233.78,708.19 L233.76,708.23 L233.74,708.27 L233.72,708.31 L233.7,708.34 L233.67,708.38 L233.64,708.41 L233.61,708.44 L233.58,708.47 L233.54,708.5 L233.51,708.53 L233.47,708.55 L233.43,708.58 L233.38,708.6 L233.34,708.62 L233.29,708.63 L233.24,708.65 L233.18,708.66 L233.13,708.67 L233.07,708.68 L233.01,708.69 L232.94,708.69 L232.88,708.7 L232.81,708.7 C232.26,708.7,231.88,708.4,231.69,708.05 C231.55,708.54,231.17,708.7,230.66,708.7 C230.09,708.7,229.72,708.39,229.52,708.02 H229.51 V708.7 L228.49,708.62 V708.37 C228.96,708.37,229.01,708.32,229.01,707.98 V706.18 C229.01,705.88,228.94,705.88,228.49,705.88 V705.63 C228.5,705.63,228.99,705.66,229.28,705.66 C229.54,705.66,230.02,705.64,230.09,705.63 V705.88 C229.63,705.88,229.56,705.88,229.56,706.18 V707.43 C229.56,708.16,230.14,708.5,230.6,708.5 C231.1,708.5,231.16,708.12,231.16,707.77 V706.18 C231.16,705.88,231.09,705.88,230.63,705.88 V705.63 C230.65,705.63,231.14,705.66,231.43,705.66 C231.69,705.66,232.17,705.64,232.23,705.63 V705.88 C231.78,705.88,231.71,705.88,231.71,706.18 V707.43 C231.71,708.16,232.29,708.5,232.75,708.5 C233.24,708.5,233.3,708.12,233.3,707.77 V706.18 C233.3,705.88,233.23,705.88,232.78,705.88 V705.63 C232.79,705.63,233.28,705.66,233.58,705.66 C233.84,705.66,234.32,705.64,234.38,705.63 V705.88 C233.93,705.88,233.86,705.88,233.86,706.18 Z " />
</g>  </g>
</svg>
