<?xml version="1.0" encoding="UTF-8" standalone="no"?>
<!-- Created with Inkscape (http://www.inkscape.org/) -->

<svg
   xmlns:ns0="http://www.iki.fi/pav/software/textext/"
   xmlns:dc="http://purl.org/dc/elements/1.1/"
   xmlns:cc="http://creativecommons.org/ns#"
   xmlns:rdf="http://www.w3.org/1999/02/22-rdf-syntax-ns#"
   xmlns:svg="http://www.w3.org/2000/svg"
   xmlns="http://www.w3.org/2000/svg"
   xmlns:sodipodi="http://sodipodi.sourceforge.net/DTD/sodipodi-0.dtd"
   xmlns:inkscape="http://www.inkscape.org/namespaces/inkscape"
   sodipodi:docname="gis_static_obs.svg"
   inkscape:version="0.92.3 (2405546, 2018-03-11)"
   id="svg8"
   version="1.1"
   viewBox="0 0 297 210"
   height="210mm"
   width="297mm">
  <sodipodi:namedview
     inkscape:window-maximized="1"
     inkscape:window-y="31"
     inkscape:window-x="67"
     inkscape:window-height="1021"
     inkscape:window-width="1853"
     showgrid="false"
     inkscape:current-layer="layer1"
     inkscape:document-units="mm"
     inkscape:cy="467.69549"
     inkscape:cx="547.08123"
     inkscape:zoom="1.3943327"
     inkscape:pageshadow="2"
     inkscape:pageopacity="0.0"
     borderopacity="1.0"
     bordercolor="#666666"
     pagecolor="#ffffff"
     id="base">
    <inkscape:grid
       enabled="false"
       empspacing="35"
       id="grid815"
       type="xygrid" />
  </sodipodi:namedview>
  <defs
     id="defs2">
    <marker
       inkscape:stockid="Arrow1Mend"
       orient="auto"
       refY="0"
       refX="0"
       id="marker11051"
       style="overflow:visible"
       inkscape:isstock="true">
      <path
         inkscape:connector-curvature="0"
         id="path11049"
         d="M 0,0 5,-5 -12.5,0 5,5 Z"
         style="fill:#000000;fill-opacity:1;fill-rule:evenodd;stroke:#000000;stroke-width:1.00000003pt;stroke-opacity:1"
         transform="matrix(-0.4,0,0,-0.4,-4,0)" />
    </marker>
    <marker
       inkscape:stockid="Arrow1Mend"
       orient="auto"
       refY="0.0"
       refX="0.0"
       id="marker11011"
       style="overflow:visible;"
       inkscape:isstock="true">
      <path
         id="path11009"
         d="M 0.0,0.0 L 5.0,-5.0 L -12.5,0.0 L 5.0,5.0 L 0.0,0.0 z "
         style="fill-rule:evenodd;stroke:#000000;stroke-width:1pt;stroke-opacity:1;fill:#000000;fill-opacity:1"
         transform="scale(0.4) rotate(180) translate(10,0)" />
    </marker>
    <marker
       inkscape:isstock="true"
       style="overflow:visible"
       id="marker10973"
       refX="0"
       refY="0"
       orient="auto"
       inkscape:stockid="Arrow1Mend">
      <path
         transform="matrix(-0.4,0,0,-0.4,-4,0)"
         style="fill:#008000;fill-opacity:1;fill-rule:evenodd;stroke:#008000;stroke-width:1.00000003pt;stroke-opacity:1"
         d="M 0,0 5,-5 -12.5,0 5,5 Z"
         id="path10971"
         inkscape:connector-curvature="0" />
    </marker>
    <marker
       inkscape:stockid="Arrow1Mend"
       orient="auto"
       refY="0"
       refX="0"
       id="marker7907"
       style="overflow:visible"
       inkscape:isstock="true">
      <path
         inkscape:connector-curvature="0"
         id="path7905"
         d="M 0,0 5,-5 -12.5,0 5,5 Z"
         style="fill:#000000;fill-opacity:1;fill-rule:evenodd;stroke:#000000;stroke-width:1.00000003pt;stroke-opacity:1"
         transform="matrix(-0.4,0,0,-0.4,-4,0)" />
    </marker>
    <marker
       inkscape:stockid="Arrow1Mend"
       orient="auto"
       refY="0"
       refX="0"
       id="marker5138"
       style="overflow:visible"
       inkscape:isstock="true"
       inkscape:collect="always">
      <path
         inkscape:connector-curvature="0"
         id="path5136"
         d="M 0,0 5,-5 -12.5,0 5,5 Z"
         style="fill:#000000;fill-opacity:1;fill-rule:evenodd;stroke:#000000;stroke-width:1.00000003pt;stroke-opacity:1"
         transform="matrix(-0.4,0,0,-0.4,-4,0)" />
    </marker>
    <marker
       inkscape:isstock="true"
       style="overflow:visible;"
       id="Arrow1Mend"
       refX="0.0"
       refY="0.0"
       orient="auto"
       inkscape:stockid="Arrow1Mend"
       inkscape:collect="always">
      <path
         transform="scale(0.4) rotate(180) translate(10,0)"
         style="fill-rule:evenodd;stroke:#000000;stroke-width:1pt;stroke-opacity:1;fill:#000000;fill-opacity:1"
         d="M 0.0,0.0 L 5.0,-5.0 L -12.5,0.0 L 5.0,5.0 L 0.0,0.0 z "
         id="path4560" />
    </marker>
    <marker
       inkscape:isstock="true"
       style="overflow:visible"
       id="Arrow1Mend-3"
       refX="0"
       refY="0"
       orient="auto"
       inkscape:stockid="Arrow1Mend"
       inkscape:collect="always">
      <path
         transform="matrix(-0.4,0,0,-0.4,-4,0)"
         style="fill:#000000;fill-opacity:1;fill-rule:evenodd;stroke:#000000;stroke-width:1.00000003pt;stroke-opacity:1"
         d="M 0,0 5,-5 -12.5,0 5,5 Z"
         id="path4560-6"
         inkscape:connector-curvature="0" />
    </marker>
    <marker
       inkscape:stockid="Arrow1Mend"
       orient="auto"
       refY="0"
       refX="0"
       id="marker5138-5"
       style="overflow:visible"
       inkscape:isstock="true">
      <path
         inkscape:connector-curvature="0"
         id="path5136-3"
         d="M 0,0 5,-5 -12.5,0 5,5 Z"
         style="fill:#000000;fill-opacity:1;fill-rule:evenodd;stroke:#000000;stroke-width:1.00000003pt;stroke-opacity:1"
         transform="matrix(-0.4,0,0,-0.4,-4,0)" />
    </marker>
    <marker
       inkscape:isstock="true"
       style="overflow:visible"
       id="Arrow1Mend-3-6"
       refX="0"
       refY="0"
       orient="auto"
       inkscape:stockid="Arrow1Mend"
       inkscape:collect="always">
      <path
         transform="matrix(-0.4,0,0,-0.4,-4,0)"
         style="fill:#008000;fill-opacity:1;fill-rule:evenodd;stroke:#008000;stroke-width:1.00000003pt;stroke-opacity:1"
         d="M 0,0 5,-5 -12.5,0 5,5 Z"
         id="path4560-6-0"
         inkscape:connector-curvature="0" />
    </marker>
    <marker
       inkscape:stockid="Arrow1Mend"
       orient="auto"
       refY="0"
       refX="0"
       id="marker7907-2"
       style="overflow:visible"
       inkscape:isstock="true">
      <path
         inkscape:connector-curvature="0"
         id="path7905-8"
         d="M 0,0 5,-5 -12.5,0 5,5 Z"
         style="fill:#008000;fill-opacity:1;fill-rule:evenodd;stroke:#008000;stroke-width:1.00000003pt;stroke-opacity:1"
         transform="matrix(-0.4,0,0,-0.4,-4,0)" />
    </marker>
  </defs>
  <metadata
     id="metadata5">
    <rdf:RDF>
      <cc:Work
         rdf:about="">
        <dc:format>image/svg+xml</dc:format>
        <dc:type
           rdf:resource="http://purl.org/dc/dcmitype/StillImage" />
        <dc:title />
      </cc:Work>
    </rdf:RDF>
  </metadata>
  <g
     transform="translate(0,-87)"
     id="layer1"
     inkscape:groupmode="layer"
     inkscape:label="Calque 1">
    <circle
       r="27.316223"
       cy="204.06804"
       cx="147.94299"
       id="path819"
       style="fill:#ececec;fill-opacity:1;stroke:#000000;stroke-width:0.58534759;stroke-miterlimit:4;stroke-dasharray:none;stroke-dashoffset:0;stroke-opacity:1" />
    <circle
       r="40.974331"
       cy="204.25484"
       cx="148.42233"
       id="path823"
       style="fill:none;fill-opacity:1;stroke:#66ff00;stroke-width:0.58553213;stroke-miterlimit:4;stroke-dasharray:4.68425658, 2.34212829;stroke-dashoffset:0;stroke-opacity:1" />
    <path
       sodipodi:nodetypes="cc"
       inkscape:connector-curvature="0"
       id="path844"
       d="M 148.16666,204.39584 46.161087,167.3255"
       style="fill:none;fill-rule:evenodd;stroke:#000000;stroke-width:1;stroke-linecap:butt;stroke-linejoin:miter;stroke-miterlimit:4;stroke-dasharray:1, 4;stroke-dashoffset:0;stroke-opacity:1" />
    <path
       inkscape:connector-curvature="0"
       id="path4549"
       d="m 46.161086,167.3255 41.486682,14.92179"
       style="fill:none;fill-rule:evenodd;stroke:#000000;stroke-width:1.4;stroke-linecap:butt;stroke-linejoin:miter;stroke-opacity:1;stroke-miterlimit:4;stroke-dasharray:none;marker-end:url(#Arrow1Mend)" />
    <path
       inkscape:connector-curvature="0"
       id="path4549-7"
       d="m 46.161087,167.3255 14.92179,-41.48669"
       style="fill:none;fill-rule:evenodd;stroke:#000000;stroke-width:1.39999998;stroke-linecap:butt;stroke-linejoin:miter;stroke-miterlimit:4;stroke-dasharray:none;stroke-opacity:1;marker-end:url(#Arrow1Mend-3)" />
    <path
       inkscape:connector-curvature="0"
       id="path5128"
       d="M 46.103738,204.79252 H 251.79734"
       style="fill:none;fill-rule:evenodd;stroke:#000000;stroke-width:0.5;stroke-linecap:butt;stroke-linejoin:miter;stroke-opacity:1;marker-end:url(#marker5138);stroke-miterlimit:4;stroke-dasharray:none" />
    <path
       sodipodi:nodetypes="cc"
       inkscape:connector-curvature="0"
       id="path5128-5"
       d="m 148.20456,251.90953 0,-155.030151"
       style="fill:none;fill-rule:evenodd;stroke:#000000;stroke-width:0.5;stroke-linecap:butt;stroke-linejoin:miter;stroke-miterlimit:4;stroke-dasharray:none;stroke-opacity:1;marker-end:url(#marker5138-5)" />
    <g
       style="font-style:normal;font-variant:normal;font-weight:normal;font-stretch:normal;letter-spacing:normal;word-spacing:normal;text-anchor:start;fill:none;fill-opacity:1;fill-rule:evenodd;stroke:#000000;stroke-linecap:butt;stroke-linejoin:miter;stroke-miterlimit:10.43299961;stroke-dasharray:none;stroke-dashoffset:0;stroke-opacity:1"
       ns0:preamble="/home/eric/BHLectures/Notes/latex_inkscape.ini"
       ns0:text="$\\bm{e}_{(r)}$"
       word-spacing="normal"
       letter-spacing="normal"
       font-size-adjust="none"
       font-stretch="normal"
       font-weight="normal"
       font-variant="normal"
       font-style="normal"
       stroke-miterlimit="10.433"
       xml:space="preserve"
       transform="matrix(1.4347377,0,0,-1.4347377,-237.62439,1190.828)"
       id="g7035">
<path
   id="path7027"
   d="m 225.65,709.29 h 0.12 0.13 l 0.12,0.01 h 0.12 l 0.12,0.01 0.12,0.01 0.11,0.01 0.12,0.01 0.11,0.01 0.1,0.02 0.11,0.01 0.1,0.02 0.09,0.02 0.09,0.02 0.05,0.01 0.04,0.01 0.04,0.02 0.04,0.01 c 0.85,0.29 0.99,0.85 0.99,1.17 0,0.58 -0.55,0.95 -1.37,0.95 v -0.35 c 0.36,0 0.77,-0.16 0.77,-0.61 0,-1 -1.51,-1 -2.47,-1 v 0 c 0.18,0.72 0.42,0.99 0.58,1.15 0.35,0.35 0.81,0.46 1.12,0.46 v 0.35 c -1.8,0 -3.08,-1.24 -3.08,-2.78 0,-1.14 0.77,-1.78 2.09,-1.78 0.25,0 0.94,0 1.54,0.23 0.58,0.23 0.98,0.64 0.98,0.76 0,0.08 -0.16,0.26 -0.25,0.26 -0.06,0 -0.08,-0.03 -0.15,-0.11 -0.54,-0.57 -1.32,-0.79 -2.09,-0.79 -0.72,0 -0.98,0.4 -0.98,0.97 0,0.18 0.04,0.51 0.15,0.92 z"
   inkscape:connector-curvature="0"
   style="fill:#000000;stroke-width:0" />
<path
   id="path7029"
   d="m 231.43,710.54 -0.12,-0.09 -0.12,-0.09 -0.11,-0.09 -0.1,-0.1 -0.1,-0.1 -0.1,-0.1 -0.09,-0.11 -0.08,-0.1 -0.08,-0.11 -0.08,-0.11 -0.07,-0.11 -0.06,-0.12 -0.07,-0.11 -0.05,-0.11 -0.06,-0.12 -0.05,-0.11 -0.04,-0.12 -0.04,-0.12 -0.04,-0.11 -0.04,-0.12 -0.03,-0.12 -0.03,-0.11 -0.02,-0.12 -0.02,-0.11 -0.02,-0.11 -0.02,-0.11 -0.01,-0.11 -0.01,-0.11 -0.01,-0.11 v -0.1 l -0.01,-0.11 v -0.1 c 0,-0.98 0.3,-2.5 1.68,-3.48 0.06,0 0.14,0 0.14,0.09 0,0.04 -0.02,0.05 -0.07,0.1 -0.93,0.84 -1.27,2.02 -1.27,3.28 0,1.88 0.72,2.8 1.29,3.31 0.03,0.03 0.05,0.05 0.05,0.09 0,0.08 -0.08,0.08 -0.14,0.08 z"
   inkscape:connector-curvature="0"
   style="fill:#000000;stroke-width:0" />
<path
   id="path7031"
   d="m 233.7,706.73 v 0 l 0.01,0.01 v 0 0.01 0 0.01 0 0.01 l 0.01,0.01 v 0.01 0.01 0.01 0.01 l 0.01,0.01 v 0.02 l 0.01,0.03 0.01,0.02 v 0.03 l 0.01,0.03 0.01,0.03 0.01,0.03 0.01,0.06 0.02,0.07 0.01,0.03 v 0.03 l 0.01,0.03 0.01,0.02 0.01,0.03 v 0.02 l 0.01,0.03 v 0.01 0.01 l 0.01,0.01 v 0.01 0.01 0 l 0.01,0.01 v 0.01 0 0.01 0 0.01 h 0.01 v 0 c 0.01,0.06 0.21,0.41 0.44,0.57 0.07,0.06 0.26,0.2 0.56,0.2 0.07,0 0.25,-0.01 0.39,-0.1 -0.23,-0.06 -0.31,-0.26 -0.31,-0.38 0,-0.15 0.12,-0.26 0.28,-0.26 0.16,0 0.39,0.13 0.39,0.43 0,0.36 -0.38,0.5 -0.74,0.5 -0.36,0 -0.68,-0.14 -0.99,-0.49 -0.12,0.42 -0.55,0.49 -0.72,0.49 -0.26,0 -0.43,-0.16 -0.54,-0.35 -0.16,-0.27 -0.26,-0.68 -0.26,-0.71 0,-0.09 0.1,-0.09 0.12,-0.09 0.1,0 0.1,0.02 0.15,0.21 0.11,0.42 0.24,0.75 0.51,0.75 0.18,0 0.23,-0.16 0.23,-0.34 0,-0.14 -0.06,-0.39 -0.11,-0.58 -0.05,-0.19 -0.12,-0.47 -0.15,-0.63 l -0.23,-0.89 c -0.02,-0.09 -0.07,-0.26 -0.07,-0.28 0,-0.15 0.13,-0.22 0.24,-0.22 0.11,0 0.25,0.06 0.3,0.2 0.02,0.04 0.09,0.35 0.13,0.52 z"
   inkscape:connector-curvature="0"
   style="fill:#000000;stroke-width:0" />
<path
   id="path7033"
   d="m 236.6,710.54 v 0 h -0.01 v 0 h -0.01 v 0 h -0.01 v 0 h -0.01 v 0 h -0.01 -0.01 v 0 h -0.01 v -0.01 h -0.01 v 0 h -0.01 v 0 l -0.01,-0.01 v 0 h -0.01 v -0.01 0 0 h -0.01 v -0.01 0 0 0 -0.01 0 h -0.01 v 0 -0.01 0 0 -0.01 0 0 -0.01 0 c 0,-0.04 0.02,-0.06 0.06,-0.11 0.6,-0.55 1.28,-1.49 1.28,-3.28 0,-1.45 -0.46,-2.55 -1.21,-3.23 -0.12,-0.12 -0.13,-0.13 -0.13,-0.16 0,-0.04 0.02,-0.09 0.09,-0.09 0.09,0 0.75,0.46 1.21,1.33 0.31,0.58 0.51,1.33 0.51,2.14 0,0.98 -0.29,2.51 -1.68,3.48 z"
   inkscape:connector-curvature="0"
   style="fill:#000000;stroke-width:0" />
</g>    <path
       sodipodi:nodetypes="cc"
       inkscape:connector-curvature="0"
       id="path7167"
       d="M 46.161086,167.3255 C 110.44632,119.42461 169.97587,115.87817 255.34378,114.61159"
       style="fill:none;fill-rule:evenodd;stroke:#008000;stroke-width:1;stroke-linecap:butt;stroke-linejoin:miter;stroke-opacity:1;stroke-miterlimit:4;stroke-dasharray:none" />
    <path
       sodipodi:nodetypes="cc"
       inkscape:connector-curvature="0"
       id="path4549-7-6"
       d="M 46.161087,167.3255 100.03747,124.43265"
       style="fill:none;fill-rule:evenodd;stroke:#008000;stroke-width:1.39999998;stroke-linecap:butt;stroke-linejoin:miter;stroke-miterlimit:4;stroke-dasharray:none;stroke-opacity:1;marker-end:url(#Arrow1Mend-3-6)" />
    <g
       style="font-style:normal;font-variant:normal;font-weight:normal;font-stretch:normal;letter-spacing:normal;word-spacing:normal;text-anchor:start;fill:#008000;fill-opacity:1;fill-rule:evenodd;stroke:#2ca089;stroke-linecap:butt;stroke-linejoin:miter;stroke-miterlimit:10.43299961;stroke-dasharray:none;stroke-dashoffset:0;stroke-opacity:1"
       ns0:preamble="/home/eric/BHLectures/Notes/latex_inkscape.ini"
       ns0:text="$\\bm{P}$"
       word-spacing="normal"
       letter-spacing="normal"
       font-size-adjust="none"
       font-stretch="normal"
       font-weight="normal"
       font-variant="normal"
       font-style="normal"
       stroke-miterlimit="10.433"
       xml:space="preserve"
       transform="matrix(1.5509693,0,0,-1.5509693,-255.32888,1216.6371)"
       id="g7854">
<path
   id="path7852"
   d="m 227.04,710.12 0.04,0.41 0.7,2.76 c 0.04,0.15 0.05,0.16 0.11,0.17 0.09,0.01 0.16,0.01 0.27,0.01 h 1.04 c 0.55,0 1.3,-0.1 1.3,-0.78 0,-0.12 -0.13,-1.14 -0.5,-1.61 -0.21,-0.27 -0.65,-0.55 -1.55,-0.55 h -1.37 l -0.04,-0.41 h 1.77 c 1.83,0 3.09,1.12 3.09,2.29 0,1.01 -0.92,1.53 -2.24,1.53 h -3.84 c -0.18,0 -0.36,0 -0.36,-0.29 0,-0.18 0.14,-0.18 0.42,-0.18 0.21,0 0.39,-0.01 0.6,-0.02 l -1.42,-5.66 c -0.04,-0.16 -0.05,-0.17 -0.23,-0.19 -0.17,-0.01 -0.37,-0.01 -0.53,-0.01 -0.26,0 -0.28,0 -0.31,-0.03 -0.13,-0.06 -0.13,-0.21 -0.13,-0.26 0,-0.01 0,-0.18 0.22,-0.18 0.25,0 0.51,0.03 0.76,0.03 0.25,0 0.51,0.01 0.76,0.01 0.25,0 0.52,-0.01 0.76,-0.01 0.26,0 0.53,-0.03 0.78,-0.03 0.1,0 0.29,0 0.29,0.28 0,0.19 -0.12,0.19 -0.41,0.19 -0.21,0 -0.4,0.01 -0.61,0.02 z"
   inkscape:connector-curvature="0"
   style="fill:#008000;stroke-width:0;stroke:#2ca089" />
</g>    <path
       style="fill:none;fill-opacity:1;stroke:#000000;stroke-width:0.71971238;stroke-miterlimit:4;stroke-dasharray:none;stroke-dashoffset:0;stroke-opacity:1;marker-end:url(#marker7907)"
       id="path7897"
       sodipodi:type="arc"
       sodipodi:cx="147.85509"
       sodipodi:cy="-205.05235"
       sodipodi:rx="12.078405"
       sodipodi:ry="12.078405"
       sodipodi:start="0"
       sodipodi:end="2.5756094"
       sodipodi:open="true"
       d="m 159.93349,-205.05235 a 12.078405,12.078405 0 0 1 -8.70576,11.59798 12.078405,12.078405 0 0 1 -13.56756,-5.12099"
       transform="scale(1,-1)" />
    <g
       id="g8479"
       transform="matrix(1.2329272,0,0,-1.2329272,-126.02317,1061.2072)"
       xml:space="preserve"
       stroke-miterlimit="10.433"
       font-style="normal"
       font-variant="normal"
       font-weight="normal"
       font-stretch="normal"
       font-size-adjust="none"
       letter-spacing="normal"
       word-spacing="normal"
       ns0:text="$\\varphi_{\\rm em}$"
       ns0:preamble="/home/eric/BHLectures/Notes/latex_inkscape.ini"
       style="font-style:normal;font-variant:normal;font-weight:normal;font-stretch:normal;letter-spacing:normal;word-spacing:normal;text-anchor:start;fill:none;fill-opacity:1;fill-rule:evenodd;stroke:#000000;stroke-linecap:butt;stroke-linejoin:miter;stroke-miterlimit:10.43299961;stroke-dasharray:none;stroke-dashoffset:0;stroke-opacity:1">
<path
   style="fill:#000000;stroke-width:0"
   inkscape:connector-curvature="0"
   d="m 225.13,705.44 v -0.01 l -0.01,-0.01 v 0 -0.01 -0.01 l -0.01,-0.01 v -0.01 -0.01 h -0.01 v -0.01 -0.01 -0.01 0 l -0.01,-0.01 v -0.01 0 -0.01 0 -0.01 h -0.01 v -0.01 0 -0.01 0 -0.01 -0.01 0 -0.01 -0.01 0 c 0,-0.22 0.19,-0.28 0.29,-0.28 0.05,0 0.27,0.03 0.37,0.26 0.02,0.08 0.08,0.4 0.35,1.82 0.08,-0.01 0.15,-0.02 0.32,-0.02 1.66,0 3.19,1.56 3.19,3.13 l -0.28,-0.22 c 0,-1.13 -1.28,-2.34 -2.82,-2.34 v 0 c -0.08,0 -0.1,0 -0.18,0.01 -0.12,0 -0.13,0.01 -0.13,0.04 0,0.02 0.17,0.93 0.2,1.07 0.31,1.28 1.09,2.23 1.98,2.23 0.69,0 0.95,-0.54 0.95,-1.01 l 0.28,0.22 c 0,0.77 -0.38,1.37 -1.13,1.37 -1.45,0 -2.05,-1.93 -2.65,-3.87 -1.07,0.2 -1.63,0.76 -1.63,1.47 0,0.28 0.23,1.37 0.83,2.06 0.08,0.09 0.08,0.11 0.08,0.13 0,0.04 -0.02,0.1 -0.12,0.1 -0.28,0 -1.05,-1.44 -1.05,-2.4 0,-0.93 0.66,-1.66 1.73,-1.91 z"
   id="path8473" />
<path
   style="fill:#000000;stroke-width:0"
   inkscape:connector-curvature="0"
   d="m 233.02,707.22 h 0.02 0.01 0.01 0.02 0.01 0.01 0.01 0.01 0.01 0.01 v 0 h 0.01 l 0.01,0.01 h 0.01 v 0 l 0.01,0.01 v 0 h 0.01 v 0.01 h 0.01 v 0.01 l 0.01,0.01 v 0 0.01 0 0 0.01 0 l 0.01,0.01 v 0 0.01 0 0.01 0 0.01 0.01 0 0.01 0.01 0 0.01 c 0,0.61 -0.34,1.36 -1.38,1.36 -0.92,0 -1.62,-0.72 -1.62,-1.58 0,-0.88 0.78,-1.59 1.71,-1.59 0.94,0 1.29,0.75 1.29,0.91 0,0.02 -0.01,0.09 -0.12,0.09 -0.09,0 -0.1,-0.04 -0.12,-0.11 -0.22,-0.56 -0.75,-0.67 -1,-0.67 -0.33,0 -0.65,0.15 -0.86,0.41 -0.25,0.33 -0.26,0.76 -0.26,1.03 l 0.01,0.18 c 0.07,0.98 0.7,1.14 0.97,1.14 0.86,0 0.89,-0.97 0.89,-1.14 h -1.86 l -0.01,-0.18 z"
   id="path8475" />
<path
   style="fill:#000000;stroke-width:0"
   inkscape:connector-curvature="0"
   d="m 239.24,707.74 v 0.05 l -0.01,0.06 v 0.05 l -0.01,0.05 V 708 l -0.01,0.05 -0.02,0.05 -0.01,0.04 -0.02,0.05 -0.01,0.04 -0.02,0.04 -0.03,0.04 -0.02,0.03 -0.03,0.04 -0.02,0.03 -0.04,0.03 -0.03,0.03 -0.03,0.03 -0.04,0.03 -0.04,0.02 -0.04,0.03 -0.05,0.02 -0.04,0.02 -0.05,0.01 -0.05,0.02 -0.06,0.01 -0.05,0.01 -0.06,0.01 -0.06,0.01 h -0.06 l -0.07,0.01 h -0.07 c -0.55,0 -0.93,-0.3 -1.12,-0.65 -0.14,0.49 -0.52,0.65 -1.03,0.65 -0.57,0 -0.94,-0.31 -1.14,-0.68 v 0 0.68 l -1.03,-0.08 v -0.25 c 0.47,0 0.52,-0.05 0.52,-0.39 v -1.8 c 0,-0.3 -0.07,-0.3 -0.52,-0.3 v -0.25 c 0.01,0 0.5,0.03 0.8,0.03 0.25,0 0.74,-0.02 0.8,-0.03 v 0.25 c -0.46,0 -0.52,0 -0.52,0.3 v 1.25 c 0,0.73 0.58,1.07 1.04,1.07 0.49,0 0.55,-0.38 0.55,-0.73 v -1.59 c 0,-0.3 -0.07,-0.3 -0.53,-0.3 v -0.25 c 0.02,0 0.51,0.03 0.8,0.03 0.26,0 0.74,-0.02 0.81,-0.03 v 0.25 c -0.46,0 -0.53,0 -0.53,0.3 v 1.25 c 0,0.73 0.58,1.07 1.04,1.07 0.49,0 0.56,-0.38 0.56,-0.73 v -1.59 c 0,-0.3 -0.07,-0.3 -0.53,-0.3 v -0.25 c 0.02,0 0.5,0.03 0.8,0.03 0.26,0 0.74,-0.02 0.8,-0.03 v 0.25 c -0.45,0 -0.52,0 -0.52,0.3 z"
   id="path8477" />
</g>    <g
       style="font-style:normal;font-variant:normal;font-weight:normal;font-stretch:normal;letter-spacing:normal;word-spacing:normal;text-anchor:start;fill:none;fill-opacity:1;fill-rule:evenodd;stroke:#000000;stroke-linecap:butt;stroke-linejoin:miter;stroke-miterlimit:10.43299961;stroke-dasharray:none;stroke-dashoffset:0;stroke-opacity:1"
       ns0:preamble="/home/eric/BHLectures/Notes/latex_inkscape.ini"
       ns0:text="$y$"
       word-spacing="normal"
       letter-spacing="normal"
       font-size-adjust="none"
       font-stretch="normal"
       font-weight="normal"
       font-variant="normal"
       font-style="normal"
       stroke-miterlimit="10.433"
       xml:space="preserve"
       transform="matrix(1.2151373,0,0,-1.2151373,-119.85384,959.1961)"
       id="g8595">
<path
   id="path8593"
   d="m 228.28,710.91 v 0.01 0 0.01 h 0.01 v 0.02 0.01 0.01 l 0.01,0.01 v 0.01 0 0.01 0.01 l 0.01,0.01 v 0.01 0 0.01 0 0.01 0.01 0 l 0.01,0.01 v 0 0.01 0.01 0.01 0.01 0.01 0.01 0 0.01 c 0,0.18 -0.14,0.27 -0.29,0.27 -0.1,0 -0.26,-0.06 -0.35,-0.21 -0.02,-0.05 -0.1,-0.36 -0.14,-0.54 -0.07,-0.26 -0.14,-0.52 -0.2,-0.79 l -0.45,-1.79 c -0.04,-0.15 -0.47,-0.85 -1.13,-0.85 -0.5,0 -0.61,0.44 -0.61,0.81 0,0.46 0.17,1.07 0.51,1.95 0.16,0.4 0.19,0.51 0.19,0.71 0,0.45 -0.31,0.82 -0.81,0.82 -0.95,0 -1.32,-1.44 -1.32,-1.53 0,-0.1 0.1,-0.1 0.12,-0.1 0.1,0 0.11,0.02 0.16,0.18 0.27,0.93 0.67,1.23 1.01,1.23 0.08,0 0.25,0 0.25,-0.32 0,-0.25 -0.1,-0.51 -0.17,-0.7 -0.4,-1.05 -0.58,-1.62 -0.58,-2.08 0,-0.89 0.63,-1.18 1.22,-1.18 0.39,0 0.72,0.16 1,0.44 -0.13,-0.51 -0.25,-1 -0.64,-1.53 -0.27,-0.34 -0.64,-0.62 -1.1,-0.62 -0.14,0 -0.59,0.03 -0.76,0.41 0.16,0 0.29,0 0.43,0.12 0.1,0.09 0.2,0.22 0.2,0.41 0,0.31 -0.27,0.35 -0.37,0.35 -0.23,0 -0.56,-0.16 -0.56,-0.65 0,-0.49 0.44,-0.86 1.06,-0.86 1.02,0 2.05,0.9 2.33,2.02 z"
   inkscape:connector-curvature="0"
   style="fill:#000000;stroke-width:0" />
</g>    <g
       id="g8729"
       transform="matrix(1.4347377,0,0,-1.4347377,-284.8335,1135.9232)"
       xml:space="preserve"
       stroke-miterlimit="10.433"
       font-style="normal"
       font-variant="normal"
       font-weight="normal"
       font-stretch="normal"
       font-size-adjust="none"
       letter-spacing="normal"
       word-spacing="normal"
       ns0:text="$\\bm{e}_{(\\varphi)}$"
       ns0:preamble="/home/eric/BHLectures/Notes/latex_inkscape.ini"
       style="font-style:normal;font-variant:normal;font-weight:normal;font-stretch:normal;letter-spacing:normal;word-spacing:normal;text-anchor:start;fill:none;fill-opacity:1;fill-rule:evenodd;stroke:#000000;stroke-linecap:butt;stroke-linejoin:miter;stroke-miterlimit:10.43299961;stroke-dasharray:none;stroke-dashoffset:0;stroke-opacity:1">
<path
   style="fill:#000000;stroke-width:0"
   inkscape:connector-curvature="0"
   d="m 225.65,709.29 h 0.12 0.13 l 0.12,0.01 h 0.12 l 0.12,0.01 0.12,0.01 0.11,0.01 0.12,0.01 0.11,0.01 0.1,0.02 0.11,0.01 0.1,0.02 0.09,0.02 0.09,0.02 0.05,0.01 0.04,0.01 0.04,0.02 0.04,0.01 c 0.85,0.29 0.99,0.85 0.99,1.17 0,0.58 -0.55,0.95 -1.37,0.95 v -0.35 c 0.36,0 0.77,-0.16 0.77,-0.61 0,-1 -1.51,-1 -2.47,-1 v 0 c 0.18,0.72 0.42,0.99 0.58,1.15 0.35,0.35 0.81,0.46 1.12,0.46 v 0.35 c -1.8,0 -3.08,-1.24 -3.08,-2.78 0,-1.14 0.77,-1.78 2.09,-1.78 0.25,0 0.94,0 1.54,0.23 0.58,0.23 0.98,0.64 0.98,0.76 0,0.08 -0.16,0.26 -0.25,0.26 -0.06,0 -0.08,-0.03 -0.15,-0.11 -0.54,-0.57 -1.32,-0.79 -2.09,-0.79 -0.72,0 -0.98,0.4 -0.98,0.97 0,0.18 0.04,0.51 0.15,0.92 z"
   id="path8721" />
<path
   style="fill:#000000;stroke-width:0"
   inkscape:connector-curvature="0"
   d="m 231.43,710.54 -0.12,-0.09 -0.12,-0.09 -0.11,-0.09 -0.1,-0.1 -0.1,-0.1 -0.1,-0.1 -0.09,-0.11 -0.08,-0.1 -0.08,-0.11 -0.08,-0.11 -0.07,-0.11 -0.06,-0.12 -0.07,-0.11 -0.05,-0.11 -0.06,-0.12 -0.05,-0.11 -0.04,-0.12 -0.04,-0.12 -0.04,-0.11 -0.04,-0.12 -0.03,-0.12 -0.03,-0.11 -0.02,-0.12 -0.02,-0.11 -0.02,-0.11 -0.02,-0.11 -0.01,-0.11 -0.01,-0.11 -0.01,-0.11 v -0.1 l -0.01,-0.11 v -0.1 c 0,-0.98 0.3,-2.5 1.68,-3.48 0.06,0 0.14,0 0.14,0.09 0,0.04 -0.02,0.05 -0.07,0.1 -0.93,0.84 -1.27,2.02 -1.27,3.28 0,1.88 0.72,2.8 1.29,3.31 0.03,0.03 0.05,0.05 0.05,0.09 0,0.08 -0.08,0.08 -0.14,0.08 z"
   id="path8723" />
<path
   style="fill:#000000;stroke-width:0"
   inkscape:connector-curvature="0"
   d="m 234.27,705.26 h 0.01 0.02 0.01 0.02 0.03 0.03 0.03 0.03 0.03 0.03 c 1.26,0 2.41,1.02 2.41,2.12 l -0.25,-0.14 c 0,-0.7 -0.88,-1.51 -2.08,-1.51 -0.07,0 -0.17,0 -0.23,0.01 v 0 c 0.14,0.8 0.2,1.11 0.53,1.56 0.32,0.42 0.69,0.62 1.04,0.62 0.48,0 0.74,-0.32 0.74,-0.68 l 0.25,0.14 c 0,0.62 -0.37,1.01 -0.91,1.01 -0.97,0 -1.48,-1.22 -1.68,-1.74 -0.09,-0.26 -0.24,-0.75 -0.28,-0.88 -0.77,0.11 -1.26,0.45 -1.26,0.97 0,0 0.04,0.78 0.61,1.41 0.05,0.05 0.05,0.06 0.05,0.09 0,0.08 -0.09,0.08 -0.11,0.08 -0.06,0 -0.09,0 -0.22,-0.15 -0.39,-0.48 -0.58,-1.2 -0.58,-1.5 0,-0.62 0.46,-1.16 1.36,-1.35 -0.35,-1.08 -0.39,-1.21 -0.39,-1.27 0,-0.19 0.16,-0.23 0.24,-0.23 0.07,0 0.21,0.05 0.27,0.16 0.05,0.1 0.11,0.46 0.25,1.28 z"
   id="path8725" />
<path
   style="fill:#000000;stroke-width:0"
   inkscape:connector-curvature="0"
   d="m 237.93,710.54 v 0 h -0.01 v 0 h -0.01 -0.01 v 0 h -0.01 v 0 h -0.01 v 0 h -0.01 v 0 h -0.01 v -0.01 h -0.01 v 0 h -0.01 v 0 l -0.01,-0.01 v 0 h -0.01 v -0.01 h -0.01 v 0 0 -0.01 0 0 0 l -0.01,-0.01 v 0 0 0 -0.01 0 0 -0.01 0 0 -0.01 0 c 0,-0.04 0.02,-0.06 0.06,-0.11 0.6,-0.55 1.27,-1.49 1.27,-3.28 0,-1.45 -0.45,-2.55 -1.21,-3.23 -0.12,-0.12 -0.12,-0.13 -0.12,-0.16 0,-0.04 0.02,-0.09 0.09,-0.09 0.08,0 0.75,0.46 1.21,1.33 0.31,0.58 0.51,1.33 0.51,2.14 0,0.98 -0.29,2.51 -1.68,3.48 z"
   id="path8727" />
</g>    <path
       style="fill:none;fill-opacity:1;stroke:#008000;stroke-width:0.80000001;stroke-miterlimit:4;stroke-dasharray:none;stroke-dashoffset:0;stroke-opacity:1;marker-end:url(#marker7907-2)"
       id="path7897-9"
       sodipodi:type="arc"
       sodipodi:cx="47.996655"
       sodipodi:cy="-168.30011"
       sodipodi:rx="13.425815"
       sodipodi:ry="13.425815"
       sodipodi:start="5.9989567"
       sodipodi:end="0.69673512"
       sodipodi:open="true"
       d="m 60.883802,-172.06494 a 13.425815,13.425815 0 0 1 -2.590334,12.38041"
       transform="scale(1,-1)" />
    <circle
       r="1.8260415"
       cy="167.17987"
       cx="46.335804"
       id="path10348"
       style="fill:#000000;fill-opacity:1;stroke:#000000;stroke-width:0.80000001;stroke-miterlimit:4;stroke-dasharray:none;stroke-dashoffset:0;stroke-opacity:1" />
    <g
       style="font-style:normal;font-variant:normal;font-weight:normal;font-stretch:normal;letter-spacing:normal;word-spacing:normal;text-anchor:start;fill:none;fill-opacity:1;fill-rule:evenodd;stroke:#000000;stroke-linecap:butt;stroke-linejoin:miter;stroke-miterlimit:10.43299961;stroke-dasharray:none;stroke-dashoffset:0;stroke-opacity:1"
       ns0:preamble="/home/eric/BHLectures/Notes/latex_inkscape.ini"
       ns0:text="$S$"
       word-spacing="normal"
       letter-spacing="normal"
       font-size-adjust="none"
       font-stretch="normal"
       font-weight="normal"
       font-variant="normal"
       font-style="normal"
       stroke-miterlimit="10.433"
       xml:space="preserve"
       transform="matrix(1.2151373,0,0,-1.2151373,-237.98405,1033.8228)"
       id="g10420">
<path
   id="path10418"
   d="m 229.86,714.03 v 0 0.01 0 0 0.01 0 0 0.01 0 0.01 h -0.01 v 0 0.01 0 0.01 h -0.01 v 0 0.01 h -0.01 v 0 l -0.01,0.01 v 0 h -0.01 v 0.01 h -0.01 v 0 0 h -0.01 v 0 0 h -0.01 v 0.01 0 h -0.01 v 0 0 h -0.01 v 0 h -0.01 c -0.05,0 -0.05,-0.01 -0.18,-0.15 l -0.47,-0.57 c -0.26,0.47 -0.78,0.72 -1.43,0.72 -1.27,0 -2.46,-1.14 -2.46,-2.35 0,-0.8 0.53,-1.26 1.03,-1.41 l 1.07,-0.28 c 0.37,-0.08 0.92,-0.23 0.92,-1.05 0,-0.89 -0.82,-1.83 -1.8,-1.83 -0.64,0 -1.74,0.22 -1.74,1.45 0,0.24 0.05,0.48 0.06,0.54 0.01,0.04 0.02,0.05 0.02,0.07 0,0.1 -0.07,0.11 -0.12,0.11 -0.05,0 -0.07,-0.01 -0.1,-0.04 -0.04,-0.04 -0.6,-2.3 -0.6,-2.33 0,-0.06 0.05,-0.1 0.11,-0.1 0.05,0 0.06,0.01 0.18,0.14 l 0.49,0.57 c 0.43,-0.57 1.11,-0.71 1.68,-0.71 1.36,0 2.54,1.32 2.54,2.55 0,0.69 -0.34,1.02 -0.49,1.16 -0.23,0.23 -0.38,0.27 -1.27,0.5 -0.22,0.06 -0.58,0.16 -0.67,0.18 -0.27,0.09 -0.61,0.37 -0.61,0.9 0,0.81 0.8,1.65 1.75,1.65 0.83,0 1.44,-0.43 1.44,-1.54 0,-0.32 -0.04,-0.5 -0.04,-0.56 0,-0.01 0,-0.09 0.12,-0.09 0.1,0 0.11,0.02 0.14,0.19 z"
   inkscape:connector-curvature="0"
   style="fill:#000000;stroke-width:0" />
</g>    <g
       id="g10548"
       transform="matrix(1.2151373,0,0,-1.2151373,-206.32487,1025.3388)"
       xml:space="preserve"
       stroke-miterlimit="10.433"
       font-style="normal"
       font-variant="normal"
       font-weight="normal"
       font-stretch="normal"
       font-size-adjust="none"
       letter-spacing="normal"
       word-spacing="normal"
       ns0:text="$\\eta$"
       ns0:preamble="/home/eric/BHLectures/Notes/latex_inkscape.ini"
       style="font-style:normal;font-variant:normal;font-weight:normal;font-stretch:normal;letter-spacing:normal;word-spacing:normal;text-anchor:start;fill:#008000;fill-opacity:1;fill-rule:evenodd;stroke:#000000;stroke-linecap:butt;stroke-linejoin:miter;stroke-miterlimit:10.43299961;stroke-dasharray:none;stroke-dashoffset:0;stroke-opacity:1">
<path
   inkscape:connector-curvature="0"
   style="fill:#008000;stroke-width:0"
   d="m 228.3,709.88 0.01,0.03 0.01,0.03 v 0.03 l 0.01,0.03 0.01,0.04 0.01,0.03 v 0.03 l 0.01,0.03 v 0.03 l 0.01,0.04 v 0.02 0.02 0.02 0.01 0.02 0.03 l 0.01,0.02 v 0.02 0.02 0.02 0.03 0.02 c 0,0.65 -0.4,1.07 -1.15,1.07 -0.79,0 -1.3,-0.52 -1.54,-0.87 -0.05,0.57 -0.47,0.87 -0.92,0.87 -0.46,0 -0.65,-0.39 -0.74,-0.57 -0.18,-0.34 -0.31,-0.93 -0.31,-0.96 0,-0.1 0.1,-0.1 0.12,-0.1 0.1,0 0.11,0.01 0.17,0.22 0.17,0.71 0.37,1.19 0.73,1.19 0.17,0 0.31,-0.08 0.31,-0.46 0,-0.21 -0.03,-0.32 -0.16,-0.83 l -0.58,-2.3 c -0.03,-0.15 -0.09,-0.38 -0.09,-0.43 0,-0.18 0.14,-0.26 0.29,-0.26 0.12,0 0.3,0.07 0.37,0.27 0.01,0.02 0.13,0.49 0.19,0.74 l 0.22,0.89 c 0.06,0.22 0.12,0.44 0.17,0.67 0.02,0.06 0.1,0.39 0.11,0.45 0.03,0.08 0.33,0.64 0.67,0.91 0.22,0.16 0.53,0.35 0.96,0.35 0.43,0 0.54,-0.34 0.54,-0.7 0,-0.05 0,-0.23 -0.1,-0.62 l -1.14,-4.57 c -0.03,-0.12 -0.03,-0.14 -0.03,-0.16 0,-0.15 0.11,-0.27 0.28,-0.27 0.31,0 0.38,0.29 0.41,0.4 z"
   id="path10546" />
</g>    <g
       ns0:preamble="/home/eric/BHLectures/Notes/latex_inkscape.ini"
       ns0:text="$x$"
       word-spacing="normal"
       letter-spacing="normal"
       font-size-adjust="none"
       font-stretch="normal"
       font-weight="normal"
       font-variant="normal"
       font-style="normal"
       stroke-miterlimit="10.433"
       xml:space="preserve"
       transform="matrix(1.2151373,0,0,-1.2151373,-23.678411,1059.0202)"
       id="content-2"
       style="font-style:normal;font-variant:normal;font-weight:normal;font-stretch:normal;letter-spacing:normal;word-spacing:normal;text-anchor:start;fill:none;fill-opacity:1;fill-rule:evenodd;stroke:#000000;stroke-linecap:butt;stroke-linejoin:miter;stroke-miterlimit:10.43299961;stroke-dasharray:none;stroke-dashoffset:0;stroke-opacity:1">
<path
   id="path6892-9"
   d="m 226.76,710.12 0.01,0.03 0.01,0.03 v 0.03 l 0.01,0.04 0.01,0.04 0.02,0.04 0.01,0.04 0.01,0.05 0.02,0.04 0.02,0.05 0.02,0.05 0.02,0.05 0.02,0.05 0.02,0.05 0.03,0.05 0.03,0.05 0.03,0.05 0.03,0.04 0.03,0.05 0.04,0.04 0.03,0.05 0.04,0.04 0.05,0.04 0.04,0.03 0.05,0.03 0.04,0.03 0.03,0.01 0.03,0.02 0.02,0.01 0.03,0.01 0.03,0.01 h 0.03 l 0.02,0.01 0.03,0.01 h 0.03 0.04 l 0.03,0.01 h 0.03 c 0.05,0 0.29,0 0.5,-0.13 -0.28,-0.05 -0.48,-0.3 -0.48,-0.54 0,-0.16 0.11,-0.35 0.38,-0.35 0.22,0 0.54,0.18 0.54,0.58 0,0.52 -0.59,0.66 -0.93,0.66 -0.58,0 -0.93,-0.53 -1.05,-0.76 -0.25,0.66 -0.78,0.76 -1.07,0.76 -1.04,0 -1.61,-1.29 -1.61,-1.53 0,-0.1 0.1,-0.1 0.12,-0.1 0.08,0 0.11,0.02 0.13,0.11 0.34,1.05 1,1.3 1.34,1.3 0.18,0 0.53,-0.09 0.53,-0.67 0,-0.31 -0.16,-0.97 -0.53,-2.36 -0.16,-0.62 -0.51,-1.04 -0.95,-1.04 -0.06,0 -0.29,0 -0.5,0.13 0.25,0.05 0.47,0.26 0.47,0.54 0,0.27 -0.22,0.35 -0.37,0.35 -0.3,0 -0.55,-0.26 -0.55,-0.58 0,-0.46 0.5,-0.65 0.94,-0.65 0.66,0 1.02,0.69 1.05,0.75 0.11,-0.37 0.47,-0.75 1.07,-0.75 1.03,0 1.6,1.28 1.6,1.53 0,0.1 -0.09,0.1 -0.12,0.1 -0.09,0 -0.11,-0.05 -0.13,-0.11 -0.33,-1.07 -1.01,-1.31 -1.33,-1.31 -0.39,0 -0.55,0.32 -0.55,0.66 0,0.22 0.06,0.44 0.17,0.87 z"
   inkscape:connector-curvature="0"
   style="fill:#000000;stroke-width:0" />
</g>    <g
       style="font-style:normal;font-variant:normal;font-weight:normal;font-stretch:normal;letter-spacing:normal;word-spacing:normal;text-anchor:start;fill:none;fill-opacity:1;fill-rule:evenodd;stroke:#000000;stroke-linecap:butt;stroke-linejoin:miter;stroke-miterlimit:10.43299961;stroke-dasharray:none;stroke-dashoffset:0;stroke-opacity:1"
       ns0:preamble="/home/eric/BHLectures/Notes/latex_inkscape.ini"
       ns0:text="$r_{\\rm em}$"
       word-spacing="normal"
       letter-spacing="normal"
       font-size-adjust="none"
       font-stretch="normal"
       font-weight="normal"
       font-variant="normal"
       font-style="normal"
       stroke-miterlimit="10.433"
       xml:space="preserve"
       transform="matrix(1.2151373,0,0,-1.2151373,-188.25273,1052.747)"
       id="content">
<path
   id="path10678"
   d="m 224.31,707.71 v -0.01 l -0.01,-0.02 v -0.01 -0.02 l -0.01,-0.03 -0.01,-0.03 v -0.03 l -0.01,-0.04 -0.01,-0.03 -0.01,-0.03 v -0.01 -0.02 l -0.01,-0.01 v -0.02 -0.01 l -0.01,-0.01 v -0.02 -0.01 -0.01 -0.01 l -0.01,-0.01 v -0.01 -0.01 0 -0.01 -0.01 c 0,-0.18 0.14,-0.26 0.29,-0.26 0.12,0 0.3,0.07 0.37,0.27 0.02,0.04 0.36,1.39 0.4,1.57 0.08,0.33 0.26,1.03 0.32,1.3 0.04,0.12 0.31,0.59 0.55,0.81 0.08,0.07 0.37,0.33 0.8,0.33 0.26,0 0.41,-0.12 0.42,-0.12 -0.3,-0.05 -0.52,-0.29 -0.52,-0.55 0,-0.16 0.11,-0.35 0.38,-0.35 0.27,0 0.55,0.23 0.55,0.59 0,0.35 -0.32,0.65 -0.83,0.65 -0.65,0 -1.08,-0.49 -1.27,-0.77 -0.08,0.45 -0.44,0.77 -0.91,0.77 -0.46,0 -0.65,-0.39 -0.74,-0.57 -0.18,-0.34 -0.31,-0.93 -0.31,-0.96 0,-0.1 0.1,-0.1 0.12,-0.1 0.1,0 0.11,0.01 0.17,0.22 0.17,0.71 0.37,1.19 0.73,1.19 0.17,0 0.31,-0.08 0.31,-0.46 0,-0.21 -0.03,-0.32 -0.16,-0.83 z"
   inkscape:connector-curvature="0"
   style="fill:#000000;stroke-width:0" />
<path
   id="path10680"
   d="m 231,707.22 h 0.02 0.01 0.01 0.01 0.01 0.02 0.01 0.01 v 0 h 0.01 0.01 0.01 l 0.01,0.01 v 0 h 0.01 l 0.01,0.01 v 0 h 0.01 v 0.01 h 0.01 v 0.01 0.01 h 0.01 v 0.01 0 0 0.01 0 0.01 0 l 0.01,0.01 v 0 0.01 0 0.01 0.01 0 0.01 0.01 0 0.01 c 0,0.61 -0.34,1.36 -1.38,1.36 -0.92,0 -1.62,-0.72 -1.62,-1.58 0,-0.88 0.78,-1.59 1.71,-1.59 0.94,0 1.29,0.75 1.29,0.91 0,0.02 -0.02,0.09 -0.12,0.09 -0.09,0 -0.1,-0.04 -0.12,-0.11 -0.22,-0.56 -0.75,-0.67 -1,-0.67 -0.33,0 -0.65,0.15 -0.86,0.41 -0.26,0.33 -0.26,0.76 -0.26,1.03 v 0.18 c 0.08,0.98 0.71,1.14 0.98,1.14 0.86,0 0.88,-0.97 0.89,-1.14 h -1.87 v -0.18 z"
   inkscape:connector-curvature="0"
   style="fill:#000000;stroke-width:0" />
<path
   id="path10682"
   d="m 237.22,707.74 v 0.05 l -0.01,0.06 v 0.05 l -0.01,0.05 -0.01,0.05 -0.01,0.05 -0.01,0.05 -0.01,0.04 -0.02,0.05 -0.02,0.04 -0.02,0.04 -0.02,0.04 -0.02,0.03 -0.03,0.04 -0.03,0.03 -0.03,0.03 -0.03,0.03 -0.04,0.03 -0.03,0.03 -0.04,0.02 -0.04,0.03 -0.05,0.02 -0.04,0.02 -0.05,0.01 -0.05,0.02 -0.06,0.01 -0.05,0.01 -0.06,0.01 -0.06,0.01 h -0.07 l -0.06,0.01 h -0.07 c -0.55,0 -0.93,-0.3 -1.12,-0.65 -0.14,0.49 -0.52,0.65 -1.03,0.65 -0.57,0 -0.94,-0.31 -1.14,-0.68 h -0.01 v 0.68 l -1.02,-0.08 v -0.25 c 0.47,0 0.52,-0.05 0.52,-0.39 v -1.8 c 0,-0.3 -0.07,-0.3 -0.52,-0.3 v -0.25 c 0.01,0 0.5,0.03 0.79,0.03 0.26,0 0.74,-0.02 0.81,-0.03 v 0.25 c -0.46,0 -0.53,0 -0.53,0.3 v 1.25 c 0,0.73 0.58,1.07 1.04,1.07 0.5,0 0.56,-0.38 0.56,-0.73 v -1.59 c 0,-0.3 -0.07,-0.3 -0.53,-0.3 v -0.25 c 0.02,0 0.51,0.03 0.8,0.03 0.26,0 0.74,-0.02 0.8,-0.03 v 0.25 c -0.45,0 -0.52,0 -0.52,0.3 v 1.25 c 0,0.73 0.58,1.07 1.04,1.07 0.49,0 0.55,-0.38 0.55,-0.73 v -1.59 c 0,-0.3 -0.07,-0.3 -0.52,-0.3 v -0.25 c 0.01,0 0.5,0.03 0.8,0.03 0.26,0 0.74,-0.02 0.8,-0.03 v 0.25 c -0.45,0 -0.52,0 -0.52,0.3 z"
   inkscape:connector-curvature="0"
   style="fill:#000000;stroke-width:0" />
</g>    <path
       style="fill:none;fill-rule:evenodd;stroke:#008000;stroke-width:0.89999998;stroke-linecap:butt;stroke-linejoin:miter;stroke-miterlimit:4;stroke-dasharray:none;stroke-opacity:1;marker-end:url(#marker10973)"
       d="m 186.05786,117.45181 8.29609,-0.71433"
       id="path10963"
       inkscape:connector-curvature="0"
       sodipodi:nodetypes="cc" />
  </g>
</svg>
