<?xml version="1.0" encoding="UTF-8" standalone="no"?>
<!-- Created with Inkscape (http://www.inkscape.org/) -->

<svg
   xmlns:ns0="http://www.iki.fi/pav/software/textext/"
   xmlns:dc="http://purl.org/dc/elements/1.1/"
   xmlns:cc="http://creativecommons.org/ns#"
   xmlns:rdf="http://www.w3.org/1999/02/22-rdf-syntax-ns#"
   xmlns:svg="http://www.w3.org/2000/svg"
   xmlns="http://www.w3.org/2000/svg"
   xmlns:sodipodi="http://sodipodi.sourceforge.net/DTD/sodipodi-0.dtd"
   xmlns:inkscape="http://www.inkscape.org/namespaces/inkscape"
   width="297mm"
   height="210mm"
   viewBox="0 0 297 210"
   version="1.1"
   id="svg8"
   inkscape:version="0.92.3 (2405546, 2018-03-11)"
   sodipodi:docname="gis_obs_angle.svg">
  <defs
     id="defs2">
    <inkscape:path-effect
       effect="bspline"
       id="path-effect1676"
       is_visible="true"
       weight="33.333333"
       steps="2"
       helper_size="0"
       apply_no_weight="true"
       apply_with_weight="true"
       only_selected="false" />
    <marker
       inkscape:stockid="Arrow1Mend"
       orient="auto"
       refY="0"
       refX="0"
       id="marker5138"
       style="overflow:visible"
       inkscape:isstock="true"
       inkscape:collect="always">
      <path
         inkscape:connector-curvature="0"
         id="path5136"
         d="M 0,0 5,-5 -12.5,0 5,5 Z"
         style="fill:#000000;fill-opacity:1;fill-rule:evenodd;stroke:#000000;stroke-width:1.00000003pt;stroke-opacity:1"
         transform="matrix(-0.4,0,0,-0.4,-4,0)" />
    </marker>
    <marker
       inkscape:stockid="Arrow1Mend"
       orient="auto"
       refY="0"
       refX="0"
       id="marker5138-5"
       style="overflow:visible"
       inkscape:isstock="true">
      <path
         inkscape:connector-curvature="0"
         id="path5136-3"
         d="M 0,0 5,-5 -12.5,0 5,5 Z"
         style="fill:#000000;fill-opacity:1;fill-rule:evenodd;stroke:#000000;stroke-width:1.00000003pt;stroke-opacity:1"
         transform="matrix(-0.4,0,0,-0.4,-4,0)" />
    </marker>
    <marker
       inkscape:isstock="true"
       style="overflow:visible"
       id="marker10973"
       refX="0"
       refY="0"
       orient="auto"
       inkscape:stockid="Arrow1Mend">
      <path
         transform="matrix(-0.4,0,0,-0.4,-4,0)"
         style="fill:#008000;fill-opacity:1;fill-rule:evenodd;stroke:#008000;stroke-width:1.00000003pt;stroke-opacity:1"
         d="M 0,0 5,-5 -12.5,0 5,5 Z"
         id="path10971"
         inkscape:connector-curvature="0" />
    </marker>
    <marker
       inkscape:stockid="Arrow1Mend"
       orient="auto"
       refY="0"
       refX="0"
       id="marker7907-2"
       style="overflow:visible"
       inkscape:isstock="true">
      <path
         inkscape:connector-curvature="0"
         id="path7905-8"
         d="M 0,0 5,-5 -12.5,0 5,5 Z"
         style="fill:#008000;fill-opacity:1;fill-rule:evenodd;stroke:#008000;stroke-width:1.00000003pt;stroke-opacity:1"
         transform="matrix(-0.4,0,0,-0.4,-4,0)" />
    </marker>
  </defs>
  <sodipodi:namedview
     id="base"
     pagecolor="#ffffff"
     bordercolor="#666666"
     borderopacity="1.0"
     inkscape:pageopacity="0.0"
     inkscape:pageshadow="2"
     inkscape:zoom="1.1769309"
     inkscape:cx="562.64725"
     inkscape:cy="337.5894"
     inkscape:document-units="mm"
     inkscape:current-layer="g1672"
     showgrid="false"
     inkscape:window-width="1853"
     inkscape:window-height="1025"
     inkscape:window-x="67"
     inkscape:window-y="27"
     inkscape:window-maximized="1">
    <inkscape:grid
       type="xygrid"
       id="grid3853"
       snapvisiblegridlinesonly="false"
       enabled="false" />
  </sodipodi:namedview>
  <metadata
     id="metadata5">
    <rdf:RDF>
      <cc:Work
         rdf:about="">
        <dc:format>image/svg+xml</dc:format>
        <dc:type
           rdf:resource="http://purl.org/dc/dcmitype/StillImage" />
        <dc:title></dc:title>
      </cc:Work>
    </rdf:RDF>
  </metadata>
  <g
     inkscape:label="Calque 1"
     inkscape:groupmode="layer"
     id="layer1"
     transform="translate(0,-87)">
    <g
       id="g1672"
       transform="matrix(0.34148157,0,0,0.34148157,-8.7811631,111.19765)">
      <circle
         style="fill:#ececec;fill-opacity:1;stroke:#000000;stroke-width:0.58534765;stroke-miterlimit:4;stroke-dasharray:none;stroke-dashoffset:0;stroke-opacity:1"
         id="path819"
         cx="155.00452"
         cy="286.85818"
         r="27.316223" />
      <circle
         style="fill:none;fill-opacity:1;stroke:#66ff00;stroke-width:0.58553213;stroke-miterlimit:4;stroke-dasharray:4.68425663, 2.34212831;stroke-dashoffset:0;stroke-opacity:1"
         id="path823"
         cx="155.48387"
         cy="287.04501"
         r="40.974331" />
      <path
         style="fill:none;fill-rule:evenodd;stroke:#000000;stroke-width:1.46420789;stroke-linecap:butt;stroke-linejoin:miter;stroke-miterlimit:4;stroke-dasharray:none;stroke-opacity:1;marker-end:url(#marker5138)"
         d="m 53.165264,287.58268 814.103196,0"
         id="path5128"
         inkscape:connector-curvature="0"
         sodipodi:nodetypes="cc" />
      <path
         style="fill:none;fill-rule:evenodd;stroke:#000000;stroke-width:1.46420786;stroke-linecap:butt;stroke-linejoin:miter;stroke-miterlimit:4;stroke-dasharray:none;stroke-opacity:1;marker-end:url(#marker5138-5)"
         d="M 155.26608,334.69969 V 179.66954"
         id="path5128-5"
         inkscape:connector-curvature="0"
         sodipodi:nodetypes="cc" />
      <path
         style="fill:none;stroke:#008000;stroke-width:1.75704944;stroke-linecap:butt;stroke-linejoin:miter;stroke-miterlimit:4;stroke-dasharray:none;stroke-opacity:1"
         d="m 77.447928,256.29601 c 42.260782,-53.1903 102.737432,-50.27576 190.173542,-43.71805 89.86878,6.74015 271.05194,29.14536 556.67652,73.59205"
         id="path3834"
         inkscape:connector-curvature="0"
         sodipodi:nodetypes="csc" />
      <path
         style="fill:none;stroke:#000000;stroke-width:1.17136629;stroke-linecap:butt;stroke-linejoin:miter;stroke-opacity:1;stroke-miterlimit:4;stroke-dasharray:none"
         d="m 156.14101,288.35977 653.5345,99.35491"
         id="path3836"
         inkscape:connector-curvature="0"
         sodipodi:nodetypes="cc" />
      <path
         style="fill:none;stroke:#000000;stroke-width:0.87852472;stroke-linecap:butt;stroke-linejoin:miter;stroke-miterlimit:4;stroke-dasharray:3.51409887,3.51409887;stroke-opacity:1;stroke-dashoffset:0"
         d="M 824.29799,286.17001 808.85493,387.75106"
         id="path3836-3"
         inkscape:connector-curvature="0"
         sodipodi:nodetypes="cc" />
      <circle
         style="fill:#000000;fill-opacity:1;stroke:none;stroke-width:0.31182578;stroke-miterlimit:4;stroke-dasharray:1.24730297, 1.24730297;stroke-dashoffset:0"
         id="path3874"
         cx="823.91071"
         cy="286.40039"
         r="4.9070621" />
      <circle
         style="fill:#008000;fill-opacity:1;stroke:none;stroke-width:0.31182578;stroke-miterlimit:4;stroke-dasharray:1.24730297, 1.24730297000000001;stroke-dashoffset:0"
         id="path3874-6"
         cx="79.039711"
         cy="255.75757"
         r="4.9070621" />
      <path
         style="fill:none;stroke:#000000;stroke-width:2.92841578;stroke-linecap:butt;stroke-linejoin:miter;stroke-miterlimit:4;stroke-dasharray:none;stroke-opacity:1"
         d="m 824.07764,262.30346 v 48.05816"
         id="path3891"
         inkscape:connector-curvature="0"
         sodipodi:nodetypes="cc" />
      <g
         ns0:preamble="/home/eric/BHLectures/Notes/latex_inkscape.ini"
         ns0:text="$x$"
         word-spacing="normal"
         letter-spacing="normal"
         font-size-adjust="none"
         font-stretch="normal"
         font-weight="normal"
         font-variant="normal"
         font-style="normal"
         stroke-miterlimit="10.433"
         xml:space="preserve"
         transform="matrix(3.26395,0,0,-3.26395,120.89733,2583.1224)"
         id="content-2"
         style="font-style:normal;font-variant:normal;font-weight:normal;font-stretch:normal;letter-spacing:normal;word-spacing:normal;text-anchor:start;fill:none;fill-opacity:1;fill-rule:evenodd;stroke:#000000;stroke-linecap:butt;stroke-linejoin:miter;stroke-miterlimit:10.43299961;stroke-dasharray:none;stroke-dashoffset:0;stroke-opacity:1">
<path
   id="path6892-9"
   d="m 226.76,710.12 0.01,0.03 0.01,0.03 v 0.03 l 0.01,0.04 0.01,0.04 0.02,0.04 0.01,0.04 0.01,0.05 0.02,0.04 0.02,0.05 0.02,0.05 0.02,0.05 0.02,0.05 0.02,0.05 0.03,0.05 0.03,0.05 0.03,0.05 0.03,0.04 0.03,0.05 0.04,0.04 0.03,0.05 0.04,0.04 0.05,0.04 0.04,0.03 0.05,0.03 0.04,0.03 0.03,0.01 0.03,0.02 0.02,0.01 0.03,0.01 0.03,0.01 h 0.03 l 0.02,0.01 0.03,0.01 h 0.03 0.04 l 0.03,0.01 h 0.03 c 0.05,0 0.29,0 0.5,-0.13 -0.28,-0.05 -0.48,-0.3 -0.48,-0.54 0,-0.16 0.11,-0.35 0.38,-0.35 0.22,0 0.54,0.18 0.54,0.58 0,0.52 -0.59,0.66 -0.93,0.66 -0.58,0 -0.93,-0.53 -1.05,-0.76 -0.25,0.66 -0.78,0.76 -1.07,0.76 -1.04,0 -1.61,-1.29 -1.61,-1.53 0,-0.1 0.1,-0.1 0.12,-0.1 0.08,0 0.11,0.02 0.13,0.11 0.34,1.05 1,1.3 1.34,1.3 0.18,0 0.53,-0.09 0.53,-0.67 0,-0.31 -0.16,-0.97 -0.53,-2.36 -0.16,-0.62 -0.51,-1.04 -0.95,-1.04 -0.06,0 -0.29,0 -0.5,0.13 0.25,0.05 0.47,0.26 0.47,0.54 0,0.27 -0.22,0.35 -0.37,0.35 -0.3,0 -0.55,-0.26 -0.55,-0.58 0,-0.46 0.5,-0.65 0.94,-0.65 0.66,0 1.02,0.69 1.05,0.75 0.11,-0.37 0.47,-0.75 1.07,-0.75 1.03,0 1.6,1.28 1.6,1.53 0,0.1 -0.09,0.1 -0.12,0.1 -0.09,0 -0.11,-0.05 -0.13,-0.11 -0.33,-1.07 -1.01,-1.31 -1.33,-1.31 -0.39,0 -0.55,0.32 -0.55,0.66 0,0.22 0.06,0.44 0.17,0.87 z"
   inkscape:connector-curvature="0"
   style="fill:#000000;stroke-width:0" />
</g>      <path
         style="fill:none;fill-rule:evenodd;stroke:#008000;stroke-width:2.049891;stroke-linecap:butt;stroke-linejoin:miter;stroke-miterlimit:4;stroke-dasharray:none;stroke-opacity:1;marker-end:url(#marker10973)"
         d="m 453.94102,232.72361 24.13316,3.22902"
         id="path10963"
         inkscape:connector-curvature="0"
         sodipodi:nodetypes="cc" />
      <path
         style="fill:none;fill-opacity:1;stroke:#000000;stroke-width:2.34273258;stroke-miterlimit:4;stroke-dasharray:none;stroke-dashoffset:0;stroke-opacity:1"
         id="path7897-9"
         sodipodi:type="arc"
         sodipodi:cx="156.14101"
         sodipodi:cy="-288.35977"
         sodipodi:rx="86.315247"
         sodipodi:ry="86.315247"
         sodipodi:start="6.125364"
         sodipodi:end="0.022065544"
         sodipodi:open="true"
         d="m 241.38353,-301.92568 a 86.315247,86.315247 0 0 1 1.05171,15.47035"
         transform="scale(1,-1)" />
      <path
         style="fill:none;fill-opacity:1;stroke:#000000;stroke-width:2.34273258;stroke-miterlimit:4;stroke-dasharray:none;stroke-dashoffset:0;stroke-opacity:1"
         id="path7897-9-7"
         sodipodi:type="arc"
         sodipodi:cx="-815.91241"
         sodipodi:cy="285.33771"
         sodipodi:rx="86.315239"
         sodipodi:ry="86.315239"
         sodipodi:start="6.125364"
         sodipodi:end="0.022065544"
         sodipodi:open="true"
         d="m -730.6699,271.7718 a 86.315239,86.315239 0 0 1 1.05171,15.47035"
         transform="scale(-1,1)" />
      <path
         style="fill:none;stroke:#000000;stroke-width:0.77481002px;stroke-linecap:butt;stroke-linejoin:miter;stroke-opacity:1"
         d="m 796.01824,385.59543 2.00931,-13.08862 12.95133,1.85019"
         id="path4810"
         inkscape:connector-curvature="0"
         sodipodi:nodetypes="ccc" />
    </g>
  </g>
</svg>
