<?xml version="1.0" encoding="UTF-8" standalone="no"?>
<!-- Created with Inkscape (http://www.inkscape.org/) -->

<svg
   xmlns:ns0="http://www.iki.fi/pav/software/textext/"
   xmlns:dc="http://purl.org/dc/elements/1.1/"
   xmlns:cc="http://creativecommons.org/ns#"
   xmlns:rdf="http://www.w3.org/1999/02/22-rdf-syntax-ns#"
   xmlns:svg="http://www.w3.org/2000/svg"
   xmlns="http://www.w3.org/2000/svg"
   xmlns:sodipodi="http://sodipodi.sourceforge.net/DTD/sodipodi-0.dtd"
   xmlns:inkscape="http://www.inkscape.org/namespaces/inkscape"
   width="1052.3622"
   height="744.09448"
   id="svg2"
   version="1.1"
   inkscape:version="0.91 r13725"
   sodipodi:docname="glo_point_sequence.svg">
  <sodipodi:namedview
     id="base"
     pagecolor="#ffffff"
     bordercolor="#666666"
     borderopacity="1.0"
     inkscape:pageopacity="0.0"
     inkscape:pageshadow="2"
     inkscape:zoom="1.3070949"
     inkscape:cx="492.80497"
     inkscape:cy="399.23319"
     inkscape:document-units="px"
     inkscape:current-layer="layer1"
     showgrid="false"
     inkscape:window-width="1535"
     inkscape:window-height="876"
     inkscape:window-x="65"
     inkscape:window-y="24"
     inkscape:window-maximized="1" />
  <defs
     id="defs4">
    <marker
       style="overflow:visible;"
       id="Arrow1Lend"
       refX="0.0"
       refY="0.0"
       orient="auto"
       inkscape:stockid="Arrow1Lend">
      <path
         transform="scale(0.8) rotate(180) translate(12.5,0)"
         style="fill-rule:evenodd;stroke:#000000;stroke-width:1.0pt;"
         d="M 0.0,0.0 L 5.0,-5.0 L -12.5,0.0 L 5.0,5.0 L 0.0,0.0 z "
         id="path3874" />
    </marker>
    <marker
       style="overflow:visible;"
       id="Arrow1Lendi"
       refX="0.0"
       refY="0.0"
       orient="auto"
       inkscape:stockid="Arrow1Lendi">
      <path
         transform="scale(0.8) rotate(180) translate(12.5,0)"
         style="stroke:#ff0000;stroke-width:1.0pt;fill:#ff0000;fill-rule:evenodd"
         d="M 0.0,0.0 L 5.0,-5.0 L -12.5,0.0 L 5.0,5.0 L 0.0,0.0 z "
         id="path4316" />
    </marker>
    <marker
       style="overflow:visible"
       id="Arrow1Lendi-2"
       refX="0"
       refY="0"
       orient="auto"
       inkscape:stockid="Arrow1Lendi">
      <path
         inkscape:connector-curvature="0"
         transform="matrix(-0.8,0,0,-0.8,-10,0)"
         style="fill:#ff0000;fill-rule:evenodd;stroke:#ff0000;stroke-width:1pt"
         d="M 0,0 5,-5 -12.5,0 5,5 0,0 Z"
         id="path4316-9" />
    </marker>
    <marker
       style="overflow:visible"
       id="Arrow1Lendi-27"
       refX="0"
       refY="0"
       orient="auto"
       inkscape:stockid="Arrow1Lendi">
      <path
         inkscape:connector-curvature="0"
         transform="matrix(-0.8,0,0,-0.8,-10,0)"
         style="fill:#ff0000;fill-rule:evenodd;stroke:#ff0000;stroke-width:1pt"
         d="M 0,0 5,-5 -12.5,0 5,5 0,0 Z"
         id="path4316-0" />
    </marker>
    <marker
       style="overflow:visible"
       id="Arrow1Lendi-3"
       refX="0"
       refY="0"
       orient="auto"
       inkscape:stockid="Arrow1Lendi">
      <path
         inkscape:connector-curvature="0"
         transform="matrix(-0.8,0,0,-0.8,-10,0)"
         style="fill:#ff0000;fill-rule:evenodd;stroke:#ff0000;stroke-width:1pt"
         d="M 0,0 5,-5 -12.5,0 5,5 0,0 Z"
         id="path4316-6" />
    </marker>
    <marker
       style="overflow:visible"
       id="Arrow1Lendi-6"
       refX="0"
       refY="0"
       orient="auto"
       inkscape:stockid="Arrow1Lendi">
      <path
         inkscape:connector-curvature="0"
         transform="matrix(-0.8,0,0,-0.8,-10,0)"
         style="fill:#ff0000;fill-rule:evenodd;stroke:#ff0000;stroke-width:1pt"
         d="M 0,0 5,-5 -12.5,0 5,5 0,0 Z"
         id="path4316-2" />
    </marker>
    <marker
       style="overflow:visible"
       id="Arrow1Lendi-6-7"
       refX="0"
       refY="0"
       orient="auto"
       inkscape:stockid="Arrow1Lendi">
      <path
         inkscape:connector-curvature="0"
         transform="matrix(-0.8,0,0,-0.8,-10,0)"
         style="fill:#ff0000;fill-rule:evenodd;stroke:#ff0000;stroke-width:1pt"
         d="M 0,0 5,-5 -12.5,0 5,5 0,0 Z"
         id="path4316-2-3" />
    </marker>
  </defs>
  <metadata
     id="metadata7">
    <rdf:RDF>
      <cc:Work
         rdf:about="">
        <dc:format>image/svg+xml</dc:format>
        <dc:type
           rdf:resource="http://purl.org/dc/dcmitype/StillImage" />
        <dc:title />
      </cc:Work>
    </rdf:RDF>
  </metadata>
  <g
     transform="translate(0,-308.2677)"
     id="layer1"
     inkscape:groupmode="layer"
     inkscape:label="Calque 1">
    <path
       sodipodi:nodetypes="ccccc"
       transform="translate(0,308.2677)"
       inkscape:connector-curvature="0"
       id="path4554"
       d="M 251.36749,610.8912 C 396.3872,420.75425 460.64294,274.60138 479.10214,184.36689 c -206.21592,2.48791 -266.92968,1.9613 -374.66702,0.2564 -0.67932,185.98595 -1.0536,316.06678 -2.06887,426.58324 106.34778,0.31535 51.24722,-1.38955 149.00124,-0.31533 z"
       style="fill:#cccccc;stroke:#cccccc;stroke-width:1px;stroke-linecap:butt;stroke-linejoin:miter;stroke-opacity:1" />
    <path
       inkscape:connector-curvature="0"
       id="path3757"
       d="M 249.56523,921.44642 C 442.47861,685.66339 480.24473,492.75001 480.24473,492.75001"
       style="fill:none;stroke:#000000;stroke-width:4;stroke-linecap:butt;stroke-linejoin:miter;stroke-miterlimit:4;stroke-opacity:1;stroke-dasharray:none" />
    <path
       sodipodi:nodetypes="cc"
       inkscape:connector-curvature="0"
       id="path3777-2"
       d="M 414.35519,856.01446 C 470.9027,769.65017 597.79101,645.06402 708.1815,538.81869"
       style="fill:none;stroke:#ff0000;stroke-width:1.755;stroke-linecap:butt;stroke-linejoin:miter;stroke-miterlimit:4;stroke-dasharray:none;stroke-dashoffset:0;stroke-opacity:1;marker-end:url(#Arrow1Lendi)" />
    <path
       style="fill:#008000;stroke:#008000;stroke-width:2;stroke-linecap:butt;stroke-linejoin:miter;stroke-miterlimit:4;stroke-opacity:1;stroke-dasharray:24, 24;stroke-dashoffset:0"
       d="M 593.69517,381.50808 883.04118,670.8541"
       id="path4346"
       inkscape:connector-curvature="0" />
    <g
       style="font-style:normal;font-variant:normal;font-weight:normal;font-stretch:normal;letter-spacing:normal;word-spacing:normal;text-anchor:start;fill:#008000;stroke:#000000;stroke-linecap:butt;stroke-linejoin:miter;stroke-miterlimit:10.43299960999999954;stroke-opacity:1;stroke-dasharray:none;stroke-dashoffset:0"
       id="content"
       transform="matrix(4,0,0,-4,-134.50416,3353.6451)"
       xml:space="preserve"
       stroke-miterlimit="10.433"
       font-style="normal"
       font-variant="normal"
       font-weight="normal"
       font-stretch="normal"
       font-size-adjust="none"
       letter-spacing="normal"
       word-spacing="normal"
       ns0:text="$\\mathscr{I}^+$"
       ns0:preamble="/home/eric/BHLectures/Notes/latex_inkscape.ini"><path
         style="fill:#008000;stroke-width:0"
         inkscape:connector-curvature="0"
         d="m 230.42,711.73 0.11,0.16 0.12,0.16 0.13,0.15 0.13,0.15 0.14,0.16 0.14,0.15 0.15,0.14 0.15,0.15 0.16,0.14 0.16,0.14 0.17,0.14 0.17,0.14 0.18,0.13 0.18,0.13 0.18,0.12 0.18,0.12 c 0.02,0.01 0.03,0.04 0.03,0.07 l -0.01,0.08 c -0.01,0.01 -0.01,0.02 -0.01,0.03 -0.01,0.04 -0.05,0.06 -0.08,0.06 -0.01,0 -0.02,0 -0.03,-0.01 -1.8,-0.74 -3.72,-0.67 -4.8,-2.2 -0.35,-0.49 -0.53,-0.98 -0.53,-1.4 0,-0.16 0.03,-0.31 0.08,-0.44 0.14,-0.35 0.45,-0.58 0.86,-0.7 l 0.14,0.22 c -0.31,0.1 -0.52,0.3 -0.59,0.56 -0.02,0.07 -0.03,0.15 -0.03,0.23 0,0.4 0.22,0.91 0.6,1.43 0.65,0.94 1.82,1.28 2.98,1.64 0.13,0.04 0.26,0.08 0.38,0.12 -0.79,-0.53 -1.48,-1.18 -1.97,-1.87 h 0 c -0.5,-0.7 -0.91,-1.41 -1.37,-2.11 l -0.14,-0.22 -0.17,-0.24 c -0.75,-1.05 -1.92,-2.08 -2.81,-2.08 -0.69,0 -1.17,0.18 -1.17,0.58 0,0.09 0.02,0.2 0.08,0.31 0.06,-0.1 0.17,-0.15 0.29,-0.15 0.25,0 0.55,0.2 0.55,0.39 0,0.24 -0.15,0.34 -0.33,0.34 -0.2,0 -0.44,-0.12 -0.56,-0.29 -0.17,-0.25 -0.25,-0.46 -0.25,-0.64 0,-0.52 0.63,-0.76 1.35,-0.76 1.21,0 2.91,0.96 3.7,2.2 l 0.18,0.28 c 0.28,0.04 0.6,0.14 0.92,0.32 0.37,0.2 0.71,0.48 0.93,0.79 0.29,0.41 0.36,0.78 0.36,1.11 0,0.11 -0.01,0.23 -0.02,0.34 -0.01,0.04 -0.04,0.07 -0.08,0.07 h -0.02 c -0.03,0 -0.06,-0.02 -0.09,-0.03 -0.03,-0.02 -0.05,-0.05 -0.05,-0.09 0.01,-0.08 0.02,-0.16 0.02,-0.24 0,-0.31 -0.09,-0.67 -0.37,-1.06 -0.19,-0.27 -0.47,-0.54 -0.8,-0.72 -0.23,-0.13 -0.46,-0.21 -0.67,-0.25 0.38,0.69 0.55,1.36 1.05,2.05 z"
         id="path4387" /><path
         style="fill:#008000;stroke-width:0"
         inkscape:connector-curvature="0"
         d="m 236.63,712.31 h 2.13 c 0.09,0 0.26,0 0.26,0.17 0,0.17 -0.16,0.17 -0.26,0.17 h -2.13 v 2.14 c 0,0.09 0,0.25 -0.17,0.25 -0.17,0 -0.17,-0.16 -0.17,-0.25 v -2.14 h -2.14 c -0.09,0 -0.26,0 -0.26,-0.17 0,-0.17 0.16,-0.17 0.26,-0.17 h 2.14 v -2.13 c 0,-0.09 0,-0.26 0.16,-0.26 0.18,0 0.18,0.16 0.18,0.26 z"
         id="path4389" /></g>    <g
       ns0:preamble="/home/eric/BHLectures/Notes/latex_inkscape.ini"
       ns0:text="$J^-(\\mathscr{I}^+)$"
       word-spacing="normal"
       letter-spacing="normal"
       font-size-adjust="none"
       font-stretch="normal"
       font-weight="normal"
       font-variant="normal"
       font-style="normal"
       stroke-miterlimit="10.433"
       xml:space="preserve"
       transform="matrix(4,0,0,-4,-323.07404,3633.7384)"
       id="g4433"
       style="font-style:normal;font-variant:normal;font-weight:normal;font-stretch:normal;letter-spacing:normal;word-spacing:normal;text-anchor:start;fill:none;stroke:#000000;stroke-linecap:butt;stroke-linejoin:miter;stroke-miterlimit:10.43299961;stroke-dasharray:none;stroke-dashoffset:0;stroke-opacity:1"><path
         id="path4435"
         d="m 228.82,713.18 0,0.03 0.01,0.03 0.01,0.03 0,0.03 0.01,0.02 0.01,0.02 0,0.03 0.01,0.02 0.01,0.02 0.01,0.02 0.01,0.01 0.01,0.02 0.01,0.02 0.01,0.01 0.02,0.01 0.01,0.02 0.02,0.01 0.02,0.01 0.02,0.01 0.02,0.01 0.02,0 0.02,0.01 0.03,0.01 0.02,0 0.01,0 0.02,0.01 0.01,0 0.02,0 0.02,0 0.01,0 0.02,0 0.02,0.01 0.02,0 0.02,0 0.02,0 0.02,0 0.02,0 0.03,0 0.02,0 0.03,0 0.02,0 c 0.16,0 0.27,0 0.27,0.19 0,0.09 -0.06,0.12 -0.14,0.12 -0.25,0 -0.85,-0.03 -1.1,-0.03 -0.33,0 -1.14,0.03 -1.47,0.03 -0.09,0 -0.2,0 -0.2,-0.2 0,-0.11 0.07,-0.11 0.33,-0.11 0.23,0 0.33,0 0.58,-0.02 0.24,-0.03 0.31,-0.06 0.31,-0.2 0,-0.06 -0.02,-0.13 -0.04,-0.21 l -1.15,-4.56 c -0.23,-0.96 -0.91,-1.49 -1.43,-1.49 -0.26,0 -0.78,0.1 -0.94,0.62 0.03,-0.01 0.1,-0.01 0.12,-0.01 0.38,0 0.64,0.34 0.64,0.64 0,0.31 -0.27,0.41 -0.44,0.41 -0.17,0 -0.66,-0.12 -0.66,-0.79 0,-0.62 0.53,-1.08 1.31,-1.08 0.92,0 1.95,0.65 2.2,1.64 z"
         inkscape:connector-curvature="0"
         style="fill:#000000;stroke-width:0" /><path
         id="path4437"
         d="m 235.1,712.31 0.01,0 0.01,0 0.01,0 0.01,0 0.02,0 0.02,0 0.01,0 0.01,0 0.01,0.01 0.01,0 0.01,0 0.02,0 0.01,0 0.01,0.01 0.01,0 0.01,0.01 0.01,0 0.01,0.01 0.01,0 0,0.01 0.01,0.01 0.01,0 0,0.01 0.01,0 0,0.01 0,0 0.01,0.01 0,0 0,0.01 0,0 0.01,0.01 0,0 0,0.01 0,0.01 0,0 0,0.01 0,0.01 0,0 0,0.01 0.01,0.01 c 0,0.17 -0.17,0.17 -0.28,0.17 l -4.15,0 c -0.12,0 -0.28,0 -0.28,-0.17 0,-0.17 0.16,-0.17 0.28,-0.17 z"
         inkscape:connector-curvature="0"
         style="fill:#000000;stroke-width:0" /><path
         id="path4439"
         d="m 239.93,704.74 0,0.01 0,0 0,0 0,0.01 0,0 0,0 0,0.01 0,0 0,0 -0.01,0.01 0,0 0,0.01 0,0 -0.01,0.01 0,0 -0.01,0.01 0,0.01 -0.01,0 0,0.01 0,0 -0.01,0.01 0,0 -0.01,0 0,0.01 0,0 -0.01,0.01 0,0 -0.01,0.01 0,0 -0.01,0.01 0,0 -0.01,0.01 0,0.01 -0.01,0 -0.01,0.01 0,0.01 -0.01,0 -0.01,0.01 0,0.01 -0.01,0 -0.01,0.01 -0.01,0.01 c -1.24,1.25 -1.56,3.13 -1.56,4.65 0,1.73 0.38,3.46 1.6,4.7 0.13,0.12 0.13,0.14 0.13,0.17 0,0.07 -0.04,0.1 -0.1,0.1 -0.1,0 -0.99,-0.68 -1.58,-1.94 -0.51,-1.09 -0.63,-2.2 -0.63,-3.03 0,-0.78 0.11,-1.98 0.66,-3.1 0.6,-1.22 1.45,-1.87 1.55,-1.87 0.06,0 0.1,0.03 0.1,0.1 z"
         inkscape:connector-curvature="0"
         style="fill:#000000;stroke-width:0" /><path
         id="path4441"
         d="m 247.5,711.73 0.11,0.16 0.12,0.16 0.13,0.15 0.13,0.15 0.14,0.16 0.14,0.15 0.15,0.14 0.15,0.15 0.16,0.14 0.17,0.14 0.16,0.14 0.17,0.14 0.18,0.13 0.18,0.13 0.18,0.12 0.19,0.12 c 0.02,0.01 0.03,0.04 0.03,0.07 l -0.01,0.08 c -0.01,0.01 -0.01,0.02 -0.01,0.03 -0.01,0.04 -0.05,0.06 -0.08,0.06 -0.01,0 -0.02,0 -0.03,-0.01 -1.8,-0.74 -3.73,-0.67 -4.81,-2.2 -0.35,-0.49 -0.53,-0.98 -0.53,-1.4 0,-0.16 0.03,-0.31 0.08,-0.44 0.14,-0.35 0.45,-0.58 0.86,-0.7 l 0.14,0.22 c -0.31,0.1 -0.52,0.3 -0.59,0.56 -0.02,0.07 -0.03,0.15 -0.03,0.23 0,0.4 0.22,0.91 0.6,1.43 0.66,0.94 1.82,1.28 2.98,1.64 0.13,0.04 0.26,0.08 0.38,0.12 -0.79,-0.53 -1.48,-1.18 -1.97,-1.87 l 0,0 c -0.5,-0.7 -0.9,-1.41 -1.37,-2.11 l -0.14,-0.22 -0.17,-0.24 c -0.75,-1.05 -1.92,-2.08 -2.81,-2.08 -0.68,0 -1.17,0.18 -1.17,0.58 0,0.09 0.02,0.2 0.08,0.31 0.06,-0.1 0.17,-0.15 0.29,-0.15 0.26,0 0.56,0.2 0.56,0.39 0,0.24 -0.15,0.34 -0.33,0.34 -0.21,0 -0.45,-0.12 -0.57,-0.29 -0.17,-0.25 -0.25,-0.46 -0.25,-0.64 0,-0.52 0.63,-0.76 1.35,-0.76 1.21,0 2.91,0.96 3.71,2.2 l 0.17,0.28 c 0.28,0.04 0.6,0.14 0.92,0.32 0.37,0.2 0.72,0.48 0.94,0.79 0.28,0.41 0.35,0.78 0.35,1.11 0,0.11 -0.01,0.23 -0.02,0.34 -0.01,0.04 -0.04,0.07 -0.08,0.07 l -0.02,0 c -0.03,0 -0.06,-0.02 -0.09,-0.03 -0.03,-0.02 -0.05,-0.05 -0.05,-0.09 0.01,-0.08 0.02,-0.16 0.02,-0.24 0,-0.31 -0.08,-0.67 -0.36,-1.06 -0.19,-0.27 -0.48,-0.54 -0.81,-0.72 -0.23,-0.13 -0.46,-0.21 -0.67,-0.25 0.38,0.69 0.55,1.36 1.05,2.05 z"
         inkscape:connector-curvature="0"
         style="fill:#000000;stroke-width:0" /><path
         id="path4443"
         d="m 253.71,712.31 2.13,0 c 0.09,0 0.26,0 0.26,0.17 0,0.17 -0.16,0.17 -0.26,0.17 l -2.13,0 0,2.14 c 0,0.09 0,0.25 -0.17,0.25 -0.17,0 -0.17,-0.16 -0.17,-0.25 l 0,-2.14 -2.14,0 c -0.09,0 -0.26,0 -0.26,-0.17 0,-0.17 0.16,-0.17 0.26,-0.17 l 2.14,0 0,-2.13 c 0,-0.09 0,-0.26 0.17,-0.26 0.17,0 0.17,0.16 0.17,0.26 z"
         inkscape:connector-curvature="0"
         style="fill:#000000;stroke-width:0" /><path
         id="path4445"
         d="m 259.98,709.61 -0.01,0.07 0,0.08 0,0.08 0,0.08 -0.01,0.17 -0.01,0.17 -0.02,0.18 -0.02,0.19 -0.03,0.2 -0.03,0.2 -0.04,0.2 -0.04,0.21 -0.06,0.21 -0.06,0.21 -0.07,0.21 -0.08,0.21 -0.04,0.11 -0.04,0.11 -0.05,0.1 -0.05,0.11 c -0.6,1.22 -1.45,1.87 -1.55,1.87 -0.06,0 -0.1,-0.04 -0.1,-0.1 0,-0.03 0,-0.05 0.19,-0.23 0.97,-0.99 1.54,-2.57 1.54,-4.64 0,-1.7 -0.37,-3.45 -1.6,-4.7 -0.13,-0.12 -0.13,-0.14 -0.13,-0.17 0,-0.06 0.04,-0.1 0.1,-0.1 0.1,0 0.99,0.68 1.58,1.94 0.51,1.09 0.63,2.19 0.63,3.03 z"
         inkscape:connector-curvature="0"
         style="fill:#000000;stroke-width:0" /></g>    <g
       style="font-style:normal;font-variant:normal;font-weight:normal;font-stretch:normal;letter-spacing:normal;word-spacing:normal;text-anchor:start;fill:none;stroke:#000000;stroke-linecap:butt;stroke-linejoin:miter;stroke-miterlimit:10.43299961;stroke-opacity:1;stroke-dasharray:none;stroke-dashoffset:0"
       id="g4503"
       transform="matrix(4,0,0,-4,-675.9307,3508.0543)"
       xml:space="preserve"
       stroke-miterlimit="10.433"
       font-style="normal"
       font-variant="normal"
       font-weight="normal"
       font-stretch="normal"
       font-size-adjust="none"
       letter-spacing="normal"
       word-spacing="normal"
       ns0:text="$\\mathscr{B}$"
       ns0:preamble="/home/eric/BHLectures/Notes/latex_inkscape.ini"><path
         style="fill:#000000;stroke-width:0"
         inkscape:connector-curvature="0"
         d="m 229.82,714.16 -0.13,0 -0.14,-0.01 -0.13,-0.01 -0.14,-0.02 -0.15,-0.02 -0.14,-0.02 -0.15,-0.03 -0.14,-0.04 -0.15,-0.04 -0.15,-0.05 -0.16,-0.05 -0.15,-0.05 -0.16,-0.06 -0.15,-0.07 -0.16,-0.07 -0.16,-0.08 c -0.72,-0.37 -1.43,-0.9 -1.86,-1.5 -0.34,-0.47 -0.55,-0.96 -0.55,-1.37 0,-0.07 0.01,-0.13 0.02,-0.19 0.07,-0.43 0.41,-0.68 0.95,-0.68 0.35,0 0.77,0.11 1.17,0.31 0.38,0.2 0.73,0.48 0.95,0.79 0.4,0.56 0.56,1.08 0.56,1.54 0,0.09 -0.02,0.18 -0.02,0.27 0,0.05 -0.05,0.08 -0.09,0.08 -0.03,-0.01 -0.06,-0.02 -0.09,-0.04 -0.03,-0.01 -0.05,-0.04 -0.05,-0.07 v -0.08 c 0,-0.42 -0.4,-1 -0.83,-1.6 -0.18,-0.26 -0.41,-0.52 -0.71,-0.71 -0.3,-0.19 -0.61,-0.27 -0.85,-0.27 -0.45,0 -0.7,0.2 -0.74,0.52 -0.01,0.04 -0.01,0.08 -0.01,0.12 0,0.36 0.2,0.81 0.54,1.28 0.39,0.56 1.03,1.08 1.73,1.42 0.79,0.4 1.56,0.58 2.2,0.58 0.75,0 1.38,-0.11 1.83,-0.39 -1.62,-1.19 -2.77,-2.81 -3.82,-4.29 -0.73,-1.03 -1.78,-2.06 -2.62,-2.06 -0.68,0 -1.19,0.18 -1.19,0.58 0,0.09 0.03,0.18 0.08,0.29 0.06,-0.1 0.17,-0.15 0.29,-0.15 0.26,0 0.55,0.2 0.55,0.39 0,0.24 -0.14,0.34 -0.32,0.34 -0.21,0 -0.45,-0.12 -0.57,-0.29 -0.17,-0.24 -0.24,-0.44 -0.24,-0.62 0,-0.52 0.64,-0.75 1.36,-0.75 1.15,0 2.7,1.02 3.52,2.17 0.21,0.31 0.44,0.64 0.69,0.98 0.14,-0.05 0.3,-0.06 0.46,-0.06 l 0.04,0.21 c -0.05,0 -0.09,0 -0.11,0.01 0.02,0.03 0.05,0.06 0.08,0.11 h 0 c 0.08,0.12 0.12,0.16 0.12,0.16 0.09,0.05 0.18,0.06 0.27,0.06 l 0.04,0.22 c -0.13,0 -0.26,-0.01 -0.4,-0.03 0.71,0.96 1.44,1.91 2.04,2.51 0.17,-0.17 0.27,-0.39 0.27,-0.66 0,-0.28 -0.11,-0.61 -0.37,-0.97 -0.23,-0.33 -0.5,-0.66 -0.86,-0.94 -0.19,0.06 -0.43,0.09 -0.68,0.09 h 0 l -0.04,-0.22 c 0.17,0 0.33,-0.02 0.46,-0.05 -0.28,-0.18 -0.59,-0.29 -0.82,-0.29 l -0.04,-0.21 c 0.36,0 0.79,0.13 1.2,0.36 0.16,-0.09 0.27,-0.23 0.33,-0.39 0.02,-0.07 0.04,-0.15 0.04,-0.24 0,-0.34 -0.18,-0.79 -0.51,-1.24 -0.24,-0.33 -0.5,-0.67 -0.87,-0.94 -0.32,-0.23 -0.66,-0.37 -0.92,-0.37 -0.33,0 -0.53,0.12 -0.58,0.33 -0.01,0.04 -0.02,0.09 -0.02,0.14 0,0.2 0.1,0.46 0.29,0.74 0.13,0.19 0.37,0.34 0.61,0.45 0.31,0.13 0.6,0.18 0.85,0.18 0.03,0 0.05,0.01 0.07,0.03 l 0.04,0.06 c 0.01,0.01 0.01,0.03 0.01,0.05 0,0.04 -0.04,0.08 -0.08,0.08 -0.29,0 -0.62,-0.06 -0.97,-0.22 -0.27,-0.12 -0.55,-0.31 -0.71,-0.53 -0.21,-0.3 -0.33,-0.61 -0.33,-0.87 0,-0.07 0,-0.13 0.02,-0.19 0.09,-0.31 0.38,-0.46 0.76,-0.46 0.37,0 0.83,0.15 1.26,0.41 0.44,0.27 0.82,0.64 1.09,1.01 0.3,0.42 0.46,0.84 0.46,1.2 0,0.17 -0.04,0.34 -0.11,0.48 -0.09,0.19 -0.25,0.35 -0.45,0.47 0.41,0.28 0.77,0.62 1.03,0.97 0.24,0.36 0.35,0.69 0.35,0.98 0,0.34 -0.13,0.63 -0.36,0.85 -0.05,0.05 -0.1,0.1 -0.16,0.15 0.13,0.12 0.26,0.21 0.37,0.28 0.02,0.02 0.03,0.04 0.03,0.07 l -0.01,0.1 c -0.01,0.04 -0.05,0.06 -0.09,0.06 -0.01,0 -0.03,0 -0.04,-0.01 l -0.52,-0.33 c -0.54,0.31 -1.26,0.42 -2.06,0.42 z"
         id="path4505" /></g>    <g
       style="font-style:normal;font-variant:normal;font-weight:normal;font-stretch:normal;letter-spacing:normal;word-spacing:normal;text-anchor:start;fill:none;stroke:#000000;stroke-linecap:butt;stroke-linejoin:miter;stroke-miterlimit:10.43299961;stroke-dasharray:none;stroke-dashoffset:0;stroke-opacity:1"
       ns0:preamble="/home/eric/BHLectures/Notes/latex_inkscape.ini"
       ns0:text="$p$"
       word-spacing="normal"
       letter-spacing="normal"
       font-size-adjust="none"
       font-stretch="normal"
       font-weight="normal"
       font-variant="normal"
       font-style="normal"
       stroke-miterlimit="10.433"
       xml:space="preserve"
       transform="matrix(4,0,0,-4,-593.6361,3639.3491)"
       id="g4611"><path
         style="fill:#000000;stroke-width:0"
         inkscape:connector-curvature="0"
         id="path4613"
         d="m 223.88,705.91 -0.01,-0.03 0,-0.03 -0.01,-0.03 -0.01,-0.02 0,-0.03 -0.01,-0.02 -0.01,-0.02 -0.01,-0.02 0,-0.02 -0.01,-0.02 -0.01,-0.02 -0.01,-0.01 -0.01,-0.02 -0.01,-0.01 -0.01,-0.02 -0.01,-0.01 -0.02,-0.01 -0.01,-0.01 -0.02,-0.01 -0.02,0 -0.02,-0.01 -0.02,-0.01 -0.02,0 -0.02,-0.01 -0.03,0 -0.02,-0.01 -0.02,0 -0.01,0 -0.02,0 -0.01,0 -0.02,0 -0.02,0 -0.01,0 -0.02,0 -0.02,0 -0.02,0 -0.02,0 -0.02,0 c -0.12,0 -0.23,0 -0.23,-0.19 0,-0.08 0.05,-0.12 0.13,-0.12 0.27,0 0.56,0.03 0.84,0.03 0.33,0 0.66,-0.03 0.98,-0.03 0.05,0 0.18,0 0.18,0.2 0,0.11 -0.1,0.11 -0.24,0.11 -0.49,0 -0.49,0.07 -0.49,0.15 0,0.12 0.41,1.74 0.48,1.99 0.13,-0.29 0.41,-0.63 0.92,-0.63 l -0.01,0.21 c -0.66,0 -0.79,0.83 -0.79,0.89 0,0.02 0,0.04 0.03,0.16 l 0.49,1.94 c 0.07,0.27 0.34,0.55 0.52,0.7 0.35,0.31 0.64,0.38 0.8,0.38 0.4,0 0.64,-0.35 0.64,-0.94 0,-0.58 -0.33,-1.72 -0.51,-2.1 -0.34,-0.7 -0.81,-1.03 -1.18,-1.03 l 0.01,-0.21 c 1.15,0 2.4,1.45 2.4,2.91 0,0.93 -0.57,1.59 -1.33,1.59 -0.49,0 -0.97,-0.36 -1.3,-0.75 -0.1,0.54 -0.53,0.75 -0.89,0.75 -0.46,0 -0.65,-0.39 -0.74,-0.57 -0.18,-0.34 -0.31,-0.93 -0.31,-0.96 0,-0.1 0.1,-0.1 0.12,-0.1 0.1,0 0.11,0.01 0.17,0.22 0.17,0.71 0.37,1.19 0.73,1.19 0.16,0 0.3,-0.08 0.3,-0.46 0,-0.23 -0.03,-0.34 -0.07,-0.51 z" /></g>    <g
       id="g4713"
       transform="matrix(4,0,0,-4,-529.7352,3533.5426)"
       xml:space="preserve"
       stroke-miterlimit="10.433"
       font-style="normal"
       font-variant="normal"
       font-weight="normal"
       font-stretch="normal"
       font-size-adjust="none"
       letter-spacing="normal"
       word-spacing="normal"
       ns0:text="$q$"
       ns0:preamble="/home/eric/BHLectures/Notes/latex_inkscape.ini"
       style="font-style:normal;font-variant:normal;font-weight:normal;font-stretch:normal;letter-spacing:normal;word-spacing:normal;text-anchor:start;fill:none;stroke:#000000;stroke-linecap:butt;stroke-linejoin:miter;stroke-miterlimit:10.43299961;stroke-dasharray:none;stroke-dashoffset:0;stroke-opacity:1"><path
         style="fill:#000000;stroke-width:0"
         inkscape:connector-curvature="0"
         d="m 227.93,711.41 0,0 0,0 0,0.01 0,0 0,0.01 0,0 -0.01,0 0,0.01 0,0 0,0.01 0,0 0,0.01 -0.01,0 0,0 0,0.01 0,0 -0.01,0 0,0.01 0,0 -0.01,0 0,0.01 -0.01,0 0,0 -0.01,0.01 0,0 -0.01,0 0,0 -0.01,0 0,0 -0.01,0.01 0,0 -0.01,0 c -0.11,0 -0.51,-0.4 -0.68,-0.69 -0.22,0.54 -0.6,0.7 -0.92,0.7 l 0,-0.22 c 0.64,0 0.78,-0.81 0.78,-0.88 0,-0.06 -0.54,-2.23 -0.57,-2.27 -0.15,-0.28 -0.71,-0.92 -1.27,-0.92 l 0,0 c -0.59,0 -0.63,0.77 -0.63,0.94 0,0.48 0.28,1.56 0.45,1.98 0.31,0.73 0.83,1.15 1.24,1.15 l 0,0.22 c -1.18,0 -2.4,-1.47 -2.4,-2.92 0,-0.97 0.59,-1.58 1.31,-1.58 0.43,0 0.82,0.23 1.18,0.59 -0.09,-0.35 -0.42,-1.69 -0.45,-1.78 -0.08,-0.28 -0.16,-0.31 -0.72,-0.32 -0.13,0 -0.23,0 -0.23,-0.2 0,-0.01 0,-0.11 0.13,-0.11 0.32,0 0.67,0.03 1,0.03 0.34,0 0.69,-0.03 1.02,-0.03 0.05,0 0.18,0 0.18,0.2 0,0.11 -0.1,0.11 -0.26,0.11 -0.47,0 -0.47,0.07 -0.47,0.15 0,0.07 0.02,0.13 0.04,0.22 z"
         id="path4715" /></g>    <g
       style="font-style:normal;font-variant:normal;font-weight:normal;font-stretch:normal;letter-spacing:normal;word-spacing:normal;text-anchor:start;fill:none;stroke:#000000;stroke-linecap:butt;stroke-linejoin:miter;stroke-miterlimit:10.43299961;stroke-dasharray:none;stroke-dashoffset:0;stroke-opacity:1"
       ns0:preamble="/home/eric/BHLectures/Notes/latex_inkscape.ini"
       ns0:text="$\\mathscr{H}$"
       word-spacing="normal"
       letter-spacing="normal"
       font-size-adjust="none"
       font-stretch="normal"
       font-weight="normal"
       font-variant="normal"
       font-style="normal"
       stroke-miterlimit="10.433"
       xml:space="preserve"
       transform="matrix(4,0,0,-4,-630.61158,3748.523)"
       id="g5001"><path
         id="path5003"
         d="m 232.59,708.52 -0.01,0 0,0 0,0.01 0,0 0,0.01 0,0 0,0.01 0,0 0,0 -0.01,0.01 0,0 0,0 0,0.01 0,0 -0.01,0 0,0 0,0.01 -0.01,0 0,0 0,0 -0.01,0 0,0.01 0,0 -0.01,0 0,0 0,0 -0.01,0 0,0 0,0 -0.01,0 0,0 0,0 -0.11,0 c -0.03,0 -0.06,0 -0.07,-0.02 -0.47,-0.66 -1.1,-1.31 -1.59,-1.31 -0.4,0 -0.57,0.19 -0.57,0.51 0,0.48 0.4,1.25 0.98,2.09 0.24,0.34 0.48,0.67 0.73,1.01 1.33,0.08 2.66,0.37 3.4,1.42 0.31,0.44 0.49,0.88 0.49,1.23 0,0.38 -0.21,0.64 -0.71,0.64 l -0.04,-0.22 c 0.33,0 0.49,-0.17 0.49,-0.45 0,-0.28 -0.17,-0.66 -0.48,-1.1 -0.64,-0.9 -1.77,-1.19 -2.98,-1.29 1.1,1.5 2.23,2.84 2.97,2.84 l 0,0 0.04,0.22 c -1.41,0 -2.77,-1.5 -3.96,-3.1 l -1.27,0 c 0.74,0.99 1.49,1.99 2.27,2.97 0.02,0.03 0.02,0.05 0.02,0.08 l -0.03,0.08 c -0.01,0.03 -0.04,0.06 -0.08,0.06 -0.02,0 -0.04,-0.01 -0.06,-0.03 -0.5,-0.48 -0.99,-0.96 -1.52,-1.48 -0.37,-0.52 -1.13,-0.88 -1.69,-0.88 -0.11,0 -0.19,0.06 -0.19,0.16 0,0.07 0.04,0.16 0.11,0.27 0.14,0.21 0.21,0.4 0.21,0.56 0,0.32 -0.26,0.53 -0.7,0.53 -0.52,0 -1.06,-0.64 -1.43,-1.17 0,-0.01 0,-0.03 0,-0.04 0,-0.05 0.02,-0.09 0.08,-0.09 l 0.1,0 c 0.03,0 0.05,0.02 0.07,0.04 0.38,0.54 0.76,1.04 1.14,1.04 0.16,0 0.25,-0.08 0.25,-0.22 0,-0.14 -0.08,-0.32 -0.24,-0.55 -0.09,-0.13 -0.13,-0.24 -0.13,-0.34 0,-0.28 0.34,-0.4 0.7,-0.4 0.29,0 0.64,0.07 0.97,0.22 -0.25,-0.28 -0.5,-0.57 -0.74,-0.86 -1.14,-0.11 -2.26,-0.44 -2.94,-1.4 l -0.01,-0.05 c 0,-0.04 0.03,-0.08 0.08,-0.08 l 0.11,0 c 0.03,0 0.06,0.01 0.07,0.03 0.57,0.81 1.5,1.13 2.49,1.25 -0.39,-0.5 -0.78,-0.99 -1.14,-1.5 -0.74,-1.05 -1.65,-2.14 -2.49,-2.14 -0.66,0 -1.14,0.2 -1.14,0.61 0,0.1 0.03,0.21 0.09,0.34 0.07,-0.1 0.18,-0.15 0.3,-0.15 0.26,0 0.55,0.2 0.55,0.39 0,0.24 -0.15,0.34 -0.32,0.34 -0.21,0 -0.45,-0.12 -0.57,-0.29 -0.18,-0.26 -0.26,-0.48 -0.26,-0.67 0,-0.52 0.59,-0.78 1.31,-0.78 1.11,0 2.57,1.1 3.39,2.25 0.39,0.56 0.79,1.11 1.2,1.67 0.23,0.01 0.46,0.01 0.69,0.01 l 0.59,0 c -0.21,-0.3 -0.43,-0.6 -0.63,-0.88 -0.49,-0.69 -0.76,-1.37 -0.76,-1.9 0,-0.61 0.35,-1.01 1.15,-1.01 0.63,0 1.39,0.74 1.87,1.42 0.02,0.02 0.02,0.03 0.02,0.05 z"
         inkscape:connector-curvature="0"
         style="fill:#000000;stroke-width:0" /></g>    <g
       id="g5112"
       transform="matrix(4,0,0,-4,-576.29943,3598.3517)"
       xml:space="preserve"
       stroke-miterlimit="10.433"
       font-style="normal"
       font-variant="normal"
       font-weight="normal"
       font-stretch="normal"
       font-size-adjust="none"
       letter-spacing="normal"
       word-spacing="normal"
       ns0:text="$\\mathscr{L}$"
       ns0:preamble="/home/eric/BHLectures/Notes/latex_inkscape.ini"
       style="font-style:normal;font-variant:normal;font-weight:normal;font-stretch:normal;letter-spacing:normal;word-spacing:normal;text-anchor:start;fill:#ff0000;fill-opacity:1;fill-rule:evenodd;stroke:#000000;stroke-linecap:butt;stroke-linejoin:miter;stroke-miterlimit:10.43299961;stroke-dasharray:none;stroke-dashoffset:0;stroke-opacity:1"><path
         inkscape:connector-curvature="0"
         style="fill:#ff0000;stroke-width:0"
         d="m 231.39,708.52 0,0 0,0 0,0.01 0,0 0,0.01 0,0 0,0.01 -0.01,0 0,0 0,0.01 0,0 0,0 -0.01,0.01 0,0 0,0 0,0 -0.01,0.01 0,0 0,0 -0.01,0 0,0 0,0.01 -0.01,0 0,0 0,0 -0.01,0 0,0 0,0 -0.01,0 0,0 0,0 -0.01,0 -0.12,0 c -0.02,0 -0.05,0 -0.06,-0.02 -0.45,-0.64 -1.37,-1.13 -2.02,-1.13 -0.66,0 -1.23,0.13 -1.8,0.27 0.64,0.39 1.21,0.89 1.6,1.45 l 1,1.39 c 1.28,0.19 2.61,0.69 3.34,1.74 0.3,0.43 0.46,0.86 0.46,1.19 0,0.46 -0.28,0.77 -0.89,0.77 l -0.04,-0.23 c 0.38,0 0.56,-0.2 0.56,-0.51 0,-0.29 -0.16,-0.68 -0.47,-1.12 -0.61,-0.86 -1.68,-1.35 -2.76,-1.56 1.22,1.7 2.38,3.19 2.67,3.19 l 0,0 0.04,0.23 c -0.97,0 -2.42,-1.77 -3.73,-3.55 -0.15,-0.01 -0.3,-0.02 -0.44,-0.02 -1.03,0 -1.75,0.37 -1.75,1.03 0,0.26 0.11,0.57 0.37,0.93 0.48,0.68 1.43,1.22 2.09,1.22 0.02,0 0.05,0.01 0.06,0.03 l 0.04,0.06 c 0.01,0.01 0.02,0.03 0.02,0.05 0,0.03 -0.02,0.05 -0.04,0.06 0,0.01 -0.01,0.01 -0.02,0.02 -0.1,0.03 -0.2,0.04 -0.31,0.04 -0.76,0 -1.82,-0.61 -2.37,-1.38 -0.27,-0.4 -0.39,-0.75 -0.39,-1.03 0,-0.85 1.02,-1.25 2.26,-1.25 0.1,0 0.21,0 0.31,0.01 -0.29,-0.42 -0.58,-0.82 -0.85,-1.21 -0.37,-0.52 -0.86,-1.01 -1.37,-1.39 -0.48,0.11 -0.98,0.2 -1.56,0.2 l -0.06,0 0.02,-0.22 c 0.48,0 0.88,-0.09 1.26,-0.22 -0.45,-0.28 -0.91,-0.45 -1.3,-0.45 l 0,0 c -0.57,0 -0.93,0.02 -0.93,0.18 0,0.04 0.01,0.08 0.05,0.13 0.19,0.27 0.58,0.36 0.92,0.36 l -0.02,0.22 c -0.48,0 -1.09,-0.01 -1.42,-0.48 -0.07,-0.1 -0.11,-0.19 -0.11,-0.26 0,-0.35 0.8,-0.37 1.32,-0.37 l 0.15,0 c 0.56,0 1.21,0.19 1.83,0.49 l 0.12,-0.05 c 0.57,-0.23 1.14,-0.44 1.91,-0.44 0.82,0 1.92,0.7 2.49,1.51 0.01,0.02 0.02,0.03 0.02,0.05 z"
         id="path5114" /></g>    <g
       id="g5350"
       transform="matrix(4,0,0,-4,-536.09839,3753.097)"
       xml:space="preserve"
       stroke-miterlimit="10.433"
       font-style="normal"
       font-variant="normal"
       font-weight="normal"
       font-stretch="normal"
       font-size-adjust="none"
       letter-spacing="normal"
       word-spacing="normal"
       ns0:text="$U$"
       ns0:preamble="/home/eric/BHLectures/Notes/latex_inkscape.ini"
       style="font-style:normal;font-variant:normal;font-weight:normal;font-stretch:normal;letter-spacing:normal;word-spacing:normal;text-anchor:start;fill:#782121;stroke:#501616;stroke-linecap:butt;stroke-linejoin:miter;stroke-miterlimit:10.43299961;stroke-dasharray:none;stroke-dashoffset:0;stroke-opacity:1"><path
         d="m 229.75,712.87 0.02,0.07 0.01,0.04 0.01,0.03 0.01,0.04 0.02,0.03 0.01,0.04 0.02,0.03 0.01,0.03 0.02,0.03 0.02,0.03 0.02,0.03 0.03,0.03 0.02,0.03 0.03,0.02 0.03,0.03 0.03,0.02 0.03,0.02 0.03,0.02 0.04,0.02 0.04,0.02 0.04,0.02 0.05,0.02 0.04,0.01 0.05,0.02 0.06,0.01 0.05,0.01 0.06,0.01 0.07,0.01 0.06,0 0.07,0.01 0.04,0 0.03,0 c 0.05,0 0.17,0.01 0.17,0.2 0,0.01 0,0.11 -0.13,0.11 -0.32,0 -0.67,-0.03 -1.01,-0.03 -0.34,0 -0.71,0.03 -1.03,0.03 -0.06,0 -0.19,0 -0.19,-0.2 0,-0.11 0.11,-0.11 0.19,-0.11 0.56,-0.01 0.67,-0.22 0.67,-0.44 0,-0.02 -0.02,-0.17 -0.03,-0.2 l -0.89,-3.55 c -0.34,-1.33 -1.49,-2.2 -2.48,-2.2 -0.68,0 -1.21,0.44 -1.21,1.3 0,0.02 0,0.33 0.1,0.77 l 0.97,3.87 c 0.09,0.35 0.11,0.45 0.84,0.45 0.25,0 0.33,0 0.33,0.2 0,0.11 -0.11,0.11 -0.14,0.11 -0.27,0 -0.99,-0.03 -1.27,-0.03 -0.29,0 -1,0.03 -1.28,0.03 -0.08,0 -0.19,0 -0.19,-0.2 0,-0.11 0.09,-0.11 0.28,-0.11 0.02,0 0.21,0 0.38,-0.02 0.17,-0.02 0.26,-0.03 0.26,-0.16 0,-0.06 -0.11,-0.47 -0.17,-0.7 l -0.22,-0.88 c -0.08,-0.38 -0.56,-2.26 -0.6,-2.45 -0.07,-0.28 -0.07,-0.43 -0.07,-0.58 0,-1.21 0.9,-1.9 1.95,-1.9 1.25,0 2.49,1.12 2.81,2.43 z"
         id="path5352"
         inkscape:connector-curvature="0"
         style="fill:#782121;stroke:#501616;stroke-width:0" /></g>    <circle
       id="path3779"
       style="fill:none;stroke:#782121;stroke-width:3;stroke-miterlimit:4;stroke-dasharray:none;stroke-dashoffset:0;stroke-opacity:1"
       cx="359.6489"
       cy="808.07208"
       r="84.184105" />
    <circle
       id="path3755-80-3"
       style="fill:#000000;fill-opacity:1;stroke:none"
       cx="415.22012"
       cy="854.56793"
       r="6.5527644" />
    <g
       id="g4287"
       transform="matrix(4,0,0,-4,-553.56476,3678.2196)"
       xml:space="preserve"
       stroke-miterlimit="10.433"
       font-style="normal"
       font-variant="normal"
       font-weight="normal"
       font-stretch="normal"
       font-size-adjust="none"
       letter-spacing="normal"
       word-spacing="normal"
       ns0:text="$p_n$"
       ns0:preamble="/home/eric/BHLectures/Notes/latex_inkscape.ini"
       style="font-style:normal;font-variant:normal;font-weight:normal;font-stretch:normal;letter-spacing:normal;word-spacing:normal;text-anchor:start;fill:none;fill-opacity:1;fill-rule:evenodd;stroke:#000000;stroke-linecap:butt;stroke-linejoin:miter;stroke-miterlimit:10.43299961;stroke-dasharray:none;stroke-dashoffset:0;stroke-opacity:1"><path
         style="fill:#000000;stroke-width:0"
         inkscape:connector-curvature="0"
         d="m 223.88,705.91 -0.01,-0.03 0,-0.03 -0.01,-0.03 -0.01,-0.03 0,-0.02 -0.01,-0.03 -0.01,-0.02 -0.01,-0.02 0,-0.02 -0.01,-0.02 -0.01,-0.02 -0.01,-0.01 -0.01,-0.02 -0.01,-0.01 -0.01,-0.01 -0.01,-0.01 -0.02,-0.01 -0.01,-0.01 -0.02,-0.01 -0.02,-0.01 -0.01,-0.01 -0.02,0 -0.03,-0.01 -0.02,0 -0.02,-0.01 -0.03,0 -0.02,0 -0.01,-0.01 -0.02,0 -0.01,0 -0.02,0 -0.01,0 -0.02,0 -0.02,0 -0.02,0 -0.02,0 -0.02,0 -0.02,0 c -0.12,0 -0.23,0 -0.23,-0.19 0,-0.08 0.05,-0.12 0.13,-0.12 0.27,0 0.56,0.03 0.84,0.03 0.33,0 0.67,-0.03 0.99,-0.03 0.05,0 0.18,0 0.18,0.2 0,0.11 -0.1,0.11 -0.24,0.11 -0.5,0 -0.5,0.07 -0.5,0.16 0,0.12 0.42,1.74 0.49,1.99 0.13,-0.29 0.4,-0.64 0.91,-0.64 l -0.01,0.22 c -0.65,0 -0.78,0.83 -0.78,0.89 0,0.02 0,0.04 0.03,0.16 l 0.48,1.95 c 0.07,0.27 0.34,0.55 0.52,0.7 0.35,0.31 0.64,0.38 0.81,0.38 0.4,0 0.64,-0.35 0.64,-0.94 0,-0.59 -0.33,-1.73 -0.51,-2.11 -0.34,-0.7 -0.82,-1.03 -1.19,-1.03 l 0.01,-0.22 c 1.16,0 2.4,1.46 2.4,2.92 0,0.94 -0.56,1.6 -1.32,1.6 -0.5,0 -0.98,-0.36 -1.31,-0.75 -0.1,0.54 -0.52,0.75 -0.89,0.75 -0.46,0 -0.65,-0.39 -0.74,-0.57 -0.18,-0.34 -0.31,-0.94 -0.31,-0.97 0,-0.1 0.1,-0.1 0.12,-0.1 0.1,0 0.11,0.01 0.17,0.23 0.17,0.71 0.37,1.19 0.73,1.19 0.17,0 0.31,-0.08 0.31,-0.46 0,-0.23 -0.03,-0.34 -0.07,-0.51 z"
         id="path4289" /><path
         style="fill:#000000;stroke-width:0"
         inkscape:connector-curvature="0"
         d="m 229.29,706.07 0,-0.01 0,-0.01 -0.01,-0.01 0,-0.01 0,-0.01 0,-0.01 -0.01,-0.01 0,-0.01 -0.01,-0.02 0,-0.03 -0.01,-0.02 0,-0.02 0,-0.01 -0.01,-0.01 0,-0.01 0,-0.01 0,-0.01 -0.01,-0.01 0,-0.01 0,-0.01 0,0 0,-0.01 0,-0.01 0,0 0,-0.01 -0.01,0 0,0 0,0 0,-0.01 0,0 c 0,-0.15 0.13,-0.22 0.24,-0.22 0.13,0 0.24,0.09 0.27,0.15 0.04,0.07 0.09,0.29 0.13,0.44 0.03,0.13 0.11,0.45 0.15,0.62 0.04,0.16 0.09,0.31 0.12,0.47 0.08,0.29 0.09,0.34 0.29,0.63 0.2,0.28 0.53,0.64 1.05,0.64 0.4,0 0.41,-0.35 0.41,-0.49 0,-0.42 -0.3,-1.19 -0.41,-1.48 -0.08,-0.2 -0.1,-0.26 -0.1,-0.38 0,-0.37 0.3,-0.6 0.66,-0.6 0.69,0 1,0.96 1,1.07 0,0.09 -0.09,0.09 -0.11,0.09 -0.1,0 -0.1,-0.04 -0.13,-0.12 -0.16,-0.56 -0.46,-0.84 -0.74,-0.84 -0.15,0 -0.18,0.09 -0.18,0.24 0,0.16 0.04,0.25 0.16,0.57 0.09,0.21 0.37,0.95 0.37,1.34 0,0.68 -0.53,0.8 -0.9,0.8 -0.58,0 -0.97,-0.36 -1.18,-0.64 -0.05,0.48 -0.46,0.64 -0.75,0.64 -0.3,0 -0.46,-0.22 -0.55,-0.38 -0.15,-0.26 -0.25,-0.66 -0.25,-0.69 0,-0.09 0.1,-0.09 0.12,-0.09 0.1,0 0.1,0.02 0.15,0.21 0.11,0.41 0.24,0.75 0.51,0.75 0.18,0 0.23,-0.15 0.23,-0.34 0,-0.13 -0.06,-0.39 -0.11,-0.58 -0.05,-0.19 -0.12,-0.48 -0.15,-0.63 z"
         id="path4291" /></g>    <g
       style="font-style:normal;font-variant:normal;font-weight:normal;font-stretch:normal;letter-spacing:normal;word-spacing:normal;text-anchor:start;fill:none;fill-opacity:1;fill-rule:evenodd;stroke:#000000;stroke-linecap:butt;stroke-linejoin:miter;stroke-miterlimit:10.43299961;stroke-dasharray:none;stroke-dashoffset:0;stroke-opacity:1"
       ns0:preamble="/home/eric/BHLectures/Notes/latex_inkscape.ini"
       ns0:text="$p_0$"
       text-anchor="start"
       word-spacing="normal"
       letter-spacing="normal"
       font-size-adjust="none"
       font-stretch="normal"
       font-weight="normal"
       font-variant="normal"
       font-style="normal"
       fill-opacity="1"
       fill-rule="evenodd"
       fill="none"
       stroke-opacity="1"
       stroke-dashoffset="0"
       stroke-dasharray="none"
       stroke-miterlimit="10.433"
       stroke-linejoin="miter"
       stroke-linecap="butt"
       stroke="black"
       xml:space="preserve"
       transform="matrix(4,0,0,-4,-473.90325,3712.1346)"
       id="g4410"><path
         id="path4412"
         fill="black"
         stroke-width="0"
         d="M223.88,705.91 L223.87,705.88 L223.87,705.85 L223.86,705.82 L223.85,705.79 L223.85,705.77 L223.84,705.74 L223.83,705.72 L223.82,705.7 L223.82,705.68 L223.81,705.66 L223.8,705.64 L223.79,705.63 L223.78,705.61 L223.77,705.6 L223.76,705.59 L223.75,705.58 L223.73,705.57 L223.72,705.56 L223.7,705.55 L223.68,705.54 L223.67,705.53 L223.65,705.53 L223.62,705.52 L223.6,705.52 L223.58,705.51 L223.55,705.51 L223.53,705.51 L223.52,705.5 L223.5,705.5 L223.49,705.5 L223.47,705.5 L223.46,705.5 L223.44,705.5 L223.42,705.5 L223.4,705.5 L223.38,705.5 L223.36,705.5 L223.34,705.5 C223.22,705.5,223.11,705.5,223.11,705.31 C223.11,705.23,223.16,705.19,223.24,705.19 C223.51,705.19,223.8,705.22,224.08,705.22 C224.41,705.22,224.75,705.19,225.07,705.19 C225.12,705.19,225.25,705.19,225.25,705.39 C225.25,705.5,225.15,705.5,225.01,705.5 C224.51,705.5,224.51,705.57,224.51,705.66 C224.51,705.78,224.93,707.4,225,707.65 C225.13,707.36,225.4,707.01,225.91,707.01 L225.9,707.23 C225.25,707.23,225.12,708.06,225.12,708.12 C225.12,708.14,225.12,708.16,225.15,708.28 L225.63,710.23 C225.7,710.5,225.97,710.78,226.15,710.93 C226.5,711.24,226.79,711.31,226.96,711.31 C227.36,711.31,227.6,710.96,227.6,710.37 C227.6,709.78,227.27,708.64,227.09,708.26 C226.75,707.56,226.27,707.23,225.9,707.23 L225.91,707.01 C227.07,707.01,228.31,708.47,228.31,709.93 C228.31,710.87,227.75,711.53,226.99,711.53 C226.49,711.53,226.01,711.17,225.68,710.78 C225.58,711.32,225.16,711.53,224.79,711.53 C224.33,711.53,224.14,711.14,224.05,710.96 C223.87,710.62,223.74,710.02,223.74,709.99 C223.74,709.89,223.84,709.89,223.86,709.89 C223.96,709.89,223.97,709.9,224.03,710.12 C224.2,710.83,224.4,711.31,224.76,711.31 C224.93,711.31,225.07,711.23,225.07,710.85 C225.07,710.62,225.04,710.51,225,710.34 Z " /><path
         id="path4414"
         fill="black"
         stroke-width="0"
         d="M232.04,707.85 L232.04,708 L232.04,708.13 L232.03,708.26 L232.02,708.39 L232.01,708.52 L232,708.63 L231.98,708.75 L231.96,708.86 L231.93,708.97 L231.9,709.08 L231.87,709.18 L231.83,709.28 L231.79,709.38 L231.74,709.47 L231.69,709.57 L231.66,709.62 L231.63,709.66 C231.41,709.98,230.98,710.26,230.42,710.26 C228.8,710.26,228.8,708.36,228.8,707.85 C228.8,707.35,228.8,705.49,230.42,705.49 V705.69 C230.1,705.69,229.68,705.87,229.54,706.45 C229.44,706.86,229.44,707.43,229.44,707.95 C229.44,708.45,229.44,708.98,229.54,709.37 C229.69,709.92,230.14,710.07,230.42,710.07 C230.8,710.07,231.16,709.84,231.29,709.43 C231.4,709.05,231.41,708.55,231.41,707.95 C231.41,707.43,231.41,706.91,231.32,706.47 C231.18,705.84,230.7,705.69,230.42,705.69 H230.42 V705.49 C232.04,705.49,232.04,707.35,232.04,707.85 Z " /></g>    <path
       sodipodi:nodetypes="cc"
       inkscape:connector-curvature="0"
       id="path3777-2-9"
       d="M 387.34541,837.29504 C 440.8327,748.63558 572.31134,612.5736 682.70183,506.32827"
       style="fill:none;stroke:#ff0000;stroke-width:1.755;stroke-linecap:butt;stroke-linejoin:miter;stroke-miterlimit:4;stroke-dasharray:none;stroke-dashoffset:0;stroke-opacity:1;marker-end:url(#Arrow1Lendi-27)" />
    <path
       sodipodi:nodetypes="cc"
       inkscape:connector-curvature="0"
       id="path3777-2-0"
       d="M 363.8813,821.99394 C 417.36859,733.33448 539.66656,588.85689 650.05705,482.61156"
       style="fill:none;stroke:#ff0000;stroke-width:1.755;stroke-linecap:butt;stroke-linejoin:miter;stroke-miterlimit:4;stroke-dasharray:none;stroke-dashoffset:0;stroke-opacity:1;marker-end:url(#Arrow1Lendi-3)" />
    <path
       sodipodi:nodetypes="cc"
       inkscape:connector-curvature="0"
       id="path3777-2-6"
       d="M 345.67008,813.9096 C 399.15737,725.25014 511.50963,583.06772 611.9544,456.93095"
       style="fill:none;stroke:#ff0000;stroke-width:1.755;stroke-linecap:butt;stroke-linejoin:miter;stroke-miterlimit:4;stroke-dasharray:none;stroke-dashoffset:0;stroke-opacity:1;marker-end:url(#Arrow1Lendi-6)" />
    <circle
       id="path3755-80-3-6"
       style="fill:#000000;fill-opacity:1;stroke:none"
       cx="387.29922"
       cy="836.49023"
       r="6.5527644" />
    <circle
       id="path3755-80"
       style="fill:#000000;fill-opacity:1;stroke:none"
       cx="362.81955"
       cy="823.65906"
       r="6.5527644" />
    <circle
       id="path3755-8"
       style="fill:#000000;fill-opacity:1;stroke:none"
       cx="345.2384"
       cy="815.18842"
       r="6.5527644" />
    <circle
       id="path3755-80-3-1"
       style="fill:#000000;fill-opacity:1;stroke:none"
       cx="442.48984"
       cy="818.31116"
       r="6.5527644" />
    <circle
       id="path3755-80-3-1-8"
       style="fill:#000000;fill-opacity:1;stroke:none"
       cx="434.97385"
       cy="770.77209"
       r="6.5527644" />
    <circle
       id="path3755-80-3-1-7"
       style="fill:#000000;fill-opacity:1;stroke:none"
       cx="416.31851"
       cy="745.86383"
       r="6.5527644" />
    <circle
       id="path3755-80-3-1-9"
       style="fill:#000000;fill-opacity:1;stroke:none"
       cx="400.31546"
       cy="734.22852"
       r="6.5527644" />
    <g
       id="g4693"
       transform="matrix(4,0,0,-4,-442.9588,3658.0309)"
       xml:space="preserve"
       stroke-miterlimit="10.433"
       font-style="normal"
       font-variant="normal"
       font-weight="normal"
       font-stretch="normal"
       font-size-adjust="none"
       letter-spacing="normal"
       word-spacing="normal"
       ns0:text="$q_0$"
       ns0:preamble="/home/eric/BHLectures/Notes/latex_inkscape.ini"
       style="font-style:normal;font-variant:normal;font-weight:normal;font-stretch:normal;letter-spacing:normal;word-spacing:normal;text-anchor:start;fill:none;fill-opacity:1;fill-rule:evenodd;stroke:#000000;stroke-linecap:butt;stroke-linejoin:miter;stroke-miterlimit:10.43299961;stroke-dasharray:none;stroke-dashoffset:0;stroke-opacity:1"><path
         style="fill:#000000;stroke-width:0"
         inkscape:connector-curvature="0"
         d="m 227.94,711.42 0,0 0,0 0,0.01 -0.01,0 0,0.01 0,0 0,0 0,0.01 0,0 0,0.01 -0.01,0 0,0.01 0,0 0,0 0,0.01 -0.01,0 0,0 0,0.01 -0.01,0 0,0 -0.01,0.01 0,0 0,0 -0.01,0.01 0,0 -0.01,0 0,0 -0.01,0 -0.01,0 0,0.01 -0.01,0 0,0 c -0.11,0 -0.51,-0.4 -0.68,-0.69 -0.22,0.54 -0.61,0.7 -0.93,0.7 l 0,-0.22 c 0.65,0 0.79,-0.81 0.79,-0.88 0,-0.06 -0.55,-2.24 -0.58,-2.28 -0.15,-0.28 -0.71,-0.92 -1.26,-0.92 l 0,0 c -0.6,0 -0.64,0.77 -0.64,0.94 0,0.48 0.29,1.56 0.46,1.98 0.3,0.74 0.82,1.16 1.23,1.16 l 0,0.22 c -1.17,0 -2.4,-1.48 -2.4,-2.92 0,-0.98 0.59,-1.6 1.32,-1.6 0.42,0 0.81,0.24 1.17,0.6 -0.09,-0.35 -0.42,-1.69 -0.45,-1.78 -0.08,-0.28 -0.16,-0.32 -0.71,-0.33 -0.13,0 -0.23,0 -0.23,-0.2 0,-0.01 0,-0.11 0.13,-0.11 0.32,0 0.66,0.03 0.99,0.03 0.34,0 0.7,-0.03 1.03,-0.03 0.05,0 0.18,0 0.18,0.2 0,0.11 -0.1,0.11 -0.26,0.11 -0.48,0 -0.48,0.07 -0.48,0.16 0,0.07 0.02,0.13 0.04,0.22 z"
         id="path4695" /><path
         style="fill:#000000;stroke-width:0"
         inkscape:connector-curvature="0"
         d="m 231.48,707.85 0,0.15 -0.01,0.13 0,0.13 -0.01,0.13 -0.01,0.13 -0.02,0.11 -0.02,0.12 -0.02,0.11 -0.02,0.11 -0.03,0.11 -0.04,0.1 -0.03,0.1 -0.05,0.1 -0.04,0.09 -0.06,0.1 -0.02,0.05 -0.03,0.04 c -0.22,0.32 -0.65,0.6 -1.21,0.6 -1.62,0 -1.62,-1.9 -1.62,-2.41 0,-0.5 0,-2.36 1.62,-2.36 l 0,0.2 c -0.32,0 -0.75,0.18 -0.88,0.76 -0.1,0.41 -0.1,0.98 -0.1,1.5 0,0.5 0,1.03 0.1,1.42 0.15,0.55 0.59,0.7 0.88,0.7 0.38,0 0.74,-0.23 0.87,-0.64 0.11,-0.38 0.11,-0.88 0.11,-1.48 0,-0.52 0,-1.04 -0.09,-1.48 -0.14,-0.63 -0.61,-0.78 -0.89,-0.78 l 0,0 0,-0.2 c 1.62,0 1.62,1.86 1.62,2.36 z"
         id="path4697" /></g>    <g
       style="font-style:normal;font-variant:normal;font-weight:normal;font-stretch:normal;letter-spacing:normal;word-spacing:normal;text-anchor:start;fill:none;fill-opacity:1;fill-rule:evenodd;stroke:#000000;stroke-linecap:butt;stroke-linejoin:miter;stroke-miterlimit:10.43299961;stroke-dasharray:none;stroke-dashoffset:0;stroke-opacity:1"
       ns0:preamble="/home/eric/BHLectures/Notes/latex_inkscape.ini"
       ns0:text="$q_n$"
       word-spacing="normal"
       letter-spacing="normal"
       font-size-adjust="none"
       font-stretch="normal"
       font-weight="normal"
       font-variant="normal"
       font-style="normal"
       stroke-miterlimit="10.433"
       xml:space="preserve"
       transform="matrix(4,0,0,-4,-480.65885,3556.8283)"
       id="g4856"><path
         id="path4858"
         d="m 227.94,711.42 0,0 0,0 0,0.01 -0.01,0 0,0.01 0,0 0,0 0,0.01 0,0 0,0.01 -0.01,0 0,0.01 0,0 0,0 0,0.01 -0.01,0 0,0 0,0.01 -0.01,0 0,0 -0.01,0.01 0,0 0,0 -0.01,0.01 0,0 -0.01,0 0,0 -0.01,0 -0.01,0 0,0.01 -0.01,0 0,0 c -0.11,0 -0.51,-0.4 -0.68,-0.69 -0.22,0.54 -0.61,0.7 -0.93,0.7 l 0,-0.22 c 0.65,0 0.79,-0.81 0.79,-0.88 0,-0.06 -0.55,-2.24 -0.58,-2.28 -0.15,-0.28 -0.71,-0.92 -1.26,-0.92 l 0,0 c -0.6,0 -0.64,0.77 -0.64,0.94 0,0.48 0.29,1.56 0.46,1.98 0.3,0.74 0.82,1.16 1.23,1.16 l 0,0.22 c -1.17,0 -2.4,-1.48 -2.4,-2.92 0,-0.98 0.59,-1.6 1.32,-1.6 0.42,0 0.81,0.24 1.17,0.6 -0.09,-0.35 -0.42,-1.69 -0.45,-1.78 -0.08,-0.28 -0.16,-0.32 -0.71,-0.33 -0.13,0 -0.23,0 -0.23,-0.2 0,-0.01 0,-0.11 0.13,-0.11 0.32,0 0.66,0.03 0.99,0.03 0.34,0 0.7,-0.03 1.03,-0.03 0.05,0 0.18,0 0.18,0.2 0,0.11 -0.1,0.11 -0.26,0.11 -0.48,0 -0.48,0.07 -0.48,0.16 0,0.07 0.02,0.13 0.04,0.22 z"
         inkscape:connector-curvature="0"
         style="fill:#000000;stroke-width:0" /><path
         id="path4860"
         d="m 228.73,706.07 0,-0.01 0,-0.01 -0.01,-0.01 0,-0.01 0,-0.01 -0.01,-0.01 0,-0.01 0,-0.01 -0.01,-0.02 0,-0.03 -0.01,-0.02 0,-0.02 -0.01,-0.01 0,-0.01 0,-0.01 0,-0.01 -0.01,-0.01 0,-0.01 0,-0.01 0,-0.01 0,0 0,-0.01 -0.01,-0.01 0,0 0,-0.01 0,0 0,0 0,0 0,-0.01 0,0 c 0,-0.15 0.13,-0.22 0.24,-0.22 0.12,0 0.23,0.09 0.27,0.15 0.04,0.07 0.09,0.29 0.13,0.44 0.03,0.13 0.11,0.45 0.15,0.62 0.04,0.16 0.08,0.31 0.12,0.47 0.07,0.29 0.09,0.34 0.29,0.63 0.2,0.28 0.52,0.64 1.05,0.64 0.4,0 0.41,-0.35 0.41,-0.49 0,-0.42 -0.3,-1.19 -0.41,-1.48 -0.08,-0.2 -0.11,-0.26 -0.11,-0.38 0,-0.37 0.31,-0.6 0.66,-0.6 0.7,0 1.01,0.96 1.01,1.07 0,0.09 -0.09,0.09 -0.11,0.09 -0.1,0 -0.11,-0.04 -0.13,-0.12 -0.17,-0.56 -0.47,-0.84 -0.74,-0.84 -0.15,0 -0.18,0.09 -0.18,0.24 0,0.16 0.04,0.25 0.16,0.57 0.08,0.21 0.37,0.95 0.37,1.34 0,0.68 -0.54,0.8 -0.91,0.8 -0.57,0 -0.97,-0.36 -1.17,-0.64 -0.05,0.48 -0.46,0.64 -0.75,0.64 -0.3,0 -0.46,-0.22 -0.55,-0.38 -0.16,-0.26 -0.25,-0.66 -0.25,-0.69 0,-0.09 0.09,-0.09 0.12,-0.09 0.09,0 0.1,0.02 0.15,0.21 0.1,0.41 0.24,0.75 0.51,0.75 0.18,0 0.23,-0.15 0.23,-0.34 0,-0.13 -0.06,-0.39 -0.11,-0.58 -0.05,-0.19 -0.12,-0.48 -0.16,-0.63 z"
         inkscape:connector-curvature="0"
         style="fill:#000000;stroke-width:0" /></g>    <g
       id="g5019"
       transform="matrix(4,0,0,-4,-320.83699,3526.0255)"
       xml:space="preserve"
       stroke="black"
       stroke-linecap="butt"
       stroke-linejoin="miter"
       stroke-miterlimit="10.433"
       stroke-dasharray="none"
       stroke-dashoffset="0"
       stroke-opacity="1"
       fill="none"
       fill-rule="evenodd"
       fill-opacity="1"
       font-style="normal"
       font-variant="normal"
       font-weight="normal"
       font-stretch="normal"
       font-size-adjust="none"
       letter-spacing="normal"
       word-spacing="normal"
       text-anchor="start"
       ns0:text="$\\mathscr{L}_0$"
       ns0:preamble="/home/eric/BHLectures/Notes/latex_inkscape.ini"
       style="font-style:normal;font-variant:normal;font-weight:normal;font-stretch:normal;letter-spacing:normal;word-spacing:normal;text-anchor:start;fill:#ff0000;fill-opacity:1;fill-rule:evenodd;stroke:#000000;stroke-linecap:butt;stroke-linejoin:miter;stroke-miterlimit:10.43299961;stroke-dasharray:none;stroke-dashoffset:0;stroke-opacity:1"><path
         style="fill:#ff0000"
         d="M231.4,708.52 L231.4,708.52 L231.4,708.53 L231.4,708.53 L231.4,708.53 L231.4,708.54 L231.4,708.54 L231.4,708.55 L231.4,708.55 L231.39,708.55 L231.39,708.56 L231.39,708.56 L231.39,708.56 L231.39,708.57 L231.38,708.57 L231.38,708.57 L231.38,708.58 L231.38,708.58 L231.37,708.58 L231.37,708.58 L231.37,708.58 L231.36,708.59 L231.36,708.59 L231.36,708.59 L231.35,708.59 L231.35,708.59 L231.35,708.59 L231.34,708.59 L231.34,708.6 L231.33,708.6 L231.33,708.6 L231.33,708.6 L231.32,708.6 H231.2 C231.18,708.6,231.15,708.59,231.14,708.57 C230.68,707.93,229.77,707.44,229.12,707.44 C228.45,707.44,227.89,707.57,227.32,707.71 C227.96,708.1,228.52,708.61,228.92,709.16 L229.92,710.56 C231.2,710.75,232.53,711.25,233.27,712.3 C233.56,712.73,233.72,713.16,233.72,713.5 C233.72,713.96,233.45,714.27,232.84,714.27 L232.8,714.04 C233.18,714.04,233.35,713.84,233.35,713.53 C233.35,713.24,233.2,712.84,232.89,712.4 C232.27,711.54,231.2,711.05,230.12,710.84 C231.34,712.54,232.5,714.04,232.8,714.04 H232.8 L232.84,714.27 C231.86,714.27,230.41,712.49,229.1,710.71 C228.95,710.7,228.8,710.69,228.65,710.69 C227.63,710.69,226.91,711.06,226.91,711.72 C226.91,711.98,227.02,712.29,227.28,712.65 C227.76,713.34,228.7,713.88,229.37,713.88 C229.39,713.88,229.42,713.89,229.43,713.91 L229.47,713.97 C229.48,713.98,229.49,714,229.49,714.02 C229.49,714.05,229.47,714.07,229.45,714.08 C229.45,714.09,229.44,714.09,229.43,714.1 C229.33,714.13,229.23,714.14,229.12,714.14 C228.35,714.14,227.3,713.53,226.75,712.75 C226.47,712.35,226.35,712,226.35,711.72 C226.35,710.87,227.38,710.47,228.61,710.47 C228.72,710.47,228.83,710.47,228.93,710.48 C228.63,710.06,228.34,709.65,228.07,709.26 C227.71,708.75,227.22,708.25,226.7,707.87 C226.22,707.98,225.72,708.07,225.15,708.07 H225.09 L225.11,707.85 C225.58,707.85,225.98,707.76,226.36,707.63 C225.91,707.35,225.46,707.18,225.07,707.18 H225.07 C224.49,707.18,224.13,707.2,224.13,707.36 C224.13,707.4,224.14,707.44,224.18,707.49 C224.37,707.76,224.77,707.85,225.11,707.85 L225.09,708.07 C224.6,708.07,223.99,708.06,223.66,707.59 C223.59,707.49,223.55,707.4,223.55,707.33 C223.55,706.97,224.35,706.95,224.87,706.95 H225.03 C225.58,706.95,226.23,707.14,226.86,707.45 L226.98,707.4 C227.55,707.17,228.12,706.95,228.89,706.95 C229.71,706.95,230.82,707.66,231.38,708.47 C231.39,708.49,231.4,708.5,231.4,708.52 Z "
         stroke-width="0"
         fill="black"
         id="path5021" /><path
         style="fill:#ff0000"
         d="M235.74,707.85 L235.74,708 L235.73,708.13 L235.73,708.26 L235.72,708.39 L235.71,708.52 L235.69,708.63 L235.67,708.75 L235.65,708.86 L235.63,708.97 L235.6,709.08 L235.56,709.18 L235.53,709.28 L235.48,709.38 L235.44,709.47 L235.38,709.57 L235.36,709.62 L235.33,709.66 C235.11,709.98,234.68,710.26,234.12,710.26 C232.5,710.26,232.5,708.36,232.5,707.85 C232.5,707.35,232.5,705.49,234.12,705.49 V705.69 C233.8,705.69,233.37,705.87,233.24,706.45 C233.14,706.86,233.14,707.43,233.14,707.95 C233.14,708.45,233.14,708.98,233.24,709.37 C233.39,709.92,233.84,710.07,234.12,710.07 C234.5,710.07,234.86,709.84,234.99,709.43 C235.1,709.05,235.1,708.55,235.1,707.95 C235.1,707.43,235.1,706.91,235.01,706.47 C234.87,705.84,234.4,705.69,234.12,705.69 H234.12 V705.49 C235.74,705.49,235.74,707.35,235.74,707.85 Z "
         stroke-width="0"
         fill="black"
         id="path5023" /></g>    <rect
       style="fill:#ffffff;fill-opacity:1;stroke:none;stroke-width:1.755;stroke-miterlimit:4;stroke-dasharray:none;stroke-dashoffset:0;stroke-opacity:1"
       id="rect5267"
       width="43.608158"
       height="45.138268"
       x="531.71356"
       y="610.92523" />
    <g
       style="font-style:normal;font-variant:normal;font-weight:normal;font-stretch:normal;letter-spacing:normal;word-spacing:normal;text-anchor:start;fill:#ff0000;fill-opacity:1;fill-rule:evenodd;stroke:#000000;stroke-linecap:butt;stroke-linejoin:miter;stroke-miterlimit:10.43299961;stroke-dasharray:none;stroke-dashoffset:0;stroke-opacity:1"
       ns0:preamble="/home/eric/BHLectures/Notes/latex_inkscape.ini"
       ns0:text="$\\mathscr{L}_n$"
       word-spacing="normal"
       letter-spacing="normal"
       font-size-adjust="none"
       font-stretch="normal"
       font-weight="normal"
       font-variant="normal"
       font-style="normal"
       stroke-miterlimit="10.433"
       xml:space="preserve"
       transform="matrix(4,0,0,-4,-376.92076,3466.5113)"
       id="g5188"><path
         id="path5190"
         d="m 231.4,708.52 0,0 0,0.01 0,0 0,0 0,0.01 0,0 0,0.01 0,0 -0.01,0 0,0.01 0,0 0,0 0,0.01 -0.01,0 0,0 0,0.01 0,0 -0.01,0 0,0 0,0 -0.01,0.01 0,0 0,0 -0.01,0 0,0 0,0 -0.01,0 0,0.01 -0.01,0 0,0 0,0 -0.01,0 -0.12,0 c -0.02,0 -0.05,-0.01 -0.06,-0.03 -0.46,-0.64 -1.37,-1.13 -2.02,-1.13 -0.67,0 -1.23,0.13 -1.8,0.27 0.64,0.39 1.2,0.9 1.6,1.45 l 1,1.4 c 1.28,0.19 2.61,0.69 3.35,1.74 0.29,0.43 0.45,0.86 0.45,1.2 0,0.46 -0.27,0.77 -0.88,0.77 l -0.04,-0.23 c 0.38,0 0.55,-0.2 0.55,-0.51 0,-0.29 -0.15,-0.69 -0.46,-1.13 -0.62,-0.86 -1.69,-1.35 -2.77,-1.56 1.22,1.7 2.38,3.2 2.68,3.2 l 0,0 0.04,0.23 c -0.98,0 -2.43,-1.78 -3.74,-3.56 -0.15,-0.01 -0.3,-0.02 -0.45,-0.02 -1.02,0 -1.74,0.37 -1.74,1.03 0,0.26 0.11,0.57 0.37,0.93 0.48,0.69 1.42,1.23 2.09,1.23 0.02,0 0.05,0.01 0.06,0.03 l 0.04,0.06 c 0.01,0.01 0.02,0.03 0.02,0.05 0,0.03 -0.02,0.05 -0.04,0.06 0,0.01 -0.01,0.01 -0.02,0.02 -0.1,0.03 -0.2,0.04 -0.31,0.04 -0.77,0 -1.82,-0.61 -2.37,-1.39 -0.28,-0.4 -0.4,-0.75 -0.4,-1.03 0,-0.85 1.03,-1.25 2.26,-1.25 0.11,0 0.22,0 0.32,0.01 -0.3,-0.42 -0.59,-0.83 -0.86,-1.22 -0.36,-0.51 -0.85,-1.01 -1.37,-1.39 -0.48,0.11 -0.98,0.2 -1.55,0.2 l -0.06,0 0.02,-0.22 c 0.47,0 0.87,-0.09 1.25,-0.22 -0.45,-0.28 -0.9,-0.45 -1.29,-0.45 l 0,0 c -0.58,0 -0.94,0.02 -0.94,0.18 0,0.04 0.01,0.08 0.05,0.13 0.19,0.27 0.59,0.36 0.93,0.36 l -0.02,0.22 c -0.49,0 -1.1,-0.01 -1.43,-0.48 -0.07,-0.1 -0.11,-0.19 -0.11,-0.26 0,-0.36 0.8,-0.38 1.32,-0.38 l 0.16,0 c 0.55,0 1.2,0.19 1.83,0.5 l 0.12,-0.05 c 0.57,-0.23 1.14,-0.45 1.91,-0.45 0.82,0 1.93,0.71 2.49,1.52 0.01,0.02 0.02,0.03 0.02,0.05 z"
         style="fill:#ff0000;stroke-width:0"
         inkscape:connector-curvature="0" /><path
         id="path5192"
         d="m 232.99,706.07 0,-0.01 0,-0.01 -0.01,-0.01 0,-0.01 0,-0.01 -0.01,-0.01 0,-0.01 0,-0.01 -0.01,-0.02 0,-0.03 -0.01,-0.02 0,-0.02 -0.01,-0.01 0,-0.01 0,-0.01 0,-0.01 -0.01,-0.01 0,-0.01 0,-0.01 0,-0.01 0,0 0,-0.01 -0.01,-0.01 0,0 0,-0.01 0,0 0,0 0,0 0,-0.01 0,0 c 0,-0.15 0.13,-0.22 0.24,-0.22 0.12,0 0.24,0.09 0.27,0.15 0.03,0.07 0.09,0.29 0.13,0.44 0.03,0.13 0.11,0.45 0.15,0.62 0.04,0.16 0.08,0.31 0.12,0.47 0.07,0.29 0.09,0.34 0.29,0.63 0.2,0.28 0.52,0.64 1.05,0.64 0.4,0 0.41,-0.35 0.41,-0.49 0,-0.42 -0.3,-1.19 -0.41,-1.48 -0.08,-0.2 -0.11,-0.26 -0.11,-0.38 0,-0.37 0.31,-0.6 0.67,-0.6 0.69,0 1,0.96 1,1.07 0,0.09 -0.09,0.09 -0.11,0.09 -0.1,0 -0.11,-0.04 -0.13,-0.12 -0.17,-0.56 -0.47,-0.84 -0.75,-0.84 -0.14,0 -0.17,0.09 -0.17,0.24 0,0.16 0.04,0.25 0.16,0.57 0.09,0.21 0.37,0.95 0.37,1.34 0,0.68 -0.54,0.8 -0.9,0.8 -0.58,0 -0.97,-0.36 -1.18,-0.64 -0.05,0.48 -0.46,0.64 -0.75,0.64 -0.3,0 -0.46,-0.22 -0.55,-0.38 -0.15,-0.26 -0.25,-0.66 -0.25,-0.69 0,-0.09 0.1,-0.09 0.12,-0.09 0.09,0 0.1,0.02 0.15,0.21 0.1,0.41 0.24,0.75 0.51,0.75 0.18,0 0.23,-0.15 0.23,-0.34 0,-0.13 -0.06,-0.39 -0.11,-0.58 -0.05,-0.19 -0.12,-0.48 -0.16,-0.63 z"
         style="fill:#ff0000;stroke-width:0"
         inkscape:connector-curvature="0" /></g>    <path
       sodipodi:nodetypes="cc"
       inkscape:connector-curvature="0"
       id="path3777-2-6-6"
       d="m 334.70723,808.83169 c 25.16546,-36.60578 28.84331,-45.7282 48.46507,-76.67952"
       style="fill:none;stroke:#ff0000;stroke-width:3;stroke-linecap:butt;stroke-linejoin:miter;stroke-miterlimit:4;stroke-dasharray:none;stroke-dashoffset:0;stroke-opacity:1" />
    <circle
       id="path3755"
       style="fill:#000000;fill-opacity:1;stroke:none"
       cx="332.82886"
       cy="809.25916"
       r="6.5527644" />
    <circle
       id="path3755-9"
       style="fill:#000000;fill-opacity:1;stroke:none"
       cx="383.73807"
       cy="726.88202"
       r="6.5527644" />
  </g>
</svg>
