<?xml version="1.0" encoding="UTF-8" standalone="no"?>
<!-- Created with Inkscape (http://www.inkscape.org/) -->

<svg
   xmlns:ns0="http://www.iki.fi/pav/software/textext/"
   xmlns:dc="http://purl.org/dc/elements/1.1/"
   xmlns:cc="http://creativecommons.org/ns#"
   xmlns:rdf="http://www.w3.org/1999/02/22-rdf-syntax-ns#"
   xmlns:svg="http://www.w3.org/2000/svg"
   xmlns="http://www.w3.org/2000/svg"
   xmlns:sodipodi="http://sodipodi.sourceforge.net/DTD/sodipodi-0.dtd"
   xmlns:inkscape="http://www.inkscape.org/namespaces/inkscape"
   width="1052.3622"
   height="744.09448"
   id="svg2"
   version="1.1"
   inkscape:version="0.48.4 r9939"
   sodipodi:docname="glo_spurious_bh.svg">
  <sodipodi:namedview
     id="base"
     pagecolor="#ffffff"
     bordercolor="#666666"
     borderopacity="1.0"
     inkscape:pageopacity="0.0"
     inkscape:pageshadow="2"
     inkscape:zoom="1.1914558"
     inkscape:cx="340.64685"
     inkscape:cy="342.00384"
     inkscape:document-units="px"
     inkscape:current-layer="layer1"
     showgrid="false"
     inkscape:window-width="1535"
     inkscape:window-height="876"
     inkscape:window-x="65"
     inkscape:window-y="24"
     inkscape:window-maximized="1" />
  <defs
     id="defs4">
    <marker
       style="overflow:visible;"
       id="Arrow1Lend"
       refX="0.0"
       refY="0.0"
       orient="auto"
       inkscape:stockid="Arrow1Lend">
      <path
         transform="scale(0.8) rotate(180) translate(12.5,0)"
         style="fill-rule:evenodd;stroke:#000000;stroke-width:1.0pt;"
         d="M 0.0,0.0 L 5.0,-5.0 L -12.5,0.0 L 5.0,5.0 L 0.0,0.0 z "
         id="path3874" />
    </marker>
    <marker
       style="overflow:visible;"
       id="Arrow1Lendi"
       refX="0.0"
       refY="0.0"
       orient="auto"
       inkscape:stockid="Arrow1Lendi">
      <path
         transform="scale(0.8) rotate(180) translate(12.5,0)"
         style="stroke:#ff0000;stroke-width:1.0pt;fill:#ff0000;fill-rule:evenodd"
         d="M 0.0,0.0 L 5.0,-5.0 L -12.5,0.0 L 5.0,5.0 L 0.0,0.0 z "
         id="path4316" />
    </marker>
  </defs>
  <metadata
     id="metadata7">
    <rdf:RDF>
      <cc:Work
         rdf:about="">
        <dc:format>image/svg+xml</dc:format>
        <dc:type
           rdf:resource="http://purl.org/dc/dcmitype/StillImage" />
        <dc:title />
      </cc:Work>
    </rdf:RDF>
  </metadata>
  <g
     transform="translate(0,-308.2677)"
     id="layer1"
     inkscape:groupmode="layer"
     inkscape:label="Calque 1">
    <path
       style="fill:#c87137;stroke:#c87137;stroke-width:4.88394976;stroke-linecap:butt;stroke-linejoin:miter;stroke-miterlimit:4;stroke-opacity:1;stroke-dasharray:none"
       d="m 341.19048,557.92441 151.3662,152.40815"
       id="path3814"
       inkscape:connector-curvature="0"
       sodipodi:nodetypes="cc" />
    <path
       style="fill:#f2f2f2;stroke:#000000;stroke-width:1px;stroke-linecap:butt;stroke-linejoin:miter;stroke-opacity:1"
       d="m 187.61292,96.662384 0,302.358326 149.50405,-149.50405 z"
       id="path3820"
       inkscape:connector-curvature="0"
       transform="translate(0,308.2677)"
       sodipodi:nodetypes="cccc" />
    <g
       style="font-style:normal;font-variant:normal;font-weight:normal;font-stretch:normal;letter-spacing:normal;word-spacing:normal;text-anchor:start;fill:#c87137;stroke:#aa4400;stroke-linecap:butt;stroke-linejoin:miter;stroke-miterlimit:10.43299961;stroke-opacity:1;stroke-dasharray:none;stroke-dashoffset:0"
       id="content"
       transform="matrix(4,0,0,-4,-466.84908,3455.8819)"
       xml:space="preserve"
       stroke-miterlimit="10.433"
       font-style="normal"
       font-variant="normal"
       font-weight="normal"
       font-stretch="normal"
       font-size-adjust="none"
       letter-spacing="normal"
       word-spacing="normal"
       ns0:text="$\\mathscr{I}^+$"
       ns0:preamble="/home/eric/BHLectures/Notes/latex_inkscape.ini"><path
         style="fill:#c87137;stroke:#aa4400;stroke-width:0"
         inkscape:connector-curvature="0"
         d="m 230.42,711.73 0.11,0.16 0.12,0.16 0.13,0.15 0.13,0.15 0.14,0.16 0.14,0.15 0.15,0.14 0.15,0.15 0.16,0.14 0.16,0.14 0.17,0.14 0.17,0.14 0.18,0.13 0.18,0.13 0.18,0.12 0.18,0.12 c 0.02,0.01 0.03,0.04 0.03,0.07 l -0.01,0.08 c -0.01,0.01 -0.01,0.02 -0.01,0.03 -0.01,0.04 -0.05,0.06 -0.08,0.06 -0.01,0 -0.02,0 -0.03,-0.01 -1.8,-0.74 -3.72,-0.67 -4.8,-2.2 -0.35,-0.49 -0.53,-0.98 -0.53,-1.4 0,-0.16 0.03,-0.31 0.08,-0.44 0.14,-0.35 0.45,-0.58 0.86,-0.7 l 0.14,0.22 c -0.31,0.1 -0.52,0.3 -0.59,0.56 -0.02,0.07 -0.03,0.15 -0.03,0.23 0,0.4 0.22,0.91 0.6,1.43 0.65,0.94 1.82,1.28 2.98,1.64 0.13,0.04 0.26,0.08 0.38,0.12 -0.79,-0.53 -1.48,-1.18 -1.97,-1.87 h 0 c -0.5,-0.7 -0.91,-1.41 -1.37,-2.11 l -0.14,-0.22 -0.17,-0.24 c -0.75,-1.05 -1.92,-2.08 -2.81,-2.08 -0.69,0 -1.17,0.18 -1.17,0.58 0,0.09 0.02,0.2 0.08,0.31 0.06,-0.1 0.17,-0.15 0.29,-0.15 0.25,0 0.55,0.2 0.55,0.39 0,0.24 -0.15,0.34 -0.33,0.34 -0.2,0 -0.44,-0.12 -0.56,-0.29 -0.17,-0.25 -0.25,-0.46 -0.25,-0.64 0,-0.52 0.63,-0.76 1.35,-0.76 1.21,0 2.91,0.96 3.7,2.2 l 0.18,0.28 c 0.28,0.04 0.6,0.14 0.92,0.32 0.37,0.2 0.71,0.48 0.93,0.79 0.29,0.41 0.36,0.78 0.36,1.11 0,0.11 -0.01,0.23 -0.02,0.34 -0.01,0.04 -0.04,0.07 -0.08,0.07 h -0.02 c -0.03,0 -0.06,-0.02 -0.09,-0.03 -0.03,-0.02 -0.05,-0.05 -0.05,-0.09 0.01,-0.08 0.02,-0.16 0.02,-0.24 0,-0.31 -0.09,-0.67 -0.37,-1.06 -0.19,-0.27 -0.47,-0.54 -0.8,-0.72 -0.23,-0.13 -0.46,-0.21 -0.67,-0.25 0.38,0.69 0.55,1.36 1.05,2.05 z"
         id="path4387" /><path
         style="fill:#c87137;stroke:#aa4400;stroke-width:0"
         inkscape:connector-curvature="0"
         d="m 236.63,712.31 h 2.13 c 0.09,0 0.26,0 0.26,0.17 0,0.17 -0.16,0.17 -0.26,0.17 h -2.13 v 2.14 c 0,0.09 0,0.25 -0.17,0.25 -0.17,0 -0.17,-0.16 -0.17,-0.25 v -2.14 h -2.14 c -0.09,0 -0.26,0 -0.26,-0.17 0,-0.17 0.16,-0.17 0.26,-0.17 h 2.14 v -2.13 c 0,-0.09 0,-0.26 0.16,-0.26 0.18,0 0.18,0.16 0.18,0.26 z"
         id="path4389" /></g>    <g
       ns0:preamble="/home/eric/BHLectures/Notes/latex_inkscape.ini"
       ns0:text="$J^-(\\mathscr{I}^+)$"
       word-spacing="normal"
       letter-spacing="normal"
       font-size-adjust="none"
       font-stretch="normal"
       font-weight="normal"
       font-variant="normal"
       font-style="normal"
       stroke-miterlimit="10.433"
       xml:space="preserve"
       transform="matrix(4,0,0,-4,-652.65945,3595.0107)"
       id="g4433"
       style="font-style:normal;font-variant:normal;font-weight:normal;font-stretch:normal;letter-spacing:normal;word-spacing:normal;text-anchor:start;fill:none;stroke:#000000;stroke-linecap:butt;stroke-linejoin:miter;stroke-miterlimit:10.43299961;stroke-opacity:1;stroke-dasharray:none;stroke-dashoffset:0"><path
         id="path4435"
         d="m 228.82,713.18 0,0.03 0.01,0.03 0.01,0.03 0,0.03 0.01,0.02 0.01,0.02 0,0.03 0.01,0.02 0.01,0.02 0.01,0.02 0.01,0.01 0.01,0.02 0.01,0.02 0.01,0.01 0.02,0.01 0.01,0.02 0.02,0.01 0.02,0.01 0.02,0.01 0.02,0.01 0.02,0 0.02,0.01 0.03,0.01 0.02,0 0.01,0 0.02,0.01 0.01,0 0.02,0 0.02,0 0.01,0 0.02,0 0.02,0.01 0.02,0 0.02,0 0.02,0 0.02,0 0.02,0 0.03,0 0.02,0 0.03,0 0.02,0 c 0.16,0 0.27,0 0.27,0.19 0,0.09 -0.06,0.12 -0.14,0.12 -0.25,0 -0.85,-0.03 -1.1,-0.03 -0.33,0 -1.14,0.03 -1.47,0.03 -0.09,0 -0.2,0 -0.2,-0.2 0,-0.11 0.07,-0.11 0.33,-0.11 0.23,0 0.33,0 0.58,-0.02 0.24,-0.03 0.31,-0.06 0.31,-0.2 0,-0.06 -0.02,-0.13 -0.04,-0.21 l -1.15,-4.56 c -0.23,-0.96 -0.91,-1.49 -1.43,-1.49 -0.26,0 -0.78,0.1 -0.94,0.62 0.03,-0.01 0.1,-0.01 0.12,-0.01 0.38,0 0.64,0.34 0.64,0.64 0,0.31 -0.27,0.41 -0.44,0.41 -0.17,0 -0.66,-0.12 -0.66,-0.79 0,-0.62 0.53,-1.08 1.31,-1.08 0.92,0 1.95,0.65 2.2,1.64 z"
         inkscape:connector-curvature="0"
         style="fill:#000000;stroke-width:0" /><path
         id="path4437"
         d="m 235.1,712.31 0.01,0 0.01,0 0.01,0 0.01,0 0.02,0 0.02,0 0.01,0 0.01,0 0.01,0.01 0.01,0 0.01,0 0.02,0 0.01,0 0.01,0.01 0.01,0 0.01,0.01 0.01,0 0.01,0.01 0.01,0 0,0.01 0.01,0.01 0.01,0 0,0.01 0.01,0 0,0.01 0,0 0.01,0.01 0,0 0,0.01 0,0 0.01,0.01 0,0 0,0.01 0,0.01 0,0 0,0.01 0,0.01 0,0 0,0.01 0.01,0.01 c 0,0.17 -0.17,0.17 -0.28,0.17 h -4.15 c -0.12,0 -0.28,0 -0.28,-0.17 0,-0.17 0.16,-0.17 0.28,-0.17 z"
         inkscape:connector-curvature="0"
         style="fill:#000000;stroke-width:0" /><path
         id="path4439"
         d="m 239.93,704.74 0,0.01 0,0 0,0 0,0.01 0,0 0,0 0,0.01 0,0 0,0 -0.01,0.01 0,0 0,0.01 0,0 -0.01,0.01 0,0 -0.01,0.01 0,0.01 -0.01,0 0,0.01 0,0 -0.01,0.01 0,0 -0.01,0 0,0.01 0,0 -0.01,0.01 0,0 -0.01,0.01 0,0 -0.01,0.01 0,0 -0.01,0.01 0,0.01 -0.01,0 -0.01,0.01 0,0.01 -0.01,0 -0.01,0.01 0,0.01 -0.01,0 -0.01,0.01 -0.01,0.01 c -1.24,1.25 -1.56,3.13 -1.56,4.65 0,1.73 0.38,3.46 1.6,4.7 0.13,0.12 0.13,0.14 0.13,0.17 0,0.07 -0.04,0.1 -0.1,0.1 -0.1,0 -0.99,-0.68 -1.58,-1.94 -0.51,-1.09 -0.63,-2.2 -0.63,-3.03 0,-0.78 0.11,-1.98 0.66,-3.1 0.6,-1.22 1.45,-1.87 1.55,-1.87 0.06,0 0.1,0.03 0.1,0.1 z"
         inkscape:connector-curvature="0"
         style="fill:#000000;stroke-width:0" /><path
         id="path4441"
         d="m 247.5,711.73 0.11,0.16 0.12,0.16 0.13,0.15 0.13,0.15 0.14,0.16 0.14,0.15 0.15,0.14 0.15,0.15 0.16,0.14 0.17,0.14 0.16,0.14 0.17,0.14 0.18,0.13 0.18,0.13 0.18,0.12 0.19,0.12 c 0.02,0.01 0.03,0.04 0.03,0.07 l -0.01,0.08 c -0.01,0.01 -0.01,0.02 -0.01,0.03 -0.01,0.04 -0.05,0.06 -0.08,0.06 -0.01,0 -0.02,0 -0.03,-0.01 -1.8,-0.74 -3.73,-0.67 -4.81,-2.2 -0.35,-0.49 -0.53,-0.98 -0.53,-1.4 0,-0.16 0.03,-0.31 0.08,-0.44 0.14,-0.35 0.45,-0.58 0.86,-0.7 l 0.14,0.22 c -0.31,0.1 -0.52,0.3 -0.59,0.56 -0.02,0.07 -0.03,0.15 -0.03,0.23 0,0.4 0.22,0.91 0.6,1.43 0.66,0.94 1.82,1.28 2.98,1.64 0.13,0.04 0.26,0.08 0.38,0.12 -0.79,-0.53 -1.48,-1.18 -1.97,-1.87 h 0 c -0.5,-0.7 -0.9,-1.41 -1.37,-2.11 l -0.14,-0.22 -0.17,-0.24 c -0.75,-1.05 -1.92,-2.08 -2.81,-2.08 -0.68,0 -1.17,0.18 -1.17,0.58 0,0.09 0.02,0.2 0.08,0.31 0.06,-0.1 0.17,-0.15 0.29,-0.15 0.26,0 0.56,0.2 0.56,0.39 0,0.24 -0.15,0.34 -0.33,0.34 -0.21,0 -0.45,-0.12 -0.57,-0.29 -0.17,-0.25 -0.25,-0.46 -0.25,-0.64 0,-0.52 0.63,-0.76 1.35,-0.76 1.21,0 2.91,0.96 3.71,2.2 l 0.17,0.28 c 0.28,0.04 0.6,0.14 0.92,0.32 0.37,0.2 0.72,0.48 0.94,0.79 0.28,0.41 0.35,0.78 0.35,1.11 0,0.11 -0.01,0.23 -0.02,0.34 -0.01,0.04 -0.04,0.07 -0.08,0.07 h -0.02 c -0.03,0 -0.06,-0.02 -0.09,-0.03 -0.03,-0.02 -0.05,-0.05 -0.05,-0.09 0.01,-0.08 0.02,-0.16 0.02,-0.24 0,-0.31 -0.08,-0.67 -0.36,-1.06 -0.19,-0.27 -0.48,-0.54 -0.81,-0.72 -0.23,-0.13 -0.46,-0.21 -0.67,-0.25 0.38,0.69 0.55,1.36 1.05,2.05 z"
         inkscape:connector-curvature="0"
         style="fill:#000000;stroke-width:0" /><path
         id="path4443"
         d="m 253.71,712.31 h 2.13 c 0.09,0 0.26,0 0.26,0.17 0,0.17 -0.16,0.17 -0.26,0.17 h -2.13 v 2.14 c 0,0.09 0,0.25 -0.17,0.25 -0.17,0 -0.17,-0.16 -0.17,-0.25 v -2.14 h -2.14 c -0.09,0 -0.26,0 -0.26,-0.17 0,-0.17 0.16,-0.17 0.26,-0.17 h 2.14 v -2.13 c 0,-0.09 0,-0.26 0.17,-0.26 0.17,0 0.17,0.16 0.17,0.26 z"
         inkscape:connector-curvature="0"
         style="fill:#000000;stroke-width:0" /><path
         id="path4445"
         d="m 259.98,709.61 -0.01,0.07 0,0.08 0,0.08 0,0.08 -0.01,0.17 -0.01,0.17 -0.02,0.18 -0.02,0.19 -0.03,0.2 -0.03,0.2 -0.04,0.2 -0.04,0.21 -0.06,0.21 -0.06,0.21 -0.07,0.21 -0.08,0.21 -0.04,0.11 -0.04,0.11 -0.05,0.1 -0.05,0.11 c -0.6,1.22 -1.45,1.87 -1.55,1.87 -0.06,0 -0.1,-0.04 -0.1,-0.1 0,-0.03 0,-0.05 0.19,-0.23 0.97,-0.99 1.54,-2.57 1.54,-4.64 0,-1.7 -0.37,-3.45 -1.6,-4.7 -0.13,-0.12 -0.13,-0.14 -0.13,-0.17 0,-0.06 0.04,-0.1 0.1,-0.1 0.1,0 0.99,0.68 1.58,1.94 0.51,1.09 0.63,2.19 0.63,3.03 z"
         inkscape:connector-curvature="0"
         style="fill:#000000;stroke-width:0" /></g>    <g
       style="font-style:normal;font-variant:normal;font-weight:normal;font-stretch:normal;letter-spacing:normal;word-spacing:normal;text-anchor:start;fill:none;stroke:#000000;stroke-linecap:butt;stroke-linejoin:miter;stroke-miterlimit:10.43299961;stroke-opacity:1;stroke-dasharray:none;stroke-dashoffset:0"
       id="g4503"
       transform="matrix(4,0,0,-4,-676.73039,3390.55)"
       xml:space="preserve"
       stroke-miterlimit="10.433"
       font-style="normal"
       font-variant="normal"
       font-weight="normal"
       font-stretch="normal"
       font-size-adjust="none"
       letter-spacing="normal"
       word-spacing="normal"
       ns0:text="$\\mathscr{B}$"
       ns0:preamble="/home/eric/BHLectures/Notes/latex_inkscape.ini"><path
         style="fill:#000000;stroke-width:0"
         inkscape:connector-curvature="0"
         d="m 229.82,714.16 -0.13,0 -0.14,-0.01 -0.13,-0.01 -0.14,-0.02 -0.15,-0.02 -0.14,-0.02 -0.15,-0.03 -0.14,-0.04 -0.15,-0.04 -0.15,-0.05 -0.16,-0.05 -0.15,-0.05 -0.16,-0.06 -0.15,-0.07 -0.16,-0.07 -0.16,-0.08 c -0.72,-0.37 -1.43,-0.9 -1.86,-1.5 -0.34,-0.47 -0.55,-0.96 -0.55,-1.37 0,-0.07 0.01,-0.13 0.02,-0.19 0.07,-0.43 0.41,-0.68 0.95,-0.68 0.35,0 0.77,0.11 1.17,0.31 0.38,0.2 0.73,0.48 0.95,0.79 0.4,0.56 0.56,1.08 0.56,1.54 0,0.09 -0.02,0.18 -0.02,0.27 0,0.05 -0.05,0.08 -0.09,0.08 -0.03,-0.01 -0.06,-0.02 -0.09,-0.04 -0.03,-0.01 -0.05,-0.04 -0.05,-0.07 v -0.08 c 0,-0.42 -0.4,-1 -0.83,-1.6 -0.18,-0.26 -0.41,-0.52 -0.71,-0.71 -0.3,-0.19 -0.61,-0.27 -0.85,-0.27 -0.45,0 -0.7,0.2 -0.74,0.52 -0.01,0.04 -0.01,0.08 -0.01,0.12 0,0.36 0.2,0.81 0.54,1.28 0.39,0.56 1.03,1.08 1.73,1.42 0.79,0.4 1.56,0.58 2.2,0.58 0.75,0 1.38,-0.11 1.83,-0.39 -1.62,-1.19 -2.77,-2.81 -3.82,-4.29 -0.73,-1.03 -1.78,-2.06 -2.62,-2.06 -0.68,0 -1.19,0.18 -1.19,0.58 0,0.09 0.03,0.18 0.08,0.29 0.06,-0.1 0.17,-0.15 0.29,-0.15 0.26,0 0.55,0.2 0.55,0.39 0,0.24 -0.14,0.34 -0.32,0.34 -0.21,0 -0.45,-0.12 -0.57,-0.29 -0.17,-0.24 -0.24,-0.44 -0.24,-0.62 0,-0.52 0.64,-0.75 1.36,-0.75 1.15,0 2.7,1.02 3.52,2.17 0.21,0.31 0.44,0.64 0.69,0.98 0.14,-0.05 0.3,-0.06 0.46,-0.06 l 0.04,0.21 c -0.05,0 -0.09,0 -0.11,0.01 0.02,0.03 0.05,0.06 0.08,0.11 h 0 c 0.08,0.12 0.12,0.16 0.12,0.16 0.09,0.05 0.18,0.06 0.27,0.06 l 0.04,0.22 c -0.13,0 -0.26,-0.01 -0.4,-0.03 0.71,0.96 1.44,1.91 2.04,2.51 0.17,-0.17 0.27,-0.39 0.27,-0.66 0,-0.28 -0.11,-0.61 -0.37,-0.97 -0.23,-0.33 -0.5,-0.66 -0.86,-0.94 -0.19,0.06 -0.43,0.09 -0.68,0.09 h 0 l -0.04,-0.22 c 0.17,0 0.33,-0.02 0.46,-0.05 -0.28,-0.18 -0.59,-0.29 -0.82,-0.29 l -0.04,-0.21 c 0.36,0 0.79,0.13 1.2,0.36 0.16,-0.09 0.27,-0.23 0.33,-0.39 0.02,-0.07 0.04,-0.15 0.04,-0.24 0,-0.34 -0.18,-0.79 -0.51,-1.24 -0.24,-0.33 -0.5,-0.67 -0.87,-0.94 -0.32,-0.23 -0.66,-0.37 -0.92,-0.37 -0.33,0 -0.53,0.12 -0.58,0.33 -0.01,0.04 -0.02,0.09 -0.02,0.14 0,0.2 0.1,0.46 0.29,0.74 0.13,0.19 0.37,0.34 0.61,0.45 0.31,0.13 0.6,0.18 0.85,0.18 0.03,0 0.05,0.01 0.07,0.03 l 0.04,0.06 c 0.01,0.01 0.01,0.03 0.01,0.05 0,0.04 -0.04,0.08 -0.08,0.08 -0.29,0 -0.62,-0.06 -0.97,-0.22 -0.27,-0.12 -0.55,-0.31 -0.71,-0.53 -0.21,-0.3 -0.33,-0.61 -0.33,-0.87 0,-0.07 0,-0.13 0.02,-0.19 0.09,-0.31 0.38,-0.46 0.76,-0.46 0.37,0 0.83,0.15 1.26,0.41 0.44,0.27 0.82,0.64 1.09,1.01 0.3,0.42 0.46,0.84 0.46,1.2 0,0.17 -0.04,0.34 -0.11,0.48 -0.09,0.19 -0.25,0.35 -0.45,0.47 0.41,0.28 0.77,0.62 1.03,0.97 0.24,0.36 0.35,0.69 0.35,0.98 0,0.34 -0.13,0.63 -0.36,0.85 -0.05,0.05 -0.1,0.1 -0.16,0.15 0.13,0.12 0.26,0.21 0.37,0.28 0.02,0.02 0.03,0.04 0.03,0.07 l -0.01,0.1 c -0.01,0.04 -0.05,0.06 -0.09,0.06 -0.01,0 -0.03,0 -0.04,-0.01 l -0.52,-0.33 c -0.54,0.31 -1.26,0.42 -2.06,0.42 z"
         id="path4505" /></g>    <g
       style="font-style:normal;font-variant:normal;font-weight:normal;font-stretch:normal;letter-spacing:normal;word-spacing:normal;text-anchor:start;fill:none;stroke:#000000;stroke-linecap:butt;stroke-linejoin:miter;stroke-miterlimit:10.43299961;stroke-opacity:1;stroke-dasharray:none;stroke-dashoffset:0"
       ns0:preamble="/home/eric/BHLectures/Notes/latex_inkscape.ini"
       ns0:text="$\\mathscr{H}$"
       word-spacing="normal"
       letter-spacing="normal"
       font-size-adjust="none"
       font-stretch="normal"
       font-weight="normal"
       font-variant="normal"
       font-style="normal"
       stroke-miterlimit="10.433"
       xml:space="preserve"
       transform="matrix(4,0,0,-4,-619.85547,3474.4356)"
       id="g5001"><path
         id="path5003"
         d="m 232.59,708.52 -0.01,0 0,0 0,0.01 0,0 0,0.01 0,0 0,0.01 0,0 0,0 -0.01,0.01 0,0 0,0 0,0.01 0,0 -0.01,0 0,0 0,0.01 -0.01,0 0,0 0,0 -0.01,0 0,0.01 0,0 -0.01,0 0,0 0,0 -0.01,0 0,0 0,0 -0.01,0 0,0 0,0 h -0.11 c -0.03,0 -0.06,0 -0.07,-0.02 -0.47,-0.66 -1.1,-1.31 -1.59,-1.31 -0.4,0 -0.57,0.19 -0.57,0.51 0,0.48 0.4,1.25 0.98,2.09 0.24,0.34 0.48,0.67 0.73,1.01 1.33,0.08 2.66,0.37 3.4,1.42 0.31,0.44 0.49,0.88 0.49,1.23 0,0.38 -0.21,0.64 -0.71,0.64 l -0.04,-0.22 c 0.33,0 0.49,-0.17 0.49,-0.45 0,-0.28 -0.17,-0.66 -0.48,-1.1 -0.64,-0.9 -1.77,-1.19 -2.98,-1.29 1.1,1.5 2.23,2.84 2.97,2.84 h 0 l 0.04,0.22 c -1.41,0 -2.77,-1.5 -3.96,-3.1 h -1.27 c 0.74,0.99 1.49,1.99 2.27,2.97 0.02,0.03 0.02,0.05 0.02,0.08 l -0.03,0.08 c -0.01,0.03 -0.04,0.06 -0.08,0.06 -0.02,0 -0.04,-0.01 -0.06,-0.03 -0.5,-0.48 -0.99,-0.96 -1.52,-1.48 -0.37,-0.52 -1.13,-0.88 -1.69,-0.88 -0.11,0 -0.19,0.06 -0.19,0.16 0,0.07 0.04,0.16 0.11,0.27 0.14,0.21 0.21,0.4 0.21,0.56 0,0.32 -0.26,0.53 -0.7,0.53 -0.52,0 -1.06,-0.64 -1.43,-1.17 0,-0.01 0,-0.03 0,-0.04 0,-0.05 0.02,-0.09 0.08,-0.09 h 0.1 c 0.03,0 0.05,0.02 0.07,0.04 0.38,0.54 0.76,1.04 1.14,1.04 0.16,0 0.25,-0.08 0.25,-0.22 0,-0.14 -0.08,-0.32 -0.24,-0.55 -0.09,-0.13 -0.13,-0.24 -0.13,-0.34 0,-0.28 0.34,-0.4 0.7,-0.4 0.29,0 0.64,0.07 0.97,0.22 -0.25,-0.28 -0.5,-0.57 -0.74,-0.86 -1.14,-0.11 -2.26,-0.44 -2.94,-1.4 l -0.01,-0.05 c 0,-0.04 0.03,-0.08 0.08,-0.08 h 0.11 c 0.03,0 0.06,0.01 0.07,0.03 0.57,0.81 1.5,1.13 2.49,1.25 -0.39,-0.5 -0.78,-0.99 -1.14,-1.5 -0.74,-1.05 -1.65,-2.14 -2.49,-2.14 -0.66,0 -1.14,0.2 -1.14,0.61 0,0.1 0.03,0.21 0.09,0.34 0.07,-0.1 0.18,-0.15 0.3,-0.15 0.26,0 0.55,0.2 0.55,0.39 0,0.24 -0.15,0.34 -0.32,0.34 -0.21,0 -0.45,-0.12 -0.57,-0.29 -0.18,-0.26 -0.26,-0.48 -0.26,-0.67 0,-0.52 0.59,-0.78 1.31,-0.78 1.11,0 2.57,1.1 3.39,2.25 0.39,0.56 0.79,1.11 1.2,1.67 0.23,0.01 0.46,0.01 0.69,0.01 h 0.59 c -0.21,-0.3 -0.43,-0.6 -0.63,-0.88 -0.49,-0.69 -0.76,-1.37 -0.76,-1.9 0,-0.61 0.35,-1.01 1.15,-1.01 0.63,0 1.39,0.74 1.87,1.42 0.02,0.02 0.02,0.03 0.02,0.05 z"
         inkscape:connector-curvature="0"
         style="fill:#000000;stroke-width:0" /></g>    <path
       style="fill:none;stroke:#000000;stroke-width:2;stroke-linecap:butt;stroke-linejoin:miter;stroke-miterlimit:4;stroke-opacity:1;stroke-dasharray:none"
       d="m 187.48115,1014.3953 0,-608.57956 302.67729,306.6075 -302.8634,302.86336"
       id="path3030"
       inkscape:connector-curvature="0"
       sodipodi:nodetypes="cccc" />
    <path
       style="fill:none;stroke:#000000;stroke-width:4;stroke-linecap:butt;stroke-linejoin:miter;stroke-miterlimit:4;stroke-opacity:1;stroke-dasharray:none"
       d="M 188.45049,708.96353 339.21087,558.20314"
       id="path3818"
       inkscape:connector-curvature="0"
       sodipodi:nodetypes="cc" />
  </g>
</svg>
