<?xml version="1.0" encoding="UTF-8" standalone="no"?>
<!-- Created with Inkscape (http://www.inkscape.org/) -->

<svg
   xmlns:ns0="http://www.iki.fi/pav/software/textext/"
   xmlns:dc="http://purl.org/dc/elements/1.1/"
   xmlns:cc="http://creativecommons.org/ns#"
   xmlns:rdf="http://www.w3.org/1999/02/22-rdf-syntax-ns#"
   xmlns:svg="http://www.w3.org/2000/svg"
   xmlns="http://www.w3.org/2000/svg"
   xmlns:sodipodi="http://sodipodi.sourceforge.net/DTD/sodipodi-0.dtd"
   xmlns:inkscape="http://www.inkscape.org/namespaces/inkscape"
   width="297mm"
   height="210mm"
   viewBox="0 0 1052.3622 744.09448"
   id="svg2"
   version="1.1"
   inkscape:version="0.91 r13725"
   sodipodi:docname="glo_unique_geod.svg">
  <sodipodi:namedview
     id="base"
     pagecolor="#ffffff"
     bordercolor="#666666"
     borderopacity="1.0"
     inkscape:pageopacity="0.0"
     inkscape:pageshadow="2"
     inkscape:zoom="2.8316448"
     inkscape:cx="645.73169"
     inkscape:cy="447.31968"
     inkscape:document-units="px"
     inkscape:current-layer="layer1"
     showgrid="false"
     inkscape:window-width="1855"
     inkscape:window-height="1056"
     inkscape:window-x="65"
     inkscape:window-y="24"
     inkscape:window-maximized="1" />
  <defs
     id="defs4">
    <marker
       inkscape:stockid="Arrow1Mend"
       orient="auto"
       refY="0.0"
       refX="0.0"
       id="marker5665"
       style="overflow:visible;"
       inkscape:isstock="true">
      <path
         id="path5667"
         d="M 0.0,0.0 L 5.0,-5.0 L -12.5,0.0 L 5.0,5.0 L 0.0,0.0 z "
         style="fill-rule:evenodd;stroke:#ff0000;stroke-width:1pt;stroke-opacity:1;fill:#ff0000;fill-opacity:1"
         transform="scale(0.4) rotate(180) translate(10,0)" />
    </marker>
    <marker
       inkscape:stockid="Arrow2Lend"
       orient="auto"
       refY="0.0"
       refX="0.0"
       id="Arrow2Lend"
       style="overflow:visible;"
       inkscape:isstock="true">
      <path
         id="path5388"
         style="fill-rule:evenodd;stroke-width:0.625;stroke-linejoin:round;stroke:#ff0000;stroke-opacity:1;fill:#ff0000;fill-opacity:1"
         d="M 8.7185878,4.0337352 L -2.2072895,0.016013256 L 8.7185884,-4.0017078 C 6.9730900,-1.6296469 6.9831476,1.6157441 8.7185878,4.0337352 z "
         transform="scale(1.1) rotate(180) translate(1,0)" />
    </marker>
    <marker
       inkscape:stockid="Arrow1Mend"
       orient="auto"
       refY="0.0"
       refX="0.0"
       id="Arrow1Mend"
       style="overflow:visible;"
       inkscape:isstock="true">
      <path
         id="path5376"
         d="M 0.0,0.0 L 5.0,-5.0 L -12.5,0.0 L 5.0,5.0 L 0.0,0.0 z "
         style="fill-rule:evenodd;stroke:#ff0000;stroke-width:1pt;stroke-opacity:1;fill:#ff0000;fill-opacity:1"
         transform="scale(0.4) rotate(180) translate(10,0)" />
    </marker>
    <marker
       inkscape:stockid="Arrow1Lend"
       orient="auto"
       refY="0.0"
       refX="0.0"
       id="Arrow1Lend"
       style="overflow:visible;"
       inkscape:isstock="true">
      <path
         id="path5370"
         d="M 0.0,0.0 L 5.0,-5.0 L -12.5,0.0 L 5.0,5.0 L 0.0,0.0 z "
         style="fill-rule:evenodd;stroke:#ff0000;stroke-width:1pt;stroke-opacity:1;fill:#ff0000;fill-opacity:1"
         transform="scale(0.8) rotate(180) translate(12.5,0)" />
    </marker>
  </defs>
  <metadata
     id="metadata7">
    <rdf:RDF>
      <cc:Work
         rdf:about="">
        <dc:format>image/svg+xml</dc:format>
        <dc:type
           rdf:resource="http://purl.org/dc/dcmitype/StillImage" />
        <dc:title />
      </cc:Work>
    </rdf:RDF>
  </metadata>
  <g
     inkscape:label="Calque 1"
     inkscape:groupmode="layer"
     id="layer1"
     transform="translate(0,-308.26772)">
    <g
       id="content"
       transform="matrix(4,0,0,-4,-358.90986,3428.5757)"
       xml:space="preserve"
       stroke-miterlimit="10.433"
       font-style="normal"
       font-variant="normal"
       font-weight="normal"
       font-stretch="normal"
       font-size-adjust="none"
       letter-spacing="normal"
       word-spacing="normal"
       ns0:text="$q$"
       ns0:preamble="/home/eric/BHLectures/Notes/latex_inkscape.ini"
       style="font-style:normal;font-variant:normal;font-weight:normal;font-stretch:normal;letter-spacing:normal;word-spacing:normal;text-anchor:start;fill:none;fill-opacity:1;fill-rule:evenodd;stroke:#000000;stroke-linecap:butt;stroke-linejoin:miter;stroke-miterlimit:10.43299961;stroke-dasharray:none;stroke-dashoffset:0;stroke-opacity:1"><path
         style="fill:#000000;stroke-width:0"
         inkscape:connector-curvature="0"
         d="m 227.94,711.42 0,0 0,0 0,0.01 -0.01,0 0,0.01 0,0 0,0 0,0.01 0,0 0,0.01 -0.01,0 0,0.01 0,0 0,0 0,0.01 -0.01,0 0,0 0,0.01 -0.01,0 0,0 -0.01,0.01 0,0 0,0 -0.01,0.01 0,0 -0.01,0 0,0 -0.01,0 -0.01,0 0,0.01 -0.01,0 0,0 c -0.11,0 -0.51,-0.4 -0.68,-0.69 -0.22,0.54 -0.61,0.7 -0.93,0.7 l 0,-0.22 c 0.65,0 0.79,-0.81 0.79,-0.88 0,-0.06 -0.55,-2.24 -0.58,-2.28 -0.15,-0.28 -0.71,-0.92 -1.26,-0.92 l 0,0 c -0.6,0 -0.64,0.77 -0.64,0.94 0,0.48 0.29,1.56 0.46,1.98 0.3,0.74 0.82,1.16 1.23,1.16 l 0,0.22 c -1.17,0 -2.4,-1.48 -2.4,-2.92 0,-0.98 0.59,-1.6 1.32,-1.6 0.42,0 0.81,0.24 1.17,0.6 -0.09,-0.35 -0.42,-1.69 -0.45,-1.78 -0.08,-0.28 -0.16,-0.32 -0.71,-0.33 -0.13,0 -0.23,0 -0.23,-0.2 0,-0.01 0,-0.11 0.13,-0.11 0.32,0 0.66,0.03 0.99,0.03 0.34,0 0.7,-0.03 1.03,-0.03 0.05,0 0.18,0 0.18,0.2 0,0.11 -0.1,0.11 -0.26,0.11 -0.48,0 -0.48,0.07 -0.48,0.16 0,0.07 0.02,0.13 0.04,0.22 z"
         id="path4950" /></g>    <g
       id="g5112"
       transform="matrix(4,0,0,-4,-195.78348,3540.1939)"
       xml:space="preserve"
       stroke-miterlimit="10.433"
       font-style="normal"
       font-variant="normal"
       font-weight="normal"
       font-stretch="normal"
       font-size-adjust="none"
       letter-spacing="normal"
       word-spacing="normal"
       ns0:text="$\\mathscr{L}$"
       ns0:preamble="/home/eric/BHLectures/Notes/latex_inkscape.ini"
       style="font-style:normal;font-variant:normal;font-weight:normal;font-stretch:normal;letter-spacing:normal;word-spacing:normal;text-anchor:start;fill:#ff0000;fill-opacity:1;fill-rule:evenodd;stroke:#ff0000;stroke-linecap:butt;stroke-linejoin:miter;stroke-miterlimit:10.43299961;stroke-dasharray:none;stroke-dashoffset:0;stroke-opacity:1"><path
         inkscape:connector-curvature="0"
         style="fill:#ff0000;stroke:#ff0000;stroke-width:0"
         d="m 231.39,708.52 0,0 0,0 0,0.01 0,0 0,0.01 0,0 0,0.01 -0.01,0 0,0 0,0.01 0,0 0,0 -0.01,0.01 0,0 0,0 0,0 -0.01,0.01 0,0 0,0 -0.01,0 0,0 0,0.01 -0.01,0 0,0 0,0 -0.01,0 0,0 0,0 -0.01,0 0,0 0,0 -0.01,0 -0.12,0 c -0.02,0 -0.05,0 -0.06,-0.02 -0.45,-0.64 -1.37,-1.13 -2.02,-1.13 -0.66,0 -1.23,0.13 -1.8,0.27 0.64,0.39 1.21,0.89 1.6,1.45 l 1,1.39 c 1.28,0.19 2.61,0.69 3.34,1.74 0.3,0.43 0.46,0.86 0.46,1.19 0,0.46 -0.28,0.77 -0.89,0.77 l -0.04,-0.23 c 0.38,0 0.56,-0.2 0.56,-0.51 0,-0.29 -0.16,-0.68 -0.47,-1.12 -0.61,-0.86 -1.68,-1.35 -2.76,-1.56 1.22,1.7 2.38,3.19 2.67,3.19 l 0,0 0.04,0.23 c -0.97,0 -2.42,-1.77 -3.73,-3.55 -0.15,-0.01 -0.3,-0.02 -0.44,-0.02 -1.03,0 -1.75,0.37 -1.75,1.03 0,0.26 0.11,0.57 0.37,0.93 0.48,0.68 1.43,1.22 2.09,1.22 0.02,0 0.05,0.01 0.06,0.03 l 0.04,0.06 c 0.01,0.01 0.02,0.03 0.02,0.05 0,0.03 -0.02,0.05 -0.04,0.06 0,0.01 -0.01,0.01 -0.02,0.02 -0.1,0.03 -0.2,0.04 -0.31,0.04 -0.76,0 -1.82,-0.61 -2.37,-1.38 -0.27,-0.4 -0.39,-0.75 -0.39,-1.03 0,-0.85 1.02,-1.25 2.26,-1.25 0.1,0 0.21,0 0.31,0.01 -0.29,-0.42 -0.58,-0.82 -0.85,-1.21 -0.37,-0.52 -0.86,-1.01 -1.37,-1.39 -0.48,0.11 -0.98,0.2 -1.56,0.2 l -0.06,0 0.02,-0.22 c 0.48,0 0.88,-0.09 1.26,-0.22 -0.45,-0.28 -0.91,-0.45 -1.3,-0.45 l 0,0 c -0.57,0 -0.93,0.02 -0.93,0.18 0,0.04 0.01,0.08 0.05,0.13 0.19,0.27 0.58,0.36 0.92,0.36 l -0.02,0.22 c -0.48,0 -1.09,-0.01 -1.42,-0.48 -0.07,-0.1 -0.11,-0.19 -0.11,-0.26 0,-0.35 0.8,-0.37 1.32,-0.37 l 0.15,0 c 0.56,0 1.21,0.19 1.83,0.49 l 0.12,-0.05 c 0.57,-0.23 1.14,-0.44 1.91,-0.44 0.82,0 1.92,0.7 2.49,1.51 0.01,0.02 0.02,0.03 0.02,0.05 z"
         id="path5114" /></g>    <g
       style="font-style:normal;font-variant:normal;font-weight:normal;font-stretch:normal;letter-spacing:normal;word-spacing:normal;text-anchor:start;fill:none;fill-opacity:1;fill-rule:evenodd;stroke:#000000;stroke-linecap:butt;stroke-linejoin:miter;stroke-miterlimit:10.43299961;stroke-dasharray:none;stroke-dashoffset:0;stroke-opacity:1"
       ns0:preamble="/home/eric/BHLectures/Notes/latex_inkscape.ini"
       ns0:text="$a$"
       word-spacing="normal"
       letter-spacing="normal"
       font-size-adjust="none"
       font-stretch="normal"
       font-weight="normal"
       font-variant="normal"
       font-style="normal"
       stroke-miterlimit="10.433"
       xml:space="preserve"
       transform="matrix(4,0,0,-4,-284.71645,3508.3049)"
       id="g5057"><path
         id="path5059"
         d="m 227.15,710.89 -0.02,0.03 -0.02,0.04 -0.01,0.03 -0.02,0.03 -0.02,0.03 -0.02,0.03 -0.03,0.03 -0.02,0.03 -0.02,0.03 -0.02,0.03 -0.03,0.03 -0.02,0.02 -0.03,0.03 -0.02,0.02 -0.03,0.02 -0.03,0.03 -0.03,0.02 -0.03,0.02 -0.03,0.01 -0.03,0.02 -0.03,0.02 -0.03,0.01 -0.04,0.02 -0.03,0.01 -0.04,0.01 -0.03,0.01 -0.04,0.01 -0.04,0 -0.04,0.01 -0.04,0 -0.04,0.01 -0.04,0 0.01,-0.22 c 0.65,0 0.79,-0.82 0.79,-0.88 0,-0.06 -0.02,-0.12 -0.03,-0.17 l -0.5,-1.95 c -0.05,-0.18 -0.05,-0.2 -0.2,-0.37 -0.44,-0.55 -0.84,-0.71 -1.12,-0.71 -0.5,0 -0.64,0.55 -0.64,0.94 0,0.5 0.32,1.72 0.55,2.18 0.31,0.59 0.75,0.96 1.15,0.96 l -0.01,0.22 c -1.16,0 -2.4,-1.47 -2.4,-2.92 0,-0.94 0.55,-1.6 1.33,-1.6 0.19,0 0.69,0.04 1.29,0.75 0.08,-0.42 0.43,-0.75 0.91,-0.75 0.35,0 0.58,0.23 0.74,0.55 0.16,0.36 0.29,0.97 0.29,0.99 0,0.1 -0.09,0.1 -0.12,0.1 -0.09,0 -0.11,-0.04 -0.14,-0.18 -0.17,-0.65 -0.34,-1.24 -0.75,-1.24 -0.27,0 -0.3,0.26 -0.3,0.46 0,0.22 0.02,0.3 0.13,0.74 0.11,0.42 0.13,0.52 0.22,0.89 l 0.36,1.4 c 0.07,0.28 0.07,0.3 0.07,0.34 0,0.17 -0.12,0.27 -0.29,0.27 -0.24,0 -0.39,-0.22 -0.42,-0.44 z"
         inkscape:connector-curvature="0"
         style="fill:#000000;stroke-width:0" /></g>    <g
       id="g4157-6-1"
       transform="matrix(0.76078752,0,0,0.76078752,184.89633,-88.167969)"
       style="stroke-width:2.6288549;stroke-miterlimit:4;stroke-dasharray:none">
      <path
         inkscape:connector-curvature="0"
         id="path4140-7-2"
         d="m 466.19181,944.62457 92.13078,-92.13078"
         style="fill:#008000;fill-rule:evenodd;stroke:#008000;stroke-width:2.6288549;stroke-linecap:butt;stroke-linejoin:miter;stroke-miterlimit:4;stroke-dasharray:none;stroke-opacity:1" />
      <path
         inkscape:connector-curvature="0"
         id="path4140-3-5-7"
         d="M 558.57432,944.37285 466.44354,852.24207"
         style="fill:#008000;fill-rule:evenodd;stroke:#008000;stroke-width:2.6288549;stroke-linecap:butt;stroke-linejoin:miter;stroke-miterlimit:4;stroke-dasharray:none;stroke-opacity:1" />
    </g>
    <path
       sodipodi:nodetypes="cc"
       inkscape:connector-curvature="0"
       id="path5168"
       d="M 579.5361,593.31008 C 654.09455,516.79912 719.1935,472.73101 750.03754,455.69369"
       style="fill:none;fill-rule:evenodd;stroke:#ff0000;stroke-width:3;stroke-linecap:butt;stroke-linejoin:miter;stroke-miterlimit:4;stroke-dasharray:none;stroke-opacity:1;marker-end:url(#Arrow1Mend)" />
    <path
       sodipodi:nodetypes="cc"
       inkscape:connector-curvature="0"
       id="path5168-3"
       d="m 576.8155,599.6959 c 50.09428,51.59375 92.08818,86.14802 151.02071,157.55016"
       style="fill:none;fill-rule:evenodd;stroke:#ff0000;stroke-width:3;stroke-linecap:butt;stroke-linejoin:miter;stroke-miterlimit:4;stroke-dasharray:none;stroke-opacity:1;marker-end:url(#marker5665)" />
    <path
       style="fill:#ff0000;fill-rule:evenodd;stroke:#ff0000;stroke-width:3;stroke-linecap:butt;stroke-linejoin:miter;stroke-opacity:1;stroke-miterlimit:4;stroke-dasharray:12, 12;stroke-dashoffset:0"
       d="m 639.2397,661.84157 0,-125.94518"
       id="path5360"
       inkscape:connector-curvature="0" />
    <g
       id="g5414"
       transform="matrix(4,0,0,-4,-276.97933,3355.3078)"
       xml:space="preserve"
       stroke-miterlimit="10.433"
       font-style="normal"
       font-variant="normal"
       font-weight="normal"
       font-stretch="normal"
       font-size-adjust="none"
       letter-spacing="normal"
       word-spacing="normal"
       ns0:text="$b$"
       ns0:preamble="/home/eric/BHLectures/Notes/latex_inkscape.ini"
       style="font-style:normal;font-variant:normal;font-weight:normal;font-stretch:normal;letter-spacing:normal;word-spacing:normal;text-anchor:start;fill:none;fill-opacity:1;fill-rule:evenodd;stroke:#000000;stroke-linecap:butt;stroke-linejoin:miter;stroke-miterlimit:10.43299961;stroke-dasharray:none;stroke-dashoffset:0;stroke-opacity:1"><path
         style="fill:#000000;stroke-width:0"
         inkscape:connector-curvature="0"
         d="m 225.81,713.93 0,0 0,0 0,0 0,0 0,0 0,0.01 0,0 0,0 0,0.01 0,0 0,0.01 0,0 0,0.01 0,0 -0.01,0.01 0,0 0,0.01 -0.01,0 0,0.01 0,0 -0.01,0 0,0.01 0,0 -0.01,0 0,0 0,0.01 0,0 -0.01,0 0,0 0,0 -0.01,0 0,0.01 -0.01,0 0,0 0,0 -0.01,0 0,0 -0.01,0 0,0 -0.01,0.01 0,0 -0.01,0 0,0 -0.01,0 -0.01,0 c -0.22,0 -0.95,-0.08 -1.21,-0.1 -0.08,-0.01 -0.19,-0.02 -0.19,-0.2 0,-0.12 0.09,-0.12 0.24,-0.12 0.48,0 0.5,-0.07 0.5,-0.17 0,-0.07 -0.09,-0.41 -0.14,-0.62 l -0.82,-3.25 c -0.12,-0.49 -0.16,-0.65 -0.16,-1 0,-0.95 0.53,-1.57 1.27,-1.57 l 0,0.22 c -0.34,0 -0.67,0.27 -0.67,1.01 0,0.19 0,0.38 0.16,1 l 0.22,0.92 c 0.06,0.22 0.06,0.24 0.15,0.35 0.48,0.65 0.93,0.8 1.19,0.8 0.36,0 0.63,-0.3 0.63,-0.94 0,-0.59 -0.33,-1.73 -0.51,-2.11 -0.33,-0.67 -0.79,-1.03 -1.17,-1.03 l 0,-0.22 c 1.17,0 2.4,1.49 2.4,2.92 0,0.91 -0.53,1.6 -1.33,1.6 -0.46,0 -0.86,-0.29 -1.16,-0.6 z"
         id="path5416" /></g>    <g
       style="font-style:normal;font-variant:normal;font-weight:normal;font-stretch:normal;letter-spacing:normal;word-spacing:normal;text-anchor:start;fill:#ff0000;fill-opacity:1;fill-rule:evenodd;stroke:#ff0000;stroke-linecap:butt;stroke-linejoin:miter;stroke-miterlimit:10.43299961;stroke-dasharray:none;stroke-dashoffset:0;stroke-opacity:1"
       ns0:preamble="/home/eric/BHLectures/Notes/latex_inkscape.ini"
       ns0:text="$\\mathscr{L}\'$"
       word-spacing="normal"
       letter-spacing="normal"
       font-size-adjust="none"
       font-stretch="normal"
       font-weight="normal"
       font-variant="normal"
       font-style="normal"
       stroke-miterlimit="10.433"
       xml:space="preserve"
       transform="matrix(4,0,0,-4,-229.85529,3306.9798)"
       id="g5501"><path
         id="path5503"
         d="m 231.4,708.52 0,0 0,0.01 0,0 0,0 0,0.01 0,0 0,0.01 0,0 -0.01,0 0,0.01 0,0 0,0 0,0.01 -0.01,0 0,0 0,0.01 0,0 -0.01,0 0,0 0,0 -0.01,0.01 0,0 0,0 -0.01,0 0,0 0,0 -0.01,0 0,0.01 -0.01,0 0,0 0,0 -0.01,0 -0.12,0 c -0.02,0 -0.05,-0.01 -0.06,-0.03 -0.46,-0.64 -1.37,-1.13 -2.02,-1.13 -0.67,0 -1.23,0.13 -1.8,0.27 0.64,0.39 1.2,0.9 1.6,1.45 l 1,1.4 c 1.28,0.19 2.61,0.69 3.35,1.74 0.29,0.43 0.45,0.86 0.45,1.2 0,0.46 -0.27,0.77 -0.88,0.77 l -0.04,-0.23 c 0.38,0 0.55,-0.2 0.55,-0.51 0,-0.29 -0.15,-0.69 -0.46,-1.13 -0.62,-0.86 -1.69,-1.35 -2.77,-1.56 1.22,1.7 2.38,3.2 2.68,3.2 l 0,0 0.04,0.23 c -0.98,0 -2.43,-1.78 -3.74,-3.56 -0.15,-0.01 -0.3,-0.02 -0.45,-0.02 -1.02,0 -1.74,0.37 -1.74,1.03 0,0.26 0.11,0.57 0.37,0.93 0.48,0.69 1.42,1.23 2.09,1.23 0.02,0 0.05,0.01 0.06,0.03 l 0.04,0.06 c 0.01,0.01 0.02,0.03 0.02,0.05 0,0.03 -0.02,0.05 -0.04,0.06 0,0.01 -0.01,0.01 -0.02,0.02 -0.1,0.03 -0.2,0.04 -0.31,0.04 -0.77,0 -1.82,-0.61 -2.37,-1.39 -0.28,-0.4 -0.4,-0.75 -0.4,-1.03 0,-0.85 1.03,-1.25 2.26,-1.25 0.11,0 0.22,0 0.32,0.01 -0.3,-0.42 -0.59,-0.83 -0.86,-1.22 -0.36,-0.51 -0.85,-1.01 -1.37,-1.39 -0.48,0.11 -0.98,0.2 -1.55,0.2 l -0.06,0 0.02,-0.22 c 0.47,0 0.87,-0.09 1.25,-0.22 -0.45,-0.28 -0.9,-0.45 -1.29,-0.45 l 0,0 c -0.58,0 -0.94,0.02 -0.94,0.18 0,0.04 0.01,0.08 0.05,0.13 0.19,0.27 0.59,0.36 0.93,0.36 l -0.02,0.22 c -0.49,0 -1.1,-0.01 -1.43,-0.48 -0.07,-0.1 -0.11,-0.19 -0.11,-0.26 0,-0.36 0.8,-0.38 1.32,-0.38 l 0.16,0 c 0.55,0 1.2,0.19 1.83,0.5 l 0.12,-0.05 c 0.57,-0.23 1.14,-0.45 1.91,-0.45 0.82,0 1.93,0.71 2.49,1.52 0.01,0.02 0.02,0.03 0.02,0.05 z"
         style="fill:#ff0000;stroke-width:0"
         inkscape:connector-curvature="0" /><path
         id="path5505"
         d="m 236.07,714.03 0.01,0.01 0,0.01 0.01,0.01 0,0.01 0.01,0.01 0,0.01 0.01,0.01 0,0.01 0,0.01 0,0 0.01,0.01 0,0.01 0,0.01 0,0 0.01,0.01 0,0.01 0,0 0,0.01 0,0.01 0,0 0,0.01 0,0 0.01,0.01 0,0 0,0.01 0,0.01 0,0.01 0,0.01 c 0,0.22 -0.2,0.39 -0.41,0.39 -0.27,0 -0.35,-0.22 -0.39,-0.33 l -0.92,-3.02 c -0.01,-0.01 -0.03,-0.11 -0.03,-0.11 0,-0.09 0.21,-0.16 0.27,-0.16 0.05,0 0.05,0.02 0.1,0.12 z"
         style="fill:#ff0000;stroke-width:0"
         inkscape:connector-curvature="0" /></g>    <circle
       r="6.5527644"
       cy="536.23425"
       cx="639.68903"
       style="fill:#000000;fill-opacity:1;stroke:none"
       id="path3755-5-0" />
    <circle
       r="6.5527644"
       cy="662.01886"
       cx="639.04187"
       style="fill:#000000;fill-opacity:1;stroke:none"
       id="path3755-5-3" />
    <circle
       r="6.5527644"
       cy="595.53595"
       cx="574.87878"
       style="fill:#000000;fill-opacity:1;stroke:none"
       id="path3755-7" />
  </g>
</svg>
