<?xml version="1.0" encoding="UTF-8" standalone="no"?>
<!-- Created with Inkscape (http://www.inkscape.org/) -->

<svg
   version="1.1"
   id="svg2"
   width="904.03339"
   height="459.89453"
   viewBox="0 0 904.03339 459.89453"
   sodipodi:docname="glo_def_bh.svg"
   inkscape:version="1.2.2 (b0a8486541, 2022-12-01)"
   xmlns:inkscape="http://www.inkscape.org/namespaces/inkscape"
   xmlns:sodipodi="http://sodipodi.sourceforge.net/DTD/sodipodi-0.dtd"
   xmlns="http://www.w3.org/2000/svg"
   xmlns:svg="http://www.w3.org/2000/svg">
  <defs
     id="defs6" />
  <sodipodi:namedview
     id="namedview4"
     pagecolor="#ffffff"
     bordercolor="#000000"
     borderopacity="0.25"
     inkscape:showpageshadow="2"
     inkscape:pageopacity="0.0"
     inkscape:pagecheckerboard="0"
     inkscape:deskcolor="#d1d1d1"
     showgrid="false"
     inkscape:zoom="1.4636924"
     inkscape:cx="452.96404"
     inkscape:cy="230.23964"
     inkscape:window-width="1854"
     inkscape:window-height="1011"
     inkscape:window-x="0"
     inkscape:window-y="0"
     inkscape:window-maximized="1"
     inkscape:current-layer="g10">
    <inkscape:page
       x="0"
       y="0"
       id="page8"
       width="904.03339"
       height="459.89453" />
  </sodipodi:namedview>
  <g
     id="g10"
     inkscape:groupmode="layer"
     inkscape:label="Page 1"
     transform="matrix(1.3333333,0,0,-1.3333333,0,459.89453)">
    <path
       style="fill:#fff6d5;stroke:none;stroke-width:1.5"
       d="M 120.96864,2.0272909 C 227.06438,184.98432 374.90651,341.72102 443.16684,343.00138 500.95262,287.60452 606.91054,181.31104 679.43739,108.74224 678.68036,34.229935 678.7263,60.320424 678.77025,0.76291832 592.68082,0.98662693 120.96864,2.0272909 120.96864,2.0272909 Z"
       id="path1281"
       sodipodi:nodetypes="ccccc" />
    <g
       id="g12">
      <g
         id="g14"
         transform="matrix(1,0,0,-1,0,344.9209)">
        <path
           d="M 119.594,344.227 C 235.609,192.117 385.781,64.363 443.879,1.098 278.906,3.086 89.512,3.301 2.047,3.211 1.504,152 1.207,256.066 0.395,344.48 c 85.078,0.25 40.996,-1.113 119.199,-0.253 z"
           style="fill:#cccccc;fill-opacity:1;fill-rule:nonzero;stroke:#cccccc;stroke-width:0.8;stroke-linecap:butt;stroke-linejoin:miter;stroke-miterlimit:4;stroke-dasharray:none;stroke-opacity:1"
           id="path16" />
      </g>
      <g
         id="g18"
         transform="matrix(1,0,0,-1,0,344.9209)">
        <path
           d="M 119.426,343.508 C 273.758,154.883 446.066,1.188 446.066,1.188"
           style="fill:none;stroke:#000000;stroke-width:3.2;stroke-linecap:butt;stroke-linejoin:miter;stroke-miterlimit:4;stroke-dasharray:none;stroke-opacity:1"
           id="path20" />
      </g>
      <g
         id="g22"
         transform="matrix(1,0,0,-1,0,344.9209)">
        <path
           d="M 445.707,2.043 677.184,233.52"
           style="fill:#808000;fill-opacity:1;fill-rule:nonzero;stroke:#808000;stroke-width:2.4;stroke-linecap:butt;stroke-linejoin:miter;stroke-miterlimit:4;stroke-dasharray:none;stroke-opacity:1"
           id="path24" />
      </g>
      <path
         d="m 600.059,242.237 0.351,0.512 0.383,0.512 0.414,0.48 0.418,0.477 0.449,0.515 0.446,0.477 0.48,0.449 0.48,0.481 0.512,0.449 0.512,0.445 0.543,0.449 0.547,0.45 0.574,0.414 0.578,0.418 0.574,0.382 0.578,0.383 c 0.063,0.035 0.094,0.129 0.094,0.227 l -0.031,0.254 c -0.031,0.031 -0.031,0.066 -0.031,0.097 -0.032,0.129 -0.16,0.192 -0.258,0.192 -0.031,0 -0.063,0 -0.094,-0.031 -5.762,-2.368 -11.906,-2.145 -15.363,-7.04 -1.117,-1.57 -1.695,-3.136 -1.695,-4.48 0,-0.512 0.097,-0.992 0.257,-1.41 0.45,-1.121 1.438,-1.856 2.75,-2.238 l 0.45,0.703 c -0.993,0.32 -1.665,0.961 -1.887,1.793 -0.067,0.222 -0.098,0.48 -0.098,0.734 0,1.281 0.703,2.914 1.922,4.578 2.078,3.008 5.824,4.094 9.535,5.246 0.414,0.129 0.832,0.258 1.215,0.383 -2.527,-1.695 -4.734,-3.773 -6.305,-5.98 -1.597,-2.243 -2.91,-4.516 -4.382,-6.754 l -0.45,-0.703 -0.543,-0.77 c -2.398,-3.359 -6.144,-6.656 -8.992,-6.656 -2.207,0 -3.742,0.578 -3.742,1.855 0,0.289 0.062,0.641 0.254,0.992 0.191,-0.32 0.543,-0.48 0.93,-0.48 0.8,0 1.757,0.641 1.757,1.25 0,0.77 -0.48,1.086 -1.054,1.086 -0.641,0 -1.407,-0.383 -1.793,-0.926 -0.543,-0.801 -0.801,-1.473 -0.801,-2.047 0,-1.664 2.019,-2.433 4.32,-2.433 3.875,0 9.313,3.07 11.84,7.039 l 0.578,0.898 c 0.895,0.125 1.918,0.445 2.946,1.024 1.183,0.64 2.269,1.535 2.972,2.527 0.93,1.312 1.153,2.496 1.153,3.551 0,0.351 -0.032,0.738 -0.063,1.09 -0.031,0.128 -0.129,0.222 -0.258,0.222 h -0.062 c -0.098,0 -0.192,-0.062 -0.289,-0.094 -0.094,-0.066 -0.16,-0.16 -0.16,-0.289 0.035,-0.257 0.066,-0.511 0.066,-0.769 0,-0.992 -0.289,-2.145 -1.184,-3.391 -0.609,-0.863 -1.504,-1.73 -2.562,-2.304 -0.735,-0.414 -1.473,-0.672 -2.145,-0.801 1.219,2.207 1.762,4.351 3.364,6.562 z"
         style="fill:#808000;fill-opacity:1;fill-rule:nonzero;stroke:none"
         id="path26" />
      <path
         d="m 619.93,244.093 h 6.816 c 0.285,0 0.832,0 0.832,0.543 0,0.543 -0.512,0.543 -0.832,0.543 h -6.816 v 6.847 c 0,0.289 0,0.801 -0.547,0.801 -0.543,0 -0.543,-0.512 -0.543,-0.801 v -6.847 h -6.848 c -0.289,0 -0.832,0 -0.832,-0.543 0,-0.543 0.512,-0.543 0.832,-0.543 h 6.848 v -6.817 c 0,-0.289 0,-0.832 0.512,-0.832 0.578,0 0.578,0.512 0.578,0.832 z"
         style="fill:#808000;fill-opacity:1;fill-rule:nonzero;stroke:none"
         id="path28" />
      <path
         d="m 373.105,99.401 v 0.094 l 0.032,0.098 0.031,0.094 v 0.097 l 0.035,0.063 0.031,0.066 v 0.094 l 0.032,0.066 0.062,0.125 0.035,0.035 0.063,0.125 0.031,0.036 0.066,0.031 0.032,0.062 0.062,0.032 0.067,0.035 0.125,0.062 h 0.066 l 0.063,0.031 0.097,0.032 h 0.094 l 0.066,0.031 h 0.254 l 0.067,0.035 h 0.636 c 0.512,0 0.868,0 0.868,0.606 0,0.289 -0.196,0.386 -0.45,0.386 -0.8,0 -2.718,-0.097 -3.519,-0.097 -1.059,0 -3.649,0.097 -4.707,0.097 -0.285,0 -0.637,0 -0.637,-0.64 0,-0.352 0.223,-0.352 1.055,-0.352 0.734,0 1.054,0 1.855,-0.066 0.77,-0.094 0.992,-0.192 0.992,-0.641 0,-0.191 -0.062,-0.414 -0.129,-0.672 l -3.679,-14.59 c -0.735,-3.074 -2.91,-4.769 -4.574,-4.769 -0.832,0 -2.497,0.32 -3.008,1.984 0.093,-0.031 0.32,-0.031 0.383,-0.031 1.214,0 2.046,1.09 2.046,2.047 0,0.992 -0.863,1.312 -1.406,1.312 -0.543,0 -2.113,-0.382 -2.113,-2.527 0,-1.984 1.695,-3.457 4.191,-3.457 2.946,0 6.242,2.082 7.043,5.25 z"
         style="fill:#000000;fill-opacity:1;fill-rule:nonzero;stroke:none"
         id="path30" />
      <path
         d="m 393.203,96.616 h 0.32 l 0.032,0.031 h 0.16 l 0.031,0.032 h 0.031 l 0.032,0.031 h 0.031 l 0.035,0.035 h 0.031 v 0.031 l 0.032,0.032 h 0.031 v 0.031 H 394 v 0.031 l 0.035,0.035 v 0.032 l 0.031,0.031 v 0.16 l 0.032,0.031 c 0,0.543 -0.543,0.543 -0.895,0.543 h -13.281 c -0.383,0 -0.895,0 -0.895,-0.543 0,-0.543 0.512,-0.543 0.895,-0.543 z"
         style="fill:#000000;fill-opacity:1;fill-rule:nonzero;stroke:none"
         id="path32" />
      <path
         d="m 408.656,72.394 v 0.093 l -0.031,0.032 v 0.035 l -0.063,0.062 v 0.031 h -0.031 v 0.032 l -0.035,0.031 h -0.031 v 0.035 l -0.094,0.094 -0.035,0.031 v 0.035 h -0.031 l -0.032,0.032 v 0.031 h -0.031 l -0.031,0.031 v 0.031 h -0.035 l -0.031,0.035 -0.032,0.032 c -3.968,4 -4.992,10.015 -4.992,14.879 0,5.535 1.215,11.074 5.121,15.039 0.414,0.386 0.414,0.449 0.414,0.547 0,0.222 -0.125,0.316 -0.32,0.316 -0.316,0 -3.168,-2.176 -5.055,-6.207 -1.633,-3.488 -2.015,-7.039 -2.015,-9.695 0,-2.497 0.351,-6.336 2.113,-9.918 1.918,-3.907 4.641,-5.985 4.957,-5.985 0.195,0 0.32,0.094 0.32,0.321 z"
         style="fill:#000000;fill-opacity:1;fill-rule:nonzero;stroke:none"
         id="path34" />
      <path
         d="m 432.883,94.761 0.351,0.511 0.383,0.512 0.418,0.481 0.414,0.48 0.449,0.512 0.446,0.48 0.48,0.446 0.481,0.48 0.511,0.449 0.547,0.45 0.512,0.445 0.543,0.449 0.574,0.414 0.578,0.418 0.575,0.383 0.609,0.387 c 0.062,0.031 0.098,0.125 0.098,0.222 l -0.036,0.254 c -0.031,0.035 -0.031,0.067 -0.031,0.098 -0.031,0.129 -0.16,0.191 -0.254,0.191 -0.035,0 -0.066,0 -0.097,-0.031 -5.762,-2.367 -11.938,-2.145 -15.391,-7.039 -1.121,-1.57 -1.699,-3.137 -1.699,-4.481 0,-0.511 0.097,-0.992 0.258,-1.41 0.449,-1.117 1.441,-1.855 2.753,-2.238 l 0.446,0.703 c -0.992,0.32 -1.664,0.961 -1.887,1.793 -0.062,0.223 -0.098,0.481 -0.098,0.734 0,1.282 0.707,2.915 1.922,4.579 2.114,3.007 5.824,4.093 9.535,5.246 0.418,0.129 0.832,0.258 1.215,0.386 -2.527,-1.699 -4.734,-3.777 -6.3,-5.984 -1.602,-2.242 -2.883,-4.512 -4.387,-6.754 l -0.446,-0.703 -0.546,-0.77 c -2.399,-3.359 -6.145,-6.656 -8.993,-6.656 -2.175,0 -3.742,0.578 -3.742,1.86 0,0.285 0.063,0.636 0.254,0.992 0.195,-0.321 0.547,-0.481 0.93,-0.481 0.832,0 1.793,0.637 1.793,1.246 0,0.77 -0.481,1.09 -1.059,1.09 -0.672,0 -1.437,-0.386 -1.824,-0.929 -0.543,-0.801 -0.797,-1.473 -0.797,-2.047 0,-1.664 2.016,-2.434 4.32,-2.434 3.871,0 9.309,3.074 11.871,7.039 l 0.543,0.899 c 0.895,0.129 1.922,0.445 2.946,1.023 1.183,0.641 2.304,1.535 3.008,2.527 0.894,1.313 1.117,2.496 1.117,3.551 0,0.356 -0.031,0.738 -0.063,1.09 -0.031,0.129 -0.129,0.223 -0.254,0.223 h -0.066 c -0.094,0 -0.191,-0.063 -0.289,-0.094 -0.094,-0.066 -0.16,-0.16 -0.16,-0.289 0.035,-0.258 0.066,-0.512 0.066,-0.77 0,-0.992 -0.258,-2.14 -1.152,-3.39 -0.61,-0.864 -1.535,-1.727 -2.594,-2.305 -0.734,-0.414 -1.469,-0.672 -2.141,-0.801 1.215,2.211 1.758,4.356 3.36,6.563 z"
         style="fill:#000000;fill-opacity:1;fill-rule:nonzero;stroke:none"
         id="path36" />
      <path
         d="m 452.754,96.616 h 6.816 c 0.289,0 0.832,0 0.832,0.543 0,0.543 -0.511,0.543 -0.832,0.543 h -6.816 v 6.852 c 0,0.285 0,0.797 -0.543,0.797 -0.547,0 -0.547,-0.512 -0.547,-0.797 v -6.852 h -6.848 c -0.285,0 -0.832,0 -0.832,-0.543 0,-0.543 0.512,-0.543 0.832,-0.543 h 6.848 V 89.8 c 0,-0.289 0,-0.832 0.547,-0.832 0.543,0 0.543,0.511 0.543,0.832 z"
         style="fill:#000000;fill-opacity:1;fill-rule:nonzero;stroke:none"
         id="path38" />
      <path
         d="m 472.816,87.976 -0.031,0.222 v 0.77 l -0.031,0.543 -0.031,0.547 -0.067,0.574 -0.062,0.609 -0.098,0.637 -0.094,0.641 -0.129,0.64 -0.128,0.672 -0.383,1.344 -0.223,0.672 -0.258,0.672 -0.129,0.351 -0.125,0.356 -0.16,0.316 -0.16,0.355 c -1.922,3.903 -4.641,5.981 -4.961,5.981 -0.191,0 -0.32,-0.125 -0.32,-0.316 0,-0.098 0,-0.161 0.609,-0.739 3.102,-3.168 4.926,-8.222 4.926,-14.847 0,-5.442 -1.184,-11.039 -5.121,-15.039 -0.414,-0.383 -0.414,-0.45 -0.414,-0.543 0,-0.196 0.129,-0.321 0.32,-0.321 0.32,0 3.168,2.176 5.055,6.207 1.633,3.489 2.015,7.008 2.015,9.696 z"
         style="fill:#000000;fill-opacity:1;fill-rule:nonzero;stroke:none"
         id="path40" />
      <path
         d="m 150.484,210.745 h -0.418 l -0.445,-0.031 -0.418,-0.035 -0.445,-0.063 -0.481,-0.062 -0.449,-0.067 -0.48,-0.093 -0.45,-0.129 -0.476,-0.129 -0.481,-0.16 -0.511,-0.161 -0.481,-0.16 -0.511,-0.191 -0.481,-0.223 -0.512,-0.226 -0.511,-0.254 c -2.305,-1.184 -4.579,-2.879 -5.954,-4.801 -1.089,-1.504 -1.761,-3.07 -1.761,-4.383 0,-0.226 0.035,-0.418 0.066,-0.609 0.223,-1.375 1.313,-2.176 3.039,-2.176 1.121,0 2.465,0.352 3.742,0.992 1.219,0.641 2.336,1.535 3.043,2.528 1.278,1.792 1.789,3.457 1.789,4.929 0,0.289 -0.062,0.574 -0.062,0.863 0,0.161 -0.16,0.258 -0.289,0.258 -0.094,-0.035 -0.192,-0.066 -0.285,-0.129 -0.098,-0.031 -0.16,-0.129 -0.16,-0.226 v -0.254 c 0,-1.344 -1.282,-3.199 -2.657,-5.121 -0.578,-0.832 -1.312,-1.664 -2.273,-2.27 -0.961,-0.609 -1.953,-0.867 -2.719,-0.867 -1.441,0 -2.242,0.641 -2.367,1.664 -0.035,0.129 -0.035,0.258 -0.035,0.387 0,1.152 0.64,2.59 1.73,4.094 1.246,1.793 3.293,3.457 5.535,4.543 2.528,1.281 4.993,1.859 7.039,1.859 2.403,0 4.418,-0.352 5.856,-1.25 -5.184,-3.809 -8.863,-8.992 -12.223,-13.727 -2.336,-3.296 -5.695,-6.593 -8.383,-6.593 -2.175,0 -3.808,0.578 -3.808,1.855 0,0.289 0.094,0.578 0.254,0.93 0.191,-0.32 0.547,-0.481 0.929,-0.481 0.832,0 1.758,0.641 1.758,1.25 0,0.766 -0.445,1.086 -1.023,1.086 -0.672,0 -1.438,-0.383 -1.824,-0.929 -0.543,-0.766 -0.766,-1.407 -0.766,-1.981 0,-1.664 2.047,-2.402 4.352,-2.402 3.679,0 8.64,3.265 11.261,6.945 0.672,0.992 1.41,2.047 2.211,3.137 0.446,-0.16 0.957,-0.192 1.473,-0.192 l 0.125,0.672 c -0.16,0 -0.285,0 -0.352,0.032 0.067,0.093 0.16,0.191 0.258,0.351 0.254,0.383 0.383,0.512 0.383,0.512 0.289,0.16 0.574,0.191 0.863,0.191 l 0.129,0.703 c -0.418,0 -0.832,-0.031 -1.281,-0.093 2.273,3.07 4.609,6.109 6.527,8.031 0.547,-0.543 0.867,-1.25 0.867,-2.113 0,-0.895 -0.351,-1.95 -1.183,-3.102 -0.738,-1.059 -1.602,-2.113 -2.754,-3.008 -0.609,0.192 -1.375,0.285 -2.176,0.285 l -0.129,-0.703 c 0.543,0 1.059,-0.062 1.473,-0.16 -0.895,-0.574 -1.887,-0.926 -2.625,-0.926 l -0.125,-0.672 c 1.148,0 2.527,0.414 3.84,1.149 0.511,-0.285 0.863,-0.735 1.054,-1.246 0.063,-0.223 0.129,-0.481 0.129,-0.77 0,-1.086 -0.578,-2.527 -1.633,-3.965 -0.769,-1.058 -1.601,-2.144 -2.785,-3.011 -1.023,-0.735 -2.109,-1.184 -2.941,-1.184 -1.059,0 -1.699,0.387 -1.859,1.059 -0.032,0.125 -0.063,0.285 -0.063,0.445 0,0.641 0.32,1.473 0.93,2.371 0.414,0.606 1.183,1.086 1.949,1.438 0.992,0.418 1.922,0.578 2.723,0.578 0.093,0 0.16,0.031 0.222,0.093 l 0.129,0.192 c 0.031,0.035 0.031,0.098 0.031,0.16 0,0.129 -0.128,0.258 -0.257,0.258 -0.926,0 -1.985,-0.192 -3.102,-0.703 -0.863,-0.387 -1.762,-0.992 -2.273,-1.696 -0.672,-0.961 -1.055,-1.953 -1.055,-2.785 0,-0.226 0,-0.418 0.062,-0.609 0.289,-0.992 1.215,-1.473 2.434,-1.473 1.184,0 2.656,0.481 4.031,1.313 1.407,0.863 2.625,2.047 3.489,3.234 0.961,1.344 1.472,2.688 1.472,3.84 0,0.543 -0.129,1.086 -0.351,1.535 -0.289,0.606 -0.801,1.121 -1.442,1.504 1.313,0.895 2.465,1.984 3.297,3.102 0.766,1.152 1.117,2.21 1.117,3.136 0,1.09 -0.414,2.016 -1.148,2.723 -0.16,0.16 -0.32,0.32 -0.516,0.48 0.418,0.383 0.832,0.672 1.188,0.895 0.062,0.062 0.094,0.129 0.094,0.223 l -0.032,0.32 c -0.031,0.129 -0.16,0.191 -0.289,0.191 -0.031,0 -0.094,0 -0.129,-0.031 l -1.664,-1.055 c -1.726,0.993 -4.031,1.344 -6.59,1.344 z"
         style="fill:#000000;fill-opacity:1;fill-rule:nonzero;stroke:none"
         id="path42" />
      <path
         d="m 185.676,29.8 h -0.035 v 0.097 l -0.032,0.032 v 0.031 h -0.031 v 0.035 h -0.062 v 0.031 h -0.45 c -0.097,0 -0.191,0 -0.222,-0.066 -1.504,-2.109 -3.52,-4.191 -5.09,-4.191 -1.281,0 -1.824,0.609 -1.824,1.632 0,1.536 1.281,4 3.136,6.688 0.77,1.09 1.536,2.144 2.336,3.234 4.258,0.254 8.512,1.184 10.879,4.543 0.992,1.406 1.571,2.817 1.571,3.934 0,1.219 -0.672,2.051 -2.274,2.051 l -0.129,-0.707 c 1.059,0 1.571,-0.543 1.571,-1.438 0,-0.898 -0.547,-2.113 -1.54,-3.519 -2.046,-2.883 -5.66,-3.809 -9.535,-4.129 3.52,4.8 7.137,9.086 9.504,9.086 l 0.129,0.707 c -4.512,0 -8.863,-4.801 -12.672,-9.922 h -4.062 c 2.367,3.168 4.765,6.367 7.261,9.504 0.067,0.097 0.067,0.16 0.067,0.257 l -0.098,0.254 c -0.031,0.098 -0.129,0.192 -0.254,0.192 -0.066,0 -0.129,-0.032 -0.195,-0.094 -1.598,-1.535 -3.168,-3.074 -4.863,-4.738 -1.184,-1.664 -3.617,-2.813 -5.407,-2.813 -0.351,0 -0.609,0.192 -0.609,0.512 0,0.223 0.129,0.512 0.352,0.863 0.449,0.672 0.672,1.278 0.672,1.793 0,1.024 -0.832,1.695 -2.239,1.695 -1.664,0 -3.394,-2.05 -4.578,-3.746 v -0.129 c 0,-0.156 0.067,-0.285 0.258,-0.285 h 0.32 c 0.094,0 0.16,0.063 0.223,0.129 1.215,1.727 2.434,3.324 3.648,3.324 0.512,0 0.801,-0.253 0.801,-0.703 0,-0.445 -0.258,-1.023 -0.769,-1.757 -0.289,-0.418 -0.414,-0.77 -0.414,-1.09 0,-0.895 1.085,-1.282 2.238,-1.282 0.93,0 2.047,0.227 3.105,0.707 -0.801,-0.898 -1.601,-1.824 -2.367,-2.753 -3.648,-0.352 -7.234,-1.407 -9.41,-4.481 l -0.031,-0.16 c 0,-0.125 0.093,-0.254 0.254,-0.254 h 0.355 c 0.094,0 0.191,0.031 0.223,0.094 1.824,2.594 4.801,3.617 7.968,4 -1.25,-1.598 -2.496,-3.168 -3.648,-4.797 -2.367,-3.363 -5.281,-6.848 -7.969,-6.848 -2.113,0 -3.648,0.637 -3.648,1.949 0,0.321 0.098,0.672 0.289,1.09 0.223,-0.32 0.574,-0.48 0.961,-0.48 0.832,0 1.758,0.64 1.758,1.246 0,0.769 -0.481,1.09 -1.024,1.09 -0.672,0 -1.441,-0.383 -1.824,-0.93 -0.574,-0.832 -0.832,-1.535 -0.832,-2.144 0,-1.665 1.887,-2.497 4.191,-2.497 3.555,0 8.227,3.524 10.848,7.204 1.25,1.789 2.531,3.55 3.84,5.343 0.738,0.032 1.473,0.032 2.211,0.032 h 1.887 c -0.672,-0.961 -1.375,-1.922 -2.016,-2.817 -1.57,-2.207 -2.434,-4.383 -2.434,-6.078 0,-1.953 1.121,-3.234 3.68,-3.234 2.016,0 4.449,2.367 5.984,4.543 0.067,0.066 0.067,0.097 0.067,0.16 z"
         style="fill:#000000;fill-opacity:1;fill-rule:nonzero;stroke:none"
         id="path44" />
      <g
         id="g46"
         transform="matrix(1,0,0,-1,0,344.9209)">
        <path
           d="m 506.543,241.043 c 24.785,-39.746 41.023,-58.734 80.414,-96.789"
           style="fill:none;stroke:#008000;stroke-width:1.6;stroke-linecap:butt;stroke-linejoin:miter;stroke-miterlimit:4;stroke-dasharray:none;stroke-opacity:1"
           id="path48" />
      </g>
      <g
         id="g50"
         transform="matrix(-1,-0.966126,-0.966126,1,0,344.9209)">
        <path
           d="m -219.997,-367.915 4.604,-4.604 -16.111,4.603 16.111,4.604 z"
           style="fill:#008000;fill-opacity:1;fill-rule:evenodd;stroke:#008000;stroke-width:1.15069;stroke-linecap:butt;stroke-linejoin:miter;stroke-miterlimit:4;stroke-dasharray:none;stroke-opacity:1"
           id="path52" />
      </g>
      <g
         id="g54"
         transform="matrix(1,0,0,-1,0,344.9209)">
        <path
           d="M 355.324,187.742 C 396.262,129.293 432.203,94.789 485.406,44.992"
           style="fill:none;stroke:#008000;stroke-width:1.6;stroke-linecap:butt;stroke-linejoin:miter;stroke-miterlimit:4;stroke-dasharray:none;stroke-opacity:1"
           id="path56" />
      </g>
      <g
         id="g58"
         transform="matrix(-1,-0.935969,-0.935969,1,0,344.9209)">
        <path
           d="m -224.611,-266.154 4.672,-4.674 -16.354,4.673 16.353,4.673 z"
           style="fill:#008000;fill-opacity:1;fill-rule:evenodd;stroke:#008000;stroke-width:1.16815;stroke-linecap:butt;stroke-linejoin:miter;stroke-miterlimit:4;stroke-dasharray:none;stroke-opacity:1"
           id="path60" />
      </g>
      <g
         id="g62"
         transform="matrix(1,0,0,-1,0,344.9209)">
        <path
           d="m 435.789,212.145 c 26.168,-41.125 61.75,-80.149 98.375,-118.204"
           style="fill:none;stroke:#008000;stroke-width:1.6;stroke-linecap:butt;stroke-linejoin:miter;stroke-miterlimit:4;stroke-dasharray:none;stroke-opacity:1"
           id="path64" />
      </g>
      <g
         id="g66"
         transform="matrix(-0.962445,-1,-1,0.962445,0,344.9209)">
        <path
           d="m -206.592,-324.237 4.613,-4.611 -16.14,4.611 16.141,4.611 z"
           style="fill:#008000;fill-opacity:1;fill-rule:evenodd;stroke:#008000;stroke-width:1.15281;stroke-linecap:butt;stroke-linejoin:miter;stroke-miterlimit:4;stroke-dasharray:none;stroke-opacity:1"
           id="path68" />
      </g>
    </g>
  </g>
</svg>
