<?xml version="1.0" encoding="UTF-8" standalone="no"?>
<!-- Created with Inkscape (http://www.inkscape.org/) -->

<svg
   xmlns:ns0="http://www.iki.fi/pav/software/textext/"
   xmlns:dc="http://purl.org/dc/elements/1.1/"
   xmlns:cc="http://creativecommons.org/ns#"
   xmlns:rdf="http://www.w3.org/1999/02/22-rdf-syntax-ns#"
   xmlns:svg="http://www.w3.org/2000/svg"
   xmlns="http://www.w3.org/2000/svg"
   xmlns:sodipodi="http://sodipodi.sourceforge.net/DTD/sodipodi-0.dtd"
   xmlns:inkscape="http://www.inkscape.org/namespaces/inkscape"
   width="1052.3622"
   height="744.09448"
   id="svg2"
   version="1.1"
   inkscape:version="0.91 r13725"
   sodipodi:docname="glo_q_in_H.svg">
  <sodipodi:namedview
     id="base"
     pagecolor="#ffffff"
     bordercolor="#666666"
     borderopacity="1.0"
     inkscape:pageopacity="0.0"
     inkscape:pageshadow="2"
     inkscape:zoom="1.7726975"
     inkscape:cx="386.07277"
     inkscape:cy="357.2685"
     inkscape:document-units="px"
     inkscape:current-layer="layer1"
     showgrid="false"
     inkscape:window-width="1855"
     inkscape:window-height="1056"
     inkscape:window-x="65"
     inkscape:window-y="24"
     inkscape:window-maximized="1" />
  <defs
     id="defs4">
    <marker
       inkscape:stockid="Arrow2Mend"
       orient="auto"
       refY="0.0"
       refX="0.0"
       id="marker5192"
       style="overflow:visible;"
       inkscape:isstock="true">
      <path
         id="path5194"
         style="fill-rule:evenodd;stroke-width:0.625;stroke-linejoin:round;stroke:#ff0000;stroke-opacity:1;fill:#ff0000;fill-opacity:1"
         d="M 8.7185878,4.0337352 L -2.2072895,0.016013256 L 8.7185884,-4.0017078 C 6.9730900,-1.6296469 6.9831476,1.6157441 8.7185878,4.0337352 z "
         transform="scale(0.6) rotate(180) translate(0,0)" />
    </marker>
    <marker
       inkscape:collect="always"
       inkscape:isstock="true"
       style="overflow:visible;"
       id="Arrow2Mend"
       refX="0.0"
       refY="0.0"
       orient="auto"
       inkscape:stockid="Arrow2Mend">
      <path
         transform="scale(0.6) rotate(180) translate(0,0)"
         d="M 8.7185878,4.0337352 L -2.2072895,0.016013256 L 8.7185884,-4.0017078 C 6.9730900,-1.6296469 6.9831476,1.6157441 8.7185878,4.0337352 z "
         style="fill-rule:evenodd;stroke-width:0.625;stroke-linejoin:round;stroke:#ff0000;stroke-opacity:1;fill:#ff0000;fill-opacity:1"
         id="path4254" />
    </marker>
    <marker
       inkscape:stockid="Arrow1Lend"
       orient="auto"
       refY="0.0"
       refX="0.0"
       id="Arrow1Lend"
       style="overflow:visible;">
      <path
         id="path3874"
         d="M 0.0,0.0 L 5.0,-5.0 L -12.5,0.0 L 5.0,5.0 L 0.0,0.0 z "
         style="fill-rule:evenodd;stroke:#000000;stroke-width:1.0pt;"
         transform="scale(0.8) rotate(180) translate(12.5,0)" />
    </marker>
    <marker
       inkscape:stockid="Arrow1Lendi"
       orient="auto"
       refY="0.0"
       refX="0.0"
       id="Arrow1Lendi"
       style="overflow:visible;">
      <path
         id="path4316"
         d="M 0.0,0.0 L 5.0,-5.0 L -12.5,0.0 L 5.0,5.0 L 0.0,0.0 z "
         style="stroke:#ff0000;stroke-width:1.0pt;fill:#ff0000;fill-rule:evenodd"
         transform="scale(0.8) rotate(180) translate(12.5,0)" />
    </marker>
    <marker
       inkscape:stockid="Arrow2Mend"
       orient="auto"
       refY="0"
       refX="0"
       id="marker5192-3"
       style="overflow:visible"
       inkscape:isstock="true">
      <path
         id="path5194-5"
         style="fill:#ff0000;fill-opacity:1;fill-rule:evenodd;stroke:#ff0000;stroke-width:0.625;stroke-linejoin:round;stroke-opacity:1"
         d="M 8.7185878,4.0337352 -2.2072895,0.01601326 8.7185884,-4.0017078 c -1.7454984,2.3720609 -1.7354408,5.6174519 -6e-7,8.035443 z"
         transform="scale(-0.6,-0.6)"
         inkscape:connector-curvature="0" />
    </marker>
  </defs>
  <metadata
     id="metadata7">
    <rdf:RDF>
      <cc:Work
         rdf:about="">
        <dc:format>image/svg+xml</dc:format>
        <dc:type
           rdf:resource="http://purl.org/dc/dcmitype/StillImage" />
        <dc:title />
      </cc:Work>
    </rdf:RDF>
  </metadata>
  <g
     inkscape:label="Calque 1"
     inkscape:groupmode="layer"
     id="layer1"
     transform="translate(0,-308.2677)">
    <path
       style="fill:#cccccc;stroke:#cccccc;stroke-width:1px;stroke-linecap:butt;stroke-linejoin:miter;stroke-opacity:1"
       d="M 251.36749,610.8912 C 396.3872,420.75425 460.64294,274.60138 479.10214,184.36689 c -206.21592,2.48791 -266.92968,1.9613 -374.66702,0.2564 -0.67932,185.98595 -1.0536,316.06678 -2.06887,426.58324 106.34778,0.31535 51.24722,-1.38955 149.00124,-0.31533 z"
       id="path4554"
       inkscape:connector-curvature="0"
       transform="translate(0,308.2677)"
       sodipodi:nodetypes="ccccc" />
    <path
       style="fill:none;stroke:#000000;stroke-width:4;stroke-linecap:butt;stroke-linejoin:miter;stroke-miterlimit:4;stroke-opacity:1;stroke-dasharray:none"
       d="M 249.56523,921.44642 C 442.47861,685.66339 480.24473,492.75001 480.24473,492.75001"
       id="path3757"
       inkscape:connector-curvature="0" />
    <path
       style="fill:none;stroke:#ff0000;stroke-width:3;stroke-linecap:butt;stroke-linejoin:miter;stroke-miterlimit:4;stroke-dasharray:none;stroke-opacity:1"
       d="m 324.93266,823.25735 c 38.3049,-43.00788 70.85892,-90.35685 132.2832,-134.0669"
       id="path3777"
       inkscape:connector-curvature="0"
       sodipodi:nodetypes="cc" />
    <path
       sodipodi:type="arc"
       style="fill:none;stroke:#782121;stroke-width:1.36662401999999994;stroke-miterlimit:4;stroke-opacity:1;stroke-dasharray:none;stroke-dashoffset:0"
       id="path3779"
       sodipodi:cx="305.26682"
       sodipodi:cy="350.00125"
       sodipodi:rx="31.681423"
       sodipodi:ry="31.681423"
       d="m 336.94824,350.00125 a 31.681423,31.681423 0 0 1 -31.68142,31.68142 31.681423,31.681423 0 0 1 -31.68143,-31.68142 31.681423,31.681423 0 0 1 31.68143,-31.68142 31.681423,31.681423 0 0 1 31.68142,31.68142 z"
       transform="matrix(1.4634603,0,0,1.4634603,-129.55755,303.89223)" />
    <circle
       r="58.767944"
       cy="677.48761"
       cx="491.14978"
       style="fill:none;stroke:#782121;stroke-width:2;stroke-miterlimit:4;stroke-dasharray:none;stroke-dashoffset:0;stroke-opacity:1"
       id="path3779-1" />
    <path
       style="fill:none;stroke:#ff0000;stroke-width:3;stroke-linecap:butt;stroke-linejoin:miter;stroke-miterlimit:4;stroke-dasharray:9, 3;stroke-dashoffset:0;stroke-opacity:1;marker-end:url(#marker5192)"
       d="M 324.37488,822.09292 C 435.70494,692.35086 535.35288,541.10716 657.22949,467.09057"
       id="path3777-2"
       inkscape:connector-curvature="0"
       sodipodi:nodetypes="cc" />
    <path
       inkscape:connector-curvature="0"
       id="path4346"
       d="M 622.90632,422.93821 865.43806,665.46996"
       style="fill:#008000;stroke:#008000;stroke-width:1.67641318;stroke-linecap:butt;stroke-linejoin:miter;stroke-miterlimit:4;stroke-dasharray:20.11695826, 20.11695826;stroke-dashoffset:0;stroke-opacity:1" />
    <g
       ns0:preamble="/home/eric/BHLectures/Notes/latex_inkscape.ini"
       ns0:text="$\\mathscr{I}^+$"
       word-spacing="normal"
       letter-spacing="normal"
       font-size-adjust="none"
       font-stretch="normal"
       font-weight="normal"
       font-variant="normal"
       font-style="normal"
       stroke-miterlimit="10.433"
       xml:space="preserve"
       transform="matrix(4,0,0,-4,-143.6684,3358.5327)"
       id="content"
       style="font-style:normal;font-variant:normal;font-weight:normal;font-stretch:normal;letter-spacing:normal;word-spacing:normal;text-anchor:start;fill:#008000;stroke:#000000;stroke-linecap:butt;stroke-linejoin:miter;stroke-miterlimit:10.43299961;stroke-dasharray:none;stroke-dashoffset:0;stroke-opacity:1"><path
         id="path4387"
         d="m 230.42,711.73 0.11,0.16 0.12,0.16 0.13,0.15 0.13,0.15 0.14,0.16 0.14,0.15 0.15,0.14 0.15,0.15 0.16,0.14 0.16,0.14 0.17,0.14 0.17,0.14 0.18,0.13 0.18,0.13 0.18,0.12 0.18,0.12 c 0.02,0.01 0.03,0.04 0.03,0.07 l -0.01,0.08 c -0.01,0.01 -0.01,0.02 -0.01,0.03 -0.01,0.04 -0.05,0.06 -0.08,0.06 -0.01,0 -0.02,0 -0.03,-0.01 -1.8,-0.74 -3.72,-0.67 -4.8,-2.2 -0.35,-0.49 -0.53,-0.98 -0.53,-1.4 0,-0.16 0.03,-0.31 0.08,-0.44 0.14,-0.35 0.45,-0.58 0.86,-0.7 l 0.14,0.22 c -0.31,0.1 -0.52,0.3 -0.59,0.56 -0.02,0.07 -0.03,0.15 -0.03,0.23 0,0.4 0.22,0.91 0.6,1.43 0.65,0.94 1.82,1.28 2.98,1.64 0.13,0.04 0.26,0.08 0.38,0.12 -0.79,-0.53 -1.48,-1.18 -1.97,-1.87 l 0,0 c -0.5,-0.7 -0.91,-1.41 -1.37,-2.11 l -0.14,-0.22 -0.17,-0.24 c -0.75,-1.05 -1.92,-2.08 -2.81,-2.08 -0.69,0 -1.17,0.18 -1.17,0.58 0,0.09 0.02,0.2 0.08,0.31 0.06,-0.1 0.17,-0.15 0.29,-0.15 0.25,0 0.55,0.2 0.55,0.39 0,0.24 -0.15,0.34 -0.33,0.34 -0.2,0 -0.44,-0.12 -0.56,-0.29 -0.17,-0.25 -0.25,-0.46 -0.25,-0.64 0,-0.52 0.63,-0.76 1.35,-0.76 1.21,0 2.91,0.96 3.7,2.2 l 0.18,0.28 c 0.28,0.04 0.6,0.14 0.92,0.32 0.37,0.2 0.71,0.48 0.93,0.79 0.29,0.41 0.36,0.78 0.36,1.11 0,0.11 -0.01,0.23 -0.02,0.34 -0.01,0.04 -0.04,0.07 -0.08,0.07 l -0.02,0 c -0.03,0 -0.06,-0.02 -0.09,-0.03 -0.03,-0.02 -0.05,-0.05 -0.05,-0.09 0.01,-0.08 0.02,-0.16 0.02,-0.24 0,-0.31 -0.09,-0.67 -0.37,-1.06 -0.19,-0.27 -0.47,-0.54 -0.8,-0.72 -0.23,-0.13 -0.46,-0.21 -0.67,-0.25 0.38,0.69 0.55,1.36 1.05,2.05 z"
         inkscape:connector-curvature="0"
         style="fill:#008000;stroke-width:0" /><path
         id="path4389"
         d="m 236.63,712.31 2.13,0 c 0.09,0 0.26,0 0.26,0.17 0,0.17 -0.16,0.17 -0.26,0.17 l -2.13,0 0,2.14 c 0,0.09 0,0.25 -0.17,0.25 -0.17,0 -0.17,-0.16 -0.17,-0.25 l 0,-2.14 -2.14,0 c -0.09,0 -0.26,0 -0.26,-0.17 0,-0.17 0.16,-0.17 0.26,-0.17 l 2.14,0 0,-2.13 c 0,-0.09 0,-0.26 0.16,-0.26 0.18,0 0.18,0.16 0.18,0.26 z"
         inkscape:connector-curvature="0"
         style="fill:#008000;stroke-width:0" /></g>    <g
       style="font-style:normal;font-variant:normal;font-weight:normal;font-stretch:normal;letter-spacing:normal;word-spacing:normal;text-anchor:start;fill:none;stroke:#000000;stroke-linecap:butt;stroke-linejoin:miter;stroke-miterlimit:10.43299961;stroke-dasharray:none;stroke-dashoffset:0;stroke-opacity:1"
       id="g4433"
       transform="matrix(4,0,0,-4,-280.53948,3631.1529)"
       xml:space="preserve"
       stroke-miterlimit="10.433"
       font-style="normal"
       font-variant="normal"
       font-weight="normal"
       font-stretch="normal"
       font-size-adjust="none"
       letter-spacing="normal"
       word-spacing="normal"
       ns0:text="$J^-(\\mathscr{I}^+)$"
       ns0:preamble="/home/eric/BHLectures/Notes/latex_inkscape.ini"><path
         style="fill:#000000;stroke-width:0"
         inkscape:connector-curvature="0"
         d="m 228.82,713.18 0,0.03 0.01,0.03 0.01,0.03 0,0.03 0.01,0.02 0.01,0.02 0,0.03 0.01,0.02 0.01,0.02 0.01,0.02 0.01,0.01 0.01,0.02 0.01,0.02 0.01,0.01 0.02,0.01 0.01,0.02 0.02,0.01 0.02,0.01 0.02,0.01 0.02,0.01 0.02,0 0.02,0.01 0.03,0.01 0.02,0 0.01,0 0.02,0.01 0.01,0 0.02,0 0.02,0 0.01,0 0.02,0 0.02,0.01 0.02,0 0.02,0 0.02,0 0.02,0 0.02,0 0.03,0 0.02,0 0.03,0 0.02,0 c 0.16,0 0.27,0 0.27,0.19 0,0.09 -0.06,0.12 -0.14,0.12 -0.25,0 -0.85,-0.03 -1.1,-0.03 -0.33,0 -1.14,0.03 -1.47,0.03 -0.09,0 -0.2,0 -0.2,-0.2 0,-0.11 0.07,-0.11 0.33,-0.11 0.23,0 0.33,0 0.58,-0.02 0.24,-0.03 0.31,-0.06 0.31,-0.2 0,-0.06 -0.02,-0.13 -0.04,-0.21 l -1.15,-4.56 c -0.23,-0.96 -0.91,-1.49 -1.43,-1.49 -0.26,0 -0.78,0.1 -0.94,0.62 0.03,-0.01 0.1,-0.01 0.12,-0.01 0.38,0 0.64,0.34 0.64,0.64 0,0.31 -0.27,0.41 -0.44,0.41 -0.17,0 -0.66,-0.12 -0.66,-0.79 0,-0.62 0.53,-1.08 1.31,-1.08 0.92,0 1.95,0.65 2.2,1.64 z"
         id="path4435" /><path
         style="fill:#000000;stroke-width:0"
         inkscape:connector-curvature="0"
         d="m 235.1,712.31 0.01,0 0.01,0 0.01,0 0.01,0 0.02,0 0.02,0 0.01,0 0.01,0 0.01,0.01 0.01,0 0.01,0 0.02,0 0.01,0 0.01,0.01 0.01,0 0.01,0.01 0.01,0 0.01,0.01 0.01,0 0,0.01 0.01,0.01 0.01,0 0,0.01 0.01,0 0,0.01 0,0 0.01,0.01 0,0 0,0.01 0,0 0.01,0.01 0,0 0,0.01 0,0.01 0,0 0,0.01 0,0.01 0,0 0,0.01 0.01,0.01 c 0,0.17 -0.17,0.17 -0.28,0.17 l -4.15,0 c -0.12,0 -0.28,0 -0.28,-0.17 0,-0.17 0.16,-0.17 0.28,-0.17 z"
         id="path4437" /><path
         style="fill:#000000;stroke-width:0"
         inkscape:connector-curvature="0"
         d="m 239.93,704.74 0,0.01 0,0 0,0 0,0.01 0,0 0,0 0,0.01 0,0 0,0 -0.01,0.01 0,0 0,0.01 0,0 -0.01,0.01 0,0 -0.01,0.01 0,0.01 -0.01,0 0,0.01 0,0 -0.01,0.01 0,0 -0.01,0 0,0.01 0,0 -0.01,0.01 0,0 -0.01,0.01 0,0 -0.01,0.01 0,0 -0.01,0.01 0,0.01 -0.01,0 -0.01,0.01 0,0.01 -0.01,0 -0.01,0.01 0,0.01 -0.01,0 -0.01,0.01 -0.01,0.01 c -1.24,1.25 -1.56,3.13 -1.56,4.65 0,1.73 0.38,3.46 1.6,4.7 0.13,0.12 0.13,0.14 0.13,0.17 0,0.07 -0.04,0.1 -0.1,0.1 -0.1,0 -0.99,-0.68 -1.58,-1.94 -0.51,-1.09 -0.63,-2.2 -0.63,-3.03 0,-0.78 0.11,-1.98 0.66,-3.1 0.6,-1.22 1.45,-1.87 1.55,-1.87 0.06,0 0.1,0.03 0.1,0.1 z"
         id="path4439" /><path
         style="fill:#000000;stroke-width:0"
         inkscape:connector-curvature="0"
         d="m 247.5,711.73 0.11,0.16 0.12,0.16 0.13,0.15 0.13,0.15 0.14,0.16 0.14,0.15 0.15,0.14 0.15,0.15 0.16,0.14 0.17,0.14 0.16,0.14 0.17,0.14 0.18,0.13 0.18,0.13 0.18,0.12 0.19,0.12 c 0.02,0.01 0.03,0.04 0.03,0.07 l -0.01,0.08 c -0.01,0.01 -0.01,0.02 -0.01,0.03 -0.01,0.04 -0.05,0.06 -0.08,0.06 -0.01,0 -0.02,0 -0.03,-0.01 -1.8,-0.74 -3.73,-0.67 -4.81,-2.2 -0.35,-0.49 -0.53,-0.98 -0.53,-1.4 0,-0.16 0.03,-0.31 0.08,-0.44 0.14,-0.35 0.45,-0.58 0.86,-0.7 l 0.14,0.22 c -0.31,0.1 -0.52,0.3 -0.59,0.56 -0.02,0.07 -0.03,0.15 -0.03,0.23 0,0.4 0.22,0.91 0.6,1.43 0.66,0.94 1.82,1.28 2.98,1.64 0.13,0.04 0.26,0.08 0.38,0.12 -0.79,-0.53 -1.48,-1.18 -1.97,-1.87 l 0,0 c -0.5,-0.7 -0.9,-1.41 -1.37,-2.11 l -0.14,-0.22 -0.17,-0.24 c -0.75,-1.05 -1.92,-2.08 -2.81,-2.08 -0.68,0 -1.17,0.18 -1.17,0.58 0,0.09 0.02,0.2 0.08,0.31 0.06,-0.1 0.17,-0.15 0.29,-0.15 0.26,0 0.56,0.2 0.56,0.39 0,0.24 -0.15,0.34 -0.33,0.34 -0.21,0 -0.45,-0.12 -0.57,-0.29 -0.17,-0.25 -0.25,-0.46 -0.25,-0.64 0,-0.52 0.63,-0.76 1.35,-0.76 1.21,0 2.91,0.96 3.71,2.2 l 0.17,0.28 c 0.28,0.04 0.6,0.14 0.92,0.32 0.37,0.2 0.72,0.48 0.94,0.79 0.28,0.41 0.35,0.78 0.35,1.11 0,0.11 -0.01,0.23 -0.02,0.34 -0.01,0.04 -0.04,0.07 -0.08,0.07 l -0.02,0 c -0.03,0 -0.06,-0.02 -0.09,-0.03 -0.03,-0.02 -0.05,-0.05 -0.05,-0.09 0.01,-0.08 0.02,-0.16 0.02,-0.24 0,-0.31 -0.08,-0.67 -0.36,-1.06 -0.19,-0.27 -0.48,-0.54 -0.81,-0.72 -0.23,-0.13 -0.46,-0.21 -0.67,-0.25 0.38,0.69 0.55,1.36 1.05,2.05 z"
         id="path4441" /><path
         style="fill:#000000;stroke-width:0"
         inkscape:connector-curvature="0"
         d="m 253.71,712.31 2.13,0 c 0.09,0 0.26,0 0.26,0.17 0,0.17 -0.16,0.17 -0.26,0.17 l -2.13,0 0,2.14 c 0,0.09 0,0.25 -0.17,0.25 -0.17,0 -0.17,-0.16 -0.17,-0.25 l 0,-2.14 -2.14,0 c -0.09,0 -0.26,0 -0.26,-0.17 0,-0.17 0.16,-0.17 0.26,-0.17 l 2.14,0 0,-2.13 c 0,-0.09 0,-0.26 0.17,-0.26 0.17,0 0.17,0.16 0.17,0.26 z"
         id="path4443" /><path
         style="fill:#000000;stroke-width:0"
         inkscape:connector-curvature="0"
         d="m 259.98,709.61 -0.01,0.07 0,0.08 0,0.08 0,0.08 -0.01,0.17 -0.01,0.17 -0.02,0.18 -0.02,0.19 -0.03,0.2 -0.03,0.2 -0.04,0.2 -0.04,0.21 -0.06,0.21 -0.06,0.21 -0.07,0.21 -0.08,0.21 -0.04,0.11 -0.04,0.11 -0.05,0.1 -0.05,0.11 c -0.6,1.22 -1.45,1.87 -1.55,1.87 -0.06,0 -0.1,-0.04 -0.1,-0.1 0,-0.03 0,-0.05 0.19,-0.23 0.97,-0.99 1.54,-2.57 1.54,-4.64 0,-1.7 -0.37,-3.45 -1.6,-4.7 -0.13,-0.12 -0.13,-0.14 -0.13,-0.17 0,-0.06 0.04,-0.1 0.1,-0.1 0.1,0 0.99,0.68 1.58,1.94 0.51,1.09 0.63,2.19 0.63,3.03 z"
         id="path4445" /></g>    <g
       ns0:preamble="/home/eric/BHLectures/Notes/latex_inkscape.ini"
       ns0:text="$\\mathscr{B}$"
       word-spacing="normal"
       letter-spacing="normal"
       font-size-adjust="none"
       font-stretch="normal"
       font-weight="normal"
       font-variant="normal"
       font-style="normal"
       stroke-miterlimit="10.433"
       xml:space="preserve"
       transform="matrix(4,0,0,-4,-675.9307,3508.0543)"
       id="g4503"
       style="font-style:normal;font-variant:normal;font-weight:normal;font-stretch:normal;letter-spacing:normal;word-spacing:normal;text-anchor:start;fill:none;stroke:#000000;stroke-linecap:butt;stroke-linejoin:miter;stroke-miterlimit:10.43299961;stroke-opacity:1;stroke-dasharray:none;stroke-dashoffset:0"><path
         id="path4505"
         d="m 229.82,714.16 -0.13,0 -0.14,-0.01 -0.13,-0.01 -0.14,-0.02 -0.15,-0.02 -0.14,-0.02 -0.15,-0.03 -0.14,-0.04 -0.15,-0.04 -0.15,-0.05 -0.16,-0.05 -0.15,-0.05 -0.16,-0.06 -0.15,-0.07 -0.16,-0.07 -0.16,-0.08 c -0.72,-0.37 -1.43,-0.9 -1.86,-1.5 -0.34,-0.47 -0.55,-0.96 -0.55,-1.37 0,-0.07 0.01,-0.13 0.02,-0.19 0.07,-0.43 0.41,-0.68 0.95,-0.68 0.35,0 0.77,0.11 1.17,0.31 0.38,0.2 0.73,0.48 0.95,0.79 0.4,0.56 0.56,1.08 0.56,1.54 0,0.09 -0.02,0.18 -0.02,0.27 0,0.05 -0.05,0.08 -0.09,0.08 -0.03,-0.01 -0.06,-0.02 -0.09,-0.04 -0.03,-0.01 -0.05,-0.04 -0.05,-0.07 v -0.08 c 0,-0.42 -0.4,-1 -0.83,-1.6 -0.18,-0.26 -0.41,-0.52 -0.71,-0.71 -0.3,-0.19 -0.61,-0.27 -0.85,-0.27 -0.45,0 -0.7,0.2 -0.74,0.52 -0.01,0.04 -0.01,0.08 -0.01,0.12 0,0.36 0.2,0.81 0.54,1.28 0.39,0.56 1.03,1.08 1.73,1.42 0.79,0.4 1.56,0.58 2.2,0.58 0.75,0 1.38,-0.11 1.83,-0.39 -1.62,-1.19 -2.77,-2.81 -3.82,-4.29 -0.73,-1.03 -1.78,-2.06 -2.62,-2.06 -0.68,0 -1.19,0.18 -1.19,0.58 0,0.09 0.03,0.18 0.08,0.29 0.06,-0.1 0.17,-0.15 0.29,-0.15 0.26,0 0.55,0.2 0.55,0.39 0,0.24 -0.14,0.34 -0.32,0.34 -0.21,0 -0.45,-0.12 -0.57,-0.29 -0.17,-0.24 -0.24,-0.44 -0.24,-0.62 0,-0.52 0.64,-0.75 1.36,-0.75 1.15,0 2.7,1.02 3.52,2.17 0.21,0.31 0.44,0.64 0.69,0.98 0.14,-0.05 0.3,-0.06 0.46,-0.06 l 0.04,0.21 c -0.05,0 -0.09,0 -0.11,0.01 0.02,0.03 0.05,0.06 0.08,0.11 h 0 c 0.08,0.12 0.12,0.16 0.12,0.16 0.09,0.05 0.18,0.06 0.27,0.06 l 0.04,0.22 c -0.13,0 -0.26,-0.01 -0.4,-0.03 0.71,0.96 1.44,1.91 2.04,2.51 0.17,-0.17 0.27,-0.39 0.27,-0.66 0,-0.28 -0.11,-0.61 -0.37,-0.97 -0.23,-0.33 -0.5,-0.66 -0.86,-0.94 -0.19,0.06 -0.43,0.09 -0.68,0.09 h 0 l -0.04,-0.22 c 0.17,0 0.33,-0.02 0.46,-0.05 -0.28,-0.18 -0.59,-0.29 -0.82,-0.29 l -0.04,-0.21 c 0.36,0 0.79,0.13 1.2,0.36 0.16,-0.09 0.27,-0.23 0.33,-0.39 0.02,-0.07 0.04,-0.15 0.04,-0.24 0,-0.34 -0.18,-0.79 -0.51,-1.24 -0.24,-0.33 -0.5,-0.67 -0.87,-0.94 -0.32,-0.23 -0.66,-0.37 -0.92,-0.37 -0.33,0 -0.53,0.12 -0.58,0.33 -0.01,0.04 -0.02,0.09 -0.02,0.14 0,0.2 0.1,0.46 0.29,0.74 0.13,0.19 0.37,0.34 0.61,0.45 0.31,0.13 0.6,0.18 0.85,0.18 0.03,0 0.05,0.01 0.07,0.03 l 0.04,0.06 c 0.01,0.01 0.01,0.03 0.01,0.05 0,0.04 -0.04,0.08 -0.08,0.08 -0.29,0 -0.62,-0.06 -0.97,-0.22 -0.27,-0.12 -0.55,-0.31 -0.71,-0.53 -0.21,-0.3 -0.33,-0.61 -0.33,-0.87 0,-0.07 0,-0.13 0.02,-0.19 0.09,-0.31 0.38,-0.46 0.76,-0.46 0.37,0 0.83,0.15 1.26,0.41 0.44,0.27 0.82,0.64 1.09,1.01 0.3,0.42 0.46,0.84 0.46,1.2 0,0.17 -0.04,0.34 -0.11,0.48 -0.09,0.19 -0.25,0.35 -0.45,0.47 0.41,0.28 0.77,0.62 1.03,0.97 0.24,0.36 0.35,0.69 0.35,0.98 0,0.34 -0.13,0.63 -0.36,0.85 -0.05,0.05 -0.1,0.1 -0.16,0.15 0.13,0.12 0.26,0.21 0.37,0.28 0.02,0.02 0.03,0.04 0.03,0.07 l -0.01,0.1 c -0.01,0.04 -0.05,0.06 -0.09,0.06 -0.01,0 -0.03,0 -0.04,-0.01 l -0.52,-0.33 c -0.54,0.31 -1.26,0.42 -2.06,0.42 z"
         inkscape:connector-curvature="0"
         style="fill:#000000;stroke-width:0" /></g>    <g
       id="g4611"
       transform="matrix(4,0,0,-4,-559.20861,3667.6562)"
       xml:space="preserve"
       stroke-miterlimit="10.433"
       font-style="normal"
       font-variant="normal"
       font-weight="normal"
       font-stretch="normal"
       font-size-adjust="none"
       letter-spacing="normal"
       word-spacing="normal"
       ns0:text="$p$"
       ns0:preamble="/home/eric/BHLectures/Notes/latex_inkscape.ini"
       style="font-style:normal;font-variant:normal;font-weight:normal;font-stretch:normal;letter-spacing:normal;word-spacing:normal;text-anchor:start;fill:none;stroke:#000000;stroke-linecap:butt;stroke-linejoin:miter;stroke-miterlimit:10.43299961;stroke-opacity:1;stroke-dasharray:none;stroke-dashoffset:0"><path
         d="m 223.88,705.91 -0.01,-0.03 0,-0.03 -0.01,-0.03 -0.01,-0.02 0,-0.03 -0.01,-0.02 -0.01,-0.02 -0.01,-0.02 0,-0.02 -0.01,-0.02 -0.01,-0.02 -0.01,-0.01 -0.01,-0.02 -0.01,-0.01 -0.01,-0.02 -0.01,-0.01 -0.02,-0.01 -0.01,-0.01 -0.02,-0.01 -0.02,0 -0.02,-0.01 -0.02,-0.01 -0.02,0 -0.02,-0.01 -0.03,0 -0.02,-0.01 -0.02,0 -0.01,0 -0.02,0 -0.01,0 -0.02,0 -0.02,0 -0.01,0 -0.02,0 -0.02,0 -0.02,0 -0.02,0 -0.02,0 c -0.12,0 -0.23,0 -0.23,-0.19 0,-0.08 0.05,-0.12 0.13,-0.12 0.27,0 0.56,0.03 0.84,0.03 0.33,0 0.66,-0.03 0.98,-0.03 0.05,0 0.18,0 0.18,0.2 0,0.11 -0.1,0.11 -0.24,0.11 -0.49,0 -0.49,0.07 -0.49,0.15 0,0.12 0.41,1.74 0.48,1.99 0.13,-0.29 0.41,-0.63 0.92,-0.63 l -0.01,0.21 c -0.66,0 -0.79,0.83 -0.79,0.89 0,0.02 0,0.04 0.03,0.16 l 0.49,1.94 c 0.07,0.27 0.34,0.55 0.52,0.7 0.35,0.31 0.64,0.38 0.8,0.38 0.4,0 0.64,-0.35 0.64,-0.94 0,-0.58 -0.33,-1.72 -0.51,-2.1 -0.34,-0.7 -0.81,-1.03 -1.18,-1.03 l 0.01,-0.21 c 1.15,0 2.4,1.45 2.4,2.91 0,0.93 -0.57,1.59 -1.33,1.59 -0.49,0 -0.97,-0.36 -1.3,-0.75 -0.1,0.54 -0.53,0.75 -0.89,0.75 -0.46,0 -0.65,-0.39 -0.74,-0.57 -0.18,-0.34 -0.31,-0.93 -0.31,-0.96 0,-0.1 0.1,-0.1 0.12,-0.1 0.1,0 0.11,0.01 0.17,0.22 0.17,0.71 0.37,1.19 0.73,1.19 0.16,0 0.3,-0.08 0.3,-0.46 0,-0.23 -0.03,-0.34 -0.07,-0.51 z"
         id="path4613"
         inkscape:connector-curvature="0"
         style="fill:#000000;stroke-width:0" /></g>    <g
       style="font-style:normal;font-variant:normal;font-weight:normal;font-stretch:normal;letter-spacing:normal;word-spacing:normal;text-anchor:start;fill:none;stroke:#000000;stroke-linecap:butt;stroke-linejoin:miter;stroke-miterlimit:10.43299961;stroke-dasharray:none;stroke-dashoffset:0;stroke-opacity:1"
       ns0:preamble="/home/eric/BHLectures/Notes/latex_inkscape.ini"
       ns0:text="$q$"
       word-spacing="normal"
       letter-spacing="normal"
       font-size-adjust="none"
       font-stretch="normal"
       font-weight="normal"
       font-variant="normal"
       font-style="normal"
       stroke-miterlimit="10.433"
       xml:space="preserve"
       transform="matrix(4,0,0,-4,-425.36029,3535.3855)"
       id="g4713"><path
         id="path4715"
         d="m 227.93,711.41 0,0 0,0 0,0.01 0,0 0,0.01 0,0 -0.01,0 0,0.01 0,0 0,0.01 0,0 0,0.01 -0.01,0 0,0 0,0.01 0,0 -0.01,0 0,0.01 0,0 -0.01,0 0,0.01 -0.01,0 0,0 -0.01,0.01 0,0 -0.01,0 0,0 -0.01,0 0,0 -0.01,0.01 0,0 -0.01,0 c -0.11,0 -0.51,-0.4 -0.68,-0.69 -0.22,0.54 -0.6,0.7 -0.92,0.7 l 0,-0.22 c 0.64,0 0.78,-0.81 0.78,-0.88 0,-0.06 -0.54,-2.23 -0.57,-2.27 -0.15,-0.28 -0.71,-0.92 -1.27,-0.92 l 0,0 c -0.59,0 -0.63,0.77 -0.63,0.94 0,0.48 0.28,1.56 0.45,1.98 0.31,0.73 0.83,1.15 1.24,1.15 l 0,0.22 c -1.18,0 -2.4,-1.47 -2.4,-2.92 0,-0.97 0.59,-1.58 1.31,-1.58 0.43,0 0.82,0.23 1.18,0.59 -0.09,-0.35 -0.42,-1.69 -0.45,-1.78 -0.08,-0.28 -0.16,-0.31 -0.72,-0.32 -0.13,0 -0.23,0 -0.23,-0.2 0,-0.01 0,-0.11 0.13,-0.11 0.32,0 0.67,0.03 1,0.03 0.34,0 0.69,-0.03 1.02,-0.03 0.05,0 0.18,0 0.18,0.2 0,0.11 -0.1,0.11 -0.26,0.11 -0.47,0 -0.47,0.07 -0.47,0.15 0,0.07 0.02,0.13 0.04,0.22 z"
         inkscape:connector-curvature="0"
         style="fill:#000000;stroke-width:0" /></g>    <g
       id="g4789"
       transform="matrix(4,0,0,-4,-609.14008,3634.4846)"
       xml:space="preserve"
       stroke-miterlimit="10.433"
       font-style="normal"
       font-variant="normal"
       font-weight="normal"
       font-stretch="normal"
       font-size-adjust="none"
       letter-spacing="normal"
       word-spacing="normal"
       ns0:text="$p\'$"
       ns0:preamble="/home/eric/BHLectures/Notes/latex_inkscape.ini"
       style="font-style:normal;font-variant:normal;font-weight:normal;font-stretch:normal;letter-spacing:normal;word-spacing:normal;text-anchor:start;fill:none;stroke:#000000;stroke-linecap:butt;stroke-linejoin:miter;stroke-miterlimit:10.43299961;stroke-opacity:1;stroke-dasharray:none;stroke-dashoffset:0"><path
         d="m 223.88,705.91 -0.01,-0.03 0,-0.03 -0.01,-0.03 -0.01,-0.02 0,-0.03 -0.01,-0.02 -0.01,-0.02 -0.01,-0.02 0,-0.02 -0.01,-0.02 -0.01,-0.02 -0.01,-0.01 -0.01,-0.02 -0.01,-0.01 -0.01,-0.02 -0.01,-0.01 -0.02,-0.01 -0.01,-0.01 -0.02,-0.01 -0.02,0 -0.02,-0.01 -0.02,-0.01 -0.02,0 -0.02,-0.01 -0.03,0 -0.02,-0.01 -0.02,0 -0.01,0 -0.02,0 -0.01,0 -0.02,0 -0.02,0 -0.01,0 -0.02,0 -0.02,0 -0.02,0 -0.02,0 -0.02,0 c -0.12,0 -0.23,0 -0.23,-0.19 0,-0.08 0.05,-0.12 0.13,-0.12 0.27,0 0.56,0.03 0.84,0.03 0.33,0 0.66,-0.03 0.98,-0.03 0.05,0 0.18,0 0.18,0.2 0,0.11 -0.1,0.11 -0.24,0.11 -0.49,0 -0.49,0.07 -0.49,0.15 0,0.12 0.41,1.74 0.48,1.99 0.13,-0.29 0.41,-0.63 0.92,-0.63 l -0.01,0.21 c -0.66,0 -0.79,0.83 -0.79,0.89 0,0.02 0,0.04 0.03,0.16 l 0.49,1.94 c 0.07,0.27 0.34,0.55 0.52,0.7 0.35,0.31 0.64,0.38 0.8,0.38 0.4,0 0.64,-0.35 0.64,-0.94 0,-0.58 -0.33,-1.72 -0.51,-2.1 -0.34,-0.7 -0.81,-1.03 -1.18,-1.03 l 0.01,-0.21 c 1.15,0 2.4,1.45 2.4,2.91 0,0.93 -0.57,1.59 -1.33,1.59 -0.49,0 -0.97,-0.36 -1.3,-0.75 -0.1,0.54 -0.53,0.75 -0.89,0.75 -0.46,0 -0.65,-0.39 -0.74,-0.57 -0.18,-0.34 -0.31,-0.93 -0.31,-0.96 0,-0.1 0.1,-0.1 0.12,-0.1 0.1,0 0.11,0.01 0.17,0.22 0.17,0.71 0.37,1.19 0.73,1.19 0.16,0 0.3,-0.08 0.3,-0.46 0,-0.23 -0.03,-0.34 -0.07,-0.51 z"
         id="path4791"
         inkscape:connector-curvature="0"
         style="fill:#000000;stroke-width:0" /><path
         d="m 230.46,714.02 0.01,0.01 0,0.01 0.01,0.01 0,0.01 0.01,0.01 0,0.01 0,0.01 0.01,0.01 0,0.01 0,0.01 0.01,0 0,0.01 0,0.01 0,0.01 0,0 0.01,0.01 0,0.01 0,0 0,0.01 0,0 0,0.01 0,0.01 0,0 0.01,0.01 0,0.01 0,0.01 0,0.01 0,0 c 0,0.22 -0.2,0.39 -0.41,0.39 -0.27,0 -0.35,-0.22 -0.39,-0.33 l -0.92,-3.01 c 0,-0.01 -0.03,-0.11 -0.03,-0.11 0,-0.09 0.21,-0.15 0.27,-0.15 0.05,0 0.06,0.01 0.1,0.11 z"
         id="path4793"
         inkscape:connector-curvature="0"
         style="fill:#000000;stroke-width:0" /></g>    <g
       style="font-style:normal;font-variant:normal;font-weight:normal;font-stretch:normal;letter-spacing:normal;word-spacing:normal;text-anchor:start;fill:none;stroke:#000000;stroke-linecap:butt;stroke-linejoin:miter;stroke-miterlimit:10.43299961;stroke-dasharray:none;stroke-dashoffset:0;stroke-opacity:1"
       ns0:preamble="/home/eric/BHLectures/Notes/latex_inkscape.ini"
       ns0:text="$q\'$"
       word-spacing="normal"
       letter-spacing="normal"
       font-size-adjust="none"
       font-stretch="normal"
       font-weight="normal"
       font-variant="normal"
       font-style="normal"
       stroke-miterlimit="10.433"
       xml:space="preserve"
       transform="matrix(4,0,0,-4,-399.39634,3487.0593)"
       id="g4892"><path
         id="path4894"
         d="m 227.93,711.41 0,0 0,0 0,0.01 0,0 0,0.01 0,0 -0.01,0 0,0.01 0,0 0,0.01 0,0 0,0.01 -0.01,0 0,0 0,0.01 0,0 -0.01,0 0,0.01 0,0 -0.01,0 0,0.01 -0.01,0 0,0 -0.01,0.01 0,0 -0.01,0 0,0 -0.01,0 0,0 -0.01,0.01 0,0 -0.01,0 c -0.11,0 -0.51,-0.4 -0.68,-0.69 -0.22,0.54 -0.6,0.7 -0.92,0.7 l 0,-0.22 c 0.64,0 0.78,-0.81 0.78,-0.88 0,-0.06 -0.54,-2.23 -0.57,-2.27 -0.15,-0.28 -0.71,-0.92 -1.27,-0.92 l 0,0 c -0.59,0 -0.63,0.77 -0.63,0.94 0,0.48 0.28,1.56 0.45,1.98 0.31,0.73 0.83,1.15 1.24,1.15 l 0,0.22 c -1.18,0 -2.4,-1.47 -2.4,-2.92 0,-0.97 0.59,-1.58 1.31,-1.58 0.43,0 0.82,0.23 1.18,0.59 -0.09,-0.35 -0.42,-1.69 -0.45,-1.78 -0.08,-0.28 -0.16,-0.31 -0.72,-0.32 -0.13,0 -0.23,0 -0.23,-0.2 0,-0.01 0,-0.11 0.13,-0.11 0.32,0 0.67,0.03 1,0.03 0.34,0 0.69,-0.03 1.02,-0.03 0.05,0 0.18,0 0.18,0.2 0,0.11 -0.1,0.11 -0.26,0.11 -0.47,0 -0.47,0.07 -0.47,0.15 0,0.07 0.02,0.13 0.04,0.22 z"
         inkscape:connector-curvature="0"
         style="fill:#000000;stroke-width:0" /><path
         id="path4896"
         d="m 230.26,714.02 0,0.01 0.01,0.01 0,0.01 0.01,0.01 0,0.01 0,0.01 0.01,0.01 0,0.01 0,0.01 0.01,0.01 0,0 0,0.01 0,0.01 0.01,0.01 0,0 0,0.01 0,0.01 0,0 0,0.01 0,0 0,0.01 0.01,0.01 0,0 0,0.01 0,0.01 0,0.01 0,0.01 0,0 c 0,0.22 -0.2,0.39 -0.41,0.39 -0.27,0 -0.35,-0.22 -0.39,-0.33 l -0.91,-3.01 c -0.01,-0.01 -0.04,-0.11 -0.04,-0.11 0,-0.09 0.22,-0.15 0.27,-0.15 0.05,0 0.06,0.01 0.11,0.11 z"
         inkscape:connector-curvature="0"
         style="fill:#000000;stroke-width:0" /></g>    <g
       id="g5001"
       transform="matrix(4,0,0,-4,-623.72608,3739.3423)"
       xml:space="preserve"
       stroke-miterlimit="10.433"
       font-style="normal"
       font-variant="normal"
       font-weight="normal"
       font-stretch="normal"
       font-size-adjust="none"
       letter-spacing="normal"
       word-spacing="normal"
       ns0:text="$\\mathscr{H}$"
       ns0:preamble="/home/eric/BHLectures/Notes/latex_inkscape.ini"
       style="font-style:normal;font-variant:normal;font-weight:normal;font-stretch:normal;letter-spacing:normal;word-spacing:normal;text-anchor:start;fill:none;stroke:#000000;stroke-linecap:butt;stroke-linejoin:miter;stroke-miterlimit:10.43299961;stroke-opacity:1;stroke-dasharray:none;stroke-dashoffset:0"><path
         style="fill:#000000;stroke-width:0"
         inkscape:connector-curvature="0"
         d="m 232.59,708.52 -0.01,0 0,0 0,0.01 0,0 0,0.01 0,0 0,0.01 0,0 0,0 -0.01,0.01 0,0 0,0 0,0.01 0,0 -0.01,0 0,0 0,0.01 -0.01,0 0,0 0,0 -0.01,0 0,0.01 0,0 -0.01,0 0,0 0,0 -0.01,0 0,0 0,0 -0.01,0 0,0 0,0 h -0.11 c -0.03,0 -0.06,0 -0.07,-0.02 -0.47,-0.66 -1.1,-1.31 -1.59,-1.31 -0.4,0 -0.57,0.19 -0.57,0.51 0,0.48 0.4,1.25 0.98,2.09 0.24,0.34 0.48,0.67 0.73,1.01 1.33,0.08 2.66,0.37 3.4,1.42 0.31,0.44 0.49,0.88 0.49,1.23 0,0.38 -0.21,0.64 -0.71,0.64 l -0.04,-0.22 c 0.33,0 0.49,-0.17 0.49,-0.45 0,-0.28 -0.17,-0.66 -0.48,-1.1 -0.64,-0.9 -1.77,-1.19 -2.98,-1.29 1.1,1.5 2.23,2.84 2.97,2.84 h 0 l 0.04,0.22 c -1.41,0 -2.77,-1.5 -3.96,-3.1 h -1.27 c 0.74,0.99 1.49,1.99 2.27,2.97 0.02,0.03 0.02,0.05 0.02,0.08 l -0.03,0.08 c -0.01,0.03 -0.04,0.06 -0.08,0.06 -0.02,0 -0.04,-0.01 -0.06,-0.03 -0.5,-0.48 -0.99,-0.96 -1.52,-1.48 -0.37,-0.52 -1.13,-0.88 -1.69,-0.88 -0.11,0 -0.19,0.06 -0.19,0.16 0,0.07 0.04,0.16 0.11,0.27 0.14,0.21 0.21,0.4 0.21,0.56 0,0.32 -0.26,0.53 -0.7,0.53 -0.52,0 -1.06,-0.64 -1.43,-1.17 0,-0.01 0,-0.03 0,-0.04 0,-0.05 0.02,-0.09 0.08,-0.09 h 0.1 c 0.03,0 0.05,0.02 0.07,0.04 0.38,0.54 0.76,1.04 1.14,1.04 0.16,0 0.25,-0.08 0.25,-0.22 0,-0.14 -0.08,-0.32 -0.24,-0.55 -0.09,-0.13 -0.13,-0.24 -0.13,-0.34 0,-0.28 0.34,-0.4 0.7,-0.4 0.29,0 0.64,0.07 0.97,0.22 -0.25,-0.28 -0.5,-0.57 -0.74,-0.86 -1.14,-0.11 -2.26,-0.44 -2.94,-1.4 l -0.01,-0.05 c 0,-0.04 0.03,-0.08 0.08,-0.08 h 0.11 c 0.03,0 0.06,0.01 0.07,0.03 0.57,0.81 1.5,1.13 2.49,1.25 -0.39,-0.5 -0.78,-0.99 -1.14,-1.5 -0.74,-1.05 -1.65,-2.14 -2.49,-2.14 -0.66,0 -1.14,0.2 -1.14,0.61 0,0.1 0.03,0.21 0.09,0.34 0.07,-0.1 0.18,-0.15 0.3,-0.15 0.26,0 0.55,0.2 0.55,0.39 0,0.24 -0.15,0.34 -0.32,0.34 -0.21,0 -0.45,-0.12 -0.57,-0.29 -0.18,-0.26 -0.26,-0.48 -0.26,-0.67 0,-0.52 0.59,-0.78 1.31,-0.78 1.11,0 2.57,1.1 3.39,2.25 0.39,0.56 0.79,1.11 1.2,1.67 0.23,0.01 0.46,0.01 0.69,0.01 h 0.59 c -0.21,-0.3 -0.43,-0.6 -0.63,-0.88 -0.49,-0.69 -0.76,-1.37 -0.76,-1.9 0,-0.61 0.35,-1.01 1.15,-1.01 0.63,0 1.39,0.74 1.87,1.42 0.02,0.02 0.02,0.03 0.02,0.05 z"
         id="path5003" /></g>    <g
       style="font-style:normal;font-variant:normal;font-weight:normal;font-stretch:normal;letter-spacing:normal;word-spacing:normal;text-anchor:start;fill:#ff0000;fill-opacity:1;fill-rule:evenodd;stroke:#000000;stroke-linecap:butt;stroke-linejoin:miter;stroke-miterlimit:10.43299961;stroke-dasharray:none;stroke-dashoffset:0;stroke-opacity:1"
       ns0:preamble="/home/eric/BHLectures/Notes/latex_inkscape.ini"
       ns0:text="$\\mathscr{L}$"
       word-spacing="normal"
       letter-spacing="normal"
       font-size-adjust="none"
       font-stretch="normal"
       font-weight="normal"
       font-variant="normal"
       font-style="normal"
       stroke-miterlimit="10.433"
       xml:space="preserve"
       transform="matrix(4,0,0,-4,-503.90256,3596.9201)"
       id="g5112"><path
         id="path5114"
         d="m 231.39,708.52 0,0 0,0 0,0.01 0,0 0,0.01 0,0 0,0.01 -0.01,0 0,0 0,0.01 0,0 0,0 -0.01,0.01 0,0 0,0 0,0 -0.01,0.01 0,0 0,0 -0.01,0 0,0 0,0.01 -0.01,0 0,0 0,0 -0.01,0 0,0 0,0 -0.01,0 0,0 0,0 -0.01,0 -0.12,0 c -0.02,0 -0.05,0 -0.06,-0.02 -0.45,-0.64 -1.37,-1.13 -2.02,-1.13 -0.66,0 -1.23,0.13 -1.8,0.27 0.64,0.39 1.21,0.89 1.6,1.45 l 1,1.39 c 1.28,0.19 2.61,0.69 3.34,1.74 0.3,0.43 0.46,0.86 0.46,1.19 0,0.46 -0.28,0.77 -0.89,0.77 l -0.04,-0.23 c 0.38,0 0.56,-0.2 0.56,-0.51 0,-0.29 -0.16,-0.68 -0.47,-1.12 -0.61,-0.86 -1.68,-1.35 -2.76,-1.56 1.22,1.7 2.38,3.19 2.67,3.19 l 0,0 0.04,0.23 c -0.97,0 -2.42,-1.77 -3.73,-3.55 -0.15,-0.01 -0.3,-0.02 -0.44,-0.02 -1.03,0 -1.75,0.37 -1.75,1.03 0,0.26 0.11,0.57 0.37,0.93 0.48,0.68 1.43,1.22 2.09,1.22 0.02,0 0.05,0.01 0.06,0.03 l 0.04,0.06 c 0.01,0.01 0.02,0.03 0.02,0.05 0,0.03 -0.02,0.05 -0.04,0.06 0,0.01 -0.01,0.01 -0.02,0.02 -0.1,0.03 -0.2,0.04 -0.31,0.04 -0.76,0 -1.82,-0.61 -2.37,-1.38 -0.27,-0.4 -0.39,-0.75 -0.39,-1.03 0,-0.85 1.02,-1.25 2.26,-1.25 0.1,0 0.21,0 0.31,0.01 -0.29,-0.42 -0.58,-0.82 -0.85,-1.21 -0.37,-0.52 -0.86,-1.01 -1.37,-1.39 -0.48,0.11 -0.98,0.2 -1.56,0.2 l -0.06,0 0.02,-0.22 c 0.48,0 0.88,-0.09 1.26,-0.22 -0.45,-0.28 -0.91,-0.45 -1.3,-0.45 l 0,0 c -0.57,0 -0.93,0.02 -0.93,0.18 0,0.04 0.01,0.08 0.05,0.13 0.19,0.27 0.58,0.36 0.92,0.36 l -0.02,0.22 c -0.48,0 -1.09,-0.01 -1.42,-0.48 -0.07,-0.1 -0.11,-0.19 -0.11,-0.26 0,-0.35 0.8,-0.37 1.32,-0.37 l 0.15,0 c 0.56,0 1.21,0.19 1.83,0.49 l 0.12,-0.05 c 0.57,-0.23 1.14,-0.44 1.91,-0.44 0.82,0 1.92,0.7 2.49,1.51 0.01,0.02 0.02,0.03 0.02,0.05 z"
         style="fill:#ff0000;stroke-width:0"
         inkscape:connector-curvature="0" /></g>    <g
       id="g5498"
       transform="matrix(4,0,0,-4,-344.53684,3567.0047)"
       xml:space="preserve"
       stroke-miterlimit="10.433"
       font-style="normal"
       font-variant="normal"
       font-weight="normal"
       font-stretch="normal"
       font-size-adjust="none"
       letter-spacing="normal"
       word-spacing="normal"
       ns0:text="$V$"
       ns0:preamble="/home/eric/BHLectures/Notes/latex_inkscape.ini"
       style="font-style:normal;font-variant:normal;font-weight:normal;font-stretch:normal;letter-spacing:normal;word-spacing:normal;text-anchor:start;fill:#782121;stroke:#000000;stroke-linecap:butt;stroke-linejoin:miter;stroke-miterlimit:10.43299961;stroke-dasharray:none;stroke-dashoffset:0;stroke-opacity:1"><path
         style="fill:#782121;stroke-width:0"
         inkscape:connector-curvature="0"
         d="m 229.68,712.78 0.05,0.07 0.04,0.06 0.05,0.07 0.04,0.05 0.04,0.06 0.05,0.05 0.04,0.05 0.04,0.04 0.05,0.04 0.04,0.04 0.04,0.03 0.04,0.03 0.04,0.03 0.04,0.03 0.04,0.02 0.04,0.02 0.04,0.02 0.04,0.02 0.04,0.01 0.04,0.02 0.04,0.01 0.03,0.01 0.04,0.01 0.04,0 0.03,0.01 0.04,0 0.07,0.01 0.07,0.01 0.07,0 c 0.12,0.01 0.13,0.18 0.13,0.19 0,0.08 -0.05,0.12 -0.13,0.12 -0.25,0 -0.54,-0.03 -0.81,-0.03 -0.33,0 -0.67,0.03 -0.99,0.03 -0.06,0 -0.19,0 -0.19,-0.19 0,-0.11 0.09,-0.12 0.16,-0.12 0.27,-0.02 0.46,-0.12 0.46,-0.33 0,-0.15 -0.15,-0.36 -0.15,-0.37 l -3.05,-4.85 -0.68,5.25 c 0,0.17 0.23,0.3 0.69,0.3 0.14,0 0.25,0 0.25,0.2 0,0.09 -0.08,0.11 -0.14,0.11 -0.4,0 -0.83,-0.03 -1.24,-0.03 -0.18,0 -0.36,0.01 -0.55,0.01 -0.17,0 -0.36,0.02 -0.53,0.02 -0.07,0 -0.19,0 -0.19,-0.19 0,-0.12 0.09,-0.12 0.25,-0.12 0.55,0 0.56,-0.09 0.6,-0.34 l 0.78,-6.12 c 0.03,-0.2 0.07,-0.23 0.2,-0.23 0.16,0 0.2,0.05 0.28,0.18 z"
         id="path5500" /></g>    <path
       style="fill:none;stroke:#ff0000;stroke-width:3;stroke-linecap:butt;stroke-linejoin:miter;stroke-miterlimit:4;stroke-dasharray:none;stroke-opacity:1"
       d="m 461.12701,687.7735 c 8.65045,-13.98005 11.28363,-21.67999 18.33343,-34.23163"
       id="path3777-3"
       inkscape:connector-curvature="0"
       sodipodi:nodetypes="cc" />
    <path
       style="fill:none;stroke:#ff0000;stroke-width:3;stroke-linecap:butt;stroke-linejoin:miter;stroke-miterlimit:4;stroke-dasharray:none;stroke-opacity:1;marker-end:url(#Arrow2Mend)"
       d="M 483.12117,649.89464 C 523.54098,601.70144 601.61864,524.55685 662.1187,478.55967"
       id="path3777-6"
       inkscape:connector-curvature="0"
       sodipodi:nodetypes="cc" />
    <circle
       r="6.5527644"
       cy="687.37946"
       cx="460.96613"
       style="fill:#000000;fill-opacity:1;stroke:none"
       id="path3755-80" />
    <circle
       r="6.5527644"
       cy="649.45551"
       cx="482.43298"
       style="fill:#000000;fill-opacity:1;stroke:none"
       id="path3755-9" />
    <g
       style="font-style:normal;font-variant:normal;font-weight:normal;font-stretch:normal;letter-spacing:normal;word-spacing:normal;text-anchor:start;fill:#ff0000;fill-opacity:1;fill-rule:evenodd;stroke:#000000;stroke-linecap:butt;stroke-linejoin:miter;stroke-miterlimit:10.43299961;stroke-dasharray:none;stroke-dashoffset:0;stroke-opacity:1"
       ns0:preamble="/home/eric/BHLectures/Notes/latex_inkscape.ini"
       ns0:text="$\\tilde{\\mathscr{L}}$"
       word-spacing="normal"
       letter-spacing="normal"
       font-size-adjust="none"
       font-stretch="normal"
       font-weight="normal"
       font-variant="normal"
       font-style="normal"
       stroke-miterlimit="10.433"
       xml:space="preserve"
       transform="matrix(4,0,0,-4,-328.37927,3415.7287)"
       id="g4590"><path
         id="path4592"
         d="m 233.44,716.31 -0.16,0.15 c 0,-0.01 -0.38,-0.48 -0.81,-0.48 -0.23,0 -0.48,0.15 -0.65,0.25 -0.27,0.16 -0.45,0.23 -0.62,0.23 -0.38,0 -0.57,-0.22 -1.08,-0.78 l 0.16,-0.14 c 0,0.01 0.38,0.47 0.82,0.47 0.23,0 0.48,-0.15 0.65,-0.24 0.27,-0.16 0.45,-0.23 0.62,-0.23 0.37,0 0.56,0.22 1.07,0.77 z"
         style="fill:#ff0000;stroke-width:0"
         inkscape:connector-curvature="0" /><path
         id="path4594"
         d="m 231.4,708.52 0,0 0,0.01 0,0 0,0 0,0.01 0,0 0,0.01 0,0 -0.01,0 0,0.01 0,0 0,0 0,0.01 -0.01,0 0,0 0,0.01 0,0 -0.01,0 0,0 0,0 -0.01,0.01 0,0 0,0 -0.01,0 0,0 0,0 -0.01,0 0,0.01 -0.01,0 0,0 0,0 -0.01,0 -0.12,0 c -0.02,0 -0.05,-0.01 -0.06,-0.03 -0.46,-0.64 -1.37,-1.13 -2.02,-1.13 -0.67,0 -1.23,0.13 -1.8,0.27 0.64,0.39 1.2,0.9 1.6,1.45 l 1,1.4 c 1.28,0.19 2.61,0.69 3.35,1.74 0.29,0.43 0.45,0.86 0.45,1.2 0,0.46 -0.27,0.77 -0.88,0.77 l -0.04,-0.23 c 0.38,0 0.55,-0.2 0.55,-0.51 0,-0.29 -0.15,-0.69 -0.46,-1.13 -0.62,-0.86 -1.69,-1.35 -2.77,-1.56 1.22,1.7 2.38,3.2 2.68,3.2 l 0,0 0.04,0.23 c -0.98,0 -2.43,-1.78 -3.74,-3.56 -0.15,-0.01 -0.3,-0.02 -0.45,-0.02 -1.02,0 -1.74,0.37 -1.74,1.03 0,0.26 0.11,0.57 0.37,0.93 0.48,0.69 1.42,1.23 2.09,1.23 0.02,0 0.05,0.01 0.06,0.03 l 0.04,0.06 c 0.01,0.01 0.02,0.03 0.02,0.05 0,0.03 -0.02,0.05 -0.04,0.06 0,0.01 -0.01,0.01 -0.02,0.02 -0.1,0.03 -0.2,0.04 -0.31,0.04 -0.77,0 -1.82,-0.61 -2.37,-1.39 -0.28,-0.4 -0.4,-0.75 -0.4,-1.03 0,-0.85 1.03,-1.25 2.26,-1.25 0.11,0 0.22,0 0.32,0.01 -0.3,-0.42 -0.59,-0.83 -0.86,-1.22 -0.36,-0.51 -0.85,-1.01 -1.37,-1.39 -0.48,0.11 -0.98,0.2 -1.55,0.2 l -0.06,0 0.02,-0.22 c 0.47,0 0.87,-0.09 1.25,-0.22 -0.45,-0.28 -0.9,-0.45 -1.29,-0.45 l 0,0 c -0.58,0 -0.94,0.02 -0.94,0.18 0,0.04 0.01,0.08 0.05,0.13 0.19,0.27 0.59,0.36 0.93,0.36 l -0.02,0.22 c -0.49,0 -1.1,-0.01 -1.43,-0.48 -0.07,-0.1 -0.11,-0.19 -0.11,-0.26 0,-0.36 0.8,-0.38 1.32,-0.38 l 0.16,0 c 0.55,0 1.2,0.19 1.83,0.5 l 0.12,-0.05 c 0.57,-0.23 1.14,-0.45 1.91,-0.45 0.82,0 1.93,0.71 2.49,1.52 0.01,0.02 0.02,0.03 0.02,0.05 z"
         style="fill:#ff0000;stroke-width:0"
         inkscape:connector-curvature="0" /></g>    <g
       id="g5011"
       transform="matrix(4,0,0,-4,-372.69371,3332.6253)"
       xml:space="preserve"
       stroke-miterlimit="10.433"
       font-style="normal"
       font-variant="normal"
       font-weight="normal"
       font-stretch="normal"
       font-size-adjust="none"
       letter-spacing="normal"
       word-spacing="normal"
       ns0:text="$\\tilde{\\mathscr{L}}\'$"
       ns0:preamble="/home/eric/BHLectures/Notes/latex_inkscape.ini"
       style="font-style:normal;font-variant:normal;font-weight:normal;font-stretch:normal;letter-spacing:normal;word-spacing:normal;text-anchor:start;fill:#ff0000;fill-opacity:1;fill-rule:evenodd;stroke:#000000;stroke-linecap:butt;stroke-linejoin:miter;stroke-miterlimit:10.43299961;stroke-dasharray:none;stroke-dashoffset:0;stroke-opacity:1"><path
         inkscape:connector-curvature="0"
         style="fill:#ff0000;stroke-width:0"
         d="m 233.44,716.31 -0.16,0.15 c 0,-0.01 -0.38,-0.48 -0.81,-0.48 -0.23,0 -0.48,0.15 -0.65,0.25 -0.27,0.16 -0.45,0.23 -0.62,0.23 -0.38,0 -0.57,-0.22 -1.08,-0.78 l 0.16,-0.14 c 0,0.01 0.38,0.47 0.82,0.47 0.23,0 0.48,-0.15 0.65,-0.24 0.27,-0.16 0.45,-0.23 0.62,-0.23 0.37,0 0.56,0.22 1.07,0.77 z"
         id="path5013" /><path
         inkscape:connector-curvature="0"
         style="fill:#ff0000;stroke-width:0"
         d="m 231.4,708.52 0,0 0,0.01 0,0 0,0 0,0.01 0,0 0,0.01 0,0 -0.01,0 0,0.01 0,0 0,0 0,0.01 -0.01,0 0,0 0,0.01 0,0 -0.01,0 0,0 0,0 -0.01,0.01 0,0 0,0 -0.01,0 0,0 0,0 -0.01,0 0,0.01 -0.01,0 0,0 0,0 -0.01,0 -0.12,0 c -0.02,0 -0.05,-0.01 -0.06,-0.03 -0.46,-0.64 -1.37,-1.13 -2.02,-1.13 -0.67,0 -1.23,0.13 -1.8,0.27 0.64,0.39 1.2,0.9 1.6,1.45 l 1,1.4 c 1.28,0.19 2.61,0.69 3.35,1.74 0.29,0.43 0.45,0.86 0.45,1.2 0,0.46 -0.27,0.77 -0.88,0.77 l -0.04,-0.23 c 0.38,0 0.55,-0.2 0.55,-0.51 0,-0.29 -0.15,-0.69 -0.46,-1.13 -0.62,-0.86 -1.69,-1.35 -2.77,-1.56 1.22,1.7 2.38,3.2 2.68,3.2 l 0,0 0.04,0.23 c -0.98,0 -2.43,-1.78 -3.74,-3.56 -0.15,-0.01 -0.3,-0.02 -0.45,-0.02 -1.02,0 -1.74,0.37 -1.74,1.03 0,0.26 0.11,0.57 0.37,0.93 0.48,0.69 1.42,1.23 2.09,1.23 0.02,0 0.05,0.01 0.06,0.03 l 0.04,0.06 c 0.01,0.01 0.02,0.03 0.02,0.05 0,0.03 -0.02,0.05 -0.04,0.06 0,0.01 -0.01,0.01 -0.02,0.02 -0.1,0.03 -0.2,0.04 -0.31,0.04 -0.77,0 -1.82,-0.61 -2.37,-1.39 -0.28,-0.4 -0.4,-0.75 -0.4,-1.03 0,-0.85 1.03,-1.25 2.26,-1.25 0.11,0 0.22,0 0.32,0.01 -0.3,-0.42 -0.59,-0.83 -0.86,-1.22 -0.36,-0.51 -0.85,-1.01 -1.37,-1.39 -0.48,0.11 -0.98,0.2 -1.55,0.2 l -0.06,0 0.02,-0.22 c 0.47,0 0.87,-0.09 1.25,-0.22 -0.45,-0.28 -0.9,-0.45 -1.29,-0.45 l 0,0 c -0.58,0 -0.94,0.02 -0.94,0.18 0,0.04 0.01,0.08 0.05,0.13 0.19,0.27 0.59,0.36 0.93,0.36 l -0.02,0.22 c -0.49,0 -1.1,-0.01 -1.43,-0.48 -0.07,-0.1 -0.11,-0.19 -0.11,-0.26 0,-0.36 0.8,-0.38 1.32,-0.38 l 0.16,0 c 0.55,0 1.2,0.19 1.83,0.5 l 0.12,-0.05 c 0.57,-0.23 1.14,-0.45 1.91,-0.45 0.82,0 1.93,0.71 2.49,1.52 0.01,0.02 0.02,0.03 0.02,0.05 z"
         id="path5015" /><path
         inkscape:connector-curvature="0"
         style="fill:#ff0000;stroke-width:0"
         d="m 236.07,714.03 0.01,0.01 0,0.01 0.01,0.01 0,0.01 0.01,0.01 0,0.01 0.01,0.01 0,0.01 0,0.01 0,0 0.01,0.01 0,0.01 0,0.01 0,0 0.01,0.01 0,0.01 0,0 0,0.01 0,0.01 0,0 0,0.01 0,0 0.01,0.01 0,0 0,0.01 0,0.01 0,0.01 0,0.01 c 0,0.22 -0.2,0.39 -0.41,0.39 -0.27,0 -0.35,-0.22 -0.39,-0.33 l -0.92,-3.02 c -0.01,-0.01 -0.03,-0.11 -0.03,-0.11 0,-0.09 0.21,-0.16 0.27,-0.16 0.05,0 0.05,0.02 0.1,0.12 z"
         id="path5017" /></g>    <path
       style="fill:none;stroke:#ff0000;stroke-width:3;stroke-linecap:butt;stroke-linejoin:miter;stroke-miterlimit:4;stroke-dasharray:3, 6;stroke-dashoffset:0;stroke-opacity:1;marker-end:url(#marker5192-3)"
       d="M 300.25235,817.13311 C 397.60778,662.01074 523.76267,539.90705 645.63928,465.89046"
       id="path3777-2-6"
       inkscape:connector-curvature="0"
       sodipodi:nodetypes="cc" />
    <g
       style="font-style:normal;font-variant:normal;font-weight:normal;font-stretch:normal;letter-spacing:normal;word-spacing:normal;text-anchor:start;fill:#ff0000;fill-opacity:1;fill-rule:evenodd;stroke:#000000;stroke-linecap:butt;stroke-linejoin:miter;stroke-miterlimit:10.43299961;stroke-dasharray:none;stroke-dashoffset:0;stroke-opacity:1"
       ns0:preamble="/home/eric/BHLectures/Notes/latex_inkscape.ini"
       ns0:text="$\\tilde{\\mathscr{L}}\'\'$"
       word-spacing="normal"
       letter-spacing="normal"
       font-size-adjust="none"
       font-stretch="normal"
       font-weight="normal"
       font-variant="normal"
       font-style="normal"
       stroke-miterlimit="10.433"
       xml:space="preserve"
       transform="matrix(4,0,0,-4,-568.53912,3531.9837)"
       id="g5655"><path
         id="path5657"
         d="m 233.44,716.31 -0.16,0.15 c 0,-0.01 -0.38,-0.48 -0.81,-0.48 -0.23,0 -0.48,0.15 -0.65,0.25 -0.27,0.16 -0.45,0.23 -0.62,0.23 -0.38,0 -0.57,-0.22 -1.08,-0.78 l 0.16,-0.14 c 0,0.01 0.38,0.47 0.82,0.47 0.23,0 0.48,-0.15 0.65,-0.24 0.27,-0.16 0.45,-0.23 0.62,-0.23 0.37,0 0.56,0.22 1.07,0.77 z"
         style="fill:#ff0000;stroke-width:0"
         inkscape:connector-curvature="0" /><path
         id="path5659"
         d="m 231.4,708.52 0,0 0,0.01 0,0 0,0 0,0.01 0,0 0,0.01 0,0 -0.01,0 0,0.01 0,0 0,0 0,0.01 -0.01,0 0,0 0,0.01 0,0 -0.01,0 0,0 0,0 -0.01,0.01 0,0 0,0 -0.01,0 0,0 0,0 -0.01,0 0,0.01 -0.01,0 0,0 0,0 -0.01,0 -0.12,0 c -0.02,0 -0.05,-0.01 -0.06,-0.03 -0.46,-0.64 -1.37,-1.13 -2.02,-1.13 -0.67,0 -1.23,0.13 -1.8,0.27 0.64,0.39 1.2,0.9 1.6,1.45 l 1,1.4 c 1.28,0.19 2.61,0.69 3.35,1.74 0.29,0.43 0.45,0.86 0.45,1.2 0,0.46 -0.27,0.77 -0.88,0.77 l -0.04,-0.23 c 0.38,0 0.55,-0.2 0.55,-0.51 0,-0.29 -0.15,-0.69 -0.46,-1.13 -0.62,-0.86 -1.69,-1.35 -2.77,-1.56 1.22,1.7 2.38,3.2 2.68,3.2 l 0,0 0.04,0.23 c -0.98,0 -2.43,-1.78 -3.74,-3.56 -0.15,-0.01 -0.3,-0.02 -0.45,-0.02 -1.02,0 -1.74,0.37 -1.74,1.03 0,0.26 0.11,0.57 0.37,0.93 0.48,0.69 1.42,1.23 2.09,1.23 0.02,0 0.05,0.01 0.06,0.03 l 0.04,0.06 c 0.01,0.01 0.02,0.03 0.02,0.05 0,0.03 -0.02,0.05 -0.04,0.06 0,0.01 -0.01,0.01 -0.02,0.02 -0.1,0.03 -0.2,0.04 -0.31,0.04 -0.77,0 -1.82,-0.61 -2.37,-1.39 -0.28,-0.4 -0.4,-0.75 -0.4,-1.03 0,-0.85 1.03,-1.25 2.26,-1.25 0.11,0 0.22,0 0.32,0.01 -0.3,-0.42 -0.59,-0.83 -0.86,-1.22 -0.36,-0.51 -0.85,-1.01 -1.37,-1.39 -0.48,0.11 -0.98,0.2 -1.55,0.2 l -0.06,0 0.02,-0.22 c 0.47,0 0.87,-0.09 1.25,-0.22 -0.45,-0.28 -0.9,-0.45 -1.29,-0.45 l 0,0 c -0.58,0 -0.94,0.02 -0.94,0.18 0,0.04 0.01,0.08 0.05,0.13 0.19,0.27 0.59,0.36 0.93,0.36 l -0.02,0.22 c -0.49,0 -1.1,-0.01 -1.43,-0.48 -0.07,-0.1 -0.11,-0.19 -0.11,-0.26 0,-0.36 0.8,-0.38 1.32,-0.38 l 0.16,0 c 0.55,0 1.2,0.19 1.83,0.5 l 0.12,-0.05 c 0.57,-0.23 1.14,-0.45 1.91,-0.45 0.82,0 1.93,0.71 2.49,1.52 0.01,0.02 0.02,0.03 0.02,0.05 z"
         style="fill:#ff0000;stroke-width:0"
         inkscape:connector-curvature="0" /><path
         id="path5661"
         d="m 236.07,714.03 0.01,0.01 0,0.01 0.01,0.01 0,0.01 0.01,0.01 0,0.01 0.01,0.01 0,0.01 0,0.01 0,0 0.01,0.01 0,0.01 0,0.01 0,0 0.01,0.01 0,0.01 0,0 0,0.01 0,0.01 0,0 0,0.01 0,0 0.01,0.01 0,0 0,0.01 0,0.01 0,0.01 0,0.01 c 0,0.22 -0.2,0.39 -0.41,0.39 -0.27,0 -0.35,-0.22 -0.39,-0.33 l -0.92,-3.02 c -0.01,-0.01 -0.03,-0.11 -0.03,-0.11 0,-0.09 0.21,-0.16 0.27,-0.16 0.05,0 0.05,0.02 0.1,0.12 z"
         style="fill:#ff0000;stroke-width:0"
         inkscape:connector-curvature="0" /><path
         id="path5663"
         d="m 238.37,714.03 0.01,0.01 0,0.01 0,0.01 0.01,0.01 0,0.01 0.01,0.01 0,0.01 0,0.01 0.01,0.01 0,0 0,0.01 0,0.01 0.01,0.01 0,0 0,0.01 0,0.01 0,0 0.01,0.01 0,0.01 0,0 0,0.01 0,0 0,0.01 0,0 0,0.01 0,0.01 0,0.01 0,0.01 c 0,0.22 -0.19,0.39 -0.41,0.39 -0.26,0 -0.35,-0.22 -0.38,-0.33 l -0.92,-3.02 c -0.01,-0.01 -0.04,-0.11 -0.04,-0.11 0,-0.09 0.22,-0.16 0.27,-0.16 0.05,0 0.06,0.02 0.11,0.12 z"
         style="fill:#ff0000;stroke-width:0"
         inkscape:connector-curvature="0" /></g>    <path
       style="fill:none;fill-rule:evenodd;stroke:#ff0000;stroke-width:1px;stroke-linecap:butt;stroke-linejoin:miter;stroke-opacity:1;marker-end:url(#Arrow1Lendi)"
       d="m 539.51641,509.08608 18.17186,34.46388"
       id="path5734"
       inkscape:connector-curvature="0" />
    <path
       sodipodi:type="arc"
       style="fill:#000000;fill-opacity:1;stroke:none"
       id="path3755-8"
       sodipodi:cx="408.28229"
       sodipodi:cy="402.15805"
       sodipodi:rx="7.1449404"
       sodipodi:ry="7.1449404"
       d="m 415.42723,402.15805 a 7.1449404,7.1449404 0 0 1 -7.14494,7.14494 7.1449404,7.1449404 0 0 1 -7.14494,-7.14494 7.1449404,7.1449404 0 0 1 7.14494,-7.14494 7.1449404,7.1449404 0 0 1 7.14494,7.14494 z"
       transform="matrix(0.91711951,0,0,0.91711951,-75.41607,450.74678)" />
    <path
       sodipodi:type="arc"
       style="fill:#000000;fill-opacity:1;stroke:none"
       id="path3755"
       sodipodi:cx="408.28229"
       sodipodi:cy="402.15805"
       sodipodi:rx="7.1449404"
       sodipodi:ry="7.1449404"
       d="m 415.42723,402.15805 a 7.1449404,7.1449404 0 0 1 -7.14494,7.14494 7.1449404,7.1449404 0 0 1 -7.14494,-7.14494 7.1449404,7.1449404 0 0 1 7.14494,-7.14494 7.1449404,7.1449404 0 0 1 7.14494,7.14494 z"
       transform="matrix(0.91711951,0,0,0.91711951,-50.795445,454.20313)" />
  </g>
</svg>
