<?xml version="1.0" encoding="UTF-8" standalone="no"?>
<!-- Created with Inkscape (http://www.inkscape.org/) -->

<svg
   xmlns:ns0="http://www.iki.fi/pav/software/textext/"
   xmlns:dc="http://purl.org/dc/elements/1.1/"
   xmlns:cc="http://creativecommons.org/ns#"
   xmlns:rdf="http://www.w3.org/1999/02/22-rdf-syntax-ns#"
   xmlns:svg="http://www.w3.org/2000/svg"
   xmlns="http://www.w3.org/2000/svg"
   xmlns:sodipodi="http://sodipodi.sourceforge.net/DTD/sodipodi-0.dtd"
   xmlns:inkscape="http://www.inkscape.org/namespaces/inkscape"
   width="1052.3622"
   height="744.09448"
   id="svg2"
   version="1.1"
   inkscape:version="0.48.4 r9939"
   sodipodi:docname="ker_spher_view.svg">
  <sodipodi:namedview
     id="base"
     pagecolor="#ffffff"
     bordercolor="#666666"
     borderopacity="1.0"
     inkscape:pageopacity="0.0"
     inkscape:pageshadow="2"
     inkscape:zoom="1.4179372"
     inkscape:cx="529.18635"
     inkscape:cy="341.78286"
     inkscape:document-units="px"
     inkscape:current-layer="layer1"
     showgrid="false"
     inkscape:window-width="1535"
     inkscape:window-height="876"
     inkscape:window-x="65"
     inkscape:window-y="24"
     inkscape:window-maximized="1">
    <inkscape:grid
       type="xygrid"
       id="grid2985"
       empspacing="5"
       visible="true"
       enabled="true"
       snapvisiblegridlinesonly="true" />
  </sodipodi:namedview>
  <defs
     id="defs4">
    <marker
       inkscape:stockid="Arrow2Lstart"
       orient="auto"
       refY="0.0"
       refX="0.0"
       id="Arrow2Lstart"
       style="overflow:visible">
      <path
         id="path3961"
         style="fill-rule:evenodd;stroke-width:0.62500000;stroke-linejoin:round"
         d="M 8.7185878,4.0337352 L -2.2072895,0.016013256 L 8.7185884,-4.0017078 C 6.9730900,-1.6296469 6.9831476,1.6157441 8.7185878,4.0337352 z "
         transform="scale(1.1) translate(1,0)" />
    </marker>
    <marker
       inkscape:stockid="Arrow1Lstart"
       orient="auto"
       refY="0.0"
       refX="0.0"
       id="Arrow1Lstart"
       style="overflow:visible">
      <path
         id="path3943"
         d="M 0.0,0.0 L 5.0,-5.0 L -12.5,0.0 L 5.0,5.0 L 0.0,0.0 z "
         style="fill-rule:evenodd;stroke:#000000;stroke-width:1.0pt"
         transform="scale(0.8) translate(12.5,0)" />
    </marker>
    <marker
       inkscape:stockid="Arrow1Lend"
       orient="auto"
       refY="0.0"
       refX="0.0"
       id="Arrow1Lend"
       style="overflow:visible;">
      <path
         id="path3946"
         d="M 0.0,0.0 L 5.0,-5.0 L -12.5,0.0 L 5.0,5.0 L 0.0,0.0 z "
         style="fill-rule:evenodd;stroke:#000000;stroke-width:1.0pt;"
         transform="scale(0.8) rotate(180) translate(12.5,0)" />
    </marker>
    <inkscape:perspective
       sodipodi:type="inkscape:persp3d"
       inkscape:vp_x="0 : 372.04724 : 1"
       inkscape:vp_y="0 : 1000 : 0"
       inkscape:vp_z="1052.3622 : 372.04724 : 1"
       inkscape:persp3d-origin="526.18109 : 248.03149 : 1"
       id="perspective3783" />
    <marker
       inkscape:stockid="Arrow1Lend"
       orient="auto"
       refY="0"
       refX="0"
       id="Arrow1Lend-0"
       style="overflow:visible">
      <path
         inkscape:connector-curvature="0"
         id="path3946-0"
         d="M 0,0 5,-5 -12.5,0 5,5 0,0 z"
         style="fill-rule:evenodd;stroke:#000000;stroke-width:1pt"
         transform="matrix(-0.8,0,0,-0.8,-10,0)" />
    </marker>
    <marker
       inkscape:stockid="Arrow1Lendg"
       orient="auto"
       refY="0.0"
       refX="0.0"
       id="Arrow1Lendg"
       style="overflow:visible;">
      <path
         id="path5547"
         d="M 0.0,0.0 L 5.0,-5.0 L -12.5,0.0 L 5.0,5.0 L 0.0,0.0 z "
         style="stroke:#aa8800;stroke-width:1.0pt;fill:#aa8800;fill-rule:evenodd"
         transform="scale(0.8) rotate(180) translate(12.5,0)" />
    </marker>
    <marker
       inkscape:stockid="Arrow1Lendg"
       orient="auto"
       refY="0"
       refX="0"
       id="Arrow1Lendg-3"
       style="overflow:visible">
      <path
         id="path5547-6"
         d="M 0,0 5,-5 -12.5,0 5,5 0,0 z"
         style="fill:#aa8800;fill-rule:evenodd;stroke:#aa8800;stroke-width:1pt"
         transform="matrix(-0.8,0,0,-0.8,-10,0)"
         inkscape:connector-curvature="0" />
    </marker>
    <marker
       inkscape:stockid="Arrow1LendgG"
       orient="auto"
       refY="0.0"
       refX="0.0"
       id="Arrow1LendgG"
       style="overflow:visible;">
      <path
         id="path5664"
         d="M 0.0,0.0 L 5.0,-5.0 L -12.5,0.0 L 5.0,5.0 L 0.0,0.0 z "
         style="fill-rule:evenodd;stroke:#ff6600;stroke-width:1.0pt;fill:#ff6600"
         transform="scale(0.8) rotate(180) translate(12.5,0)" />
    </marker>
    <marker
       inkscape:stockid="Arrow1LendgGG"
       orient="auto"
       refY="0.0"
       refX="0.0"
       id="Arrow1LendgGG"
       style="overflow:visible;">
      <path
         id="path5763"
         d="M 0.0,0.0 L 5.0,-5.0 L -12.5,0.0 L 5.0,5.0 L 0.0,0.0 z "
         style="stroke:#d45500;stroke-width:1.0pt;fill:#d45500;fill-rule:evenodd"
         transform="scale(0.8) rotate(180) translate(12.5,0)" />
    </marker>
    <marker
       inkscape:stockid="Arrow1Lend"
       orient="auto"
       refY="0"
       refX="0"
       id="Arrow1Lend-1"
       style="overflow:visible">
      <path
         id="path3946-6"
         d="M 0,0 5,-5 -12.5,0 5,5 0,0 z"
         style="fill-rule:evenodd;stroke:#000000;stroke-width:1pt"
         transform="matrix(-0.8,0,0,-0.8,-10,0)"
         inkscape:connector-curvature="0" />
    </marker>
    <marker
       inkscape:stockid="Arrow1Lendk"
       orient="auto"
       refY="0.0"
       refX="0.0"
       id="Arrow1Lendk"
       style="overflow:visible;">
      <path
         id="path4004"
         d="M 0.0,0.0 L 5.0,-5.0 L -12.5,0.0 L 5.0,5.0 L 0.0,0.0 z "
         style="stroke:#0000ff;stroke-width:1.0pt;fill:#0000ff;fill-rule:evenodd"
         transform="scale(0.8) rotate(180) translate(12.5,0)" />
    </marker>
    <marker
       inkscape:stockid="Arrow1LendgGG"
       orient="auto"
       refY="0"
       refX="0"
       id="Arrow1LendgGG-0"
       style="overflow:visible">
      <path
         inkscape:connector-curvature="0"
         id="path5763-6"
         d="M 0,0 5,-5 -12.5,0 5,5 0,0 z"
         style="fill:#d45500;fill-rule:evenodd;stroke:#d45500;stroke-width:1pt"
         transform="matrix(-0.8,0,0,-0.8,-10,0)" />
    </marker>
    <marker
       inkscape:stockid="Arrow1LendgGGK"
       orient="auto"
       refY="0.0"
       refX="0.0"
       id="Arrow1LendgGGK"
       style="overflow:visible;">
      <path
         id="path4382"
         d="M 0.0,0.0 L 5.0,-5.0 L -12.5,0.0 L 5.0,5.0 L 0.0,0.0 z "
         style="fill-rule:evenodd;stroke:#000000;stroke-width:1.0pt;fill:#000000"
         transform="scale(0.8) rotate(180) translate(12.5,0)" />
    </marker>
    <marker
       inkscape:stockid="Arrow1LendgGG"
       orient="auto"
       refY="0"
       refX="0"
       id="Arrow1LendgGG-5"
       style="overflow:visible">
      <path
         id="path5763-2"
         d="M 0,0 5,-5 -12.5,0 5,5 0,0 z"
         style="fill:#d45500;fill-rule:evenodd;stroke:#d45500;stroke-width:1pt"
         transform="matrix(-0.8,0,0,-0.8,-10,0)"
         inkscape:connector-curvature="0" />
    </marker>
    <marker
       inkscape:stockid="Arrow1LendgGGr"
       orient="auto"
       refY="0.0"
       refX="0.0"
       id="Arrow1LendgGGr"
       style="overflow:visible;">
      <path
         id="path6471"
         d="M 0.0,0.0 L 5.0,-5.0 L -12.5,0.0 L 5.0,5.0 L 0.0,0.0 z "
         style="fill-rule:evenodd;stroke:#a02c2c;stroke-width:1.0pt;fill:#a02c2c"
         transform="scale(0.8) rotate(180) translate(12.5,0)" />
    </marker>
  </defs>
  <metadata
     id="metadata7">
    <rdf:RDF>
      <cc:Work
         rdf:about="">
        <dc:format>image/svg+xml</dc:format>
        <dc:type
           rdf:resource="http://purl.org/dc/dcmitype/StillImage" />
        <dc:title />
      </cc:Work>
    </rdf:RDF>
  </metadata>
  <g
     inkscape:label="Calque 1"
     inkscape:groupmode="layer"
     id="layer1"
     transform="translate(0,-308.2677)">
    <path
       style="fill:#e6e6e6;stroke:#000000;stroke-width:1.03008068px;stroke-linecap:butt;stroke-linejoin:miter;stroke-opacity:1"
       d="m 139.20139,822.33256 779.96992,0 -89.99653,-201.61037 -599.97686,0 z"
       id="path2989"
       inkscape:connector-curvature="0" />
    <path
       style="fill:none;stroke:#000000;stroke-width:2;stroke-linecap:butt;stroke-linejoin:miter;stroke-miterlimit:4;stroke-opacity:1;stroke-dasharray:16,4,2,4;stroke-dashoffset:0"
       d="M 521.97183,469.47284 519.58588,966.6429"
       id="path2991"
       inkscape:connector-curvature="0"
       sodipodi:nodetypes="cc" />
    <path
       transform="matrix(2.6787923,0,0,2.6787923,-538.68479,192.14714)"
       sodipodi:type="arc"
       style="fill:none;stroke:#000000;stroke-width:1.11990762;stroke-miterlimit:4;stroke-opacity:1;stroke-dasharray:none"
       id="path3763-8"
       sodipodi:cx="395"
       sodipodi:cy="199.09448"
       sodipodi:rx="75"
       sodipodi:ry="75"
       d="m 470,199.09448 c 0,41.42136 -33.57864,75 -75,75 -41.42136,0 -75,-33.57864 -75,-75 0,-41.42135 33.57864,-75 75,-75 41.42136,0 75,33.57865 75,75 z" />
    <path
       sodipodi:type="arc"
       style="fill:none;stroke:#000000;stroke-width:1.79856002;stroke-miterlimit:4;stroke-opacity:1;stroke-dasharray:none;stroke-dashoffset:0"
       id="path3803"
       sodipodi:cx="530.25665"
       sodipodi:cy="434.82065"
       sodipodi:rx="203.6308"
       sodipodi:ry="52.055992"
       d="m 733.88745,434.82065 c 0,28.74973 -91.16861,52.05599 -203.6308,52.05599 -112.46218,0 -203.6308,-23.30626 -203.6308,-52.05599 0,0 0,0 0,0"
       transform="matrix(0.97939985,0,0,1.2625543,-0.1852545,175.11435)"
       sodipodi:start="0"
       sodipodi:end="3.1415927"
       sodipodi:open="true" />
    <path
       sodipodi:type="arc"
       style="fill:none;stroke:#000000;stroke-width:1.79856002;stroke-miterlimit:4;stroke-opacity:1;stroke-dasharray:10.7913604, 10.7913604;stroke-dashoffset:0"
       id="path3803-3"
       sodipodi:cx="530.25665"
       sodipodi:cy="434.82065"
       sodipodi:rx="203.6308"
       sodipodi:ry="52.055992"
       d="m 733.88745,434.82065 c 0,28.74973 -91.16861,52.05599 -203.6308,52.05599 -112.46218,0 -203.6308,-23.30626 -203.6308,-52.05599 0,0 0,0 0,0"
       transform="matrix(-0.97939985,0,0,-1.2625543,1038.9916,1271.7518)"
       sodipodi:start="0"
       sodipodi:end="3.1415927"
       sodipodi:open="true" />
    <path
       sodipodi:type="arc"
       style="fill:none;stroke:#0000ff;stroke-width:1.79856002000000004;stroke-miterlimit:4;stroke-opacity:1;stroke-dasharray:none;stroke-dashoffset:0"
       id="path3803-5"
       sodipodi:cx="530.25665"
       sodipodi:cy="434.82065"
       sodipodi:rx="203.6308"
       sodipodi:ry="52.055992"
       d="m 733.88745,434.82065 c 0,28.74973 -91.16861,52.05599 -203.6308,52.05599 -112.46218,0 -203.6308,-23.30626 -203.6308,-52.05599 0,0 0,0 0,0"
       transform="matrix(1.3334152,0,0,1.7189191,-185.67296,-25.442482)"
       sodipodi:start="0"
       sodipodi:end="3.1415927"
       sodipodi:open="true" />
    <path
       sodipodi:type="arc"
       style="fill:none;stroke:#0000ff;stroke-width:0.99280002000000001;stroke-miterlimit:4;stroke-opacity:1;stroke-dasharray:5.95680015000000029, 5.95680015000000029;stroke-dashoffset:0"
       id="path3803-3-5"
       sodipodi:cx="530.25665"
       sodipodi:cy="434.82065"
       sodipodi:rx="203.6308"
       sodipodi:ry="52.055992"
       d="m 733.88745,434.82065 c 0,28.74973 -91.16861,52.05599 -203.6308,52.05599 -112.46218,0 -203.6308,-23.30626 -203.6308,-52.05599 0,0 0,0 0,0"
       transform="matrix(-1.3307132,0,0,-1.7154359,1226.9563,1464.4645)"
       sodipodi:start="0"
       sodipodi:end="3.1415927"
       sodipodi:open="true" />
    <path
       transform="matrix(1.8730429,0,0,1.8730429,-221.72466,352.43264)"
       sodipodi:type="arc"
       style="fill:none;stroke:#d4aa00;stroke-width:1.60167181;stroke-miterlimit:4;stroke-opacity:1;stroke-dasharray:none"
       id="path3763-8-8"
       sodipodi:cx="395"
       sodipodi:cy="199.09448"
       sodipodi:rx="75"
       sodipodi:ry="75"
       d="m 470,199.09448 c 0,41.42136 -33.57864,75 -75,75 -41.42136,0 -75,-33.57864 -75,-75 0,-41.42135 33.57864,-75 75,-75 41.42136,0 75,33.57865 75,75 z" />
    <path
       sodipodi:type="arc"
       style="fill:none;stroke:#d4aa00;stroke-width:2.57226825;stroke-miterlimit:4;stroke-opacity:1;stroke-dasharray:none;stroke-dashoffset:0"
       id="path3803-4"
       sodipodi:cx="530.25665"
       sodipodi:cy="434.82065"
       sodipodi:rx="203.6308"
       sodipodi:ry="52.055992"
       d="m 733.88745,434.82065 c 0,28.74973 -91.16861,52.05599 -203.6308,52.05599 -112.46218,0 -203.6308,-23.30626 -203.6308,-52.05599 0,0 0,0 0,0"
       transform="matrix(0.68480784,0,0,0.88279275,154.80052,340.52311)"
       sodipodi:start="0"
       sodipodi:end="3.1415927"
       sodipodi:open="true" />
    <path
       sodipodi:type="arc"
       style="fill:none;stroke:#d4aa00;stroke-width:2.57226825;stroke-miterlimit:4;stroke-opacity:1;stroke-dasharray:20.57814582, 20.57814582;stroke-dashoffset:0"
       id="path3803-3-4"
       sodipodi:cx="530.25665"
       sodipodi:cy="434.82065"
       sodipodi:rx="203.6308"
       sodipodi:ry="52.055992"
       d="m 733.88745,434.82065 c 0,28.74973 -91.16861,52.05599 -203.6308,52.05599 -112.46218,0 -203.6308,-23.30626 -203.6308,-52.05599 0,0 0,0 0,0"
       transform="matrix(-0.68480784,0,0,-0.88279275,881.40512,1107.3048)"
       sodipodi:start="0"
       sodipodi:end="3.1415927"
       sodipodi:open="true" />
    <path
       sodipodi:type="arc"
       style="fill:none;stroke:#000000;stroke-width:6.3577528;stroke-miterlimit:4;stroke-opacity:1;stroke-dasharray:none;stroke-dashoffset:0;marker-start:url(#Arrow2Lstart);marker-end:none"
       id="path3803-4-9"
       sodipodi:cx="530.25665"
       sodipodi:cy="434.82065"
       sodipodi:rx="203.6308"
       sodipodi:ry="52.055992"
       d="m 663.18689,395.38667 c 85.19349,18.76783 94.74156,51.63736 21.32622,73.41614 -73.41534,21.77879 -201.9932,24.21965 -287.18669,5.45182 -85.19349,-18.76783 -94.74157,-51.63736 -21.32622,-73.41615 7.13249,-2.11586 14.91956,-4.08155 23.28578,-5.87801"
       transform="matrix(0.2077986,0,0,0.26787528,410.20092,379.07453)"
       sodipodi:start="5.4236641"
       sodipodi:end="10.296934"
       sodipodi:open="true" />
    <text
       sodipodi:linespacing="125%"
       id="text5307"
       y="965.67273"
       x="528.0896"
       style="font-size:22px;font-style:normal;font-weight:normal;line-height:125%;letter-spacing:0px;word-spacing:0px;fill:#000000;fill-opacity:1;stroke:none;font-family:Sans"
       xml:space="preserve"><tspan
         style="font-size:24px;font-style:normal;font-variant:normal;font-weight:normal;font-stretch:normal;font-family:Nimbus Roman No9 L;-inkscape-font-specification:Nimbus Roman No9 L"
         y="965.67273"
         x="528.0896"
         id="tspan5309"
         sodipodi:role="line">rotation axis</tspan></text>
    <path
       sodipodi:nodetypes="cc"
       inkscape:connector-curvature="0"
       id="path5323"
       d="m 679.21921,505.82348 c -2.21358,20.91386 -17.23293,36.54634 -48.11278,49.26158"
       style="fill:none;stroke:#000000;stroke-width:1px;stroke-linecap:butt;stroke-linejoin:miter;stroke-miterlimit:4;stroke-opacity:1;stroke-dasharray:none;marker-end:url(#Arrow1Lend)" />
    <path
       sodipodi:nodetypes="cc"
       inkscape:connector-curvature="0"
       id="path5323-6"
       d="M 760.58178,592.63321 C 746.39158,622.806 693.86057,639.961 641.5072,654.26686"
       style="fill:none;stroke:#aa8800;stroke-width:1px;stroke-linecap:butt;stroke-linejoin:miter;stroke-miterlimit:4;stroke-opacity:1;stroke-dasharray:none;marker-end:url(#Arrow1Lendg)" />
    <path
       sodipodi:nodetypes="cc"
       inkscape:connector-curvature="0"
       id="path5323-6-7"
       d="m 631.93199,717.07241 c -14.6281,22.93694 -44.26892,24.44614 -65.89418,22.45531"
       style="fill:none;stroke:#d45500;stroke-width:1px;stroke-linecap:butt;stroke-linejoin:miter;stroke-miterlimit:4;stroke-opacity:1;stroke-dasharray:none;marker-end:url(#Arrow1LendgGG)" />
    <text
       xml:space="preserve"
       style="font-size:22px;font-style:normal;font-variant:normal;font-weight:normal;font-stretch:normal;line-height:125%;letter-spacing:0px;word-spacing:0px;fill:#000000;fill-opacity:1;stroke:none;font-family:Nimbus Roman No9 L;-inkscape-font-specification:Nimbus Roman No9 L"
       x="362.66394"
       y="546.54138"
       id="text5844"
       sodipodi:linespacing="125%"><tspan
         sodipodi:role="line"
         id="tspan5846"
         x="362.66394"
         y="546.54138"
         style="font-size:28.00000191px;fill:#666666">I</tspan></text>
    <text
       xml:space="preserve"
       style="font-size:22px;font-style:normal;font-variant:normal;font-weight:normal;font-stretch:normal;line-height:125%;letter-spacing:0px;word-spacing:0px;fill:#000000;fill-opacity:1;stroke:none;font-family:Nimbus Roman No9 L;-inkscape-font-specification:Nimbus Roman No9 L"
       x="399.35837"
       y="601.1424"
       id="text5844-7"
       sodipodi:linespacing="125%"><tspan
         sodipodi:role="line"
         id="tspan5846-7"
         x="399.35837"
         y="601.1424"
         style="font-size:28.00000191px;fill:#666666">II</tspan></text>
    <text
       xml:space="preserve"
       style="font-size:22px;font-style:normal;font-variant:normal;font-weight:normal;font-stretch:normal;line-height:125%;letter-spacing:0px;word-spacing:0px;fill:#000000;fill-opacity:1;stroke:none;font-family:Nimbus Roman No9 L;-inkscape-font-specification:Nimbus Roman No9 L"
       x="444.78748"
       y="644.88477"
       id="text5844-7-8"
       sodipodi:linespacing="125%"><tspan
         sodipodi:role="line"
         id="tspan5846-7-7"
         x="444.78748"
         y="644.88477"
         style="font-size:28.00000191px;fill:#666666">III</tspan></text>
    <g
       transform="matrix(0.28822802,0,0,0.28822802,372.50241,516.13511)"
       id="g3825-2-0"
       style="stroke:#d45500">
      <path
         sodipodi:open="true"
         sodipodi:end="3.1415927"
         sodipodi:start="0"
         transform="matrix(0.97939985,0,0,1.2625543,-3.3665172,171.13777)"
         d="m 733.88745,434.82065 c 0,28.74973 -91.16861,52.05599 -203.6308,52.05599 -112.46218,0 -203.6308,-23.30626 -203.6308,-52.05599 0,0 0,0 0,0"
         sodipodi:ry="52.055992"
         sodipodi:rx="203.6308"
         sodipodi:cy="434.82065"
         sodipodi:cx="530.25665"
         id="path3803-4-8"
         style="fill:none;stroke:#d45500;stroke-width:15.60014937;stroke-miterlimit:4;stroke-opacity:1;stroke-dasharray:none;stroke-dashoffset:0"
         sodipodi:type="arc" />
      <path
         sodipodi:open="true"
         sodipodi:end="3.1415927"
         sodipodi:start="0"
         transform="matrix(-0.97939985,0,0,-1.2625543,1035.8103,1267.7752)"
         d="m 733.88745,434.82065 c 0,28.74973 -91.16861,52.05599 -203.6308,52.05599 -112.46218,0 -203.6308,-23.30626 -203.6308,-52.05599 0,0 0,0 0,0"
         sodipodi:ry="52.055992"
         sodipodi:rx="203.6308"
         sodipodi:cy="434.82065"
         sodipodi:cx="530.25665"
         id="path3803-3-4-1"
         style="fill:none;stroke:#d45500;stroke-width:12.4801195;stroke-miterlimit:4;stroke-opacity:1;stroke-dasharray:none;stroke-dashoffset:0"
         sodipodi:type="arc" />
    </g>
    <text
       sodipodi:linespacing="125%"
       id="text5908"
       y="769.65082"
       x="832.97607"
       style="font-size:22px;font-style:normal;font-variant:normal;font-weight:normal;font-stretch:normal;line-height:125%;letter-spacing:0px;word-spacing:0px;fill:#000000;fill-opacity:1;stroke:none;font-family:Nimbus Roman No9 L;-inkscape-font-specification:Nimbus Roman No9 L"
       xml:space="preserve"><tspan
         id="tspan5912"
         y="769.65082"
         x="832.97607"
         sodipodi:role="line">plane </tspan></text>
    <path
       sodipodi:nodetypes="csc"
       transform="translate(0,308.2677)"
       inkscape:connector-curvature="0"
       id="path3037"
       d="m 249.9274,417.47704 c -0.68473,-78.05952 -2.72011,-209.29868 100.65569,-207.47398 91.11077,1.60821 60.25646,8.90153 169.12895,4.79312"
       style="fill:none;stroke:#0000ff;stroke-width:2;stroke-linecap:butt;stroke-linejoin:miter;stroke-miterlimit:4;stroke-opacity:1;stroke-dasharray:none" />
    <path
       sodipodi:nodetypes="csc"
       inkscape:connector-curvature="0"
       id="path3037-8"
       d="m 792.56427,726.09797 c -1.36946,-97.23204 2.03538,-209.29868 -101.34042,-207.47398 -91.11077,1.60821 -60.25646,8.90153 -169.12895,4.79312"
       style="fill:none;stroke:#0000ff;stroke-width:2;stroke-linecap:butt;stroke-linejoin:miter;stroke-miterlimit:4;stroke-opacity:1;stroke-dasharray:none" />
    <path
       sodipodi:nodetypes="csc"
       inkscape:connector-curvature="0"
       id="path3037-7"
       d="m 250.28347,725.3915 c 3.42366,95.86257 -2.72011,209.29868 100.65569,207.47398 91.11077,-1.60821 60.25646,-8.90153 169.12895,-4.79312"
       style="fill:none;stroke:#0000ff;stroke-width:2;stroke-linecap:butt;stroke-linejoin:miter;stroke-miterlimit:4;stroke-opacity:1;stroke-dasharray:none" />
    <path
       sodipodi:nodetypes="csc"
       inkscape:connector-curvature="0"
       id="path3037-8-1"
       d="m 792.56426,725.3915 c -1.36947,89.01524 2.72011,209.29868 -100.65569,207.47398 -91.11077,-1.60821 -60.25646,-8.90153 -169.12895,-4.79312"
       style="fill:none;stroke:#0000ff;stroke-width:2;stroke-linecap:butt;stroke-linejoin:miter;stroke-miterlimit:4;stroke-opacity:1;stroke-dasharray:none" />
    <text
       sodipodi:linespacing="125%"
       id="text5311-1"
       y="467.41174"
       x="168.43356"
       style="font-size:22px;font-style:normal;font-weight:normal;line-height:125%;letter-spacing:0px;word-spacing:0px;fill:#000000;fill-opacity:1;stroke:none;font-family:Sans"
       xml:space="preserve"><tspan
         style="font-size:24px;font-style:normal;font-variant:normal;font-weight:normal;font-stretch:normal;fill:#0000ff;font-family:Nimbus Roman No9 L;-inkscape-font-specification:Nimbus Roman No9 L"
         id="tspan5315-7"
         y="467.41174"
         x="168.43356"
         sodipodi:role="line">    outer</tspan><tspan
         style="font-size:24px;font-style:normal;font-variant:normal;font-weight:normal;font-stretch:normal;fill:#0000ff;font-family:Nimbus Roman No9 L;-inkscape-font-specification:Nimbus Roman No9 L"
         y="497.41174"
         x="168.43356"
         sodipodi:role="line"
         id="tspan4824">ergosphere</tspan></text>
    <path
       sodipodi:nodetypes="cc"
       inkscape:connector-curvature="0"
       id="path5323-4"
       d="m 220.39315,507.33462 c 2.21358,20.91386 17.23293,36.54634 48.11278,49.26158"
       style="fill:none;stroke:#0000ff;stroke-width:1px;stroke-linecap:butt;stroke-linejoin:miter;stroke-miterlimit:4;stroke-opacity:1;stroke-dasharray:none;marker-end:url(#Arrow1Lendk)" />
    <g
       ns0:preamble="/home/eric/BHLectures/Notes/latex_inkscape.ini"
       ns0:text="$\\mathscr{H}$ ($r=r_+$)"
       word-spacing="normal"
       letter-spacing="normal"
       font-size-adjust="none"
       font-stretch="normal"
       font-weight="normal"
       font-variant="normal"
       font-style="normal"
       stroke-miterlimit="10.433"
       xml:space="preserve"
       transform="matrix(3,0,0,-3,-6.327687,2618.7121)"
       id="g3284"
       style="font-style:normal;font-variant:normal;font-weight:normal;font-stretch:normal;letter-spacing:normal;word-spacing:normal;text-anchor:start;fill:none;stroke:#000000;stroke-linecap:butt;stroke-linejoin:miter;stroke-miterlimit:10.43299961;stroke-opacity:1;stroke-dasharray:none;stroke-dashoffset:0"><path
         id="path3286"
         d="m 232.59,708.52 -0.01,0 0,0 0,0.01 0,0 0,0.01 0,0 0,0.01 0,0 0,0 -0.01,0.01 0,0 0,0 0,0.01 0,0 -0.01,0 0,0 0,0.01 -0.01,0 0,0 0,0 -0.01,0 0,0.01 0,0 -0.01,0 0,0 0,0 -0.01,0 0,0 0,0 -0.01,0 0,0 0,0 h -0.11 c -0.03,0 -0.06,0 -0.07,-0.02 -0.47,-0.66 -1.1,-1.31 -1.59,-1.31 -0.4,0 -0.57,0.19 -0.57,0.51 0,0.48 0.4,1.25 0.98,2.09 0.24,0.34 0.48,0.67 0.73,1.01 1.33,0.08 2.66,0.37 3.4,1.42 0.31,0.44 0.49,0.88 0.49,1.23 0,0.38 -0.21,0.64 -0.71,0.64 l -0.04,-0.22 c 0.33,0 0.49,-0.17 0.49,-0.45 0,-0.28 -0.17,-0.66 -0.48,-1.1 -0.64,-0.9 -1.77,-1.19 -2.98,-1.29 1.1,1.5 2.23,2.84 2.97,2.84 h 0 l 0.04,0.22 c -1.41,0 -2.77,-1.5 -3.96,-3.1 h -1.27 c 0.74,0.99 1.49,1.99 2.27,2.97 0.02,0.03 0.02,0.05 0.02,0.08 l -0.03,0.08 c -0.01,0.03 -0.04,0.06 -0.08,0.06 -0.02,0 -0.04,-0.01 -0.06,-0.03 -0.5,-0.48 -0.99,-0.96 -1.52,-1.48 -0.37,-0.52 -1.13,-0.88 -1.69,-0.88 -0.11,0 -0.19,0.06 -0.19,0.16 0,0.07 0.04,0.16 0.11,0.27 0.14,0.21 0.21,0.4 0.21,0.56 0,0.32 -0.26,0.53 -0.7,0.53 -0.52,0 -1.06,-0.64 -1.43,-1.17 0,-0.01 0,-0.03 0,-0.04 0,-0.05 0.02,-0.09 0.08,-0.09 h 0.1 c 0.03,0 0.05,0.02 0.07,0.04 0.38,0.54 0.76,1.04 1.14,1.04 0.16,0 0.25,-0.08 0.25,-0.22 0,-0.14 -0.08,-0.32 -0.24,-0.55 -0.09,-0.13 -0.13,-0.24 -0.13,-0.34 0,-0.28 0.34,-0.4 0.7,-0.4 0.29,0 0.64,0.07 0.97,0.22 -0.25,-0.28 -0.5,-0.57 -0.74,-0.86 -1.14,-0.11 -2.26,-0.44 -2.94,-1.4 l -0.01,-0.05 c 0,-0.04 0.03,-0.08 0.08,-0.08 h 0.11 c 0.03,0 0.06,0.01 0.07,0.03 0.57,0.81 1.5,1.13 2.49,1.25 -0.39,-0.5 -0.78,-0.99 -1.14,-1.5 -0.74,-1.05 -1.65,-2.14 -2.49,-2.14 -0.66,0 -1.14,0.2 -1.14,0.61 0,0.1 0.03,0.21 0.09,0.34 0.07,-0.1 0.18,-0.15 0.3,-0.15 0.26,0 0.55,0.2 0.55,0.39 0,0.24 -0.15,0.34 -0.32,0.34 -0.21,0 -0.45,-0.12 -0.57,-0.29 -0.18,-0.26 -0.26,-0.48 -0.26,-0.67 0,-0.52 0.59,-0.78 1.31,-0.78 1.11,0 2.57,1.1 3.39,2.25 0.39,0.56 0.79,1.11 1.2,1.67 0.23,0.01 0.46,0.01 0.69,0.01 h 0.59 c -0.21,-0.3 -0.43,-0.6 -0.63,-0.88 -0.49,-0.69 -0.76,-1.37 -0.76,-1.9 0,-0.61 0.35,-1.01 1.15,-1.01 0.63,0 1.39,0.74 1.87,1.42 0.02,0.02 0.02,0.03 0.02,0.05 z"
         inkscape:connector-curvature="0"
         style="fill:#000000;stroke-width:0" /><path
         id="path3288"
         d="m 242.66,704.74 0,0.01 0,0 0,0 0,0.01 0,0 0,0 0,0.01 -0.01,0 0,0 0,0.01 0,0 0,0.01 -0.01,0 0,0.01 -0.01,0 0,0.01 -0.01,0.01 0,0 0,0.01 -0.01,0 0,0.01 0,0 -0.01,0 0,0.01 -0.01,0 0,0.01 -0.01,0 0,0.01 -0.01,0 0,0.01 -0.01,0 0,0.01 -0.01,0.01 0,0 -0.01,0.01 -0.01,0.01 0,0 -0.01,0.01 -0.01,0.01 0,0 -0.01,0.01 -0.01,0.01 c -1.24,1.25 -1.56,3.13 -1.56,4.65 0,1.73 0.38,3.46 1.6,4.7 0.13,0.12 0.13,0.14 0.13,0.17 0,0.07 -0.04,0.1 -0.1,0.1 -0.1,0 -0.99,-0.68 -1.58,-1.94 -0.51,-1.09 -0.63,-2.2 -0.63,-3.03 0,-0.78 0.11,-1.98 0.66,-3.1 0.6,-1.22 1.45,-1.87 1.55,-1.87 0.06,0 0.1,0.03 0.1,0.1 z"
         inkscape:connector-curvature="0"
         style="fill:#000000;stroke-width:0" /><path
         id="path3290"
         d="m 244.12,707.71 -0.01,-0.01 0,-0.02 0,-0.01 -0.01,-0.02 0,-0.03 -0.01,-0.03 -0.01,-0.03 0,-0.04 -0.01,-0.03 -0.01,-0.03 0,-0.01 -0.01,-0.02 0,-0.01 0,-0.02 -0.01,-0.01 0,-0.01 0,-0.02 0,-0.01 -0.01,-0.01 0,-0.01 0,-0.01 0,-0.01 0,-0.01 0,0 0,-0.01 0,-0.01 c 0,-0.18 0.14,-0.26 0.29,-0.26 0.11,0 0.29,0.07 0.36,0.27 0.02,0.04 0.36,1.39 0.4,1.57 0.08,0.33 0.26,1.03 0.32,1.3 0.04,0.12 0.32,0.59 0.56,0.81 0.08,0.07 0.36,0.33 0.79,0.33 0.26,0 0.41,-0.12 0.42,-0.12 -0.3,-0.05 -0.52,-0.29 -0.52,-0.55 0,-0.16 0.11,-0.35 0.38,-0.35 0.27,0 0.55,0.23 0.55,0.59 0,0.35 -0.32,0.65 -0.83,0.65 -0.64,0 -1.08,-0.49 -1.27,-0.77 -0.08,0.45 -0.44,0.77 -0.91,0.77 -0.45,0 -0.64,-0.39 -0.73,-0.57 -0.18,-0.34 -0.31,-0.93 -0.31,-0.96 0,-0.1 0.1,-0.1 0.12,-0.1 0.1,0 0.11,0.01 0.17,0.22 0.17,0.71 0.37,1.19 0.72,1.19 0.17,0 0.31,-0.08 0.31,-0.46 0,-0.21 -0.03,-0.32 -0.16,-0.83 z"
         inkscape:connector-curvature="0"
         style="fill:#000000;stroke-width:0" /><path
         id="path3292"
         d="m 257.61,710.37 0.03,0 0.03,0 0.03,0 0.02,0.01 0.01,0 0.02,0 0.01,0 0.01,0 0.02,0 0.01,0.01 0.01,0 0.02,0 0.01,0.01 0.01,0 0.01,0.01 0.01,0 0.02,0.01 0.01,0.01 0,0.01 0.01,0.01 0.01,0.01 0,0 0.01,0.01 0,0 0,0.01 0.01,0.01 0,0 0,0.01 0,0.01 0.01,0 0,0.01 0,0.01 0,0.01 0,0.01 0,0 0,0.01 0,0.01 c 0,0.2 -0.19,0.2 -0.33,0.2 h -5.96 c -0.13,0 -0.32,0 -0.32,-0.2 0,-0.2 0.19,-0.2 0.34,-0.2 z"
         inkscape:connector-curvature="0"
         style="fill:#000000;stroke-width:0" /><path
         id="path3294"
         d="m 257.62,708.45 0.02,0 0.01,0 0.03,0 0.03,0 0.01,0 0.01,0 0.02,0 0.01,0 0.02,0 0.01,0.01 0.01,0 0.02,0 0.01,0.01 0.01,0 0.01,0.01 0.01,0 0.02,0.01 0.01,0 0.01,0.01 0,0.01 0.01,0.01 0.01,0 0,0.01 0,0.01 0.01,0 0,0.01 0,0 0.01,0.01 0,0.01 0,0 0,0.01 0.01,0.01 0,0 0,0.01 0,0.01 0,0.01 0,0.01 0,0.01 0,0.01 c 0,0.19 -0.19,0.19 -0.34,0.19 h -5.93 c -0.15,0 -0.34,0 -0.34,-0.19 0,-0.2 0.19,-0.2 0.32,-0.2 z"
         inkscape:connector-curvature="0"
         style="fill:#000000;stroke-width:0" /><path
         id="path3296"
         d="m 262.17,707.71 0,-0.01 0,-0.02 -0.01,-0.01 0,-0.02 -0.01,-0.03 0,-0.03 -0.01,-0.03 -0.01,-0.04 -0.01,-0.03 0,-0.03 -0.01,-0.01 0,-0.02 0,-0.01 -0.01,-0.02 0,-0.01 0,-0.01 -0.01,-0.02 0,-0.01 0,-0.01 0,-0.01 0,-0.01 -0.01,-0.01 0,-0.01 0,0 0,-0.01 0,-0.01 c 0,-0.18 0.14,-0.26 0.29,-0.26 0.12,0 0.3,0.07 0.37,0.27 0.02,0.04 0.36,1.39 0.4,1.57 0.08,0.33 0.25,1.03 0.31,1.3 0.04,0.12 0.32,0.59 0.56,0.81 0.08,0.07 0.37,0.33 0.8,0.33 0.26,0 0.41,-0.12 0.42,-0.12 -0.3,-0.05 -0.52,-0.29 -0.52,-0.55 0,-0.16 0.11,-0.35 0.38,-0.35 0.27,0 0.54,0.23 0.54,0.59 0,0.35 -0.31,0.65 -0.82,0.65 -0.65,0 -1.09,-0.49 -1.27,-0.77 -0.09,0.45 -0.44,0.77 -0.91,0.77 -0.46,0 -0.65,-0.39 -0.74,-0.57 -0.18,-0.34 -0.31,-0.93 -0.31,-0.96 0,-0.1 0.1,-0.1 0.12,-0.1 0.1,0 0.11,0.01 0.17,0.22 0.17,0.71 0.37,1.19 0.73,1.19 0.17,0 0.31,-0.08 0.31,-0.46 0,-0.21 -0.03,-0.32 -0.16,-0.83 z"
         inkscape:connector-curvature="0"
         style="fill:#000000;stroke-width:0" /><path
         id="path3298"
         d="m 269.02,707.2 h 2.13 c 0.09,0 0.25,0 0.25,0.17 0,0.17 -0.16,0.17 -0.25,0.17 h -2.13 v 2.14 c 0,0.09 0,0.25 -0.17,0.25 -0.18,0 -0.18,-0.15 -0.18,-0.25 v -2.14 h -2.13 c -0.09,0 -0.26,0 -0.26,-0.16 0,-0.18 0.16,-0.18 0.26,-0.18 h 2.13 v -2.13 c 0,-0.09 0,-0.26 0.17,-0.26 0.18,0 0.18,0.16 0.18,0.26 z"
         inkscape:connector-curvature="0"
         style="fill:#000000;stroke-width:0" /><path
         id="path3300"
         d="m 275.28,709.61 0,0.07 0,0.08 0,0.08 -0.01,0.08 0,0.17 -0.02,0.17 -0.01,0.18 -0.02,0.19 -0.03,0.2 -0.03,0.2 -0.04,0.2 -0.05,0.21 -0.05,0.21 -0.06,0.21 -0.07,0.21 -0.08,0.21 -0.04,0.11 -0.05,0.11 -0.05,0.1 -0.05,0.11 c -0.59,1.22 -1.45,1.87 -1.55,1.87 -0.06,0 -0.1,-0.04 -0.1,-0.1 0,-0.03 0,-0.05 0.19,-0.23 0.98,-0.99 1.54,-2.57 1.54,-4.64 0,-1.7 -0.37,-3.45 -1.6,-4.7 -0.13,-0.12 -0.13,-0.14 -0.13,-0.17 0,-0.06 0.04,-0.1 0.1,-0.1 0.1,0 1,0.68 1.58,1.94 0.51,1.09 0.63,2.19 0.63,3.03 z"
         inkscape:connector-curvature="0"
         style="fill:#000000;stroke-width:0" /></g>    <g
       id="content"
       transform="matrix(3,0,0,-3,51.892402,2703.2489)"
       xml:space="preserve"
       stroke-miterlimit="10.433"
       font-style="normal"
       font-variant="normal"
       font-weight="normal"
       font-stretch="normal"
       font-size-adjust="none"
       letter-spacing="normal"
       word-spacing="normal"
       ns0:text="$\\mathscr{H}_{\\rm in}$ ($r=r_-$)"
       ns0:preamble="/home/eric/BHLectures/Notes/latex_inkscape.ini"
       style="font-style:normal;font-variant:normal;font-weight:normal;font-stretch:normal;letter-spacing:normal;word-spacing:normal;text-anchor:start;fill:#aa8800;stroke:#000000;stroke-linecap:butt;stroke-linejoin:miter;stroke-miterlimit:10.43299961;stroke-opacity:1;stroke-dasharray:none;stroke-dashoffset:0"><path
         style="fill:#aa8800;stroke-width:0"
         inkscape:connector-curvature="0"
         d="m 232.59,708.52 -0.01,0 0,0 0,0.01 0,0 0,0.01 0,0 0,0.01 0,0 0,0 -0.01,0.01 0,0 0,0 0,0.01 0,0 -0.01,0 0,0 0,0.01 -0.01,0 0,0 0,0 -0.01,0 0,0.01 0,0 -0.01,0 0,0 0,0 -0.01,0 0,0 0,0 -0.01,0 0,0 0,0 h -0.11 c -0.03,0 -0.06,0 -0.07,-0.02 -0.47,-0.66 -1.1,-1.31 -1.59,-1.31 -0.4,0 -0.57,0.19 -0.57,0.51 0,0.48 0.4,1.25 0.98,2.09 0.24,0.34 0.48,0.67 0.73,1.01 1.33,0.08 2.66,0.37 3.4,1.42 0.31,0.44 0.49,0.88 0.49,1.23 0,0.38 -0.21,0.64 -0.71,0.64 l -0.04,-0.22 c 0.33,0 0.49,-0.17 0.49,-0.45 0,-0.28 -0.17,-0.66 -0.48,-1.1 -0.64,-0.9 -1.77,-1.19 -2.98,-1.29 1.1,1.5 2.23,2.84 2.97,2.84 h 0 l 0.04,0.22 c -1.41,0 -2.77,-1.5 -3.96,-3.1 h -1.27 c 0.74,0.99 1.49,1.99 2.27,2.97 0.02,0.03 0.02,0.05 0.02,0.08 l -0.03,0.08 c -0.01,0.03 -0.04,0.06 -0.08,0.06 -0.02,0 -0.04,-0.01 -0.06,-0.03 -0.5,-0.48 -0.99,-0.96 -1.52,-1.48 -0.37,-0.52 -1.13,-0.88 -1.69,-0.88 -0.11,0 -0.19,0.06 -0.19,0.16 0,0.07 0.04,0.16 0.11,0.27 0.14,0.21 0.21,0.4 0.21,0.56 0,0.32 -0.26,0.53 -0.7,0.53 -0.52,0 -1.06,-0.64 -1.43,-1.17 0,-0.01 0,-0.03 0,-0.04 0,-0.05 0.02,-0.09 0.08,-0.09 h 0.1 c 0.03,0 0.05,0.02 0.07,0.04 0.38,0.54 0.76,1.04 1.14,1.04 0.16,0 0.25,-0.08 0.25,-0.22 0,-0.14 -0.08,-0.32 -0.24,-0.55 -0.09,-0.13 -0.13,-0.24 -0.13,-0.34 0,-0.28 0.34,-0.4 0.7,-0.4 0.29,0 0.64,0.07 0.97,0.22 -0.25,-0.28 -0.5,-0.57 -0.74,-0.86 -1.14,-0.11 -2.26,-0.44 -2.94,-1.4 l -0.01,-0.05 c 0,-0.04 0.03,-0.08 0.08,-0.08 h 0.11 c 0.03,0 0.06,0.01 0.07,0.03 0.57,0.81 1.5,1.13 2.49,1.25 -0.39,-0.5 -0.78,-0.99 -1.14,-1.5 -0.74,-1.05 -1.65,-2.14 -2.49,-2.14 -0.66,0 -1.14,0.2 -1.14,0.61 0,0.1 0.03,0.21 0.09,0.34 0.07,-0.1 0.18,-0.15 0.3,-0.15 0.26,0 0.55,0.2 0.55,0.39 0,0.24 -0.15,0.34 -0.32,0.34 -0.21,0 -0.45,-0.12 -0.57,-0.29 -0.18,-0.26 -0.26,-0.48 -0.26,-0.67 0,-0.52 0.59,-0.78 1.31,-0.78 1.11,0 2.57,1.1 3.39,2.25 0.39,0.56 0.79,1.11 1.2,1.67 0.23,0.01 0.46,0.01 0.69,0.01 h 0.59 c -0.21,-0.3 -0.43,-0.6 -0.63,-0.88 -0.49,-0.69 -0.76,-1.37 -0.76,-1.9 0,-0.61 0.35,-1.01 1.15,-1.01 0.63,0 1.39,0.74 1.87,1.42 0.02,0.02 0.02,0.03 0.02,0.05 z"
         id="path3501" /><path
         style="fill:#aa8800;stroke-width:0"
         inkscape:connector-curvature="0"
         d="m 234.56,709.92 0,0.02 0,0.02 -0.01,0.02 0,0.02 0,0.01 -0.01,0.02 -0.01,0.02 0,0.02 -0.01,0.02 -0.01,0.01 -0.01,0.02 -0.01,0.02 -0.01,0.01 -0.01,0.02 -0.01,0.01 -0.02,0.02 -0.01,0.01 -0.01,0.01 -0.02,0.01 -0.01,0.02 -0.02,0.01 -0.02,0.01 -0.02,0.01 -0.01,0 -0.02,0.01 -0.02,0.01 -0.02,0 -0.02,0.01 -0.02,0 -0.02,0.01 -0.02,0 -0.03,0 c -0.2,0 -0.39,-0.17 -0.39,-0.4 0,-0.25 0.2,-0.4 0.39,-0.4 0.23,0 0.41,0.17 0.41,0.4 z"
         id="path3503" /><path
         style="fill:#aa8800;stroke-width:0"
         inkscape:connector-curvature="0"
         d="m 233.5,708.62 v -0.25 c 0.44,0 0.5,-0.04 0.5,-0.38 v -1.81 c 0,-0.3 -0.07,-0.3 -0.52,-0.3 v -0.25 c 0.01,0 0.5,0.03 0.78,0.03 0.24,0 0.49,-0.01 0.74,-0.03 v 0.25 c -0.41,0 -0.48,0 -0.48,0.29 v 2.53 z"
         id="path3505" /><path
         style="fill:#aa8800;stroke-width:0"
         inkscape:connector-curvature="0"
         d="m 238.93,707.74 0,0.05 0,0.06 -0.01,0.05 0,0.05 -0.01,0.05 -0.01,0.05 -0.01,0.05 -0.02,0.04 -0.01,0.05 -0.02,0.04 -0.02,0.04 -0.02,0.04 -0.03,0.03 -0.02,0.04 -0.03,0.03 -0.03,0.03 -0.04,0.03 -0.03,0.03 -0.04,0.03 -0.04,0.02 -0.04,0.03 -0.04,0.02 -0.05,0.02 -0.05,0.01 -0.05,0.02 -0.05,0.01 -0.06,0.01 -0.06,0.01 -0.06,0.01 -0.06,0 -0.07,0.01 -0.07,0 c -0.57,0 -0.93,-0.31 -1.13,-0.68 h -0.01 v 0.68 l -1.02,-0.08 v -0.25 c 0.47,0 0.52,-0.05 0.52,-0.39 v -1.8 c 0,-0.3 -0.07,-0.3 -0.52,-0.3 v -0.25 c 0.01,0 0.5,0.03 0.79,0.03 0.26,0 0.74,-0.02 0.8,-0.03 v 0.25 c -0.45,0 -0.52,0 -0.52,0.3 v 1.25 c 0,0.73 0.58,1.07 1.04,1.07 0.49,0 0.55,-0.38 0.55,-0.73 v -1.59 c 0,-0.3 -0.07,-0.3 -0.52,-0.3 v -0.25 c 0.01,0 0.5,0.03 0.79,0.03 0.26,0 0.74,-0.02 0.8,-0.03 v 0.25 c -0.45,0 -0.52,0 -0.52,0.3 z"
         id="path3507" /><path
         style="fill:#aa8800;stroke-width:0"
         inkscape:connector-curvature="0"
         d="m 246.85,704.74 0,0.01 0,0 0,0 0,0.01 0,0 0,0 0,0.01 0,0 0,0 0,0.01 -0.01,0 0,0.01 0,0 -0.01,0.01 0,0 -0.01,0.01 0,0.01 -0.01,0 0,0.01 0,0 -0.01,0.01 0,0 0,0 -0.01,0.01 0,0 -0.01,0.01 0,0 -0.01,0.01 0,0 -0.01,0.01 0,0 -0.01,0.01 0,0.01 -0.01,0 0,0.01 -0.01,0.01 -0.01,0 0,0.01 -0.01,0.01 -0.01,0 -0.01,0.01 0,0.01 c -1.25,1.25 -1.57,3.13 -1.57,4.65 0,1.73 0.38,3.46 1.61,4.7 0.12,0.12 0.12,0.14 0.12,0.17 0,0.07 -0.03,0.1 -0.09,0.1 -0.1,0 -1,-0.68 -1.59,-1.94 -0.5,-1.09 -0.62,-2.2 -0.62,-3.03 0,-0.78 0.11,-1.98 0.65,-3.1 0.6,-1.22 1.46,-1.87 1.56,-1.87 0.06,0 0.09,0.03 0.09,0.1 z"
         id="path3509" /><path
         style="fill:#aa8800;stroke-width:0"
         inkscape:connector-curvature="0"
         d="m 248.31,707.71 0,-0.01 0,-0.02 -0.01,-0.01 0,-0.02 -0.01,-0.03 0,-0.03 -0.01,-0.03 -0.01,-0.04 -0.01,-0.03 0,-0.03 -0.01,-0.01 0,-0.02 0,-0.01 -0.01,-0.02 0,-0.01 0,-0.01 0,-0.02 -0.01,-0.01 0,-0.01 0,-0.01 0,-0.01 0,-0.01 -0.01,-0.01 0,0 0,-0.01 0,-0.01 c 0,-0.18 0.14,-0.26 0.29,-0.26 0.12,0 0.3,0.07 0.37,0.27 0.02,0.04 0.36,1.39 0.4,1.57 0.08,0.33 0.26,1.03 0.32,1.3 0.04,0.12 0.31,0.59 0.55,0.81 0.08,0.07 0.37,0.33 0.8,0.33 0.26,0 0.41,-0.12 0.42,-0.12 -0.3,-0.05 -0.52,-0.29 -0.52,-0.55 0,-0.16 0.11,-0.35 0.38,-0.35 0.27,0 0.54,0.23 0.54,0.59 0,0.35 -0.31,0.65 -0.82,0.65 -0.65,0 -1.08,-0.49 -1.27,-0.77 -0.08,0.45 -0.44,0.77 -0.91,0.77 -0.46,0 -0.65,-0.39 -0.74,-0.57 -0.18,-0.34 -0.3,-0.93 -0.3,-0.96 0,-0.1 0.09,-0.1 0.12,-0.1 0.09,0 0.1,0.01 0.16,0.22 0.17,0.71 0.37,1.19 0.73,1.19 0.17,0 0.31,-0.08 0.31,-0.46 0,-0.21 -0.03,-0.32 -0.16,-0.83 z"
         id="path3511" /><path
         style="fill:#aa8800;stroke-width:0"
         inkscape:connector-curvature="0"
         d="m 261.81,710.37 0.03,0 0.03,0 0.03,0 0.01,0.01 0.02,0 0.01,0 0.02,0 0.01,0 0.01,0 0.02,0.01 0.01,0 0.01,0 0.02,0.01 0.01,0 0.01,0.01 0.01,0 0.01,0.01 0.01,0.01 0.01,0.01 0.01,0.01 0.01,0.01 0,0 0,0.01 0.01,0 0,0.01 0,0.01 0.01,0 0,0.01 0,0.01 0,0 0,0.01 0.01,0.01 0,0.01 0,0.01 0,0 0,0.01 0,0.01 c 0,0.2 -0.19,0.2 -0.33,0.2 h -5.96 c -0.14,0 -0.33,0 -0.33,-0.2 0,-0.2 0.19,-0.2 0.34,-0.2 z"
         id="path3513" /><path
         style="fill:#aa8800;stroke-width:0"
         inkscape:connector-curvature="0"
         d="m 261.82,708.45 0.01,0 0.02,0 0.03,0 0.02,0 0.02,0 0.01,0 0.01,0 0.02,0 0.01,0 0.02,0.01 0.01,0 0.01,0 0.01,0.01 0.02,0 0.01,0.01 0.01,0 0.01,0.01 0.01,0 0.01,0.01 0.01,0.01 0.01,0.01 0,0 0.01,0.01 0,0.01 0,0 0.01,0.01 0,0 0,0.01 0.01,0.01 0,0 0,0.01 0,0.01 0,0 0.01,0.01 0,0.01 0,0.01 0,0.01 0,0.01 0,0.01 c 0,0.19 -0.19,0.19 -0.34,0.19 h -5.94 c -0.15,0 -0.34,0 -0.34,-0.19 0,-0.2 0.19,-0.2 0.33,-0.2 z"
         id="path3515" /><path
         style="fill:#aa8800;stroke-width:0"
         inkscape:connector-curvature="0"
         d="m 266.37,707.71 0,-0.01 -0.01,-0.02 0,-0.01 0,-0.02 -0.01,-0.03 -0.01,-0.03 -0.01,-0.03 0,-0.04 -0.01,-0.03 -0.01,-0.03 0,-0.01 -0.01,-0.02 0,-0.01 0,-0.02 0,-0.01 -0.01,-0.01 0,-0.02 0,-0.01 0,-0.01 -0.01,-0.01 0,-0.01 0,-0.01 0,-0.01 0,0 0,-0.01 0,-0.01 c 0,-0.18 0.14,-0.26 0.29,-0.26 0.12,0 0.29,0.07 0.36,0.27 0.02,0.04 0.36,1.39 0.4,1.57 0.08,0.33 0.26,1.03 0.32,1.3 0.04,0.12 0.32,0.59 0.56,0.81 0.08,0.07 0.37,0.33 0.79,0.33 0.26,0 0.41,-0.12 0.42,-0.12 -0.3,-0.05 -0.52,-0.29 -0.52,-0.55 0,-0.16 0.11,-0.35 0.38,-0.35 0.27,0 0.55,0.23 0.55,0.59 0,0.35 -0.32,0.65 -0.83,0.65 -0.64,0 -1.08,-0.49 -1.27,-0.77 -0.08,0.45 -0.44,0.77 -0.9,0.77 -0.46,0 -0.65,-0.39 -0.74,-0.57 -0.18,-0.34 -0.31,-0.93 -0.31,-0.96 0,-0.1 0.1,-0.1 0.12,-0.1 0.1,0 0.11,0.01 0.17,0.22 0.17,0.71 0.37,1.19 0.73,1.19 0.16,0 0.3,-0.08 0.3,-0.46 0,-0.21 -0.03,-0.32 -0.15,-0.83 z"
         id="path3517" /><path
         style="fill:#aa8800;stroke-width:0"
         inkscape:connector-curvature="0"
         d="m 275.17,707.2 0.01,0 0.01,0 0.01,0 0.01,0 0.02,0 0.02,0 0.01,0 0.01,0.01 0.01,0 0.01,0 0.01,0 0.02,0 0.01,0.01 0.01,0 0.01,0 0.01,0.01 0.01,0 0.01,0.01 0.01,0 0.01,0.01 0,0.01 0.01,0 0,0.01 0.01,0 0,0.01 0,0 0.01,0.01 0,0 0,0.01 0,0 0.01,0.01 0,0 0,0.01 0,0.01 0,0 0,0.01 0,0.01 0.01,0 0,0.01 0,0.01 c 0,0.17 -0.16,0.17 -0.28,0.17 h -4.15 c -0.12,0 -0.28,0 -0.28,-0.16 0,-0.18 0.16,-0.18 0.28,-0.18 z"
         id="path3519" /><path
         style="fill:#aa8800;stroke-width:0"
         inkscape:connector-curvature="0"
         d="m 279.59,709.61 0,0.07 -0.01,0.08 0,0.08 0,0.08 -0.01,0.17 -0.01,0.17 -0.02,0.18 -0.02,0.19 -0.02,0.2 -0.04,0.2 -0.04,0.2 -0.04,0.21 -0.06,0.21 -0.06,0.21 -0.07,0.21 -0.07,0.21 -0.05,0.11 -0.04,0.11 -0.05,0.1 -0.05,0.11 c -0.6,1.22 -1.45,1.87 -1.55,1.87 -0.06,0 -0.1,-0.04 -0.1,-0.1 0,-0.03 0,-0.05 0.19,-0.23 0.97,-0.99 1.54,-2.57 1.54,-4.64 0,-1.7 -0.37,-3.45 -1.6,-4.7 -0.13,-0.12 -0.13,-0.14 -0.13,-0.17 0,-0.06 0.04,-0.1 0.1,-0.1 0.1,0 0.99,0.68 1.58,1.94 0.51,1.09 0.63,2.19 0.63,3.03 z"
         id="path3521" /></g>    <g
       style="font-style:normal;font-variant:normal;font-weight:normal;font-stretch:normal;letter-spacing:normal;word-spacing:normal;text-anchor:start;fill:#d45500;fill-opacity:1;fill-rule:evenodd;stroke:#000000;stroke-linecap:butt;stroke-linejoin:miter;stroke-miterlimit:10.43299961;stroke-opacity:1;stroke-dasharray:none;stroke-dashoffset:0"
       ns0:preamble="/home/eric/BHLectures/Notes/latex_inkscape.ini"
       ns0:text="$\\mathscr{R}$ ($\\rho^2=0$)"
       word-spacing="normal"
       letter-spacing="normal"
       font-size-adjust="none"
       font-stretch="normal"
       font-weight="normal"
       font-variant="normal"
       font-style="normal"
       stroke-miterlimit="10.433"
       xml:space="preserve"
       transform="matrix(3,0,0,-3,-96.312246,2832.7658)"
       id="g3742"><path
         id="path3744"
         d="m 228.35,710.53 -0.23,-0.32 -0.23,-0.32 -0.12,-0.16 -0.11,-0.15 -0.11,-0.16 -0.11,-0.16 c -0.73,-1.01 -1.77,-2.03 -2.6,-2.03 -0.65,0 -1.13,0.18 -1.13,0.56 0,0.07 0.02,0.14 0.05,0.22 0.07,-0.06 0.16,-0.08 0.25,-0.08 0.26,0 0.55,0.19 0.55,0.38 0,0.24 -0.15,0.34 -0.33,0.34 -0.21,0 -0.46,-0.12 -0.58,-0.29 -0.16,-0.23 -0.24,-0.43 -0.24,-0.6 0,-0.51 0.66,-0.74 1.38,-0.74 1.15,0 2.69,1 3.5,2.14 0.24,0.34 0.47,0.71 0.73,1.09 l 0.1,0.22 c 0.01,0.02 0.02,0.04 0.03,0.05 h 0.33 0.03 l 0.01,0.23 h -0.23 c 0.58,0.93 1.24,1.9 2.21,2.65 0.15,-0.17 0.24,-0.39 0.24,-0.65 0,-0.3 -0.12,-0.66 -0.4,-1.05 -0.24,-0.33 -0.58,-0.66 -0.98,-0.87 -0.13,-0.07 -0.26,-0.13 -0.39,-0.18 -0.12,0.06 -0.27,0.1 -0.45,0.1 h 0 l -0.01,-0.23 c -0.14,-0.03 -0.26,-0.04 -0.39,-0.05 l -0.1,-0.22 c 0.21,0 0.44,0.02 0.68,0.07 0,-0.03 0,-0.07 -0.01,-0.11 -0.04,-0.18 -0.27,-0.54 -0.51,-0.87 l -0.8,-1.12 c -0.11,-0.15 -0.15,-0.3 -0.15,-0.42 0,-0.18 0.09,-0.33 0.2,-0.45 0.13,-0.16 0.33,-0.26 0.56,-0.3 0.09,-0.05 0.21,-0.09 0.34,-0.09 0.19,0 0.4,0.09 0.6,0.22 0.13,0.08 0.26,0.17 0.38,0.26 0.4,0.31 0.73,0.67 0.99,1.03 0.01,0.02 0.02,0.03 0.02,0.05 0,0.03 -0.02,0.05 -0.04,0.07 -0.01,0 -0.03,0 -0.05,0 h -0.11 c -0.03,0 -0.05,0 -0.07,-0.02 -0.25,-0.36 -0.55,-0.72 -0.93,-1.03 -0.09,-0.08 -0.19,-0.15 -0.28,-0.21 -0.17,-0.1 -0.33,-0.15 -0.47,-0.15 -0.11,0 -0.21,0 -0.31,0.02 -0.05,0.05 -0.08,0.11 -0.09,0.18 0,0.02 -0.01,0.04 -0.01,0.07 0,0.18 0.1,0.42 0.27,0.67 l 0.75,1.04 c 0.22,0.31 0.34,0.64 0.34,0.91 0,0.07 0,0.13 -0.02,0.18 -0.02,0.08 -0.05,0.16 -0.1,0.22 0.14,0.05 0.29,0.1 0.43,0.17 0.47,0.23 0.95,0.57 1.23,0.95 0.28,0.39 0.4,0.75 0.4,1.07 0,0.33 -0.13,0.6 -0.33,0.82 -0.04,0.05 -0.09,0.09 -0.14,0.14 l 0.36,0.23 c 0.03,0.02 0.04,0.03 0.04,0.06 l -0.02,0.11 c -0.01,0.04 -0.06,0.06 -0.09,0.06 -0.01,0 -0.02,0 -0.03,-0.01 -0.16,-0.1 -0.32,-0.19 -0.47,-0.29 -0.52,0.33 -1.25,0.47 -2.06,0.47 -0.7,0 -1.53,-0.21 -2.38,-0.65 -0.74,-0.39 -1.46,-0.94 -1.9,-1.56 -0.34,-0.49 -0.55,-0.97 -0.55,-1.4 0,-0.06 0,-0.11 0.01,-0.17 0.06,-0.42 0.4,-0.7 0.94,-0.7 0.3,0 0.66,0.13 1,0.33 0.35,0.21 0.66,0.5 0.87,0.8 0.4,0.57 0.86,1.2 0.86,1.72 l -0.01,0.11 c -0.01,0.04 -0.05,0.07 -0.09,0.07 l -0.16,-0.06 c -0.03,-0.01 -0.05,-0.04 -0.05,-0.07 v -0.06 c 0,-0.42 -0.79,-1.2 -1.08,-1.61 -0.18,-0.26 -0.36,-0.52 -0.64,-0.73 -0.23,-0.18 -0.48,-0.28 -0.66,-0.28 -0.45,0 -0.69,0.21 -0.73,0.53 l -0.01,0.12 c 0,0.36 0.21,0.82 0.55,1.3 0.41,0.58 1.07,1.11 1.77,1.48 0.8,0.42 1.57,0.6 2.22,0.6 0.76,0 1.4,-0.13 1.82,-0.44 -1.14,-0.82 -2.04,-1.85 -2.83,-2.9 -0.03,0 -0.05,-0.01 -0.07,-0.03 -0.03,-0.05 -0.05,-0.09 -0.05,-0.12 z"
         inkscape:connector-curvature="0"
         style="fill:#d45500;stroke-width:0" /><path
         id="path3746"
         d="m 239.14,704.74 0,0.01 0,0 0,0 0,0.01 0,0 0,0 -0.01,0.01 0,0 0,0 0,0.01 0,0 -0.01,0.01 0,0 0,0.01 -0.01,0 0,0.01 -0.01,0.01 0,0 -0.01,0.01 0,0 0,0.01 -0.01,0 0,0 0,0.01 -0.01,0 0,0.01 -0.01,0 0,0.01 -0.01,0 0,0.01 -0.01,0 0,0.01 -0.01,0.01 -0.01,0 0,0.01 -0.01,0.01 0,0 -0.01,0.01 -0.01,0.01 -0.01,0 0,0.01 -0.01,0.01 c -1.24,1.25 -1.56,3.13 -1.56,4.65 0,1.73 0.38,3.46 1.6,4.7 0.13,0.12 0.13,0.14 0.13,0.17 0,0.07 -0.04,0.1 -0.1,0.1 -0.1,0 -1,-0.68 -1.58,-1.94 -0.51,-1.09 -0.63,-2.2 -0.63,-3.03 0,-0.78 0.11,-1.98 0.66,-3.1 0.59,-1.22 1.45,-1.87 1.55,-1.87 0.06,0 0.1,0.03 0.1,0.1 z"
         inkscape:connector-curvature="0"
         style="fill:#d45500;stroke-width:0" /><path
         id="path3748"
         d="m 240.05,705.41 0,-0.01 -0.01,0 0,-0.01 0,-0.01 0,0 0,0 0,-0.01 0,0 0,-0.01 0,0 -0.01,-0.01 0,0 0,-0.01 0,0 0,-0.01 0,0 0,-0.01 0,-0.01 -0.01,0 0,-0.01 0,0 0,-0.01 0,0 0,0 0,-0.01 0,0 0,-0.01 0,0 0,0 0,0 0,-0.01 0,0 0,0 0,-0.01 0,0 0,0 c 0,-0.15 0.11,-0.27 0.28,-0.27 0.21,0 0.32,0.18 0.34,0.21 0.05,0.09 0.37,1.42 0.64,2.49 0.2,-0.4 0.52,-0.66 0.99,-0.66 l -0.01,0.21 c -0.7,0 -0.86,0.8 -0.86,0.89 0,0.04 0.05,0.24 0.08,0.37 0.28,1.11 0.38,1.47 0.6,1.86 0.43,0.73 0.92,0.95 1.23,0.95 0.37,0 0.69,-0.29 0.69,-0.98 0,-0.54 -0.29,-1.66 -0.56,-2.14 -0.33,-0.63 -0.81,-0.95 -1.18,-0.95 h 0 l 0.01,-0.21 c 1.16,0 2.44,1.4 2.44,2.88 0,1.05 -0.65,1.62 -1.38,1.62 -0.96,0 -2.01,-1 -2.31,-2.21 z"
         inkscape:connector-curvature="0"
         style="fill:#d45500;stroke-width:0" /><path
         id="path3750"
         d="m 248.39,712.01 h -0.24 c -0.02,-0.16 -0.09,-0.57 -0.18,-0.64 -0.06,-0.04 -0.59,-0.04 -0.69,-0.04 H 246 c 0.73,0.65 0.97,0.84 1.39,1.17 0.52,0.41 1,0.84 1,1.5 0,0.84 -0.74,1.36 -1.63,1.36 -0.87,0 -1.45,-0.61 -1.45,-1.25 0,-0.35 0.3,-0.39 0.37,-0.39 0.17,0 0.37,0.12 0.37,0.37 0,0.13 -0.05,0.37 -0.41,0.37 0.21,0.49 0.69,0.65 1.01,0.65 0.7,0 1.06,-0.54 1.06,-1.11 0,-0.6 -0.43,-1.08 -0.65,-1.33 l -1.68,-1.66 c -0.07,-0.06 -0.07,-0.08 -0.07,-0.27 h 2.87 z"
         inkscape:connector-curvature="0"
         style="fill:#d45500;stroke-width:0" /><path
         id="path3752"
         d="m 258.94,710.37 0.03,0 0.03,0 0.03,0 0.01,0.01 0.02,0 0.01,0 0.02,0 0.01,0 0.01,0 0.02,0.01 0.01,0 0.01,0 0.02,0.01 0.01,0 0.01,0.01 0.01,0 0.01,0.01 0.01,0.01 0.01,0.01 0.01,0.01 0.01,0.01 0,0 0.01,0.01 0,0 0,0.01 0,0.01 0.01,0 0,0.01 0,0.01 0,0 0.01,0.01 0,0.01 0,0.01 0,0.01 0,0 0,0.01 0,0.01 c 0,0.2 -0.19,0.2 -0.33,0.2 h -5.96 c -0.14,0 -0.33,0 -0.33,-0.2 0,-0.2 0.19,-0.2 0.34,-0.2 z"
         inkscape:connector-curvature="0"
         style="fill:#d45500;stroke-width:0" /><path
         id="path3754"
         d="m 258.95,708.45 0.02,0 0.01,0 0.03,0 0.02,0 0.02,0 0.01,0 0.02,0 0.01,0 0.01,0 0.02,0.01 0.01,0 0.01,0 0.02,0.01 0.01,0 0.01,0.01 0.01,0 0.01,0.01 0.01,0 0.01,0.01 0.01,0.01 0.01,0.01 0,0 0.01,0.01 0,0.01 0.01,0 0,0.01 0,0 0,0.01 0.01,0.01 0,0 0,0.01 0,0.01 0.01,0 0,0.01 0,0.01 0,0.01 0,0.01 0,0.01 0,0.01 c 0,0.19 -0.19,0.19 -0.34,0.19 H 253 c -0.15,0 -0.34,0 -0.34,-0.19 0,-0.2 0.19,-0.2 0.33,-0.2 z"
         inkscape:connector-curvature="0"
         style="fill:#d45500;stroke-width:0" /><path
         id="path3756"
         d="m 267.2,710.3 0,0.15 0,0.15 0,0.15 -0.01,0.15 -0.01,0.15 -0.01,0.14 -0.02,0.15 -0.02,0.15 -0.02,0.14 -0.03,0.15 -0.03,0.14 -0.04,0.15 -0.04,0.14 -0.05,0.14 -0.05,0.14 -0.03,0.07 -0.04,0.07 c -0.45,0.95 -1.27,1.11 -1.69,1.11 -0.59,0 -1.32,-0.26 -1.73,-1.18 -0.32,-0.69 -0.37,-1.46 -0.37,-2.26 0,-0.74 0.04,-1.64 0.45,-2.39 0.43,-0.81 1.15,-1 1.64,-1 v 0.21 c -0.39,0 -0.97,0.25 -1.15,1.21 -0.11,0.59 -0.11,1.51 -0.11,2.09 0,0.64 0,1.29 0.08,1.83 0.19,1.18 0.93,1.27 1.18,1.27 0.33,0 0.99,-0.18 1.18,-1.16 0.1,-0.56 0.1,-1.31 0.1,-1.94 0,-0.74 0,-1.42 -0.11,-2.05 -0.15,-0.95 -0.72,-1.25 -1.17,-1.25 h 0 v -0.21 c 0.54,0 1.3,0.2 1.73,1.15 0.32,0.68 0.37,1.46 0.37,2.24 z"
         inkscape:connector-curvature="0"
         style="fill:#d45500;stroke-width:0" /><path
         id="path3758"
         d="m 270.48,709.61 0,0.07 0,0.08 0,0.08 0,0.08 -0.01,0.17 -0.01,0.17 -0.02,0.18 -0.02,0.19 -0.03,0.2 -0.03,0.2 -0.04,0.2 -0.05,0.21 -0.05,0.21 -0.06,0.21 -0.07,0.21 -0.08,0.21 -0.04,0.11 -0.05,0.11 -0.04,0.1 -0.05,0.11 c -0.6,1.22 -1.46,1.87 -1.56,1.87 -0.06,0 -0.1,-0.04 -0.1,-0.1 0,-0.03 0,-0.05 0.19,-0.23 0.98,-0.99 1.54,-2.57 1.54,-4.64 0,-1.7 -0.36,-3.45 -1.6,-4.7 -0.13,-0.12 -0.13,-0.14 -0.13,-0.17 0,-0.06 0.04,-0.1 0.1,-0.1 0.1,0 1,0.68 1.59,1.94 0.5,1.09 0.62,2.19 0.62,3.03 z"
         inkscape:connector-curvature="0"
         style="fill:#d45500;stroke-width:0" /></g>    <path
       sodipodi:nodetypes="cc"
       inkscape:connector-curvature="0"
       id="path5323-6-7-4"
       d="m 428.13948,702.2565 c 8.34241,16.8359 67.99355,19.69404 90.30354,21.81161"
       style="fill:none;stroke:#000000;stroke-width:1px;stroke-linecap:butt;stroke-linejoin:miter;stroke-miterlimit:4;stroke-opacity:1;stroke-dasharray:none;marker-end:url(#Arrow1LendgGGK)" />
    <g
       style="font-style:normal;font-variant:normal;font-weight:normal;font-stretch:normal;letter-spacing:normal;word-spacing:normal;text-anchor:start;fill:none;stroke:#000000;stroke-linecap:butt;stroke-linejoin:miter;stroke-miterlimit:10.43299961;stroke-opacity:1;stroke-dasharray:none;stroke-dashoffset:0"
       ns0:preamble="/home/eric/BHLectures/Notes/latex_inkscape.ini"
       ns0:text="$\\theta=\\frac{\\pi}{2}$"
       word-spacing="normal"
       letter-spacing="normal"
       font-size-adjust="none"
       font-stretch="normal"
       font-weight="normal"
       font-variant="normal"
       font-style="normal"
       stroke-miterlimit="10.433"
       xml:space="preserve"
       transform="matrix(3,0,0,-3,149.80916,2923.0481)"
       id="g4701"><path
         id="path4703"
         d="m 227.96,712.09 0,0.07 0,0.06 -0.01,0.07 0,0.08 -0.01,0.07 0,0.08 -0.01,0.08 -0.01,0.09 -0.02,0.08 -0.01,0.08 -0.02,0.09 -0.02,0.08 -0.02,0.09 -0.03,0.08 -0.03,0.08 -0.03,0.09 -0.03,0.07 -0.04,0.08 -0.04,0.08 -0.04,0.07 -0.05,0.06 -0.05,0.07 -0.05,0.06 -0.06,0.05 -0.06,0.05 -0.03,0.02 -0.04,0.03 -0.03,0.02 -0.04,0.01 -0.03,0.02 -0.04,0.02 -0.04,0.01 -0.04,0.01 -0.04,0.01 -0.04,0.01 -0.05,0.01 -0.04,0 -0.05,0.01 -0.05,0 0,-0.22 c 0.48,0 0.54,-0.64 0.54,-1.2 0,-0.49 -0.08,-1 -0.32,-1.98 h -2.08 c 0.17,0.64 0.37,1.43 0.77,2.14 0.27,0.48 0.64,1.04 1.09,1.04 l 0,0.22 c -1.38,0 -2.91,-2.8 -2.91,-5.08 0,-0.93 0.29,-2.03 1.19,-2.03 v 0.21 c -0.33,0 -0.53,0.29 -0.53,1.22 0,0.41 0.06,0.99 0.31,1.96 h 2.07 c -0.1,-0.45 -0.31,-1.3 -0.69,-2.01 -0.35,-0.68 -0.73,-1.17 -1.16,-1.17 v -0.21 c 1.41,0 2.92,2.85 2.92,5.07 z"
         inkscape:connector-curvature="0"
         style="fill:#000000;stroke-width:0" /><path
         id="path4705"
         d="m 237.99,710.37 0.03,0 0.03,0 0.02,0 0.02,0.01 0.01,0 0.02,0 0.01,0 0.02,0 0.01,0 0.01,0.01 0.02,0 0.01,0 0.01,0.01 0.02,0 0.01,0.01 0.01,0 0.01,0.01 0.01,0.01 0.01,0.01 0.01,0.01 0,0.01 0.01,0 0,0.01 0,0 0.01,0.01 0,0.01 0,0 0.01,0.01 0,0.01 0,0 0,0.01 0,0.01 0,0.01 0,0.01 0.01,0 0,0.01 0,0.01 c 0,0.2 -0.19,0.2 -0.33,0.2 h -5.96 c -0.14,0 -0.33,0 -0.33,-0.2 0,-0.2 0.19,-0.2 0.34,-0.2 z"
         inkscape:connector-curvature="0"
         style="fill:#000000;stroke-width:0" /><path
         id="path4707"
         d="m 238,708.45 0.01,0 0.01,0 0.03,0 0.03,0 0.01,0 0.02,0 0.01,0 0.02,0 0.01,0 0.01,0.01 0.02,0 0.01,0 0.01,0.01 0.01,0 0.02,0.01 0.01,0 0.01,0.01 0.01,0 0.01,0.01 0.01,0.01 0.01,0.01 0,0 0,0.01 0.01,0.01 0,0 0,0.01 0.01,0 0,0.01 0,0.01 0.01,0 0,0.01 0,0.01 0,0 0,0.01 0,0.01 0,0.01 0.01,0.01 0,0.01 0,0.01 c 0,0.19 -0.19,0.19 -0.34,0.19 h -5.94 c -0.15,0 -0.34,0 -0.34,-0.19 0,-0.2 0.19,-0.2 0.33,-0.2 z"
         inkscape:connector-curvature="0"
         style="fill:#000000;stroke-width:0" /><path
         id="path4709"
         d="m 245.03,713.57 h 0.83 c -0.1,-0.41 -0.26,-1.05 -0.26,-1.6 0,-0.27 0.04,-0.46 0.08,-0.62 0.11,-0.34 0.2,-0.37 0.31,-0.37 0.16,0 0.33,0.14 0.33,0.31 0,0.06 -0.02,0.09 -0.06,0.15 -0.13,0.26 -0.25,0.66 -0.25,1.23 0,0.13 0,0.41 0.09,0.9 h 0.87 c 0.13,0 0.18,0 0.26,0.06 0.1,0.07 0.12,0.18 0.12,0.21 0,0.2 -0.18,0.2 -0.3,0.2 h -2.62 c -0.29,0 -0.48,-0.06 -0.8,-0.35 -0.18,-0.16 -0.45,-0.53 -0.45,-0.6 0,-0.08 0.09,-0.08 0.12,-0.08 0.07,0 0.08,0.01 0.12,0.08 0.36,0.48 0.79,0.48 0.94,0.48 h 0.43 c -0.22,-0.76 -0.59,-1.58 -0.8,-2 -0.04,-0.09 -0.11,-0.24 -0.14,-0.27 0,-0.02 -0.02,-0.05 -0.02,-0.1 0,-0.11 0.09,-0.22 0.25,-0.22 0.27,0 0.35,0.31 0.52,0.94 z"
         inkscape:connector-curvature="0"
         style="fill:#000000;stroke-width:0" /><line
         id="line4711"
         y2="709.62"
         x2="247.77"
         y1="709.62"
         x1="242.87"
         style="stroke-width:0.398" /><path
         id="path4713"
         d="m 246.85,704.96 h -0.24 c -0.02,-0.16 -0.09,-0.57 -0.18,-0.64 -0.05,-0.04 -0.59,-0.04 -0.69,-0.04 h -1.28 c 0.73,0.65 0.98,0.84 1.39,1.17 0.52,0.41 1,0.84 1,1.5 0,0.84 -0.74,1.36 -1.63,1.36 -0.86,0 -1.45,-0.61 -1.45,-1.25 0,-0.35 0.3,-0.39 0.37,-0.39 0.17,0 0.37,0.12 0.37,0.37 0,0.13 -0.05,0.37 -0.41,0.37 0.22,0.49 0.69,0.65 1.02,0.65 0.69,0 1.06,-0.54 1.06,-1.11 0,-0.6 -0.44,-1.08 -0.66,-1.33 l -1.68,-1.66 c -0.07,-0.06 -0.07,-0.07 -0.07,-0.27 h 2.87 z"
         inkscape:connector-curvature="0"
         style="fill:#000000;stroke-width:0" /></g>    <path
       transform="matrix(0.80275279,0,0,0.80275279,204.29742,560.57095)"
       sodipodi:type="arc"
       style="fill:none;stroke:#a02c2c;stroke-width:2.49142703;stroke-miterlimit:4;stroke-opacity:1;stroke-dasharray:2.49142703,2.49142703;stroke-dashoffset:0"
       id="path3763-8-8-8"
       sodipodi:cx="395"
       sodipodi:cy="199.09448"
       sodipodi:rx="75"
       sodipodi:ry="75"
       d="m 470,199.09448 c 0,41.42136 -33.57864,75 -75,75 -41.42136,0 -75,-33.57864 -75,-75 0,-41.42135 33.57864,-75 75,-75 41.42136,0 75,33.57865 75,75 z" />
    <g
       id="g5789"
       transform="matrix(2.2068734,0,0,-2.2068734,-108.7888,2261.6361)"
       xml:space="preserve"
       stroke-miterlimit="10.433"
       font-style="normal"
       font-variant="normal"
       font-weight="normal"
       font-stretch="normal"
       font-size-adjust="none"
       letter-spacing="normal"
       word-spacing="normal"
       ns0:text="$r\\!\\rightarrow\\!-\\infty$"
       ns0:preamble="/home/eric/BHLectures/Notes/latex_inkscape.ini"
       style="font-style:normal;font-variant:normal;font-weight:normal;font-stretch:normal;letter-spacing:normal;word-spacing:normal;text-anchor:start;fill:none;stroke:#000000;stroke-linecap:butt;stroke-linejoin:miter;stroke-miterlimit:10.43299961;stroke-opacity:1;stroke-dasharray:none;stroke-dashoffset:0"><path
         style="fill:#000000;stroke-width:0"
         inkscape:connector-curvature="0"
         d="m 224.31,707.71 0,-0.01 -0.01,-0.02 0,-0.01 0,-0.02 -0.01,-0.03 -0.01,-0.03 -0.01,-0.03 0,-0.04 -0.01,-0.03 -0.01,-0.03 0,-0.01 -0.01,-0.02 0,-0.01 0,-0.02 0,-0.01 -0.01,-0.01 0,-0.02 0,-0.01 0,-0.01 -0.01,-0.01 0,-0.01 0,-0.01 0,-0.01 0,0 0,-0.01 0,-0.01 c 0,-0.18 0.14,-0.26 0.29,-0.26 0.12,0 0.29,0.07 0.37,0.27 0.02,0.04 0.35,1.39 0.39,1.57 0.08,0.33 0.26,1.03 0.32,1.3 0.04,0.12 0.32,0.59 0.56,0.81 0.08,0.07 0.37,0.33 0.79,0.33 0.26,0 0.41,-0.12 0.42,-0.12 -0.3,-0.05 -0.51,-0.29 -0.51,-0.55 0,-0.16 0.1,-0.35 0.37,-0.35 0.27,0 0.55,0.23 0.55,0.59 0,0.35 -0.32,0.65 -0.83,0.65 -0.64,0 -1.08,-0.49 -1.27,-0.77 -0.08,0.45 -0.44,0.77 -0.91,0.77 -0.45,0 -0.64,-0.39 -0.73,-0.57 -0.18,-0.34 -0.31,-0.93 -0.31,-0.96 0,-0.1 0.1,-0.1 0.12,-0.1 0.1,0 0.11,0.01 0.17,0.22 0.17,0.71 0.37,1.19 0.73,1.19 0.16,0 0.3,-0.08 0.3,-0.46 0,-0.21 -0.03,-0.32 -0.16,-0.83 z"
         id="path5791" /><path
         style="fill:#000000;stroke-width:0"
         inkscape:connector-curvature="0"
         d="m 237.61,709.41 -0.05,-0.04 -0.05,-0.04 -0.05,-0.04 -0.04,-0.04 -0.05,-0.03 -0.04,-0.04 -0.04,-0.04 -0.04,-0.04 -0.04,-0.03 -0.04,-0.04 -0.03,-0.04 -0.03,-0.03 -0.04,-0.04 -0.03,-0.03 -0.03,-0.03 -0.02,-0.04 -0.03,-0.03 -0.03,-0.03 -0.02,-0.03 -0.02,-0.03 -0.02,-0.02 -0.02,-0.03 -0.02,-0.02 -0.02,-0.03 -0.02,-0.02 -0.01,-0.02 -0.02,-0.02 -0.01,-0.02 -0.01,-0.02 -0.01,-0.02 -0.01,-0.01 -0.01,-0.01 c -0.44,-0.69 -0.52,-1.31 -0.52,-1.32 0,-0.12 0.11,-0.12 0.19,-0.12 0.17,0 0.18,0.02 0.22,0.19 0.23,0.98 0.82,1.81 1.94,2.27 0.12,0.04 0.15,0.06 0.15,0.13 0,0.07 -0.06,0.1 -0.08,0.11 -0.43,0.17 -1.64,0.66 -2.02,2.33 -0.03,0.12 -0.04,0.15 -0.21,0.15 -0.08,0 -0.19,0 -0.19,-0.12 0,-0.02 0.08,-0.64 0.5,-1.31 0.2,-0.3 0.49,-0.65 0.92,-0.96 h -7.39 c -0.18,0 -0.36,0 -0.36,-0.2 0,-0.2 0.18,-0.2 0.36,-0.2 z"
         id="path5793" /><path
         style="fill:#000000;stroke-width:0"
         inkscape:connector-curvature="0"
         d="m 246.94,709.41 0.03,0 0.03,0 0.03,0 0.02,0 0.01,0 0.02,0 0.01,0.01 0.02,0 0.01,0 0.01,0 0.02,0.01 0.01,0 0.01,0 0.02,0.01 0.01,0.01 0.01,0 0.01,0.01 0.01,0.01 0.01,0 0.01,0.01 0,0.01 0.01,0.01 0,0 0,0.01 0.01,0.01 0,0 0,0.01 0,0.01 0.01,0 0,0.01 0,0.01 0,0.01 0,0 0,0.01 0,0.01 0,0.01 0,0.01 c 0,0.2 -0.18,0.2 -0.34,0.2 h -5.39 c -0.17,0 -0.34,0 -0.34,-0.2 0,-0.2 0.17,-0.2 0.34,-0.2 z"
         id="path5795" /><path
         style="fill:#000000;stroke-width:0"
         inkscape:connector-curvature="0"
         d="m 252.86043,710.50217 -0.05,0.06 -0.04,0.06 -0.05,0.05 -0.04,0.06 -0.04,0.05 -0.04,0.05 -0.04,0.04 -0.03,0.04 -0.04,0.05 -0.03,0.04 -0.03,0.03 -0.03,0.04 -0.03,0.03 -0.02,0.03 -0.03,0.03 -0.03,0.03 -0.02,0.03 -0.03,0.03 -0.02,0.02 -0.02,0.03 -0.05,0.05 -0.05,0.04 -0.05,0.05 -0.04,0.04 -0.06,0.04 -0.02,0.03 -0.03,0.02 c -0.56,0.45 -1.12,0.63 -1.62,0.63 -1.17,0 -1.92,-1.1 -1.92,-2.26 h 0.21 c 0,0.97 0.67,1.78 1.55,1.78 0.57,0 1.02,-0.42 1.23,-0.63 0.25,-0.26 0.48,-0.57 1.09,-1.36 h 0 c -0.41,-0.71 -1.15,-1.72 -2.27,-1.72 -1.06,0 -1.6,1.04 -1.6,1.93 h -0.21 c 0,-1.14 0.73,-2.24 1.88,-2.24 1.14,0 1.97,0.9 2.45,1.69 0.54,-0.67 0.66,-0.82 0.97,-1.07 0.56,-0.44 1.11,-0.62 1.62,-0.62 1.16,0 1.92,1.09 1.92,2.25 h -0.22 c 0,-0.97 -0.66,-1.78 -1.54,-1.78 -0.58,0 -1.02,0.42 -1.23,0.63 -0.25,0.27 -0.48,0.58 -1.09,1.36 h 0 c 0.41,0.72 1.15,1.72 2.27,1.72 1.05,0 1.59,-1.04 1.59,-1.93 h 0.22 c 0,1.14 -0.74,2.25 -1.88,2.25 -1.14,0 -1.97,-0.91 -2.46,-1.7 z"
         id="path5797" /></g>    <g
       id="g6292"
       transform="matrix(3,0,0,-3,-117.36136,2771.442)"
       xml:space="preserve"
       stroke-miterlimit="10.433"
       font-style="normal"
       font-variant="normal"
       font-weight="normal"
       font-stretch="normal"
       font-size-adjust="none"
       letter-spacing="normal"
       word-spacing="normal"
       ns0:text="$r\\!=\\!0$"
       ns0:preamble="/home/eric/BHLectures/Notes/latex_inkscape.ini"
       style="font-style:normal;font-variant:normal;font-weight:normal;font-stretch:normal;letter-spacing:normal;word-spacing:normal;text-anchor:start;fill:#a02c2c;stroke:#000000;stroke-linecap:butt;stroke-linejoin:miter;stroke-miterlimit:10.43299961;stroke-opacity:1;stroke-dasharray:none;stroke-dashoffset:0"><path
         style="fill:#a02c2c;stroke-width:0"
         inkscape:connector-curvature="0"
         d="m 224.31,707.71 0,-0.01 -0.01,-0.02 0,-0.01 0,-0.02 -0.01,-0.03 -0.01,-0.03 -0.01,-0.03 0,-0.04 -0.01,-0.03 -0.01,-0.03 0,-0.01 -0.01,-0.02 0,-0.01 0,-0.02 0,-0.01 -0.01,-0.01 0,-0.02 0,-0.01 0,-0.01 -0.01,-0.01 0,-0.01 0,-0.01 0,-0.01 0,0 0,-0.01 0,-0.01 c 0,-0.18 0.14,-0.26 0.29,-0.26 0.12,0 0.29,0.07 0.37,0.27 0.02,0.04 0.35,1.39 0.39,1.57 0.08,0.33 0.26,1.03 0.32,1.3 0.04,0.12 0.32,0.59 0.56,0.81 0.08,0.07 0.37,0.33 0.79,0.33 0.26,0 0.41,-0.12 0.42,-0.12 -0.3,-0.05 -0.51,-0.29 -0.51,-0.55 0,-0.16 0.1,-0.35 0.37,-0.35 0.27,0 0.55,0.23 0.55,0.59 0,0.35 -0.32,0.65 -0.83,0.65 -0.64,0 -1.08,-0.49 -1.27,-0.77 -0.08,0.45 -0.44,0.77 -0.91,0.77 -0.45,0 -0.64,-0.39 -0.73,-0.57 -0.18,-0.34 -0.31,-0.93 -0.31,-0.96 0,-0.1 0.1,-0.1 0.12,-0.1 0.1,0 0.11,0.01 0.17,0.22 0.17,0.71 0.37,1.19 0.73,1.19 0.16,0 0.3,-0.08 0.3,-0.46 0,-0.21 -0.03,-0.32 -0.16,-0.83 z"
         id="path6294" /><path
         style="fill:#a02c2c;stroke-width:0"
         inkscape:connector-curvature="0"
         d="m 236.15,710.37 0.02,0 0.03,0 0.03,0 0.02,0.01 0.01,0 0.02,0 0.01,0 0.01,0 0.02,0 0.01,0.01 0.02,0 0.01,0 0.01,0.01 0.01,0 0.01,0.01 0.02,0 0.01,0.01 0.01,0.01 0.01,0.01 0,0.01 0.01,0.01 0.01,0 0,0.01 0,0 0.01,0.01 0,0.01 0,0 0,0.01 0.01,0.01 0,0 0,0.01 0,0.01 0,0.01 0,0.01 0,0 0,0.01 0,0.01 c 0,0.2 -0.19,0.2 -0.32,0.2 h -5.96 c -0.14,0 -0.33,0 -0.33,-0.2 0,-0.2 0.19,-0.2 0.34,-0.2 z"
         id="path6296" /><path
         style="fill:#a02c2c;stroke-width:0"
         inkscape:connector-curvature="0"
         d="m 236.16,708.45 0.01,0 0.01,0 0.03,0 0.03,0 0.01,0 0.02,0 0.01,0 0.01,0 0.02,0 0.01,0.01 0.01,0 0.02,0 0.01,0.01 0.01,0 0.01,0.01 0.02,0 0.01,0.01 0.01,0 0.01,0.01 0.01,0.01 0,0.01 0.01,0 0,0.01 0.01,0.01 0,0 0,0.01 0.01,0 0,0.01 0,0.01 0,0 0.01,0.01 0,0.01 0,0 0,0.01 0,0.01 0,0.01 0,0.01 0,0.01 0,0.01 c 0,0.19 -0.19,0.19 -0.33,0.19 h -5.94 c -0.15,0 -0.34,0 -0.34,-0.19 0,-0.2 0.19,-0.2 0.33,-0.2 z"
         id="path6298" /><path
         style="fill:#a02c2c;stroke-width:0"
         inkscape:connector-curvature="0"
         d="m 242.74,710.3 0,0.15 0,0.15 0,0.15 -0.01,0.15 -0.01,0.15 -0.01,0.14 -0.02,0.15 -0.02,0.15 -0.02,0.14 -0.03,0.15 -0.03,0.14 -0.04,0.15 -0.04,0.14 -0.05,0.14 -0.05,0.14 -0.03,0.07 -0.04,0.07 c -0.45,0.95 -1.27,1.11 -1.69,1.11 -0.59,0 -1.32,-0.26 -1.73,-1.18 -0.32,-0.69 -0.37,-1.46 -0.37,-2.26 0,-0.74 0.04,-1.64 0.45,-2.39 0.43,-0.81 1.16,-1 1.64,-1 v 0.21 c -0.38,0 -0.97,0.25 -1.15,1.21 -0.11,0.59 -0.11,1.51 -0.11,2.09 0,0.64 0,1.29 0.08,1.83 0.19,1.18 0.93,1.27 1.18,1.27 0.33,0 0.99,-0.18 1.18,-1.16 0.1,-0.56 0.1,-1.31 0.1,-1.94 0,-0.74 0,-1.42 -0.11,-2.05 -0.15,-0.95 -0.72,-1.25 -1.17,-1.25 h 0 v -0.21 c 0.54,0 1.3,0.2 1.73,1.15 0.32,0.68 0.37,1.46 0.37,2.24 z"
         id="path6300" /></g>    <path
       sodipodi:nodetypes="cc"
       inkscape:connector-curvature="0"
       id="path5323-6-7-1"
       d="m 582.31352,652.08719 c -5.62335,10.98832 -8.94257,13.1902 -20.69724,20.20413"
       style="fill:none;stroke:#a02c2c;stroke-width:1px;stroke-linecap:butt;stroke-linejoin:miter;stroke-miterlimit:4;stroke-opacity:1;stroke-dasharray:none;marker-end:url(#Arrow1LendgGGr)" />
    <path
       sodipodi:type="arc"
       style="fill:none;stroke:#000000;stroke-width:2;stroke-miterlimit:4;stroke-opacity:1;stroke-dasharray:none;stroke-dashoffset:0"
       id="path6678"
       sodipodi:cx="120.95036"
       sodipodi:cy="318.4762"
       sodipodi:rx="4.5841241"
       sodipodi:ry="4.5841241"
       d="m 125.53449,318.4762 a 4.5841241,4.5841241 0 1 1 -9.16825,0 4.5841241,4.5841241 0 1 1 9.16825,0 z"
       transform="translate(399.17143,405.59218)" />
  </g>
</svg>
