<?xml version="1.0" encoding="UTF-8" standalone="no"?>
<!-- Created with Inkscape (http://www.inkscape.org/) -->

<svg
   xmlns:ns0="http://www.iki.fi/pav/software/textext/"
   xmlns:dc="http://purl.org/dc/elements/1.1/"
   xmlns:cc="http://creativecommons.org/ns#"
   xmlns:rdf="http://www.w3.org/1999/02/22-rdf-syntax-ns#"
   xmlns:svg="http://www.w3.org/2000/svg"
   xmlns="http://www.w3.org/2000/svg"
   xmlns:xlink="http://www.w3.org/1999/xlink"
   xmlns:sodipodi="http://sodipodi.sourceforge.net/DTD/sodipodi-0.dtd"
   xmlns:inkscape="http://www.inkscape.org/namespaces/inkscape"
   width="297mm"
   height="210mm"
   viewBox="0 0 297 210"
   version="1.1"
   id="svg8"
   inkscape:version="0.92.5 (2060ec1f9f, 2020-04-08)"
   sodipodi:docname="lem_image.svg">
  <defs
     id="defs2">
    <marker
       inkscape:stockid="Arrow1Lend"
       orient="auto"
       refY="0.0"
       refX="0.0"
       id="Arrow1Lend"
       style="overflow:visible;"
       inkscape:isstock="true">
      <path
         id="path1171"
         d="M 0.0,0.0 L 5.0,-5.0 L -12.5,0.0 L 5.0,5.0 L 0.0,0.0 z "
         style="fill-rule:evenodd;stroke:#000000;stroke-width:1pt;stroke-opacity:1;fill:#000000;fill-opacity:1"
         transform="scale(0.8) rotate(180) translate(12.5,0)" />
    </marker>
    <linearGradient
       inkscape:collect="always"
       id="linearGradient865">
      <stop
         id="stop863"
         offset="0"
         style="stop-color:#ffff00;stop-opacity:0;" />
      <stop
         id="stop861"
         offset="1"
         style="stop-color:#ffff00;stop-opacity:1;" />
    </linearGradient>
    <radialGradient
       inkscape:collect="always"
       xlink:href="#linearGradient865"
       id="radialGradient867"
       cx="119.42242"
       cy="176.92363"
       fx="119.42242"
       fy="176.92363"
       r="48.529167"
       gradientUnits="userSpaceOnUse" />
  </defs>
  <sodipodi:namedview
     id="base"
     pagecolor="#ffffff"
     bordercolor="#666666"
     borderopacity="1.0"
     inkscape:pageopacity="0.0"
     inkscape:pageshadow="2"
     inkscape:zoom="1.5322206"
     inkscape:cx="453.54331"
     inkscape:cy="453.54328"
     inkscape:document-units="mm"
     inkscape:current-layer="layer1"
     showgrid="true"
     inkscape:snap-grids="true"
     inkscape:snap-global="false"
     inkscape:window-width="1848"
     inkscape:window-height="1016"
     inkscape:window-x="72"
     inkscape:window-y="27"
     inkscape:window-maximized="1">
    <inkscape:grid
       id="grid815"
       type="xygrid" />
  </sodipodi:namedview>
  <metadata
     id="metadata5">
    <rdf:RDF>
      <cc:Work
         rdf:about="">
        <dc:format>image/svg+xml</dc:format>
        <dc:type
           rdf:resource="http://purl.org/dc/dcmitype/StillImage" />
        <dc:title />
      </cc:Work>
    </rdf:RDF>
  </metadata>
  <g
     inkscape:label="Calque 1"
     inkscape:groupmode="layer"
     id="layer1"
     transform="translate(0,-87)">
    <circle
       style="opacity:1;fill:url(#radialGradient867);fill-opacity:1;stroke:#000000;stroke-width:0.70555556;stroke-miterlimit:4;stroke-dasharray:none;stroke-dashoffset:0;stroke-opacity:1"
       id="path817"
       cx="119.42242"
       cy="176.92363"
       r="48" />
    <rect
       style="opacity:1;fill:none;fill-opacity:1;stroke:#000000;stroke-width:0.70555556;stroke-miterlimit:4;stroke-dasharray:none;stroke-dashoffset:0;stroke-opacity:1"
       id="rect819"
       width="192"
       height="144"
       x="24"
       y="105.00001" />
    <path
       style="fill:none;fill-rule:evenodd;stroke:#000000;stroke-width:0.35277778;stroke-linecap:butt;stroke-linejoin:miter;stroke-opacity:1;stroke-miterlimit:4;stroke-dasharray:none"
       d="m 120,105 v 144 0"
       id="path821"
       inkscape:connector-curvature="0" />
    <path
       style="fill:none;fill-rule:evenodd;stroke:#000000;stroke-width:0.35277778;stroke-linecap:butt;stroke-linejoin:miter;stroke-opacity:1;stroke-miterlimit:4;stroke-dasharray:none"
       d="M 24,177 H 216"
       id="path823"
       inkscape:connector-curvature="0" />
    <path
       style="fill:none;fill-rule:evenodd;stroke:#000000;stroke-width:0.52916667;stroke-linecap:butt;stroke-linejoin:miter;stroke-opacity:1;stroke-miterlimit:4;stroke-dasharray:none"
       d="m 120,177 30.01432,-17.73508"
       id="path825"
       inkscape:connector-curvature="0"
       sodipodi:nodetypes="cc" />
    <path
       style="opacity:1;fill:none;fill-opacity:1;stroke:#000000;stroke-width:0.52916664;stroke-miterlimit:4;stroke-dasharray:none;stroke-dashoffset:0;stroke-opacity:1"
       id="path871"
       sodipodi:type="arc"
       sodipodi:cx="122.86084"
       sodipodi:cy="-176.86018"
       sodipodi:rx="9.0214796"
       sodipodi:ry="9.0214796"
       sodipodi:start="0"
       sodipodi:end="0.69083166"
       sodipodi:open="true"
       d="m 131.88232,-176.86018 a 9.0214796,9.0214796 0 0 1 -2.06848,5.74829"
       transform="scale(1,-1)" />
    <circle
       style="opacity:1;fill:#000000;fill-opacity:1;stroke:none;stroke-width:0.52916664;stroke-miterlimit:4;stroke-dasharray:none;stroke-dashoffset:0;stroke-opacity:1"
       id="path892"
       cx="149.98422"
       cy="159.22081"
       r="1.1224178" />
    <g
       ns0:preamble="/home/eric/BHLectures/Notes/latex_inkscape.ini"
       ns0:text="$b$\n"
       word-spacing="normal"
       letter-spacing="normal"
       font-size-adjust="none"
       font-stretch="normal"
       font-weight="normal"
       font-variant="normal"
       font-style="normal"
       stroke-miterlimit="10.433"
       xml:space="preserve"
       transform="matrix(0.97063834,0,0,-0.97063834,-83.852715,852.25497)"
       id="content"
       style="font-style:normal;font-variant:normal;font-weight:normal;font-stretch:normal;letter-spacing:normal;word-spacing:normal;text-anchor:start;fill:none;fill-opacity:1;fill-rule:evenodd;stroke:#000000;stroke-linecap:butt;stroke-linejoin:miter;stroke-miterlimit:10.43299961;stroke-dasharray:none;stroke-dashoffset:0;stroke-opacity:1">
<path
   id="path909"
   d="m 225.82,713.91 v 0 h -0.01 v 0 0 0.01 0 0 0.01 0 0.01 0 0 0.01 0 l -0.01,0.01 v 0 0.01 0 l -0.01,0.01 v 0 l -0.01,0.01 v 0 0 0 l -0.01,0.01 v 0 0 h -0.01 v 0 0.01 h -0.01 v 0 0 h -0.01 v 0 h -0.01 v 0 l -0.01,0.01 v 0 h -0.01 v 0 h -0.01 v 0 h -0.01 v 0 c -0.23,0 -0.96,-0.08 -1.22,-0.1 -0.08,-0.01 -0.19,-0.02 -0.19,-0.2 0,-0.12 0.09,-0.12 0.24,-0.12 0.48,0 0.5,-0.07 0.5,-0.17 0,-0.07 -0.09,-0.4 -0.14,-0.61 l -0.82,-3.24 c -0.12,-0.5 -0.16,-0.66 -0.16,-1 0,-0.95 0.53,-1.56 1.27,-1.56 v 0.21 c -0.34,0 -0.67,0.27 -0.67,1.01 0,0.19 0,0.37 0.16,1 l 0.22,0.92 c 0.06,0.21 0.06,0.23 0.15,0.34 0.49,0.65 0.93,0.8 1.19,0.8 0.36,0 0.63,-0.3 0.63,-0.94 0,-0.58 -0.33,-1.72 -0.51,-2.1 -0.33,-0.67 -0.78,-1.03 -1.17,-1.03 v -0.21 c 1.17,0 2.4,1.48 2.4,2.91 0,0.9 -0.53,1.59 -1.33,1.59 -0.45,0 -0.86,-0.29 -1.16,-0.6 z"
   inkscape:connector-curvature="0"
   style="fill:#000000;stroke-width:0" />
</g>    <g
       style="font-style:normal;font-variant:normal;font-weight:normal;font-stretch:normal;letter-spacing:normal;word-spacing:normal;text-anchor:start;fill:none;fill-opacity:1;fill-rule:evenodd;stroke:#000000;stroke-linecap:butt;stroke-linejoin:miter;stroke-miterlimit:10.43299961;stroke-dasharray:none;stroke-dashoffset:0;stroke-opacity:1"
       ns0:preamble="/home/eric/BHLectures/Notes/latex_inkscape.ini"
       ns0:text="$\\phi$\n\n"
       word-spacing="normal"
       letter-spacing="normal"
       font-size-adjust="none"
       font-stretch="normal"
       font-weight="normal"
       font-variant="normal"
       font-style="normal"
       stroke-miterlimit="10.433"
       xml:space="preserve"
       transform="matrix(0.97063835,0,0,-0.97063835,-82.862796,860.6018)"
       id="g954">
<path
   id="path952"
   d="m 227.79,713.78 v 0 0 0 0.01 0 0 0 0 0.01 0 0 0.01 h 0.01 v 0.01 0.01 0 0.01 0 l 0.01,0.01 v 0.02 0 0.01 0 0.01 0 l 0.01,0.01 v 0 0.01 0 0 0 0 0 0.01 0 0 0 0 0 c 0,0.01 0,0.1 -0.12,0.1 -0.1,0 -0.11,-0.03 -0.15,-0.2 l -0.58,-2.29 c -1.58,-0.05 -3.05,-1.37 -3.05,-2.73 0,-0.94 0.7,-1.72 1.92,-1.79 l 0.04,0.21 c -0.59,0.03 -1.31,0.38 -1.31,1.37 0,1.2 0.86,2.59 2.34,2.72 l -1.03,-4.09 -0.04,-0.21 c -0.08,-0.31 -0.15,-0.63 -0.23,-0.94 -0.12,-0.47 -0.22,-0.84 -0.22,-0.87 0,-0.1 0.07,-0.11 0.12,-0.11 0.05,0 0.07,0.01 0.1,0.04 0.02,0.02 0.08,0.26 0.11,0.4 l 0.38,1.48 0.04,0.21 1.03,4.09 c 0.76,-0.04 1.33,-0.5 1.33,-1.37 0,-1.18 -0.86,-2.6 -2.36,-2.72 l -0.04,-0.21 c 1.6,0.04 3.05,1.39 3.05,2.72 0,0.78 -0.53,1.7 -1.92,1.8 z"
   inkscape:connector-curvature="0"
   style="fill:#000000;stroke-width:0" />
</g>    <circle
       style="opacity:1;fill:#000000;fill-opacity:1;stroke:none;stroke-width:0.52916664;stroke-miterlimit:4;stroke-dasharray:none;stroke-dashoffset:0;stroke-opacity:1"
       id="path892-7"
       cx="119.97812"
       cy="177.05756"
       r="1.1224178" />
    <g
       style="font-style:normal;font-variant:normal;font-weight:normal;font-stretch:normal;letter-spacing:normal;word-spacing:normal;text-anchor:start;fill:none;fill-opacity:1;fill-rule:evenodd;stroke:#000000;stroke-linecap:butt;stroke-linejoin:miter;stroke-miterlimit:10.43299961;stroke-dasharray:none;stroke-dashoffset:0;stroke-opacity:1"
       ns0:preamble="/home/eric/BHLectures/Notes/latex_inkscape.ini"
       ns0:text="$b\\!=\\!b_\\star(t_{\\mathscr{O}})$\n\n\n"
       word-spacing="normal"
       letter-spacing="normal"
       font-size-adjust="none"
       font-stretch="normal"
       font-weight="normal"
       font-variant="normal"
       font-style="normal"
       stroke-miterlimit="10.433"
       xml:space="preserve"
       transform="matrix(0.97063835,0,0,-0.97063835,-59.255156,829.98412)"
       id="g1110">
<path
   id="path1092"
   d="m 225.82,713.91 v 0 h -0.01 v 0 0 0.01 0 0 0.01 0 0.01 0 0 0.01 0 l -0.01,0.01 v 0 0.01 0 l -0.01,0.01 v 0 l -0.01,0.01 v 0 0 0 l -0.01,0.01 v 0 0 h -0.01 v 0 0.01 h -0.01 v 0 0 h -0.01 v 0 h -0.01 v 0 l -0.01,0.01 v 0 h -0.01 v 0 h -0.01 v 0 h -0.01 v 0 c -0.23,0 -0.96,-0.08 -1.22,-0.1 -0.08,-0.01 -0.19,-0.02 -0.19,-0.2 0,-0.12 0.09,-0.12 0.24,-0.12 0.48,0 0.5,-0.07 0.5,-0.17 0,-0.07 -0.09,-0.4 -0.14,-0.61 l -0.82,-3.24 c -0.12,-0.5 -0.16,-0.66 -0.16,-1 0,-0.95 0.53,-1.56 1.27,-1.56 v 0.21 c -0.34,0 -0.67,0.27 -0.67,1.01 0,0.19 0,0.37 0.16,1 l 0.22,0.92 c 0.06,0.21 0.06,0.23 0.15,0.34 0.49,0.65 0.93,0.8 1.19,0.8 0.36,0 0.63,-0.3 0.63,-0.94 0,-0.58 -0.33,-1.72 -0.51,-2.1 -0.33,-0.67 -0.78,-1.03 -1.17,-1.03 v -0.21 c 1.17,0 2.4,1.48 2.4,2.91 0,0.9 -0.53,1.59 -1.33,1.59 -0.45,0 -0.86,-0.29 -1.16,-0.6 z"
   inkscape:connector-curvature="0"
   style="fill:#000000;stroke-width:0" />
<path
   id="path1094"
   d="m 235.67,710.37 h 0.02 0.03 0.03 l 0.02,0.01 h 0.01 0.02 0.01 0.01 0.02 l 0.01,0.01 h 0.02 0.01 l 0.01,0.01 h 0.01 l 0.02,0.01 h 0.01 l 0.01,0.01 0.01,0.01 0.01,0.01 0.01,0.01 v 0.01 h 0.01 v 0.01 0 l 0.01,0.01 v 0.01 0 0.01 l 0.01,0.01 v 0 0.01 0.01 0.01 0.01 0 0.01 l 0.01,0.01 c 0,0.2 -0.19,0.2 -0.33,0.2 h -5.98 c -0.14,0 -0.33,0 -0.33,-0.2 0,-0.2 0.19,-0.2 0.34,-0.2 z"
   inkscape:connector-curvature="0"
   style="fill:#000000;stroke-width:0" />
<path
   id="path1096"
   d="m 235.68,708.45 h 0.01 0.01 0.03 0.03 0.01 0.02 0.01 0.01 0.02 l 0.01,0.01 h 0.01 0.02 l 0.01,0.01 h 0.01 l 0.01,0.01 h 0.02 l 0.01,0.01 h 0.01 l 0.01,0.01 0.01,0.01 0.01,0.01 v 0 0.01 l 0.01,0.01 v 0 0.01 h 0.01 v 0.01 0.01 0 l 0.01,0.01 v 0.01 0 0.01 0.01 0.01 0.01 0.01 l 0.01,0.01 c 0,0.19 -0.19,0.19 -0.34,0.19 h -5.96 c -0.15,0 -0.34,0 -0.34,-0.19 0,-0.2 0.19,-0.2 0.33,-0.2 z"
   inkscape:connector-curvature="0"
   style="fill:#000000;stroke-width:0" />
<path
   id="path1098"
   d="m 240.05,713.91 v 0 0 0 0 0.01 0 0 0.01 0 0.01 0 0 0.01 h -0.01 v 0.01 0 0.01 h -0.01 v 0.01 0 l -0.01,0.01 v 0 0 h -0.01 v 0.01 0 0 H 240 v 0 0.01 h -0.01 v 0 h -0.01 v 0 0 h -0.01 v 0 l -0.01,0.01 v 0 h -0.01 v 0 h -0.01 v 0 h -0.01 -0.01 c -0.23,0 -0.95,-0.08 -1.21,-0.1 -0.08,-0.01 -0.19,-0.02 -0.19,-0.2 0,-0.12 0.09,-0.12 0.24,-0.12 0.48,0 0.5,-0.07 0.5,-0.17 0,-0.07 -0.09,-0.4 -0.14,-0.61 l -0.82,-3.24 c -0.12,-0.5 -0.16,-0.66 -0.16,-1 0,-0.95 0.53,-1.56 1.26,-1.56 v 0.21 c -0.33,0 -0.66,0.27 -0.66,1.01 0,0.19 0,0.37 0.16,1 l 0.22,0.92 c 0.06,0.21 0.06,0.23 0.15,0.34 0.48,0.65 0.93,0.8 1.19,0.8 0.36,0 0.63,-0.3 0.63,-0.94 0,-0.58 -0.33,-1.72 -0.51,-2.1 -0.33,-0.67 -0.79,-1.03 -1.18,-1.03 v -0.21 c 1.18,0 2.41,1.48 2.41,2.91 0,0.9 -0.53,1.59 -1.33,1.59 -0.46,0 -0.86,-0.29 -1.16,-0.6 z"
   inkscape:connector-curvature="0"
   style="fill:#000000;stroke-width:0" />
<path
   id="path1100"
   d="m 245.62,707.63 v 0 h 0.01 v 0 l 0.01,0.01 v 0 h 0.01 v 0 l 0.01,0.01 v 0 h 0.01 v 0 l 0.01,0.01 v 0 0 h 0.01 v 0.01 0 h 0.01 v 0 0 l 0.01,0.01 v 0 l 0.01,0.01 v 0 0.01 h 0.01 v 0 0.01 0 h 0.01 v 0.01 0 0.01 0 0 0 0.01 0 0.01 0 c 0,0.06 -0.06,0.09 -0.09,0.09 -0.04,0 -1.2,-0.22 -1.39,-0.26 l -0.16,1.28 c -0.01,0.1 -0.03,0.18 -0.11,0.18 -0.07,0 -0.1,-0.06 -0.11,-0.17 l -0.16,-1.29 -1.29,0.25 c -0.08,0.01 -0.09,0.01 -0.1,0.01 -0.03,0 -0.1,-0.03 -0.1,-0.09 0,-0.03 0.02,-0.05 0.04,-0.08 0.03,-0.02 1.13,-0.52 1.28,-0.59 l -0.63,-1.16 c -0.05,-0.08 -0.05,-0.09 -0.05,-0.11 0,-0.05 0.04,-0.1 0.09,-0.1 0.06,0 0.21,0.17 0.48,0.48 0.18,0.19 0.37,0.38 0.55,0.57 0.34,-0.35 0.84,-0.9 0.92,-0.98 0.06,-0.05 0.06,-0.07 0.1,-0.07 0.05,0 0.1,0.05 0.1,0.1 0,0.03 -0.09,0.18 -0.14,0.27 l -0.55,0.99 z"
   inkscape:connector-curvature="0"
   style="fill:#000000;stroke-width:0" />
<path
   id="path1102"
   d="m 249.83,704.74 v 0.01 0 0 0.01 0 h -0.01 v 0.01 0 0 0.01 0 l -0.01,0.01 v 0 0.01 h -0.01 v 0.01 l -0.01,0.01 v 0 l -0.01,0.01 v 0 0.01 h -0.01 v 0 l -0.01,0.01 v 0 0.01 h -0.01 v 0.01 h -0.01 v 0.01 h -0.01 l -0.01,0.01 v 0.01 h -0.01 v 0.01 l -0.01,0.01 h -0.01 v 0.01 l -0.01,0.01 h -0.01 l -0.01,0.01 v 0.01 c -1.25,1.25 -1.57,3.13 -1.57,4.65 0,1.73 0.38,3.46 1.61,4.7 0.13,0.12 0.13,0.14 0.13,0.17 0,0.07 -0.04,0.1 -0.1,0.1 -0.1,0 -1,-0.68 -1.59,-1.94 -0.51,-1.09 -0.63,-2.2 -0.63,-3.03 0,-0.78 0.11,-1.98 0.66,-3.1 0.6,-1.22 1.46,-1.87 1.56,-1.87 0.06,0 0.1,0.03 0.1,0.1 z"
   inkscape:connector-curvature="0"
   style="fill:#000000;stroke-width:0" />
<path
   id="path1104"
   d="m 252.45,711.1 h 0.94 c 0.2,0 0.3,0 0.3,0.2 0,0.11 -0.1,0.11 -0.28,0.11 h -0.88 c 0.36,1.41 0.41,1.61 0.41,1.67 0,0.16 -0.12,0.26 -0.29,0.26 -0.03,0 -0.3,-0.01 -0.39,-0.35 l -0.39,-1.58 h -0.94 c -0.2,0 -0.3,0 -0.3,-0.19 0,-0.12 0.08,-0.12 0.28,-0.12 h 0.88 c -0.72,-2.82 -0.76,-2.99 -0.76,-3.17 0,-0.54 0.38,-0.91 0.92,-0.91 1.01,0 1.58,1.45 1.58,1.53 0,0.1 -0.08,0.1 -0.12,0.1 -0.09,0 -0.1,-0.04 -0.15,-0.14 -0.43,-1.04 -0.96,-1.28 -1.29,-1.28 -0.21,0 -0.31,0.13 -0.31,0.46 0,0.24 0.02,0.31 0.06,0.48 z"
   inkscape:connector-curvature="0"
   style="fill:#000000;stroke-width:0" />
<path
   id="path1106"
   d="m 259.93,710.19 -0.03,0.03 -0.03,0.02 -0.03,0.03 -0.03,0.02 -0.03,0.02 -0.03,0.02 -0.03,0.02 -0.04,0.02 -0.03,0.02 -0.04,0.01 -0.03,0.02 -0.04,0.01 -0.04,0.02 -0.04,0.01 -0.04,0.01 -0.04,0.01 -0.04,0.02 -0.04,0.01 h -0.04 l -0.04,0.01 -0.09,0.02 -0.09,0.01 -0.09,0.01 h -0.1 l -0.09,0.01 h -0.1 l -0.02,-0.2 c 0.49,0 0.89,-0.09 1.1,-0.31 0.08,-0.08 0.13,-0.18 0.13,-0.31 0,-0.12 -0.04,-0.26 -0.15,-0.42 -0.09,-0.12 -0.2,-0.23 -0.35,-0.31 -0.05,-0.04 -0.11,-0.06 -0.16,-0.08 -0.09,0.42 -0.45,0.68 -1,0.68 -0.3,0 -0.65,-0.22 -0.94,-0.45 -0.41,-0.32 -0.73,-0.69 -0.99,-1.06 -0.43,-0.59 -0.55,-1.15 -0.61,-1.66 v -0.01 c 0,-0.04 0.03,-0.08 0.07,-0.09 0.03,0 0.07,0.02 0.08,0.05 0.01,0 0.02,0 0.03,0 0.01,0 0.02,0 0.04,0 0.02,0.02 0.04,0.04 0.04,0.07 0.07,0.49 0.17,0.99 0.56,1.55 0.26,0.34 0.55,0.7 0.93,1 0.26,0.23 0.56,0.41 0.77,0.41 0.44,0 0.67,-0.22 0.71,-0.54 -0.32,0.02 -0.55,0.12 -0.78,0.24 -0.02,0.01 -0.02,0.01 -0.04,0.01 -0.02,0 -0.04,-0.01 -0.06,-0.03 L 258,709.09 h -0.01 l -0.01,-0.03 c -0.01,-0.02 -0.02,-0.02 -0.02,-0.04 0,-0.02 0.02,-0.04 0.03,-0.05 0.23,-0.18 0.53,-0.26 0.92,-0.27 -0.02,-0.45 -0.3,-1 -0.7,-1.56 -0.26,-0.35 -0.56,-0.7 -0.95,-0.99 -0.33,-0.23 -0.69,-0.39 -0.95,-0.39 -0.6,0 -0.91,0.29 -0.93,0.75 v 0.07 c 0,0.54 0.35,1.22 0.85,1.92 0.33,0.47 0.7,0.94 1.21,1.34 0.41,0.31 0.86,0.53 1.2,0.53 l 0.02,0.2 c -0.47,0 -1.06,-0.24 -1.6,-0.58 -0.6,-0.39 -1.11,-0.88 -1.47,-1.39 -0.45,-0.64 -0.71,-1.28 -0.71,-1.82 0,-0.1 0.01,-0.2 0.03,-0.3 0.12,-0.58 0.63,-0.92 1.38,-0.92 0.36,0 0.8,0.18 1.2,0.44 0.45,0.29 0.83,0.66 1.1,1.04 0.41,0.57 0.65,1.14 0.65,1.63 v 0.08 c 0.09,0.02 0.17,0.06 0.25,0.11 0.18,0.09 0.34,0.23 0.44,0.37 0.14,0.19 0.19,0.36 0.19,0.52 0,0.17 -0.07,0.32 -0.19,0.44 z"
   inkscape:connector-curvature="0"
   style="fill:#000000;stroke-width:0" />
<path
   id="path1108"
   d="m 263.66,709.61 v 0.07 0.08 0.08 0.08 l -0.01,0.17 -0.01,0.17 -0.02,0.18 -0.02,0.19 -0.03,0.2 -0.03,0.2 -0.04,0.2 -0.05,0.21 -0.05,0.21 -0.06,0.21 -0.07,0.21 -0.08,0.21 -0.04,0.11 -0.05,0.11 -0.05,0.1 -0.05,0.11 c -0.6,1.22 -1.45,1.87 -1.55,1.87 -0.06,0 -0.1,-0.04 -0.1,-0.1 0,-0.03 0,-0.05 0.19,-0.23 0.98,-0.99 1.54,-2.57 1.54,-4.64 0,-1.7 -0.37,-3.45 -1.6,-4.7 -0.13,-0.12 -0.13,-0.14 -0.13,-0.17 0,-0.06 0.04,-0.1 0.1,-0.1 0.1,0 1,0.68 1.58,1.94 0.51,1.09 0.63,2.19 0.63,3.03 z"
   inkscape:connector-curvature="0"
   style="fill:#000000;stroke-width:0" />
</g>    <g
       style="font-style:normal;font-variant:normal;font-weight:normal;font-stretch:normal;letter-spacing:normal;word-spacing:normal;text-anchor:start;fill:none;fill-opacity:1;fill-rule:evenodd;stroke:#000000;stroke-linecap:butt;stroke-linejoin:miter;stroke-miterlimit:10.43299961;stroke-dasharray:none;stroke-dashoffset:0;stroke-opacity:1"
       ns0:preamble="/home/eric/BHLectures/Notes/latex_inkscape.ini"
       ns0:text="$0$\n\n\n"
       word-spacing="normal"
       letter-spacing="normal"
       font-size-adjust="none"
       font-stretch="normal"
       font-weight="normal"
       font-variant="normal"
       font-style="normal"
       stroke-miterlimit="10.433"
       xml:space="preserve"
       transform="matrix(0.97063835,0,0,-0.97063835,-103.33634,870.75262)"
       id="g1157">
<path
   id="path1155"
   d="m 228.02,710.3 v 0.15 0.15 l -0.01,0.15 v 0.15 l -0.01,0.15 -0.02,0.14 -0.01,0.15 -0.02,0.15 -0.02,0.14 -0.03,0.15 -0.03,0.14 -0.04,0.15 -0.04,0.14 -0.05,0.14 -0.06,0.14 -0.03,0.07 -0.03,0.07 c -0.46,0.95 -1.28,1.11 -1.69,1.11 -0.6,0 -1.33,-0.26 -1.74,-1.18 -0.32,-0.69 -0.37,-1.46 -0.37,-2.26 0,-0.74 0.04,-1.64 0.45,-2.39 0.43,-0.81 1.16,-1 1.64,-1 v 0.21 c -0.38,0 -0.97,0.25 -1.15,1.21 -0.11,0.59 -0.11,1.51 -0.11,2.09 0,0.64 0,1.29 0.08,1.83 0.19,1.18 0.94,1.27 1.18,1.27 0.33,0 0.99,-0.18 1.18,-1.16 0.1,-0.56 0.1,-1.31 0.1,-1.94 0,-0.74 0,-1.42 -0.11,-2.05 -0.15,-0.95 -0.72,-1.25 -1.17,-1.25 v 0 -0.21 c 0.54,0 1.3,0.2 1.74,1.15 0.32,0.68 0.37,1.46 0.37,2.24 z"
   inkscape:connector-curvature="0"
   style="fill:#000000;stroke-width:0" />
</g>    <path
       style="fill:none;fill-rule:evenodd;stroke:#000000;stroke-width:0.26458332;stroke-linecap:butt;stroke-linejoin:miter;stroke-miterlimit:4;stroke-dasharray:none;stroke-opacity:1;marker-end:url(#Arrow1Lend)"
       d="m 180.10489,147.45942 c 3.2809,9.49737 -14.67778,12.77829 -14.67778,12.77829"
       id="path1166"
       inkscape:connector-curvature="0"
       sodipodi:nodetypes="cc" />
  </g>
</svg>
