<?xml version="1.0" encoding="UTF-8" standalone="no"?>
<!-- Created with Inkscape (http://www.inkscape.org/) -->

<svg
   xmlns:ns0="http://www.iki.fi/pav/software/textext/"
   xmlns:dc="http://purl.org/dc/elements/1.1/"
   xmlns:cc="http://creativecommons.org/ns#"
   xmlns:rdf="http://www.w3.org/1999/02/22-rdf-syntax-ns#"
   xmlns:svg="http://www.w3.org/2000/svg"
   xmlns="http://www.w3.org/2000/svg"
   xmlns:sodipodi="http://sodipodi.sourceforge.net/DTD/sodipodi-0.dtd"
   xmlns:inkscape="http://www.inkscape.org/namespaces/inkscape"
   width="1052.3622"
   height="744.09448"
   id="svg2"
   version="1.1"
   inkscape:version="0.48.4 r9939"
   sodipodi:docname="sta_bifur_Kill_hor.svg">
  <sodipodi:namedview
     id="base"
     pagecolor="#ffffff"
     bordercolor="#666666"
     borderopacity="1.0"
     inkscape:pageopacity="0.0"
     inkscape:pageshadow="2"
     inkscape:zoom="1.445993"
     inkscape:cx="585.68355"
     inkscape:cy="314.89456"
     inkscape:document-units="px"
     inkscape:current-layer="layer1"
     showgrid="false"
     inkscape:window-width="1535"
     inkscape:window-height="876"
     inkscape:window-x="65"
     inkscape:window-y="24"
     inkscape:window-maximized="1" />
  <defs
     id="defs4">
    <marker
       style="overflow:visible;"
       id="Arrow2Mend"
       refX="0.0"
       refY="0.0"
       orient="auto"
       inkscape:stockid="Arrow2Mend">
      <path
         transform="scale(0.6) rotate(180) translate(0,0)"
         d="M 8.7185878,4.0337352 L -2.2072895,0.016013256 L 8.7185884,-4.0017078 C 6.9730900,-1.6296469 6.9831476,1.6157441 8.7185878,4.0337352 z "
         style="fill-rule:evenodd;stroke-width:0.62500000;stroke-linejoin:round;"
         id="path4045" />
    </marker>
    <marker
       style="overflow:visible;"
       id="Arrow2Lend"
       refX="0.0"
       refY="0.0"
       orient="auto"
       inkscape:stockid="Arrow2Lend">
      <path
         transform="scale(1.1) rotate(180) translate(1,0)"
         d="M 8.7185878,4.0337352 L -2.2072895,0.016013256 L 8.7185884,-4.0017078 C 6.9730900,-1.6296469 6.9831476,1.6157441 8.7185878,4.0337352 z "
         style="fill-rule:evenodd;stroke-width:0.62500000;stroke-linejoin:round;"
         id="path4039" />
    </marker>
    <marker
       style="overflow:visible;"
       id="Arrow2Mendg"
       refX="0.0"
       refY="0.0"
       orient="auto"
       inkscape:stockid="Arrow2Mendg">
      <path
         transform="scale(0.6) rotate(180) translate(0,0)"
         d="M 8.7185878,4.0337352 L -2.2072895,0.016013256 L 8.7185884,-4.0017078 C 6.9730900,-1.6296469 6.9831476,1.6157441 8.7185878,4.0337352 z "
         style="stroke-linejoin:round;stroke:#338000;stroke-width:0.62500000;fill:#338000;fill-rule:evenodd"
         id="path4651" />
    </marker>
    <marker
       style="overflow:visible"
       id="Arrow2Mendg-0"
       refX="0"
       refY="0"
       orient="auto"
       inkscape:stockid="Arrow2Mendg">
      <path
         inkscape:connector-curvature="0"
         transform="scale(-0.6,-0.6)"
         d="M 8.7185878,4.0337352 -2.2072895,0.01601326 8.7185884,-4.0017078 c -1.7454984,2.3720609 -1.7354408,5.6174519 -6e-7,8.035443 z"
         style="fill:#338000;fill-rule:evenodd;stroke:#338000;stroke-width:0.625;stroke-linejoin:round"
         id="path4651-3" />
    </marker>
    <marker
       style="overflow:visible"
       id="Arrow2Mendg-9"
       refX="0"
       refY="0"
       orient="auto"
       inkscape:stockid="Arrow2Mendg">
      <path
         inkscape:connector-curvature="0"
         transform="scale(-0.6,-0.6)"
         d="M 8.7185878,4.0337352 -2.2072895,0.01601326 8.7185884,-4.0017078 c -1.7454984,2.3720609 -1.7354408,5.6174519 -6e-7,8.035443 z"
         style="fill:#338000;fill-rule:evenodd;stroke:#338000;stroke-width:0.625;stroke-linejoin:round"
         id="path4651-35" />
    </marker>
    <marker
       style="overflow:visible"
       id="Arrow2Mendg-05"
       refX="0"
       refY="0"
       orient="auto"
       inkscape:stockid="Arrow2Mendg">
      <path
         inkscape:connector-curvature="0"
         transform="scale(-0.6,-0.6)"
         d="M 8.7185878,4.0337352 -2.2072895,0.01601326 8.7185884,-4.0017078 c -1.7454984,2.3720609 -1.7354408,5.6174519 -6e-7,8.035443 z"
         style="fill:#338000;fill-rule:evenodd;stroke:#338000;stroke-width:0.625;stroke-linejoin:round"
         id="path4651-9" />
    </marker>
    <marker
       style="overflow:visible;"
       id="Arrow2MendW"
       refX="0.0"
       refY="0.0"
       orient="auto"
       inkscape:stockid="Arrow2MendW">
      <path
         transform="scale(0.6) rotate(180) translate(0,0)"
         d="M 8.7185878,4.0337352 L -2.2072895,0.016013256 L 8.7185884,-4.0017078 C 6.9730900,-1.6296469 6.9831476,1.6157441 8.7185878,4.0337352 z "
         style="stroke-linejoin:round;stroke:#338000;stroke-width:0.62500000;fill:#338000;fill-rule:evenodd"
         id="path5170" />
    </marker>
    <marker
       style="overflow:visible"
       id="Arrow2Mendg-00"
       refX="0"
       refY="0"
       orient="auto"
       inkscape:stockid="Arrow2Mendg">
      <path
         inkscape:connector-curvature="0"
         transform="scale(-0.6,-0.6)"
         d="M 8.7185878,4.0337352 -2.2072895,0.01601326 8.7185884,-4.0017078 c -1.7454984,2.3720609 -1.7354408,5.6174519 -6e-7,8.035443 z"
         style="fill:#338000;fill-rule:evenodd;stroke:#338000;stroke-width:0.625;stroke-linejoin:round"
         id="path4651-0" />
    </marker>
  </defs>
  <metadata
     id="metadata7">
    <rdf:RDF>
      <cc:Work
         rdf:about="">
        <dc:format>image/svg+xml</dc:format>
        <dc:type
           rdf:resource="http://purl.org/dc/dcmitype/StillImage" />
        <dc:title />
      </cc:Work>
    </rdf:RDF>
  </metadata>
  <g
     transform="translate(0,-308.2677)"
     id="layer1"
     inkscape:groupmode="layer"
     inkscape:label="Calque 1">
    <path
       sodipodi:nodetypes="ccccccc"
       inkscape:connector-curvature="0"
       id="path3920"
       d="m 319.62746,546.69179 c 120.51286,54.44026 410.09052,54.44025 468.17946,-4.82382 -18.10407,77.16471 -21.85777,93.30488 -47.99168,195.69825 19.01747,76.60502 28.56023,114.37083 47.12469,196.40941 -5.202,77.18117 -471.64747,69.60087 -470.78047,4.13471 15.31445,-70.82498 32.1029,-120.69045 48.87428,-205.33552 -17.55289,-83.91473 -39.93615,-157.32047 -45.40628,-186.08303 z"
       style="fill:#e5ffd5;fill-opacity:1;stroke:none" />
    <path
       transform="matrix(1.1469897,0,0,0.91166229,68.450564,339.25857)"
       d="m 628.75475,216.89996 c 0,30.72276 -91.85409,55.62847 -205.16185,55.62847 -113.30777,0 -205.16185,-24.90571 -205.16185,-55.62847 0,-30.72275 91.85408,-55.62846 205.16185,-55.62846 113.30776,0 205.16185,24.90571 205.16185,55.62846 z"
       sodipodi:ry="55.628464"
       sodipodi:rx="205.16185"
       sodipodi:cy="216.89996"
       sodipodi:cx="423.5929"
       id="path2985"
       style="fill:#f2f2f2;fill-opacity:1;stroke:#000000;stroke-width:1.74462461;stroke-miterlimit:4;stroke-opacity:1;stroke-dasharray:none;stroke-dashoffset:0"
       sodipodi:type="arc" />
    <path
       style="fill:#e5ffd5;fill-opacity:1;stroke:none"
       d="m 422.47517,269.37014 c 9.41613,-20.43888 11.23549,-24.65835 19.43569,-44.64194 9.3453,33.07264 214.46161,30.62469 222.58998,0.74086 11.18195,25.4626 12.89749,26.68376 19.76808,44.66448 -76.3399,12.25524 -214.57162,6.49484 -261.79375,-0.7634 z"
       id="path6604"
       inkscape:connector-curvature="0"
       transform="translate(0,308.2677)"
       sodipodi:nodetypes="ccccc" />
    <path
       inkscape:connector-curvature="0"
       id="path3964"
       d="m 318.19169,535.96166 c 13.87654,68.82344 31.08722,137.67709 49.35482,200.03356"
       style="fill:none;stroke:#000000;stroke-width:1.78401601;stroke-linecap:butt;stroke-linejoin:miter;stroke-miterlimit:4;stroke-opacity:1;stroke-dasharray:none" />
    <path
       inkscape:connector-curvature="0"
       id="path3755"
       d="m 367.54651,735.99522 c 26.01004,88.78533 54.16276,164.3989 77.88479,207.99908"
       style="fill:none;stroke:#000000;stroke-width:1.78401601;stroke-linecap:butt;stroke-linejoin:miter;stroke-miterlimit:4;stroke-opacity:1;stroke-dasharray:7.13606428, 7.13606428;stroke-dashoffset:0" />
    <path
       transform="matrix(0.53375914,0,0,0.42424798,327.9275,848.8396)"
       d="m 628.75475,216.89996 c 0,30.72276 -91.85409,55.62847 -205.16185,55.62847 -113.30777,0 -205.16185,-24.90571 -205.16185,-55.62847 0,-30.72275 91.85408,-55.62846 205.16185,-55.62846 113.30776,0 205.16185,24.90571 205.16185,55.62846 z"
       sodipodi:ry="55.628464"
       sodipodi:rx="205.16185"
       sodipodi:cy="216.89996"
       sodipodi:cx="423.5929"
       id="path2985-0"
       style="fill:none;stroke:#000000;stroke-width:3.74900675;stroke-miterlimit:4;stroke-opacity:1;stroke-dasharray:14.99602652, 14.99602652;stroke-dashoffset:0"
       sodipodi:type="arc" />
    <path
       inkscape:connector-curvature="0"
       id="path3960"
       d="m 790.07227,536.7051 c -14.23504,70.60148 -31.97871,141.23476 -50.77272,204.85336"
       style="fill:none;stroke:#000000;stroke-width:1.78401601;stroke-linecap:butt;stroke-linejoin:miter;stroke-miterlimit:4;stroke-opacity:1;stroke-dasharray:none" />
    <path
       inkscape:connector-curvature="0"
       id="path3755-0"
       d="M 739.29955,741.55846 C 713.68723,828.2574 686.12427,901.92865 662.83266,944.73774"
       style="fill:none;stroke:#000000;stroke-width:1.78401601;stroke-linecap:butt;stroke-linejoin:miter;stroke-miterlimit:4;stroke-opacity:1;stroke-dasharray:7.13606428, 7.13606428;stroke-dashoffset:0" />
    <path
       transform="matrix(1.1469897,0,0,-0.91166229,67.231445,1133.8519)"
       d="m 628.75475,216.89996 c 0,30.72276 -91.85409,55.62847 -205.16185,55.62847 -113.30777,0 -205.16185,-24.90571 -205.16185,-55.62847 0,-30.72275 91.85408,-55.62846 205.16185,-55.62846 113.30776,0 205.16185,24.90571 205.16185,55.62846 z"
       sodipodi:ry="55.628464"
       sodipodi:rx="205.16185"
       sodipodi:cy="216.89996"
       sodipodi:cx="423.5929"
       id="path2985-06"
       style="fill:none;stroke:#000000;stroke-width:1.74462461;stroke-miterlimit:4;stroke-opacity:1;stroke-dasharray:none;stroke-dashoffset:0"
       sodipodi:type="arc" />
    <path
       id="path3976"
       d="M 316.97257,937.14884 C 330.96894,867.73104 348.3573,798.28251 366.8009,735.5012"
       style="fill:none;stroke:#000000;stroke-width:1.78401601;stroke-linecap:butt;stroke-linejoin:miter;stroke-miterlimit:4;stroke-opacity:1;stroke-dasharray:none" />
    <path
       id="path3974"
       d="m 366.8009,735.5012 c 17.77481,-60.50477 36.52971,-114.81707 54.17305,-156.94147"
       style="fill:none;stroke:#000000;stroke-width:1.78401601;stroke-linecap:butt;stroke-linejoin:miter;stroke-miterlimit:4;stroke-opacity:1;stroke-dasharray:7.13606405,7.13606405;stroke-dashoffset:0" />
    <path
       id="path3755-6"
       d="m 420.97395,578.55973 c 8.04314,-19.20341 15.85527,-35.87393 23.23823,-49.44353"
       style="fill:none;stroke:#000000;stroke-width:1.78401601;stroke-linecap:butt;stroke-linejoin:miter;stroke-miterlimit:4;stroke-opacity:1;stroke-dasharray:none" />
    <path
       transform="matrix(0.53375914,0,0,-0.42424798,326.70838,624.27091)"
       d="m 628.75475,216.89996 c 0,30.72276 -91.85409,55.62847 -205.16185,55.62847 -113.30777,0 -205.16185,-24.90571 -205.16185,-55.62847 0,-30.72275 91.85408,-55.62846 205.16185,-55.62846 113.30776,0 205.16185,24.90571 205.16185,55.62846 z"
       sodipodi:ry="55.628464"
       sodipodi:rx="205.16185"
       sodipodi:cy="216.89996"
       sodipodi:cx="423.5929"
       id="path2985-0-7"
       style="fill:none;stroke:#000000;stroke-width:3.74900675;stroke-miterlimit:4;stroke-opacity:1;stroke-dasharray:none;stroke-dashoffset:0"
       sodipodi:type="arc" />
    <path
       id="path3982"
       d="M 788.85319,936.40541 C 775.06305,868.01044 757.98013,799.58565 739.83942,737.53724"
       style="fill:none;stroke:#000000;stroke-width:1.78401601;stroke-linecap:butt;stroke-linejoin:miter;stroke-miterlimit:4;stroke-opacity:1;stroke-dasharray:none" />
    <path
       id="path3980"
       d="M 739.83942,737.53724 C 722.06287,676.73441 703.27057,622.05453 685.56558,579.52575"
       style="fill:none;stroke:#000000;stroke-width:1.78401601;stroke-linecap:butt;stroke-linejoin:miter;stroke-miterlimit:4;stroke-opacity:1;stroke-dasharray:7.13606405,7.13606405;stroke-dashoffset:0" />
    <path
       id="path3755-0-5"
       d="m 685.56558,579.52575 c -8.29475,-19.92467 -16.35086,-37.18229 -23.95204,-51.15298"
       style="fill:none;stroke:#000000;stroke-width:1.78401601;stroke-linecap:butt;stroke-linejoin:miter;stroke-miterlimit:4;stroke-opacity:1;stroke-dasharray:none" />
    <path
       sodipodi:open="true"
       sodipodi:end="3.1415927"
       sodipodi:start="0"
       transform="matrix(0.90186026,0,0,-0.71682593,171.71942,891.79202)"
       d="m 628.75475,216.89996 c 0,30.72276 -91.85409,55.62847 -205.16185,55.62847 -113.30777,0 -205.16185,-24.90571 -205.16185,-55.62847 0,0 0,0 0,0"
       sodipodi:ry="55.628464"
       sodipodi:rx="205.16185"
       sodipodi:cy="216.89996"
       sodipodi:cx="423.5929"
       id="path2985-0-7-8"
       style="fill:none;stroke:#552200;stroke-width:4.4376421;stroke-miterlimit:4;stroke-opacity:1;stroke-dasharray:17.75056872, 17.75056872;stroke-dashoffset:0"
       sodipodi:type="arc" />
    <path
       sodipodi:open="true"
       sodipodi:end="3.1415927"
       sodipodi:start="0"
       transform="matrix(0.90186026,0,0,0.71682593,171.69559,580.76593)"
       d="m 628.75475,216.89996 c 0,30.72276 -91.85409,55.62847 -205.16185,55.62847 -113.30777,0 -205.16185,-24.90571 -205.16185,-55.62847 0,0 0,0 0,0"
       sodipodi:ry="55.628464"
       sodipodi:rx="205.16185"
       sodipodi:cy="216.89996"
       sodipodi:cx="423.5929"
       id="path2985-0-7-8-0"
       style="fill:none;stroke:#552200;stroke-width:4.4376421;stroke-miterlimit:4;stroke-opacity:1;stroke-dasharray:none;stroke-dashoffset:0"
       sodipodi:type="arc" />
    <path
       id="path4010"
       d="M 582.29881,962.45857 C 605.69117,910.93042 632.41358,842.16035 656.9844,769.27722"
       style="fill:none;stroke:#338000;stroke-width:2;stroke-linecap:butt;stroke-linejoin:miter;stroke-miterlimit:4;stroke-opacity:1;stroke-dasharray:8,8;stroke-dashoffset:0" />
    <path
       id="path3966"
       d="M 656.9844,769.27722 C 678.89498,704.28503 699.09465,636.0222 713.69641,573.79831"
       style="fill:none;stroke:#338000;stroke-width:2;stroke-linecap:butt;stroke-linejoin:miter;stroke-miterlimit:4;stroke-opacity:1;stroke-dasharray:none" />
    <path
       id="path4006"
       d="m 577.45784,555.81758 c 4.26076,9.4431 8.85876,20.14251 13.70362,31.86484"
       style="fill:none;stroke:#338000;stroke-width:2;stroke-linecap:butt;stroke-linejoin:miter;stroke-miterlimit:4;stroke-opacity:1;stroke-dasharray:none" />
    <path
       id="path4004"
       d="m 591.16146,587.68242 c 20.05662,48.52783 44.3437,114.58617 66.44781,181.61686"
       style="fill:none;stroke:#338000;stroke-width:2;stroke-linecap:butt;stroke-linejoin:miter;stroke-miterlimit:4;stroke-opacity:1;stroke-dasharray:8,8;stroke-dashoffset:0" />
    <path
       id="path3966-9"
       d="m 657.60927,769.29928 c 24.54515,74.43316 46.39856,150.06529 56.7787,204.22434"
       style="fill:none;stroke:#338000;stroke-width:2;stroke-linecap:butt;stroke-linejoin:miter;stroke-miterlimit:4;stroke-opacity:1;stroke-dasharray:none" />
    <path
       inkscape:connector-curvature="0"
       id="path4012"
       d="M 683.49137,686.03602 704.9897,611.61058"
       style="stroke-linejoin:miter;marker-end:url(#Arrow2MendW);stroke-opacity:1;stroke:#338000;stroke-linecap:butt;stroke-miterlimit:4;stroke-dasharray:none;stroke-width:5;fill:none"
       sodipodi:nodetypes="cc" />
    <path
       inkscape:connector-curvature="0"
       id="path4012-7"
       d="m 641.13769,814.76621 -29.39395,73.88091"
       style="fill:none;stroke:#338000;stroke-width:5;stroke-linecap:butt;stroke-linejoin:miter;stroke-miterlimit:4;stroke-opacity:1;stroke-dasharray:10,10;marker-end:url(#Arrow2Mendg);stroke-dashoffset:0"
       sodipodi:nodetypes="cc" />
    <path
       inkscape:connector-curvature="0"
       id="path4012-8"
       d="M 697.86795,902.70234 676.36962,828.2769"
       style="fill:none;stroke:#338000;stroke-width:5;stroke-linecap:butt;stroke-linejoin:miter;stroke-miterlimit:4;stroke-opacity:1;stroke-dasharray:none;marker-end:url(#Arrow2Mendg)"
       sodipodi:nodetypes="cc" />
    <path
       inkscape:connector-curvature="0"
       id="path4012-8-0"
       d="m 602.15993,614.30379 26.85156,69.35395"
       style="fill:none;stroke:#338000;stroke-width:5;stroke-linecap:butt;stroke-linejoin:miter;stroke-miterlimit:4;stroke-opacity:1;stroke-dasharray:10,10;stroke-dashoffset:0;marker-end:url(#Arrow2Mendg)"
       sodipodi:nodetypes="cc" />
    <g
       ns0:preamble="/home/eric/BHLectures/Notes/latex_inkscape.ini"
       ns0:text="$\\bm{\\xi}$"
       word-spacing="normal"
       letter-spacing="normal"
       font-size-adjust="none"
       font-stretch="normal"
       font-weight="normal"
       font-variant="normal"
       font-style="normal"
       stroke-miterlimit="10.433"
       xml:space="preserve"
       transform="matrix(4,0,0,-4,-175.61658,3453.9329)"
       id="content"
       style="font-style:normal;font-variant:normal;font-weight:normal;font-stretch:normal;letter-spacing:normal;word-spacing:normal;text-anchor:start;fill:#338000;stroke:#000000;stroke-linecap:butt;stroke-linejoin:miter;stroke-miterlimit:10.43299961;stroke-opacity:1;stroke-dasharray:none;stroke-dashoffset:0"><path
         id="path5289"
         d="m 225.75,710.44 -0.01,0.03 -0.01,0.03 -0.01,0.03 -0.01,0.04 -0.01,0.03 0,0.03 -0.01,0.03 -0.01,0.03 0,0.03 -0.01,0.04 0,0.03 0,0.03 -0.01,0.03 0,0.04 0,0.03 0,0.03 c 0,0.53 0.3,1.28 0.84,1.66 0.21,-0.3 0.5,-0.3 0.74,-0.3 0.27,0 1.08,0 1.08,0.54 0,0.4 -0.54,0.41 -0.96,0.41 l -0.01,-0.35 c 0.31,0 0.34,-0.01 0.5,-0.07 -0.01,-0.01 0,-0.02 -0.03,-0.06 -0.1,-0.11 -0.48,-0.11 -0.58,-0.11 -0.16,0 -0.32,0 -0.4,0.15 h 0 c 0.19,0.09 0.37,0.09 0.51,0.09 l 0.01,0.35 c -0.1,0 -0.35,0 -0.62,-0.04 0,0.31 0.06,0.54 0.06,0.56 0.02,0.08 0.02,0.09 0.02,0.12 0,0.2 -0.19,0.21 -0.2,0.21 -0.33,0 -0.33,-0.59 -0.33,-0.77 0,-0.07 0,-0.16 0.01,-0.23 -1.25,-0.36 -1.86,-1.26 -1.86,-2.01 0,-0.47 0.26,-0.85 0.52,-1.03 -1.04,-0.71 -1.29,-1.63 -1.29,-2.01 0,-0.82 0.73,-1.21 1.31,-1.42 l 1.15,-0.39 c 0.25,-0.08 0.67,-0.23 0.74,-0.27 0.08,-0.04 0.13,-0.13 0.13,-0.21 0,-0.03 -0.02,-0.29 -0.3,-0.29 -0.06,0 -0.55,0.01 -1,0.24 -0.07,0.04 -0.09,0.05 -0.13,0.05 -0.14,0 -0.2,-0.11 -0.2,-0.18 0,-0.23 0.84,-0.47 1.34,-0.47 0.77,0 1.19,0.71 1.19,1.18 0,0.43 -0.3,0.67 -0.5,0.75 -0.13,0.04 -1.06,0.36 -1.31,0.45 l -0.66,0.22 c -0.35,0.12 -0.92,0.32 -0.92,0.8 0,0.58 0.74,1.29 0.87,1.29 0.01,0 0.02,0 0.07,-0.02 0.49,-0.17 0.81,-0.17 1.08,-0.17 l 0.03,0.36 c -0.16,0 -0.38,0 -0.56,0.13 h 0 c 0.28,0.1 0.5,0.1 0.66,0.1 0.32,0 0.35,-0.01 0.51,-0.06 -0.01,-0.01 -0.02,-0.06 -0.03,-0.06 -0.1,-0.11 -0.46,-0.11 -0.58,-0.11 l -0.03,-0.36 c 0.31,0 1.12,0 1.12,0.54 0,0.41 -0.62,0.41 -0.94,0.41 -0.19,0 -0.5,0 -0.96,-0.13 z"
         inkscape:connector-curvature="0"
         style="fill:#338000;stroke-width:0" /></g>    <g
       ns0:preamble="/home/eric/BHLectures/Notes/latex_inkscape.ini"
       ns0:text="$\\bm{\\xi}$"
       word-spacing="normal"
       letter-spacing="normal"
       font-size-adjust="none"
       font-stretch="normal"
       font-weight="normal"
       font-variant="normal"
       font-style="normal"
       stroke-miterlimit="10.433"
       xml:space="preserve"
       transform="matrix(4,0,0,-4,-311.99926,3502.1619)"
       id="content-8"
       style="font-style:normal;font-variant:normal;font-weight:normal;font-stretch:normal;letter-spacing:normal;word-spacing:normal;text-anchor:start;fill:#338000;stroke:#000000;stroke-linecap:butt;stroke-linejoin:miter;stroke-miterlimit:10.43299961;stroke-opacity:1;stroke-dasharray:none;stroke-dashoffset:0"><path
         id="path5289-9"
         d="m 225.75,710.44 -0.01,0.03 -0.01,0.03 -0.01,0.03 -0.01,0.04 -0.01,0.03 0,0.03 -0.01,0.03 -0.01,0.03 0,0.03 -0.01,0.04 0,0.03 0,0.03 -0.01,0.03 0,0.04 0,0.03 0,0.03 c 0,0.53 0.3,1.28 0.84,1.66 0.21,-0.3 0.5,-0.3 0.74,-0.3 0.27,0 1.08,0 1.08,0.54 0,0.4 -0.54,0.41 -0.96,0.41 l -0.01,-0.35 c 0.31,0 0.34,-0.01 0.5,-0.07 -0.01,-0.01 0,-0.02 -0.03,-0.06 -0.1,-0.11 -0.48,-0.11 -0.58,-0.11 -0.16,0 -0.32,0 -0.4,0.15 h 0 c 0.19,0.09 0.37,0.09 0.51,0.09 l 0.01,0.35 c -0.1,0 -0.35,0 -0.62,-0.04 0,0.31 0.06,0.54 0.06,0.56 0.02,0.08 0.02,0.09 0.02,0.12 0,0.2 -0.19,0.21 -0.2,0.21 -0.33,0 -0.33,-0.59 -0.33,-0.77 0,-0.07 0,-0.16 0.01,-0.23 -1.25,-0.36 -1.86,-1.26 -1.86,-2.01 0,-0.47 0.26,-0.85 0.52,-1.03 -1.04,-0.71 -1.29,-1.63 -1.29,-2.01 0,-0.82 0.73,-1.21 1.31,-1.42 l 1.15,-0.39 c 0.25,-0.08 0.67,-0.23 0.74,-0.27 0.08,-0.04 0.13,-0.13 0.13,-0.21 0,-0.03 -0.02,-0.29 -0.3,-0.29 -0.06,0 -0.55,0.01 -1,0.24 -0.07,0.04 -0.09,0.05 -0.13,0.05 -0.14,0 -0.2,-0.11 -0.2,-0.18 0,-0.23 0.84,-0.47 1.34,-0.47 0.77,0 1.19,0.71 1.19,1.18 0,0.43 -0.3,0.67 -0.5,0.75 -0.13,0.04 -1.06,0.36 -1.31,0.45 l -0.66,0.22 c -0.35,0.12 -0.92,0.32 -0.92,0.8 0,0.58 0.74,1.29 0.87,1.29 0.01,0 0.02,0 0.07,-0.02 0.49,-0.17 0.81,-0.17 1.08,-0.17 l 0.03,0.36 c -0.16,0 -0.38,0 -0.56,0.13 h 0 c 0.28,0.1 0.5,0.1 0.66,0.1 0.32,0 0.35,-0.01 0.51,-0.06 -0.01,-0.01 -0.02,-0.06 -0.03,-0.06 -0.1,-0.11 -0.46,-0.11 -0.58,-0.11 l -0.03,-0.36 c 0.31,0 1.12,0 1.12,0.54 0,0.41 -0.62,0.41 -0.94,0.41 -0.19,0 -0.5,0 -0.96,-0.13 z"
         inkscape:connector-curvature="0"
         style="fill:#338000;stroke-width:0" /></g>    <g
       ns0:preamble="/home/eric/BHLectures/Notes/latex_inkscape.ini"
       ns0:text="$\\bm{\\xi}$"
       word-spacing="normal"
       letter-spacing="normal"
       font-size-adjust="none"
       font-stretch="normal"
       font-weight="normal"
       font-variant="normal"
       font-style="normal"
       stroke-miterlimit="10.433"
       xml:space="preserve"
       transform="matrix(4,0,0,-4,-207.57275,3650.1571)"
       id="content-85"
       style="font-style:normal;font-variant:normal;font-weight:normal;font-stretch:normal;letter-spacing:normal;word-spacing:normal;text-anchor:start;fill:#338000;stroke:#000000;stroke-linecap:butt;stroke-linejoin:miter;stroke-miterlimit:10.43299961;stroke-opacity:1;stroke-dasharray:none;stroke-dashoffset:0"><path
         id="path5289-5"
         d="m 225.75,710.44 -0.01,0.03 -0.01,0.03 -0.01,0.03 -0.01,0.04 -0.01,0.03 0,0.03 -0.01,0.03 -0.01,0.03 0,0.03 -0.01,0.04 0,0.03 0,0.03 -0.01,0.03 0,0.04 0,0.03 0,0.03 c 0,0.53 0.3,1.28 0.84,1.66 0.21,-0.3 0.5,-0.3 0.74,-0.3 0.27,0 1.08,0 1.08,0.54 0,0.4 -0.54,0.41 -0.96,0.41 l -0.01,-0.35 c 0.31,0 0.34,-0.01 0.5,-0.07 -0.01,-0.01 0,-0.02 -0.03,-0.06 -0.1,-0.11 -0.48,-0.11 -0.58,-0.11 -0.16,0 -0.32,0 -0.4,0.15 h 0 c 0.19,0.09 0.37,0.09 0.51,0.09 l 0.01,0.35 c -0.1,0 -0.35,0 -0.62,-0.04 0,0.31 0.06,0.54 0.06,0.56 0.02,0.08 0.02,0.09 0.02,0.12 0,0.2 -0.19,0.21 -0.2,0.21 -0.33,0 -0.33,-0.59 -0.33,-0.77 0,-0.07 0,-0.16 0.01,-0.23 -1.25,-0.36 -1.86,-1.26 -1.86,-2.01 0,-0.47 0.26,-0.85 0.52,-1.03 -1.04,-0.71 -1.29,-1.63 -1.29,-2.01 0,-0.82 0.73,-1.21 1.31,-1.42 l 1.15,-0.39 c 0.25,-0.08 0.67,-0.23 0.74,-0.27 0.08,-0.04 0.13,-0.13 0.13,-0.21 0,-0.03 -0.02,-0.29 -0.3,-0.29 -0.06,0 -0.55,0.01 -1,0.24 -0.07,0.04 -0.09,0.05 -0.13,0.05 -0.14,0 -0.2,-0.11 -0.2,-0.18 0,-0.23 0.84,-0.47 1.34,-0.47 0.77,0 1.19,0.71 1.19,1.18 0,0.43 -0.3,0.67 -0.5,0.75 -0.13,0.04 -1.06,0.36 -1.31,0.45 l -0.66,0.22 c -0.35,0.12 -0.92,0.32 -0.92,0.8 0,0.58 0.74,1.29 0.87,1.29 0.01,0 0.02,0 0.07,-0.02 0.49,-0.17 0.81,-0.17 1.08,-0.17 l 0.03,0.36 c -0.16,0 -0.38,0 -0.56,0.13 h 0 c 0.28,0.1 0.5,0.1 0.66,0.1 0.32,0 0.35,-0.01 0.51,-0.06 -0.01,-0.01 -0.02,-0.06 -0.03,-0.06 -0.1,-0.11 -0.46,-0.11 -0.58,-0.11 l -0.03,-0.36 c 0.31,0 1.12,0 1.12,0.54 0,0.41 -0.62,0.41 -0.94,0.41 -0.19,0 -0.5,0 -0.96,-0.13 z"
         inkscape:connector-curvature="0"
         style="fill:#338000;stroke-width:0" /></g>    <g
       ns0:preamble="/home/eric/BHLectures/Notes/latex_inkscape.ini"
       ns0:text="$\\bm{\\xi}$"
       word-spacing="normal"
       letter-spacing="normal"
       font-size-adjust="none"
       font-stretch="normal"
       font-weight="normal"
       font-variant="normal"
       font-style="normal"
       stroke-miterlimit="10.433"
       xml:space="preserve"
       transform="matrix(4,0,0,-4,-313.38239,3694.4174)"
       id="content-6"
       style="font-style:normal;font-variant:normal;font-weight:normal;font-stretch:normal;letter-spacing:normal;word-spacing:normal;text-anchor:start;fill:#338000;stroke:#000000;stroke-linecap:butt;stroke-linejoin:miter;stroke-miterlimit:10.43299961;stroke-opacity:1;stroke-dasharray:none;stroke-dashoffset:0"><path
         id="path5289-7"
         d="m 225.75,710.44 -0.01,0.03 -0.01,0.03 -0.01,0.03 -0.01,0.04 -0.01,0.03 0,0.03 -0.01,0.03 -0.01,0.03 0,0.03 -0.01,0.04 0,0.03 0,0.03 -0.01,0.03 0,0.04 0,0.03 0,0.03 c 0,0.53 0.3,1.28 0.84,1.66 0.21,-0.3 0.5,-0.3 0.74,-0.3 0.27,0 1.08,0 1.08,0.54 0,0.4 -0.54,0.41 -0.96,0.41 l -0.01,-0.35 c 0.31,0 0.34,-0.01 0.5,-0.07 -0.01,-0.01 0,-0.02 -0.03,-0.06 -0.1,-0.11 -0.48,-0.11 -0.58,-0.11 -0.16,0 -0.32,0 -0.4,0.15 h 0 c 0.19,0.09 0.37,0.09 0.51,0.09 l 0.01,0.35 c -0.1,0 -0.35,0 -0.62,-0.04 0,0.31 0.06,0.54 0.06,0.56 0.02,0.08 0.02,0.09 0.02,0.12 0,0.2 -0.19,0.21 -0.2,0.21 -0.33,0 -0.33,-0.59 -0.33,-0.77 0,-0.07 0,-0.16 0.01,-0.23 -1.25,-0.36 -1.86,-1.26 -1.86,-2.01 0,-0.47 0.26,-0.85 0.52,-1.03 -1.04,-0.71 -1.29,-1.63 -1.29,-2.01 0,-0.82 0.73,-1.21 1.31,-1.42 l 1.15,-0.39 c 0.25,-0.08 0.67,-0.23 0.74,-0.27 0.08,-0.04 0.13,-0.13 0.13,-0.21 0,-0.03 -0.02,-0.29 -0.3,-0.29 -0.06,0 -0.55,0.01 -1,0.24 -0.07,0.04 -0.09,0.05 -0.13,0.05 -0.14,0 -0.2,-0.11 -0.2,-0.18 0,-0.23 0.84,-0.47 1.34,-0.47 0.77,0 1.19,0.71 1.19,1.18 0,0.43 -0.3,0.67 -0.5,0.75 -0.13,0.04 -1.06,0.36 -1.31,0.45 l -0.66,0.22 c -0.35,0.12 -0.92,0.32 -0.92,0.8 0,0.58 0.74,1.29 0.87,1.29 0.01,0 0.02,0 0.07,-0.02 0.49,-0.17 0.81,-0.17 1.08,-0.17 l 0.03,0.36 c -0.16,0 -0.38,0 -0.56,0.13 h 0 c 0.28,0.1 0.5,0.1 0.66,0.1 0.32,0 0.35,-0.01 0.51,-0.06 -0.01,-0.01 -0.02,-0.06 -0.03,-0.06 -0.1,-0.11 -0.46,-0.11 -0.58,-0.11 l -0.03,-0.36 c 0.31,0 1.12,0 1.12,0.54 0,0.41 -0.62,0.41 -0.94,0.41 -0.19,0 -0.5,0 -0.96,-0.13 z"
         inkscape:connector-curvature="0"
         style="fill:#338000;stroke-width:0" /></g>    <g
       id="g5756"
       transform="matrix(4,0,0,-4,-377.84046,3594.7486)"
       xml:space="preserve"
       stroke-miterlimit="10.433"
       font-style="normal"
       font-variant="normal"
       font-weight="normal"
       font-stretch="normal"
       font-size-adjust="none"
       letter-spacing="normal"
       word-spacing="normal"
       ns0:text="$\\mathscr{S}$"
       ns0:preamble="/home/eric/BHLectures/Notes/latex_inkscape.ini"
       style="font-style:normal;font-variant:normal;font-weight:normal;font-stretch:normal;letter-spacing:normal;word-spacing:normal;text-anchor:start;fill:#552200;fill-opacity:1;fill-rule:evenodd;stroke:#552200;stroke-linecap:butt;stroke-linejoin:miter;stroke-miterlimit:10.43299961;stroke-opacity:1;stroke-dasharray:none;stroke-dashoffset:0"><path
         inkscape:connector-curvature="0"
         style="fill:#552200;stroke:#552200;stroke-width:0"
         d="m 230.15,713.73 -0.11,0 -0.12,0 -0.12,-0.01 -0.12,-0.01 -0.12,-0.01 -0.12,-0.02 -0.12,-0.02 -0.13,-0.02 -0.13,-0.02 -0.12,-0.03 -0.13,-0.04 -0.14,-0.03 -0.13,-0.04 -0.13,-0.05 -0.14,-0.04 -0.13,-0.06 c -0.53,-0.19 -1.13,-0.5 -1.43,-0.94 -0.2,-0.28 -0.27,-0.52 -0.27,-0.73 0,-0.33 0.18,-0.59 0.41,-0.79 0.49,-0.44 1.27,-0.61 2.13,-0.62 -0.25,-0.32 -0.5,-0.66 -0.74,-0.99 -0.79,-1.11 -2.14,-2.14 -3.13,-2.14 -0.67,0 -1.14,0.21 -1.14,0.61 0,0.1 0.03,0.21 0.09,0.34 0.06,-0.1 0.17,-0.15 0.29,-0.15 0.26,0 0.56,0.2 0.56,0.39 0,0.24 -0.15,0.34 -0.32,0.34 -0.21,0 -0.46,-0.12 -0.58,-0.29 -0.18,-0.26 -0.26,-0.48 -0.26,-0.67 0,-0.52 0.6,-0.78 1.32,-0.78 1.32,0 3.12,0.98 4.02,2.25 0.29,0.41 0.6,0.82 0.92,1.21 0.4,0.1 0.81,0.27 1.23,0.49 l -0.12,0.18 c -0.3,-0.16 -0.59,-0.29 -0.88,-0.38 0.28,0.36 0.55,0.72 0.81,1.07 1,1.43 1.18,2.21 2.04,2.21 h 0 c 0.16,0 0.22,-0.1 0.22,-0.26 0,-0.04 0,-0.09 -0.01,-0.14 -0.06,-0.33 -0.27,-0.74 -0.57,-1.15 -0.36,-0.53 -0.96,-1.01 -1.61,-1.35 l 0.12,-0.18 c 0.69,0.36 1.35,0.86 1.74,1.43 0.31,0.44 0.53,0.87 0.57,1.26 0.01,0.05 0.01,0.09 0.01,0.14 0,0.24 -0.1,0.47 -0.43,0.47 -1.01,0 -2.16,-1.22 -2.93,-2.33 -0.32,-0.45 -0.68,-0.9 -1.06,-1.36 -0.85,0 -1.58,0.16 -2.02,0.55 -0.17,0.16 -0.28,0.36 -0.28,0.6 0,0.19 0.06,0.42 0.24,0.67 0.27,0.37 0.77,0.67 1.25,0.86 0.64,0.26 1.25,0.36 1.78,0.36 0.03,0 0.06,0.01 0.07,0.03 l 0.04,0.06 c 0.01,0.01 0.02,0.03 0.02,0.05 0,0.04 -0.04,0.08 -0.09,0.08 z"
         id="path5758" /></g>    <path
       transform="translate(358.9229,386.41469)"
       d="m 304.98072,382.4053 c 0,3.43748 -2.78662,6.2241 -6.2241,6.2241 -3.43747,0 -6.22409,-2.78662 -6.22409,-6.2241 0,-3.43747 2.78662,-6.22409 6.22409,-6.22409 3.43748,0 6.2241,2.78662 6.2241,6.22409 z"
       sodipodi:ry="6.2240968"
       sodipodi:rx="6.2240968"
       sodipodi:cy="382.4053"
       sodipodi:cx="298.75662"
       id="path5821"
       style="fill:#000000;fill-opacity:1;stroke:none"
       sodipodi:type="arc" />
    <g
       style="font-style:normal;font-variant:normal;font-weight:normal;font-stretch:normal;letter-spacing:normal;word-spacing:normal;text-anchor:start;fill:#338000;fill-opacity:1;fill-rule:evenodd;stroke:#000000;stroke-linecap:butt;stroke-linejoin:miter;stroke-miterlimit:10.43299961;stroke-opacity:1;stroke-dasharray:none;stroke-dashoffset:0"
       ns0:preamble="/home/eric/BHLectures/Notes/latex_inkscape.ini"
       ns0:text="$p$"
       word-spacing="normal"
       letter-spacing="normal"
       font-size-adjust="none"
       font-stretch="normal"
       font-weight="normal"
       font-variant="normal"
       font-style="normal"
       stroke-miterlimit="10.433"
       xml:space="preserve"
       transform="matrix(4,0,0,-4,-224.8619,3583.0752)"
       id="g5908"><path
         id="path5910"
         d="m 223.88,705.91 -0.01,-0.03 0,-0.03 -0.01,-0.03 -0.01,-0.02 0,-0.03 -0.01,-0.02 -0.01,-0.02 -0.01,-0.02 0,-0.02 -0.01,-0.02 -0.01,-0.02 -0.01,-0.01 -0.01,-0.02 -0.01,-0.01 -0.01,-0.02 -0.01,-0.01 -0.02,-0.01 -0.01,-0.01 -0.02,-0.01 -0.02,0 -0.02,-0.01 -0.02,-0.01 -0.02,0 -0.02,-0.01 -0.03,0 -0.02,-0.01 -0.02,0 -0.01,0 -0.02,0 -0.01,0 -0.02,0 -0.02,0 -0.01,0 -0.02,0 -0.02,0 -0.02,0 -0.02,0 -0.02,0 c -0.12,0 -0.23,0 -0.23,-0.19 0,-0.08 0.05,-0.12 0.13,-0.12 0.27,0 0.56,0.03 0.84,0.03 0.33,0 0.66,-0.03 0.98,-0.03 0.05,0 0.18,0 0.18,0.2 0,0.11 -0.1,0.11 -0.24,0.11 -0.49,0 -0.49,0.07 -0.49,0.15 0,0.12 0.41,1.74 0.48,1.99 0.13,-0.29 0.41,-0.63 0.92,-0.63 l -0.01,0.21 c -0.66,0 -0.79,0.83 -0.79,0.89 0,0.02 0,0.04 0.03,0.16 l 0.49,1.94 c 0.07,0.27 0.34,0.55 0.52,0.7 0.35,0.31 0.64,0.38 0.8,0.38 0.4,0 0.64,-0.35 0.64,-0.94 0,-0.58 -0.33,-1.72 -0.51,-2.1 -0.34,-0.7 -0.81,-1.03 -1.18,-1.03 l 0.01,-0.21 c 1.15,0 2.4,1.45 2.4,2.91 0,0.93 -0.57,1.59 -1.33,1.59 -0.49,0 -0.97,-0.36 -1.3,-0.75 -0.1,0.54 -0.53,0.75 -0.89,0.75 -0.46,0 -0.65,-0.39 -0.74,-0.57 -0.18,-0.34 -0.31,-0.93 -0.31,-0.96 0,-0.1 0.1,-0.1 0.12,-0.1 0.1,0 0.11,0.01 0.17,0.22 0.17,0.71 0.37,1.19 0.73,1.19 0.16,0 0.3,-0.08 0.3,-0.46 0,-0.23 -0.03,-0.34 -0.07,-0.51 z"
         inkscape:connector-curvature="0"
         style="fill:#000000;stroke-width:0" /></g>    <g
       id="g6039"
       transform="matrix(4,0,0,-4,-526.08722,3379.6716)"
       xml:space="preserve"
       stroke-miterlimit="10.433"
       font-style="normal"
       font-variant="normal"
       font-weight="normal"
       font-stretch="normal"
       font-size-adjust="none"
       letter-spacing="normal"
       word-spacing="normal"
       ns0:text="$\\mathscr{H}_2^+$"
       ns0:preamble="/home/eric/BHLectures/Notes/latex_inkscape.ini"
       style="font-style:normal;font-variant:normal;font-weight:normal;font-stretch:normal;letter-spacing:normal;word-spacing:normal;text-anchor:start;fill:#338000;fill-opacity:1;fill-rule:evenodd;stroke:#000000;stroke-linecap:butt;stroke-linejoin:miter;stroke-miterlimit:10.43299961;stroke-opacity:1;stroke-dasharray:none;stroke-dashoffset:0"><path
         d="m 232.59,708.52 -0.01,0 0,0 0,0.01 0,0 0,0.01 0,0 0,0.01 0,0 0,0 -0.01,0.01 0,0 0,0 0,0.01 0,0 -0.01,0 0,0 0,0.01 -0.01,0 0,0 0,0 -0.01,0 0,0.01 0,0 -0.01,0 0,0 0,0 -0.01,0 0,0 0,0 -0.01,0 0,0 0,0 h -0.11 c -0.03,0 -0.06,0 -0.07,-0.02 -0.47,-0.66 -1.1,-1.31 -1.59,-1.31 -0.4,0 -0.57,0.19 -0.57,0.51 0,0.48 0.4,1.25 0.98,2.09 0.24,0.34 0.48,0.67 0.73,1.01 1.33,0.08 2.66,0.37 3.4,1.42 0.31,0.44 0.49,0.88 0.49,1.23 0,0.38 -0.21,0.64 -0.71,0.64 l -0.04,-0.22 c 0.33,0 0.49,-0.17 0.49,-0.45 0,-0.28 -0.17,-0.66 -0.48,-1.1 -0.64,-0.9 -1.77,-1.19 -2.98,-1.29 1.1,1.5 2.23,2.84 2.97,2.84 h 0 l 0.04,0.22 c -1.41,0 -2.77,-1.5 -3.96,-3.1 h -1.27 c 0.74,0.99 1.49,1.99 2.27,2.97 0.02,0.03 0.02,0.05 0.02,0.08 l -0.03,0.08 c -0.01,0.03 -0.04,0.06 -0.08,0.06 -0.02,0 -0.04,-0.01 -0.06,-0.03 -0.5,-0.48 -0.99,-0.96 -1.52,-1.48 -0.37,-0.52 -1.13,-0.88 -1.69,-0.88 -0.11,0 -0.19,0.06 -0.19,0.16 0,0.07 0.04,0.16 0.11,0.27 0.14,0.21 0.21,0.4 0.21,0.56 0,0.32 -0.26,0.53 -0.7,0.53 -0.52,0 -1.06,-0.64 -1.43,-1.17 0,-0.01 0,-0.03 0,-0.04 0,-0.05 0.02,-0.09 0.08,-0.09 h 0.1 c 0.03,0 0.05,0.02 0.07,0.04 0.38,0.54 0.76,1.04 1.14,1.04 0.16,0 0.25,-0.08 0.25,-0.22 0,-0.14 -0.08,-0.32 -0.24,-0.55 -0.09,-0.13 -0.13,-0.24 -0.13,-0.34 0,-0.28 0.34,-0.4 0.7,-0.4 0.29,0 0.64,0.07 0.97,0.22 -0.25,-0.28 -0.5,-0.57 -0.74,-0.86 -1.14,-0.11 -2.26,-0.44 -2.94,-1.4 l -0.01,-0.05 c 0,-0.04 0.03,-0.08 0.08,-0.08 h 0.11 c 0.03,0 0.06,0.01 0.07,0.03 0.57,0.81 1.5,1.13 2.49,1.25 -0.39,-0.5 -0.78,-0.99 -1.14,-1.5 -0.74,-1.05 -1.65,-2.14 -2.49,-2.14 -0.66,0 -1.14,0.2 -1.14,0.61 0,0.1 0.03,0.21 0.09,0.34 0.07,-0.1 0.18,-0.15 0.3,-0.15 0.26,0 0.55,0.2 0.55,0.39 0,0.24 -0.15,0.34 -0.32,0.34 -0.21,0 -0.45,-0.12 -0.57,-0.29 -0.18,-0.26 -0.26,-0.48 -0.26,-0.67 0,-0.52 0.59,-0.78 1.31,-0.78 1.11,0 2.57,1.1 3.39,2.25 0.39,0.56 0.79,1.11 1.2,1.67 0.23,0.01 0.46,0.01 0.69,0.01 h 0.59 c -0.21,-0.3 -0.43,-0.6 -0.63,-0.88 -0.49,-0.69 -0.76,-1.37 -0.76,-1.9 0,-0.61 0.35,-1.01 1.15,-1.01 0.63,0 1.39,0.74 1.87,1.42 0.02,0.02 0.02,0.03 0.02,0.05 z"
         id="path6041"
         inkscape:connector-curvature="0"
         style="fill:#000000;stroke-width:0" /><path
         d="m 239.27,712.96 h 2.13 c 0.09,0 0.26,0 0.26,0.16 0,0.18 -0.16,0.18 -0.26,0.18 h -2.13 v 2.13 c 0,0.09 0,0.26 -0.17,0.26 -0.17,0 -0.17,-0.16 -0.17,-0.26 v -2.13 h -2.14 c -0.09,0 -0.26,0 -0.26,-0.17 0,-0.17 0.16,-0.17 0.26,-0.17 h 2.14 v -2.14 c 0,-0.09 0,-0.25 0.17,-0.25 0.17,0 0.17,0.16 0.17,0.25 z"
         id="path6043"
         inkscape:connector-curvature="0"
         style="fill:#000000;stroke-width:0" /><path
         d="m 236.6,705.73 h -0.23 c -0.02,-0.15 -0.09,-0.56 -0.18,-0.63 -0.06,-0.04 -0.59,-0.04 -0.69,-0.04 h -1.28 c 0.73,0.65 0.97,0.84 1.39,1.17 0.51,0.41 0.99,0.84 0.99,1.5 0,0.84 -0.73,1.36 -1.62,1.36 -0.87,0 -1.45,-0.61 -1.45,-1.25 0,-0.35 0.3,-0.39 0.37,-0.39 0.16,0 0.36,0.12 0.36,0.37 0,0.13 -0.04,0.37 -0.41,0.37 0.22,0.49 0.69,0.65 1.02,0.65 0.7,0 1.06,-0.55 1.06,-1.11 0,-0.61 -0.43,-1.08 -0.66,-1.33 l -1.67,-1.66 c -0.07,-0.06 -0.07,-0.08 -0.07,-0.27 h 2.87 z"
         id="path6045"
         inkscape:connector-curvature="0"
         style="fill:#000000;stroke-width:0" /></g>    <g
       style="font-style:normal;font-variant:normal;font-weight:normal;font-stretch:normal;letter-spacing:normal;word-spacing:normal;text-anchor:start;fill:#338000;fill-opacity:1;fill-rule:evenodd;stroke:#000000;stroke-linecap:butt;stroke-linejoin:miter;stroke-miterlimit:10.43299961;stroke-opacity:1;stroke-dasharray:none;stroke-dashoffset:0"
       ns0:preamble="/home/eric/BHLectures/Notes/latex_inkscape.ini"
       ns0:text="$\\mathscr{H}_1^-$"
       word-spacing="normal"
       letter-spacing="normal"
       font-size-adjust="none"
       font-stretch="normal"
       font-weight="normal"
       font-variant="normal"
       font-style="normal"
       stroke-miterlimit="10.433"
       xml:space="preserve"
       transform="matrix(4,0,0,-4,-560.96311,3713.0896)"
       id="g6176"><path
         id="path6178"
         d="m 232.59,708.52 -0.01,0 0,0 0,0.01 0,0 0,0.01 0,0 0,0.01 0,0 0,0 -0.01,0.01 0,0 0,0 0,0.01 0,0 -0.01,0 0,0 0,0.01 -0.01,0 0,0 0,0 -0.01,0 0,0.01 0,0 -0.01,0 0,0 0,0 -0.01,0 0,0 0,0 -0.01,0 0,0 0,0 h -0.11 c -0.03,0 -0.06,0 -0.07,-0.02 -0.47,-0.66 -1.1,-1.31 -1.59,-1.31 -0.4,0 -0.57,0.19 -0.57,0.51 0,0.48 0.4,1.25 0.98,2.09 0.24,0.34 0.48,0.67 0.73,1.01 1.33,0.08 2.66,0.37 3.4,1.42 0.31,0.44 0.49,0.88 0.49,1.23 0,0.38 -0.21,0.64 -0.71,0.64 l -0.04,-0.22 c 0.33,0 0.49,-0.17 0.49,-0.45 0,-0.28 -0.17,-0.66 -0.48,-1.1 -0.64,-0.9 -1.77,-1.19 -2.98,-1.29 1.1,1.5 2.23,2.84 2.97,2.84 h 0 l 0.04,0.22 c -1.41,0 -2.77,-1.5 -3.96,-3.1 h -1.27 c 0.74,0.99 1.49,1.99 2.27,2.97 0.02,0.03 0.02,0.05 0.02,0.08 l -0.03,0.08 c -0.01,0.03 -0.04,0.06 -0.08,0.06 -0.02,0 -0.04,-0.01 -0.06,-0.03 -0.5,-0.48 -0.99,-0.96 -1.52,-1.48 -0.37,-0.52 -1.13,-0.88 -1.69,-0.88 -0.11,0 -0.19,0.06 -0.19,0.16 0,0.07 0.04,0.16 0.11,0.27 0.14,0.21 0.21,0.4 0.21,0.56 0,0.32 -0.26,0.53 -0.7,0.53 -0.52,0 -1.06,-0.64 -1.43,-1.17 0,-0.01 0,-0.03 0,-0.04 0,-0.05 0.02,-0.09 0.08,-0.09 h 0.1 c 0.03,0 0.05,0.02 0.07,0.04 0.38,0.54 0.76,1.04 1.14,1.04 0.16,0 0.25,-0.08 0.25,-0.22 0,-0.14 -0.08,-0.32 -0.24,-0.55 -0.09,-0.13 -0.13,-0.24 -0.13,-0.34 0,-0.28 0.34,-0.4 0.7,-0.4 0.29,0 0.64,0.07 0.97,0.22 -0.25,-0.28 -0.5,-0.57 -0.74,-0.86 -1.14,-0.11 -2.26,-0.44 -2.94,-1.4 l -0.01,-0.05 c 0,-0.04 0.03,-0.08 0.08,-0.08 h 0.11 c 0.03,0 0.06,0.01 0.07,0.03 0.57,0.81 1.5,1.13 2.49,1.25 -0.39,-0.5 -0.78,-0.99 -1.14,-1.5 -0.74,-1.05 -1.65,-2.14 -2.49,-2.14 -0.66,0 -1.14,0.2 -1.14,0.61 0,0.1 0.03,0.21 0.09,0.34 0.07,-0.1 0.18,-0.15 0.3,-0.15 0.26,0 0.55,0.2 0.55,0.39 0,0.24 -0.15,0.34 -0.32,0.34 -0.21,0 -0.45,-0.12 -0.57,-0.29 -0.18,-0.26 -0.26,-0.48 -0.26,-0.67 0,-0.52 0.59,-0.78 1.31,-0.78 1.11,0 2.57,1.1 3.39,2.25 0.39,0.56 0.79,1.11 1.2,1.67 0.23,0.01 0.46,0.01 0.69,0.01 h 0.59 c -0.21,-0.3 -0.43,-0.6 -0.63,-0.88 -0.49,-0.69 -0.76,-1.37 -0.76,-1.9 0,-0.61 0.35,-1.01 1.15,-1.01 0.63,0 1.39,0.74 1.87,1.42 0.02,0.02 0.02,0.03 0.02,0.05 z"
         inkscape:connector-curvature="0"
         style="fill:#000000;stroke-width:0" /><path
         id="path6180"
         d="m 241.23,712.96 0.01,0 0.01,0 0.01,0 0.01,0 0.02,0 0.02,0 0.01,0 0.01,0 0.01,0 0.01,0 0.01,0.01 0.02,0 0.01,0 0.01,0.01 0.01,0 0.01,0 0.01,0.01 0.01,0 0.01,0.01 0.01,0.01 0,0 0.01,0.01 0,0 0.01,0.01 0,0 0,0.01 0.01,0 0,0.01 0,0 0,0.01 0.01,0 0,0.01 0,0.01 0,0 0,0.01 0,0.01 0,0 0.01,0.01 0,0.01 0,0 c 0,0.18 -0.16,0.18 -0.28,0.18 h -4.15 c -0.12,0 -0.28,0 -0.28,-0.17 0,-0.17 0.16,-0.17 0.28,-0.17 z"
         inkscape:connector-curvature="0"
         style="fill:#000000;stroke-width:0" /><path
         id="path6182"
         d="m 235.42,708.89 0,0.01 0,0.01 0,0.01 0,0.01 0,0 0,0.01 0,0.01 0,0 0,0.01 0,0.01 0,0 0,0.01 0,0.01 0,0 0,0.01 0,0 -0.01,0.01 0,0 0,0.01 0,0.01 0,0.01 -0.01,0 0,0.01 -0.01,0 0,0.01 -0.01,0 0,0.01 -0.01,0 -0.01,0 0,0.01 -0.01,0 -0.01,0 -0.01,0 0,0 -0.01,0 0,0 -0.01,0 -0.01,0 0,0 -0.01,0 -0.01,0.01 0,0 -0.01,0 -0.01,0 -0.01,0 0,0 -0.01,0 -0.01,0 -0.01,0 -0.01,0 c -0.44,-0.44 -1.08,-0.45 -1.36,-0.45 v -0.25 c 0.16,0 0.62,0 1.01,0.2 v -3.55 c 0,-0.23 0,-0.32 -0.7,-0.32 h -0.26 v -0.25 c 0.12,0.01 0.98,0.03 1.24,0.03 0.21,0 1.09,-0.02 1.24,-0.03 v 0.25 h -0.26 c -0.7,0 -0.7,0.09 -0.7,0.32 z"
         inkscape:connector-curvature="0"
         style="fill:#000000;stroke-width:0" /></g>    <g
       id="g6345"
       transform="matrix(4,0,0,-4,-109.65081,3720.3684)"
       xml:space="preserve"
       stroke-miterlimit="10.433"
       font-style="normal"
       font-variant="normal"
       font-weight="normal"
       font-stretch="normal"
       font-size-adjust="none"
       letter-spacing="normal"
       word-spacing="normal"
       ns0:text="$\\mathscr{H}_2^-$"
       ns0:preamble="/home/eric/BHLectures/Notes/latex_inkscape.ini"
       style="font-style:normal;font-variant:normal;font-weight:normal;font-stretch:normal;letter-spacing:normal;word-spacing:normal;text-anchor:start;fill:#338000;fill-opacity:1;fill-rule:evenodd;stroke:#000000;stroke-linecap:butt;stroke-linejoin:miter;stroke-miterlimit:10.43299961;stroke-opacity:1;stroke-dasharray:none;stroke-dashoffset:0"><path
         style="fill:#000000;stroke-width:0"
         inkscape:connector-curvature="0"
         d="m 232.59,708.52 -0.01,0 0,0 0,0.01 0,0 0,0.01 0,0 0,0.01 0,0 0,0 -0.01,0.01 0,0 0,0 0,0.01 0,0 -0.01,0 0,0 0,0.01 -0.01,0 0,0 0,0 -0.01,0 0,0.01 0,0 -0.01,0 0,0 0,0 -0.01,0 0,0 0,0 -0.01,0 0,0 0,0 h -0.11 c -0.03,0 -0.06,0 -0.07,-0.02 -0.47,-0.66 -1.1,-1.31 -1.59,-1.31 -0.4,0 -0.57,0.19 -0.57,0.51 0,0.48 0.4,1.25 0.98,2.09 0.24,0.34 0.48,0.67 0.73,1.01 1.33,0.08 2.66,0.37 3.4,1.42 0.31,0.44 0.49,0.88 0.49,1.23 0,0.38 -0.21,0.64 -0.71,0.64 l -0.04,-0.22 c 0.33,0 0.49,-0.17 0.49,-0.45 0,-0.28 -0.17,-0.66 -0.48,-1.1 -0.64,-0.9 -1.77,-1.19 -2.98,-1.29 1.1,1.5 2.23,2.84 2.97,2.84 h 0 l 0.04,0.22 c -1.41,0 -2.77,-1.5 -3.96,-3.1 h -1.27 c 0.74,0.99 1.49,1.99 2.27,2.97 0.02,0.03 0.02,0.05 0.02,0.08 l -0.03,0.08 c -0.01,0.03 -0.04,0.06 -0.08,0.06 -0.02,0 -0.04,-0.01 -0.06,-0.03 -0.5,-0.48 -0.99,-0.96 -1.52,-1.48 -0.37,-0.52 -1.13,-0.88 -1.69,-0.88 -0.11,0 -0.19,0.06 -0.19,0.16 0,0.07 0.04,0.16 0.11,0.27 0.14,0.21 0.21,0.4 0.21,0.56 0,0.32 -0.26,0.53 -0.7,0.53 -0.52,0 -1.06,-0.64 -1.43,-1.17 0,-0.01 0,-0.03 0,-0.04 0,-0.05 0.02,-0.09 0.08,-0.09 h 0.1 c 0.03,0 0.05,0.02 0.07,0.04 0.38,0.54 0.76,1.04 1.14,1.04 0.16,0 0.25,-0.08 0.25,-0.22 0,-0.14 -0.08,-0.32 -0.24,-0.55 -0.09,-0.13 -0.13,-0.24 -0.13,-0.34 0,-0.28 0.34,-0.4 0.7,-0.4 0.29,0 0.64,0.07 0.97,0.22 -0.25,-0.28 -0.5,-0.57 -0.74,-0.86 -1.14,-0.11 -2.26,-0.44 -2.94,-1.4 l -0.01,-0.05 c 0,-0.04 0.03,-0.08 0.08,-0.08 h 0.11 c 0.03,0 0.06,0.01 0.07,0.03 0.57,0.81 1.5,1.13 2.49,1.25 -0.39,-0.5 -0.78,-0.99 -1.14,-1.5 -0.74,-1.05 -1.65,-2.14 -2.49,-2.14 -0.66,0 -1.14,0.2 -1.14,0.61 0,0.1 0.03,0.21 0.09,0.34 0.07,-0.1 0.18,-0.15 0.3,-0.15 0.26,0 0.55,0.2 0.55,0.39 0,0.24 -0.15,0.34 -0.32,0.34 -0.21,0 -0.45,-0.12 -0.57,-0.29 -0.18,-0.26 -0.26,-0.48 -0.26,-0.67 0,-0.52 0.59,-0.78 1.31,-0.78 1.11,0 2.57,1.1 3.39,2.25 0.39,0.56 0.79,1.11 1.2,1.67 0.23,0.01 0.46,0.01 0.69,0.01 h 0.59 c -0.21,-0.3 -0.43,-0.6 -0.63,-0.88 -0.49,-0.69 -0.76,-1.37 -0.76,-1.9 0,-0.61 0.35,-1.01 1.15,-1.01 0.63,0 1.39,0.74 1.87,1.42 0.02,0.02 0.02,0.03 0.02,0.05 z"
         id="path6347" /><path
         style="fill:#000000;stroke-width:0"
         inkscape:connector-curvature="0"
         d="m 241.23,712.96 0.01,0 0.01,0 0.01,0 0.01,0 0.02,0 0.02,0 0.01,0 0.01,0 0.01,0 0.01,0 0.01,0.01 0.02,0 0.01,0 0.01,0.01 0.01,0 0.01,0 0.01,0.01 0.01,0 0.01,0.01 0.01,0.01 0,0 0.01,0.01 0,0 0.01,0.01 0,0 0,0.01 0.01,0 0,0.01 0,0 0,0.01 0.01,0 0,0.01 0,0.01 0,0 0,0.01 0,0.01 0,0 0.01,0.01 0,0.01 0,0 c 0,0.18 -0.16,0.18 -0.28,0.18 h -4.15 c -0.12,0 -0.28,0 -0.28,-0.17 0,-0.17 0.16,-0.17 0.28,-0.17 z"
         id="path6349" /><path
         style="fill:#000000;stroke-width:0"
         inkscape:connector-curvature="0"
         d="m 236.6,705.73 h -0.23 c -0.02,-0.15 -0.09,-0.56 -0.18,-0.63 -0.06,-0.04 -0.59,-0.04 -0.69,-0.04 h -1.28 c 0.73,0.65 0.97,0.84 1.39,1.17 0.51,0.41 0.99,0.84 0.99,1.5 0,0.84 -0.73,1.36 -1.62,1.36 -0.87,0 -1.45,-0.61 -1.45,-1.25 0,-0.35 0.3,-0.39 0.37,-0.39 0.16,0 0.36,0.12 0.36,0.37 0,0.13 -0.04,0.37 -0.41,0.37 0.22,0.49 0.69,0.65 1.02,0.65 0.7,0 1.06,-0.55 1.06,-1.11 0,-0.61 -0.43,-1.08 -0.66,-1.33 l -1.67,-1.66 c -0.07,-0.06 -0.07,-0.08 -0.07,-0.27 h 2.87 z"
         id="path6351" /></g>    <g
       style="font-style:normal;font-variant:normal;font-weight:normal;font-stretch:normal;letter-spacing:normal;word-spacing:normal;text-anchor:start;fill:#338000;fill-opacity:1;fill-rule:evenodd;stroke:#000000;stroke-linecap:butt;stroke-linejoin:miter;stroke-miterlimit:10.43299961;stroke-opacity:1;stroke-dasharray:none;stroke-dashoffset:0"
       ns0:preamble="/home/eric/BHLectures/Notes/latex_inkscape.ini"
       ns0:text="$\\mathscr{H}_1^+$"
       word-spacing="normal"
       letter-spacing="normal"
       font-size-adjust="none"
       font-stretch="normal"
       font-weight="normal"
       font-variant="normal"
       font-style="normal"
       stroke-miterlimit="10.433"
       xml:space="preserve"
       transform="matrix(4,0,0,-4,-111.33396,3429.3328)"
       id="g6522"><path
         id="path6524"
         d="m 232.59,708.52 -0.01,0 0,0 0,0.01 0,0 0,0.01 0,0 0,0.01 0,0 0,0 -0.01,0.01 0,0 0,0 0,0.01 0,0 -0.01,0 0,0 0,0.01 -0.01,0 0,0 0,0 -0.01,0 0,0.01 0,0 -0.01,0 0,0 0,0 -0.01,0 0,0 0,0 -0.01,0 0,0 0,0 h -0.11 c -0.03,0 -0.06,0 -0.07,-0.02 -0.47,-0.66 -1.1,-1.31 -1.59,-1.31 -0.4,0 -0.57,0.19 -0.57,0.51 0,0.48 0.4,1.25 0.98,2.09 0.24,0.34 0.48,0.67 0.73,1.01 1.33,0.08 2.66,0.37 3.4,1.42 0.31,0.44 0.49,0.88 0.49,1.23 0,0.38 -0.21,0.64 -0.71,0.64 l -0.04,-0.22 c 0.33,0 0.49,-0.17 0.49,-0.45 0,-0.28 -0.17,-0.66 -0.48,-1.1 -0.64,-0.9 -1.77,-1.19 -2.98,-1.29 1.1,1.5 2.23,2.84 2.97,2.84 h 0 l 0.04,0.22 c -1.41,0 -2.77,-1.5 -3.96,-3.1 h -1.27 c 0.74,0.99 1.49,1.99 2.27,2.97 0.02,0.03 0.02,0.05 0.02,0.08 l -0.03,0.08 c -0.01,0.03 -0.04,0.06 -0.08,0.06 -0.02,0 -0.04,-0.01 -0.06,-0.03 -0.5,-0.48 -0.99,-0.96 -1.52,-1.48 -0.37,-0.52 -1.13,-0.88 -1.69,-0.88 -0.11,0 -0.19,0.06 -0.19,0.16 0,0.07 0.04,0.16 0.11,0.27 0.14,0.21 0.21,0.4 0.21,0.56 0,0.32 -0.26,0.53 -0.7,0.53 -0.52,0 -1.06,-0.64 -1.43,-1.17 0,-0.01 0,-0.03 0,-0.04 0,-0.05 0.02,-0.09 0.08,-0.09 h 0.1 c 0.03,0 0.05,0.02 0.07,0.04 0.38,0.54 0.76,1.04 1.14,1.04 0.16,0 0.25,-0.08 0.25,-0.22 0,-0.14 -0.08,-0.32 -0.24,-0.55 -0.09,-0.13 -0.13,-0.24 -0.13,-0.34 0,-0.28 0.34,-0.4 0.7,-0.4 0.29,0 0.64,0.07 0.97,0.22 -0.25,-0.28 -0.5,-0.57 -0.74,-0.86 -1.14,-0.11 -2.26,-0.44 -2.94,-1.4 l -0.01,-0.05 c 0,-0.04 0.03,-0.08 0.08,-0.08 h 0.11 c 0.03,0 0.06,0.01 0.07,0.03 0.57,0.81 1.5,1.13 2.49,1.25 -0.39,-0.5 -0.78,-0.99 -1.14,-1.5 -0.74,-1.05 -1.65,-2.14 -2.49,-2.14 -0.66,0 -1.14,0.2 -1.14,0.61 0,0.1 0.03,0.21 0.09,0.34 0.07,-0.1 0.18,-0.15 0.3,-0.15 0.26,0 0.55,0.2 0.55,0.39 0,0.24 -0.15,0.34 -0.32,0.34 -0.21,0 -0.45,-0.12 -0.57,-0.29 -0.18,-0.26 -0.26,-0.48 -0.26,-0.67 0,-0.52 0.59,-0.78 1.31,-0.78 1.11,0 2.57,1.1 3.39,2.25 0.39,0.56 0.79,1.11 1.2,1.67 0.23,0.01 0.46,0.01 0.69,0.01 h 0.59 c -0.21,-0.3 -0.43,-0.6 -0.63,-0.88 -0.49,-0.69 -0.76,-1.37 -0.76,-1.9 0,-0.61 0.35,-1.01 1.15,-1.01 0.63,0 1.39,0.74 1.87,1.42 0.02,0.02 0.02,0.03 0.02,0.05 z"
         inkscape:connector-curvature="0"
         style="fill:#000000;stroke-width:0" /><path
         id="path6526"
         d="m 239.27,712.96 h 2.13 c 0.09,0 0.26,0 0.26,0.16 0,0.18 -0.16,0.18 -0.26,0.18 h -2.13 v 2.13 c 0,0.09 0,0.26 -0.17,0.26 -0.17,0 -0.17,-0.16 -0.17,-0.26 v -2.13 h -2.14 c -0.09,0 -0.26,0 -0.26,-0.17 0,-0.17 0.16,-0.17 0.26,-0.17 h 2.14 v -2.14 c 0,-0.09 0,-0.25 0.17,-0.25 0.17,0 0.17,0.16 0.17,0.25 z"
         inkscape:connector-curvature="0"
         style="fill:#000000;stroke-width:0" /><path
         id="path6528"
         d="m 235.42,708.89 0,0.01 0,0.01 0,0.01 0,0.01 0,0 0,0.01 0,0.01 0,0 0,0.01 0,0.01 0,0 0,0.01 0,0.01 0,0 0,0.01 0,0 -0.01,0.01 0,0 0,0.01 0,0.01 0,0.01 -0.01,0 0,0.01 -0.01,0 0,0.01 -0.01,0 0,0.01 -0.01,0 -0.01,0 0,0.01 -0.01,0 -0.01,0 -0.01,0 0,0 -0.01,0 0,0 -0.01,0 -0.01,0 0,0 -0.01,0 -0.01,0.01 0,0 -0.01,0 -0.01,0 -0.01,0 0,0 -0.01,0 -0.01,0 -0.01,0 -0.01,0 c -0.44,-0.44 -1.08,-0.45 -1.36,-0.45 v -0.25 c 0.16,0 0.62,0 1.01,0.2 v -3.55 c 0,-0.23 0,-0.32 -0.7,-0.32 h -0.26 v -0.25 c 0.12,0.01 0.98,0.03 1.24,0.03 0.21,0 1.09,-0.02 1.24,-0.03 v 0.25 h -0.26 c -0.7,0 -0.7,0.09 -0.7,0.32 z"
         inkscape:connector-curvature="0"
         style="fill:#000000;stroke-width:0" /></g>    <g
       id="g3164"
       transform="matrix(4,0,0,-4,-180.17661,3779.7022)"
       xml:space="preserve"
       stroke-miterlimit="10.433"
       font-style="normal"
       font-variant="normal"
       font-weight="normal"
       font-stretch="normal"
       font-size-adjust="none"
       letter-spacing="normal"
       word-spacing="normal"
       ns0:text="$\\mathscr{L}_1$"
       ns0:preamble="/home/eric/BHLectures/Notes/latex_inkscape.ini"
       style="font-style:normal;font-variant:normal;font-weight:normal;font-stretch:normal;letter-spacing:normal;word-spacing:normal;text-anchor:start;fill:#338000;fill-opacity:1;fill-rule:evenodd;stroke:#338000;stroke-linecap:butt;stroke-linejoin:miter;stroke-miterlimit:10.43299961;stroke-opacity:1;stroke-dasharray:none;stroke-dashoffset:0"><path
         style="fill:#338000;stroke:#338000;stroke-width:0"
         d="m 231.39,708.52 0,0 0,0 0,0.01 0,0 0,0.01 0,0 0,0.01 -0.01,0 0,0 0,0.01 0,0 0,0 -0.01,0.01 0,0 0,0 0,0 -0.01,0.01 0,0 0,0 -0.01,0 0,0 0,0.01 -0.01,0 0,0 0,0 -0.01,0 0,0 0,0 -0.01,0 0,0 0,0 -0.01,0 h -0.12 c -0.02,0 -0.05,0 -0.06,-0.02 -0.45,-0.64 -1.37,-1.13 -2.02,-1.13 -0.66,0 -1.23,0.13 -1.8,0.27 0.64,0.39 1.21,0.89 1.6,1.45 l 1,1.39 c 1.28,0.19 2.61,0.69 3.34,1.74 0.3,0.43 0.46,0.86 0.46,1.19 0,0.46 -0.28,0.77 -0.89,0.77 l -0.04,-0.23 c 0.38,0 0.56,-0.2 0.56,-0.51 0,-0.29 -0.16,-0.68 -0.47,-1.12 -0.61,-0.86 -1.68,-1.35 -2.76,-1.56 1.22,1.7 2.38,3.19 2.67,3.19 h 0 l 0.04,0.23 c -0.97,0 -2.42,-1.77 -3.73,-3.55 -0.15,-0.01 -0.3,-0.02 -0.44,-0.02 -1.03,0 -1.75,0.37 -1.75,1.03 0,0.26 0.11,0.57 0.37,0.93 0.48,0.68 1.43,1.22 2.09,1.22 0.02,0 0.05,0.01 0.06,0.03 l 0.04,0.06 c 0.01,0.01 0.02,0.03 0.02,0.05 0,0.03 -0.02,0.05 -0.04,0.06 0,0.01 -0.01,0.01 -0.02,0.02 -0.1,0.03 -0.2,0.04 -0.31,0.04 -0.76,0 -1.82,-0.61 -2.37,-1.38 -0.27,-0.4 -0.39,-0.75 -0.39,-1.03 0,-0.85 1.02,-1.25 2.26,-1.25 0.1,0 0.21,0 0.31,0.01 -0.29,-0.42 -0.58,-0.82 -0.85,-1.21 -0.37,-0.52 -0.86,-1.01 -1.37,-1.39 -0.48,0.11 -0.98,0.2 -1.56,0.2 h -0.06 l 0.02,-0.22 c 0.48,0 0.88,-0.09 1.26,-0.22 -0.45,-0.28 -0.91,-0.45 -1.3,-0.45 h 0 c -0.57,0 -0.93,0.02 -0.93,0.18 0,0.04 0.01,0.08 0.05,0.13 0.19,0.27 0.58,0.36 0.92,0.36 l -0.02,0.22 c -0.48,0 -1.09,-0.01 -1.42,-0.48 -0.07,-0.1 -0.11,-0.19 -0.11,-0.26 0,-0.35 0.8,-0.37 1.32,-0.37 h 0.15 c 0.56,0 1.21,0.19 1.83,0.49 l 0.12,-0.05 c 0.57,-0.23 1.14,-0.44 1.91,-0.44 0.82,0 1.92,0.7 2.49,1.51 0.01,0.02 0.02,0.03 0.02,0.05 z"
         id="path3166"
         inkscape:connector-curvature="0" /><path
         style="fill:#338000;stroke:#338000;stroke-width:0"
         d="m 234.47,710.05 0,0.01 0,0.01 0,0.01 0,0.01 0,0 0,0.01 0,0.01 0,0.01 0,0 0,0.01 0,0.01 0,0 0,0.01 0,0 0,0.01 -0.01,0 0,0.01 0,0 0,0.01 0,0.01 0,0.01 -0.01,0 0,0.01 -0.01,0.01 0,0 -0.01,0.01 0,0 -0.01,0 -0.01,0.01 -0.01,0 0,0 -0.01,0 -0.01,0 0,0 -0.01,0 -0.01,0.01 0,0 -0.01,0 0,0 -0.01,0 -0.01,0 0,0 -0.01,0 -0.01,0 -0.01,0 0,0 -0.01,0 -0.01,0 -0.01,0 -0.01,0 c -0.44,-0.44 -1.08,-0.45 -1.36,-0.45 v -0.25 c 0.16,0 0.62,0 1.01,0.2 v -3.55 c 0,-0.23 0,-0.32 -0.7,-0.32 h -0.26 v -0.25 c 0.12,0.01 0.98,0.03 1.23,0.03 0.22,0 1.1,-0.02 1.25,-0.03 v 0.25 h -0.26 c -0.7,0 -0.7,0.09 -0.7,0.32 z"
         id="path3168"
         inkscape:connector-curvature="0" /></g>    <g
       style="font-style:normal;font-variant:normal;font-weight:normal;font-stretch:normal;letter-spacing:normal;word-spacing:normal;text-anchor:start;fill:#338000;fill-opacity:1;fill-rule:evenodd;stroke:#338000;stroke-linecap:butt;stroke-linejoin:miter;stroke-miterlimit:10.43299961;stroke-opacity:1;stroke-dasharray:none;stroke-dashoffset:0"
       ns0:preamble="/home/eric/BHLectures/Notes/latex_inkscape.ini"
       ns0:text="$\\mathscr{L}_2$"
       word-spacing="normal"
       letter-spacing="normal"
       font-size-adjust="none"
       font-stretch="normal"
       font-weight="normal"
       font-variant="normal"
       font-style="normal"
       stroke-miterlimit="10.433"
       xml:space="preserve"
       transform="matrix(4,0,0,-4,-358.48288,3779.3969)"
       id="g3352"><path
         id="path3354"
         d="m 231.39,708.52 0,0 0,0 0,0.01 0,0 0,0.01 0,0 0,0.01 -0.01,0 0,0 0,0.01 0,0 0,0 -0.01,0.01 0,0 0,0 0,0 -0.01,0.01 0,0 0,0 -0.01,0 0,0 0,0.01 -0.01,0 0,0 0,0 -0.01,0 0,0 0,0 -0.01,0 0,0 0,0 -0.01,0 h -0.12 c -0.02,0 -0.05,0 -0.06,-0.02 -0.45,-0.64 -1.37,-1.13 -2.02,-1.13 -0.66,0 -1.23,0.13 -1.8,0.27 0.64,0.39 1.21,0.89 1.6,1.45 l 1,1.39 c 1.28,0.19 2.61,0.69 3.34,1.74 0.3,0.43 0.46,0.86 0.46,1.19 0,0.46 -0.28,0.77 -0.89,0.77 l -0.04,-0.23 c 0.38,0 0.56,-0.2 0.56,-0.51 0,-0.29 -0.16,-0.68 -0.47,-1.12 -0.61,-0.86 -1.68,-1.35 -2.76,-1.56 1.22,1.7 2.38,3.19 2.67,3.19 h 0 l 0.04,0.23 c -0.97,0 -2.42,-1.77 -3.73,-3.55 -0.15,-0.01 -0.3,-0.02 -0.44,-0.02 -1.03,0 -1.75,0.37 -1.75,1.03 0,0.26 0.11,0.57 0.37,0.93 0.48,0.68 1.43,1.22 2.09,1.22 0.02,0 0.05,0.01 0.06,0.03 l 0.04,0.06 c 0.01,0.01 0.02,0.03 0.02,0.05 0,0.03 -0.02,0.05 -0.04,0.06 0,0.01 -0.01,0.01 -0.02,0.02 -0.1,0.03 -0.2,0.04 -0.31,0.04 -0.76,0 -1.82,-0.61 -2.37,-1.38 -0.27,-0.4 -0.39,-0.75 -0.39,-1.03 0,-0.85 1.02,-1.25 2.26,-1.25 0.1,0 0.21,0 0.31,0.01 -0.29,-0.42 -0.58,-0.82 -0.85,-1.21 -0.37,-0.52 -0.86,-1.01 -1.37,-1.39 -0.48,0.11 -0.98,0.2 -1.56,0.2 h -0.06 l 0.02,-0.22 c 0.48,0 0.88,-0.09 1.26,-0.22 -0.45,-0.28 -0.91,-0.45 -1.3,-0.45 h 0 c -0.57,0 -0.93,0.02 -0.93,0.18 0,0.04 0.01,0.08 0.05,0.13 0.19,0.27 0.58,0.36 0.92,0.36 l -0.02,0.22 c -0.48,0 -1.09,-0.01 -1.42,-0.48 -0.07,-0.1 -0.11,-0.19 -0.11,-0.26 0,-0.35 0.8,-0.37 1.32,-0.37 h 0.15 c 0.56,0 1.21,0.19 1.83,0.49 l 0.12,-0.05 c 0.57,-0.23 1.14,-0.44 1.91,-0.44 0.82,0 1.92,0.7 2.49,1.51 0.01,0.02 0.02,0.03 0.02,0.05 z"
         style="fill:#338000;stroke-width:0"
         inkscape:connector-curvature="0" /><path
         id="path3356"
         d="m 235.65,706.9 h -0.23 c -0.02,-0.16 -0.09,-0.57 -0.18,-0.64 -0.06,-0.04 -0.6,-0.04 -0.69,-0.04 h -1.29 c 0.74,0.65 0.98,0.84 1.4,1.17 0.51,0.41 0.99,0.84 0.99,1.5 0,0.84 -0.73,1.36 -1.63,1.36 -0.86,0 -1.44,-0.61 -1.44,-1.25 0,-0.35 0.3,-0.39 0.37,-0.39 0.16,0 0.36,0.12 0.36,0.37 0,0.13 -0.05,0.37 -0.41,0.37 0.22,0.49 0.69,0.65 1.02,0.65 0.7,0 1.06,-0.54 1.06,-1.11 0,-0.6 -0.43,-1.08 -0.66,-1.33 l -1.67,-1.66 c -0.07,-0.06 -0.07,-0.07 -0.07,-0.27 h 2.87 z"
         style="fill:#338000;stroke-width:0"
         inkscape:connector-curvature="0" /></g>  </g>
</svg>
